<?xml version="1.0" standalone="no"?>
<!DOCTYPE svg PUBLIC "-//W3C//DTD SVG 1.1//EN" "http://www.w3.org/Graphics/SVG/1.1/DTD/svg11.dtd" >
<svg>
<metadata>
Created by FontForge 20090622 at Mon Aug 31 22:47:52 2015
 By deploy user
Copyright 2013 Dalton Maag Ltd. Modification of this file requires prior written permission from Dalton Maag Ltd.
</metadata>
<defs>
<font id="Effra-HeavyItalic" horiz-adv-x="561" >
  <font-face 
    font-family="Effra Heavy"
    font-weight="900"
    font-style="italic"
    font-stretch="normal"
    units-per-em="1000"
    panose-1="2 11 8 3 2 2 3 9 2 4"
    ascent="798"
    descent="-202"
    x-height="470"
    cap-height="667"
    bbox="-180 -241 1207 952"
    underline-thickness="45"
    underline-position="-123"
    slope="-11"
    unicode-range="U+0008-U+FB04"
  />
<missing-glyph horiz-adv-x="500" 
d="M140 700h442l-136 -700h-442zM393 54l115 592h-317l-115 -592h317z" />
    <glyph glyph-name="f_f" unicode="ff" horiz-adv-x="659" 
d="M415 540q-11 7 -18.5 9.5t-18.5 2.5q-22 0 -37 -10.5t-21 -41.5l-6 -30h136l4 22q8 46 24.5 82t42.5 61t63.5 37.5t87.5 12.5q78 0 143 -54l-76 -103q-12 10 -26 16t-32 6q-25 0 -42.5 -15t-22.5 -44l-4 -21h98l-24 -127h-98l-67 -343h-162l67 343h-136l-67 -343h-162
l67 343h-70l24 127h70l6 31q33 184 209 184q33 0 59 -8t53 -25z" />
    <glyph glyph-name="f_i" unicode="fi" horiz-adv-x="585" 
d="M418 685q23 0 49 -3t51.5 -9.5t50 -16.5t44.5 -24l-77 -109q-25 14 -53.5 24t-66.5 10q-35 0 -63 -15t-35 -51l-4 -21h285l-91 -470h-162l66 343h-122l-67 -343h-162l67 343h-70l24 127h70l4 21q18 95 87 144.5t175 49.5z" />
    <glyph glyph-name="f_l" unicode="fl" horiz-adv-x="582" 
d="M452 549q-18 7 -43 7q-30 0 -57 -15t-34 -50l-4 -21h76l-24 -127h-76l-67 -343h-162l67 343h-70l24 127h70l4 21q18 95 87 144.5t175 49.5q53 0 105.5 -11.5t106.5 -41.5l-122 -632h-162z" />
    <glyph glyph-name="f_f_i" unicode="ffi" horiz-adv-x="883" 
d="M290 343l-67 -343h-162l67 343h-70l24 127h70l6 31q33 184 209 184q33 0 59 -8t53 -25l-64 -112q-17 12 -37 12q-22 0 -37.5 -10.5t-20.5 -41.5l-5 -30h135l4 22q17 95 86.5 144t175.5 49q23 0 49 -3t51.5 -9.5t50 -16.5t44.5 -24l-77 -109q-25 14 -53.5 24t-66.5 10
q-35 0 -63 -15t-35 -51l-4 -21h285l-91 -470h-162l66 343h-122l-67 -343h-162l67 343h-136z" />
    <glyph glyph-name="f_f_l" unicode="ffl" horiz-adv-x="879" 
d="M415 540q-17 12 -37 12q-22 0 -37.5 -10.5t-20.5 -41.5l-5 -30h135l3 22q6 48 28 84t56.5 60t79.5 36.5t98 12.5t105.5 -11.5t106.5 -41.5l-122 -632h-162l106 549q-18 7 -43 7q-30 0 -57 -15t-34 -50l-4 -21h76l-24 -127h-76l-67 -343h-162l67 343h-135l-67 -343h-162
l67 343h-70l24 127h70l6 31q18 94 69 139t140 45q33 0 59 -8t53 -25z" />
    <glyph glyph-name=".notdef" horiz-adv-x="500" 
d="M140 700h442l-136 -700h-442zM393 54l115 592h-317l-115 -592h317z" />
    <glyph glyph-name=".null" horiz-adv-x="0" 
 />
    <glyph glyph-name=".null" horiz-adv-x="0" 
 />
    <glyph glyph-name=".null" horiz-adv-x="0" 
 />
    <glyph glyph-name="nonmarkingreturn" unicode="&#x9;" horiz-adv-x="154" 
 />
    <glyph glyph-name="nonmarkingreturn" unicode="&#xd;" horiz-adv-x="154" 
 />
    <glyph glyph-name="space" unicode=" " horiz-adv-x="154" 
 />
    <glyph glyph-name="exclam" unicode="!" horiz-adv-x="297" 
d="M74 170h164l-33 -170h-164zM164 667h177l-95 -441h-159z" />
    <glyph glyph-name="quotedbl" unicode="&#x22;" horiz-adv-x="440" 
d="M133 667h147l-52 -266h-147zM343 667h147l-52 -266h-147z" />
    <glyph glyph-name="numbersign" unicode="#" horiz-adv-x="686" 
d="M121 136h-83l19 117h111l43 109h-81l20 117h108l62 151h126l-60 -151h107l61 151h128l-61 -151h78l-20 -117h-105l-43 -109h75l-19 -117h-103l-55 -136h-127l53 136h-106l-55 -136h-127zM402 253l43 109h-107l-43 -109h107z" />
    <glyph glyph-name="dollar" unicode="$" 
d="M190 -9q-53 9 -99.5 31t-80.5 57l99 115q33 -32 73.5 -49.5t85.5 -17.5q44 0 64 15t20 38q0 13 -4 23.5t-15 20t-30 20t-50 22.5q-73 29 -111 70.5t-38 98.5q0 44 14 81t41 64.5t67 44.5t92 21l16 83h114l-17 -90q45 -11 83.5 -32t66.5 -53l-102 -96q-31 33 -64 44.5
t-60 11.5q-36 0 -60.5 -13t-24.5 -41q0 -11 4 -20.5t15.5 -19.5t32.5 -20.5t55 -23.5q42 -17 70 -36.5t44.5 -41.5t23.5 -47.5t7 -54.5q0 -48 -17 -85.5t-47 -64t-70 -42t-85 -19.5l-17 -93h-114z" />
    <glyph glyph-name="percent" unicode="%" horiz-adv-x="884" 
d="M644 630h142l-485 -630h-146zM233 284q-34 0 -59.5 10.5t-42.5 29t-25.5 43.5t-8.5 53q0 50 15.5 91.5t41.5 71.5t60 46.5t72 16.5q34 0 59 -10.5t42 -29t25.5 -43.5t8.5 -53q0 -51 -15.5 -92.5t-41 -71t-60 -46t-71.5 -16.5zM241 378q12 0 24.5 8t23 24t17 40.5
t6.5 57.5q0 22 -10 33.5t-25 11.5q-12 0 -24.5 -8t-23 -24t-17 -40.5t-6.5 -57.5q0 -23 9.5 -34t25.5 -11zM660 -10q-34 0 -59.5 10.5t-42.5 29t-25.5 43.5t-8.5 53q0 50 15.5 91.5t41.5 71.5t60 46.5t72 16.5q34 0 59 -10.5t42 -29t25.5 -43.5t8.5 -53q0 -51 -15.5 -92.5
t-41 -71t-60 -46t-71.5 -16.5zM668 84q12 0 24.5 8t23 24t17 40.5t6.5 57.5q0 22 -10 33.5t-25 11.5q-12 0 -24.5 -8t-23 -24t-17 -40.5t-6.5 -57.5q0 -23 9.5 -34t25.5 -11z" />
    <glyph glyph-name="ampersand" unicode="&#x26;" horiz-adv-x="657" 
d="M658 256l-126 -109l92 -147h-173l-33 52q-48 -35 -88.5 -51.5t-87.5 -16.5q-49 0 -86 15.5t-62 41t-37.5 59t-12.5 69.5q0 65 38 120.5t127 100.5q-14 27 -22 53.5t-8 51.5q0 40 14 74.5t42 60t68.5 40.5t94.5 15q30 0 57.5 -6t52.5 -21.5t45.5 -41t35.5 -64.5l-121 -63
q-8 20 -16.5 31.5t-18 17.5t-19 7.5t-18.5 1.5q-26 0 -43.5 -15.5t-17.5 -41.5q0 -13 5.5 -28.5t14.5 -30.5l105 -168l109 95zM272 128q20 0 37 9t39 27l-76 122q-27 -14 -48.5 -35.5t-21.5 -56.5q0 -26 19 -46t51 -20z" />
    <glyph glyph-name="quotesingle" unicode="'" horiz-adv-x="230" 
d="M133 667h147l-52 -266h-147z" />
    <glyph glyph-name="parenleft" unicode="(" horiz-adv-x="337" 
d="M104 -93q-3 9 -8.5 29t-11 49.5t-9 66.5t-3.5 80q0 106 24 202t55.5 172.5t62 128.5t44.5 71h165q-41 -59 -76 -126.5t-60.5 -141t-39.5 -151t-14 -155.5q0 -48 4.5 -86.5t9.5 -67.5t10 -47t7 -24h-160z" />
    <glyph glyph-name="parenright" unicode=")" horiz-adv-x="337" 
d="M300 706q3 -9 8.5 -29t11 -49.5t9 -66.5t3.5 -80q0 -106 -24 -202t-55.5 -172.5t-62 -128.5t-44.5 -71h-165q41 58 76 126t60.5 141.5t39.5 151t14 155.5q0 48 -4.5 86.5t-9.5 67.5t-10.5 47t-6.5 24h160z" />
    <glyph glyph-name="asterisk" unicode="*" horiz-adv-x="469" 
d="M105 481l103 41l-103 41l65 112l83 -63l-15 102h130l-13 -104l83 62l65 -112l-103 -36l103 -40l-65 -112l-84 63l14 -105h-130l16 102l-84 -63z" />
    <glyph glyph-name="plus" unicode="+" 
d="M231 252h-126l26 128h126l26 138h130l-26 -138h127l-26 -128h-127l-26 -136h-130z" />
    <glyph glyph-name="comma" unicode="," horiz-adv-x="282" 
d="M87 0h-60l34 179h180l-34 -179l-108 -143h-99z" />
    <glyph glyph-name="hyphen" unicode="-" horiz-adv-x="434" 
d="M103 359h316l-31 -158h-316z" />
    <glyph glyph-name="period" unicode="." horiz-adv-x="282" 
d="M63 178h175l-34 -178h-175z" />
    <glyph glyph-name="slash" unicode="/" horiz-adv-x="454" 
d="M381 685h165l-391 -701h-167z" />
    <glyph glyph-name="zero" unicode="0" 
d="M259 -16q-47 0 -84 16.5t-63 46.5t-40 72t-14 93q0 39 6.5 86t21.5 95.5t39 94.5t58.5 81.5t80 57t104.5 21.5q48 0 86.5 -16.5t65.5 -46.5t41 -72t14 -93q0 -42 -6.5 -91t-22 -97.5t-39.5 -93t-59.5 -79t-82 -55t-106.5 -20.5zM217 231q0 -51 17 -74t46 -23
q35 0 60.5 27t42.5 67t25.5 86.5t8.5 86.5q0 51 -17 74t-46 23q-36 0 -61.5 -27t-42.5 -67t-25 -86.5t-8 -86.5z" />
    <glyph glyph-name="one" unicode="1" 
d="M125 140h108l60 306l-98 -52l-58 120l212 116h137l-96 -490h105l-26 -140h-370z" />
    <glyph glyph-name="two" unicode="2" 
d="M56 80q8 43 25.5 78t42.5 64t58 54t73 49l51 31t44.5 30t31.5 31.5t12 36.5q0 25 -17 38t-44 13q-32 0 -61.5 -16t-60.5 -52l-107 85q21 27 46 50.5t56 40t69 26t85 9.5t84.5 -14t63 -37t39 -52t13.5 -60q0 -39 -8 -68.5t-26 -54t-46.5 -47t-69.5 -47.5l-45 -26.5
t-48 -30t-42 -32.5t-28 -34h247l-28 -145h-425z" />
    <glyph glyph-name="three" unicode="3" 
d="M390 378q57 -18 91.5 -63t34.5 -108q0 -48 -17.5 -89t-50.5 -70.5t-80 -46.5t-105 -17q-79 0 -135 22.5t-100 63.5l88 116q38 -32 70 -46.5t69 -14.5q46 0 72 24t26 62q0 14 -4.5 28t-13.5 25t-23.5 17.5t-34.5 6.5q-21 0 -35.5 -3t-28.5 -8l-35 65l178 149h-219l27 139
h404l-23 -116z" />
    <glyph glyph-name="four" unicode="4" 
d="M57 229l337 401h165l-75 -388h60l-26 -130h-60l-21 -112h-149l21 112h-276zM335 242l37 191l-162 -191h125z" />
    <glyph glyph-name="five" unicode="5" 
d="M258 -16q-77 0 -128 20.5t-93 58.5l87 115q35 -29 64 -40.5t64 -11.5q42 0 69.5 23.5t27.5 73.5q0 40 -24.5 56t-59.5 16q-46 0 -81 -20l-58 53l98 302h341l-28 -139h-230l-26 -89q15 2 29 3.5t28 1.5q41 0 73.5 -14t54.5 -38t33.5 -57t11.5 -71q0 -53 -18 -97.5t-51 -77
t-79.5 -50.5t-104.5 -18z" />
    <glyph glyph-name="six" unicode="6" 
d="M497 472q-26 19 -47.5 27t-54.5 8q-44 0 -82.5 -29.5t-55.5 -81.5q24 10 49 14t50 4q39 0 71 -14.5t55 -39.5t35.5 -58t12.5 -69q0 -62 -19.5 -108.5t-52.5 -78t-77.5 -47t-93.5 -15.5q-57 0 -98 19t-68 51.5t-40 74.5t-13 89q0 48 9 98.5t27 98t46 90t65 74.5t84.5 50.5
t105.5 18.5q55 0 97.5 -14.5t74.5 -42.5zM223 263q-8 -27 -8 -53q0 -17 4.5 -33t14.5 -28.5t25 -20t35 -7.5q16 0 32 5.5t28.5 17.5t20.5 30.5t8 45.5q0 32 -20 53t-52 21q-29 0 -51.5 -9t-36.5 -22z" />
    <glyph glyph-name="seven" unicode="7" 
d="M81 0q28 58 66.5 127.5l79.5 137.5l80.5 127.5t70.5 97.5h-258l28 140h431l-26 -132q-53 -70 -95.5 -134.5t-78.5 -125.5t-66.5 -120l-60.5 -118h-171z" />
    <glyph glyph-name="eight" unicode="8" 
d="M577 494q0 -54 -29 -92.5t-88 -70.5q37 -26 57.5 -59t20.5 -84q0 -38 -16 -74t-49 -65t-82.5 -46.5t-116.5 -17.5q-63 0 -107 16t-72 42t-40.5 57.5t-12.5 63.5q0 37 11 64.5t30.5 49.5t46 39t56.5 33q-29 31 -39 58t-10 61t15.5 66t45 57t72.5 40.5t98 15.5
q58 0 97.5 -15t64.5 -37.5t36 -49.5t11 -52zM279 460q0 -21 15 -40t48 -35q16 4 32 11t28 17.5t19.5 25.5t7.5 36q0 20 -17.5 38.5t-48.5 18.5q-14 0 -29 -3.5t-27 -12t-20 -22t-8 -34.5zM378 193q0 22 -14.5 43.5t-55.5 39.5q-18 -5 -35 -13t-30.5 -20t-21.5 -28t-8 -38
q0 -23 19.5 -43t53.5 -20q16 0 32 4t29.5 13t22 24t8.5 38z" />
    <glyph glyph-name="nine" unicode="9" 
d="M117 162q29 -21 56 -29t62 -8q49 0 79.5 29.5t41.5 82.5q-47 -19 -94 -19q-39 0 -71 13.5t-54.5 37t-35 55.5t-12.5 68q0 62 19 109.5t52 80t76.5 49.5t93.5 17q57 0 98 -19t67.5 -51.5t39 -75t12.5 -88.5q0 -48 -6.5 -98.5t-21.5 -98t-39.5 -90t-60.5 -74.5t-84 -50.5
t-110 -18.5q-55 0 -97.5 13.5t-80.5 42.5zM394 370q4 13 6 25.5t2 26.5q0 17 -5 33t-14.5 28.5t-24.5 20t-35 7.5q-16 0 -31.5 -5.5t-28 -17.5t-20 -30.5t-7.5 -45.5q0 -32 19.5 -51.5t51.5 -19.5q27 0 50 8t37 21z" />
    <glyph glyph-name="colon" unicode=":" horiz-adv-x="282" 
d="M63 178h175l-34 -178h-175zM120 470h175l-34 -178h-175z" />
    <glyph glyph-name="semicolon" unicode=";" horiz-adv-x="282" 
d="M89 0h-60l34 179h180l-34 -179l-108 -143h-99zM120 470h175l-34 -178h-175z" />
    <glyph glyph-name="less" unicode="&#x3c;" 
d="M124 363l366 183l54 -117l-256 -116l205 -117l-78 -119l-310 189z" />
    <glyph glyph-name="equal" unicode="=" 
d="M152 472h383l-26 -130h-383zM116 275h383l-26 -130h-383z" />
    <glyph glyph-name="greater" unicode="&#x3e;" 
d="M500 266l-366 -183l-53 120l256 116l-205 117l77 116l310 -189z" />
    <glyph glyph-name="question" unicode="?" horiz-adv-x="523" 
d="M196 260q10 51 38.5 82t58.5 53.5t53 41.5t23 47q0 26 -17 36.5t-44 10.5q-36 0 -67 -14t-57 -40l-93 105q53 54 112.5 79t133.5 25q42 0 78.5 -11t64 -32.5t43.5 -54t16 -75.5q0 -45 -18.5 -81.5t-54.5 -66.5q-20 -17 -40.5 -31.5t-37.5 -29.5t-29.5 -31.5t-16.5 -36.5
l-2 -11h-151zM172 167h164l-33 -167h-164z" />
    <glyph glyph-name="at" unicode="@" horiz-adv-x="930" 
d="M650 -15q-84 0 -118 59q-26 -29 -58 -44.5t-77 -15.5q-28 0 -53.5 9.5t-44.5 27t-30.5 43.5t-11.5 59q0 77 59.5 124t168.5 47q23 0 41.5 -1.5t35.5 -3.5l2 10q1 4 1 11q0 27 -22 40t-54 13q-42 0 -70.5 -9.5t-55.5 -24.5l-54 97q35 24 91.5 41.5t122.5 17.5q42 0 77 -11
t60.5 -33t39.5 -54.5t14 -74.5q0 -21 -5 -49l-27 -136q-1 -5 -1.5 -8.5t-0.5 -6.5q0 -21 15 -21q13 0 29 13q47 38 68 95t21 138q0 55 -19.5 100.5t-55.5 78t-87.5 50t-116.5 17.5q-92 0 -160.5 -26t-115 -70.5t-69.5 -103t-23 -123.5q0 -57 14 -114.5t47 -112.5l-93 -54
q-24 39 -39 74.5t-24 69.5t-12.5 66.5t-3.5 66.5q0 85 31 163t92.5 137t153 94t213.5 35q84 0 154 -26t121 -71.5t79.5 -108.5t28.5 -137q0 -68 -18 -132t-53 -114t-87 -80.5t-120 -30.5zM544 202q-17 4 -45 4q-42 0 -64.5 -15t-22.5 -43q0 -45 43 -45q12 0 24.5 3
t24.5 10.5t21 20.5t13 34z" />
    <glyph glyph-name="A" unicode="A" horiz-adv-x="680" 
d="M350 667h195l97 -667h-175l-15 140h-214l-69 -140h-183zM442 266l-25 246l-120 -246h145z" />
    <glyph glyph-name="B" unicode="B" horiz-adv-x="612" 
d="M164 667h252q59 0 97 -15t60.5 -38t31.5 -51.5t9 -56.5q0 -33 -11 -59t-28.5 -44.5t-38 -30.5t-39.5 -18q15 -5 32.5 -16.5t32.5 -29.5t25 -41.5t10 -52.5q0 -59 -20 -99.5t-57.5 -66t-91.5 -37t-123 -11.5h-270zM352 397q36 0 63.5 19.5t27.5 66.5q0 26 -14.5 43
t-50.5 17h-72l-28 -146h74zM324 123q20 0 38 5t32 16t22.5 29.5t8.5 44.5q0 29 -16 48.5t-57 19.5h-96l-31 -163h99z" />
    <glyph glyph-name="C" unicode="C" horiz-adv-x="665" 
d="M662 119q-57 -61 -126 -98t-164 -37q-66 0 -121 20.5t-94.5 59t-62 93.5t-22.5 124q0 82 28 155.5t79 129t121 88t154 32.5q108 0 177 -47.5t98 -129.5l-141 -73q-23 48 -55.5 68.5t-86.5 20.5q-46 0 -82.5 -19.5t-62 -51t-39 -73t-13.5 -84.5q0 -30 9 -57.5t26.5 -48.5
t43.5 -33.5t60 -12.5q53 0 91 22t75 65z" />
    <glyph glyph-name="D" unicode="D" horiz-adv-x="698" 
d="M304 514l-69 -360h100q46 0 82 17.5t61 47.5t38.5 70t13.5 85q0 66 -35.5 103t-104.5 37h-86zM35 0l129 667h241q63 0 118 -19t95.5 -54t64 -85.5t23.5 -114.5q0 -86 -27.5 -158.5t-78.5 -125t-124 -81.5t-164 -29h-277z" />
    <glyph glyph-name="E" unicode="E" 
d="M164 667h457l-30 -151h-287l-20 -106h236l-28 -142h-236l-22 -117h308l-29 -151h-478z" />
    <glyph glyph-name="F" unicode="F" horiz-adv-x="523" 
d="M164 667h446l-30 -153h-276l-25 -132h214l-28 -144h-214l-46 -238h-170z" />
    <glyph glyph-name="G" unicode="G" horiz-adv-x="702" 
d="M439 379h263l-61 -309q-52 -39 -121.5 -62.5t-147.5 -23.5q-66 0 -121 20.5t-95 59t-62.5 92.5t-22.5 122q0 84 29 158.5t80 130t120 87.5t149 32q101 0 165.5 -42.5t97.5 -117.5l-138 -77q-23 42 -53.5 59t-80.5 17q-44 0 -79.5 -19.5t-60.5 -51t-38.5 -72.5t-13.5 -84
q0 -30 8 -59t24.5 -51t42 -35.5t59.5 -13.5q44 0 72 6.5t57 25.5l14 77h-113z" />
    <glyph glyph-name="H" unicode="H" horiz-adv-x="695" 
d="M164 667h170l-47 -246h236l47 246h170l-129 -667h-170l50 263h-236l-50 -263h-170z" />
    <glyph glyph-name="I" unicode="I" horiz-adv-x="289" 
d="M164 667h170l-129 -667h-170z" />
    <glyph glyph-name="J" unicode="J" horiz-adv-x="521" 
d="M109 191q24 -29 51 -42.5t57 -13.5q40 0 62.5 22.5t32.5 72.5l85 437h169l-90 -467q-42 -218 -247 -218q-69 0 -124 23.5t-100 74.5z" />
    <glyph glyph-name="K" unicode="K" horiz-adv-x="664" 
d="M164 667h170l-48 -250l242 250h198l-265 -269l161 -398h-195l-108 277l-74 -72l-40 -205h-170z" />
    <glyph glyph-name="L" unicode="L" horiz-adv-x="547" 
d="M164 667h170l-100 -515h296l-29 -152h-466z" />
    <glyph glyph-name="M" unicode="M" horiz-adv-x="786" 
d="M179 667h163l86 -302l218 302h167l-100 -667h-172l61 391l-165 -228h-91l-74 228l-89 -391h-163z" />
    <glyph glyph-name="N" unicode="N" horiz-adv-x="687" 
d="M164 667h144l183 -380l73 380h168l-129 -667h-135l-190 391l-75 -391h-168z" />
    <glyph glyph-name="O" unicode="O" horiz-adv-x="743" 
d="M443 525q-45 0 -81 -19.5t-61.5 -51t-39 -73t-13.5 -84.5q0 -32 8.5 -59.5t25.5 -48t42.5 -32.5t59.5 -12q45 0 81 19.5t61.5 51t39 72.5t13.5 84q0 31 -8.5 59t-25.5 49t-42.5 33t-59.5 12zM369 -16q-63 0 -117.5 20.5t-94.5 58.5t-62.5 92t-22.5 120q0 81 28.5 155.5
t79.5 131.5t122 90.5t156 33.5q64 0 118.5 -20.5t94.5 -59t62 -92.5t22 -120q0 -83 -26.5 -157t-76.5 -130.5t-121.5 -89.5t-161.5 -33z" />
    <glyph glyph-name="P" unicode="P" horiz-adv-x="577" 
d="M164 667h259q43 0 78.5 -14.5t61.5 -40.5t40.5 -61.5t14.5 -77.5q0 -63 -23 -110t-61 -78t-88 -46t-105 -15h-96l-44 -224h-166zM346 360q21 0 39 5.5t32 17t22 30.5t8 46q0 32 -19 51t-53 19h-71l-33 -169h75z" />
    <glyph glyph-name="Q" unicode="Q" horiz-adv-x="743" 
d="M369 -16q-63 0 -117.5 20.5t-94.5 58.5t-62.5 92t-22.5 120q0 81 28.5 155.5t79.5 131.5t122 90.5t156 33.5q64 0 118.5 -20.5t94.5 -59t62 -92.5t22 -120q0 -100 -37.5 -185.5t-107.5 -142.5l51 -85l-98 -57l-52 85q-32 -12 -67.5 -18.5t-74.5 -6.5zM443 525
q-45 0 -81 -19.5t-61.5 -51t-39 -73t-13.5 -84.5q0 -32 8.5 -59.5t25.5 -48t42.5 -32.5t59.5 -12q11 0 21.5 1t21.5 4l-54 90l98 57l51 -86q27 32 42 74t15 87q0 31 -8.5 59t-25.5 49t-42.5 33t-59.5 12z" />
    <glyph glyph-name="R" unicode="R" horiz-adv-x="606" 
d="M164 667h257q42 0 77.5 -14.5t61 -40t40 -61t14.5 -76.5q0 -43 -11.5 -78t-31.5 -62.5t-46 -47.5t-56 -32l96 -255h-177l-80 229h-63l-44 -229h-166zM346 363q20 0 38.5 5t32 16.5t21.5 30t8 45.5q0 32 -19 50t-52 18h-72l-32 -165h75z" />
    <glyph glyph-name="S" unicode="S" horiz-adv-x="570" 
d="M113 207q35 -33 76 -52t89 -19q44 0 63 16.5t19 38.5q0 13 -3.5 23.5t-14 20.5t-30.5 20.5t-52 23.5q-77 31 -119 76t-42 113q0 48 19 88t54 68.5t84.5 44.5t110.5 16q72 0 135.5 -25.5t104.5 -73.5l-107 -101q-32 35 -67 47t-64 12q-41 0 -64.5 -15t-23.5 -40
q0 -12 4 -21.5t16 -19.5t33.5 -21t56.5 -25q89 -36 125.5 -84.5t36.5 -109.5q0 -55 -20.5 -97t-57 -70t-86.5 -42.5t-108 -14.5q-80 0 -153 24.5t-123 75.5z" />
    <glyph glyph-name="T" unicode="T" horiz-adv-x="600" 
d="M287 515h-197l29 152h564l-29 -152h-195l-100 -515h-172z" />
    <glyph glyph-name="U" unicode="U" horiz-adv-x="670" 
d="M159 667h170l-77 -391q-2 -11 -3 -21.5t-1 -19.5q0 -48 25.5 -68.5t67.5 -20.5q28 0 48.5 9t34.5 25t23 38.5t14 49.5l78 399h172l-80 -414q-15 -78 -45.5 -130t-72 -82.5t-91 -43.5t-102.5 -13q-58 0 -103.5 16t-77.5 45t-49 69t-17 88q0 14 2 28t5 29z" />
    <glyph glyph-name="V" unicode="V" horiz-adv-x="668" 
d="M114 667h179l52 -467l228 467h183l-360 -667h-179z" />
    <glyph glyph-name="W" unicode="W" horiz-adv-x="898" 
d="M110 667h173l-4 -447l184 431h160l18 -431l163 447h180l-288 -667h-181l-19 422l-182 -422h-178z" />
    <glyph glyph-name="X" unicode="X" horiz-adv-x="654" 
d="M263 351l-148 316h191l80 -186l139 186h189l-255 -321l171 -346h-198l-94 210l-161 -210h-191z" />
    <glyph glyph-name="Y" unicode="Y" horiz-adv-x="621" 
d="M252 270l-147 397h180l77 -245l172 245h189l-301 -395l-52 -272h-170z" />
    <glyph glyph-name="Z" unicode="Z" horiz-adv-x="602" 
d="M32 136l387 379h-301l29 152h518l-26 -135l-383 -380h319l-29 -152h-540z" />
    <glyph glyph-name="bracketleft" unicode="[" horiz-adv-x="357" 
d="M181 706h257l-25 -126h-114l-105 -545h114l-26 -128h-257z" />
    <glyph glyph-name="backslash" unicode="\" horiz-adv-x="454" 
d="M402 -16h-157l-116 701h154z" />
    <glyph glyph-name="bracketright" unicode="]" horiz-adv-x="357" 
d="M244 -93h-257l26 128h114l105 545h-114l25 126h257z" />
    <glyph glyph-name="asciicircum" unicode="^" horiz-adv-x="548" 
d="M312 668h132l100 -375h-160l-41 191l-113 -191h-163z" />
    <glyph glyph-name="underscore" unicode="_" horiz-adv-x="500" 
d="M-32 -65h500l-11 -55h-500z" />
    <glyph glyph-name="grave" unicode="`" horiz-adv-x="424" 
d="M220 682h153l21 -142h-112z" />
    <glyph glyph-name="a" unicode="a" horiz-adv-x="510" 
d="M296 44q-26 -29 -60.5 -44.5t-71.5 -15.5q-29 0 -53.5 9t-43 26.5t-29 41.5t-10.5 54q0 40 16 73.5t46.5 58t74 38t97.5 13.5q23 0 41.5 -1.5t35.5 -3.5l1 6q1 4 1 11q0 27 -22 40t-54 13q-42 0 -70.5 -9.5t-55.5 -24.5l-54 97q35 24 91.5 41.5t122.5 17.5q42 0 78 -10.5
t62.5 -32t41.5 -53.5t15 -74q0 -11 -2 -25l-4 -27l-51 -263h-148zM320 202q-17 4 -45 4q-42 0 -64.5 -15t-22.5 -43q0 -45 43 -45q12 0 24.5 3t24.5 10.5t21 20.5t13 34z" />
    <glyph glyph-name="b" unicode="b" horiz-adv-x="554" 
d="M253 -14q-58 0 -114.5 11t-108.5 35l123 635h162l-46 -237q27 27 56 38t67 11q31 0 60 -13t50.5 -38t34.5 -60.5t13 -80.5q0 -73 -25.5 -129t-67 -94.5t-95 -58t-109.5 -19.5zM259 117q57 0 91 42t34 109q0 33 -16.5 52t-48.5 19q-34 0 -55.5 -24t-29.5 -66l-24 -124
q12 -5 24.5 -6.5t24.5 -1.5z" />
    <glyph glyph-name="c" unicode="c" horiz-adv-x="492" 
d="M462 67q-39 -36 -87 -59.5t-121 -23.5q-45 0 -83 15.5t-66 43t-43.5 65.5t-15.5 84q0 60 20.5 113.5t57.5 93.5t88.5 63.5t113.5 23.5q73 0 118.5 -35.5t68.5 -95.5l-123 -62q-14 25 -29 38.5t-47 13.5q-21 0 -39.5 -9.5t-33 -27t-23 -42.5t-8.5 -56q0 -43 22.5 -64
t50.5 -21t52 13.5t43 32.5z" />
    <glyph glyph-name="d" unicode="d" horiz-adv-x="559" 
d="M453 667h161l-129 -667h-157l5 43q-32 -35 -61.5 -45.5t-63.5 -10.5q-31 0 -60.5 13t-52 37.5t-36 60.5t-13.5 83q0 75 24 131t63.5 93.5t90.5 56t104 18.5q24 0 48 -4t40 -10zM333 348q-24 0 -46 -10t-38.5 -28t-26.5 -44t-10 -59q0 -37 15.5 -59t49.5 -22q33 0 57 24.5
t32 66.5l23 122q-13 5 -28.5 7t-27.5 2z" />
    <glyph glyph-name="e" unicode="e" horiz-adv-x="521" 
d="M202 187q7 -43 34.5 -59.5t65.5 -16.5q32 0 65 9.5t59 23.5l49 -107q-46 -26 -93.5 -39.5t-103.5 -13.5q-44 0 -85.5 11.5t-74 37t-52.5 66.5t-20 101q0 65 20.5 118t56.5 90.5t85 57.5t106 20q49 0 86 -17t62 -45t37.5 -64t12.5 -74q0 -26 -3.5 -50t-9.5 -49h-297z
M301 362q-32 0 -57.5 -18.5t-36.5 -60.5h159q2 5 2 9.5v8.5q0 30 -19.5 45.5t-47.5 15.5z" />
    <glyph glyph-name="f" unicode="f" horiz-adv-x="361" 
d="M128 343h-70l24 127h70l4 22q18 93 67.5 143t150.5 50q78 0 143 -54l-76 -103q-12 10 -26 16t-32 6q-25 0 -42.5 -15t-22.5 -44l-4 -21h98l-24 -127h-98l-67 -343h-162z" />
    <glyph glyph-name="g" unicode="g" horiz-adv-x="553" 
d="M204 5q-42 0 -72.5 16.5t-49.5 43.5t-28 60.5t-9 67.5q0 62 21.5 114.5t61.5 91t96 60t124 21.5q25 0 53.5 -3.5t57 -9.5t55.5 -14.5t49 -19.5l-77 -395q-26 -134 -99 -192t-187 -58q-49 0 -98.5 13.5t-85.5 40.5l62 114q55 -37 123 -37q50 0 80 24t41 79l4 21
q-28 -20 -56 -29t-66 -9zM332 350q-54 0 -89.5 -39.5t-35.5 -106.5q0 -31 15.5 -51t49.5 -20q35 0 58 24.5t31 66.5l22 116q-13 5 -26 7.5t-25 2.5z" />
    <glyph glyph-name="h" unicode="h" horiz-adv-x="554" 
d="M154 667h161l-48 -246q36 36 71 48.5t76 12.5q25 0 48.5 -9.5t41.5 -27.5t28.5 -44t10.5 -59q0 -12 -1 -24.5t-3 -26.5l-57 -291h-162l49 256q3 13 3 26q0 23 -11.5 38.5t-39.5 15.5q-38 0 -59 -25t-28 -60l-48 -251h-162z" />
    <glyph glyph-name="i" unicode="i" horiz-adv-x="266" 
d="M148 667h176l-26 -133h-176zM118 470h162l-91 -470h-162z" />
    <glyph glyph-name="j" unicode="j" horiz-adv-x="285" 
d="M168 667h175l-26 -133h-175zM-92 -36q34 -21 66 -21q31 0 49.5 19t26.5 63l87 445h163l-85 -434q-11 -54 -28 -97.5t-43.5 -74.5t-64.5 -47.5t-89 -16.5q-46 0 -83 10.5t-67 33.5z" />
    <glyph glyph-name="k" unicode="k" horiz-adv-x="530" 
d="M153 667h162l-65 -332l140 135h183l-192 -181l119 -289h-171l-73 186l-42 -41l-28 -145h-162z" />
    <glyph glyph-name="l" unicode="l" horiz-adv-x="260" 
d="M153 667h162l-129 -667h-162z" />
    <glyph glyph-name="m" unicode="m" horiz-adv-x="842" 
d="M474 0h-154l49 256q3 13 3 26q0 23 -11.5 38.5t-39.5 15.5q-39 0 -59.5 -25t-27.5 -60l-48 -251h-162l91 470h157l-5 -49q36 36 71 48.5t76 12.5q38 0 63 -16.5t42 -48.5q35 31 71.5 48t89.5 17q74 0 112.5 -41.5t38.5 -105.5q0 -11 -1 -22t-3 -22l-57 -291h-162l49 256
q3 13 3 26q0 23 -11.5 38.5t-39.5 15.5q-39 0 -59.5 -25t-27.5 -60z" />
    <glyph glyph-name="n" unicode="n" horiz-adv-x="554" 
d="M115 470h157l-5 -49q36 36 72 48.5t77 12.5q27 0 50 -9.5t40 -27.5t27 -44t10 -59q0 -12 -1 -24.5t-3 -26.5l-57 -291h-162l49 256q3 13 3 26q0 23 -11.5 38.5t-39.5 15.5q-38 0 -59 -25t-28 -60l-48 -251h-162z" />
    <glyph glyph-name="o" unicode="o" horiz-adv-x="544" 
d="M329 486q43 0 81.5 -15.5t67 -43t45.5 -66.5t17 -86q0 -62 -21 -115t-58.5 -92t-89.5 -61.5t-113 -22.5q-44 0 -82.5 15.5t-67 43t-45.5 66.5t-17 86q0 63 23 116t61.5 92t90 61t108.5 22zM279 127q20 0 39.5 9.5t34.5 26.5t24 40t9 51q0 38 -19.5 63.5t-58.5 25.5
q-20 0 -39.5 -9.5t-34.5 -26.5t-24 -40t-9 -51q0 -38 19.5 -63.5t58.5 -25.5z" />
    <glyph glyph-name="p" unicode="p" horiz-adv-x="557" 
d="M267 421q29 33 61.5 45.5t66.5 12.5q31 0 60 -14t50.5 -39.5t34.5 -61.5t13 -81q0 -75 -24.5 -131t-64.5 -92.5t-91.5 -55t-105.5 -18.5q-17 0 -38 2t-45 11l-38 -199h-161l130 670h157zM262 118q54 0 90 40.5t36 109.5q0 33 -18 51.5t-47 18.5q-32 0 -56 -21t-32 -63
l-25 -129q13 -5 26.5 -6t25.5 -1z" />
    <glyph glyph-name="q" unicode="q" horiz-adv-x="559" 
d="M353 480q25 0 53.5 -3.5t57 -9.5t55.5 -14.5t49 -19.5l-122 -633h-162l44 227q-27 -22 -55 -29.5t-68 -7.5q-34 0 -63 13.5t-50.5 38t-33.5 60t-12 79.5q0 75 25 131t67 93.5t97.5 56t117.5 18.5zM333 348q-24 0 -46 -10t-38.5 -28t-26.5 -44t-10 -59q0 -37 15.5 -59
t49.5 -22q33 0 57 24.5t32 66.5l23 122q-13 5 -28.5 7t-27.5 2z" />
    <glyph glyph-name="r" unicode="r" horiz-adv-x="395" 
d="M115 470h157l-7 -59q53 68 127 68q34 0 62 -11l-49 -143q-26 9 -52 9q-50 0 -82.5 -33t-43.5 -90l-41 -211h-162z" />
    <glyph glyph-name="s" unicode="s" horiz-adv-x="457" 
d="M79 158q33 -25 63 -37t72 -12q54 0 54 30q0 9 -3.5 15.5t-13 12.5t-26.5 13t-43 19q-41 17 -70 47.5t-29 83.5q0 40 16 69.5t43.5 48.5t63.5 28.5t76 9.5q51 0 97.5 -16t88.5 -52l-79 -93q-54 42 -107 42q-46 0 -46 -28q0 -9 2.5 -14.5t12 -12.5t28 -15.5l49.5 -23.5
q97 -46 97 -128q0 -42 -16 -72.5t-43 -50t-63.5 -29t-77.5 -9.5q-63 0 -117 16t-101 54z" />
    <glyph glyph-name="t" unicode="t" horiz-adv-x="410" 
d="M113 343h-66l24 127h66l25 131h162l-25 -131h111l-24 -127h-111l-34 -169q-1 -5 -1.5 -9.5t-0.5 -8.5q0 -20 11 -30.5t30 -10.5q20 0 33.5 5.5t30.5 17.5l62 -101q-38 -29 -80.5 -42t-85.5 -13q-86 0 -125 40t-39 107q0 27 6 59z" />
    <glyph glyph-name="u" unicode="u" horiz-adv-x="550" 
d="M476 0h-157l5 49q-36 -36 -71.5 -48.5t-76.5 -12.5q-27 0 -49.5 9.5t-39.5 27.5t-26.5 44t-9.5 59q0 12 1 24.5t3 26.5l57 291h162l-49 -256q-3 -14 -3 -26q0 -23 10.5 -38.5t38.5 -15.5q38 0 58.5 25t27.5 60l48 251h162z" />
    <glyph glyph-name="v" unicode="v" horiz-adv-x="529" 
d="M55 470h169l40 -281l138 281h177l-280 -470h-145z" />
    <glyph glyph-name="w" unicode="w" horiz-adv-x="754" 
d="M55 470h156l19 -276l132 276h126l28 -276l123 276h165l-248 -470h-140l-31 242l-125 -242h-140z" />
    <glyph glyph-name="x" unicode="x" horiz-adv-x="524" 
d="M190 241l-119 229h170l58 -121l96 121h177l-203 -232l121 -238h-171l-62 128l-100 -128h-177z" />
    <glyph glyph-name="y" unicode="y" horiz-adv-x="544" 
d="M16 -55q33 -24 60 -24q25 0 42.5 15.5t33.5 44.5l15 28l-117 461h175l48 -275l139 275h177l-272 -467l-50.5 -83t-52 -68t-59.5 -46.5t-71 -17.5q-38 0 -67.5 6t-66.5 34z" />
    <glyph glyph-name="z" unicode="z" horiz-adv-x="492" 
d="M30 104l260 235h-203l26 131h408l-21 -107l-254 -235h212l-25 -128h-423z" />
    <glyph glyph-name="braceleft" unicode="{" horiz-adv-x="308" 
d="M107 189q1 4 1 8v8q0 25 -12.5 41t-44.5 16l18 90q37 0 55 21t27 52l45 160q12 45 28 73.5t43 47.5h137q-21 -18 -41.5 -51.5t-32.5 -78.5l-48 -175q-5 -18 -16 -33.5t-25.5 -27.5t-30 -20.5t-29.5 -12.5q23 -7 43.5 -30.5t20.5 -64.5v-9.5t-1 -9.5l-20 -175
q-1 -5 -1 -10v-10q0 -26 7 -51t18 -40h-135q-26 26 -26 79q0 19 3 43z" />
    <glyph glyph-name="bar" unicode="|" horiz-adv-x="274" 
d="M200 833h147l-193 -997h-147z" />
    <glyph glyph-name="braceright" unicode="}" horiz-adv-x="308" 
d="M269 424q-1 -4 -1 -8v-8q0 -25 12.5 -41t44.5 -16l-18 -90q-37 0 -55 -21t-27 -52l-45 -160q-12 -45 -28 -73.5t-43 -47.5h-137q21 18 41.5 51.5t32.5 78.5l48 175q5 18 16 33.5t25.5 27.5t30 20.5t29.5 12.5q-23 7 -43.5 30.5t-20.5 64.5v9.5t1 9.5l20 175q1 5 1 10v10
q0 26 -7 51t-18 40h135q26 -26 26 -79q0 -19 -3 -43z" />
    <glyph glyph-name="asciitilde" unicode="~" horiz-adv-x="491" 
d="M208 245q-26 0 -48 -11.5t-42 -33.5l-60 119q33 38 69 58t76 20q21 0 38.5 -6t34.5 -12.5l34 -12.5t36 -6q26 0 48 11.5t42 33.5l60 -119q-33 -38 -69 -58.5t-76 -20.5q-20 0 -37.5 6t-35 13t-34.5 13t-36 6z" />
    <glyph glyph-name="Euro" unicode="&#x20ac;" 
d="M292 199q11 -37 34.5 -53.5t54.5 -16.5q32 0 56.5 9t48.5 31l85 -102q-45 -45 -98.5 -64t-114.5 -19q-43 0 -83.5 14t-73 41t-54.5 67t-28 93h-86l27 86h59q1 14 3 27.5l4 27.5h-65l26 86h61q18 49 45.5 90t65 70t84.5 45.5t103 16.5q125 0 187 -105l-119 -87
q-17 25 -38 35t-45 10q-35 0 -63.5 -19.5t-48.5 -55.5h155l-26 -86h-157q-4 -25 -6 -55h162l-27 -86h-128z" />
    <glyph glyph-name="uni20BA" unicode="&#x20ba;" 
d="M95 356l-33 77l112 47l29 150h155l-15 -78l73 31l33 -77l-126 -54l-11 -55l74 31l33 -77l-126 -53l-29 -149q54 2 97.5 42t67.5 118l136 -38q-22 -75 -55.5 -127t-79.5 -84t-103.5 -46t-127.5 -14h-119l44 226l-59 -25l-33 77l111 47l11 56z" />
    <glyph glyph-name="quotesinglbase" unicode="&#x201a;" horiz-adv-x="299" 
d="M88 167h169l-122 -248h-120z" />
    <glyph glyph-name="florin" unicode="&#x192;" horiz-adv-x="541" 
d="M258 -5q-14 -54 -34 -91t-47 -60t-60 -33t-73 -10q-50 0 -86.5 13t-75.5 46l85 102q17 -17 31.5 -20.5t31.5 -3.5q25 0 44 20t29 60l61 242h-61l24 127h68l18 66q15 54 35 91t46.5 60t59.5 33t73 10q50 0 86.5 -13t75.5 -46l-85 -102q-17 17 -31.5 20.5t-31.5 3.5
q-25 0 -44 -20t-29 -60l-11 -43h100l-24 -127h-108z" />
    <glyph glyph-name="quotedblbase" unicode="&#x201e;" horiz-adv-x="517" 
d="M88 167h169l-122 -248h-120zM306 167h169l-122 -248h-120z" />
    <glyph glyph-name="ellipsis" unicode="&#x2026;" horiz-adv-x="877" 
d="M63 178h175l-34 -178h-175zM361 178h175l-34 -178h-175zM658 178h175l-34 -178h-175z" />
    <glyph glyph-name="dagger" unicode="&#x2020;" horiz-adv-x="536" 
d="M230 344h-134l28 142h134l35 181h158l-35 -181h134l-28 -142h-134l-90 -465h-158z" />
    <glyph glyph-name="daggerdbl" unicode="&#x2021;" horiz-adv-x="536" 
d="M175 60h-134l28 142h134l27 142h-134l28 142h134l35 181h158l-35 -181h134l-28 -142h-134l-27 -142h134l-28 -142h-134l-35 -181h-158z" />
    <glyph glyph-name="circumflex" unicode="&#x2c6;" horiz-adv-x="424" 
d="M257 682h127l74 -142h-126l-28 62l-53 -62h-126z" />
    <glyph glyph-name="perthousand" unicode="&#x2030;" horiz-adv-x="1243" 
d="M644 630h142l-485 -630h-146zM233 284q-34 0 -59.5 10.5t-42.5 29t-25.5 43.5t-8.5 53q0 50 15.5 91.5t41.5 71.5t60 46.5t72 16.5q34 0 59 -10.5t42 -29t25.5 -43.5t8.5 -53q0 -51 -15.5 -92.5t-41 -71t-60 -46t-71.5 -16.5zM241 378q12 0 24.5 8t23 24t17 40.5
t6.5 57.5q0 22 -10 33.5t-25 11.5q-12 0 -24.5 -8t-23 -24t-17 -40.5t-6.5 -57.5q0 -23 9.5 -34t25.5 -11zM660 -10q-34 0 -59.5 10.5t-42.5 29t-25.5 43.5t-8.5 53q0 50 15.5 91.5t41.5 71.5t60 46.5t72 16.5q34 0 59 -10.5t42 -29t25.5 -43.5t8.5 -53q0 -51 -15.5 -92.5
t-41 -71t-60 -46t-71.5 -16.5zM668 84q12 0 24.5 8t23 24t17 40.5t6.5 57.5q0 22 -10 33.5t-25 11.5q-12 0 -24.5 -8t-23 -24t-17 -40.5t-6.5 -57.5q0 -23 9.5 -34t25.5 -11zM1019 -10q-34 0 -59.5 10.5t-42.5 29t-25.5 43.5t-8.5 53q0 50 15.5 91.5t41.5 71.5t60 46.5
t72 16.5q34 0 59 -10.5t42 -29t25.5 -43.5t8.5 -53q0 -51 -15.5 -92.5t-41 -71t-60 -46t-71.5 -16.5zM1027 84q12 0 24.5 8t23 24t17 40.5t6.5 57.5q0 22 -10 33.5t-25 11.5q-12 0 -24.5 -8t-23 -24t-17 -40.5t-6.5 -57.5q0 -23 9.5 -34t25.5 -11z" />
    <glyph glyph-name="Scaron" unicode="&#x160;" horiz-adv-x="570" 
d="M113 207q35 -33 76 -52t89 -19q44 0 63 16.5t19 38.5q0 13 -3.5 23.5t-14 20.5t-30.5 20.5t-52 23.5q-77 31 -119 76t-42 113q0 48 19 88t54 68.5t84.5 44.5t110.5 16q72 0 135.5 -25.5t104.5 -73.5l-107 -101q-32 35 -67 47t-64 12q-41 0 -64.5 -15t-23.5 -40
q0 -12 4 -21.5t16 -19.5t33.5 -21t56.5 -25q89 -36 125.5 -84.5t36.5 -109.5q0 -55 -20.5 -97t-57 -70t-86.5 -42.5t-108 -14.5q-80 0 -153 24.5t-123 75.5zM447 717h-123l-81 156h128l30 -69l57 69h131z" />
    <glyph glyph-name="guilsinglleft" unicode="&#x2039;" horiz-adv-x="360" 
d="M84 247l137 194h161l-140 -194l60 -206h-157z" />
    <glyph glyph-name="OE" unicode="&#x152;" horiz-adv-x="1025" 
d="M534 63q-33 -35 -83 -57t-113 -22q-52 0 -100 20.5t-85 58t-59 91.5t-22 120q0 82 28 157t78.5 131.5t119.5 90t150 33.5q61 0 109.5 -22t80.5 -61l13 64h434l-30 -151h-289l-20 -106h238l-28 -142h-238l-22 -117h310l-29 -151h-455zM443 525q-45 0 -81 -19.5t-61.5 -51
t-39 -73t-13.5 -84.5q0 -32 8.5 -59.5t25.5 -48t42.5 -32.5t59.5 -12q45 0 81 19.5t61.5 51t39 72.5t13.5 84q0 31 -8.5 59t-25.5 49t-42.5 33t-59.5 12z" />
    <glyph glyph-name="quoteleft" unicode="&#x2018;" horiz-adv-x="285" 
d="M217 667h120l-73 -248h-169z" />
    <glyph glyph-name="quoteright" unicode="&#x2019;" horiz-adv-x="285" 
d="M180 667h169l-122 -248h-120z" />
    <glyph glyph-name="quotedblleft" unicode="&#x201c;" horiz-adv-x="502" 
d="M217 667h120l-73 -248h-169zM434 667h120l-73 -248h-169z" />
    <glyph glyph-name="quotedblright" unicode="&#x201d;" horiz-adv-x="502" 
d="M180 667h169l-122 -248h-120zM397 667h169l-122 -248h-120z" />
    <glyph glyph-name="bullet" unicode="&#x2022;" horiz-adv-x="425" 
d="M104 332q0 31 11.5 58t31.5 47t47 31.5t58 11.5t58 -11.5t47 -31.5t32 -47t12 -58t-12 -58t-32 -47.5t-47 -32t-58 -11.5t-58 11.5t-47 32t-31.5 47.5t-11.5 58z" />
    <glyph glyph-name="endash" unicode="&#x2013;" horiz-adv-x="500" 
d="M48 359h500l-32 -158h-500z" />
    <glyph glyph-name="emdash" unicode="&#x2014;" horiz-adv-x="1000" 
d="M48 359h1000l-32 -158h-1000z" />
    <glyph glyph-name="tilde" unicode="&#x2dc;" horiz-adv-x="424" 
d="M107 620q26 25 59 44.5t75 19.5q20 0 35.5 -6.5t29.5 -14t28 -13.5t31 -6q29 0 47.5 10t38.5 27l47 -81q-23 -22 -56 -43t-77 -21q-21 0 -36.5 6t-29.5 13.5t-28 14t-31 6.5q-29 0 -47.5 -10t-38.5 -27z" />
    <glyph glyph-name="trademark" unicode="&#x2122;" horiz-adv-x="862" 
d="M521 667h101l59 -162l123 162h104l-57 -383h-110l30 204l-82 -115h-63l-41 115l-47 -204h-109zM227 565h-115l20 102h347l-20 -102h-115l-54 -281h-117z" />
    <glyph glyph-name="scaron" unicode="&#x161;" horiz-adv-x="457" 
d="M79 158q33 -25 63 -37t72 -12q54 0 54 30q0 9 -3.5 15.5t-13 12.5t-26.5 13t-43 19q-41 17 -70 47.5t-29 83.5q0 40 16 69.5t43.5 48.5t63.5 28.5t76 9.5q51 0 97.5 -16t88.5 -52l-79 -93q-54 42 -107 42q-46 0 -46 -28q0 -9 2.5 -14.5t12 -12.5t28 -15.5l49.5 -23.5
q97 -46 97 -128q0 -42 -16 -72.5t-43 -50t-63.5 -29t-77.5 -9.5q-63 0 -117 16t-101 54zM365 540h-127l-74 142h125l28 -62l53 62h127z" />
    <glyph glyph-name="guilsinglright" unicode="&#x203a;" horiz-adv-x="360" 
d="M317 235l-137 -194h-161l140 194l-60 206h157z" />
    <glyph glyph-name="oe" unicode="&#x153;" horiz-adv-x="849" 
d="M319 486q49 0 88 -17t64 -48q37 32 76 48.5t95 16.5q49 0 86 -17t62 -45t37.5 -64t12.5 -74q0 -26 -3.5 -50t-9.5 -49h-297q7 -43 34.5 -59.5t65.5 -16.5q32 0 65 9.5t59 23.5l49 -107q-46 -26 -93.5 -39.5t-103.5 -13.5q-60 0 -102.5 17.5t-75.5 49.5q-35 -32 -79 -49.5
t-101 -17.5q-40 0 -76.5 15.5t-64.5 43t-44.5 66.5t-16.5 86q0 63 22.5 116t60.5 92t87.5 61t102.5 22zM279 127q20 0 39.5 9.5t34.5 26.5t24 40t9 51q0 38 -19.5 63.5t-58.5 25.5q-20 0 -39.5 -9.5t-34.5 -26.5t-24 -40t-9 -51q0 -38 19.5 -63.5t58.5 -25.5zM629 362
q-32 0 -57.5 -18.5t-36.5 -60.5h159q2 5 2 9.5v8.5q0 30 -19.5 45.5t-47.5 15.5z" />
    <glyph glyph-name="Ydieresis" unicode="&#x178;" horiz-adv-x="621" 
d="M252 270l-147 397h180l77 -245l172 245h189l-301 -395l-52 -272h-170zM469 858h135l-24 -126h-135zM253 858h135l-24 -126h-135z" />
    <glyph glyph-name="uni00A0" unicode="&#xa0;" horiz-adv-x="154" 
 />
    <glyph glyph-name="exclamdown" unicode="&#xa1;" horiz-adv-x="297" 
d="M262 301h-164l33 170h164zM172 -196h-177l95 441h159z" />
    <glyph glyph-name="cent" unicode="&#xa2;" 
d="M515 143q-35 -32 -75.5 -54.5t-99.5 -27.5l-16 -80h-99l17 88q-65 19 -104 71.5t-39 127.5q0 55 17 104.5t48.5 88.5t75 64.5t97.5 33.5l18 90h99l-19 -94q49 -12 81 -44.5t50 -79.5l-123 -62q-14 25 -29 38.5t-47 13.5q-21 0 -39.5 -9.5t-33 -27t-23 -42.5t-8.5 -56
q0 -43 22.5 -64t50.5 -21t52 13.5t43 32.5z" />
    <glyph glyph-name="sterling" unicode="&#xa3;" 
d="M488 449q-16 25 -33 34.5t-43 9.5q-37 0 -56 -19t-27 -57l-10 -52h168l-17 -96h-170l-23 -119h251l-27 -150h-418l52 269h-65l17 96h67l16 81q10 54 32.5 92.5t54 62.5t71.5 35.5t86 11.5q70 0 117 -29t79 -86z" />
    <glyph glyph-name="currency" unicode="&#xa4;" 
d="M132 229q-23 40 -23 91q0 45 20 85l-64 67l89 91l66 -69q18 8 37.5 13t42.5 5q51 0 93 -24l72 75l90 -91l-76 -80q6 -17 10 -34.5t4 -37.5q0 -21 -4 -40.5t-12 -38.5l78 -82l-90 -89l-77 78q-40 -20 -88 -20q-41 0 -74 15l-72 -73l-89 89zM300 250q29 0 49 20.5t20 49.5
q0 27 -20 47.5t-49 20.5t-48.5 -20.5t-19.5 -47.5q0 -29 19.5 -49.5t48.5 -20.5z" />
    <glyph glyph-name="yen" unicode="&#xa5;" 
d="M74 190h118l13 64h-118l17 90h74l-78 286h162l53 -250l145 250h172l-193 -286h74l-17 -90h-117l-13 -64h117l-17 -90h-117l-19 -100h-174l19 100h-118z" />
    <glyph glyph-name="brokenbar" unicode="&#xa6;" horiz-adv-x="274" 
d="M127 454l73 379h147l-73 -379h-147zM228 215l-74 -379h-147l74 379h147z" />
    <glyph glyph-name="section" unicode="&#xa7;" horiz-adv-x="470" 
d="M192 320q-42 32 -60 71t-18 80q0 40 14 78.5t42 68.5t71 48.5t101 18.5q54 0 94.5 -20t76.5 -64l-105 -102q-21 22 -36 29t-35 7t-37.5 -13.5t-17.5 -36.5q0 -11 6.5 -24.5t20.5 -24.5l157 -124l-104 -121zM316 153q42 -32 60 -71t18 -80t-14 -79.5t-42 -68.5t-71 -48
t-101 -18q-54 0 -94.5 20t-76.5 64l105 102q21 -22 36 -29t35 -7t37.5 13.5t17.5 36.5q0 11 -6.5 24.5t-20.5 24.5l-157 124l104 121z" />
    <glyph glyph-name="dieresis" unicode="&#xa8;" horiz-adv-x="424" 
d="M351 671h126l-23 -120h-126zM158 671h126l-23 -120h-126z" />
    <glyph glyph-name="copyright" unicode="&#xa9;" horiz-adv-x="773" 
d="M584 231q-26 -35 -66 -60.5t-92 -25.5q-43 0 -78.5 14.5t-60.5 40.5t-39 61.5t-14 76.5q0 39 14 74t39.5 61t61 41t77.5 15q52 0 92 -25.5t66 -61.5l-76 -59q-11 20 -31 35t-46 15q-42 0 -66 -27t-24 -69q0 -40 24 -67t66 -27q29 0 48.5 16t28.5 33zM422 -14
q-73 0 -136 27t-109.5 74.5t-73.5 111t-27 136.5t27 136.5t73.5 110.5t110 74.5t136.5 27.5t136 -27.5t109.5 -74.5t73.5 -110.5t27 -136.5t-27 -136.5t-74 -111t-110 -74.5t-136 -27zM422 69q55 0 102 20.5t81.5 56t54 84t19.5 105.5q0 56 -19.5 104.5t-54 84.5t-81.5 56.5
t-101 20.5q-55 0 -102 -20.5t-81.5 -56.5t-54.5 -84.5t-20 -104.5q0 -57 19.5 -105.5t54 -84t81.5 -56t102 -20.5z" />
    <glyph glyph-name="ordfeminine" unicode="&#xaa;" horiz-adv-x="376" 
d="M270 349q-17 -20 -40.5 -29t-47.5 -9q-40 0 -65.5 25.5t-25.5 68.5q0 52 41.5 82.5t113.5 30.5q15 0 28 -1t24 -3q2 5 2 10v7q0 18 -14.5 26.5t-36.5 8.5q-28 0 -47 -6t-37 -17l-36 65q23 17 60.5 28.5t82.5 11.5q57 0 94.5 -28.5t37.5 -85.5q0 -8 -1 -17t-3 -18
l-34 -177h-99zM285 454q-14 3 -30 3q-57 0 -57 -35q0 -31 29 -31q15 0 32.5 9.5t22.5 37.5z" />
    <glyph glyph-name="guillemotleft" unicode="&#xab;" horiz-adv-x="596" 
d="M84 247l137 194h161l-140 -194l60 -206h-157zM320 247l137 194h161l-140 -194l60 -206h-157z" />
    <glyph glyph-name="logicalnot" unicode="&#xac;" 
d="M128 380h383l-52 -264h-131l26 136h-252z" />
    <glyph glyph-name="uni00AD" unicode="&#xad;" horiz-adv-x="434" 
d="M103 359h316l-31 -158h-316z" />
    <glyph glyph-name="registered" unicode="&#xae;" horiz-adv-x="773" 
d="M283 513h148q36 0 61.5 -10.5t41 -26.5t23 -35t7.5 -36q0 -28 -16 -55t-42 -43l83 -143h-107l-72 126h-31v-126h-96v349zM428 368q23 0 31 8.5t8 22.5q0 15 -9 24t-30 9h-49v-64h49zM422 -14q-73 0 -136 27t-109.5 74.5t-73.5 111t-27 136.5t27 136.5t73.5 110.5
t110 74.5t136.5 27.5t136 -27.5t109.5 -74.5t73.5 -110.5t27 -136.5t-27 -136.5t-74 -111t-110 -74.5t-136 -27zM422 69q55 0 102 20.5t81.5 56t54 84t19.5 105.5q0 56 -19.5 104.5t-54 84.5t-81.5 56.5t-101 20.5q-55 0 -102 -20.5t-81.5 -56.5t-54.5 -84.5t-20 -104.5
q0 -57 19.5 -105.5t54 -84t81.5 -56t102 -20.5z" />
    <glyph glyph-name="macron" unicode="&#xaf;" horiz-adv-x="424" 
d="M153 659h274l-22 -111h-274z" />
    <glyph glyph-name="degree" unicode="&#xb0;" horiz-adv-x="368" 
d="M90 522q0 31 11.5 58t31.5 46t47 30t57 11q31 0 58 -11t47 -30t31.5 -46t11.5 -58t-11.5 -57.5t-31.5 -45.5t-47 -30t-58 -11q-30 0 -57 11t-47 30t-31.5 45.5t-11.5 57.5zM237 472q23 0 35.5 15t12.5 35q0 21 -12.5 36t-35.5 15q-21 0 -34 -15t-13 -36q0 -20 13 -35
t34 -15z" />
    <glyph glyph-name="plusminus" unicode="&#xb1;" 
d="M83 130h124l24 122h-126l26 128h126l26 138h130l-26 -138h127l-26 -128h-127l-24 -122h129l-26 -130h-383z" />
    <glyph glyph-name="acute" unicode="&#xb4;" horiz-adv-x="424" 
d="M264 682h153l-110 -142h-113z" />
    <glyph glyph-name="mu" unicode="&#xb5;" horiz-adv-x="554" 
d="M115 470h162l-49 -255q-3 -17 -3 -29q0 -25 12 -38.5t39 -13.5q19 0 33.5 7.5t24.5 19.5t16.5 27t9.5 30l49 252h162l-91 -470h-157l5 48q-19 -26 -42.5 -40t-58.5 -14q-10 0 -20 2.5t-21 6.5l-39 -203h-162z" />
    <glyph glyph-name="paragraph" unicode="&#xb6;" horiz-adv-x="558" 
d="M456 667h147l-153 -789h-147zM173 246q12 -4 27.5 -6.5t32 -3.5t33 -1.5t28.5 -0.5h24l-69 -356h-147zM402 667l-73 -374h-29q-45 0 -85 9.5t-69 29t-46 49.5t-17 72q0 56 24 96.5t64.5 66.5t92.5 38.5t109 12.5h29z" />
    <glyph glyph-name="periodcentered" unicode="&#xb7;" horiz-adv-x="282" 
d="M106 404h175l-34 -178h-175z" />
    <glyph glyph-name="cedilla" unicode="&#xb8;" horiz-adv-x="424" 
d="M62 -139q17 -6 33.5 -10t33.5 -4q27 0 42 7t15 23q0 14 -15 17.5t-29 3.5q-34 0 -66 -13l26 69q42 12 86 12q19 0 37 -5t31.5 -15t22 -24.5t8.5 -33.5q0 -33 -14 -56t-36 -37.5t-48 -20.5t-51 -6q-26 0 -53.5 4t-50.5 14z" />
    <glyph glyph-name="ordmasculine" unicode="&#xba;" horiz-adv-x="408" 
d="M107 454q0 42 15.5 77.5t41.5 61.5t60.5 40.5t72.5 14.5q29 0 54.5 -10t45 -29t30.5 -45t11 -57q0 -41 -14 -77t-39.5 -62t-60 -41t-75.5 -15q-29 0 -54.5 10.5t-45 29t-31 44.5t-11.5 58zM263 411q26 0 47.5 23.5t21.5 58.5q0 23 -12.5 39.5t-36.5 16.5q-13 0 -25.5 -6
t-22 -17t-15.5 -26t-6 -32q0 -23 12.5 -40t36.5 -17z" />
    <glyph glyph-name="guillemotright" unicode="&#xbb;" horiz-adv-x="596" 
d="M553 235l-137 -194h-161l140 194l-60 206h157zM317 235l-137 -194h-161l140 194l-60 206h157z" />
    <glyph glyph-name="onequarter" unicode="&#xbc;" horiz-adv-x="925" 
d="M192 524q-18 -8 -33 -15.5t-33 -14.5l-37 80l136 63h103l-66 -343h-114zM648 630h142l-485 -630h-146zM602 141l182 203h121l-39 -203h35l-16 -79h-35l-11 -61h-100l11 61h-164zM766 140l19 103l-93 -103h74z" />
    <glyph glyph-name="onehalf" unicode="&#xbd;" horiz-adv-x="925" 
d="M192 524q-18 -8 -33 -15.5t-33 -14.5l-37 80l136 63h103l-66 -343h-114zM628 630h142l-485 -630h-146zM613 56q8 40 34.5 67t67.5 52l52.5 32t22.5 30q0 21 -24 21q-17 0 -37.5 -7.5t-43.5 -24.5l-50 72q71 55 150 55q54 0 88 -24t34 -72q0 -23 -8 -41t-21.5 -33
t-31 -27.5t-35.5 -22.5l-33 -19.5l-29 -18.5h133l-18 -94h-261z" />
    <glyph glyph-name="threequarters" unicode="&#xbe;" horiz-adv-x="925" 
d="M301 500q73 -27 73 -93q0 -53 -40.5 -88t-109.5 -35q-25 0 -44.5 2.5t-36 7.5t-31.5 13t-30 20l51 77q24 -17 46.5 -22.5t40.5 -5.5q27 0 39.5 10.5t12.5 23.5q0 17 -11.5 24t-28.5 7q-10 0 -19.5 -2.5l-16.5 -4.5l-23 46l98 70h-124l18 87h240l-16 -71zM680 630h142
l-485 -630h-146zM602 141l182 203h121l-39 -203h35l-16 -79h-35l-11 -61h-100l11 61h-164zM766 140l19 103l-93 -103h74z" />
    <glyph glyph-name="questiondown" unicode="&#xbf;" horiz-adv-x="523" 
d="M404 210q-10 -51 -38.5 -82t-58.5 -53.5t-53 -41.5t-23 -47q0 -26 17 -36.5t44 -10.5q36 0 67 14t57 40l93 -105q-53 -54 -112.5 -79t-133.5 -25q-42 0 -78.5 11t-64 32.5t-43.5 54t-16 75.5q0 45 18.5 81.5t54.5 66.5l40.5 31t37.5 30t29.5 31.5t16.5 36.5l2 11h151z
M428 303h-164l33 167h164z" />
    <glyph glyph-name="Agrave" unicode="&#xc0;" horiz-adv-x="680" 
d="M350 667h195l97 -667h-175l-15 140h-214l-69 -140h-183zM442 266l-25 246l-120 -246h145zM306 873h172l44 -156h-123z" />
    <glyph glyph-name="Aacute" unicode="&#xc1;" horiz-adv-x="680" 
d="M350 667h195l97 -667h-175l-15 140h-214l-69 -140h-183zM442 266l-25 246l-120 -246h145zM472 873h172l-145 -156h-123z" />
    <glyph glyph-name="Acircumflex" unicode="&#xc2;" horiz-adv-x="680" 
d="M350 667h195l97 -667h-175l-15 140h-214l-69 -140h-183zM442 266l-25 246l-120 -246h145zM416 873h123l81 -156h-128l-30 69l-57 -69h-131z" />
    <glyph glyph-name="Atilde" unicode="&#xc3;" horiz-adv-x="680" 
d="M350 667h195l97 -667h-175l-15 140h-214l-69 -140h-183zM442 266l-25 246l-120 -246h145zM248 804q26 25 59 44.5t75 19.5q20 0 35.5 -6.5t29.5 -14t28 -13.5t31 -6q29 0 47.5 10t38.5 27l47 -81q-23 -22 -56 -43t-77 -21q-21 0 -36.5 6t-29.5 13.5t-28 14t-31 6.5
q-29 0 -47.5 -10t-38.5 -27z" />
    <glyph glyph-name="Adieresis" unicode="&#xc4;" horiz-adv-x="680" 
d="M350 667h195l97 -667h-175l-15 140h-214l-69 -140h-183zM442 266l-25 246l-120 -246h145zM511 858h135l-24 -126h-135zM295 858h135l-24 -126h-135z" />
    <glyph glyph-name="Aring" unicode="&#xc5;" horiz-adv-x="680" 
d="M308 766q0 30 11 54.5t30 42.5t44 28t54 10q28 0 53.5 -10t44.5 -28t30 -42.5t11 -54.5t-12 -55t-29 -43l97 -668h-175l-15 140h-214l-69 -140h-183l365 668q-20 18 -31.5 43t-11.5 55zM442 266l-25 246l-120 -246h145zM447 720q20 0 32.5 13t12.5 33t-12.5 33t-32.5 13
t-32.5 -13t-12.5 -33t12.5 -33t32.5 -13z" />
    <glyph glyph-name="AE" unicode="&#xc6;" horiz-adv-x="928" 
d="M465 667h523l-30 -151h-262l-20 -106h211l-28 -142h-211l-22 -117h283l-29 -151h-444l30 157h-199l-106 -157h-185zM491 286l45 231h-18l-167 -231h140z" />
    <glyph glyph-name="Ccedilla" unicode="&#xc7;" horiz-adv-x="665" 
d="M662 119q-57 -61 -126 -98t-164 -37q-66 0 -121 20.5t-94.5 59t-62 93.5t-22.5 124q0 82 28 155.5t79 129t121 88t154 32.5q108 0 177 -47.5t98 -129.5l-141 -73q-23 48 -55.5 68.5t-86.5 20.5q-46 0 -82.5 -19.5t-62 -51t-39 -73t-13.5 -84.5q0 -30 9 -57.5t26.5 -48.5
t43.5 -33.5t60 -12.5q53 0 91 22t75 65zM233 -139q17 -6 33.5 -10t33.5 -4q27 0 42 5.5t15 21.5q0 14 -15 16.5t-29 2.5q-37 0 -69 -13l26 69q21 6 44 9t45 3q19 0 37 -5t32.5 -15t23 -24t8.5 -33q0 -32 -14.5 -54.5t-36.5 -36t-48.5 -19.5t-51.5 -6q-26 0 -53.5 4t-50.5 14
z" />
    <glyph glyph-name="Egrave" unicode="&#xc8;" 
d="M164 667h457l-30 -151h-287l-20 -106h236l-28 -142h-236l-22 -117h308l-29 -151h-478zM274 873h172l44 -156h-123z" />
    <glyph glyph-name="Eacute" unicode="&#xc9;" 
d="M164 667h457l-30 -151h-287l-20 -106h236l-28 -142h-236l-22 -117h308l-29 -151h-478zM418 873h172l-145 -156h-123z" />
    <glyph glyph-name="Ecircumflex" unicode="&#xca;" 
d="M164 667h457l-30 -151h-287l-20 -106h236l-28 -142h-236l-22 -117h308l-29 -151h-478zM371 873h123l81 -156h-128l-30 69l-57 -69h-131z" />
    <glyph glyph-name="Edieresis" unicode="&#xcb;" 
d="M164 667h457l-30 -151h-287l-20 -106h236l-28 -142h-236l-22 -117h308l-29 -151h-478zM468 858h135l-24 -126h-135zM252 858h135l-24 -126h-135z" />
    <glyph glyph-name="Igrave" unicode="&#xcc;" horiz-adv-x="289" 
d="M164 667h170l-129 -667h-170zM126 873h172l44 -156h-123z" />
    <glyph glyph-name="Iacute" unicode="&#xcd;" horiz-adv-x="289" 
d="M164 667h170l-129 -667h-170zM272 873h172l-145 -156h-123z" />
    <glyph glyph-name="Icircumflex" unicode="&#xce;" horiz-adv-x="289" 
d="M164 667h170l-129 -667h-170zM221 873h123l81 -156h-128l-30 69l-57 -69h-131z" />
    <glyph glyph-name="Idieresis" unicode="&#xcf;" horiz-adv-x="289" 
d="M164 667h170l-129 -667h-170zM320 858h135l-24 -126h-135zM104 858h135l-24 -126h-135z" />
    <glyph glyph-name="Eth" unicode="&#xd0;" horiz-adv-x="708" 
d="M101 289h-59l18 90h58l56 288h241q63 0 118 -18.5t95.5 -54t64 -86.5t23.5 -116q0 -85 -27.5 -157t-78.5 -124t-124 -81.5t-164 -29.5h-277zM314 514l-26 -135h112l-18 -90h-111l-26 -135h100q46 0 82 17.5t61 47.5t38.5 70t13.5 85q0 66 -35.5 103t-104.5 37h-86z" />
    <glyph glyph-name="Ntilde" unicode="&#xd1;" horiz-adv-x="687" 
d="M164 667h144l183 -380l73 380h168l-129 -667h-135l-190 391l-75 -391h-168zM242 804q26 25 59 44.5t75 19.5q20 0 35.5 -6.5t29.5 -14t28 -13.5t31 -6q29 0 47.5 10t38.5 27l47 -81q-23 -22 -56 -43t-77 -21q-21 0 -36.5 6t-29.5 13.5t-28 14t-31 6.5q-29 0 -47.5 -10
t-38.5 -27z" />
    <glyph glyph-name="Ograve" unicode="&#xd2;" horiz-adv-x="743" 
d="M443 525q-45 0 -81 -19.5t-61.5 -51t-39 -73t-13.5 -84.5q0 -32 8.5 -59.5t25.5 -48t42.5 -32.5t59.5 -12q45 0 81 19.5t61.5 51t39 72.5t13.5 84q0 31 -8.5 59t-25.5 49t-42.5 33t-59.5 12zM369 -16q-63 0 -117.5 20.5t-94.5 58.5t-62.5 92t-22.5 120q0 81 28.5 155.5
t79.5 131.5t122 90.5t156 33.5q64 0 118.5 -20.5t94.5 -59t62 -92.5t22 -120q0 -83 -26.5 -157t-76.5 -130.5t-121.5 -89.5t-161.5 -33zM340 873h172l44 -156h-123z" />
    <glyph glyph-name="Oacute" unicode="&#xd3;" horiz-adv-x="743" 
d="M443 525q-45 0 -81 -19.5t-61.5 -51t-39 -73t-13.5 -84.5q0 -32 8.5 -59.5t25.5 -48t42.5 -32.5t59.5 -12q45 0 81 19.5t61.5 51t39 72.5t13.5 84q0 31 -8.5 59t-25.5 49t-42.5 33t-59.5 12zM369 -16q-63 0 -117.5 20.5t-94.5 58.5t-62.5 92t-22.5 120q0 81 28.5 155.5
t79.5 131.5t122 90.5t156 33.5q64 0 118.5 -20.5t94.5 -59t62 -92.5t22 -120q0 -83 -26.5 -157t-76.5 -130.5t-121.5 -89.5t-161.5 -33zM491 873h172l-145 -156h-123z" />
    <glyph glyph-name="Ocircumflex" unicode="&#xd4;" horiz-adv-x="743" 
d="M443 525q-45 0 -81 -19.5t-61.5 -51t-39 -73t-13.5 -84.5q0 -32 8.5 -59.5t25.5 -48t42.5 -32.5t59.5 -12q45 0 81 19.5t61.5 51t39 72.5t13.5 84q0 31 -8.5 59t-25.5 49t-42.5 33t-59.5 12zM369 -16q-63 0 -117.5 20.5t-94.5 58.5t-62.5 92t-22.5 120q0 81 28.5 155.5
t79.5 131.5t122 90.5t156 33.5q64 0 118.5 -20.5t94.5 -59t62 -92.5t22 -120q0 -83 -26.5 -157t-76.5 -130.5t-121.5 -89.5t-161.5 -33zM447 873h123l81 -156h-128l-30 69l-57 -69h-131z" />
    <glyph glyph-name="Otilde" unicode="&#xd5;" horiz-adv-x="743" 
d="M443 525q-45 0 -81 -19.5t-61.5 -51t-39 -73t-13.5 -84.5q0 -32 8.5 -59.5t25.5 -48t42.5 -32.5t59.5 -12q45 0 81 19.5t61.5 51t39 72.5t13.5 84q0 31 -8.5 59t-25.5 49t-42.5 33t-59.5 12zM369 -16q-63 0 -117.5 20.5t-94.5 58.5t-62.5 92t-22.5 120q0 81 28.5 155.5
t79.5 131.5t122 90.5t156 33.5q64 0 118.5 -20.5t94.5 -59t62 -92.5t22 -120q0 -83 -26.5 -157t-76.5 -130.5t-121.5 -89.5t-161.5 -33zM292 804q26 25 59 44.5t75 19.5q20 0 35.5 -6.5t29.5 -14t28 -13.5t31 -6q29 0 47.5 10t38.5 27l47 -81q-23 -22 -56 -43t-77 -21
q-21 0 -36.5 6t-29.5 13.5t-28 14t-31 6.5q-29 0 -47.5 -10t-38.5 -27z" />
    <glyph glyph-name="Odieresis" unicode="&#xd6;" horiz-adv-x="743" 
d="M443 525q-45 0 -81 -19.5t-61.5 -51t-39 -73t-13.5 -84.5q0 -32 8.5 -59.5t25.5 -48t42.5 -32.5t59.5 -12q45 0 81 19.5t61.5 51t39 72.5t13.5 84q0 31 -8.5 59t-25.5 49t-42.5 33t-59.5 12zM369 -16q-63 0 -117.5 20.5t-94.5 58.5t-62.5 92t-22.5 120q0 81 28.5 155.5
t79.5 131.5t122 90.5t156 33.5q64 0 118.5 -20.5t94.5 -59t62 -92.5t22 -120q0 -83 -26.5 -157t-76.5 -130.5t-121.5 -89.5t-161.5 -33zM545 858h135l-24 -126h-135zM329 858h135l-24 -126h-135z" />
    <glyph glyph-name="multiply" unicode="&#xd7;" 
d="M218 319l-93 124l106 88l92 -122l140 119l76 -96l-143 -121l91 -120l-106 -88l-90 118l-141 -120l-76 96z" />
    <glyph glyph-name="Oslash" unicode="&#xd8;" horiz-adv-x="743" 
d="M369 -16q-88 0 -156 38l-73 -86l-69 54l73 86q-34 38 -53 88t-19 111q0 81 28.5 155.5t79.5 131.5t122 90.5t156 33.5q48 0 90 -11.5t77 -33.5l69 81l69 -54l-72 -84q31 -37 47.5 -85t16.5 -105q0 -83 -26.5 -157t-76.5 -130.5t-121.5 -89.5t-161.5 -33zM443 525
q-45 0 -81 -19.5t-61.5 -51t-39 -73t-13.5 -84.5q0 -22 4 -42.5t12 -37.5l248 291q-29 17 -69 17zM579 372q0 36 -11 67l-241 -283q25 -11 57 -11q45 0 81 19.5t61.5 51t39 72.5t13.5 84z" />
    <glyph glyph-name="Ugrave" unicode="&#xd9;" horiz-adv-x="670" 
d="M159 667h170l-77 -391q-2 -11 -3 -21.5t-1 -19.5q0 -48 25.5 -68.5t67.5 -20.5q28 0 48.5 9t34.5 25t23 38.5t14 49.5l78 399h172l-80 -414q-15 -78 -45.5 -130t-72 -82.5t-91 -43.5t-102.5 -13q-58 0 -103.5 16t-77.5 45t-49 69t-17 88q0 14 2 28t5 29zM306 873h172
l44 -156h-123z" />
    <glyph glyph-name="Uacute" unicode="&#xda;" horiz-adv-x="670" 
d="M159 667h170l-77 -391q-2 -11 -3 -21.5t-1 -19.5q0 -48 25.5 -68.5t67.5 -20.5q28 0 48.5 9t34.5 25t23 38.5t14 49.5l78 399h172l-80 -414q-15 -78 -45.5 -130t-72 -82.5t-91 -43.5t-102.5 -13q-58 0 -103.5 16t-77.5 45t-49 69t-17 88q0 14 2 28t5 29zM455 873h172
l-145 -156h-123z" />
    <glyph glyph-name="Ucircumflex" unicode="&#xdb;" horiz-adv-x="670" 
d="M159 667h170l-77 -391q-2 -11 -3 -21.5t-1 -19.5q0 -48 25.5 -68.5t67.5 -20.5q28 0 48.5 9t34.5 25t23 38.5t14 49.5l78 399h172l-80 -414q-15 -78 -45.5 -130t-72 -82.5t-91 -43.5t-102.5 -13q-58 0 -103.5 16t-77.5 45t-49 69t-17 88q0 14 2 28t5 29zM403 873h123
l81 -156h-128l-30 69l-57 -69h-131z" />
    <glyph glyph-name="Udieresis" unicode="&#xdc;" horiz-adv-x="670" 
d="M159 667h170l-77 -391q-2 -11 -3 -21.5t-1 -19.5q0 -48 25.5 -68.5t67.5 -20.5q28 0 48.5 9t34.5 25t23 38.5t14 49.5l78 399h172l-80 -414q-15 -78 -45.5 -130t-72 -82.5t-91 -43.5t-102.5 -13q-58 0 -103.5 16t-77.5 45t-49 69t-17 88q0 14 2 28t5 29zM507 858h135
l-24 -126h-135zM291 858h135l-24 -126h-135z" />
    <glyph glyph-name="Yacute" unicode="&#xdd;" horiz-adv-x="621" 
d="M252 270l-147 397h180l77 -245l172 245h189l-301 -395l-52 -272h-170zM432 873h172l-145 -156h-123z" />
    <glyph glyph-name="Thorn" unicode="&#xde;" horiz-adv-x="576" 
d="M401 562q43 0 78.5 -14.5t61.5 -40.5t40.5 -61.5t14.5 -77.5q0 -63 -23 -110t-61 -78t-88 -46t-105 -15h-95l-23 -119h-166l129 667h166l-20 -105h91zM250 255h74q21 0 39 5.5t32 17t22 30.5t8 46q0 32 -19 51t-53 19h-70z" />
    <glyph glyph-name="germandbls" unicode="&#xdf;" horiz-adv-x="615" 
d="M394 -16q-45 0 -88.5 11t-75.5 34l73 108q22 -14 39.5 -21t46.5 -7q27 0 41 11t14 30q0 18 -15 32t-36 28q-38 25 -54.5 47.5t-16.5 49.5q0 35 15.5 64t49.5 64q18 19 28 36t10 34q0 24 -15.5 38t-41.5 14q-22 0 -37.5 -8t-27 -22t-18.5 -32.5t-11 -39.5l-88 -455h-162
l88 454q22 115 86.5 173t189.5 58q42 0 77.5 -12.5t61.5 -34.5t41 -52.5t15 -66.5q0 -37 -13 -63.5t-33 -46.5q-27 -27 -40.5 -43t-13.5 -32q0 -17 12 -29.5t42 -37.5q38 -32 49 -61.5t11 -58.5q0 -43 -16.5 -73.5t-44 -50.5t-64.5 -29.5t-78 -9.5z" />
    <glyph glyph-name="agrave" unicode="&#xe0;" horiz-adv-x="510" 
d="M296 44q-26 -29 -60.5 -44.5t-71.5 -15.5q-29 0 -53.5 9t-43 26.5t-29 41.5t-10.5 54q0 40 16 73.5t46.5 58t74 38t97.5 13.5q23 0 41.5 -1.5t35.5 -3.5l1 6q1 4 1 11q0 27 -22 40t-54 13q-42 0 -70.5 -9.5t-55.5 -24.5l-54 97q35 24 91.5 41.5t122.5 17.5q42 0 78 -10.5
t62.5 -32t41.5 -53.5t15 -74q0 -11 -2 -25l-4 -27l-51 -263h-148zM320 202q-17 4 -45 4q-42 0 -64.5 -15t-22.5 -43q0 -45 43 -45q12 0 24.5 3t24.5 10.5t21 20.5t13 34zM213 682h153l21 -142h-112z" />
    <glyph glyph-name="aacute" unicode="&#xe1;" horiz-adv-x="510" 
d="M296 44q-26 -29 -60.5 -44.5t-71.5 -15.5q-29 0 -53.5 9t-43 26.5t-29 41.5t-10.5 54q0 40 16 73.5t46.5 58t74 38t97.5 13.5q23 0 41.5 -1.5t35.5 -3.5l1 6q1 4 1 11q0 27 -22 40t-54 13q-42 0 -70.5 -9.5t-55.5 -24.5l-54 97q35 24 91.5 41.5t122.5 17.5q42 0 78 -10.5
t62.5 -32t41.5 -53.5t15 -74q0 -11 -2 -25l-4 -27l-51 -263h-148zM320 202q-17 4 -45 4q-42 0 -64.5 -15t-22.5 -43q0 -45 43 -45q12 0 24.5 3t24.5 10.5t21 20.5t13 34zM325 682h153l-110 -142h-113z" />
    <glyph glyph-name="acircumflex" unicode="&#xe2;" horiz-adv-x="510" 
d="M296 44q-26 -29 -60.5 -44.5t-71.5 -15.5q-29 0 -53.5 9t-43 26.5t-29 41.5t-10.5 54q0 40 16 73.5t46.5 58t74 38t97.5 13.5q23 0 41.5 -1.5t35.5 -3.5l1 6q1 4 1 11q0 27 -22 40t-54 13q-42 0 -70.5 -9.5t-55.5 -24.5l-54 97q35 24 91.5 41.5t122.5 17.5q42 0 78 -10.5
t62.5 -32t41.5 -53.5t15 -74q0 -11 -2 -25l-4 -27l-51 -263h-148zM320 202q-17 4 -45 4q-42 0 -64.5 -15t-22.5 -43q0 -45 43 -45q12 0 24.5 3t24.5 10.5t21 20.5t13 34zM275 682h127l74 -142h-126l-28 62l-53 -62h-126z" />
    <glyph glyph-name="atilde" unicode="&#xe3;" horiz-adv-x="510" 
d="M296 44q-26 -29 -60.5 -44.5t-71.5 -15.5q-29 0 -53.5 9t-43 26.5t-29 41.5t-10.5 54q0 40 16 73.5t46.5 58t74 38t97.5 13.5q23 0 41.5 -1.5t35.5 -3.5l1 6q1 4 1 11q0 27 -22 40t-54 13q-42 0 -70.5 -9.5t-55.5 -24.5l-54 97q35 24 91.5 41.5t122.5 17.5q42 0 78 -10.5
t62.5 -32t41.5 -53.5t15 -74q0 -11 -2 -25l-4 -27l-51 -263h-148zM320 202q-17 4 -45 4q-42 0 -64.5 -15t-22.5 -43q0 -45 43 -45q12 0 24.5 3t24.5 10.5t21 20.5t13 34zM128 620q26 25 59 44.5t75 19.5q20 0 35.5 -6.5t29.5 -14t28 -13.5t31 -6q29 0 47.5 10t38.5 27
l47 -81q-23 -22 -56 -43t-77 -21q-21 0 -36.5 6t-29.5 13.5t-28 14t-31 6.5q-29 0 -47.5 -10t-38.5 -27z" />
    <glyph glyph-name="adieresis" unicode="&#xe4;" horiz-adv-x="510" 
d="M296 44q-26 -29 -60.5 -44.5t-71.5 -15.5q-29 0 -53.5 9t-43 26.5t-29 41.5t-10.5 54q0 40 16 73.5t46.5 58t74 38t97.5 13.5q23 0 41.5 -1.5t35.5 -3.5l1 6q1 4 1 11q0 27 -22 40t-54 13q-42 0 -70.5 -9.5t-55.5 -24.5l-54 97q35 24 91.5 41.5t122.5 17.5q42 0 78 -10.5
t62.5 -32t41.5 -53.5t15 -74q0 -11 -2 -25l-4 -27l-51 -263h-148zM320 202q-17 4 -45 4q-42 0 -64.5 -15t-22.5 -43q0 -45 43 -45q12 0 24.5 3t24.5 10.5t21 20.5t13 34zM369 671h126l-23 -120h-126zM176 671h126l-23 -120h-126z" />
    <glyph glyph-name="aring" unicode="&#xe5;" horiz-adv-x="510" 
d="M296 44q-26 -29 -60.5 -44.5t-71.5 -15.5q-29 0 -53.5 9t-43 26.5t-29 41.5t-10.5 54q0 40 16 73.5t46.5 58t74 38t97.5 13.5q23 0 41.5 -1.5t35.5 -3.5l1 6q1 4 1 11q0 27 -22 40t-54 13q-42 0 -70.5 -9.5t-55.5 -24.5l-54 97q35 24 91.5 41.5t122.5 17.5q42 0 78 -10.5
t62.5 -32t41.5 -53.5t15 -74q0 -11 -2 -25l-4 -27l-51 -263h-148zM320 202q-17 4 -45 4q-42 0 -64.5 -15t-22.5 -43q0 -45 43 -45q12 0 24.5 3t24.5 10.5t21 20.5t13 34zM207 646q0 26 10 48t26.5 37.5t39 24.5t47.5 9t47.5 -9t39 -24.5t26.5 -37.5t10 -48t-10 -47.5
t-26.5 -37.5t-39 -25t-47.5 -9t-47.5 9t-39 25t-26.5 37.5t-10 47.5zM330 608q16 0 27 11t11 27t-11 27.5t-27 11.5t-27 -11t-11 -28q0 -16 11 -27t27 -11z" />
    <glyph glyph-name="ae" unicode="&#xe6;" horiz-adv-x="797" 
d="M378 58q-38 -40 -82 -57t-98 -17q-35 0 -66.5 8.5t-54.5 25.5t-36.5 42t-13.5 59q0 37 16 70t46.5 57t74 38t97.5 14q23 0 41.5 -1.5t35.5 -3.5l1 6q1 4 1 11q0 27 -22 40t-54 13q-42 0 -70.5 -9.5t-55.5 -24.5l-54 97q35 24 91.5 41.5t122.5 17.5q49 0 85 -15t59 -39
q16 12 32 22t33.5 17.5t37.5 11.5t45 4q49 0 86 -17t62 -45t37.5 -64t12.5 -74q0 -26 -3.5 -50t-9.5 -49h-297q7 -43 34.5 -59.5t65.5 -16.5q32 0 65 9.5t59 23.5l49 -107q-36 -19 -85 -36t-104 -17q-51 0 -98 16t-86 58zM319 202q-17 4 -45 4q-42 0 -64.5 -15t-22.5 -43
q0 -45 43 -45q12 0 24.5 3t24.5 10.5t21 20.5t13 34zM577 362q-32 0 -57.5 -18.5t-36.5 -60.5h159q2 5 2 9.5v8.5q0 30 -19.5 45.5t-47.5 15.5z" />
    <glyph glyph-name="ccedilla" unicode="&#xe7;" horiz-adv-x="492" 
d="M462 67q-39 -36 -87 -59.5t-121 -23.5q-45 0 -83 15.5t-66 43t-43.5 65.5t-15.5 84q0 60 20.5 113.5t57.5 93.5t88.5 63.5t113.5 23.5q73 0 118.5 -35.5t68.5 -95.5l-123 -62q-14 25 -29 38.5t-47 13.5q-21 0 -39.5 -9.5t-33 -27t-23 -42.5t-8.5 -56q0 -43 22.5 -64
t50.5 -21t52 13.5t43 32.5zM124 -139q17 -6 33.5 -10t33.5 -4q27 0 42 7t15 23q0 14 -15 17.5t-29 3.5q-34 0 -66 -13l26 69q42 12 86 12q19 0 37 -5t31.5 -15t22 -24.5t8.5 -33.5q0 -33 -14 -56t-36 -37.5t-48 -20.5t-51 -6q-26 0 -53.5 4t-50.5 14z" />
    <glyph glyph-name="egrave" unicode="&#xe8;" horiz-adv-x="521" 
d="M202 187q7 -43 34.5 -59.5t65.5 -16.5q32 0 65 9.5t59 23.5l49 -107q-46 -26 -93.5 -39.5t-103.5 -13.5q-44 0 -85.5 11.5t-74 37t-52.5 66.5t-20 101q0 65 20.5 118t56.5 90.5t85 57.5t106 20q49 0 86 -17t62 -45t37.5 -64t12.5 -74q0 -26 -3.5 -50t-9.5 -49h-297z
M301 362q-32 0 -57.5 -18.5t-36.5 -60.5h159q2 5 2 9.5v8.5q0 30 -19.5 45.5t-47.5 15.5zM215 682h153l21 -142h-112z" />
    <glyph glyph-name="eacute" unicode="&#xe9;" horiz-adv-x="521" 
d="M202 187q7 -43 34.5 -59.5t65.5 -16.5q32 0 65 9.5t59 23.5l49 -107q-46 -26 -93.5 -39.5t-103.5 -13.5q-44 0 -85.5 11.5t-74 37t-52.5 66.5t-20 101q0 65 20.5 118t56.5 90.5t85 57.5t106 20q49 0 86 -17t62 -45t37.5 -64t12.5 -74q0 -26 -3.5 -50t-9.5 -49h-297z
M301 362q-32 0 -57.5 -18.5t-36.5 -60.5h159q2 5 2 9.5v8.5q0 30 -19.5 45.5t-47.5 15.5zM322 682h153l-110 -142h-113z" />
    <glyph glyph-name="ecircumflex" unicode="&#xea;" horiz-adv-x="521" 
d="M202 187q7 -43 34.5 -59.5t65.5 -16.5q32 0 65 9.5t59 23.5l49 -107q-46 -26 -93.5 -39.5t-103.5 -13.5q-44 0 -85.5 11.5t-74 37t-52.5 66.5t-20 101q0 65 20.5 118t56.5 90.5t85 57.5t106 20q49 0 86 -17t62 -45t37.5 -64t12.5 -74q0 -26 -3.5 -50t-9.5 -49h-297z
M301 362q-32 0 -57.5 -18.5t-36.5 -60.5h159q2 5 2 9.5v8.5q0 30 -19.5 45.5t-47.5 15.5zM281 682h127l74 -142h-126l-28 62l-53 -62h-126z" />
    <glyph glyph-name="edieresis" unicode="&#xeb;" horiz-adv-x="521" 
d="M202 187q7 -43 34.5 -59.5t65.5 -16.5q32 0 65 9.5t59 23.5l49 -107q-46 -26 -93.5 -39.5t-103.5 -13.5q-44 0 -85.5 11.5t-74 37t-52.5 66.5t-20 101q0 65 20.5 118t56.5 90.5t85 57.5t106 20q49 0 86 -17t62 -45t37.5 -64t12.5 -74q0 -26 -3.5 -50t-9.5 -49h-297z
M301 362q-32 0 -57.5 -18.5t-36.5 -60.5h159q2 5 2 9.5v8.5q0 30 -19.5 45.5t-47.5 15.5zM377 671h126l-23 -120h-126zM184 671h126l-23 -120h-126z" />
    <glyph glyph-name="igrave" unicode="&#xec;" horiz-adv-x="266" 
d="M118 470h162l-91 -470h-162zM108 682h153l21 -142h-112z" />
    <glyph glyph-name="iacute" unicode="&#xed;" horiz-adv-x="266" 
d="M118 470h162l-91 -470h-162zM211 682h153l-110 -142h-113z" />
    <glyph glyph-name="icircumflex" unicode="&#xee;" horiz-adv-x="266" 
d="M118 470h162l-91 -470h-162zM173 682h127l74 -142h-126l-28 62l-53 -62h-126z" />
    <glyph glyph-name="idieresis" unicode="&#xef;" horiz-adv-x="266" 
d="M118 470h162l-91 -470h-162zM267 671h126l-23 -120h-126zM74 671h126l-23 -120h-126z" />
    <glyph glyph-name="eth" unicode="&#xf0;" horiz-adv-x="542" 
d="M441 672l-37 -44q42 -25 70 -57.5t44.5 -69.5t23.5 -76t7 -77q0 -90 -23.5 -158t-64 -113.5t-95 -69t-116.5 -23.5q-45 0 -83.5 15.5t-66 41.5t-43.5 60t-16 72q0 61 18 110.5t52.5 84.5t83 53.5t110.5 18.5q20 0 41.5 -4t46.5 -14q-9 34 -29.5 59.5t-48.5 43.5l-50 -59
l-60 47l39 46q-16 5 -31.5 8.5t-31.5 6.5l40 111q62 -8 110 -24l50 58zM387 295q-14 10 -35 15t-39 5q-21 0 -41.5 -6.5t-36.5 -20t-26 -34t-10 -49.5q0 -32 18 -53.5t50 -21.5q54 0 85.5 43.5t34.5 121.5z" />
    <glyph glyph-name="ntilde" unicode="&#xf1;" horiz-adv-x="554" 
d="M115 470h157l-5 -49q36 36 72 48.5t77 12.5q27 0 50 -9.5t40 -27.5t27 -44t10 -59q0 -12 -1 -24.5t-3 -26.5l-57 -291h-162l49 256q3 13 3 26q0 23 -11.5 38.5t-39.5 15.5q-38 0 -59 -25t-28 -60l-48 -251h-162zM153 620q26 25 59 44.5t75 19.5q20 0 35.5 -6.5t29.5 -14
t28 -13.5t31 -6q29 0 47.5 10t38.5 27l47 -81q-23 -22 -56 -43t-77 -21q-21 0 -36.5 6t-29.5 13.5t-28 14t-31 6.5q-29 0 -47.5 -10t-38.5 -27z" />
    <glyph glyph-name="ograve" unicode="&#xf2;" horiz-adv-x="544" 
d="M329 486q43 0 81.5 -15.5t67 -43t45.5 -66.5t17 -86q0 -62 -21 -115t-58.5 -92t-89.5 -61.5t-113 -22.5q-44 0 -82.5 15.5t-67 43t-45.5 66.5t-17 86q0 63 23 116t61.5 92t90 61t108.5 22zM279 127q20 0 39.5 9.5t34.5 26.5t24 40t9 51q0 38 -19.5 63.5t-58.5 25.5
q-20 0 -39.5 -9.5t-34.5 -26.5t-24 -40t-9 -51q0 -38 19.5 -63.5t58.5 -25.5zM227 682h153l21 -142h-112z" />
    <glyph glyph-name="oacute" unicode="&#xf3;" horiz-adv-x="544" 
d="M329 486q43 0 81.5 -15.5t67 -43t45.5 -66.5t17 -86q0 -62 -21 -115t-58.5 -92t-89.5 -61.5t-113 -22.5q-44 0 -82.5 15.5t-67 43t-45.5 66.5t-17 86q0 63 23 116t61.5 92t90 61t108.5 22zM279 127q20 0 39.5 9.5t34.5 26.5t24 40t9 51q0 38 -19.5 63.5t-58.5 25.5
q-20 0 -39.5 -9.5t-34.5 -26.5t-24 -40t-9 -51q0 -38 19.5 -63.5t58.5 -25.5zM345 682h153l-110 -142h-113z" />
    <glyph glyph-name="ocircumflex" unicode="&#xf4;" horiz-adv-x="544" 
d="M329 486q43 0 81.5 -15.5t67 -43t45.5 -66.5t17 -86q0 -62 -21 -115t-58.5 -92t-89.5 -61.5t-113 -22.5q-44 0 -82.5 15.5t-67 43t-45.5 66.5t-17 86q0 63 23 116t61.5 92t90 61t108.5 22zM279 127q20 0 39.5 9.5t34.5 26.5t24 40t9 51q0 38 -19.5 63.5t-58.5 25.5
q-20 0 -39.5 -9.5t-34.5 -26.5t-24 -40t-9 -51q0 -38 19.5 -63.5t58.5 -25.5zM304 682h127l74 -142h-126l-28 62l-53 -62h-126z" />
    <glyph glyph-name="otilde" unicode="&#xf5;" horiz-adv-x="544" 
d="M329 486q43 0 81.5 -15.5t67 -43t45.5 -66.5t17 -86q0 -62 -21 -115t-58.5 -92t-89.5 -61.5t-113 -22.5q-44 0 -82.5 15.5t-67 43t-45.5 66.5t-17 86q0 63 23 116t61.5 92t90 61t108.5 22zM279 127q20 0 39.5 9.5t34.5 26.5t24 40t9 51q0 38 -19.5 63.5t-58.5 25.5
q-20 0 -39.5 -9.5t-34.5 -26.5t-24 -40t-9 -51q0 -38 19.5 -63.5t58.5 -25.5zM152 620q26 25 59 44.5t75 19.5q20 0 35.5 -6.5t29.5 -14t28 -13.5t31 -6q29 0 47.5 10t38.5 27l47 -81q-23 -22 -56 -43t-77 -21q-21 0 -36.5 6t-29.5 13.5t-28 14t-31 6.5q-29 0 -47.5 -10
t-38.5 -27z" />
    <glyph glyph-name="odieresis" unicode="&#xf6;" horiz-adv-x="544" 
d="M329 486q43 0 81.5 -15.5t67 -43t45.5 -66.5t17 -86q0 -62 -21 -115t-58.5 -92t-89.5 -61.5t-113 -22.5q-44 0 -82.5 15.5t-67 43t-45.5 66.5t-17 86q0 63 23 116t61.5 92t90 61t108.5 22zM279 127q20 0 39.5 9.5t34.5 26.5t24 40t9 51q0 38 -19.5 63.5t-58.5 25.5
q-20 0 -39.5 -9.5t-34.5 -26.5t-24 -40t-9 -51q0 -38 19.5 -63.5t58.5 -25.5zM403 671h126l-23 -120h-126zM210 671h126l-23 -120h-126z" />
    <glyph glyph-name="divide" unicode="&#xf7;" 
d="M214 197h143l-26 -133h-143zM286 568h143l-27 -133h-143zM131 381h383l-26 -130h-383z" />
    <glyph glyph-name="oslash" unicode="&#xf8;" horiz-adv-x="544" 
d="M329 486q59 0 108 -29l53 62l52 -44l-52 -61q23 -27 36.5 -62t13.5 -77q0 -62 -21 -115t-58.5 -92t-89.5 -61.5t-113 -22.5q-31 0 -59 8t-53 22l-57 -67l-52 44l57 67q-23 27 -35.5 61t-12.5 76q0 63 23 116t61.5 92t90 61t108.5 22zM279 123q21 0 41 10t35.5 27t25 41
t9.5 53q0 20 -6 37l-139 -162q15 -6 34 -6zM197 216q0 -19 4 -34l137 160q-15 5 -30 5q-21 0 -41 -10t-35.5 -27t-25 -41.5t-9.5 -52.5z" />
    <glyph glyph-name="ugrave" unicode="&#xf9;" horiz-adv-x="550" 
d="M476 0h-157l5 49q-36 -36 -71.5 -48.5t-76.5 -12.5q-27 0 -49.5 9.5t-39.5 27.5t-26.5 44t-9.5 59q0 12 1 24.5t3 26.5l57 291h162l-49 -256q-3 -14 -3 -26q0 -23 10.5 -38.5t38.5 -15.5q38 0 58.5 25t27.5 60l48 251h162zM251 682h153l21 -142h-112z" />
    <glyph glyph-name="uacute" unicode="&#xfa;" horiz-adv-x="550" 
d="M476 0h-157l5 49q-36 -36 -71.5 -48.5t-76.5 -12.5q-27 0 -49.5 9.5t-39.5 27.5t-26.5 44t-9.5 59q0 12 1 24.5t3 26.5l57 291h162l-49 -256q-3 -14 -3 -26q0 -23 10.5 -38.5t38.5 -15.5q38 0 58.5 25t27.5 60l48 251h162zM349 682h153l-110 -142h-113z" />
    <glyph glyph-name="ucircumflex" unicode="&#xfb;" horiz-adv-x="550" 
d="M476 0h-157l5 49q-36 -36 -71.5 -48.5t-76.5 -12.5q-27 0 -49.5 9.5t-39.5 27.5t-26.5 44t-9.5 59q0 12 1 24.5t3 26.5l57 291h162l-49 -256q-3 -14 -3 -26q0 -23 10.5 -38.5t38.5 -15.5q38 0 58.5 25t27.5 60l48 251h162zM313 682h127l74 -142h-126l-28 62l-53 -62h-126
z" />
    <glyph glyph-name="udieresis" unicode="&#xfc;" horiz-adv-x="550" 
d="M476 0h-157l5 49q-36 -36 -71.5 -48.5t-76.5 -12.5q-27 0 -49.5 9.5t-39.5 27.5t-26.5 44t-9.5 59q0 12 1 24.5t3 26.5l57 291h162l-49 -256q-3 -14 -3 -26q0 -23 10.5 -38.5t38.5 -15.5q38 0 58.5 25t27.5 60l48 251h162zM407 671h126l-23 -120h-126zM214 671h126
l-23 -120h-126z" />
    <glyph glyph-name="yacute" unicode="&#xfd;" horiz-adv-x="544" 
d="M16 -55q33 -24 60 -24q25 0 42.5 15.5t33.5 44.5l15 28l-117 461h175l48 -275l139 275h177l-272 -467l-50.5 -83t-52 -68t-59.5 -46.5t-71 -17.5q-38 0 -67.5 6t-66.5 34zM336 682h153l-110 -142h-113z" />
    <glyph glyph-name="thorn" unicode="&#xfe;" horiz-adv-x="557" 
d="M267 421q29 33 61.5 45.5t66.5 12.5q31 0 60 -14t50.5 -39.5t34.5 -61.5t13 -81q0 -75 -24.5 -131t-64.5 -92.5t-91.5 -55t-105.5 -18.5q-17 0 -38 2t-45 11l-38 -199h-161l168 867h161zM262 118q54 0 90 40.5t36 109.5q0 33 -18 51.5t-47 18.5q-32 0 -56 -21t-32 -63
l-25 -129q13 -5 26.5 -6t25.5 -1z" />
    <glyph glyph-name="ydieresis" unicode="&#xff;" horiz-adv-x="544" 
d="M16 -55q33 -24 60 -24q25 0 42.5 15.5t33.5 44.5l15 28l-117 461h175l48 -275l139 275h177l-272 -467l-50.5 -83t-52 -68t-59.5 -46.5t-71 -17.5q-38 0 -67.5 6t-66.5 34zM381 671h126l-23 -120h-126zM188 671h126l-23 -120h-126z" />
    <glyph glyph-name="Amacron" unicode="&#x100;" horiz-adv-x="680" 
d="M350 667h195l97 -667h-175l-15 140h-214l-69 -140h-183zM442 266l-25 246l-120 -246h145zM322 852h306l-22 -114h-306z" />
    <glyph glyph-name="amacron" unicode="&#x101;" horiz-adv-x="510" 
d="M296 44q-26 -29 -60.5 -44.5t-71.5 -15.5q-29 0 -53.5 9t-43 26.5t-29 41.5t-10.5 54q0 40 16 73.5t46.5 58t74 38t97.5 13.5q23 0 41.5 -1.5t35.5 -3.5l1 6q1 4 1 11q0 27 -22 40t-54 13q-42 0 -70.5 -9.5t-55.5 -24.5l-54 97q35 24 91.5 41.5t122.5 17.5q42 0 78 -10.5
t62.5 -32t41.5 -53.5t15 -74q0 -11 -2 -25l-4 -27l-51 -263h-148zM320 202q-17 4 -45 4q-42 0 -64.5 -15t-22.5 -43q0 -45 43 -45q12 0 24.5 3t24.5 10.5t21 20.5t13 34zM201 659h274l-22 -111h-274z" />
    <glyph glyph-name="Abreve" unicode="&#x102;" horiz-adv-x="680" 
d="M350 667h195l97 -667h-175l-15 140h-214l-69 -140h-183zM442 266l-25 246l-120 -246h145zM430 863q-1 -4 -1 -10q0 -17 10 -27t27 -10q44 0 52 47h117q-11 -73 -60.5 -111t-119.5 -38q-27 0 -52 7t-44.5 21.5t-31 36.5t-11.5 52q0 15 3 32h111z" />
    <glyph glyph-name="abreve" unicode="&#x103;" horiz-adv-x="510" 
d="M296 44q-26 -29 -60.5 -44.5t-71.5 -15.5q-29 0 -53.5 9t-43 26.5t-29 41.5t-10.5 54q0 40 16 73.5t46.5 58t74 38t97.5 13.5q23 0 41.5 -1.5t35.5 -3.5l1 6q1 4 1 11q0 27 -22 40t-54 13q-42 0 -70.5 -9.5t-55.5 -24.5l-54 97q35 24 91.5 41.5t122.5 17.5q42 0 78 -10.5
t62.5 -32t41.5 -53.5t15 -74q0 -11 -2 -25l-4 -27l-51 -263h-148zM320 202q-17 4 -45 4q-42 0 -64.5 -15t-22.5 -43q0 -45 43 -45q12 0 24.5 3t24.5 10.5t21 20.5t13 34zM297 682q-1 -4 -1 -12q0 -34 35 -34q18 0 30 13.5t17 32.5h115q-7 -35 -24 -61.5t-40.5 -44.5
t-52.5 -27t-59 -9q-27 0 -50.5 7t-41 21t-28 34.5t-10.5 47.5q0 15 3 32h107z" />
    <glyph glyph-name="Aogonek" unicode="&#x104;" horiz-adv-x="680" 
d="M467 0l-15 140h-214l-69 -140h-183l364 667h195l97 -667q-8 -7 -19 -17.5t-21 -22t-17 -23t-7 -20.5q0 -10 6 -13.5t14 -3.5q13 0 26.5 5.5t21.5 10.5l26 -85q-20 -13 -52 -24t-70 -11q-34 0 -61 17.5t-27 55.5q0 18 7 35.5t18.5 34t26.5 32t31 29.5h-78zM442 266
l-25 246l-120 -246h145z" />
    <glyph glyph-name="aogonek" unicode="&#x105;" horiz-adv-x="510" 
d="M296 44q-26 -29 -60.5 -44.5t-71.5 -15.5q-29 0 -53.5 9t-43 26.5t-29 41.5t-10.5 54q0 40 16 73.5t46.5 58t74 38t97.5 13.5q23 0 41.5 -1.5t35.5 -3.5l1 6q1 4 1 11q0 27 -22 40t-54 13q-42 0 -70.5 -9.5t-55.5 -24.5l-54 97q35 24 91.5 41.5t122.5 17.5q42 0 78 -10.5
t62.5 -32t41.5 -53.5t15 -74q0 -11 -2 -25l-4 -27l-51 -263l-19.5 -17t-21.5 -21.5t-17 -22.5t-7 -20q0 -10 6 -13.5t14 -3.5q13 0 27 6t22 11l26 -83q-20 -12 -51 -23t-69 -11q-34 0 -61.5 17.5t-27.5 55.5q0 35 20.5 62.5t59.5 62.5h-49zM320 202q-17 4 -45 4
q-42 0 -64.5 -15t-22.5 -43q0 -45 43 -45q12 0 24.5 3t24.5 10.5t21 20.5t13 34z" />
    <glyph glyph-name="Cacute" unicode="&#x106;" horiz-adv-x="665" 
d="M662 119q-57 -61 -126 -98t-164 -37q-66 0 -121 20.5t-94.5 59t-62 93.5t-22.5 124q0 82 28 155.5t79 129t121 88t154 32.5q108 0 177 -47.5t98 -129.5l-141 -73q-23 48 -55.5 68.5t-86.5 20.5q-46 0 -82.5 -19.5t-62 -51t-39 -73t-13.5 -84.5q0 -30 9 -57.5t26.5 -48.5
t43.5 -33.5t60 -12.5q53 0 91 22t75 65zM486 873h172l-145 -156h-123z" />
    <glyph glyph-name="cacute" unicode="&#x107;" horiz-adv-x="492" 
d="M462 67q-39 -36 -87 -59.5t-121 -23.5q-45 0 -83 15.5t-66 43t-43.5 65.5t-15.5 84q0 60 20.5 113.5t57.5 93.5t88.5 63.5t113.5 23.5q73 0 118.5 -35.5t68.5 -95.5l-123 -62q-14 25 -29 38.5t-47 13.5q-21 0 -39.5 -9.5t-33 -27t-23 -42.5t-8.5 -56q0 -43 22.5 -64
t50.5 -21t52 13.5t43 32.5zM341 682h153l-110 -142h-113z" />
    <glyph glyph-name="Ccircumflex" unicode="&#x108;" horiz-adv-x="665" 
d="M662 119q-57 -61 -126 -98t-164 -37q-66 0 -121 20.5t-94.5 59t-62 93.5t-22.5 124q0 82 28 155.5t79 129t121 88t154 32.5q108 0 177 -47.5t98 -129.5l-141 -73q-23 48 -55.5 68.5t-86.5 20.5q-46 0 -82.5 -19.5t-62 -51t-39 -73t-13.5 -84.5q0 -30 9 -57.5t26.5 -48.5
t43.5 -33.5t60 -12.5q53 0 91 22t75 65zM441 873h123l81 -156h-128l-30 69l-57 -69h-131z" />
    <glyph glyph-name="ccircumflex" unicode="&#x109;" horiz-adv-x="492" 
d="M462 67q-39 -36 -87 -59.5t-121 -23.5q-45 0 -83 15.5t-66 43t-43.5 65.5t-15.5 84q0 60 20.5 113.5t57.5 93.5t88.5 63.5t113.5 23.5q73 0 118.5 -35.5t68.5 -95.5l-123 -62q-14 25 -29 38.5t-47 13.5q-21 0 -39.5 -9.5t-33 -27t-23 -42.5t-8.5 -56q0 -43 22.5 -64
t50.5 -21t52 13.5t43 32.5zM300 682h127l74 -142h-126l-28 62l-53 -62h-126z" />
    <glyph glyph-name="Cdotaccent" unicode="&#x10a;" horiz-adv-x="665" 
d="M662 119q-57 -61 -126 -98t-164 -37q-66 0 -121 20.5t-94.5 59t-62 93.5t-22.5 124q0 82 28 155.5t79 129t121 88t154 32.5q108 0 177 -47.5t98 -129.5l-141 -73q-23 48 -55.5 68.5t-86.5 20.5q-46 0 -82.5 -19.5t-62 -51t-39 -73t-13.5 -84.5q0 -30 9 -57.5t26.5 -48.5
t43.5 -33.5t60 -12.5q53 0 91 22t75 65zM422 862h142l-26 -134h-142z" />
    <glyph glyph-name="cdotaccent" unicode="&#x10b;" horiz-adv-x="492" 
d="M462 67q-39 -36 -87 -59.5t-121 -23.5q-45 0 -83 15.5t-66 43t-43.5 65.5t-15.5 84q0 60 20.5 113.5t57.5 93.5t88.5 63.5t113.5 23.5q73 0 118.5 -35.5t68.5 -95.5l-123 -62q-14 25 -29 38.5t-47 13.5q-21 0 -39.5 -9.5t-33 -27t-23 -42.5t-8.5 -56q0 -43 22.5 -64
t50.5 -21t52 13.5t43 32.5zM292 675h134l-25 -128h-134z" />
    <glyph glyph-name="Ccaron" unicode="&#x10c;" horiz-adv-x="665" 
d="M662 119q-57 -61 -126 -98t-164 -37q-66 0 -121 20.5t-94.5 59t-62 93.5t-22.5 124q0 82 28 155.5t79 129t121 88t154 32.5q108 0 177 -47.5t98 -129.5l-141 -73q-23 48 -55.5 68.5t-86.5 20.5q-46 0 -82.5 -19.5t-62 -51t-39 -73t-13.5 -84.5q0 -30 9 -57.5t26.5 -48.5
t43.5 -33.5t60 -12.5q53 0 91 22t75 65zM527 717h-123l-81 156h128l30 -69l57 69h131z" />
    <glyph glyph-name="ccaron" unicode="&#x10d;" horiz-adv-x="492" 
d="M462 67q-39 -36 -87 -59.5t-121 -23.5q-45 0 -83 15.5t-66 43t-43.5 65.5t-15.5 84q0 60 20.5 113.5t57.5 93.5t88.5 63.5t113.5 23.5q73 0 118.5 -35.5t68.5 -95.5l-123 -62q-14 25 -29 38.5t-47 13.5q-21 0 -39.5 -9.5t-33 -27t-23 -42.5t-8.5 -56q0 -43 22.5 -64
t50.5 -21t52 13.5t43 32.5zM393 540h-127l-74 142h125l28 -62l53 62h127z" />
    <glyph glyph-name="Dcaron" unicode="&#x10e;" horiz-adv-x="698" 
d="M304 514l-69 -360h100q46 0 82 17.5t61 47.5t38.5 70t13.5 85q0 66 -35.5 103t-104.5 37h-86zM35 0l129 667h241q63 0 118 -19t95.5 -54t64 -85.5t23.5 -114.5q0 -86 -27.5 -158.5t-78.5 -125t-124 -81.5t-164 -29h-277zM451 717h-123l-81 156h128l30 -69l57 69h131z" />
    <glyph glyph-name="dcaron" unicode="&#x10f;" horiz-adv-x="693" 
d="M453 667h161l-129 -667h-157l5 43q-32 -35 -61.5 -45.5t-63.5 -10.5q-31 0 -60.5 13t-52 37.5t-36 60.5t-13.5 83q0 75 24 131t63.5 93.5t90.5 56t104 18.5q24 0 48 -4t40 -10zM333 348q-24 0 -46 -10t-38.5 -28t-26.5 -44t-10 -59q0 -37 15.5 -59t49.5 -22q33 0 57 24.5
t32 66.5l23 122q-13 5 -28.5 7t-27.5 2zM669 667h130l-72 -169h-91z" />
    <glyph glyph-name="Dcroat" unicode="&#x110;" horiz-adv-x="708" 
d="M101 289h-59l18 90h58l56 288h241q63 0 118 -18.5t95.5 -54t64 -86.5t23.5 -116q0 -85 -27.5 -157t-78.5 -124t-124 -81.5t-164 -29.5h-277zM314 514l-26 -135h112l-18 -90h-111l-26 -135h100q46 0 82 17.5t61 47.5t38.5 70t13.5 85q0 66 -35.5 103t-104.5 37h-86z" />
    <glyph glyph-name="dcroat" unicode="&#x111;" horiz-adv-x="564" 
d="M289 605h152l12 62h161l-12 -62h55l-16 -85h-56l-100 -520h-157l5 43q-32 -35 -61.5 -45.5t-63.5 -10.5q-31 0 -60.5 13t-52 37.5t-36 60.5t-13.5 83q0 73 24 127t63 90t89.5 53.5t103.5 17.5q24 0 48 -4t40 -10l12 65h-153zM331 337q-24 0 -45.5 -9t-38 -25.5t-26 -41
t-9.5 -54.5q0 -37 15.5 -59t49.5 -22q33 0 57 24.5t32 66.5l21 111q-13 5 -28.5 7t-27.5 2z" />
    <glyph glyph-name="Emacron" unicode="&#x112;" 
d="M164 667h457l-30 -151h-287l-20 -106h236l-28 -142h-236l-22 -117h308l-29 -151h-478zM271 852h306l-22 -114h-306z" />
    <glyph glyph-name="emacron" unicode="&#x113;" horiz-adv-x="521" 
d="M202 187q7 -43 34.5 -59.5t65.5 -16.5q32 0 65 9.5t59 23.5l49 -107q-46 -26 -93.5 -39.5t-103.5 -13.5q-44 0 -85.5 11.5t-74 37t-52.5 66.5t-20 101q0 65 20.5 118t56.5 90.5t85 57.5t106 20q49 0 86 -17t62 -45t37.5 -64t12.5 -74q0 -26 -3.5 -50t-9.5 -49h-297z
M301 362q-32 0 -57.5 -18.5t-36.5 -60.5h159q2 5 2 9.5v8.5q0 30 -19.5 45.5t-47.5 15.5zM204 659h274l-22 -111h-274z" />
    <glyph glyph-name="Ebreve" unicode="&#x114;" 
d="M164 667h457l-30 -151h-287l-20 -106h236l-28 -142h-236l-22 -117h308l-29 -151h-478zM380 863q-1 -4 -1 -10q0 -17 10 -27t27 -10q44 0 52 47h117q-11 -73 -60.5 -111t-119.5 -38q-27 0 -52 7t-44.5 21.5t-31 36.5t-11.5 52q0 15 3 32h111z" />
    <glyph glyph-name="ebreve" unicode="&#x115;" horiz-adv-x="521" 
d="M202 187q7 -43 34.5 -59.5t65.5 -16.5q32 0 65 9.5t59 23.5l49 -107q-46 -26 -93.5 -39.5t-103.5 -13.5q-44 0 -85.5 11.5t-74 37t-52.5 66.5t-20 101q0 65 20.5 118t56.5 90.5t85 57.5t106 20q49 0 86 -17t62 -45t37.5 -64t12.5 -74q0 -26 -3.5 -50t-9.5 -49h-297z
M301 362q-32 0 -57.5 -18.5t-36.5 -60.5h159q2 5 2 9.5v8.5q0 30 -19.5 45.5t-47.5 15.5zM295 682q-1 -4 -1 -12q0 -34 35 -34q18 0 30 13.5t17 32.5h115q-7 -35 -24 -61.5t-40.5 -44.5t-52.5 -27t-59 -9q-27 0 -50.5 7t-41 21t-28 34.5t-10.5 47.5q0 15 3 32h107z" />
    <glyph glyph-name="Edotaccent" unicode="&#x116;" 
d="M164 667h457l-30 -151h-287l-20 -106h236l-28 -142h-236l-22 -117h308l-29 -151h-478zM357 862h142l-26 -134h-142z" />
    <glyph glyph-name="edotaccent" unicode="&#x117;" horiz-adv-x="521" 
d="M202 187q7 -43 34.5 -59.5t65.5 -16.5q32 0 65 9.5t59 23.5l49 -107q-46 -26 -93.5 -39.5t-103.5 -13.5q-44 0 -85.5 11.5t-74 37t-52.5 66.5t-20 101q0 65 20.5 118t56.5 90.5t85 57.5t106 20q49 0 86 -17t62 -45t37.5 -64t12.5 -74q0 -26 -3.5 -50t-9.5 -49h-297z
M301 362q-32 0 -57.5 -18.5t-36.5 -60.5h159q2 5 2 9.5v8.5q0 30 -19.5 45.5t-47.5 15.5zM268 675h134l-25 -128h-134z" />
    <glyph glyph-name="Eogonek" unicode="&#x118;" 
d="M164 667h457l-30 -151h-287l-20 -106h236l-28 -142h-236l-22 -117h308l-29 -151h-40q-8 -7 -19 -17.5t-21 -22t-17 -23t-7 -20.5q0 -10 6 -13.5t14 -3.5q13 0 26.5 5.5t21.5 10.5l26 -85q-20 -13 -52 -24t-70 -11q-34 0 -61 17.5t-27 55.5q0 18 7 35.5t18.5 34t26.5 32
t31 29.5h-341z" />
    <glyph glyph-name="eogonek" unicode="&#x119;" horiz-adv-x="521" 
d="M202 187q7 -43 34.5 -59.5t65.5 -16.5q32 0 65 9.5t59 23.5l49 -107q-21 -12 -38.5 -20.5t-32.5 -18.5q-23 -15 -41 -38t-18 -41q0 -10 6 -13.5t14 -3.5q13 0 27 6t22 11l26 -83q-20 -12 -51 -23t-69 -11q-34 0 -61.5 17.5t-27.5 55.5q0 32 15.5 56t46.5 53h-15
q-44 0 -85.5 11.5t-74 37t-52.5 66.5t-20 101q0 65 20.5 118t56.5 90.5t85 57.5t106 20q49 0 86 -17t62 -45t37.5 -64t12.5 -74q0 -26 -3.5 -50t-9.5 -49h-297zM301 362q-32 0 -57.5 -18.5t-36.5 -60.5h159q2 5 2 9.5v8.5q0 30 -19.5 45.5t-47.5 15.5z" />
    <glyph glyph-name="Ecaron" unicode="&#x11a;" 
d="M164 667h457l-30 -151h-287l-20 -106h236l-28 -142h-236l-22 -117h308l-29 -151h-478zM460 717h-123l-81 156h128l30 -69l57 69h131z" />
    <glyph glyph-name="ecaron" unicode="&#x11b;" horiz-adv-x="521" 
d="M202 187q7 -43 34.5 -59.5t65.5 -16.5q32 0 65 9.5t59 23.5l49 -107q-46 -26 -93.5 -39.5t-103.5 -13.5q-44 0 -85.5 11.5t-74 37t-52.5 66.5t-20 101q0 65 20.5 118t56.5 90.5t85 57.5t106 20q49 0 86 -17t62 -45t37.5 -64t12.5 -74q0 -26 -3.5 -50t-9.5 -49h-297z
M301 362q-32 0 -57.5 -18.5t-36.5 -60.5h159q2 5 2 9.5v8.5q0 30 -19.5 45.5t-47.5 15.5zM377 540h-127l-74 142h125l28 -62l53 62h127z" />
    <glyph glyph-name="Gcircumflex" unicode="&#x11c;" horiz-adv-x="702" 
d="M439 379h263l-61 -309q-52 -39 -121.5 -62.5t-147.5 -23.5q-66 0 -121 20.5t-95 59t-62.5 92.5t-22.5 122q0 84 29 158.5t80 130t120 87.5t149 32q101 0 165.5 -42.5t97.5 -117.5l-138 -77q-23 42 -53.5 59t-80.5 17q-44 0 -79.5 -19.5t-60.5 -51t-38.5 -72.5t-13.5 -84
q0 -30 8 -59t24.5 -51t42 -35.5t59.5 -13.5q44 0 72 6.5t57 25.5l14 77h-113zM427 873h123l81 -156h-128l-30 69l-57 -69h-131z" />
    <glyph glyph-name="gcircumflex" unicode="&#x11d;" horiz-adv-x="553" 
d="M204 5q-42 0 -72.5 16.5t-49.5 43.5t-28 60.5t-9 67.5q0 62 21.5 114.5t61.5 91t96 60t124 21.5q25 0 53.5 -3.5t57 -9.5t55.5 -14.5t49 -19.5l-77 -395q-26 -134 -99 -192t-187 -58q-49 0 -98.5 13.5t-85.5 40.5l62 114q55 -37 123 -37q50 0 80 24t41 79l4 21
q-28 -20 -56 -29t-66 -9zM332 350q-54 0 -89.5 -39.5t-35.5 -106.5q0 -31 15.5 -51t49.5 -20q35 0 58 24.5t31 66.5l22 116q-13 5 -26 7.5t-25 2.5zM318 682h127l74 -142h-126l-28 62l-53 -62h-126z" />
    <glyph glyph-name="Gbreve" unicode="&#x11e;" horiz-adv-x="702" 
d="M439 379h263l-61 -309q-52 -39 -121.5 -62.5t-147.5 -23.5q-66 0 -121 20.5t-95 59t-62.5 92.5t-22.5 122q0 84 29 158.5t80 130t120 87.5t149 32q101 0 165.5 -42.5t97.5 -117.5l-138 -77q-23 42 -53.5 59t-80.5 17q-44 0 -79.5 -19.5t-60.5 -51t-38.5 -72.5t-13.5 -84
q0 -30 8 -59t24.5 -51t42 -35.5t59.5 -13.5q44 0 72 6.5t57 25.5l14 77h-113zM438 863q-1 -4 -1 -10q0 -17 10 -27t27 -10q44 0 52 47h117q-11 -73 -60.5 -111t-119.5 -38q-27 0 -52 7t-44.5 21.5t-31 36.5t-11.5 52q0 15 3 32h111z" />
    <glyph glyph-name="gbreve" unicode="&#x11f;" horiz-adv-x="553" 
d="M204 5q-42 0 -72.5 16.5t-49.5 43.5t-28 60.5t-9 67.5q0 62 21.5 114.5t61.5 91t96 60t124 21.5q25 0 53.5 -3.5t57 -9.5t55.5 -14.5t49 -19.5l-77 -395q-26 -134 -99 -192t-187 -58q-49 0 -98.5 13.5t-85.5 40.5l62 114q55 -37 123 -37q50 0 80 24t41 79l4 21
q-28 -20 -56 -29t-66 -9zM332 350q-54 0 -89.5 -39.5t-35.5 -106.5q0 -31 15.5 -51t49.5 -20q35 0 58 24.5t31 66.5l22 116q-13 5 -26 7.5t-25 2.5zM339 682q-1 -4 -1 -12q0 -34 35 -34q18 0 30 13.5t17 32.5h115q-7 -35 -24 -61.5t-40.5 -44.5t-52.5 -27t-59 -9
q-27 0 -50.5 7t-41 21t-28 34.5t-10.5 47.5q0 15 3 32h107z" />
    <glyph glyph-name="Gdotaccent" unicode="&#x120;" horiz-adv-x="702" 
d="M439 379h263l-61 -309q-52 -39 -121.5 -62.5t-147.5 -23.5q-66 0 -121 20.5t-95 59t-62.5 92.5t-22.5 122q0 84 29 158.5t80 130t120 87.5t149 32q101 0 165.5 -42.5t97.5 -117.5l-138 -77q-23 42 -53.5 59t-80.5 17q-44 0 -79.5 -19.5t-60.5 -51t-38.5 -72.5t-13.5 -84
q0 -30 8 -59t24.5 -51t42 -35.5t59.5 -13.5q44 0 72 6.5t57 25.5l14 77h-113zM414 862h142l-26 -134h-142z" />
    <glyph glyph-name="gdotaccent" unicode="&#x121;" horiz-adv-x="553" 
d="M204 5q-42 0 -72.5 16.5t-49.5 43.5t-28 60.5t-9 67.5q0 62 21.5 114.5t61.5 91t96 60t124 21.5q25 0 53.5 -3.5t57 -9.5t55.5 -14.5t49 -19.5l-77 -395q-26 -134 -99 -192t-187 -58q-49 0 -98.5 13.5t-85.5 40.5l62 114q55 -37 123 -37q50 0 80 24t41 79l4 21
q-28 -20 -56 -29t-66 -9zM332 350q-54 0 -89.5 -39.5t-35.5 -106.5q0 -31 15.5 -51t49.5 -20q35 0 58 24.5t31 66.5l22 116q-13 5 -26 7.5t-25 2.5zM321 675h134l-25 -128h-134z" />
    <glyph glyph-name="Gcommaaccent" unicode="&#x122;" horiz-adv-x="702" 
d="M439 379h263l-61 -309q-52 -39 -121.5 -62.5t-147.5 -23.5q-66 0 -121 20.5t-95 59t-62.5 92.5t-22.5 122q0 84 29 158.5t80 130t120 87.5t149 32q101 0 165.5 -42.5t97.5 -117.5l-138 -77q-23 42 -53.5 59t-80.5 17q-44 0 -79.5 -19.5t-60.5 -51t-38.5 -72.5t-13.5 -84
q0 -30 8 -59t24.5 -51t42 -35.5t59.5 -13.5q44 0 72 6.5t57 25.5l14 77h-113zM278 -51h165l-122 -158h-121z" />
    <glyph glyph-name="gcommaaccent" unicode="&#x123;" horiz-adv-x="553" 
d="M204 5q-42 0 -72.5 16.5t-49.5 43.5t-28 60.5t-9 67.5q0 62 21.5 114.5t61.5 91t96 60t124 21.5q25 0 53.5 -3.5t57 -9.5t55.5 -14.5t49 -19.5l-77 -395q-26 -134 -99 -192t-187 -58q-49 0 -98.5 13.5t-85.5 40.5l62 114q55 -37 123 -37q50 0 80 24t41 79l4 21
q-28 -20 -56 -29t-66 -9zM332 350q-54 0 -89.5 -39.5t-35.5 -106.5q0 -31 15.5 -51t49.5 -20q35 0 58 24.5t31 66.5l22 116q-13 5 -26 7.5t-25 2.5zM420 540h-153l110 142h113z" />
    <glyph glyph-name="Hcircumflex" unicode="&#x124;" horiz-adv-x="695" 
d="M164 667h170l-47 -246h236l47 246h170l-129 -667h-170l50 263h-236l-50 -263h-170zM421 873h123l81 -156h-128l-30 69l-57 -69h-131z" />
    <glyph glyph-name="hcircumflex" unicode="&#x125;" horiz-adv-x="554" 
d="M154 667h161l-48 -246q36 36 71 48.5t76 12.5q25 0 48.5 -9.5t41.5 -27.5t28.5 -44t10.5 -59q0 -12 -1 -24.5t-3 -26.5l-57 -291h-162l49 256q3 13 3 26q0 23 -11.5 38.5t-39.5 15.5q-38 0 -59 -25t-28 -60l-48 -251h-162zM295 873h123l81 -156h-128l-30 69l-57 -69h-131
z" />
    <glyph glyph-name="Hbar" unicode="&#x126;" horiz-adv-x="715" 
d="M139 486h-57l18 88h56l18 93h170l-18 -93h236l18 93h170l-18 -93h58l-18 -88h-57l-94 -486h-170l44 234h-236l-44 -234h-170zM527 392l18 94h-236l-18 -94h236z" />
    <glyph glyph-name="hbar" unicode="&#x127;" horiz-adv-x="554" 
d="M87 605h55l12 62h161l-12 -62h152l-17 -85h-152l-21 -109q36 36 71 48.5t76 12.5q25 0 48.5 -9.5t41.5 -27.5t28.5 -44t10.5 -59q0 -12 -1 -24.5t-3 -26.5l-55 -281h-162l47 246q3 13 3 26q0 23 -11.5 38.5t-39.5 15.5q-38 0 -59 -25t-28 -60l-46 -241h-162l101 520h-55z
" />
    <glyph glyph-name="Itilde" unicode="&#x128;" horiz-adv-x="289" 
d="M164 667h170l-129 -667h-170zM67 804q26 25 59 44.5t75 19.5q20 0 35.5 -6.5t29.5 -14t28 -13.5t31 -6q29 0 47.5 10t38.5 27l47 -81q-23 -22 -56 -43t-77 -21q-21 0 -36.5 6t-29.5 13.5t-28 14t-31 6.5q-29 0 -47.5 -10t-38.5 -27z" />
    <glyph glyph-name="itilde" unicode="&#x129;" horiz-adv-x="266" 
d="M118 470h162l-91 -470h-162zM13 620q26 25 59 44.5t75 19.5q20 0 35.5 -6.5t29.5 -14t28 -13.5t31 -6q29 0 47.5 10t38.5 27l47 -81q-23 -22 -56 -43t-77 -21q-21 0 -36.5 6t-29.5 13.5t-28 14t-31 6.5q-29 0 -47.5 -10t-38.5 -27z" />
    <glyph glyph-name="Imacron" unicode="&#x12a;" horiz-adv-x="289" 
d="M164 667h170l-129 -667h-170zM126 852h306l-22 -114h-306z" />
    <glyph glyph-name="imacron" unicode="&#x12b;" horiz-adv-x="266" 
d="M118 470h162l-91 -470h-162zM97 659h274l-22 -111h-274z" />
    <glyph glyph-name="Ibreve" unicode="&#x12c;" horiz-adv-x="289" 
d="M164 667h170l-129 -667h-170zM231 863q-1 -4 -1 -10q0 -17 10 -27t27 -10q44 0 52 47h117q-11 -73 -60.5 -111t-119.5 -38q-27 0 -52 7t-44.5 21.5t-31 36.5t-11.5 52q0 15 3 32h111z" />
    <glyph glyph-name="ibreve" unicode="&#x12d;" horiz-adv-x="266" 
d="M118 470h162l-91 -470h-162zM192 682q-1 -4 -1 -12q0 -34 35 -34q18 0 30 13.5t17 32.5h115q-7 -35 -24 -61.5t-40.5 -44.5t-52.5 -27t-59 -9q-27 0 -50.5 7t-41 21t-28 34.5t-10.5 47.5q0 15 3 32h107z" />
    <glyph glyph-name="Iogonek" unicode="&#x12e;" horiz-adv-x="289" 
d="M164 667h170l-129 -667q-8 -7 -19 -17.5t-21 -22t-17 -23t-7 -20.5q0 -10 6 -13.5t14 -3.5q13 0 26.5 5.5t21.5 10.5l26 -85q-20 -13 -52 -24t-70 -11q-34 0 -61 17.5t-27 55.5q0 18 7 35.5t18.5 34t26.5 32t31 29.5h-73z" />
    <glyph glyph-name="iogonek" unicode="&#x12f;" horiz-adv-x="266" 
d="M118 470h162l-91 -470l-19.5 -17t-21.5 -21.5t-17 -22.5t-7 -20q0 -10 6 -13.5t14 -3.5q13 0 27 6t22 11l26 -83q-20 -12 -51 -23t-69 -11q-34 0 -61.5 17.5t-27.5 55.5q0 35 20.5 62.5t59.5 62.5h-63zM148 667h176l-26 -133h-176z" />
    <glyph glyph-name="Idotaccent" unicode="&#x130;" horiz-adv-x="289" 
d="M164 667h170l-129 -667h-170zM213 862h142l-26 -134h-142z" />
    <glyph glyph-name="dotlessi" unicode="&#x131;" horiz-adv-x="266" 
d="M118 470h162l-91 -470h-162z" />
    <glyph glyph-name="i.locl" horiz-adv-x="266" 
d="M148 667h176l-26 -133h-176zM118 470h162l-91 -470h-162z" />
    <glyph glyph-name="IJ" unicode="&#x132;" horiz-adv-x="810" 
d="M164 667h170l-129 -667h-170zM398 191q24 -29 51 -42.5t57 -13.5q40 0 62.5 22.5t32.5 72.5l85 437h169l-90 -467q-42 -218 -247 -218q-69 0 -124 23.5t-100 74.5z" />
    <glyph glyph-name="ij" unicode="&#x133;" horiz-adv-x="551" 
d="M148 667h176l-26 -133h-176zM118 470h162l-91 -470h-162zM434 667h175l-26 -133h-175zM174 -36q34 -21 66 -21q31 0 49.5 19t26.5 63l87 445h163l-85 -434q-11 -54 -28 -97.5t-43.5 -74.5t-64.5 -47.5t-89 -16.5q-46 0 -83 10.5t-67 33.5z" />
    <glyph glyph-name="Jcircumflex" unicode="&#x134;" horiz-adv-x="521" 
d="M109 191q24 -29 51 -42.5t57 -13.5q40 0 62.5 22.5t32.5 72.5l85 437h169l-90 -467q-42 -218 -247 -218q-69 0 -124 23.5t-100 74.5zM454 873h123l81 -156h-128l-30 69l-57 -69h-131z" />
    <glyph glyph-name="jcircumflex" unicode="&#x135;" horiz-adv-x="285" 
d="M-92 -36q34 -21 66 -21q31 0 49.5 19t26.5 63l87 445h163l-85 -434q-11 -54 -28 -97.5t-43.5 -74.5t-64.5 -47.5t-89 -16.5q-46 0 -83 10.5t-67 33.5zM188 682h127l74 -142h-126l-28 62l-53 -62h-126z" />
    <glyph glyph-name="Kcommaaccent" unicode="&#x136;" horiz-adv-x="664" 
d="M164 667h170l-48 -250l242 250h198l-265 -269l161 -398h-195l-108 277l-74 -72l-40 -205h-170zM228 -51h165l-122 -158h-121z" />
    <glyph glyph-name="kcommaaccent" unicode="&#x137;" horiz-adv-x="530" 
d="M153 667h162l-65 -332l140 135h183l-192 -181l119 -289h-171l-73 186l-42 -41l-28 -145h-162zM171 -51h153l-110 -142h-113z" />
    <glyph glyph-name="kgreenlandic" unicode="&#x138;" horiz-adv-x="533" 
d="M115 470h162l-28 -139l144 139h183l-195 -186l123 -284h-171l-79 181l-41 -38l-27 -143h-162z" />
    <glyph glyph-name="Lacute" unicode="&#x139;" horiz-adv-x="547" 
d="M164 667h170l-100 -515h296l-29 -152h-466zM291 873h172l-145 -156h-123z" />
    <glyph glyph-name="lacute" unicode="&#x13a;" horiz-adv-x="260" 
d="M153 667h162l-129 -667h-162zM268 873h172l-145 -156h-123z" />
    <glyph glyph-name="Lcommaaccent" unicode="&#x13b;" horiz-adv-x="547" 
d="M164 667h170l-100 -515h296l-29 -152h-466zM185 -51h165l-122 -158h-121z" />
    <glyph glyph-name="lcommaaccent" unicode="&#x13c;" horiz-adv-x="260" 
d="M153 667h162l-129 -667h-162zM22 -51h153l-110 -142h-113z" />
    <glyph glyph-name="Lcaron" unicode="&#x13d;" horiz-adv-x="547" 
d="M164 667h170l-100 -515h296l-29 -152h-466zM441 667h144l-80 -186h-100z" />
    <glyph glyph-name="lcaron" unicode="&#x13e;" horiz-adv-x="395" 
d="M153 667h162l-129 -667h-162zM367 667h130l-72 -169h-91z" />
    <glyph glyph-name="Ldot" unicode="&#x13f;" horiz-adv-x="547" 
d="M164 667h170l-100 -515h296l-29 -152h-466zM431 468h142l-26 -134h-142z" />
    <glyph glyph-name="ldot" unicode="&#x140;" horiz-adv-x="475" 
d="M153 667h162l-129 -667h-162zM357 428h134l-25 -128h-134z" />
    <glyph glyph-name="Lslash" unicode="&#x141;" horiz-adv-x="557" 
d="M395 414l-111 -55l-40 -207h296l-29 -152h-466l52 271l-67 -33l20 107l68 34l56 288h170l-39 -201l110 55z" />
    <glyph glyph-name="lslash" unicode="&#x142;" horiz-adv-x="300" 
d="M47 330l68 38l58 299h162l-40 -205l70 39l-22 -111l-69 -39l-68 -351h-162l50 258l-69 -39z" />
    <glyph glyph-name="Nacute" unicode="&#x143;" horiz-adv-x="687" 
d="M164 667h144l183 -380l73 380h168l-129 -667h-135l-190 391l-75 -391h-168zM469 873h172l-145 -156h-123z" />
    <glyph glyph-name="nacute" unicode="&#x144;" horiz-adv-x="554" 
d="M115 470h157l-5 -49q36 36 72 48.5t77 12.5q27 0 50 -9.5t40 -27.5t27 -44t10 -59q0 -12 -1 -24.5t-3 -26.5l-57 -291h-162l49 256q3 13 3 26q0 23 -11.5 38.5t-39.5 15.5q-38 0 -59 -25t-28 -60l-48 -251h-162zM349 682h153l-110 -142h-113z" />
    <glyph glyph-name="Ncommaaccent" unicode="&#x145;" horiz-adv-x="687" 
d="M164 667h144l183 -380l73 380h168l-129 -667h-135l-190 391l-75 -391h-168zM251 -51h165l-122 -158h-121z" />
    <glyph glyph-name="ncommaaccent" unicode="&#x146;" horiz-adv-x="554" 
d="M115 470h157l-5 -49q36 36 72 48.5t77 12.5q27 0 50 -9.5t40 -27.5t27 -44t10 -59q0 -12 -1 -24.5t-3 -26.5l-57 -291h-162l49 256q3 13 3 26q0 23 -11.5 38.5t-39.5 15.5q-38 0 -59 -25t-28 -60l-48 -251h-162zM165 -51h153l-110 -142h-113z" />
    <glyph glyph-name="Ncaron" unicode="&#x147;" horiz-adv-x="687" 
d="M164 667h144l183 -380l73 380h168l-129 -667h-135l-190 391l-75 -391h-168zM501 717h-123l-81 156h128l30 -69l57 69h131z" />
    <glyph glyph-name="ncaron" unicode="&#x148;" horiz-adv-x="554" 
d="M115 470h157l-5 -49q36 36 72 48.5t77 12.5q27 0 50 -9.5t40 -27.5t27 -44t10 -59q0 -12 -1 -24.5t-3 -26.5l-57 -291h-162l49 256q3 13 3 26q0 23 -11.5 38.5t-39.5 15.5q-38 0 -59 -25t-28 -60l-48 -251h-162zM404 540h-127l-74 142h125l28 -62l53 62h127z" />
    <glyph glyph-name="napostrophe" unicode="&#x149;" horiz-adv-x="554" 
d="M115 470h157l-5 -49q36 36 72 48.5t77 12.5q27 0 50 -9.5t40 -27.5t27 -44t10 -59q0 -12 -1 -24.5t-3 -26.5l-57 -291h-162l49 256q3 13 3 26q0 23 -11.5 38.5t-39.5 15.5q-38 0 -59 -25t-28 -60l-48 -251h-162zM119 682h131l-71 -155h-97z" />
    <glyph glyph-name="Eng" unicode="&#x14a;" horiz-adv-x="687" 
d="M301 -40q34 -21 66 -21t51.5 18t28.5 64l3 16l-172 354l-75 -391h-168l129 667h144l183 -380l73 380h168l-130 -671q-18 -94 -70.5 -145t-146.5 -51q-46 0 -83 10.5t-67 33.5z" />
    <glyph glyph-name="eng" unicode="&#x14b;" horiz-adv-x="554" 
d="M489 36q-11 -54 -28 -97.5t-43.5 -74.5t-64.5 -47.5t-89 -16.5q-46 0 -83 10.5t-67 33.5l68 120q34 -21 66 -21q31 0 49.5 19t26.5 63l45 231q3 13 3 26q0 23 -11.5 38.5t-39.5 15.5q-38 0 -59 -25t-28 -60l-48 -251h-162l91 470h157l-5 -49q36 36 72 48.5t77 12.5
q27 0 50 -9.5t40 -27.5t27 -44t10 -59q0 -12 -0.5 -24.5t-3.5 -26.5z" />
    <glyph glyph-name="Omacron" unicode="&#x14c;" horiz-adv-x="743" 
d="M443 525q-45 0 -81 -19.5t-61.5 -51t-39 -73t-13.5 -84.5q0 -32 8.5 -59.5t25.5 -48t42.5 -32.5t59.5 -12q45 0 81 19.5t61.5 51t39 72.5t13.5 84q0 31 -8.5 59t-25.5 49t-42.5 33t-59.5 12zM369 -16q-63 0 -117.5 20.5t-94.5 58.5t-62.5 92t-22.5 120q0 81 28.5 155.5
t79.5 131.5t122 90.5t156 33.5q64 0 118.5 -20.5t94.5 -59t62 -92.5t22 -120q0 -83 -26.5 -157t-76.5 -130.5t-121.5 -89.5t-161.5 -33zM342 852h306l-22 -114h-306z" />
    <glyph glyph-name="omacron" unicode="&#x14d;" horiz-adv-x="544" 
d="M329 486q43 0 81.5 -15.5t67 -43t45.5 -66.5t17 -86q0 -62 -21 -115t-58.5 -92t-89.5 -61.5t-113 -22.5q-44 0 -82.5 15.5t-67 43t-45.5 66.5t-17 86q0 63 23 116t61.5 92t90 61t108.5 22zM279 127q20 0 39.5 9.5t34.5 26.5t24 40t9 51q0 38 -19.5 63.5t-58.5 25.5
q-20 0 -39.5 -9.5t-34.5 -26.5t-24 -40t-9 -51q0 -38 19.5 -63.5t58.5 -25.5zM220 659h274l-22 -111h-274z" />
    <glyph glyph-name="Obreve" unicode="&#x14e;" horiz-adv-x="743" 
d="M443 525q-45 0 -81 -19.5t-61.5 -51t-39 -73t-13.5 -84.5q0 -32 8.5 -59.5t25.5 -48t42.5 -32.5t59.5 -12q45 0 81 19.5t61.5 51t39 72.5t13.5 84q0 31 -8.5 59t-25.5 49t-42.5 33t-59.5 12zM369 -16q-63 0 -117.5 20.5t-94.5 58.5t-62.5 92t-22.5 120q0 81 28.5 155.5
t79.5 131.5t122 90.5t156 33.5q64 0 118.5 -20.5t94.5 -59t62 -92.5t22 -120q0 -83 -26.5 -157t-76.5 -130.5t-121.5 -89.5t-161.5 -33zM457 863q-1 -4 -1 -10q0 -17 10 -27t27 -10q44 0 52 47h117q-11 -73 -60.5 -111t-119.5 -38q-27 0 -52 7t-44.5 21.5t-31 36.5t-11.5 52
q0 15 3 32h111z" />
    <glyph glyph-name="obreve" unicode="&#x14f;" horiz-adv-x="544" 
d="M329 486q43 0 81.5 -15.5t67 -43t45.5 -66.5t17 -86q0 -62 -21 -115t-58.5 -92t-89.5 -61.5t-113 -22.5q-44 0 -82.5 15.5t-67 43t-45.5 66.5t-17 86q0 63 23 116t61.5 92t90 61t108.5 22zM279 127q20 0 39.5 9.5t34.5 26.5t24 40t9 51q0 38 -19.5 63.5t-58.5 25.5
q-20 0 -39.5 -9.5t-34.5 -26.5t-24 -40t-9 -51q0 -38 19.5 -63.5t58.5 -25.5zM308 682q-1 -4 -1 -12q0 -34 35 -34q18 0 30 13.5t17 32.5h115q-7 -35 -24 -61.5t-40.5 -44.5t-52.5 -27t-59 -9q-27 0 -50.5 7t-41 21t-28 34.5t-10.5 47.5q0 15 3 32h107z" />
    <glyph glyph-name="Ohungarumlaut" unicode="&#x150;" horiz-adv-x="743" 
d="M443 525q-45 0 -81 -19.5t-61.5 -51t-39 -73t-13.5 -84.5q0 -32 8.5 -59.5t25.5 -48t42.5 -32.5t59.5 -12q45 0 81 19.5t61.5 51t39 72.5t13.5 84q0 31 -8.5 59t-25.5 49t-42.5 33t-59.5 12zM369 -16q-63 0 -117.5 20.5t-94.5 58.5t-62.5 92t-22.5 120q0 81 28.5 155.5
t79.5 131.5t122 90.5t156 33.5q64 0 118.5 -20.5t94.5 -59t62 -92.5t22 -120q0 -83 -26.5 -157t-76.5 -130.5t-121.5 -89.5t-161.5 -33zM595 873h155l-138 -156h-111zM400 873h156l-139 -156h-111z" />
    <glyph glyph-name="ohungarumlaut" unicode="&#x151;" horiz-adv-x="544" 
d="M329 486q43 0 81.5 -15.5t67 -43t45.5 -66.5t17 -86q0 -62 -21 -115t-58.5 -92t-89.5 -61.5t-113 -22.5q-44 0 -82.5 15.5t-67 43t-45.5 66.5t-17 86q0 63 23 116t61.5 92t90 61t108.5 22zM279 127q20 0 39.5 9.5t34.5 26.5t24 40t9 51q0 38 -19.5 63.5t-58.5 25.5
q-20 0 -39.5 -9.5t-34.5 -26.5t-24 -40t-9 -51q0 -38 19.5 -63.5t58.5 -25.5zM439 682h137l-101 -142h-103zM265 682h137l-101 -142h-102z" />
    <glyph glyph-name="Racute" unicode="&#x154;" horiz-adv-x="606" 
d="M164 667h257q42 0 77.5 -14.5t61 -40t40 -61t14.5 -76.5q0 -43 -11.5 -78t-31.5 -62.5t-46 -47.5t-56 -32l96 -255h-177l-80 229h-63l-44 -229h-166zM346 363q20 0 38.5 5t32 16.5t21.5 30t8 45.5q0 32 -19 50t-52 18h-72l-32 -165h75zM366 873h172l-145 -156h-123z" />
    <glyph glyph-name="racute" unicode="&#x155;" horiz-adv-x="395" 
d="M115 470h157l-7 -59q53 68 127 68q34 0 62 -11l-49 -143q-26 9 -52 9q-50 0 -82.5 -33t-43.5 -90l-41 -211h-162zM286 682h153l-110 -142h-113z" />
    <glyph glyph-name="Rcommaaccent" unicode="&#x156;" horiz-adv-x="606" 
d="M164 667h257q42 0 77.5 -14.5t61 -40t40 -61t14.5 -76.5q0 -43 -11.5 -78t-31.5 -62.5t-46 -47.5t-56 -32l96 -255h-177l-80 229h-63l-44 -229h-166zM346 363q20 0 38.5 5t32 16.5t21.5 30t8 45.5q0 32 -19 50t-52 18h-72l-32 -165h75zM207 -51h165l-122 -158h-121z" />
    <glyph glyph-name="rcommaaccent" unicode="&#x157;" horiz-adv-x="395" 
d="M115 470h157l-7 -59q53 68 127 68q34 0 62 -11l-49 -143q-26 9 -52 9q-50 0 -82.5 -33t-43.5 -90l-41 -211h-162zM26 -51h153l-110 -142h-113z" />
    <glyph glyph-name="Rcaron" unicode="&#x158;" horiz-adv-x="606" 
d="M164 667h257q42 0 77.5 -14.5t61 -40t40 -61t14.5 -76.5q0 -43 -11.5 -78t-31.5 -62.5t-46 -47.5t-56 -32l96 -255h-177l-80 229h-63l-44 -229h-166zM346 363q20 0 38.5 5t32 16.5t21.5 30t8 45.5q0 32 -19 50t-52 18h-72l-32 -165h75zM412 717h-123l-81 156h128l30 -69
l57 69h131z" />
    <glyph glyph-name="rcaron" unicode="&#x159;" horiz-adv-x="395" 
d="M115 470h157l-7 -59q53 68 127 68q34 0 62 -11l-49 -143q-26 9 -52 9q-50 0 -82.5 -33t-43.5 -90l-41 -211h-162zM349 540h-127l-74 142h125l28 -62l53 62h127z" />
    <glyph glyph-name="Sacute" unicode="&#x15a;" horiz-adv-x="570" 
d="M113 207q35 -33 76 -52t89 -19q44 0 63 16.5t19 38.5q0 13 -3.5 23.5t-14 20.5t-30.5 20.5t-52 23.5q-77 31 -119 76t-42 113q0 48 19 88t54 68.5t84.5 44.5t110.5 16q72 0 135.5 -25.5t104.5 -73.5l-107 -101q-32 35 -67 47t-64 12q-41 0 -64.5 -15t-23.5 -40
q0 -12 4 -21.5t16 -19.5t33.5 -21t56.5 -25q89 -36 125.5 -84.5t36.5 -109.5q0 -55 -20.5 -97t-57 -70t-86.5 -42.5t-108 -14.5q-80 0 -153 24.5t-123 75.5zM395 873h172l-145 -156h-123z" />
    <glyph glyph-name="sacute" unicode="&#x15b;" horiz-adv-x="457" 
d="M79 158q33 -25 63 -37t72 -12q54 0 54 30q0 9 -3.5 15.5t-13 12.5t-26.5 13t-43 19q-41 17 -70 47.5t-29 83.5q0 40 16 69.5t43.5 48.5t63.5 28.5t76 9.5q51 0 97.5 -16t88.5 -52l-79 -93q-54 42 -107 42q-46 0 -46 -28q0 -9 2.5 -14.5t12 -12.5t28 -15.5l49.5 -23.5
q97 -46 97 -128q0 -42 -16 -72.5t-43 -50t-63.5 -29t-77.5 -9.5q-63 0 -117 16t-101 54zM302 682h153l-110 -142h-113z" />
    <glyph glyph-name="Scircumflex" unicode="&#x15c;" horiz-adv-x="570" 
d="M113 207q35 -33 76 -52t89 -19q44 0 63 16.5t19 38.5q0 13 -3.5 23.5t-14 20.5t-30.5 20.5t-52 23.5q-77 31 -119 76t-42 113q0 48 19 88t54 68.5t84.5 44.5t110.5 16q72 0 135.5 -25.5t104.5 -73.5l-107 -101q-32 35 -67 47t-64 12q-41 0 -64.5 -15t-23.5 -40
q0 -12 4 -21.5t16 -19.5t33.5 -21t56.5 -25q89 -36 125.5 -84.5t36.5 -109.5q0 -55 -20.5 -97t-57 -70t-86.5 -42.5t-108 -14.5q-80 0 -153 24.5t-123 75.5zM355 873h123l81 -156h-128l-30 69l-57 -69h-131z" />
    <glyph glyph-name="scircumflex" unicode="&#x15d;" horiz-adv-x="457" 
d="M79 158q33 -25 63 -37t72 -12q54 0 54 30q0 9 -3.5 15.5t-13 12.5t-26.5 13t-43 19q-41 17 -70 47.5t-29 83.5q0 40 16 69.5t43.5 48.5t63.5 28.5t76 9.5q51 0 97.5 -16t88.5 -52l-79 -93q-54 42 -107 42q-46 0 -46 -28q0 -9 2.5 -14.5t12 -12.5t28 -15.5l49.5 -23.5
q97 -46 97 -128q0 -42 -16 -72.5t-43 -50t-63.5 -29t-77.5 -9.5q-63 0 -117 16t-101 54zM273 682h127l74 -142h-126l-28 62l-53 -62h-126z" />
    <glyph glyph-name="Scedilla" unicode="&#x15e;" horiz-adv-x="570" 
d="M113 207q35 -33 76 -52t89 -19q44 0 63 16.5t19 38.5q0 13 -3.5 23.5t-14 20.5t-30.5 20.5t-52 23.5q-77 31 -119 76t-42 113q0 48 19 88t54 68.5t84.5 44.5t110.5 16q72 0 135.5 -25.5t104.5 -73.5l-107 -101q-32 35 -67 47t-64 12q-41 0 -64.5 -15t-23.5 -40
q0 -12 4 -21.5t16 -19.5t33.5 -21t56.5 -25q89 -36 125.5 -84.5t36.5 -109.5q0 -55 -20.5 -97t-57 -70t-86.5 -42.5t-108 -14.5q-80 0 -153 24.5t-123 75.5zM140 -139q17 -6 33.5 -10t33.5 -4q27 0 42 5.5t15 21.5q0 14 -15 16.5t-29 2.5q-37 0 -69 -13l26 69q21 6 44 9
t45 3q19 0 37 -5t32.5 -15t23 -24t8.5 -33q0 -32 -14.5 -54.5t-36.5 -36t-48.5 -19.5t-51.5 -6q-26 0 -53.5 4t-50.5 14z" />
    <glyph glyph-name="scedilla" unicode="&#x15f;" horiz-adv-x="457" 
d="M79 158q33 -25 63 -37t72 -12q54 0 54 30q0 9 -3.5 15.5t-13 12.5t-26.5 13t-43 19q-41 17 -70 47.5t-29 83.5q0 40 16 69.5t43.5 48.5t63.5 28.5t76 9.5q51 0 97.5 -16t88.5 -52l-79 -93q-54 42 -107 42q-46 0 -46 -28q0 -9 2.5 -14.5t12 -12.5t28 -15.5l49.5 -23.5
q97 -46 97 -128q0 -42 -16 -72.5t-43 -50t-63.5 -29t-77.5 -9.5q-63 0 -117 16t-101 54zM71 -139q17 -6 33.5 -10t33.5 -4q27 0 42 7t15 23q0 14 -15 17.5t-29 3.5q-34 0 -66 -13l26 69q42 12 86 12q19 0 37 -5t31.5 -15t22 -24.5t8.5 -33.5q0 -33 -14 -56t-36 -37.5
t-48 -20.5t-51 -6q-26 0 -53.5 4t-50.5 14z" />
    <glyph glyph-name="uni0162" unicode="&#x162;" horiz-adv-x="600" 
d="M287 515h-197l29 152h564l-29 -152h-195l-100 -515h-172zM143 -139q17 -6 33.5 -10t33.5 -4q27 0 42 5.5t15 21.5q0 14 -15 16.5t-29 2.5q-37 0 -69 -13l26 69q21 6 44 9t45 3q19 0 37 -5t32.5 -15t23 -24t8.5 -33q0 -32 -14.5 -54.5t-36.5 -36t-48.5 -19.5t-51.5 -6
q-26 0 -53.5 4t-50.5 14z" />
    <glyph glyph-name="uni0163" unicode="&#x163;" horiz-adv-x="410" 
d="M113 343h-66l24 127h66l25 131h162l-25 -131h111l-24 -127h-111l-34 -169q-1 -5 -1.5 -9.5t-0.5 -8.5q0 -20 11 -30.5t30 -10.5q20 0 33.5 5.5t30.5 17.5l62 -101q-38 -29 -80.5 -42t-85.5 -13q-86 0 -125 40t-39 107q0 27 6 59zM84 -148q17 -6 33.5 -10t33.5 -4
q27 0 42 7t15 23q0 14 -15 17.5t-29 3.5q-34 0 -66 -13l26 69q42 12 86 12q19 0 37 -5t31.5 -15t22 -24.5t8.5 -33.5q0 -33 -14 -56t-36 -37.5t-48 -20.5t-51 -6q-26 0 -53.5 4t-50.5 14z" />
    <glyph glyph-name="Tcaron" unicode="&#x164;" horiz-adv-x="600" 
d="M287 515h-197l29 152h564l-29 -152h-195l-100 -515h-172zM455 717h-123l-81 156h128l30 -69l57 69h131z" />
    <glyph glyph-name="tcaron" unicode="&#x165;" horiz-adv-x="410" 
d="M416 667h130l-72 -149h-91zM113 343h-66l24 127h66l25 131h162l-25 -131h111l-24 -127h-111l-34 -169q-1 -5 -1.5 -9.5t-0.5 -8.5q0 -20 11 -30.5t30 -10.5q20 0 33.5 5.5t30.5 17.5l62 -101q-38 -29 -80.5 -42t-85.5 -13q-86 0 -125 40t-39 107q0 27 6 59z" />
    <glyph glyph-name="Tbar" unicode="&#x166;" horiz-adv-x="600" 
d="M154 338h98l35 177h-197l29 152h564l-29 -152h-195l-35 -177h98l-17 -90h-98l-48 -248h-172l48 248h-98z" />
    <glyph glyph-name="tbar" unicode="&#x167;" horiz-adv-x="410" 
d="M38 285h63l12 58h-66l24 127h66l25 131h162l-25 -131h111l-24 -127h-111l-12 -58h112l-17 -85h-112l-5 -26q-1 -5 -1.5 -9.5t-0.5 -8.5q0 -20 11 -30.5t30 -10.5q20 0 33.5 5.5t30.5 17.5l62 -101q-38 -29 -80.5 -42t-85.5 -13q-86 0 -125 40t-39 107q0 27 6 59l2 12h-63
z" />
    <glyph glyph-name="Utilde" unicode="&#x168;" horiz-adv-x="670" 
d="M159 667h170l-77 -391q-2 -11 -3 -21.5t-1 -19.5q0 -48 25.5 -68.5t67.5 -20.5q28 0 48.5 9t34.5 25t23 38.5t14 49.5l78 399h172l-80 -414q-15 -78 -45.5 -130t-72 -82.5t-91 -43.5t-102.5 -13q-58 0 -103.5 16t-77.5 45t-49 69t-17 88q0 14 2 28t5 29zM249 804
q26 25 59 44.5t75 19.5q20 0 35.5 -6.5t29.5 -14t28 -13.5t31 -6q29 0 47.5 10t38.5 27l47 -81q-23 -22 -56 -43t-77 -21q-21 0 -36.5 6t-29.5 13.5t-28 14t-31 6.5q-29 0 -47.5 -10t-38.5 -27z" />
    <glyph glyph-name="utilde" unicode="&#x169;" horiz-adv-x="550" 
d="M476 0h-157l5 49q-36 -36 -71.5 -48.5t-76.5 -12.5q-27 0 -49.5 9.5t-39.5 27.5t-26.5 44t-9.5 59q0 12 1 24.5t3 26.5l57 291h162l-49 -256q-3 -14 -3 -26q0 -23 10.5 -38.5t38.5 -15.5q38 0 58.5 25t27.5 60l48 251h162zM154 620q26 25 59 44.5t75 19.5q20 0 35.5 -6.5
t29.5 -14t28 -13.5t31 -6q29 0 47.5 10t38.5 27l47 -81q-23 -22 -56 -43t-77 -21q-21 0 -36.5 6t-29.5 13.5t-28 14t-31 6.5q-29 0 -47.5 -10t-38.5 -27z" />
    <glyph glyph-name="Umacron" unicode="&#x16a;" horiz-adv-x="670" 
d="M159 667h170l-77 -391q-2 -11 -3 -21.5t-1 -19.5q0 -48 25.5 -68.5t67.5 -20.5q28 0 48.5 9t34.5 25t23 38.5t14 49.5l78 399h172l-80 -414q-15 -78 -45.5 -130t-72 -82.5t-91 -43.5t-102.5 -13q-58 0 -103.5 16t-77.5 45t-49 69t-17 88q0 14 2 28t5 29zM308 852h306
l-22 -114h-306z" />
    <glyph glyph-name="umacron" unicode="&#x16b;" horiz-adv-x="550" 
d="M476 0h-157l5 49q-36 -36 -71.5 -48.5t-76.5 -12.5q-27 0 -49.5 9.5t-39.5 27.5t-26.5 44t-9.5 59q0 12 1 24.5t3 26.5l57 291h162l-49 -256q-3 -14 -3 -26q0 -23 10.5 -38.5t38.5 -15.5q38 0 58.5 25t27.5 60l48 251h162zM232 659h274l-22 -111h-274z" />
    <glyph glyph-name="Ubreve" unicode="&#x16c;" horiz-adv-x="670" 
d="M159 667h170l-77 -391q-2 -11 -3 -21.5t-1 -19.5q0 -48 25.5 -68.5t67.5 -20.5q28 0 48.5 9t34.5 25t23 38.5t14 49.5l78 399h172l-80 -414q-15 -78 -45.5 -130t-72 -82.5t-91 -43.5t-102.5 -13q-58 0 -103.5 16t-77.5 45t-49 69t-17 88q0 14 2 28t5 29zM412 863
q-1 -4 -1 -10q0 -17 10 -27t27 -10q44 0 52 47h117q-11 -73 -60.5 -111t-119.5 -38q-27 0 -52 7t-44.5 21.5t-31 36.5t-11.5 52q0 15 3 32h111z" />
    <glyph glyph-name="ubreve" unicode="&#x16d;" horiz-adv-x="550" 
d="M476 0h-157l5 49q-36 -36 -71.5 -48.5t-76.5 -12.5q-27 0 -49.5 9.5t-39.5 27.5t-26.5 44t-9.5 59q0 12 1 24.5t3 26.5l57 291h162l-49 -256q-3 -14 -3 -26q0 -23 10.5 -38.5t38.5 -15.5q38 0 58.5 25t27.5 60l48 251h162zM329 682q-1 -4 -1 -12q0 -34 35 -34
q18 0 30 13.5t17 32.5h115q-7 -35 -24 -61.5t-40.5 -44.5t-52.5 -27t-59 -9q-27 0 -50.5 7t-41 21t-28 34.5t-10.5 47.5q0 15 3 32h107z" />
    <glyph glyph-name="Uring" unicode="&#x16e;" horiz-adv-x="670" 
d="M159 667h170l-77 -391q-2 -11 -3 -21.5t-1 -19.5q0 -48 25.5 -68.5t67.5 -20.5q28 0 48.5 9t34.5 25t23 38.5t14 49.5l78 399h172l-80 -414q-15 -78 -45.5 -130t-72 -82.5t-91 -43.5t-102.5 -13q-58 0 -103.5 16t-77.5 45t-49 69t-17 88q0 14 2 28t5 29zM305 817
q0 30 11 54.5t30 42.5t44 28t54 10q28 0 53.5 -10t44.5 -28t30 -42.5t11 -54.5q0 -29 -11 -54t-30 -43t-44.5 -28t-53.5 -10q-29 0 -54 10t-44 28t-30 43t-11 54zM444 771q20 0 32.5 13t12.5 33t-12.5 33t-32.5 13t-32.5 -13t-12.5 -33t12.5 -33t32.5 -13z" />
    <glyph glyph-name="uring" unicode="&#x16f;" horiz-adv-x="550" 
d="M476 0h-157l5 49q-36 -36 -71.5 -48.5t-76.5 -12.5q-27 0 -49.5 9.5t-39.5 27.5t-26.5 44t-9.5 59q0 12 1 24.5t3 26.5l57 291h162l-49 -256q-3 -14 -3 -26q0 -23 10.5 -38.5t38.5 -15.5q38 0 58.5 25t27.5 60l48 251h162zM240 646q0 26 10 48t26.5 37.5t39 24.5t47.5 9
t47.5 -9t39 -24.5t26.5 -37.5t10 -48t-10 -47.5t-26.5 -37.5t-39 -25t-47.5 -9t-47.5 9t-39 25t-26.5 37.5t-10 47.5zM363 608q16 0 27 11t11 27t-11 27.5t-27 11.5t-27 -11t-11 -28q0 -16 11 -27t27 -11z" />
    <glyph glyph-name="Uhungarumlaut" unicode="&#x170;" horiz-adv-x="670" 
d="M159 667h170l-77 -391q-2 -11 -3 -21.5t-1 -19.5q0 -48 25.5 -68.5t67.5 -20.5q28 0 48.5 9t34.5 25t23 38.5t14 49.5l78 399h172l-80 -414q-15 -78 -45.5 -130t-72 -82.5t-91 -43.5t-102.5 -13q-58 0 -103.5 16t-77.5 45t-49 69t-17 88q0 14 2 28t5 29zM569 873h155
l-138 -156h-111zM374 873h156l-139 -156h-111z" />
    <glyph glyph-name="uhungarumlaut" unicode="&#x171;" horiz-adv-x="550" 
d="M476 0h-157l5 49q-36 -36 -71.5 -48.5t-76.5 -12.5q-27 0 -49.5 9.5t-39.5 27.5t-26.5 44t-9.5 59q0 12 1 24.5t3 26.5l57 291h162l-49 -256q-3 -14 -3 -26q0 -23 10.5 -38.5t38.5 -15.5q38 0 58.5 25t27.5 60l48 251h162zM453 682h137l-101 -142h-103zM279 682h137
l-101 -142h-102z" />
    <glyph glyph-name="Uogonek" unicode="&#x172;" horiz-adv-x="670" 
d="M159 667h170l-77 -391q-2 -11 -3 -21.5t-1 -19.5q0 -48 25.5 -68.5t67.5 -20.5q28 0 48.5 9t34.5 25t23 38.5t14 49.5l78 399h172l-80 -414q-11 -57 -30 -99.5t-45 -73t-57.5 -50.5t-66.5 -30q-8 -7 -19 -17.5t-21 -22t-16.5 -23t-6.5 -20.5q0 -10 6 -13.5t14 -3.5
q13 0 26.5 5.5t21.5 10.5l26 -85q-20 -13 -52 -24t-70 -11q-34 0 -61 17.5t-27 55.5q0 31 19.5 60.5t45.5 54.5q-57 0 -102.5 16.5t-77 45t-48.5 68.5t-17 88q0 14 2 28t5 29z" />
    <glyph glyph-name="uogonek" unicode="&#x173;" horiz-adv-x="550" 
d="M319 0l5 49q-36 -36 -71.5 -48.5t-76.5 -12.5q-27 0 -49.5 9.5t-39.5 27.5t-26.5 44t-9.5 59q0 12 1 24.5t3 26.5l57 291h162l-49 -256q-3 -14 -3 -26q0 -23 10.5 -38.5t38.5 -15.5q38 0 58.5 25t27.5 60l48 251h162l-91 -470l-19.5 -17t-21.5 -21.5t-17 -22.5t-7 -20
q0 -10 6 -13.5t14 -3.5q13 0 27 6t22 11l26 -83q-20 -12 -51 -23t-69 -11q-34 0 -61.5 17.5t-27.5 55.5q0 35 20.5 62.5t59.5 62.5h-58z" />
    <glyph glyph-name="Wcircumflex" unicode="&#x174;" horiz-adv-x="898" 
d="M110 667h173l-4 -447l184 431h160l18 -431l163 447h180l-288 -667h-181l-19 422l-182 -422h-178zM515 873h123l81 -156h-128l-30 69l-57 -69h-131z" />
    <glyph glyph-name="wcircumflex" unicode="&#x175;" horiz-adv-x="754" 
d="M55 470h156l19 -276l132 276h126l28 -276l123 276h165l-248 -470h-140l-31 242l-125 -242h-140zM395 682h127l74 -142h-126l-28 62l-53 -62h-126z" />
    <glyph glyph-name="Ycircumflex" unicode="&#x176;" horiz-adv-x="621" 
d="M252 270l-147 397h180l77 -245l172 245h189l-301 -395l-52 -272h-170zM371 873h123l81 -156h-128l-30 69l-57 -69h-131z" />
    <glyph glyph-name="ycircumflex" unicode="&#x177;" horiz-adv-x="544" 
d="M16 -55q33 -24 60 -24q25 0 42.5 15.5t33.5 44.5l15 28l-117 461h175l48 -275l139 275h177l-272 -467l-50.5 -83t-52 -68t-59.5 -46.5t-71 -17.5q-38 0 -67.5 6t-66.5 34zM288 682h127l74 -142h-126l-28 62l-53 -62h-126z" />
    <glyph glyph-name="Zacute" unicode="&#x179;" horiz-adv-x="602" 
d="M32 136l387 379h-301l29 152h518l-26 -135l-383 -380h319l-29 -152h-540zM417 873h172l-145 -156h-123z" />
    <glyph glyph-name="zacute" unicode="&#x17a;" horiz-adv-x="492" 
d="M30 104l260 235h-203l26 131h408l-21 -107l-254 -235h212l-25 -128h-423zM327 682h153l-110 -142h-113z" />
    <glyph glyph-name="Zdotaccent" unicode="&#x17b;" horiz-adv-x="602" 
d="M32 136l387 379h-301l29 152h518l-26 -135l-383 -380h319l-29 -152h-540zM367 862h142l-26 -134h-142z" />
    <glyph glyph-name="zdotaccent" unicode="&#x17c;" horiz-adv-x="492" 
d="M30 104l260 235h-203l26 131h408l-21 -107l-254 -235h212l-25 -128h-423zM279 675h134l-25 -128h-134z" />
    <glyph glyph-name="Zcaron" unicode="&#x17d;" horiz-adv-x="602" 
d="M32 136l387 379h-301l29 152h518l-26 -135l-383 -380h319l-29 -152h-540zM468 717h-123l-81 156h128l30 -69l57 69h131z" />
    <glyph glyph-name="zcaron" unicode="&#x17e;" horiz-adv-x="492" 
d="M30 104l260 235h-203l26 131h408l-21 -107l-254 -235h212l-25 -128h-423zM392 540h-127l-74 142h125l28 -62l53 62h127z" />
    <glyph glyph-name="longs" unicode="&#x17f;" horiz-adv-x="285" 
d="M119 492q18 93 67.5 143t150.5 50q78 0 143 -54l-76 -103q-12 10 -26 16t-32 6q-25 0 -42.5 -15t-22.5 -44l-95 -491h-162z" />
    <glyph glyph-name="Scommaaccent" unicode="&#x218;" horiz-adv-x="570" 
d="M113 207q35 -33 76 -52t89 -19q44 0 63 16.5t19 38.5q0 13 -3.5 23.5t-14 20.5t-30.5 20.5t-52 23.5q-77 31 -119 76t-42 113q0 48 19 88t54 68.5t84.5 44.5t110.5 16q72 0 135.5 -25.5t104.5 -73.5l-107 -101q-32 35 -67 47t-64 12q-41 0 -64.5 -15t-23.5 -40
q0 -12 4 -21.5t16 -19.5t33.5 -21t56.5 -25q89 -36 125.5 -84.5t36.5 -109.5q0 -55 -20.5 -97t-57 -70t-86.5 -42.5t-108 -14.5q-80 0 -153 24.5t-123 75.5zM186 -51h165l-122 -158h-121z" />
    <glyph glyph-name="scommaaccent" unicode="&#x219;" horiz-adv-x="457" 
d="M79 158q33 -25 63 -37t72 -12q54 0 54 30q0 9 -3.5 15.5t-13 12.5t-26.5 13t-43 19q-41 17 -70 47.5t-29 83.5q0 40 16 69.5t43.5 48.5t63.5 28.5t76 9.5q51 0 97.5 -16t88.5 -52l-79 -93q-54 42 -107 42q-46 0 -46 -28q0 -9 2.5 -14.5t12 -12.5t28 -15.5l49.5 -23.5
q97 -46 97 -128q0 -42 -16 -72.5t-43 -50t-63.5 -29t-77.5 -9.5q-63 0 -117 16t-101 54zM136 -51h153l-110 -142h-113z" />
    <glyph glyph-name="uni021A" unicode="&#x21a;" horiz-adv-x="600" 
d="M287 515h-197l29 152h564l-29 -152h-195l-100 -515h-172zM183 -51h165l-122 -158h-121z" />
    <glyph glyph-name="uni021B" unicode="&#x21b;" horiz-adv-x="410" 
d="M113 343h-66l24 127h66l25 131h162l-25 -131h111l-24 -127h-111l-34 -169q-1 -5 -1.5 -9.5t-0.5 -8.5q0 -20 11 -30.5t30 -10.5q20 0 33.5 5.5t30.5 17.5l62 -101q-38 -29 -80.5 -42t-85.5 -13q-86 0 -125 40t-39 107q0 27 6 59zM150 -51h153l-110 -142h-113z" />
    <glyph glyph-name="dotlessj" unicode="&#x237;" horiz-adv-x="285" 
d="M-92 -36q34 -21 66 -21q31 0 49.5 19t26.5 63l87 445h163l-85 -434q-11 -54 -28 -97.5t-43.5 -74.5t-64.5 -47.5t-89 -16.5q-46 0 -83 10.5t-67 33.5z" />
    <glyph glyph-name="apostrophe" unicode="&#x2bc;" horiz-adv-x="108" 
d="M115 682h131l-71 -155h-97z" />
    <glyph glyph-name="caron" unicode="&#x2c7;" horiz-adv-x="424" 
d="M356 540h-127l-74 142h125l28 -62l53 62h127z" />
    <glyph glyph-name="uni02C9" unicode="&#x2c9;" horiz-adv-x="424" 
d="M178 659h274l-22 -111h-274z" />
    <glyph glyph-name="breve" unicode="&#x2d8;" horiz-adv-x="424" 
d="M275 682q-1 -4 -1 -12q0 -34 35 -34q18 0 30 13.5t17 32.5h115q-7 -35 -24 -61.5t-40.5 -44.5t-52.5 -27t-59 -9q-27 0 -50.5 7t-41 21t-28 34.5t-10.5 47.5q0 15 3 32h107z" />
    <glyph glyph-name="dotaccent" unicode="&#x2d9;" horiz-adv-x="424" 
d="M251 675h134l-25 -128h-134z" />
    <glyph glyph-name="ring" unicode="&#x2da;" horiz-adv-x="424" 
d="M188 646q0 26 10 48t26.5 37.5t39 24.5t47.5 9t47.5 -9t39 -24.5t26.5 -37.5t10 -48t-10 -47.5t-26.5 -37.5t-39 -25t-47.5 -9t-47.5 9t-39 25t-26.5 37.5t-10 47.5zM311 608q16 0 27 11t11 27t-11 27.5t-27 11.5t-27 -11t-11 -28q0 -16 11 -27t27 -11z" />
    <glyph glyph-name="ogonek" unicode="&#x2db;" horiz-adv-x="424" 
d="M238 0l-19.5 -17t-21.5 -21.5t-17 -22.5t-7 -20q0 -10 6 -13.5t14 -3.5q13 0 27 6t22 11l26 -83q-20 -12 -51 -23t-69 -11q-34 0 -61.5 17.5t-27.5 55.5q0 35 20.5 62.5t59.5 62.5h99z" />
    <glyph glyph-name="hungarumlaut" unicode="&#x2dd;" horiz-adv-x="424" 
d="M357 682h137l-101 -142h-103zM183 682h137l-101 -142h-102z" />
    <glyph glyph-name="uni20B9" unicode="&#x20b9;" 
d="M326 461q-8 27 -32 42t-69 15h-76l22 112h425l-34 -112h-105q17 -27 23 -57h85l-34 -112h-55q-16 -64 -62.5 -106t-123.5 -56l186 -187h-192l-198 195l19 96h83q42 0 74.5 14.5t50.5 43.5h-197l22 112h188z" />
    <glyph glyph-name="Wgrave" unicode="&#x1e80;" horiz-adv-x="898" 
d="M110 667h173l-4 -447l184 431h160l18 -431l163 447h180l-288 -667h-181l-19 422l-182 -422h-178zM411 873h172l44 -156h-123z" />
    <glyph glyph-name="wgrave" unicode="&#x1e81;" horiz-adv-x="754" 
d="M55 470h156l19 -276l132 276h126l28 -276l123 276h165l-248 -470h-140l-31 242l-125 -242h-140zM316 682h153l21 -142h-112z" />
    <glyph glyph-name="Wacute" unicode="&#x1e82;" horiz-adv-x="898" 
d="M110 667h173l-4 -447l184 431h160l18 -431l163 447h180l-288 -667h-181l-19 422l-182 -422h-178zM562 873h172l-145 -156h-123z" />
    <glyph glyph-name="wacute" unicode="&#x1e83;" horiz-adv-x="754" 
d="M55 470h156l19 -276l132 276h126l28 -276l123 276h165l-248 -470h-140l-31 242l-125 -242h-140zM429 682h153l-110 -142h-113z" />
    <glyph glyph-name="Wdieresis" unicode="&#x1e84;" horiz-adv-x="898" 
d="M110 667h173l-4 -447l184 431h160l18 -431l163 447h180l-288 -667h-181l-19 422l-182 -422h-178zM613 858h135l-24 -126h-135zM397 858h135l-24 -126h-135z" />
    <glyph glyph-name="wdieresis" unicode="&#x1e85;" horiz-adv-x="754" 
d="M55 470h156l19 -276l132 276h126l28 -276l123 276h165l-248 -470h-140l-31 242l-125 -242h-140zM488 671h126l-23 -120h-126zM295 671h126l-23 -120h-126z" />
    <glyph glyph-name="Ygrave" unicode="&#x1ef2;" horiz-adv-x="621" 
d="M252 270l-147 397h180l77 -245l172 245h189l-301 -395l-52 -272h-170zM262 873h172l44 -156h-123z" />
    <glyph glyph-name="ygrave" unicode="&#x1ef3;" horiz-adv-x="544" 
d="M16 -55q33 -24 60 -24q25 0 42.5 15.5t33.5 44.5l15 28l-117 461h175l48 -275l139 275h177l-272 -467l-50.5 -83t-52 -68t-59.5 -46.5t-71 -17.5q-38 0 -67.5 6t-66.5 34zM211 682h153l21 -142h-112z" />
    <glyph glyph-name="fraction" unicode="&#x2044;" horiz-adv-x="205" 
d="M309 630h142l-485 -630h-146z" />
    <glyph glyph-name="zerosuperior" unicode="&#x2070;" horiz-adv-x="360" 
d="M210 284q-34 0 -59.5 10.5t-42.5 29t-25.5 43.5t-8.5 53q0 50 15.5 91.5t41.5 71.5t60 46.5t72 16.5q34 0 59 -10.5t42 -29t25.5 -43.5t8.5 -53q0 -51 -15.5 -92.5t-41 -71t-60 -46t-71.5 -16.5zM218 378q12 0 24.5 8t23 24t17 40.5t6.5 57.5q0 22 -10 33.5t-25 11.5
q-12 0 -24.5 -8t-23 -24t-17 -40.5t-6.5 -57.5q0 -23 9.5 -34t25.5 -11z" />
    <glyph glyph-name="onesuperior" unicode="&#xb9;" horiz-adv-x="360" 
d="M221 524q-18 -8 -33 -15.5t-33 -14.5l-37 80l136 63h103l-66 -343h-114z" />
    <glyph glyph-name="twosuperior" unicode="&#xb2;" horiz-adv-x="360" 
d="M88 349q8 40 34.5 67t67.5 52l52.5 32t22.5 30q0 21 -24 21q-17 0 -37.5 -7.5t-43.5 -24.5l-50 72q71 55 150 55q54 0 88 -24t34 -72q0 -23 -8 -41t-21.5 -33t-31 -27.5t-35.5 -22.5l-33 -19.5l-29 -18.5h133l-18 -94h-261z" />
    <glyph glyph-name="threesuperior" unicode="&#xb3;" horiz-adv-x="360" 
d="M281 500q73 -27 73 -93q0 -53 -40.5 -88t-109.5 -35q-25 0 -44.5 2.5t-36 7.5t-31.5 13t-30 20l51 77q24 -17 46.5 -22.5t40.5 -5.5q27 0 39.5 10.5t12.5 23.5q0 17 -11.5 24t-28.5 7q-10 0 -19.5 -2.5l-16.5 -4.5l-23 46l98 70h-124l18 87h240l-16 -71z" />
    <glyph glyph-name="foursuperior" unicode="&#x2074;" horiz-adv-x="360" 
d="M87 434l182 203h121l-39 -203h35l-16 -79h-35l-11 -61h-100l11 61h-164zM251 433l19 103l-93 -103h74z" />
    <glyph glyph-name="fivesuperior" unicode="&#x2075;" horiz-adv-x="360" 
d="M204 284q-44 0 -77.5 13.5t-62.5 36.5l62 75q23 -17 43 -24.5t37 -7.5q22 0 35.5 8t13.5 25q0 28 -42 28q-11 0 -26.5 -2.5t-26.5 -7.5l-45 35l64 174h206l-21 -87h-125l-14 -41q5 1 14 1h11q51 0 81 -24t30 -69q0 -60 -42.5 -96.5t-114.5 -36.5z" />
    <glyph glyph-name="sixsuperior" unicode="&#x2076;" horiz-adv-x="360" 
d="M345 536q-17 12 -30 15.5t-31 3.5q-34 0 -50.5 -17.5t-25.5 -39.5q16 7 31.5 10.5t36.5 3.5q45 0 72.5 -26t27.5 -68q0 -34 -12 -59t-33 -41.5t-48.5 -25t-57.5 -8.5q-37 0 -62.5 12t-41.5 32t-23 45.5t-7 53.5q0 38 12 77t37 70.5t62 51.5t88 20q33 0 60 -9t50 -26z
M239 438q-12 0 -24.5 -4t-20.5 -9q-1 -4 -1 -10q0 -19 10 -31t28 -12q15 0 29.5 9t14.5 30q0 14 -9.5 20.5t-26.5 6.5z" />
    <glyph glyph-name="sevensuperior" unicode="&#x2077;" horiz-adv-x="360" 
d="M93 294q36 66 77 128t89 123h-149l18 92h272l-16 -84q-48 -60 -90.5 -125t-78.5 -134h-122z" />
    <glyph glyph-name="eightsuperior" unicode="&#x2078;" horiz-adv-x="360" 
d="M278 406q0 10 -8 19t-28 17q-21 -5 -40 -16.5t-19 -31.5q0 -11 9.5 -20.5t31.5 -9.5q21 0 37.5 10t16.5 32zM224 535q0 -19 28 -31q17 5 31 13t14 26q0 9 -7 17t-24 8q-16 0 -29 -7.5t-13 -25.5zM398 559q0 -29 -12.5 -48t-45.5 -38q23 -19 29 -36.5t6 -34.5
q0 -24 -11 -45t-31.5 -37.5t-50.5 -26t-69 -9.5q-38 0 -64 8.5t-42.5 22.5t-24 31.5t-7.5 35.5q0 36 23 60.5t59 41.5q-12 11 -20 25.5t-8 33.5q0 45 37.5 74t103.5 29q33 0 57.5 -8t40 -20.5t23 -28t7.5 -30.5z" />
    <glyph glyph-name="ninesuperior" unicode="&#x2079;" horiz-adv-x="360" 
d="M113 397q20 -14 39.5 -18t40.5 -4q32 0 49 18t20 39q-16 -7 -31 -10.5t-36 -3.5q-48 0 -74.5 28.5t-26.5 74.5q0 31 13 54.5t34 39.5t47.5 23.5t53.5 7.5q34 0 60 -11.5t43 -31.5t25.5 -46t8.5 -54q0 -38 -10 -77t-32.5 -70.5t-59.5 -51.5t-90 -20q-65 0 -113 34z
M231 492q12 0 24.5 4t20.5 9q1 3 1 9q0 19 -11 31.5t-29 12.5q-14 0 -28 -8t-14 -28q0 -17 10 -23.5t26 -6.5z" />
    <glyph glyph-name="zeroinferior" unicode="&#x2080;" horiz-adv-x="360" 
d="M156 -9q-34 0 -59.5 10.5t-42.5 29t-25.5 43.5t-8.5 53q0 50 15.5 91.5t41.5 71.5t60 46.5t72 16.5q34 0 59 -10.5t42 -29t25.5 -43.5t8.5 -53q0 -51 -15.5 -92.5t-41 -71t-60 -46t-71.5 -16.5zM164 85q12 0 24.5 8t23 24t17 40.5t6.5 57.5q0 22 -10 33.5t-25 11.5
q-12 0 -24.5 -8t-23 -24t-17 -40.5t-6.5 -57.5q0 -23 9.5 -34t25.5 -11z" />
    <glyph glyph-name="oneinferior" unicode="&#x2081;" horiz-adv-x="360" 
d="M167 231q-18 -8 -33 -15.5t-33 -14.5l-37 80l136 63h103l-66 -343h-114z" />
    <glyph glyph-name="twoinferior" unicode="&#x2082;" horiz-adv-x="360" 
d="M36 56q8 40 34.5 67t67.5 52l52.5 32t22.5 30q0 21 -24 21q-17 0 -37.5 -7.5t-43.5 -24.5l-50 72q71 55 150 55q54 0 88 -24t34 -72q0 -23 -8 -41t-21.5 -33t-31 -27.5t-35.5 -22.5l-33 -19.5l-29 -18.5h133l-18 -94h-261z" />
    <glyph glyph-name="threeinferior" unicode="&#x2083;" horiz-adv-x="360" 
d="M229 207q73 -27 73 -93q0 -53 -40.5 -88t-109.5 -35q-25 0 -44.5 2.5t-36 7.5t-31.5 13t-30 20l51 77q24 -17 46.5 -22.5t40.5 -5.5q27 0 39.5 10.5t12.5 23.5q0 17 -11.5 24t-28.5 7q-10 0 -19.5 -2.5l-16.5 -4.5l-23 46l98 70h-124l18 87h240l-16 -71z" />
    <glyph glyph-name="fourinferior" unicode="&#x2084;" horiz-adv-x="360" 
d="M33 141l182 203h121l-39 -203h35l-16 -79h-35l-11 -61h-100l11 61h-164zM197 140l19 103l-93 -103h74z" />
    <glyph glyph-name="fiveinferior" unicode="&#x2085;" horiz-adv-x="360" 
d="M150 -9q-44 0 -77.5 13.5t-62.5 36.5l62 75q23 -17 43 -24.5t37 -7.5q22 0 35.5 8t13.5 25q0 28 -42 28q-11 0 -26.5 -2.5t-26.5 -7.5l-45 35l64 174h206l-21 -87h-125l-14 -41q5 1 14 1h11q51 0 81 -24t30 -69q0 -60 -42.5 -96.5t-114.5 -36.5z" />
    <glyph glyph-name="sixinferior" unicode="&#x2086;" horiz-adv-x="360" 
d="M301 243q-17 12 -30 15.5t-31 3.5q-34 0 -50.5 -17.5t-25.5 -39.5q16 7 31.5 10.5t36.5 3.5q45 0 72.5 -26t27.5 -68q0 -34 -12 -59t-33 -41.5t-48.5 -25t-57.5 -8.5q-37 0 -62.5 12t-41.5 32t-23 45.5t-7 53.5q0 38 12 77t37 70.5t62 51.5t88 20q33 0 60 -9t50 -26z
M195 145q-12 0 -24.5 -4t-20.5 -9q-1 -4 -1 -10q0 -19 10 -31t28 -12q15 0 29.5 9t14.5 30q0 14 -9.5 20.5t-26.5 6.5z" />
    <glyph glyph-name="seveninferior" unicode="&#x2087;" horiz-adv-x="360" 
d="M39 1q36 66 77 128t89 123h-149l18 92h272l-16 -84q-48 -60 -90.5 -125t-78.5 -134h-122z" />
    <glyph glyph-name="eightinferior" unicode="&#x2088;" horiz-adv-x="360" 
d="M219 113q0 10 -8 19t-28 17q-21 -5 -40 -16.5t-19 -31.5q0 -11 9.5 -20.5t31.5 -9.5q21 0 37.5 10t16.5 32zM165 242q0 -19 28 -31q17 5 31 13t14 26q0 9 -7 17t-24 8q-16 0 -29 -7.5t-13 -25.5zM339 266q0 -29 -12.5 -48t-45.5 -38q23 -19 29 -36.5t6 -34.5
q0 -24 -11 -45t-31.5 -37.5t-50.5 -26t-69 -9.5q-38 0 -64 8.5t-42.5 22.5t-24 31.5t-7.5 35.5q0 36 23 60.5t59 41.5q-12 11 -20 25.5t-8 33.5q0 45 37.5 74t103.5 29q33 0 57.5 -8t40 -20.5t23 -28t7.5 -30.5z" />
    <glyph glyph-name="nineinferior" unicode="&#x2089;" horiz-adv-x="360" 
d="M69 104q20 -14 39.5 -18t40.5 -4q32 0 49 18t20 39q-16 -7 -31 -10.5t-36 -3.5q-48 0 -74.5 28.5t-26.5 74.5q0 31 13 54.5t34 39.5t47.5 23.5t53.5 7.5q34 0 60 -11.5t43 -31.5t25.5 -46t8.5 -54q0 -38 -10 -77t-32.5 -70.5t-59.5 -51.5t-90 -20q-65 0 -113 34zM187 199
q12 0 24.5 4t20.5 9q1 3 1 9q0 19 -11 31.5t-29 12.5q-14 0 -28 -8t-14 -28q0 -17 10 -23.5t26 -6.5z" />
    <glyph glyph-name="afii61289" unicode="&#x2113;" horiz-adv-x="466" 
d="M133 437q0 71 9.5 119.5t28 78t45 42.5t61.5 13q51 0 84 -37.5t33 -106.5q0 -91 -48 -172.5t-136 -163.5v-20q0 -41 6 -66.5t16.5 -39.5t25 -19.5t31.5 -5.5q32 0 61.5 16.5t45.5 39.5l19 -20l21 -18q-27 -40 -65.5 -63t-90.5 -23q-70 0 -108 39.5t-38 127.5
q-13 -10 -24.5 -18l-24.5 -17q-5 11 -11.5 22l-13.5 22q19 13 37 27.5l36 30.5v212zM210 289q54 60 85.5 123.5t31.5 132.5q0 48 -16 67.5t-38 19.5q-26 0 -44.5 -33t-18.5 -109v-201z" />
    <glyph glyph-name="estimated" unicode="&#x212e;" horiz-adv-x="887" 
d="M227 138q0 -13 9 -22q48 -51 110 -79t135 -28q79 0 145 32.5t114 86.5h57q-26 -32 -60.5 -57.5t-75.5 -43.5t-87 -28t-94 -10q-83 0 -156 28.5t-127 77t-85.5 114t-31.5 140.5t31.5 140.5t85.5 114.5t127 77.5t156 28.5t156.5 -28.5t128 -77.5t86 -114.5t31.5 -140.5v-10
h-650q-5 0 -5 -4v-197zM730 358q4 0 4 7v197q0 13 -9 24q-48 48 -110 75t-134 27q-71 0 -134 -29t-110 -77q-5 -4 -7.5 -10.5t-2.5 -13.5v-193q0 -7 5 -7h498z" />
    <glyph glyph-name="onethird" unicode="&#x2153;" horiz-adv-x="925" 
d="M192 524q-18 -8 -33 -15.5t-33 -14.5l-37 80l136 63h103l-66 -343h-114zM638 630h142l-485 -630h-146zM826 207q73 -27 73 -93q0 -53 -40.5 -88t-109.5 -35q-25 0 -44.5 2.5t-36 7.5t-31.5 13t-30 20l51 77q24 -17 46.5 -22.5t40.5 -5.5q27 0 39.5 10.5t12.5 23.5
q0 17 -11.5 24t-28.5 7q-10 0 -19.5 -2.5l-16.5 -4.5l-23 46l98 70h-124l18 87h240l-16 -71z" />
    <glyph glyph-name="twothirds" unicode="&#x2154;" horiz-adv-x="925" 
d="M108 349q8 40 34.5 67t67.5 52l52.5 32t22.5 30q0 21 -24 21q-17 0 -37.5 -7.5t-43.5 -24.5l-50 72q71 55 150 55q54 0 88 -24t34 -72q0 -23 -8 -41t-21.5 -33t-31 -27.5t-35.5 -22.5l-33 -19.5l-29 -18.5h133l-18 -94h-261zM689 630h142l-485 -630h-146zM826 207
q73 -27 73 -93q0 -53 -40.5 -88t-109.5 -35q-25 0 -44.5 2.5t-36 7.5t-31.5 13t-30 20l51 77q24 -17 46.5 -22.5t40.5 -5.5q27 0 39.5 10.5t12.5 23.5q0 17 -11.5 24t-28.5 7q-10 0 -19.5 -2.5l-16.5 -4.5l-23 46l98 70h-124l18 87h240l-16 -71z" />
    <glyph glyph-name="oneeighth" unicode="&#x215b;" horiz-adv-x="925" 
d="M192 524q-18 -8 -33 -15.5t-33 -14.5l-37 80l136 63h103l-66 -343h-114zM643 630h142l-485 -630h-146zM793 113q0 10 -8 19t-28 17q-21 -5 -40 -16.5t-19 -31.5q0 -11 9.5 -20.5t31.5 -9.5q21 0 37.5 10t16.5 32zM739 242q0 -19 28 -31q17 5 31 13t14 26q0 9 -7 17t-24 8
q-16 0 -29 -7.5t-13 -25.5zM913 266q0 -29 -12.5 -48t-45.5 -38q23 -19 29 -36.5t6 -34.5q0 -24 -11 -45t-31.5 -37.5t-50.5 -26t-69 -9.5q-38 0 -64 8.5t-42.5 22.5t-24 31.5t-7.5 35.5q0 36 23 60.5t59 41.5q-12 11 -20 25.5t-8 33.5q0 45 37.5 74t103.5 29q33 0 57.5 -8
t40 -20.5t23 -28t7.5 -30.5z" />
    <glyph glyph-name="threeeighths" unicode="&#x215c;" horiz-adv-x="925" 
d="M301 500q73 -27 73 -93q0 -53 -40.5 -88t-109.5 -35q-25 0 -44.5 2.5t-36 7.5t-31.5 13t-30 20l51 77q24 -17 46.5 -22.5t40.5 -5.5q27 0 39.5 10.5t12.5 23.5q0 17 -11.5 24t-28.5 7q-10 0 -19.5 -2.5l-16.5 -4.5l-23 46l98 70h-124l18 87h240l-16 -71zM672 630h142
l-485 -630h-146zM793 113q0 10 -8 19t-28 17q-21 -5 -40 -16.5t-19 -31.5q0 -11 9.5 -20.5t31.5 -9.5q21 0 37.5 10t16.5 32zM739 242q0 -19 28 -31q17 5 31 13t14 26q0 9 -7 17t-24 8q-16 0 -29 -7.5t-13 -25.5zM913 266q0 -29 -12.5 -48t-45.5 -38q23 -19 29 -36.5
t6 -34.5q0 -24 -11 -45t-31.5 -37.5t-50.5 -26t-69 -9.5q-38 0 -64 8.5t-42.5 22.5t-24 31.5t-7.5 35.5q0 36 23 60.5t59 41.5q-12 11 -20 25.5t-8 33.5q0 45 37.5 74t103.5 29q33 0 57.5 -8t40 -20.5t23 -28t7.5 -30.5z" />
    <glyph glyph-name="fiveeighths" unicode="&#x215d;" horiz-adv-x="925" 
d="M224 284q-44 0 -77.5 13.5t-62.5 36.5l62 75q23 -17 43 -24.5t37 -7.5q22 0 35.5 8t13.5 25q0 28 -42 28q-11 0 -26.5 -2.5t-26.5 -7.5l-45 35l64 174h206l-21 -87h-125l-14 -41q5 1 14 1h11q51 0 81 -24t30 -69q0 -60 -42.5 -96.5t-114.5 -36.5zM671 630h142l-485 -630
h-146zM793 113q0 10 -8 19t-28 17q-21 -5 -40 -16.5t-19 -31.5q0 -11 9.5 -20.5t31.5 -9.5q21 0 37.5 10t16.5 32zM739 242q0 -19 28 -31q17 5 31 13t14 26q0 9 -7 17t-24 8q-16 0 -29 -7.5t-13 -25.5zM913 266q0 -29 -12.5 -48t-45.5 -38q23 -19 29 -36.5t6 -34.5
q0 -24 -11 -45t-31.5 -37.5t-50.5 -26t-69 -9.5q-38 0 -64 8.5t-42.5 22.5t-24 31.5t-7.5 35.5q0 36 23 60.5t59 41.5q-12 11 -20 25.5t-8 33.5q0 45 37.5 74t103.5 29q33 0 57.5 -8t40 -20.5t23 -28t7.5 -30.5z" />
    <glyph glyph-name="seveneighths" unicode="&#x215e;" horiz-adv-x="925" 
d="M113 294q36 66 77 128t89 123h-149l18 92h272l-16 -84q-48 -60 -90.5 -125t-78.5 -134h-122zM643 630h142l-485 -630h-146zM793 113q0 10 -8 19t-28 17q-21 -5 -40 -16.5t-19 -31.5q0 -11 9.5 -20.5t31.5 -9.5q21 0 37.5 10t16.5 32zM739 242q0 -19 28 -31q17 5 31 13
t14 26q0 9 -7 17t-24 8q-16 0 -29 -7.5t-13 -25.5zM913 266q0 -29 -12.5 -48t-45.5 -38q23 -19 29 -36.5t6 -34.5q0 -24 -11 -45t-31.5 -37.5t-50.5 -26t-69 -9.5q-38 0 -64 8.5t-42.5 22.5t-24 31.5t-7.5 35.5q0 36 23 60.5t59 41.5q-12 11 -20 25.5t-8 33.5q0 45 37.5 74
t103.5 29q33 0 57.5 -8t40 -20.5t23 -28t7.5 -30.5z" />
    <glyph glyph-name="onefifth" unicode="&#x2155;" horiz-adv-x="925" 
d="M192 524q-18 -8 -33 -15.5t-33 -14.5l-37 80l136 63h103l-66 -343h-114zM651 630h142l-485 -630h-146zM739 -9q-44 0 -77.5 13.5t-62.5 36.5l62 75q23 -17 43 -24.5t37 -7.5q22 0 35.5 8t13.5 25q0 28 -42 28q-11 0 -26.5 -2.5t-26.5 -7.5l-45 35l64 174h206l-21 -87
h-125l-14 -41q5 1 14 1h11q51 0 81 -24t30 -69q0 -60 -42.5 -96.5t-114.5 -36.5z" />
    <glyph glyph-name="twofifths" unicode="&#x2156;" horiz-adv-x="925" 
d="M108 349q8 40 34.5 67t67.5 52l52.5 32t22.5 30q0 21 -24 21q-17 0 -37.5 -7.5t-43.5 -24.5l-50 72q71 55 150 55q54 0 88 -24t34 -72q0 -23 -8 -41t-21.5 -33t-31 -27.5t-35.5 -22.5l-33 -19.5l-29 -18.5h133l-18 -94h-261zM696 630h142l-485 -630h-146zM739 -9
q-44 0 -77.5 13.5t-62.5 36.5l62 75q23 -17 43 -24.5t37 -7.5q22 0 35.5 8t13.5 25q0 28 -42 28q-11 0 -26.5 -2.5t-26.5 -7.5l-45 35l64 174h206l-21 -87h-125l-14 -41q5 1 14 1h11q51 0 81 -24t30 -69q0 -60 -42.5 -96.5t-114.5 -36.5z" />
    <glyph glyph-name="threefifths" unicode="&#x2157;" horiz-adv-x="925" 
d="M301 500q73 -27 73 -93q0 -53 -40.5 -88t-109.5 -35q-25 0 -44.5 2.5t-36 7.5t-31.5 13t-30 20l51 77q24 -17 46.5 -22.5t40.5 -5.5q27 0 39.5 10.5t12.5 23.5q0 17 -11.5 24t-28.5 7q-10 0 -19.5 -2.5l-16.5 -4.5l-23 46l98 70h-124l18 87h240l-16 -71zM678 630h142
l-485 -630h-146zM739 -9q-44 0 -77.5 13.5t-62.5 36.5l62 75q23 -17 43 -24.5t37 -7.5q22 0 35.5 8t13.5 25q0 28 -42 28q-11 0 -26.5 -2.5t-26.5 -7.5l-45 35l64 174h206l-21 -87h-125l-14 -41q5 1 14 1h11q51 0 81 -24t30 -69q0 -60 -42.5 -96.5t-114.5 -36.5z" />
    <glyph glyph-name="fourfifths" unicode="&#x2158;" horiz-adv-x="925" 
d="M107 434l182 203h121l-39 -203h35l-16 -79h-35l-11 -61h-100l11 61h-164zM271 433l19 103l-93 -103h74zM701 630h142l-485 -630h-146zM739 -9q-44 0 -77.5 13.5t-62.5 36.5l62 75q23 -17 43 -24.5t37 -7.5q22 0 35.5 8t13.5 25q0 28 -42 28q-11 0 -26.5 -2.5t-26.5 -7.5
l-45 35l64 174h206l-21 -87h-125l-14 -41q5 1 14 1h11q51 0 81 -24t30 -69q0 -60 -42.5 -96.5t-114.5 -36.5z" />
    <glyph glyph-name="onesixth" unicode="&#x2159;" horiz-adv-x="925" 
d="M192 524q-18 -8 -33 -15.5t-33 -14.5l-37 80l136 63h103l-66 -343h-114zM642 630h142l-485 -630h-146zM860 243q-17 12 -30 15.5t-31 3.5q-34 0 -50.5 -17.5t-25.5 -39.5q16 7 31.5 10.5t36.5 3.5q45 0 72.5 -26t27.5 -68q0 -34 -12 -59t-33 -41.5t-48.5 -25t-57.5 -8.5
q-37 0 -62.5 12t-41.5 32t-23 45.5t-7 53.5q0 38 12 77t37 70.5t62 51.5t88 20q33 0 60 -9t50 -26zM754 145q-12 0 -24.5 -4t-20.5 -9q-1 -4 -1 -10q0 -19 10 -31t28 -12q15 0 29.5 9t14.5 30q0 14 -9.5 20.5t-26.5 6.5z" />
    <glyph glyph-name="fivesixths" unicode="&#x215a;" horiz-adv-x="925" 
d="M224 284q-44 0 -77.5 13.5t-62.5 36.5l62 75q23 -17 43 -24.5t37 -7.5q22 0 35.5 8t13.5 25q0 28 -42 28q-11 0 -26.5 -2.5t-26.5 -7.5l-45 35l64 174h206l-21 -87h-125l-14 -41q5 1 14 1h11q51 0 81 -24t30 -69q0 -60 -42.5 -96.5t-114.5 -36.5zM675 630h142l-485 -630
h-146zM860 243q-17 12 -30 15.5t-31 3.5q-34 0 -50.5 -17.5t-25.5 -39.5q16 7 31.5 10.5t36.5 3.5q45 0 72.5 -26t27.5 -68q0 -34 -12 -59t-33 -41.5t-48.5 -25t-57.5 -8.5q-37 0 -62.5 12t-41.5 32t-23 45.5t-7 53.5q0 38 12 77t37 70.5t62 51.5t88 20q33 0 60 -9t50 -26z
M754 145q-12 0 -24.5 -4t-20.5 -9q-1 -4 -1 -10q0 -19 10 -31t28 -12q15 0 29.5 9t14.5 30q0 14 -9.5 20.5t-26.5 6.5z" />
    <glyph glyph-name="oneseventh" unicode="&#xf506;" horiz-adv-x="925" 
d="M192 524q-18 -8 -33 -15.5t-33 -14.5l-37 80l136 63h103l-66 -343h-114zM628 630h142l-485 -630h-146zM618 1q36 66 77 128t89 123h-149l18 92h272l-16 -84q-48 -60 -90.5 -125t-78.5 -134h-122z" />
    <glyph glyph-name="twosevenths" unicode="&#xf507;" horiz-adv-x="925" 
d="M108 349q8 40 34.5 67t67.5 52l52.5 32t22.5 30q0 21 -24 21q-17 0 -37.5 -7.5t-43.5 -24.5l-50 72q71 55 150 55q54 0 88 -24t34 -72q0 -23 -8 -41t-21.5 -33t-31 -27.5t-35.5 -22.5l-33 -19.5l-29 -18.5h133l-18 -94h-261zM674 630h142l-485 -630h-146zM618 1
q36 66 77 128t89 123h-149l18 92h272l-16 -84q-48 -60 -90.5 -125t-78.5 -134h-122z" />
    <glyph glyph-name="threesevenths" unicode="&#xf508;" horiz-adv-x="925" 
d="M301 500q73 -27 73 -93q0 -53 -40.5 -88t-109.5 -35q-25 0 -44.5 2.5t-36 7.5t-31.5 13t-30 20l51 77q24 -17 46.5 -22.5t40.5 -5.5q27 0 39.5 10.5t12.5 23.5q0 17 -11.5 24t-28.5 7q-10 0 -19.5 -2.5l-16.5 -4.5l-23 46l98 70h-124l18 87h240l-16 -71zM653 630h142
l-485 -630h-146zM618 1q36 66 77 128t89 123h-149l18 92h272l-16 -84q-48 -60 -90.5 -125t-78.5 -134h-122z" />
    <glyph glyph-name="foursevenths" unicode="&#xf509;" horiz-adv-x="925" 
d="M107 434l182 203h121l-39 -203h35l-16 -79h-35l-11 -61h-100l11 61h-164zM271 433l19 103l-93 -103h74zM673 630h142l-485 -630h-146zM618 1q36 66 77 128t89 123h-149l18 92h272l-16 -84q-48 -60 -90.5 -125t-78.5 -134h-122z" />
    <glyph glyph-name="fivesevenths" unicode="&#xf50a;" horiz-adv-x="925" 
d="M224 284q-44 0 -77.5 13.5t-62.5 36.5l62 75q23 -17 43 -24.5t37 -7.5q22 0 35.5 8t13.5 25q0 28 -42 28q-11 0 -26.5 -2.5t-26.5 -7.5l-45 35l64 174h206l-21 -87h-125l-14 -41q5 1 14 1h11q51 0 81 -24t30 -69q0 -60 -42.5 -96.5t-114.5 -36.5zM660 630h142l-485 -630
h-146zM618 1q36 66 77 128t89 123h-149l18 92h272l-16 -84q-48 -60 -90.5 -125t-78.5 -134h-122z" />
    <glyph glyph-name="sixsevenths" unicode="&#xf50b;" horiz-adv-x="925" 
d="M365 536q-17 12 -30 15.5t-31 3.5q-34 0 -50.5 -17.5t-25.5 -39.5q16 7 31.5 10.5t36.5 3.5q45 0 72.5 -26t27.5 -68q0 -34 -12 -59t-33 -41.5t-48.5 -25t-57.5 -8.5q-37 0 -62.5 12t-41.5 32t-23 45.5t-7 53.5q0 38 12 77t37 70.5t62 51.5t88 20q33 0 60 -9t50 -26z
M259 438q-12 0 -24.5 -4t-20.5 -9q-1 -4 -1 -10q0 -19 10 -31t28 -12q15 0 29.5 9t14.5 30q0 14 -9.5 20.5t-26.5 6.5zM666 630h142l-485 -630h-146zM618 1q36 66 77 128t89 123h-149l18 92h272l-16 -84q-48 -60 -90.5 -125t-78.5 -134h-122z" />
    <glyph glyph-name="oneninth" unicode="&#xf50c;" horiz-adv-x="925" 
d="M192 524q-18 -8 -33 -15.5t-33 -14.5l-37 80l136 63h103l-66 -343h-114zM635 630h142l-485 -630h-146zM648 104q20 -14 39.5 -18t40.5 -4q32 0 49 18t20 39q-16 -7 -31 -10.5t-36 -3.5q-48 0 -74.5 28.5t-26.5 74.5q0 31 13 54.5t34 39.5t47.5 23.5t53.5 7.5
q34 0 60 -11.5t43 -31.5t25.5 -46t8.5 -54q0 -38 -10 -77t-32.5 -70.5t-59.5 -51.5t-90 -20q-65 0 -113 34zM766 199q12 0 24.5 4t20.5 9q1 3 1 9q0 19 -11 31.5t-29 12.5q-14 0 -28 -8t-14 -28q0 -17 10 -23.5t26 -6.5z" />
    <glyph glyph-name="twoninths" unicode="&#xf50d;" horiz-adv-x="925" 
d="M108 349q8 40 34.5 67t67.5 52l52.5 32t22.5 30q0 21 -24 21q-17 0 -37.5 -7.5t-43.5 -24.5l-50 72q71 55 150 55q54 0 88 -24t34 -72q0 -23 -8 -41t-21.5 -33t-31 -27.5t-35.5 -22.5l-33 -19.5l-29 -18.5h133l-18 -94h-261zM680 630h142l-485 -630h-146zM648 104
q20 -14 39.5 -18t40.5 -4q32 0 49 18t20 39q-16 -7 -31 -10.5t-36 -3.5q-48 0 -74.5 28.5t-26.5 74.5q0 31 13 54.5t34 39.5t47.5 23.5t53.5 7.5q34 0 60 -11.5t43 -31.5t25.5 -46t8.5 -54q0 -38 -10 -77t-32.5 -70.5t-59.5 -51.5t-90 -20q-65 0 -113 34zM766 199
q12 0 24.5 4t20.5 9q1 3 1 9q0 19 -11 31.5t-29 12.5q-14 0 -28 -8t-14 -28q0 -17 10 -23.5t26 -6.5z" />
    <glyph glyph-name="fourninths" unicode="&#xf50e;" horiz-adv-x="925" 
d="M107 434l182 203h121l-39 -203h35l-16 -79h-35l-11 -61h-100l11 61h-164zM271 433l19 103l-93 -103h74zM684 630h142l-485 -630h-146zM648 104q20 -14 39.5 -18t40.5 -4q32 0 49 18t20 39q-16 -7 -31 -10.5t-36 -3.5q-48 0 -74.5 28.5t-26.5 74.5q0 31 13 54.5t34 39.5
t47.5 23.5t53.5 7.5q34 0 60 -11.5t43 -31.5t25.5 -46t8.5 -54q0 -38 -10 -77t-32.5 -70.5t-59.5 -51.5t-90 -20q-65 0 -113 34zM766 199q12 0 24.5 4t20.5 9q1 3 1 9q0 19 -11 31.5t-29 12.5q-14 0 -28 -8t-14 -28q0 -17 10 -23.5t26 -6.5z" />
    <glyph glyph-name="fiveninths" unicode="&#xf50f;" horiz-adv-x="925" 
d="M224 284q-44 0 -77.5 13.5t-62.5 36.5l62 75q23 -17 43 -24.5t37 -7.5q22 0 35.5 8t13.5 25q0 28 -42 28q-11 0 -26.5 -2.5t-26.5 -7.5l-45 35l64 174h206l-21 -87h-125l-14 -41q5 1 14 1h11q51 0 81 -24t30 -69q0 -60 -42.5 -96.5t-114.5 -36.5zM670 630h142l-485 -630
h-146zM648 104q20 -14 39.5 -18t40.5 -4q32 0 49 18t20 39q-16 -7 -31 -10.5t-36 -3.5q-48 0 -74.5 28.5t-26.5 74.5q0 31 13 54.5t34 39.5t47.5 23.5t53.5 7.5q34 0 60 -11.5t43 -31.5t25.5 -46t8.5 -54q0 -38 -10 -77t-32.5 -70.5t-59.5 -51.5t-90 -20q-65 0 -113 34z
M766 199q12 0 24.5 4t20.5 9q1 3 1 9q0 19 -11 31.5t-29 12.5q-14 0 -28 -8t-14 -28q0 -17 10 -23.5t26 -6.5z" />
    <glyph glyph-name="sevenninths" unicode="&#xf510;" horiz-adv-x="925" 
d="M113 294q36 66 77 128t89 123h-149l18 92h272l-16 -84q-48 -60 -90.5 -125t-78.5 -134h-122zM639 630h142l-485 -630h-146zM648 104q20 -14 39.5 -18t40.5 -4q32 0 49 18t20 39q-16 -7 -31 -10.5t-36 -3.5q-48 0 -74.5 28.5t-26.5 74.5q0 31 13 54.5t34 39.5t47.5 23.5
t53.5 7.5q34 0 60 -11.5t43 -31.5t25.5 -46t8.5 -54q0 -38 -10 -77t-32.5 -70.5t-59.5 -51.5t-90 -20q-65 0 -113 34zM766 199q12 0 24.5 4t20.5 9q1 3 1 9q0 19 -11 31.5t-29 12.5q-14 0 -28 -8t-14 -28q0 -17 10 -23.5t26 -6.5z" />
    <glyph glyph-name="eightninths" unicode="&#xf511;" horiz-adv-x="925" 
d="M298 406q0 10 -8 19t-28 17q-21 -5 -40 -16.5t-19 -31.5q0 -11 9.5 -20.5t31.5 -9.5q21 0 37.5 10t16.5 32zM244 535q0 -19 28 -31q17 5 31 13t14 26q0 9 -7 17t-24 8q-16 0 -29 -7.5t-13 -25.5zM418 559q0 -29 -12.5 -48t-45.5 -38q23 -19 29 -36.5t6 -34.5
q0 -24 -11 -45t-31.5 -37.5t-50.5 -26t-69 -9.5q-38 0 -64 8.5t-42.5 22.5t-24 31.5t-7.5 35.5q0 36 23 60.5t59 41.5q-12 11 -20 25.5t-8 33.5q0 45 37.5 74t103.5 29q33 0 57.5 -8t40 -20.5t23 -28t7.5 -30.5zM679 630h142l-485 -630h-146zM648 104q20 -14 39.5 -18
t40.5 -4q32 0 49 18t20 39q-16 -7 -31 -10.5t-36 -3.5q-48 0 -74.5 28.5t-26.5 74.5q0 31 13 54.5t34 39.5t47.5 23.5t53.5 7.5q34 0 60 -11.5t43 -31.5t25.5 -46t8.5 -54q0 -38 -10 -77t-32.5 -70.5t-59.5 -51.5t-90 -20q-65 0 -113 34zM766 199q12 0 24.5 4t20.5 9
q1 3 1 9q0 19 -11 31.5t-29 12.5q-14 0 -28 -8t-14 -28q0 -17 10 -23.5t26 -6.5z" />
    <glyph glyph-name="partialdiff" unicode="&#x2202;" horiz-adv-x="556" 
d="M146 595q42 26 92 39.5t99 13.5q45 0 86 -12t72.5 -38t50 -67t18.5 -99q0 -46 -7.5 -97t-23.5 -101t-41.5 -95.5t-62 -80t-84 -55t-108.5 -20.5q-56 0 -95.5 16.5t-64.5 44t-36 62.5t-11 71q0 54 21.5 98t57.5 76t82.5 49.5t95.5 17.5q35 0 61 -7.5t55 -23.5q2 8 3.5 18
t1.5 18q0 46 -27.5 65.5t-64.5 19.5q-29 0 -58 -9.5t-52 -20.5zM188 190q0 -31 19 -46.5t40 -15.5q48 0 82 31.5t46 105.5q-34 26 -78 26q-21 0 -40.5 -6.5t-34.5 -19t-24.5 -31.5t-9.5 -44z" />
    <glyph glyph-name="Delta" unicode="&#x2206;" horiz-adv-x="663" 
d="M35 138l319 529h167l112 -529l-26 -138h-598zM461 151l-59 344l-186 -344h245z" />
    <glyph glyph-name="product" unicode="&#x220f;" horiz-adv-x="736" 
d="M186 513h-103l30 157h706l-30 -157h-102l-125 -637h-170l125 637h-161l-125 -637h-170z" />
    <glyph glyph-name="summation" unicode="&#x2211;" horiz-adv-x="572" 
d="M15 25l216 255l-119 241l29 149h502l-30 -150h-312l120 -248l-207 -245h305l-31 -151h-502z" />
    <glyph glyph-name="uni2126" unicode="&#x2126;" horiz-adv-x="751" 
d="M39 148h123q-37 42 -53 92.5t-16 97.5q0 70 27 133t75 111t114.5 76t145.5 28q70 0 125 -24t92 -62.5t56.5 -87t19.5 -97.5q0 -74 -35 -143.5t-115 -123.5h120l-28 -148h-292l28 149q34 15 61 40.5t46 57t29.5 65t10.5 65.5q0 29 -7.5 55.5t-24 46.5t-41.5 31.5t-59 11.5
q-45 0 -80 -17.5t-59 -46t-36.5 -66t-12.5 -76.5q0 -46 17 -90t55 -77l-28 -149h-286z" />
    <glyph glyph-name="minus" unicode="&#x2212;" 
d="M131 381h383l-26 -130h-383z" />
    <glyph glyph-name="uni2215" unicode="&#x2215;" horiz-adv-x="205" 
d="M309 630h142l-485 -630h-146z" />
    <glyph glyph-name="uni2219" unicode="&#x2219;" horiz-adv-x="250" 
d="M105 428h142l-27 -136h-142z" />
    <glyph glyph-name="radical" unicode="&#x221a;" horiz-adv-x="619" 
d="M140 257h-84l30 159h180l51 -187l255 503h172l-384 -732h-144z" />
    <glyph glyph-name="infinity" unicode="&#x221e;" horiz-adv-x="689" 
d="M429 315q0 -34 16 -55.5t41 -21.5q19 0 33.5 9t25 23.5t16 31.5t5.5 33q0 23 -12 40t-38 17t-49.5 -21.5t-37.5 -55.5zM394 430q29 37 69.5 58t81.5 21q28 0 55 -10t48.5 -29.5t34.5 -49t13 -68.5q0 -57 -18 -100.5t-47.5 -72.5t-68 -44t-79.5 -15q-80 0 -132 78
q-29 -37 -69.5 -58t-81.5 -21q-28 0 -55 10t-48.5 29.5t-34.5 49t-13 68.5q0 57 18 100.5t47.5 72.5t68 44t79.5 15q80 0 132 -78zM316 313q0 34 -16 55.5t-41 21.5q-19 0 -33.5 -9t-25 -23.5t-16 -31.5t-5.5 -33q0 -23 12 -40t38 -17t49.5 21.5t37.5 55.5z" />
    <glyph glyph-name="integral" unicode="&#x222b;" horiz-adv-x="544" 
d="M333 97q-21 -110 -70 -164.5t-145 -54.5q-26 0 -47 3t-39.5 9.5t-36 17.5t-35.5 26l80 101q17 -13 30.5 -18t27.5 -5q29 0 47 21t25 58l72 375q42 219 215 219q26 0 47 -3t39.5 -9.5t36 -17.5t35.5 -26l-80 -101q-17 13 -30.5 18t-27.5 5q-29 0 -47 -21t-25 -58z" />
    <glyph glyph-name="approxequal" unicode="&#x2248;" horiz-adv-x="541" 
d="M224 182q-51 0 -91 -45l-50 99q34 38 70 58.5t78 20.5q21 0 39 -6.5t35.5 -14t34.5 -13.5t36 -6q51 0 92 45l50 -99q-34 -38 -70.5 -59t-77.5 -21q-20 0 -38.5 6.5t-36 14t-35 14t-36.5 6.5zM233 372q-52 0 -92 -45l-50 99q34 38 70.5 58.5t77.5 20.5q21 0 39.5 -6.5
t35.5 -14t34.5 -13.5t36.5 -6q50 0 91 45l50 -99q-34 -38 -70 -59t-78 -21q-20 0 -38 6.5t-35.5 14t-35 14t-36.5 6.5z" />
    <glyph glyph-name="notequal" unicode="&#x2260;" 
d="M144 144h-55l26 130h121l47 68h-157l26 130h223l73 104l74 -45l-42 -59h55l-26 -130h-120l-48 -68h157l-26 -130h-222l-76 -108l-74 45z" />
    <glyph glyph-name="lessequal" unicode="&#x2264;" 
d="M136 435l366 183l54 -117l-256 -116l205 -117l-78 -119l-310 189zM90 131h383l-26 -130h-383z" />
    <glyph glyph-name="greaterequal" unicode="&#x2265;" 
d="M511 334l-366 -183l-53 120l256 116l-205 117l77 116l310 -189zM80 131h383l-26 -130h-383z" />
    <glyph glyph-name="lozenge" unicode="&#x25ca;" horiz-adv-x="568" 
d="M187 0l-125 336l255 335h134l125 -335l-255 -336h-134zM413 336l-61 176l-127 -176l58 -177z" />
    <glyph glyph-name="fi" unicode="&#xf001;" horiz-adv-x="585" 
d="M418 685q23 0 49 -3t51.5 -9.5t50 -16.5t44.5 -24l-77 -109q-25 14 -53.5 24t-66.5 10q-35 0 -63 -15t-35 -51l-4 -21h285l-91 -470h-162l66 343h-122l-67 -343h-162l67 343h-70l24 127h70l4 21q18 95 87 144.5t175 49.5z" />
    <glyph glyph-name="fl" unicode="&#xf002;" horiz-adv-x="582" 
d="M452 549q-18 7 -43 7q-30 0 -57 -15t-34 -50l-4 -21h76l-24 -127h-76l-67 -343h-162l67 343h-70l24 127h70l4 21q18 95 87 144.5t175 49.5q53 0 105.5 -11.5t106.5 -41.5l-122 -632h-162z" />
    <glyph glyph-name="zero.alt" unicode="&#xf800;" horiz-adv-x="564" 
d="M257 -16q-47 0 -84 16.5t-63 46.5t-40 72t-14 93q0 39 6.5 86t21.5 95.5t39 94.5t58.5 81.5t80 57t104.5 21.5q48 0 86.5 -16.5t65.5 -46.5t41 -72t14 -93q0 -42 -6.5 -91t-22 -97.5t-39.5 -93t-59.5 -79t-82 -55t-106.5 -20.5zM215 231q0 -51 17 -74t46 -23
q35 0 60.5 27t42.5 67t25.5 86.5t8.5 86.5q0 51 -17 74t-46 23q-36 0 -61.5 -27t-42.5 -67t-25 -86.5t-8 -86.5z" />
    <glyph glyph-name="one.alt" unicode="&#xf801;" horiz-adv-x="465" 
d="M80 140h108l60 306l-98 -52l-58 120l212 116h137l-96 -490h105l-26 -140h-370z" />
    <glyph glyph-name="two.alt" unicode="&#xf802;" horiz-adv-x="519" 
d="M32 80q8 43 25.5 78t42.5 64t58 54t73 49l51 31t44.5 30t31.5 31.5t12 36.5q0 25 -17 38t-44 13q-32 0 -61.5 -16t-60.5 -52l-107 85q21 27 46 50.5t56 40t69 26t85 9.5t84.5 -14t63 -37t39 -52t13.5 -60q0 -39 -8 -68.5t-26 -54t-46.5 -47t-69.5 -47.5l-45 -26.5
t-48 -30t-42 -32.5t-28 -34h247l-28 -145h-425z" />
    <glyph glyph-name="three.alt" unicode="&#xf803;" horiz-adv-x="534" 
d="M370 378q57 -18 91.5 -63t34.5 -108q0 -48 -17.5 -89t-50.5 -70.5t-80 -46.5t-105 -17q-79 0 -135 22.5t-100 63.5l88 116q38 -32 70 -46.5t69 -14.5q46 0 72 24t26 62q0 14 -4.5 28t-13.5 25t-23.5 17.5t-34.5 6.5q-21 0 -35.5 -3t-28.5 -8l-35 65l178 149h-219l27 139
h404l-23 -116z" />
    <glyph glyph-name="four.alt" unicode="&#xf804;" horiz-adv-x="553" 
d="M51 229l337 401h165l-75 -388h60l-26 -130h-60l-21 -112h-149l21 112h-276zM329 242l37 191l-162 -191h125z" />
    <glyph glyph-name="five.alt" unicode="&#xf805;" horiz-adv-x="501" 
d="M222 -16q-77 0 -128 20.5t-93 58.5l87 115q35 -29 64 -40.5t64 -11.5q42 0 69.5 23.5t27.5 73.5q0 40 -24.5 56t-59.5 16q-46 0 -81 -20l-58 53l98 302h341l-28 -139h-230l-26 -89q15 2 29 3.5t28 1.5q41 0 73.5 -14t54.5 -38t33.5 -57t11.5 -71q0 -53 -18 -97.5t-51 -77
t-79.5 -50.5t-104.5 -18z" />
    <glyph glyph-name="six.alt" unicode="&#xf806;" horiz-adv-x="541" 
d="M493 472q-26 19 -47.5 27t-54.5 8q-44 0 -82.5 -29.5t-55.5 -81.5q24 10 49 14t50 4q39 0 71 -14.5t55 -39.5t35.5 -58t12.5 -69q0 -62 -19.5 -108.5t-52.5 -78t-77.5 -47t-93.5 -15.5q-57 0 -98 19t-68 51.5t-40 74.5t-13 89q0 48 9 98.5t27 98t46 90t65 74.5t84.5 50.5
t105.5 18.5q55 0 97.5 -14.5t74.5 -42.5zM219 263q-8 -27 -8 -53q0 -17 4.5 -33t14.5 -28.5t25 -20t35 -7.5q16 0 32 5.5t28.5 17.5t20.5 30.5t8 45.5q0 32 -20 53t-52 21q-29 0 -51.5 -9t-36.5 -22z" />
    <glyph glyph-name="seven.alt" unicode="&#xf807;" horiz-adv-x="488" 
d="M48 0q28 58 66.5 127.5l79.5 137.5l80.5 127.5t70.5 97.5h-258l28 140h431l-26 -132q-53 -70 -95.5 -134.5t-78.5 -125.5t-66.5 -120l-60.5 -118h-171z" />
    <glyph glyph-name="eight.alt" unicode="&#xf808;" horiz-adv-x="578" 
d="M580 494q0 -54 -29 -92.5t-88 -70.5q37 -26 57.5 -59t20.5 -84q0 -38 -16 -74t-49 -65t-82.5 -46.5t-116.5 -17.5q-63 0 -107 16t-72 42t-40.5 57.5t-12.5 63.5q0 37 11 64.5t30.5 49.5t46 39t56.5 33q-29 31 -39 58t-10 61t15.5 66t45 57t72.5 40.5t98 15.5
q58 0 97.5 -15t64.5 -37.5t36 -49.5t11 -52zM282 460q0 -21 15 -40t48 -35q16 4 32 11t28 17.5t19.5 25.5t7.5 36q0 20 -17.5 38.5t-48.5 18.5q-14 0 -29 -3.5t-27 -12t-20 -22t-8 -34.5zM381 193q0 22 -14.5 43.5t-55.5 39.5q-18 -5 -35 -13t-30.5 -20t-21.5 -28t-8 -38
q0 -23 19.5 -43t53.5 -20q16 0 32 4t29.5 13t22 24t8.5 38z" />
    <glyph glyph-name="nine.alt" unicode="&#xf809;" horiz-adv-x="535" 
d="M102 162q29 -21 56 -29t62 -8q49 0 79.5 29.5t41.5 82.5q-47 -19 -94 -19q-39 0 -71 13.5t-54.5 37t-35 55.5t-12.5 68q0 62 19 109.5t52 80t76.5 49.5t93.5 17q57 0 98 -19t67.5 -51.5t39 -75t12.5 -88.5q0 -48 -6.5 -98.5t-21.5 -98t-39.5 -90t-60.5 -74.5t-84 -50.5
t-110 -18.5q-55 0 -97.5 13.5t-80.5 42.5zM379 370q4 13 6 25.5t2 26.5q0 17 -5 33t-14.5 28.5t-24.5 20t-35 7.5q-16 0 -31.5 -5.5t-28 -17.5t-20 -30.5t-7.5 -45.5q0 -32 19.5 -51.5t51.5 -19.5q27 0 50 8t37 21z" />
    <glyph glyph-name="zero.sups" unicode="&#xf80a;" horiz-adv-x="360" 
d="M212 374q-34 0 -59.5 10.5t-42.5 29t-25.5 43.5t-8.5 53q0 50 15.5 91.5t41.5 71.5t60 46.5t72 16.5q34 0 59 -10.5t42 -29t25.5 -43.5t8.5 -53q0 -51 -15.5 -92.5t-41 -71t-60 -46t-71.5 -16.5zM220 468q12 0 24.5 8t23 24t17 40.5t6.5 57.5q0 22 -10 33.5t-25 11.5
q-12 0 -24.5 -8t-23 -24t-17 -40.5t-6.5 -57.5q0 -23 9.5 -34t25.5 -11z" />
    <glyph glyph-name="one.sups" unicode="&#xf80b;" horiz-adv-x="360" 
d="M217 614q-18 -8 -33 -15.5t-33 -14.5l-37 80l136 63h103l-66 -343h-114z" />
    <glyph glyph-name="two.sups" unicode="&#xf80c;" horiz-adv-x="360" 
d="M93 439q8 40 34.5 67t67.5 52l52.5 32t22.5 30q0 21 -24 21q-17 0 -37.5 -7.5t-43.5 -24.5l-50 72q71 55 150 55q54 0 88 -24t34 -72q0 -23 -8 -41t-21.5 -33t-31 -27.5t-35.5 -22.5l-33 -19.5l-29 -18.5h133l-18 -94h-261z" />
    <glyph glyph-name="three.sups" unicode="&#xf80d;" horiz-adv-x="360" 
d="M292 590q73 -27 73 -93q0 -53 -40.5 -88t-109.5 -35q-25 0 -44.5 2.5t-36 7.5t-31.5 13t-30 20l51 77q24 -17 46.5 -22.5t40.5 -5.5q27 0 39.5 10.5t12.5 23.5q0 17 -11.5 24t-28.5 7q-10 0 -19.5 -2.5l-16.5 -4.5l-23 46l98 70h-124l18 87h240l-16 -71z" />
    <glyph glyph-name="four.sups" unicode="&#xf80e;" horiz-adv-x="360" 
d="M83 524l182 203h121l-39 -203h35l-16 -79h-35l-11 -61h-100l11 61h-164zM247 523l19 103l-93 -103h74z" />
    <glyph glyph-name="five.sups" unicode="&#xf80f;" horiz-adv-x="360" 
d="M209 374q-44 0 -77.5 13.5t-62.5 36.5l62 75q23 -17 43 -24.5t37 -7.5q22 0 35.5 8t13.5 25q0 28 -42 28q-11 0 -26.5 -2.5t-26.5 -7.5l-45 35l64 174h206l-21 -87h-125l-14 -41q5 1 14 1h11q51 0 81 -24t30 -69q0 -60 -42.5 -96.5t-114.5 -36.5z" />
    <glyph glyph-name="six.sups" unicode="&#xf810;" horiz-adv-x="360" 
d="M343 626q-17 12 -30 15.5t-31 3.5q-34 0 -50.5 -17.5t-25.5 -39.5q16 7 31.5 10.5t36.5 3.5q45 0 72.5 -26t27.5 -68q0 -34 -12 -59t-33 -41.5t-48.5 -25t-57.5 -8.5q-37 0 -62.5 12t-41.5 32t-23 45.5t-7 53.5q0 38 12 77t37 70.5t62 51.5t88 20q33 0 60 -9t50 -26z
M237 528q-12 0 -24.5 -4t-20.5 -9q-1 -4 -1 -10q0 -19 10 -31t28 -12q15 0 29.5 9t14.5 30q0 14 -9.5 20.5t-26.5 6.5z" />
    <glyph glyph-name="seven.sups" unicode="&#xf811;" horiz-adv-x="360" 
d="M98 384q36 66 77 128t89 123h-149l18 92h272l-16 -84q-48 -60 -90.5 -125t-78.5 -134h-122z" />
    <glyph glyph-name="eight.sups" unicode="&#xf812;" horiz-adv-x="360" 
d="M280 496q0 10 -8 19t-28 17q-21 -5 -40 -16.5t-19 -31.5q0 -11 9.5 -20.5t31.5 -9.5q21 0 37.5 10t16.5 32zM226 625q0 -19 28 -31q17 5 31 13t14 26q0 9 -7 17t-24 8q-16 0 -29 -7.5t-13 -25.5zM400 649q0 -29 -12.5 -48t-45.5 -38q23 -19 29 -36.5t6 -34.5
q0 -24 -11 -45t-31.5 -37.5t-50.5 -26t-69 -9.5q-38 0 -64 8.5t-42.5 22.5t-24 31.5t-7.5 35.5q0 36 23 60.5t59 41.5q-12 11 -20 25.5t-8 33.5q0 45 37.5 74t103.5 29q33 0 57.5 -8t40 -20.5t23 -28t7.5 -30.5z" />
    <glyph glyph-name="nine.sups" unicode="&#xf813;" horiz-adv-x="360" 
d="M122 487q20 -14 39.5 -18t40.5 -4q32 0 49 18t20 39q-16 -7 -31 -10.5t-36 -3.5q-48 0 -74.5 28.5t-26.5 74.5q0 31 13 54.5t34 39.5t47.5 23.5t53.5 7.5q34 0 60 -11.5t43 -31.5t25.5 -46t8.5 -54q0 -38 -10 -77t-32.5 -70.5t-59.5 -51.5t-90 -20q-65 0 -113 34z
M240 582q12 0 24.5 4t20.5 9q1 3 1 9q0 19 -11 31.5t-29 12.5q-14 0 -28 -8t-14 -28q0 -17 10 -23.5t26 -6.5z" />
    <glyph glyph-name="zero.sinf" unicode="&#xf814;" horiz-adv-x="360" 
d="M146 -99q-34 0 -59.5 10.5t-42.5 29t-25.5 43.5t-8.5 53q0 50 15.5 91.5t41.5 71.5t60 46.5t72 16.5q34 0 59 -10.5t42 -29t25.5 -43.5t8.5 -53q0 -51 -15.5 -92.5t-41 -71t-60 -46t-71.5 -16.5zM154 -5q12 0 24.5 8t23 24t17 40.5t6.5 57.5q0 22 -10 33.5t-25 11.5
q-12 0 -24.5 -8t-23 -24t-17 -40.5t-6.5 -57.5q0 -23 9.5 -34t25.5 -11z" />
    <glyph glyph-name="one.sinf" unicode="&#xf815;" horiz-adv-x="360" 
d="M157 141q-18 -8 -33 -15.5t-33 -14.5l-37 80l136 63h103l-66 -343h-114z" />
    <glyph glyph-name="two.sinf" unicode="&#xf816;" horiz-adv-x="360" 
d="M34 -34q8 40 34.5 67t67.5 52l52.5 32t22.5 30q0 21 -24 21q-17 0 -37.5 -7.5t-43.5 -24.5l-50 72q71 55 150 55q54 0 88 -24t34 -72q0 -23 -8 -41t-21.5 -33t-31 -27.5t-35.5 -22.5l-33 -19.5l-29 -18.5h133l-18 -94h-261z" />
    <glyph glyph-name="three.sinf" unicode="&#xf817;" horiz-adv-x="360" 
d="M217 117q73 -27 73 -93q0 -53 -40.5 -88t-109.5 -35q-25 0 -44.5 2.5t-36 7.5t-31.5 13t-30 20l51 77q24 -17 46.5 -22.5t40.5 -5.5q27 0 39.5 10.5t12.5 23.5q0 17 -11.5 24t-28.5 7q-10 0 -19.5 -2.5l-16.5 -4.5l-23 46l98 70h-124l18 87h240l-16 -71z" />
    <glyph glyph-name="four.sinf" unicode="&#xf818;" horiz-adv-x="360" 
d="M13 51l182 203h121l-39 -203h35l-16 -79h-35l-11 -61h-100l11 61h-164zM177 50l19 103l-93 -103h74z" />
    <glyph glyph-name="five.sinf" unicode="&#xf819;" horiz-adv-x="360" 
d="M140 -99q-44 0 -77.5 13.5t-62.5 36.5l62 75q23 -17 43 -24.5t37 -7.5q22 0 35.5 8t13.5 25q0 28 -42 28q-11 0 -26.5 -2.5t-26.5 -7.5l-45 35l64 174h206l-21 -87h-125l-14 -41q5 1 14 1h11q51 0 81 -24t30 -69q0 -60 -42.5 -96.5t-114.5 -36.5z" />
    <glyph glyph-name="six.sinf" unicode="&#xf81a;" horiz-adv-x="360" 
d="M281 153q-17 12 -30 15.5t-31 3.5q-34 0 -50.5 -17.5t-25.5 -39.5q16 7 31.5 10.5t36.5 3.5q45 0 72.5 -26t27.5 -68q0 -34 -12 -59t-33 -41.5t-48.5 -25t-57.5 -8.5q-37 0 -62.5 12t-41.5 32t-23 45.5t-7 53.5q0 38 12 77t37 70.5t62 51.5t88 20q33 0 60 -9t50 -26z
M175 55q-12 0 -24.5 -4t-20.5 -9q-1 -4 -1 -10q0 -19 10 -31t28 -12q15 0 29.5 9t14.5 30q0 14 -9.5 20.5t-26.5 6.5z" />
    <glyph glyph-name="seven.sinf" unicode="&#xf81b;" horiz-adv-x="360" 
d="M30 -89q36 66 77 128t89 123h-149l18 92h272l-16 -84q-48 -60 -90.5 -125t-78.5 -134h-122z" />
    <glyph glyph-name="eight.sinf" unicode="&#xf81c;" horiz-adv-x="360" 
d="M207 23q0 10 -8 19t-28 17q-21 -5 -40 -16.5t-19 -31.5q0 -11 9.5 -20.5t31.5 -9.5q21 0 37.5 10t16.5 32zM153 152q0 -19 28 -31q17 5 31 13t14 26q0 9 -7 17t-24 8q-16 0 -29 -7.5t-13 -25.5zM327 176q0 -29 -12.5 -48t-45.5 -38q23 -19 29 -36.5t6 -34.5
q0 -24 -11 -45t-31.5 -37.5t-50.5 -26t-69 -9.5q-38 0 -64 8.5t-42.5 22.5t-24 31.5t-7.5 35.5q0 36 23 60.5t59 41.5q-12 11 -20 25.5t-8 33.5q0 45 37.5 74t103.5 29q33 0 57.5 -8t40 -20.5t23 -28t7.5 -30.5z" />
    <glyph glyph-name="nine.sinf" unicode="&#xf81d;" horiz-adv-x="360" 
d="M60 14q20 -14 39.5 -18t40.5 -4q32 0 49 18t20 39q-16 -7 -31 -10.5t-36 -3.5q-48 0 -74.5 28.5t-26.5 74.5q0 31 13 54.5t34 39.5t47.5 23.5t53.5 7.5q34 0 60 -11.5t43 -31.5t25.5 -46t8.5 -54q0 -38 -10 -77t-32.5 -70.5t-59.5 -51.5t-90 -20q-65 0 -113 34zM178 109
q12 0 24.5 4t20.5 9q1 3 1 9q0 19 -11 31.5t-29 12.5q-14 0 -28 -8t-14 -28q0 -17 10 -23.5t26 -6.5z" />
    <glyph glyph-name="hungarumlaut.cap" horiz-adv-x="424" 
d="M408 873h155l-138 -156h-111zM213 873h156l-139 -156h-111z" />
    <glyph glyph-name="cedilla.cap" horiz-adv-x="424" 
d="M62 -139q17 -6 33.5 -10t33.5 -4q27 0 42 5.5t15 21.5q0 14 -15 16.5t-29 2.5q-37 0 -69 -13l26 69q21 6 44 9t45 3q19 0 37 -5t32.5 -15t23 -24t8.5 -33q0 -32 -14.5 -54.5t-36.5 -36t-48.5 -19.5t-51.5 -6q-26 0 -53.5 4t-50.5 14z" />
    <glyph glyph-name="tilde.cap" horiz-adv-x="424" 
d="M148 804q26 25 59 44.5t75 19.5q20 0 35.5 -6.5t29.5 -14t28 -13.5t31 -6q29 0 47.5 10t38.5 27l47 -81q-23 -22 -56 -43t-77 -21q-21 0 -36.5 6t-29.5 13.5t-28 14t-31 6.5q-29 0 -47.5 -10t-38.5 -27z" />
    <glyph glyph-name="ogonek.cap" horiz-adv-x="424" 
d="M238 0q-8 -7 -19 -17.5t-21 -22t-17 -23t-7 -20.5q0 -10 6 -13.5t14 -3.5q13 0 26.5 5.5t21.5 10.5l26 -85q-20 -13 -52 -24t-70 -11q-34 0 -61 17.5t-27 55.5q0 18 7 35.5t18.5 34t26.5 32t31 29.5h97z" />
    <glyph glyph-name="ring.cap" horiz-adv-x="424" 
d="M207 817q0 30 11 54.5t30 42.5t44 28t54 10q28 0 53.5 -10t44.5 -28t30 -42.5t11 -54.5q0 -29 -11 -54t-30 -43t-44.5 -28t-53.5 -10q-29 0 -54 10t-44 28t-30 43t-11 54zM346 771q20 0 32.5 13t12.5 33t-12.5 33t-32.5 13t-32.5 -13t-12.5 -33t12.5 -33t32.5 -13z" />
    <glyph glyph-name="caron.cap" horiz-adv-x="424" 
d="M388 717h-123l-81 156h128l30 -69l57 69h131z" />
    <glyph glyph-name="macron.cap" horiz-adv-x="424" 
d="M199 852h306l-22 -114h-306z" />
    <glyph glyph-name="dieresis.cap" horiz-adv-x="424" 
d="M394 858h135l-24 -126h-135zM178 858h135l-24 -126h-135z" />
    <glyph glyph-name="dotaccent.cap" horiz-adv-x="424" 
d="M283 862h142l-26 -134h-142z" />
    <glyph glyph-name="circumflex.cap" horiz-adv-x="424" 
d="M295 873h123l81 -156h-128l-30 69l-57 -69h-131z" />
    <glyph glyph-name="acute.cap" horiz-adv-x="424" 
d="M303 873h172l-145 -156h-123z" />
    <glyph glyph-name="grave.cap" horiz-adv-x="424" 
d="M233 873h172l44 -156h-123z" />
    <glyph glyph-name="breve.cap" horiz-adv-x="424" 
d="M307 863q-1 -4 -1 -10q0 -17 10 -27t27 -10q44 0 52 47h117q-11 -73 -60.5 -111t-119.5 -38q-27 0 -52 7t-44.5 21.5t-31 36.5t-11.5 52q0 15 3 32h111z" />
    <glyph glyph-name="commaaccent.cap" horiz-adv-x="424" 
d="M119 -51h165l-122 -158h-121z" />
    <glyph glyph-name="caron.alt" horiz-adv-x="355" 
d="M210 667h130l-72 -169h-91z" />
    <glyph glyph-name="commaaccent" horiz-adv-x="424" 
d="M122 -51h153l-110 -142h-113z" />
    <glyph glyph-name="revcommaaccent" horiz-adv-x="424" 
d="M347 540h-153l110 142h113z" />
    <glyph glyph-name="Parenleft" horiz-adv-x="337" 
d="M109 -67q-3 9 -8.5 29t-11 49.5t-9 66.5t-3.5 80q0 106 24 202t55.5 172.5t62 128.5t44.5 71h165q-41 -59 -76 -126.5t-60.5 -141t-39.5 -151t-14 -155.5q0 -48 4.5 -86.5t9.5 -67.5t10 -47t7 -24h-160z" />
    <glyph glyph-name="Parenright" horiz-adv-x="337" 
d="M305 732q3 -9 8.5 -29t11 -49.5t9 -66.5t3.5 -80q0 -106 -24 -202t-55.5 -172.5t-62 -128.5t-44.5 -71h-165q41 58 76 126t60.5 141.5t39.5 151t14 155.5q0 48 -4.5 86.5t-9.5 67.5t-10.5 47t-6.5 24h160z" />
    <glyph glyph-name="Hyphen" horiz-adv-x="434" 
d="M113 412h316l-31 -158h-316z" />
    <glyph glyph-name="Slash" horiz-adv-x="454" 
d="M381 685h165l-391 -701h-167z" />
    <glyph glyph-name="At" horiz-adv-x="930" 
d="M650 -15q-84 0 -118 59q-26 -29 -58 -44.5t-77 -15.5q-28 0 -53.5 9.5t-44.5 27t-30.5 43.5t-11.5 59q0 77 59.5 124t168.5 47q23 0 41.5 -1.5t35.5 -3.5l2 10q1 4 1 11q0 27 -22 40t-54 13q-42 0 -70.5 -9.5t-55.5 -24.5l-54 97q35 24 91.5 41.5t122.5 17.5q42 0 77 -11
t60.5 -33t39.5 -54.5t14 -74.5q0 -21 -5 -49l-27 -136q-1 -5 -1.5 -8.5t-0.5 -6.5q0 -21 15 -21q13 0 29 13q47 38 68 95t21 138q0 55 -19.5 100.5t-55.5 78t-87.5 50t-116.5 17.5q-92 0 -160.5 -26t-115 -70.5t-69.5 -103t-23 -123.5q0 -57 14 -114.5t47 -112.5l-93 -54
q-24 39 -39 74.5t-24 69.5t-12.5 66.5t-3.5 66.5q0 85 31 163t92.5 137t153 94t213.5 35q84 0 154 -26t121 -71.5t79.5 -108.5t28.5 -137q0 -68 -18 -132t-53 -114t-87 -80.5t-120 -30.5zM544 202q-17 4 -45 4q-42 0 -64.5 -15t-22.5 -43q0 -45 43 -45q12 0 24.5 3
t24.5 10.5t21 20.5t13 34z" />
    <glyph glyph-name="Bracketleft" horiz-adv-x="357" 
d="M186 732h257l-25 -126h-114l-105 -545h114l-26 -128h-257z" />
    <glyph glyph-name="Backslash" horiz-adv-x="454" 
d="M402 -16h-157l-116 701h154z" />
    <glyph glyph-name="Bracketright" horiz-adv-x="357" 
d="M249 -67h-257l26 128h114l105 545h-114l25 126h257z" />
    <glyph glyph-name="Braceleft" horiz-adv-x="308" 
d="M112 215q1 4 1 8v8q0 25 -12.5 41t-44.5 16l18 90q37 0 55 21t27 52l45 160q12 45 28 73.5t43 47.5h137q-21 -18 -41.5 -51.5t-32.5 -78.5l-48 -175q-5 -18 -16 -33.5t-25.5 -27.5t-30 -20.5t-29.5 -12.5q23 -7 43.5 -30.5t20.5 -64.5v-9.5t-1 -9.5l-20 -175
q-1 -5 -1 -10v-10q0 -26 7 -51t18 -40h-135q-26 26 -26 79q0 19 3 43z" />
    <glyph glyph-name="Braceright" horiz-adv-x="308" 
d="M274 450q-1 -4 -1 -8v-8q0 -25 12.5 -41t44.5 -16l-18 -90q-37 0 -55 -21t-27 -52l-45 -160q-12 -45 -28 -73.5t-43 -47.5h-137q21 18 41.5 51.5t32.5 78.5l48 175q5 18 16 33.5t25.5 27.5t30 20.5t29.5 12.5q-23 7 -43.5 30.5t-20.5 64.5v9.5t1 9.5l20 175q1 5 1 10v10
q0 26 -7 51t-18 40h135q26 -26 26 -79q0 -19 -3 -43z" />
    <glyph glyph-name="Guilsinglleft" horiz-adv-x="360" 
d="M101 339l137 194h161l-140 -194l60 -206h-157z" />
    <glyph glyph-name="Bullet" horiz-adv-x="425" 
d="M104 333q0 31 11.5 58t31.5 47t47 31.5t58 11.5t58 -11.5t47 -31.5t32 -47t12 -58t-12 -58t-32 -47.5t-47 -32t-58 -11.5t-58 11.5t-47 32t-31.5 47.5t-11.5 58z" />
    <glyph glyph-name="Endash" horiz-adv-x="500" 
d="M58 412h500l-32 -158h-500z" />
    <glyph glyph-name="Emdash" horiz-adv-x="1000" 
d="M58 412h1000l-32 -158h-1000z" />
    <glyph glyph-name="Guilsinglright" horiz-adv-x="360" 
d="M334 327l-137 -194h-161l140 194l-60 206h157z" />
    <glyph glyph-name="Exclamdown" horiz-adv-x="297" 
d="M300 497h-164l33 170h164zM210 0h-177l95 441h159z" />
    <glyph glyph-name="Guillemotleft" horiz-adv-x="596" 
d="M101 339l137 194h161l-140 -194l60 -206h-157zM337 339l137 194h161l-140 -194l60 -206h-157z" />
    <glyph glyph-name="Guillemotright" horiz-adv-x="596" 
d="M570 327l-137 -194h-161l140 194l-60 206h157zM334 327l-137 -194h-161l140 194l-60 206h157z" />
    <glyph glyph-name="Questiondown" horiz-adv-x="523" 
d="M407 407q-10 -51 -38.5 -82t-58.5 -53.5t-53 -41.5t-23 -47q0 -26 17 -36.5t44 -10.5q36 0 67 14t57 40l93 -105q-53 -54 -112.5 -79t-133.5 -25q-42 0 -78.5 11t-64 32.5t-43.5 54t-16 75.5q0 45 18.5 81.5t54.5 66.5l40.5 31t37.5 30t29.5 31.5t16.5 36.5l2 11h151z
M431 500h-164l33 167h164z" />
    <glyph glyph-name="uni0400" unicode="&#x400;" 
d="M164 667h457l-30 -151h-287l-20 -106h236l-28 -142h-236l-22 -117h308l-29 -151h-478zM287 873h172l44 -156h-123z" />
    <glyph glyph-name="afii10023" unicode="&#x401;" 
d="M164 667h457l-30 -151h-287l-20 -106h236l-28 -142h-236l-22 -117h308l-29 -151h-478zM478 858h135l-24 -126h-135zM262 858h135l-24 -126h-135z" />
    <glyph glyph-name="afii10051" unicode="&#x402;" horiz-adv-x="743" 
d="M158 0l101 516h-169l29 151h542l-29 -151h-203l-24 -120q22 9 52 16.5t64 7.5q39 0 77.5 -12.5t68.5 -37t48.5 -62t18.5 -87.5q0 -57 -23 -99.5t-61 -71t-86.5 -43t-99.5 -14.5q-33 0 -63 6l30 137q7 -1 14 -1.5t15 -0.5q18 0 36 4.5t32 13.5t22.5 23t8.5 34
q0 19 -7.5 32t-20.5 21t-29 12t-32 4q-24 0 -47.5 -6.5t-44.5 -15.5l-50 -256h-170z" />
    <glyph glyph-name="afii10052" unicode="&#x403;" horiz-adv-x="534" 
d="M164 667h453l-29 -152h-283l-100 -515h-170zM426 873h172l-145 -156h-123z" />
    <glyph glyph-name="afii10053" unicode="&#x404;" horiz-adv-x="665" 
d="M662 119q-50 -57 -122 -96t-166 -39q-66 0 -121.5 20t-95.5 58.5t-62.5 94.5t-22.5 128q0 81 28 153.5t79 127.5t122 87.5t157 32.5q50 0 93 -13t78 -36t60.5 -55.5t39.5 -72.5l-138 -76q-21 46 -57 73t-92 27q-65 0 -111.5 -34t-69.5 -89h247l-28 -146h-237
q9 -57 44.5 -92t98.5 -35q54 0 96 25.5t77 64.5z" />
    <glyph glyph-name="afii10054" unicode="&#x405;" horiz-adv-x="570" 
d="M113 207q35 -33 76 -52t89 -19q44 0 63 16.5t19 38.5q0 13 -3.5 23.5t-14 20.5t-30.5 20.5t-52 23.5q-77 31 -119 76t-42 113q0 48 19 88t54 68.5t84.5 44.5t110.5 16q72 0 135.5 -25.5t104.5 -73.5l-107 -101q-32 35 -67 47t-64 12q-41 0 -64.5 -15t-23.5 -40
q0 -12 4 -21.5t16 -19.5t33.5 -21t56.5 -25q89 -36 125.5 -84.5t36.5 -109.5q0 -55 -20.5 -97t-57 -70t-86.5 -42.5t-108 -14.5q-80 0 -153 24.5t-123 75.5z" />
    <glyph glyph-name="afii10055" unicode="&#x406;" horiz-adv-x="289" 
d="M164 667h170l-129 -667h-170z" />
    <glyph glyph-name="afii10056" unicode="&#x407;" horiz-adv-x="289" 
d="M164 667h170l-129 -667h-170zM320 858h135l-24 -126h-135zM104 858h135l-24 -126h-135z" />
    <glyph glyph-name="afii10057" unicode="&#x408;" horiz-adv-x="521" 
d="M109 191q24 -29 51 -42.5t57 -13.5q40 0 62.5 22.5t32.5 72.5l85 437h169l-90 -467q-42 -218 -247 -218q-69 0 -124 23.5t-100 74.5z" />
    <glyph glyph-name="afii10058" unicode="&#x409;" horiz-adv-x="982" 
d="M535 509h-111l-34 -128.5t-38.5 -121t-48.5 -106t-62.5 -84t-81.5 -55.5t-106 -20q-14 0 -28.5 1.5t-29.5 3.5l29 152q5 -1 9.5 -1h9.5q46 0 81 33t64.5 98t55.5 161.5t55 224.5h433l-42 -212h67q52 0 92.5 -15t68 -42t41.5 -65t14 -83q0 -54 -20.5 -100t-56.5 -79.5
t-86.5 -52t-110.5 -18.5h-263zM663 316l-34 -176h68q52 0 79 28.5t27 69.5q0 35 -20 56.5t-62 21.5h-58z" />
    <glyph glyph-name="afii10059" unicode="&#x40a;" horiz-adv-x="971" 
d="M164 667h167l-43 -228h219l43 228h167l-44 -228h73q52 0 92.5 -14.5t68 -40.5t41.5 -62.5t14 -80.5q0 -53 -20.5 -97t-56.5 -76t-86.5 -50t-110.5 -18h-267l54 283h-219l-54 -283h-167zM645 299l-32 -166h72q51 0 77.5 27t26.5 65q0 33 -20 53.5t-62 20.5h-62z" />
    <glyph glyph-name="afii10060" unicode="&#x40b;" horiz-adv-x="759" 
d="M258 515h-168l29 152h542l-29 -152h-202l-24 -125q22 9 51 15.5t64 6.5q52 0 90 -16t63.5 -43t38 -63.5t12.5 -78.5q0 -30 -6 -60l-31 -151h-170l27 140q2 9 3 18.5t1 17.5q0 41 -23.5 63.5t-77.5 22.5q-20 0 -37.5 -3.5t-32.5 -8.5l-48 -250h-172z" />
    <glyph glyph-name="afii10061" unicode="&#x40c;" horiz-adv-x="666" 
d="M205 0h-170l130 667h170l-48 -246h23q36 0 60.5 18.5t49.5 56.5l113 171h194l-140 -206q-32 -48 -64 -73.5t-72 -39.5q36 -14 59.5 -41t38.5 -70l82 -237h-197l-57 184q-5 18 -10.5 32.5t-13.5 25t-19.5 16t-29.5 5.5h-48zM464 873h172l-145 -156h-123z" />
    <glyph glyph-name="uni040D" unicode="&#x40d;" horiz-adv-x="688" 
d="M603 0h-168l74 385l-329 -385h-145l130 667h168l-74 -375l319 375h155zM322 873h172l44 -156h-123z" />
    <glyph glyph-name="afii10062" unicode="&#x40e;" horiz-adv-x="644" 
d="M553 667h183l-344 -530q-29 -44 -56.5 -73.5t-55.5 -47.5t-57 -26t-61 -8q-51 0 -85.5 15t-61.5 36l79 125q16 -13 33.5 -22t42.5 -9q20 0 40 9t40 38l-133 493h178l65 -322zM416 863q-1 -4 -1 -10q0 -17 10 -27t27 -10q44 0 52 47h117q-11 -73 -60.5 -111t-119.5 -38
q-27 0 -52 7t-44.5 21.5t-31 36.5t-11.5 52q0 15 3 32h111z" />
    <glyph glyph-name="afii10145" unicode="&#x40f;" horiz-adv-x="682" 
d="M598 0h-207l-29 -154h-150l29 154h-206l129 667h170l-100 -514h223l100 514h170z" />
    <glyph glyph-name="afii10017" unicode="&#x410;" horiz-adv-x="680" 
d="M350 667h195l97 -667h-175l-15 140h-214l-69 -140h-183zM442 266l-25 246l-120 -246h145z" />
    <glyph glyph-name="afii10018" unicode="&#x411;" horiz-adv-x="595" 
d="M165 667h446l-28 -142h-280l-19 -100h80q105 0 160.5 -53t55.5 -138q0 -51 -20.5 -94t-56.5 -74t-86.5 -48.5t-110.5 -17.5h-271zM257 286l-29 -146h76q52 0 79 23.5t27 57.5q0 29 -20 47t-62 18h-71z" />
    <glyph glyph-name="afii10019" unicode="&#x412;" horiz-adv-x="612" 
d="M164 667h252q59 0 97 -15t60.5 -38t31.5 -51.5t9 -56.5q0 -33 -11 -59t-28.5 -44.5t-38 -30.5t-39.5 -18q15 -5 32.5 -16.5t32.5 -29.5t25 -41.5t10 -52.5q0 -59 -20 -99.5t-57.5 -66t-91.5 -37t-123 -11.5h-270zM352 397q36 0 63.5 19.5t27.5 66.5q0 26 -14.5 43
t-50.5 17h-72l-28 -146h74zM324 123q20 0 38 5t32 16t22.5 29.5t8.5 44.5q0 29 -16 48.5t-57 19.5h-96l-31 -163h99z" />
    <glyph glyph-name="afii10020" unicode="&#x413;" horiz-adv-x="534" 
d="M164 667h453l-29 -152h-283l-100 -515h-170z" />
    <glyph glyph-name="afii10021" unicode="&#x414;" horiz-adv-x="721" 
d="M738 667l-102 -519h69l-58 -302h-150l30 154h-386l-30 -154h-150l58 302h62q74 94 129 219t93 300h435zM549 519h-131q-28 -106 -66 -200t-94 -171h218z" />
    <glyph glyph-name="afii10022" unicode="&#x415;" 
d="M164 667h457l-30 -151h-287l-20 -106h236l-28 -142h-236l-22 -117h308l-29 -151h-478z" />
    <glyph glyph-name="afii10024" unicode="&#x416;" horiz-adv-x="937" 
d="M529 0h-166l52 265h-23q-29 0 -49 -23t-41 -58l-110 -184h-202l154 239q33 52 63 75.5t60 33.5q-24 14 -43.5 40.5t-29.5 70.5l-47 208h182l33 -171q8 -38 22.5 -57.5t44.5 -19.5h15l49 248h166l-49 -248h8q30 0 51.5 19.5t43.5 57.5l100 171h193l-128 -208
q-27 -44 -57.5 -70.5t-59.5 -40.5q26 -10 47.5 -37.5t32.5 -71.5l61 -239h-194l-37 184q-3 18 -7 32.5t-10 25.5t-15.5 17t-24.5 6h-33z" />
    <glyph glyph-name="afii10025" unicode="&#x417;" horiz-adv-x="553" 
d="M223 417h95q16 0 32.5 4t29.5 12t21 20t8 29q0 26 -21 39.5t-56 13.5q-42 0 -80 -18.5t-68 -46.5l-87 104q58 60 128.5 85t134.5 25q49 0 89 -12.5t68.5 -35.5t44 -55t15.5 -70q0 -33 -11 -60t-29 -49t-41 -38t-48 -26q47 -22 69 -59t22 -85q0 -49 -21 -88t-57.5 -66
t-85.5 -41.5t-105 -14.5q-85 0 -152 32t-109 90l107 104q26 -32 64.5 -54.5t89.5 -22.5q45 0 72 19.5t27 56.5q0 29 -18 43.5t-45 14.5h-113z" />
    <glyph glyph-name="afii10026" unicode="&#x418;" horiz-adv-x="688" 
d="M603 0h-168l74 385l-329 -385h-145l130 667h168l-74 -375l319 375h155z" />
    <glyph glyph-name="afii10027" unicode="&#x419;" horiz-adv-x="688" 
d="M603 0h-168l74 385l-329 -385h-145l130 667h168l-74 -375l319 375h155zM441 863q-1 -4 -1 -10q0 -17 10 -27t27 -10q44 0 52 47h117q-11 -73 -60.5 -111t-119.5 -38q-27 0 -52 7t-44.5 21.5t-31 36.5t-11.5 52q0 15 3 32h111z" />
    <glyph glyph-name="afii10028" unicode="&#x41a;" horiz-adv-x="666" 
d="M205 0h-170l130 667h170l-48 -246h23q36 0 60.5 18.5t49.5 56.5l113 171h194l-140 -206q-32 -48 -64 -73.5t-72 -39.5q36 -14 59.5 -41t38.5 -70l82 -237h-197l-57 184q-5 18 -10.5 32.5t-13.5 25t-19.5 16t-29.5 5.5h-48z" />
    <glyph glyph-name="afii10029" unicode="&#x41b;" horiz-adv-x="707" 
d="M751 667l-129 -667h-170l99 509h-127l-34 -128.5t-38.5 -121t-48.5 -106t-62.5 -84t-81.5 -55.5t-106 -20q-14 0 -28.5 1.5t-29.5 3.5l29 152q5 -1 9.5 -1h9.5q46 0 81 33t64.5 98t55.5 161.5t55 224.5h452z" />
    <glyph glyph-name="afii10030" unicode="&#x41c;" horiz-adv-x="786" 
d="M179 667h163l86 -302l218 302h167l-100 -667h-172l61 391l-165 -228h-91l-74 228l-89 -391h-163z" />
    <glyph glyph-name="afii10031" unicode="&#x41d;" horiz-adv-x="695" 
d="M164 667h170l-47 -246h236l47 246h170l-129 -667h-170l50 263h-236l-50 -263h-170z" />
    <glyph glyph-name="afii10032" unicode="&#x41e;" horiz-adv-x="743" 
d="M443 525q-45 0 -81 -19.5t-61.5 -51t-39 -73t-13.5 -84.5q0 -32 8.5 -59.5t25.5 -48t42.5 -32.5t59.5 -12q45 0 81 19.5t61.5 51t39 72.5t13.5 84q0 31 -8.5 59t-25.5 49t-42.5 33t-59.5 12zM369 -16q-63 0 -117.5 20.5t-94.5 58.5t-62.5 92t-22.5 120q0 81 28.5 155.5
t79.5 131.5t122 90.5t156 33.5q64 0 118.5 -20.5t94.5 -59t62 -92.5t22 -120q0 -83 -26.5 -157t-76.5 -130.5t-121.5 -89.5t-161.5 -33z" />
    <glyph glyph-name="afii10033" unicode="&#x41f;" horiz-adv-x="691" 
d="M164 667h571l-129 -667h-170l99 509h-231l-99 -509h-170z" />
    <glyph glyph-name="afii10034" unicode="&#x420;" horiz-adv-x="577" 
d="M164 667h259q43 0 78.5 -14.5t61.5 -40.5t40.5 -61.5t14.5 -77.5q0 -63 -23 -110t-61 -78t-88 -46t-105 -15h-96l-44 -224h-166zM346 360q21 0 39 5.5t32 17t22 30.5t8 46q0 32 -19 51t-53 19h-71l-33 -169h75z" />
    <glyph glyph-name="afii10035" unicode="&#x421;" horiz-adv-x="665" 
d="M662 119q-57 -61 -126 -98t-164 -37q-66 0 -121 20.5t-94.5 59t-62 93.5t-22.5 124q0 82 28 155.5t79 129t121 88t154 32.5q108 0 177 -47.5t98 -129.5l-141 -73q-23 48 -55.5 68.5t-86.5 20.5q-46 0 -82.5 -19.5t-62 -51t-39 -73t-13.5 -84.5q0 -30 9 -57.5t26.5 -48.5
t43.5 -33.5t60 -12.5q53 0 91 22t75 65z" />
    <glyph glyph-name="afii10036" unicode="&#x422;" horiz-adv-x="600" 
d="M287 515h-197l29 152h564l-29 -152h-195l-100 -515h-172z" />
    <glyph glyph-name="afii10037" unicode="&#x423;" horiz-adv-x="644" 
d="M553 667h183l-344 -530q-29 -44 -56.5 -73.5t-55.5 -47.5t-57 -26t-61 -8q-51 0 -85.5 15t-61.5 36l79 125q16 -13 33.5 -22t42.5 -9q20 0 40 9t40 38l-133 493h178l65 -322z" />
    <glyph glyph-name="afii10038" unicode="&#x424;" horiz-adv-x="804" 
d="M436 702h154l-15 -75q55 -9 99 -31t74.5 -56t47 -78t16.5 -97q0 -68 -26 -124t-72.5 -97.5t-111 -67t-140.5 -31.5l-13 -70h-154l15 78q-111 17 -173.5 86t-62.5 176q0 67 26 123t72.5 97.5t110.5 67t140 32.5zM649 355q0 53 -27 86t-74 44l-58 -296q81 14 120 59.5
t39 106.5zM237 325q0 -54 26.5 -87t73.5 -44l58 296q-81 -14 -119.5 -59.5t-38.5 -105.5z" />
    <glyph glyph-name="afii10039" unicode="&#x425;" horiz-adv-x="654" 
d="M263 351l-148 316h191l80 -186l139 186h189l-255 -321l171 -346h-198l-94 210l-161 -210h-191z" />
    <glyph glyph-name="afii10040" unicode="&#x426;" horiz-adv-x="701" 
d="M619 158h68l-60 -312h-150l30 154h-472l129 667h170l-99 -509h214l99 509h170z" />
    <glyph glyph-name="afii10041" unicode="&#x427;" horiz-adv-x="645" 
d="M689 667l-129 -667h-170l47 240q-23 -11 -55 -19t-71 -8q-51 0 -89 15.5t-62.5 42.5t-37 63.5t-12.5 78.5q0 29 6 61l38 193h170l-33 -176q-3 -14 -4 -24t-1 -18q0 -41 23 -63.5t75 -22.5q24 0 43.5 4.5t36.5 12.5l55 287h170z" />
    <glyph glyph-name="afii10042" unicode="&#x428;" horiz-adv-x="1018" 
d="M934 0h-899l129 667h170l-99 -509h195l99 509h169l-99 -509h195l99 509h170z" />
    <glyph glyph-name="afii10043" unicode="&#x429;" horiz-adv-x="1033" 
d="M1019 158l-60 -312h-150l29 154h-803l129 667h170l-99 -509h188l99 509h170l-99 -509h188l99 509h170l-99 -509h68z" />
    <glyph glyph-name="afii10044" unicode="&#x42a;" horiz-adv-x="683" 
d="M427 667l-42 -212h73q52 0 92.5 -15t68 -42t41.5 -65t14 -83q0 -54 -20.5 -100t-56.5 -79.5t-86.5 -52t-110.5 -18.5h-269l100 516h-135l29 151h302zM358 316l-34 -176h74q52 0 79 28.5t27 69.5q0 35 -20 56.5t-62 21.5h-64z" />
    <glyph glyph-name="afii10045" unicode="&#x42b;" horiz-adv-x="855" 
d="M730 667h170l-130 -667h-170zM165 667h166l-42 -212h64q52 0 92.5 -15t68 -42t41.5 -65t14 -83q0 -54 -20.5 -100t-56.5 -79.5t-86.5 -52t-110.5 -18.5h-260zM262 316l-34 -176h65q52 0 79 28.5t27 69.5q0 35 -20 56.5t-62 21.5h-55z" />
    <glyph glyph-name="afii10046" unicode="&#x42c;" horiz-adv-x="593" 
d="M165 667h166l-42 -212h79q52 0 92.5 -15t68 -42t41.5 -65t14 -83q0 -54 -20.5 -100t-56.5 -79.5t-86.5 -52t-110.5 -18.5h-275zM262 316l-34 -176h80q52 0 79 28.5t27 69.5q0 35 -20 56.5t-62 21.5h-70z" />
    <glyph glyph-name="afii10047" unicode="&#x42d;" horiz-adv-x="668" 
d="M268 409h236q-10 55 -45 89.5t-97 34.5q-54 0 -96 -25.5t-77 -64.5l-103 108q50 57 122 96t166 39q66 0 121.5 -20t95.5 -58.5t62.5 -94.5t22.5 -128q0 -81 -28.5 -153.5t-79.5 -127.5t-122 -87.5t-156 -32.5q-50 0 -93 12.5t-78 36t-60.5 56t-39.5 72.5l138 76
q21 -46 57 -73t92 -27q65 0 111.5 34.5t69.5 91.5h-247z" />
    <glyph glyph-name="afii10048" unicode="&#x42e;" horiz-adv-x="1012" 
d="M165 667h170l-48 -246h96q21 56 55.5 104.5t80.5 84t102.5 56t120.5 20.5q61 0 113 -20t89.5 -57.5t58.5 -92t21 -123.5q0 -78 -26.5 -151.5t-76 -131t-119.5 -92t-157 -34.5q-62 0 -114 18.5t-90 54.5t-60.5 88t-23.5 118h-101l-51 -263h-170zM719 525
q-44 0 -79.5 -19.5t-61 -52t-39.5 -74t-14 -85.5q0 -64 32 -106.5t97 -42.5q44 0 80 19.5t61.5 52t39 74t13.5 85.5q0 31 -8 58.5t-23.5 47.5t-40 31.5t-57.5 11.5z" />
    <glyph glyph-name="afii10049" unicode="&#x42f;" horiz-adv-x="606" 
d="M521 0h-166l44 227h-16q-19 0 -33 -5t-26 -15.5t-24.5 -28l-28.5 -41.5l-93 -137h-185l124 175q29 41 50.5 60.5t50.5 31.5q-19 8 -37.5 22.5t-33.5 35t-24 48t-9 62.5q0 49 19 91.5t53.5 73.5t82 49t103.5 18h279zM426 366l31 161h-82q-46 0 -69.5 -25.5t-23.5 -63.5
q0 -34 19.5 -53t57.5 -19h67z" />
    <glyph glyph-name="afii10065" unicode="&#x430;" horiz-adv-x="515" 
d="M296 -2l5 44q-26 -29 -60.5 -44.5t-71.5 -15.5q-29 0 -53.5 9t-43 26.5t-29 43t-10.5 58.5q0 39 16.5 72.5t47 58t75 38t101.5 13.5q18 0 36.5 -1.5t35.5 -3.5l1 4q1 5 1 6v3q0 32 -21.5 45t-59.5 13q-39 0 -68.5 -10.5t-52.5 -23.5l-54 97q35 24 92 41.5t117 17.5
q43 0 80 -11t64 -32t42 -52.5t15 -72.5q0 -16 -2 -30l-4 -27l-51 -266h-148zM326 205q-8 2 -19.5 3t-22.5 1q-91 0 -91 -63q0 -45 46 -45q10 0 22.5 2.5t23.5 10t20.5 21t13.5 34.5z" />
    <glyph glyph-name="afii10066" unicode="&#x431;" horiz-adv-x="555" 
d="M565 535l-150 -20q-74 -10 -123 -48t-66 -106q29 32 66 50t78 18q37 0 68.5 -13.5t54.5 -39t36.5 -61t13.5 -80.5q0 -49 -17.5 -94t-50.5 -80t-79.5 -56t-104.5 -21q-52 0 -94.5 17.5t-72.5 49.5t-46 78.5t-16 104.5q0 42 9 89q15 79 47 137t76.5 97.5t99 62t113.5 30.5
l140 19zM291 118q20 0 36.5 9t28.5 23.5t18.5 34t6.5 40.5q0 37 -18.5 57t-48.5 20q-20 0 -36.5 -9t-28.5 -23.5t-18.5 -34t-6.5 -40.5q0 -37 18.5 -57t48.5 -20z" />
    <glyph glyph-name="afii10067" unicode="&#x432;" horiz-adv-x="520" 
d="M228 284h76q28 0 40.5 15t12.5 36q0 17 -8.5 26.5t-28.5 9.5h-76zM24 0l93 476h256q70 0 105.5 -33.5t35.5 -78.5q0 -24 -8 -43.5t-20 -35.5t-27.5 -26.5t-30.5 -16.5q26 -9 48 -33.5t22 -62.5q0 -35 -15 -62t-41.5 -46t-64 -28.5t-82.5 -9.5h-271zM192 105h98
q28 0 41 15t13 37q0 36 -37 36h-98z" />
    <glyph glyph-name="afii10068" unicode="&#x433;" horiz-adv-x="401" 
d="M421 338h-169l-66 -338h-162l93 476h331z" />
    <glyph glyph-name="afii10069" unicode="&#x434;" horiz-adv-x="601" 
d="M587 476l-68 -350h61l-48 -250h-144l24 124h-285l-24 -124h-143l49 250h52q58 71 93.5 156.5t60.5 193.5h372zM363 126l44 224h-80q-15 -60 -39 -115t-61 -109h136z" />
    <glyph glyph-name="afii10070" unicode="&#x435;" horiz-adv-x="522" 
d="M302 111q32 0 65 9.5t59 23.5l49 -107q-46 -26 -93 -39.5t-104 -13.5q-44 0 -85.5 11.5t-74 37.5t-52.5 68t-20 102q0 66 20.5 119.5t56.5 91t85.5 58t106.5 20.5q49 0 86 -17t62 -45.5t37.5 -65t12.5 -74.5q0 -26 -3.5 -50.5t-9.5 -49.5h-298q8 -45 34 -62t66 -17z
M368 286q1 4 1 11q0 35 -18 53t-49 18q-33 0 -58.5 -19.5t-36.5 -62.5h161z" />
    <glyph glyph-name="afii10072" unicode="&#x436;" horiz-adv-x="784" 
d="M445 0h-158l33 171h-24q-23 0 -35 -13t-29 -40l-75 -118h-173l98 145q28 41 52.5 63.5t55.5 33.5q-25 14 -39.5 31.5t-24.5 59.5l-35 143h151l27 -115q7 -28 15 -42t31 -14h31l34 171h158l-34 -171h24q21 0 34 12.5t32 43.5l71 115h159l-91 -143q-14 -22 -26 -37.5
t-23.5 -26t-23 -18t-24.5 -12.5q30 -14 47.5 -35t28.5 -59l42 -145h-165l-29 118q-6 24 -15 38.5t-32 14.5h-35z" />
    <glyph glyph-name="afii10073" unicode="&#x437;" horiz-adv-x="460" 
d="M162 299h92q26 0 41 10.5t15 29.5q0 16 -12 25.5t-36 9.5q-49 0 -84 -17.5t-61 -34.5l-57 91q42 34 98.5 56.5t125.5 22.5q86 0 136.5 -34.5t50.5 -95.5q0 -40 -24 -71.5t-63 -53.5q29 -15 45 -41t16 -55q0 -39 -19 -68t-50.5 -49t-73 -30t-86.5 -10q-72 0 -129 24
t-92 53l72 96q24 -18 61.5 -35t83.5 -17q34 0 55 11t21 33q0 17 -12.5 25t-33.5 8h-102z" />
    <glyph glyph-name="afii10074" unicode="&#x438;" horiz-adv-x="564" 
d="M336 0l49 253l-225 -253h-136l93 476h154l-47 -241l213 241h146l-93 -476h-154z" />
    <glyph glyph-name="afii10075" unicode="&#x439;" horiz-adv-x="564" 
d="M336 0l49 253l-225 -253h-136l93 476h154l-47 -241l213 241h146l-93 -476h-154zM342 688q-1 -3 -1 -12q0 -34 39 -34q20 0 33 13.5t19 32.5h115q-8 -35 -25.5 -61.5t-41.5 -44.5t-53.5 -27t-60.5 -9q-27 0 -51.5 7t-43 21t-29 34.5t-10.5 47.5q0 15 3 32h107z" />
    <glyph glyph-name="afii10076" unicode="&#x43a;" horiz-adv-x="560" 
d="M184 0h-160l93 476h160l-34 -171h22q26 0 43 15t34 41l77 115h168l-97 -143q-26 -38 -52 -59.5t-56 -31.5q32 -11 52 -33.5t34 -63.5l49 -145h-175l-35 118q-6 20 -16 36.5t-36 16.5h-38z" />
    <glyph glyph-name="afii10077" unicode="&#x43b;" horiz-adv-x="580" 
d="M598 476l-92 -476h-162l65 338h-74q-19 -86 -43 -150t-57.5 -107t-78.5 -64t-106 -21q-13 0 -27 1t-28 3l27 138h10q32 0 57 15t46.5 53t40.5 103.5t39 166.5h383z" />
    <glyph glyph-name="afii10078" unicode="&#x43c;" horiz-adv-x="644" 
d="M273 100l-45 153l-60 -253h-148l120 476h139l61 -217l151 217h154l-74 -476h-155l40 253l-105 -153h-78z" />
    <glyph glyph-name="afii10079" unicode="&#x43d;" horiz-adv-x="563" 
d="M582 476l-93 -476h-162l33 169h-141l-33 -169h-162l93 476h162l-33 -169h141l33 169h162z" />
    <glyph glyph-name="afii10080" unicode="&#x43e;" horiz-adv-x="545" 
d="M330 492q43 0 81.5 -15.5t67 -44t45.5 -67.5t17 -87q0 -62 -21 -115.5t-58.5 -93.5t-89.5 -62.5t-114 -22.5q-44 0 -82.5 15.5t-67 44t-45.5 67.5t-17 87q0 63 23 117t62 93.5t90.5 61.5t108.5 22zM279 127q21 0 40.5 9.5t34.5 27t24 41.5t9 53q0 39 -19.5 65t-58.5 26
q-21 0 -40.5 -9.5t-34.5 -27t-24 -41.5t-9 -53q0 -39 19.5 -65t58.5 -26z" />
    <glyph glyph-name="afii10081" unicode="&#x43f;" horiz-adv-x="580" 
d="M588 476l-93 -476h-162l66 338h-136l-66 -338h-162l93 476h460z" />
    <glyph glyph-name="afii10082" unicode="&#x440;" horiz-adv-x="569" 
d="M284 476l-5 -49q30 35 64 46.5t61 11.5q33 0 62 -13t51 -39.5t35 -65t13 -89.5q0 -71 -24.5 -125.5t-64.5 -91.5t-91.5 -56t-105.5 -19q-26 0 -47.5 4t-36.5 9l-38 -199h-161l131 676h157zM273 118q28 0 51 11.5t40 31t26.5 46.5t9.5 57q0 43 -18 61.5t-47 18.5
q-32 0 -56.5 -21.5t-32.5 -64.5l-25 -133q10 -3 25 -5t27 -2z" />
    <glyph glyph-name="afii10083" unicode="&#x441;" horiz-adv-x="493" 
d="M462 67q-38 -36 -87.5 -59.5t-113.5 -23.5q-50 0 -90 15.5t-68 44t-42.5 68t-14.5 87.5q0 57 20.5 110t57.5 93.5t88.5 65t113.5 24.5q75 0 120 -35.5t68 -95.5l-123 -62q-11 22 -27 37t-46 15q-25 0 -45 -11t-34 -29.5t-21.5 -43t-7.5 -50.5q0 -25 6 -42.5t16.5 -28.5
t24 -16t27.5 -5q26 0 50.5 13.5t43.5 32.5z" />
    <glyph glyph-name="afii10084" unicode="&#x442;" horiz-adv-x="485" 
d="M532 476l-27 -138h-141l-66 -338h-163l66 338h-141l27 138h445z" />
    <glyph glyph-name="afii10085" unicode="&#x443;" horiz-adv-x="548" 
d="M36 -55q33 -24 61 -24q25 0 42.5 16t32.5 44l15 28l-116 467h175l47 -281l140 281h177l-273 -473q-28 -48 -53.5 -87.5t-53 -68t-59.5 -44t-73 -15.5q-37 0 -72 11.5t-56 28.5z" />
    <glyph glyph-name="afii10086" unicode="&#x444;" horiz-adv-x="720" 
d="M393 667h142l-36 -183q49 -6 89 -23.5t68.5 -46t44 -66t15.5 -83.5q0 -53 -21 -100t-61 -84.5t-98.5 -62t-133.5 -31.5l-36 -187h-142l37 194q-49 6 -88.5 23.5t-67.5 46t-43.5 66t-15.5 83.5q0 52 20.5 99.5t60.5 84.5t98 61.5t133 31.5zM565 254q0 43 -23 69t-68 31
l-46 -235q72 12 104.5 49t32.5 86zM197 224q0 -43 22.5 -69t67.5 -31l46 235q-72 -13 -104 -50t-32 -85z" />
    <glyph glyph-name="afii10087" unicode="&#x445;" horiz-adv-x="520" 
d="M191 244l-119 232h170l58 -123l96 123h177l-204 -235l121 -241h-171l-62 130l-100 -130h-177z" />
    <glyph glyph-name="afii10088" unicode="&#x446;" horiz-adv-x="589" 
d="M571 138l-51 -262h-143l24 124h-366l93 476h162l-66 -338h124l66 338h162l-66 -338h61z" />
    <glyph glyph-name="afii10089" unicode="&#x447;" horiz-adv-x="535" 
d="M554 476l-93 -476h-163l28 145q-38 -13 -79 -13t-73 13.5t-54 36.5t-33 53.5t-11 63.5q0 10 1 21.5t5 28.5l25 127h163l-26 -135q-1 -5 -1.5 -10t-0.5 -10q0 -23 14 -39.5t47 -16.5q14 0 25 2t23 6l40 203h163z" />
    <glyph glyph-name="afii10090" unicode="&#x448;" horiz-adv-x="827" 
d="M24 0l93 476h162l-66 -338h121l66 338h163l-66 -338h121l66 338h162l-93 -476h-729z" />
    <glyph glyph-name="afii10091" unicode="&#x449;" horiz-adv-x="850" 
d="M832 138l-51 -262h-143l24 124h-638l93 476h162l-66 -338h117l66 338h162l-66 -338h116l66 338h162l-66 -338h62z" />
    <glyph glyph-name="afii10092" unicode="&#x44a;" horiz-adv-x="589" 
d="M362 476l-26 -131h70q75 0 120.5 -40t45.5 -115q0 -46 -17.5 -81.5t-47 -59.5t-68.5 -36.5t-83 -12.5h-244l66 338h-118l27 138h275zM292 117h54q31 0 49.5 18.5t18.5 46.5q0 46 -46 46h-54z" />
    <glyph glyph-name="afii10093" unicode="&#x44b;" horiz-adv-x="738" 
d="M594 476h163l-93 -476h-163zM204 117h43q31 0 49.5 18.5t18.5 46.5q0 46 -46 46h-43zM274 476l-26 -131h59q75 0 120.5 -40t45.5 -115q0 -46 -17.5 -81.5t-47 -59.5t-68.5 -36.5t-83 -12.5h-233l93 476h157z" />
    <glyph glyph-name="afii10094" unicode="&#x44c;" horiz-adv-x="501" 
d="M204 117h54q31 0 49.5 18.5t18.5 46.5q0 46 -46 46h-54zM273 476l-25 -131h70q75 0 120.5 -40t45.5 -115q0 -46 -17.5 -81.5t-47 -59.5t-68.5 -36.5t-83 -12.5h-244l93 476h156z" />
    <glyph glyph-name="afii10095" unicode="&#x44d;" horiz-adv-x="475" 
d="M235 371q-27 0 -52 -11t-47 -28l-62 95q33 28 80.5 46.5t101.5 18.5q47 0 86.5 -15.5t68 -44.5t44.5 -70t16 -91q0 -57 -21 -109t-57.5 -91.5t-87 -63t-109.5 -23.5q-37 0 -67 8.5t-53.5 21t-40.5 27.5t-27 27l79 91q20 -22 48.5 -36.5t61.5 -14.5q38 0 68.5 20.5
t45.5 53.5h-152l22 114h143q-6 32 -28.5 53.5t-60.5 21.5z" />
    <glyph glyph-name="afii10096" unicode="&#x44e;" horiz-adv-x="786" 
d="M572 492q43 0 81.5 -15t67 -43.5t45 -69t16.5 -92.5q0 -59 -21 -111t-57.5 -91.5t-86 -62.5t-106.5 -23q-42 0 -78.5 13t-64 37t-45 58.5t-22.5 76.5h-82l-33 -169h-162l93 476h162l-33 -169h72q15 40 41 74t59.5 59t72.5 38.5t81 13.5zM525 127q20 0 38.5 9.5t33 27
t23 41t8.5 51.5q0 41 -18.5 67t-53.5 26q-20 0 -38.5 -10t-32.5 -27t-22.5 -40.5t-8.5 -51.5q0 -41 18 -67t53 -26z" />
    <glyph glyph-name="afii10097" unicode="&#x44f;" horiz-adv-x="507" 
d="M344 361h-50q-29 0 -46.5 -15t-17.5 -42q0 -22 12.5 -35.5t38.5 -13.5h43zM274 0l28 144h-23q-13 0 -23 -9t-21 -26l-75 -109h-180l87 113q25 32 43 48.5t48 25.5q-36 13 -61 44t-25 80q0 39 16.5 69.5t45 51.5t65 32.5t77.5 11.5h250l-93 -476h-159z" />
    <glyph glyph-name="uni0450" unicode="&#x450;" horiz-adv-x="521" 
d="M302 111q32 0 65 9.5t59 23.5l49 -107q-46 -26 -93 -39.5t-104 -13.5q-44 0 -85.5 11.5t-74 37.5t-52.5 68t-20 102q0 66 20.5 119.5t56.5 91t85.5 58t106.5 20.5q49 0 86 -17t62 -45.5t37.5 -65t12.5 -74.5q0 -26 -3.5 -50.5t-9.5 -49.5h-298q8 -45 34 -62t66 -17z
M368 286q1 4 1 11q0 35 -18 53t-49 18q-33 0 -58.5 -19.5t-36.5 -62.5h161zM215 682h153l21 -142h-112z" />
    <glyph glyph-name="afii10071" unicode="&#x451;" horiz-adv-x="522" 
d="M302 111q32 0 65 9.5t59 23.5l49 -107q-46 -26 -93 -39.5t-104 -13.5q-44 0 -85.5 11.5t-74 37.5t-52.5 68t-20 102q0 66 20.5 119.5t56.5 91t85.5 58t106.5 20.5q49 0 86 -17t62 -45.5t37.5 -65t12.5 -74.5q0 -26 -3.5 -50.5t-9.5 -49.5h-298q8 -45 34 -62t66 -17z
M368 286q1 4 1 11q0 35 -18 53t-49 18q-33 0 -58.5 -19.5t-36.5 -62.5h161zM399 677h126l-23 -120h-126zM206 677h126l-23 -120h-126z" />
    <glyph glyph-name="afii10099" unicode="&#x452;" horiz-adv-x="554" 
d="M125 522h-54l17 86h54l12 59h161l-12 -59h152l-17 -86h-152l-20 -105q32 32 65.5 46.5t68.5 14.5q39 0 66.5 -15.5t45 -42.5t25.5 -64t8 -81q0 -66 -17 -130.5t-47 -125.5t-71.5 -117t-90.5 -104l-120 105q32 34 64 74t57 84.5t40.5 91t15.5 94.5q0 85 -60 85
q-37 0 -56.5 -25t-26.5 -60l-48 -247h-161z" />
    <glyph glyph-name="afii10100" unicode="&#x453;" horiz-adv-x="401" 
d="M421 338h-169l-66 -338h-162l93 476h331zM311 688h153l-110 -142h-113z" />
    <glyph glyph-name="afii10101" unicode="&#x454;" horiz-adv-x="467" 
d="M287 105q29 0 55.5 11t46.5 28l62 -95q-32 -28 -79 -46.5t-104 -18.5q-50 0 -91 16.5t-70 45.5t-45 70t-16 90q0 59 22 111t59.5 91t87.5 61.5t105 22.5q34 0 63 -8t52 -20.5t40.5 -27.5t28.5 -28l-79 -91q-20 24 -47.5 37.5t-59.5 13.5q-40 0 -69 -20t-43 -52h153
l-22 -114h-144q7 -37 31.5 -57t62.5 -20z" />
    <glyph glyph-name="afii10102" unicode="&#x455;" horiz-adv-x="457" 
d="M79 158q28 -21 61 -35t75 -14q29 0 41 7.5t12 24.5q0 8 -3.5 14.5t-12.5 13t-26 14l-44 19.5q-21 9 -39 20.5t-31.5 27t-21 36.5t-7.5 49q0 40 16 69.5t43 49t63.5 29t77.5 9.5q51 0 97.5 -16t88.5 -52l-79 -93q-54 42 -108 42q-45 0 -45 -30q0 -9 4.5 -16t15 -14
t28 -15.5l43.5 -21.5q49 -24 73 -55t24 -79q0 -41 -16 -70.5t-44.5 -49t-66.5 -29t-81 -9.5q-54 0 -108.5 16t-101.5 54z" />
    <glyph glyph-name="afii10103" unicode="&#x456;" horiz-adv-x="266" 
d="M149 673h176l-26 -133h-176zM119 476h162l-92 -476h-162z" />
    <glyph glyph-name="afii10104" unicode="&#x457;" horiz-adv-x="273" 
d="M119 476h162l-92 -476h-162zM267 671h126l-23 -120h-126zM74 671h126l-23 -120h-126z" />
    <glyph glyph-name="afii10105" unicode="&#x458;" horiz-adv-x="285" 
d="M169 673h175l-26 -133h-175zM-92 -36q34 -21 66 -21q31 0 49.5 18.5t26.5 63.5l88 451h163l-86 -440q-11 -54 -28 -97.5t-43.5 -74.5t-64 -47.5t-89.5 -16.5q-46 0 -83 10.5t-67 33.5z" />
    <glyph glyph-name="afii10106" unicode="&#x459;" horiz-adv-x="774" 
d="M529 345h62q75 0 120.5 -40t45.5 -115q0 -46 -17.5 -81.5t-47 -59.5t-68.5 -36.5t-83 -12.5h-236l66 338h-66q-19 -86 -43 -150t-57.5 -107t-78.5 -64t-106 -21q-13 0 -27 1t-28 3l27 138h10q32 0 57 15t46.5 53t40.5 103.5t39 166.5h370zM485 117h54q31 0 45.5 18.5
t14.5 44.5q0 48 -46 48h-46z" />
    <glyph glyph-name="afii10107" unicode="&#x45a;" horiz-adv-x="780" 
d="M274 476l-29 -146h130l29 146h157l-29 -146h65q75 0 120.5 -38t45.5 -110q0 -44 -17.5 -78t-47 -57t-68.5 -35t-83 -12h-236l37 192h-130l-37 -192h-157l93 476h157zM490 112h53q29 0 47 16t18 40q0 39 -46 39h-53z" />
    <glyph glyph-name="afii10108" unicode="&#x45b;" horiz-adv-x="554" 
d="M87 605h55l12 62h161l-12 -62h152l-17 -85h-152l-21 -109q32 32 68.5 46.5t78.5 14.5q38 0 62.5 -14.5t39 -36.5t20.5 -49t6 -52q0 -13 -1 -24t-3 -20l-54 -276h-162l47 246q3 13 3 26q0 23 -11.5 38.5t-39.5 15.5q-38 0 -59 -25t-28 -60l-46 -241h-162l101 520h-55z" />
    <glyph glyph-name="afii10109" unicode="&#x45c;" horiz-adv-x="560" 
d="M184 0h-160l93 476h160l-34 -171h22q26 0 43 15t34 41l77 115h168l-97 -143q-26 -38 -52 -59.5t-56 -31.5q32 -11 52 -33.5t34 -63.5l49 -145h-175l-35 118q-6 20 -16 36.5t-36 16.5h-38zM369 688h153l-110 -142h-113z" />
    <glyph glyph-name="uni045D" unicode="&#x45d;" horiz-adv-x="564" 
d="M336 0l49 253l-225 -253h-136l93 476h154l-47 -241l213 241h146l-93 -476h-154zM262 688h153l21 -142h-112z" />
    <glyph glyph-name="afii10110" unicode="&#x45e;" horiz-adv-x="548" 
d="M36 -55q33 -24 61 -24q25 0 42.5 16t32.5 44l15 28l-116 467h175l47 -281l140 281h177l-273 -473q-28 -48 -53.5 -87.5t-53 -68t-59.5 -44t-73 -15.5q-37 0 -72 11.5t-56 28.5zM335 694q-1 -3 -1 -12q0 -34 39 -34q20 0 33 13.5t19 32.5h115q-8 -35 -25.5 -61.5
t-41.5 -44.5t-53.5 -27t-60.5 -9q-27 0 -51.5 7t-43 21t-29 34.5t-10.5 47.5q0 15 3 32h107z" />
    <glyph glyph-name="afii10193" unicode="&#x45f;" horiz-adv-x="554" 
d="M24 0l93 476h163l-67 -342h130l67 342h163l-93 -476h-157l-24 -124h-143l24 124h-156z" />
    <glyph glyph-name="afii10066.locl" horiz-adv-x="544" 
d="M43 191q0 78 48 135.5t127 86.5q-17 20 -29 46t-12 58q0 34 14.5 62t40.5 47.5t62 30t80 10.5h166l-24 -122h-150q-20 0 -31 -9t-11 -23t10.5 -24.5t32.5 -24.5l51 -34t54 -46t42.5 -63t17.5 -84q0 -51 -20.5 -96.5t-56 -79t-83.5 -53.5t-103 -20q-46 0 -87 14t-72 40.5
t-49 64t-18 84.5zM211 208q0 -41 21 -60.5t50 -19.5q19 0 35 8t27 22t17 32.5t6 38.5q0 39 -21 66t-50 51q-26 -14 -42 -32t-26 -36.5t-13.5 -36.5t-3.5 -33z" />
    <glyph glyph-name="afii10068.locl.ita" horiz-adv-x="266" 
d="M97 665h274l-22 -111h-274zM119 476h162l-92 -476h-162z" />
    <glyph glyph-name="afii10069.locl.ita" horiz-adv-x="554" 
d="M210 5q-46 0 -77.5 17t-51 44t-28 62t-8.5 71q0 61 21.5 113.5t61.5 91t95.5 60.5t123.5 22q25 0 54 -3.5t58 -9.5t56 -14.5t49 -19.5l-78 -401q-26 -134 -99 -192t-182 -58q-54 0 -102.5 13t-86.5 41l62 114q55 -37 122 -37q51 0 81 24t41 79l4 21q-23 -17 -51.5 -27.5
t-64.5 -10.5zM333 356q-27 0 -50.5 -11t-40 -30t-26 -45t-9.5 -57q0 -38 15.5 -59t48.5 -21q37 0 59.5 24.5t30.5 66.5l23 122q-13 5 -26 7.5t-25 2.5z" />
    <glyph glyph-name="afii10081.locl.ita" horiz-adv-x="550" 
d="M476 0h-157l5 49q-36 -36 -71 -48.5t-77 -12.5q-27 0 -49.5 9.5t-39.5 27.5t-26.5 44t-9.5 59q0 12 1.5 29t4.5 32l56 287h162l-50 -262q-3 -14 -3 -26q0 -23 10.5 -38.5t38.5 -15.5q38 0 58.5 25t27.5 60l49 257h162zM147 665h454l-22 -111h-454z" />
    <glyph glyph-name="afii10084.locl.ita" horiz-adv-x="841" 
d="M409 476h154l-50 -262q-3 -14 -3 -26q0 -23 11.5 -38.5t39.5 -15.5q39 0 59.5 25t27.5 60l49 257h162l-92 -476h-157l5 49q-36 -36 -70.5 -48.5t-76.5 -12.5q-38 0 -63 16.5t-42 48.5q-35 -31 -71.5 -48t-89.5 -17q-75 0 -113 41.5t-38 105.5q0 24 4 44l58 297h162
l-50 -262q-3 -14 -3 -26q0 -23 11.5 -38.5t39.5 -15.5q39 0 59.5 25t27.5 60zM146 665h747l-22 -111h-747z" />
    <glyph glyph-name="uni0462" unicode="&#x462;" horiz-adv-x="712" 
d="M422 496l-17 -83h82q54 0 94.5 -13.5t67.5 -38t40.5 -59t13.5 -75.5q0 -49 -19.5 -90.5t-55.5 -72t-86.5 -47.5t-112.5 -17h-270l97 496h-170l27 141h170l16 80h166l-16 -80h202l-27 -141h-202zM379 278l-27 -140h76q56 0 81 23t25 55q0 28 -18 45t-64 17h-73z" />
    <glyph glyph-name="uni0463" unicode="&#x463;" horiz-adv-x="580" 
d="M287 103h59q27 0 43 16t16 40q0 40 -40 40h-60zM396 667l-37 -191h141l-24 -123h-141l-10 -53h94q66 0 105 -34.5t39 -100.5q0 -40 -15 -70.5t-40.5 -51.5t-59.5 -32t-73 -11h-267l69 353h-117l24 123h117l37 191h158z" />
    <glyph glyph-name="uni0472" unicode="&#x472;" horiz-adv-x="743" 
d="M369 -16q-63 0 -117.5 20.5t-94.5 58.5t-62.5 92t-22.5 120q0 81 28.5 155.5t79.5 131.5t122 90.5t156 33.5q64 0 118.5 -20.5t94.5 -59t62 -92.5t22 -120q0 -83 -26.5 -157t-76.5 -130.5t-121.5 -89.5t-161.5 -33zM381 130q36 0 67.5 11.5t56.5 31t43.5 46.5t30.5 58
h-347q2 -31 12.5 -58t29 -46.5t45.5 -31t62 -11.5zM447 540q-69 0 -118.5 -38.5t-74.5 -95.5h341q-8 57 -45 95.5t-103 38.5z" />
    <glyph glyph-name="uni0473" unicode="&#x473;" horiz-adv-x="545" 
d="M330 492q43 0 81.5 -15.5t67 -44t45.5 -67.5t17 -87q0 -62 -21 -115.5t-58.5 -93.5t-89.5 -62.5t-114 -22.5q-44 0 -82.5 15.5t-67 44t-45.5 67.5t-17 87q0 63 23 117t62 93.5t90.5 61.5t108.5 22zM312 368q-35 0 -67 -21.5t-49 -58.5h208q-6 35 -29 57.5t-63 22.5z
M275 108q35 0 66.5 21.5t48.5 58.5h-207q6 -35 28.5 -57.5t63.5 -22.5z" />
    <glyph glyph-name="uni0474" unicode="&#x474;" horiz-adv-x="705" 
d="M114 667h179l52 -466l144 302q44 91 100.5 133t132.5 42q34 0 68 -7l-29 -149q-14 3 -26 3q-32 0 -57.5 -19.5t-48.5 -63.5l-233 -442h-180z" />
    <glyph glyph-name="uni0475" unicode="&#x475;" horiz-adv-x="553" 
d="M72 476h170l36 -276l81 154q32 61 75 95.5t106 34.5q30 0 61 -7l-28 -137q-14 3 -24 3q-20 0 -34.5 -12t-28.5 -37l-168 -294h-149z" />
    <glyph glyph-name="uni048A" unicode="&#x48a;" horiz-adv-x="705" 
d="M691 158l-15 -79q-18 -93 -58.5 -163.5t-109.5 -127.5l-92 94q32 31 55 59.5t39 58.5h-85l74 385l-319 -385h-145l130 667h168l-74 -374l309 374h155l-99 -509h67zM437 863q-1 -3 -1 -10q0 -37 37 -37q44 0 52 47h117q-11 -73 -60.5 -111t-119.5 -38q-27 0 -52 7
t-44.5 21.5t-31 36.5t-11.5 52q0 15 3 32h111z" />
    <glyph glyph-name="uni048B" unicode="&#x48b;" horiz-adv-x="596" 
d="M336 0l49 253l-225 -253h-136l93 476h154l-47 -241l213 241h146l-66 -338h61l-13 -66q-9 -44 -22 -79t-31 -64t-41 -54t-53 -50l-91 90q23 21 42.5 41.5t33.5 43.5h-67zM339 688q-1 -3 -1 -12q0 -34 39 -34q20 0 33 13.5t19 32.5h115q-8 -35 -25.5 -61.5t-41.5 -44.5
t-53.5 -27t-60.5 -9q-27 0 -51.5 7t-43 21t-29 34.5t-10.5 47.5q0 15 3 32h107z" />
    <glyph glyph-name="uni048C" unicode="&#x48c;" horiz-adv-x="573" 
d="M165 667h166l-13 -65h159l-17 -88h-159l-14 -76h80q52 0 92.5 -14.5t68 -40.5t41.5 -62.5t14 -79.5q0 -53 -20.5 -97t-56.5 -76t-86 -50t-110 -18h-275l100 514h-54l16 88h55zM260 303l-33 -167h80q52 0 79 27.5t27 65.5q0 33 -20 53.5t-62 20.5h-71z" />
    <glyph glyph-name="uni048D" unicode="&#x48d;" horiz-adv-x="524" 
d="M302 499l-10 -48h150l-17 -86h-149l-11 -57h92q67 0 108.5 -35.5t41.5 -102.5q0 -41 -15.5 -72.5t-41.5 -53.5t-61 -33t-75 -11h-267l71 365h-54l17 86h54l10 48h157zM225 106h60q27 0 43 16t16 40q0 40 -40 40h-60z" />
    <glyph glyph-name="uni048E" unicode="&#x48e;" horiz-adv-x="577" 
d="M164 667h259q43 0 78.5 -14.5t61.5 -40.5t40.5 -61.5t14.5 -77.5q0 -86 -39.5 -141t-102.5 -82l24 -67l-81 -29l-27 73q-26 -3 -51 -3h-96l-44 -224h-166zM403 451l27 -74q12 13 19.5 32.5t7.5 47.5q0 35 -19 56t-53 21h-81l-35 -185h79l-26 73z" />
    <glyph glyph-name="uni048F" unicode="&#x48f;" horiz-adv-x="558" 
d="M273 476l-5 -49q30 35 64 46.5t61 11.5q33 0 62 -13t51 -39.5t35 -65t13 -89.5q0 -95 -42 -159.5t-105 -98.5l22 -61l-81 -29l-22 62q-29 -6 -58 -6q-26 0 -47.5 4t-36.5 9l-38 -199h-161l131 676h157zM261 114q5 0 10.5 0.5t10.5 1.5l-26 74l81 29l20 -57q15 20 23.5 46
t8.5 55q0 44 -18 62.5t-47 18.5q-32 0 -56.5 -21.5t-32.5 -64.5l-26 -137q10 -3 25 -5t27 -2z" />
    <glyph glyph-name="afii10050" unicode="&#x490;" horiz-adv-x="541" 
d="M164 667h311l26 130h149l-55 -282h-291l-100 -515h-169z" />
    <glyph glyph-name="afii10098" unicode="&#x491;" horiz-adv-x="416" 
d="M481 570l-45 -232h-184l-66 -338h-162l93 476h203l18 94h143z" />
    <glyph glyph-name="uni0492" unicode="&#x492;" horiz-adv-x="533" 
d="M79 229h-56l17 90h57l67 348h452l-29 -152h-282l-38 -196h142l-18 -90h-142l-44 -229h-170z" />
    <glyph glyph-name="uni0493" unicode="&#x493;" horiz-adv-x="416" 
d="M436 338h-164l-21 -109h96l-17 -86h-96l-28 -143h-162l28 143h-55l17 86h55l48 247h326z" />
    <glyph glyph-name="uni0494" unicode="&#x494;" horiz-adv-x="639" 
d="M165 667h462l-30 -152h-292l-25 -130q20 7 44.5 12.5t55.5 5.5q51 0 94.5 -18.5t74.5 -52.5t48.5 -82.5t17.5 -107.5q0 -81 -27.5 -146.5t-73.5 -111.5t-106.5 -71t-126.5 -25q-52 0 -106 17l54 148q26 -8 52 -8q35 0 63.5 14.5t49 39t31.5 58t11 71.5q0 34 -9.5 58
t-25.5 40t-36.5 23.5t-42.5 7.5q-35 0 -70 -16l-47 -241h-170z" />
    <glyph glyph-name="uni0495" unicode="&#x495;" horiz-adv-x="527" 
d="M474 338h-221l-16 -79q14 5 29 7.5t33 2.5q40 0 75 -14t60 -40.5t39.5 -65t14.5 -87.5q0 -60 -20.5 -110t-56 -86.5t-84 -56.5t-104.5 -20q-21 0 -43 3t-45 10l48 133q18 -5 33 -5q25 0 45.5 10t34.5 27t22 39.5t8 47.5q0 24 -7.5 40t-19 26t-25.5 14.5t-28 4.5
q-18 0 -33 -6l-26 -133h-163l93 476h384z" />
    <glyph glyph-name="uni0496" unicode="&#x496;" horiz-adv-x="932" 
d="M524 0h-166l52 265h-18q-29 0 -49 -23t-41 -58l-110 -184h-202l154 239q33 52 63 75.5t60 33.5q-24 14 -43.5 40.5t-29.5 70.5l-47 208h182l33 -171q8 -38 22.5 -57.5t44.5 -19.5h10l49 248h166l-49 -248h10q25 0 45.5 19.5t42.5 57.5l100 171h193l-128 -208
q-27 -44 -57.5 -70.5t-59.5 -40.5q26 -10 47.5 -37.5t32.5 -71.5l21 -81h65l-60 -312h-150l29 154h-38l-37 184q-3 18 -7 32.5t-10 25.5t-15.5 17t-24.5 6h-28z" />
    <glyph glyph-name="uni0497" unicode="&#x497;" horiz-adv-x="796" 
d="M778 138l-51 -262h-143l24 124h-37l-29 118q-6 24 -15 38.5t-32 14.5h-28l-33 -171h-158l33 171h-17q-23 0 -35 -13t-29 -40l-75 -118h-173l98 145q28 41 52.5 63.5t55.5 33.5q-25 14 -39.5 31.5t-24.5 59.5l-35 143h151l27 -115q7 -28 15 -42t31 -14h24l34 171h158
l-34 -171h17q21 0 34 12.5t32 43.5l71 115h159l-91 -143q-14 -22 -26 -37.5t-23.5 -26t-23 -18t-24.5 -12.5q30 -14 47.5 -35t28.5 -59l2 -7h82z" />
    <glyph glyph-name="uni0498" unicode="&#x498;" horiz-adv-x="553" 
d="M223 417h95q16 0 32.5 4t29.5 12t21 20t8 29q0 26 -21 39.5t-56 13.5q-42 0 -80 -18.5t-68 -46.5l-87 104q58 60 128.5 85t134.5 25q49 0 89 -12.5t68.5 -35.5t44 -55t15.5 -70q0 -33 -11 -60t-29 -49t-41 -38t-48 -26q47 -22 69 -59t22 -85q0 -49 -21 -88t-57.5 -66
t-85.5 -41.5t-105 -14.5q-85 0 -152 32t-109 90l107 104q26 -32 64.5 -54.5t89.5 -22.5q45 0 72 19.5t27 56.5q0 29 -18 43.5t-45 14.5h-113zM125 -139q17 -6 33.5 -10t33.5 -4q27 0 42 5.5t15 21.5q0 14 -15 16.5t-29 2.5q-37 0 -69 -13l26 69q21 6 44 9t45 3q19 0 37 -5
t32.5 -15t23 -24t8.5 -33q0 -32 -14.5 -54.5t-36.5 -36t-48.5 -19.5t-51.5 -6q-26 0 -53.5 4t-50.5 14z" />
    <glyph glyph-name="uni0499" unicode="&#x499;" horiz-adv-x="460" 
d="M162 299h92q26 0 41 10.5t15 29.5q0 16 -12 25.5t-36 9.5q-49 0 -84 -17.5t-61 -34.5l-57 91q42 34 98.5 56.5t125.5 22.5q86 0 136.5 -34.5t50.5 -95.5q0 -40 -24 -71.5t-63 -53.5q29 -15 45 -41t16 -55q0 -39 -19 -68t-50.5 -49t-73 -30t-86.5 -10q-72 0 -129 24
t-92 53l72 96q24 -18 61.5 -35t83.5 -17q34 0 55 11t21 33q0 17 -12.5 25t-33.5 8h-102zM75 -139q17 -6 33.5 -10t33.5 -4q27 0 42 7t15 23q0 14 -15 17.5t-29 3.5q-34 0 -66 -13l26 69q42 12 86 12q19 0 37 -5t31.5 -15t22 -24.5t8.5 -33.5q0 -33 -14 -56t-36 -37.5
t-48 -20.5t-51 -6q-26 0 -53.5 4t-50.5 14z" />
    <glyph glyph-name="uni049A" unicode="&#x49a;" horiz-adv-x="654" 
d="M205 0h-170l130 667h170l-48 -246h9q36 0 60.5 18.5t49.5 56.5l113 171h194l-140 -206q-32 -48 -64 -73.5t-72 -39.5q36 -14 59.5 -41t38.5 -70l27 -79h77l-60 -312h-150l29 154h-38l-57 184q-11 35 -24.5 57t-48.5 22h-34z" />
    <glyph glyph-name="uni049B" unicode="&#x49b;" horiz-adv-x="567" 
d="M184 0h-160l93 476h160l-34 -171h19q26 0 43 15t34 41l77 115h168l-97 -143q-26 -38 -52 -59.5t-56 -31.5q32 -11 52 -33.5t34 -63.5l2 -7h82l-51 -262h-143l24 124h-40l-35 118q-6 20 -16 36.5t-36 16.5h-35z" />
    <glyph glyph-name="uni049C" unicode="&#x49c;" horiz-adv-x="702" 
d="M354 523h87l-18 -93q12 8 22.5 24t25.5 42l98 171h194l-125 -206q-30 -50 -63 -74.5t-73 -38.5q36 -14 61 -40.5t37 -70.5l67 -237h-197l-42 184q-7 31 -14.5 51.5t-24.5 25.5l-19 -99h-87l20 101h-47l-51 -263h-170l130 667h170l-48 -246h47z" />
    <glyph glyph-name="uni049D" unicode="&#x49d;" horiz-adv-x="604" 
d="M184 0h-160l93 476h160l-34 -171h39l17 86h73l-15 -79q11 7 20 19.5t20 29.5l77 115h168l-97 -143q-26 -38 -52 -59.5t-56 -31.5q32 -11 52 -33.5t34 -63.5l49 -145h-175l-35 118l-11 36.5t-22 16.5l-17 -91h-73l17 91h-39z" />
    <glyph glyph-name="uni049E" unicode="&#x49e;" horiz-adv-x="666" 
d="M205 0h-170l100 514h-58l17 90h58l13 63h170l-13 -63h75l-17 -90h-76l-20 -103h23q37 0 61.5 19.5t50.5 58.5l114 178h194l-142 -212q-33 -49 -64.5 -75.5t-72.5 -41.5q37 -14 60.5 -40t39.5 -68l83 -230h-197l-58 177q-5 17 -10.5 31t-13.5 24t-20 15.5t-30 5.5h-48z
" />
    <glyph glyph-name="uni049F" unicode="&#x49f;" horiz-adv-x="569" 
d="M204 0h-160l69 356h-55l17 86h55l7 34h160l-7 -34h49l-17 -86h-49l-11 -56h22q26 0 43 16t34 42l78 118h168l-97 -143q-26 -38 -52 -59.5t-56 -31.5q32 -11 52 -33.5t34 -63.5l49 -145h-175l-35 118q-7 23 -18 35.5t-35 12.5h-38z" />
    <glyph glyph-name="uni04A0" unicode="&#x4a0;" horiz-adv-x="749" 
d="M296 0h-170l100 512h-136l30 155h306l-48 -246h15q36 0 60.5 18.5t49.5 56.5l113 171h194l-140 -206q-32 -48 -64 -73.5t-72 -39.5q36 -14 59.5 -41t38.5 -70l82 -237h-197l-57 184q-5 18 -10.5 32.5t-13.5 25t-19.5 16t-29.5 5.5h-40z" />
    <glyph glyph-name="uni04A1" unicode="&#x4a1;" horiz-adv-x="628" 
d="M268 0h-160l65 334h-113l28 142h273l-34 -171h17q26 0 43 15t34 41l77 115h168l-97 -143q-26 -38 -52 -59.5t-56 -31.5q32 -11 52 -33.5t34 -63.5l49 -145h-175l-35 118q-6 20 -16 36.5t-36 16.5h-33z" />
    <glyph glyph-name="uni04A2" unicode="&#x4a2;" horiz-adv-x="714" 
d="M164 667h170l-47 -246h227l47 246h170l-99 -509h68l-60 -312h-150l29 154h-87l50 263h-227l-50 -263h-170z" />
    <glyph glyph-name="uni04A3" unicode="&#x4a3;" horiz-adv-x="596" 
d="M583 476l-66 -338h61l-51 -262h-143l24 124h-81l33 169h-141l-33 -169h-162l93 476h162l-33 -169h141l33 169h163z" />
    <glyph glyph-name="uni04A4" unicode="&#x4a4;" horiz-adv-x="782" 
d="M164 667h170l-47 -246h226l47 246h305l-29 -151h-135l-100 -516h-170l50 259h-226l-50 -259h-170z" />
    <glyph glyph-name="uni04A5" unicode="&#x4a5;" horiz-adv-x="644" 
d="M691 476l-27 -138h-112l-66 -338h-163l33 169h-137l-33 -169h-162l93 476h162l-33 -169h137l33 169h275z" />
    <glyph glyph-name="uni04A6" unicode="&#x4a6;" horiz-adv-x="1037" 
d="M165 667h561l-51 -263q19 8 44 13.5t56 5.5q52 0 96 -18.5t76 -54t49.5 -86t17.5 -114.5q0 -81 -28 -148t-74.5 -114.5t-107.5 -73.5t-127 -26q-54 0 -108 17l54 148q26 -8 53 -8q36 0 65.5 15.5t50.5 42t32 62t11 74.5q0 37 -9.5 63.5t-26 43t-37.5 24t-44 7.5
q-19 0 -36.5 -4.5t-34.5 -12.5l-51 -260h-170l99 509h-221l-99 -509h-170z" />
    <glyph glyph-name="uni04A7" unicode="&#x4a7;" horiz-adv-x="820" 
d="M565 476l-39 -196q27 9 61 9q42 0 78 -14.5t62 -42t41 -67.5t15 -91q0 -63 -21 -115t-57.5 -90t-86.5 -59t-108 -21q-21 0 -44 3t-46 10l48 133q20 -5 35 -5q27 0 49 11t37 29.5t23.5 43.5t8.5 53q0 26 -8 43.5t-20 28.5t-27.5 15.5t-30.5 4.5q-20 0 -33 -6l-30 -153
h-162l66 338h-124l-66 -338h-162l93 476h448z" />
    <glyph glyph-name="uni04A8" unicode="&#x4a8;" horiz-adv-x="762" 
d="M605 -17q-29 0 -56 5.5t-52 15.5q-32 -12 -62.5 -16t-53.5 -4q-65 0 -121.5 22t-98 62.5t-65.5 97.5t-24 128q0 80 30 151t83 124t124.5 84t154.5 31q34 0 67 -6t64 -19l-51 -136q-39 13 -82 13q-48 0 -90 -18t-72.5 -50t-48.5 -77t-18 -99q0 -79 38 -126.5t101 -56.5
q-19 32 -29 68t-10 78q0 55 17 97.5t46 71.5t67.5 44.5t81.5 15.5q42 0 77.5 -14t61 -39t40 -59.5t14.5 -74.5q0 -66 -36.5 -121t-94.5 -97q24 1 55 8t51 15l25 -94q-24 -10 -61 -17.5t-72 -7.5zM597 288q0 34 -15 52.5t-39 18.5q-17 0 -30.5 -10t-23 -26.5t-14.5 -38
t-5 -45.5q0 -28 6.5 -55.5t20.5 -49.5q45 25 72.5 66.5t27.5 87.5z" />
    <glyph glyph-name="uni04A9" unicode="&#x4a9;" horiz-adv-x="563" 
d="M390 356q-29 8 -54 8q-29 0 -54.5 -10.5t-45 -30t-31 -46.5t-11.5 -60q0 -48 23.5 -80.5t65.5 -40.5q-21 37 -21 82q0 28 9.5 54.5t28.5 47.5t46.5 33.5t62.5 12.5q31 0 55.5 -9.5t41.5 -26.5t26.5 -39.5t9.5 -47.5q0 -40 -21 -74.5t-50 -60.5h6q12 0 25.5 2.5t27.5 5.5
l9 -82q-17 -5 -38 -7.5t-37 -2.5q-22 0 -42.5 5t-39.5 13q-26 -9 -53 -13.5t-51 -4.5q-49 0 -91.5 16.5t-73.5 47t-49 73t-18 94.5q0 59 23.5 110t63 88t92 58t111.5 21q49 0 97 -15zM441 198q0 20 -9.5 29.5t-25.5 9.5q-22 0 -33 -19.5t-11 -44.5q0 -18 5.5 -33t14.5 -27
q25 14 42 35.5t17 49.5z" />
    <glyph glyph-name="uni04AA" unicode="&#x4aa;" horiz-adv-x="665" 
d="M662 119q-57 -61 -126 -98t-164 -37q-66 0 -121 20.5t-94.5 59t-62 93.5t-22.5 124q0 82 28 155.5t79 129t121 88t154 32.5q108 0 177 -47.5t98 -129.5l-141 -73q-23 48 -55.5 68.5t-86.5 20.5q-46 0 -82.5 -19.5t-62 -51t-39 -73t-13.5 -84.5q0 -30 9 -57.5t26.5 -48.5
t43.5 -33.5t60 -12.5q53 0 91 22t75 65zM233 -139q17 -6 33.5 -10t33.5 -4q27 0 42 5.5t15 21.5q0 14 -15 16.5t-29 2.5q-37 0 -69 -13l26 69q21 6 44 9t45 3q19 0 37 -5t32.5 -15t23 -24t8.5 -33q0 -32 -14.5 -54.5t-36.5 -36t-48.5 -19.5t-51.5 -6q-26 0 -53.5 4t-50.5 14
z" />
    <glyph glyph-name="uni04AB" unicode="&#x4ab;" horiz-adv-x="492" 
d="M462 67q-38 -36 -87.5 -59.5t-113.5 -23.5q-50 0 -90 15.5t-68 44t-42.5 68t-14.5 87.5q0 57 20.5 110t57.5 93.5t88.5 65t113.5 24.5q75 0 120 -35.5t68 -95.5l-123 -62q-11 22 -27 37t-46 15q-25 0 -45 -11t-34 -29.5t-21.5 -43t-7.5 -50.5q0 -25 6 -42.5t16.5 -28.5
t24 -16t27.5 -5q26 0 50.5 13.5t43.5 32.5zM124 -139q17 -6 33.5 -10t33.5 -4q27 0 42 7t15 23q0 14 -15 17.5t-29 3.5q-34 0 -66 -13l26 69q42 12 86 12q19 0 37 -5t31.5 -15t22 -24.5t8.5 -33.5q0 -33 -14 -56t-36 -37.5t-48 -20.5t-51 -6q-26 0 -53.5 4t-50.5 14z" />
    <glyph glyph-name="uni04AC" unicode="&#x4ac;" horiz-adv-x="599" 
d="M287 516h-197l29 151h563l-29 -151h-195l-70 -358h69l-60 -312h-150l29 154h-89z" />
    <glyph glyph-name="uni04AD" unicode="&#x4ad;" horiz-adv-x="485" 
d="M386 138l-51 -262h-143l24 124h-81l66 338h-141l27 138h445l-27 -138h-141l-39 -200h61z" />
    <glyph glyph-name="uni04AE" unicode="&#x4ae;" horiz-adv-x="621" 
d="M252 270l-147 397h180l77 -245l172 245h189l-301 -395l-52 -272h-170z" />
    <glyph glyph-name="uni04AF" unicode="&#x4af;" horiz-adv-x="534" 
d="M72 476h169l39 -289l139 289h177l-269 -453l-43 -223h-162l44 229z" />
    <glyph glyph-name="uni04B0" unicode="&#x4b0;" horiz-adv-x="621" 
d="M551 273l-17 -90h-133l-35 -183h-162l35 183h-132l17 90h131l-150 394h180l77 -245l172 245h189l-304 -394h132z" />
    <glyph glyph-name="uni04B1" unicode="&#x4b1;" horiz-adv-x="534" 
d="M41 0l17 86h103l-89 390h169l39 -289l139 289h177l-239 -390h101l-17 -86h-123l-38 -200h-154l38 200h-123z" />
    <glyph glyph-name="uni04B2" unicode="&#x4b2;" horiz-adv-x="667" 
d="M263 351l-148 316h191l80 -186l139 186h189l-255 -321l90 -184h104l-61 -316h-150l29 154h-39l-94 210l-161 -210h-191z" />
    <glyph glyph-name="uni04B3" unicode="&#x4b3;" horiz-adv-x="538" 
d="M191 244l-119 232h170l58 -123l96 123h177l-204 -235l52 -103h99l-51 -262h-143l24 124h-31l-62 130l-100 -130h-177z" />
    <glyph glyph-name="uni04B4" unicode="&#x4b4;" horiz-adv-x="836" 
d="M261 516h-171l29 151h478l-29 -151h-137l-70 -358h223l99 509h170l-99 -509h68l-60 -312h-149l30 154h-482z" />
    <glyph glyph-name="uni04B5" unicode="&#x4b5;" horiz-adv-x="678" 
d="M440 476l-26 -136h-82l-40 -204h146l66 340h159l-66 -340h62l-51 -260h-143l24 124h-383l67 340h-113l26 136h354z" />
    <glyph glyph-name="uni04B6" unicode="&#x4b6;" horiz-adv-x="665" 
d="M680 667l-99 -509h69l-60 -312h-149l29 154h-89l47 240q-22 -11 -53 -19t-69 -8q-49 0 -85.5 15.5t-61 42.5t-36.5 63.5t-12 78.5q0 15 2 31.5t7 42.5l35 180h170l-33 -176q-3 -14 -4 -24t-1 -19q0 -40 22.5 -62.5t71.5 -22.5q22 0 40.5 4.5t33.5 12.5l55 287h170z" />
    <glyph glyph-name="uni04B7" unicode="&#x4b7;" horiz-adv-x="563" 
d="M549 476l-66 -338h61l-51 -262h-143l24 124h-81l28 145q-19 -7 -38.5 -10t-38.5 -3q-41 0 -72 13.5t-52.5 36.5t-32.5 53.5t-11 63.5q0 10 1 21.5t5 28.5l25 127h163l-26 -135q-1 -5 -1.5 -10t-0.5 -10q0 -23 13.5 -39.5t45.5 -16.5q14 0 24 2t21 6l40 203h163z" />
    <glyph glyph-name="uni04B8" unicode="&#x4b8;" horiz-adv-x="657" 
d="M371 126h-87l17 87q-49 3 -85 19.5t-59.5 43.5t-35 62.5t-11.5 75.5q0 28 6 60l38 193h170l-35 -187q-2 -10 -3 -18.5t-1 -16.5q0 -58 46 -77l21 109h87l-23 -118q34 4 60 16l56 292h170l-129 -667h-170l47 240q-13 -6 -28 -11t-33 -9z" />
    <glyph glyph-name="uni04B9" unicode="&#x4b9;" horiz-adv-x="557" 
d="M576 476l-92 -476h-160l27 143q-10 -3 -19.5 -5.5t-19.5 -4.5l-14 -70h-73l13 68q-40 3 -70.5 17.5t-50.5 37t-30.5 51.5t-10.5 61q0 21 4 40l27 138h160l-27 -140q-1 -5 -1.5 -9.5t-0.5 -9.5q0 -34 27 -48l19 95h73l-20 -103q20 2 39 7l40 208h160z" />
    <glyph glyph-name="uni04BA" unicode="&#x4ba;" horiz-adv-x="651" 
d="M35 0l129 667h170l-43 -220q23 11 55.5 19t72.5 8q52 0 90 -16t63.5 -43t38 -63.5t12.5 -78.5q0 -15 -1.5 -31.5t-6.5 -39.5l-40 -202h-170l36 191q2 12 4 25.5t2 21.5q0 41 -23.5 63.5t-77.5 22.5q-25 0 -45 -4.5t-37 -12.5l-59 -307h-170z" />
    <glyph glyph-name="uni04BB" unicode="&#x4bb;" horiz-adv-x="554" 
d="M154 667h161l-47 -242q36 36 70.5 48.5t76.5 12.5q33 0 57.5 -12.5t40 -33.5t23.5 -48t8 -55q0 -11 -1 -22.5t-5 -29.5l-56 -285h-162l50 260q3 13 3 26q0 23 -11.5 38.5t-39.5 15.5q-38 0 -59 -25t-28 -60l-49 -255h-162z" />
    <glyph glyph-name="uni04BC" unicode="&#x4bc;" horiz-adv-x="864" 
d="M556 129q29 0 53 7.5t43 19.5t34 27t26 29l98 -95q-21 -28 -48 -52t-60.5 -42t-73.5 -28.5t-87 -10.5q-66 0 -120.5 20.5t-95 58.5t-63.5 91.5t-26 120.5q-34 1 -63.5 12t-51 30.5t-34 47t-12.5 62.5q0 40 16.5 76t42.5 65l98 -51q-12 -16 -20.5 -34t-8.5 -35
q0 -19 12 -33t35 -15q15 58 46.5 110t76 91t101 61.5t123.5 22.5q63 0 113.5 -20.5t86.5 -58.5t55.5 -91t19.5 -119q0 -57 -15 -121h-446q7 -66 42 -106t103 -40zM709 400q1 5 1 9.5v9.5q0 52 -32 88t-92 36q-33 0 -59.5 -11.5t-46.5 -31t-34 -45.5t-23 -55h286z" />
    <glyph glyph-name="uni04BD" unicode="&#x4bd;" horiz-adv-x="650" 
d="M45 316q0 30 11 59.5t37 58.5l79 -46q-10 -12 -17.5 -26t-7.5 -31q0 -18 10 -30t31 -15q12 48 35.5 86t57 65t75.5 41t89 14q49 0 85.5 -17t61 -45.5t37 -65t12.5 -74.5q0 -26 -3.5 -50.5t-9.5 -49.5h-293q8 -45 33.5 -62t64.5 -17q32 0 63.5 9.5t57.5 23.5l49 -107
q-45 -26 -92 -39.5t-103 -13.5q-42 0 -82 11t-72 35.5t-52.5 63.5t-22.5 96q-30 0 -55 10t-42.5 27.5t-27 40t-9.5 48.5zM496 286q1 4 1 11q0 35 -17.5 53t-47.5 18q-32 0 -56.5 -19.5t-35.5 -62.5h156z" />
    <glyph glyph-name="uni04BE" unicode="&#x4be;" horiz-adv-x="864" 
d="M403 -154l30 154q-87 29 -139.5 100.5t-57.5 174.5q-34 1 -63.5 12t-51 30.5t-34 47t-12.5 62.5q0 40 16.5 76t42.5 65l98 -51q-12 -16 -20.5 -34t-8.5 -35q0 -19 12 -33t35 -15q15 58 46.5 110t76 91t101 61.5t123.5 22.5q63 0 113.5 -20.5t86.5 -58.5t55.5 -91
t19.5 -119q0 -57 -15 -121h-446q7 -66 42.5 -107.5t101.5 -41.5q28 0 51.5 7.5t43 19.5t35 27.5t27.5 31.5l98 -95q-38 -50 -95 -86.5t-135 -44.5l-27 -140h-150zM709 400q1 5 1 9.5v9.5q0 52 -32 88t-92 36q-33 0 -59.5 -11.5t-46.5 -31t-34 -45.5t-23 -55h286z" />
    <glyph glyph-name="uni04BF" unicode="&#x4bf;" horiz-adv-x="650" 
d="M287 -124l24 124q-54 19 -91.5 64.5t-40.5 125.5q-30 0 -55 10t-42.5 27.5t-27 40t-9.5 48.5q0 30 11 59.5t37 58.5l79 -46q-10 -12 -17.5 -26t-7.5 -31q0 -18 10 -30t31 -15q12 48 35.5 86t57 65t75.5 41t89 14q49 0 85.5 -17t61 -45.5t37 -65t12.5 -74.5
q0 -26 -3.5 -50.5t-9.5 -49.5h-293q7 -47 33 -64.5t65 -17.5q32 0 63.5 10t57.5 26l49 -107q-36 -21 -73 -33.5t-79 -17.5l-21 -110h-143zM496 286q1 4 1 11q0 35 -17.5 53t-47.5 18q-32 0 -56.5 -19.5t-35.5 -62.5h156z" />
    <glyph glyph-name="uni04C0" unicode="&#x4c0;" horiz-adv-x="289" 
d="M164 667h170l-129 -667h-170z" />
    </font>
</defs>
</svg>
