<?xml version="1.0" standalone="no"?>
<!DOCTYPE svg PUBLIC "-//W3C//DTD SVG 1.1//EN" "http://www.w3.org/Graphics/SVG/1.1/DTD/svg11.dtd" >
<svg>
<metadata>
Created by FontForge 20090622 at Mon Aug 31 22:50:05 2015
 By deploy user
Copyright 2013 Dalton Maag Ltd. Modification of this file requires prior written permission from Dalton Maag Ltd.
</metadata>
<defs>
<font id="Effra-Regular" horiz-adv-x="360" >
  <font-face 
    font-family="Effra"
    font-weight="400"
    font-stretch="normal"
    units-per-em="1000"
    panose-1="2 11 6 3 2 2 3 2 2 4"
    ascent="798"
    descent="-202"
    x-height="465"
    cap-height="667"
    bbox="-146 -226 1222 917"
    underline-thickness="45"
    underline-position="-123"
    unicode-range="U+0008-U+FB04"
  />
<missing-glyph horiz-adv-x="500" 
d="M50 0v750h400v-750h-400zM400 50v650h-300v-650h300z" />
    <glyph glyph-name="f_f" unicode="ff" horiz-adv-x="637" 
d="M97 390h-85v75h85v32q0 52 14.5 88t38 58t51.5 31.5t55 9.5q36 0 69 -12t62 -39l-44 -58q-36 31 -75 31q-38 0 -59.5 -24.5t-21.5 -81.5v-35h217v35q0 48 13.5 82.5t35.5 57t51 33.5t61 11q37 0 73 -11.5t65 -39.5l-45 -58q-37 31 -79 31q-39 0 -62 -26t-23 -83v-32h132
v-75h-132v-390h-90v390h-217v-390h-90v390z" />
    <glyph glyph-name="f_i" unicode="fi" horiz-adv-x="544" 
d="M97 390h-84v75h84v20q0 54 16.5 92t45.5 61.5t68 34.5t84 11q41 0 86 -13t80 -38l-41 -67q-24 17 -55.5 29t-69.5 12q-59 0 -91.5 -24.5t-32.5 -86.5v-31h291v-465h-90v390h-201v-390h-90v390z" />
    <glyph glyph-name="f_l" unicode="fl" horiz-adv-x="551" 
d="M97 390h-84v75h84v23q0 52 15.5 89.5t43 61t66.5 34.5t87 11q30 0 58.5 -4.5t52 -11.5t41.5 -15.5t28 -15.5v-637h-90v591q-17 8 -41 12t-50 4q-66 0 -93.5 -27t-27.5 -92v-23h132v-75h-132v-390h-90v390z" />
    <glyph glyph-name="f_f_i" unicode="ffi" horiz-adv-x="851" 
d="M97 390h-85v75h85v32q0 52 14.5 88t38 58t51.5 31.5t55 9.5q36 0 69 -12t62 -39l-44 -58q-36 31 -75 31q-38 0 -59.5 -24.5t-21.5 -81.5v-35h217v20q0 54 16.5 92t45.5 61.5t68 34.5t84 11q41 0 86 -13t80 -38l-41 -67q-24 17 -55.5 29t-69.5 12q-59 0 -91.5 -24.5
t-32.5 -86.5v-31h291v-465h-90v390h-201v-390h-90v390h-217v-390h-90v390z" />
    <glyph glyph-name="f_f_l" unicode="ffl" horiz-adv-x="858" 
d="M97 390h-85v75h85v32q0 52 14.5 88t38 58t51.5 31.5t55 9.5q36 0 69 -12t62 -39l-44 -58q-36 31 -75 31q-38 0 -59.5 -24.5t-21.5 -81.5v-35h217v23q0 52 15.5 89.5t43 61t66.5 34.5t87 11q30 0 58.5 -4.5t52 -11.5t41.5 -15.5t28 -15.5v-637h-90v591q-17 8 -41 12t-50 4
q-66 0 -93.5 -27t-27.5 -92v-23h132v-75h-132v-390h-90v390h-217v-390h-90v390z" />
    <glyph glyph-name=".notdef" horiz-adv-x="500" 
d="M50 0v750h400v-750h-400zM400 50v650h-300v-650h300z" />
    <glyph glyph-name=".null" horiz-adv-x="0" 
 />
    <glyph glyph-name=".null" horiz-adv-x="0" 
 />
    <glyph glyph-name=".null" horiz-adv-x="0" 
 />
    <glyph glyph-name="nonmarkingreturn" unicode="&#x9;" horiz-adv-x="181" 
 />
    <glyph glyph-name="nonmarkingreturn" unicode="&#xd;" horiz-adv-x="181" 
 />
    <glyph glyph-name="space" unicode=" " horiz-adv-x="181" 
 />
    <glyph glyph-name="exclam" unicode="!" horiz-adv-x="258" 
d="M78 667h100l-2 -475h-95zM72 109h112v-109h-112v109z" />
    <glyph glyph-name="quotedbl" unicode="&#x22;" horiz-adv-x="364" 
d="M218 667h86v-221h-86v221zM64 667h86v-221h-86v221z" />
    <glyph glyph-name="numbersign" unicode="#" horiz-adv-x="755" 
d="M184 164h-119v72h138l41 153h-119v72h138l44 164h82l-44 -164h148l44 164h82l-44 -164h114v-72h-134l-40 -153h113v-72h-133l-44 -164h-81l44 164h-149l-44 -164h-81zM433 236l41 153h-149l-41 -153h149z" />
    <glyph glyph-name="dollar" unicode="$" horiz-adv-x="545" 
d="M95 156q13 -15 28.5 -29.5t34.5 -27t42 -21t51 -11.5v223q-35 10 -69 22.5t-60.5 33t-42.5 51t-16 75.5q0 33 11.5 62t35 51.5t58.5 37t83 18.5v88h62v-88q39 -4 67 -15t48.5 -24.5t33 -26.5t19.5 -22l-64 -57q-11 14 -35 34.5t-69 28.5v-198q37 -9 70.5 -24t59.5 -37.5
t41.5 -55.5t15.5 -78q0 -37 -14 -68t-38.5 -54t-59 -37.5t-75.5 -19.5v-88h-62v86q-43 3 -78 14t-62 27t-47 34.5t-33 35.5zM313 68q51 7 74.5 32t23.5 69q0 37 -20.5 60.5t-77.5 43.5v-205zM251 562q-55 -5 -78 -30.5t-23 -57.5q0 -18 4 -32t15.5 -25.5t31 -21.5t50.5 -19
v186z" />
    <glyph glyph-name="percent" unicode="%" horiz-adv-x="892" 
d="M603 630h85l-405 -630h-85zM689 -8q-68 0 -111.5 46t-43.5 135t43.5 134.5t111.5 45.5q34 0 62.5 -11.5t49 -34t32 -56t11.5 -78.5q0 -89 -43.5 -135t-111.5 -46zM689 55q14 0 27.5 6t24.5 20t18 36.5t7 55.5t-7 55.5t-18 36t-24.5 19.5t-27.5 6t-28 -6t-25 -19.5
t-18 -36t-7 -55.5t7 -55.5t18 -36.5t25 -20t28 -6zM202 286q-68 0 -111.5 46t-43.5 135t43.5 134.5t111.5 45.5q34 0 62.5 -11.5t49 -34t32 -56t11.5 -78.5q0 -89 -43.5 -135t-111.5 -46zM202 349q14 0 27.5 6t24.5 20t18 36.5t7 55.5t-7 55.5t-18 36t-24.5 19.5t-27.5 6
t-28 -6t-25 -19.5t-18 -36t-7 -55.5t7 -55.5t18 -36.5t25 -20t28 -6z" />
    <glyph glyph-name="ampersand" unicode="&#x26;" horiz-adv-x="638" 
d="M441 73q-35 -37 -80.5 -63t-113.5 -26q-51 0 -90.5 14.5t-66 40t-40 59t-13.5 71.5q0 63 34 114t104 99l-12 15q-24 30 -37 62t-13 68q0 30 12 58.5t34.5 50.5t55.5 35t75 13q38 0 65.5 -9.5t48 -25t34 -35t23.5 -40.5l-67 -43q-26 45 -49.5 59.5t-49.5 14.5
q-43 0 -65 -23t-22 -54q0 -27 14.5 -52.5t38.5 -53.5l182 -213l87 111l68 -54l-99 -124l122 -142h-116zM228 319q-52 -36 -73.5 -68.5t-21.5 -76.5q0 -45 30 -75t88 -30q46 0 77.5 20.5t56.5 49.5z" />
    <glyph glyph-name="quotesingle" unicode="'" horiz-adv-x="202" 
d="M58 667h86v-221h-86v221z" />
    <glyph glyph-name="parenleft" unicode="(" horiz-adv-x="290" 
d="M164 -93q-13 22 -30.5 59.5t-33 88.5t-26.5 114.5t-11 136.5t11 136.5t26.5 114.5t33 89t30.5 60h88q-16 -29 -32.5 -70t-29.5 -92t-21.5 -111t-8.5 -127q0 -66 8.5 -126t21.5 -111t29.5 -92t32.5 -70h-88z" />
    <glyph glyph-name="parenright" unicode=")" horiz-adv-x="290" 
d="M39 -93q16 29 32 70t29.5 92t22 111t8.5 126q0 67 -8.5 127t-22 111t-29.5 92t-32 70h87q13 -22 30 -60t33 -89t27 -114.5t11 -136.5t-11 -136.5t-27 -114.5t-33 -88.5t-30 -59.5h-87z" />
    <glyph glyph-name="asterisk" unicode="*" horiz-adv-x="501" 
d="M63 451l125 67l-125 66l36 63l121 -76l-6 143h73l-5 -143l120 76l36 -63l-125 -66l125 -67l-36 -63l-120 76l5 -142h-73l6 142l-121 -76z" />
    <glyph glyph-name="plus" unicode="+" horiz-adv-x="545" 
d="M73 360h161v157h78v-157h160v-78h-159v-157h-79v157h-161v78z" />
    <glyph glyph-name="comma" unicode="," horiz-adv-x="256" 
d="M117 0h-40v111h113v-110l-69 -118h-55z" />
    <glyph glyph-name="hyphen" unicode="-" horiz-adv-x="439" 
d="M73 323h293v-86h-293v86z" />
    <glyph glyph-name="period" unicode="." horiz-adv-x="256" 
d="M71 112h113v-112h-113v112z" />
    <glyph glyph-name="slash" unicode="/" horiz-adv-x="406" 
d="M291 685h89l-264 -701h-91z" />
    <glyph glyph-name="zero" unicode="0" horiz-adv-x="545" 
d="M272 -14q-59 0 -103.5 24t-75 68t-46 106t-15.5 138q0 75 15.5 135t46.5 102.5t75.5 65.5t103.5 23q58 0 103 -23t75.5 -65.5t46 -102.5t15.5 -135q0 -76 -15.5 -138t-46.5 -106t-76 -68t-103 -24zM272 69q36 0 63.5 18.5t46 52t28 80t9.5 102.5q0 55 -9.5 100
t-28.5 76.5t-46 48.5t-63 17t-63 -17t-45.5 -48.5t-28 -76.5t-9.5 -100q0 -56 9.5 -102.5t28 -80t45.5 -52t63 -18.5z" />
    <glyph glyph-name="one" unicode="1" horiz-adv-x="545" 
d="M141 80h112v455l-130 -70l-37 71l177 97h81v-553h110v-80h-313v80z" />
    <glyph glyph-name="two" unicode="2" horiz-adv-x="545" 
d="M68 65q0 53 25 93t60 75q43 43 81.5 74t67.5 57t45.5 51.5t16.5 58.5q0 15 -5.5 31t-18.5 29.5t-33 22.5t-50 9q-27 0 -48 -7.5t-37 -18.5t-27 -25l-20 -26l-67 48q10 18 27.5 37.5t42 36t58 27t77.5 10.5q51 0 88.5 -14t61.5 -37.5t36 -53.5t12 -63q0 -35 -12 -65.5
t-32 -56.5t-45.5 -49.5t-52.5 -44.5l-59.5 -48t-48 -45t-32 -44t-11.5 -45h300v-82h-400v65z" />
    <glyph glyph-name="three" unicode="3" horiz-adv-x="545" 
d="M87 118q25 -20 59 -37.5t86 -17.5q63 0 100 34t37 91q0 51 -31.5 84t-92.5 33q-18 0 -33 -3t-29 -8l-29 47l177 206h-252v83h362v-72l-162 -189q42 0 76 -13t58.5 -37t37.5 -57.5t13 -74.5q0 -50 -18 -88t-49.5 -63.5t-74 -39t-91.5 -13.5q-36 0 -66 6t-54 16t-43 22.5
t-34 25.5z" />
    <glyph glyph-name="four" unicode="4" horiz-adv-x="545" 
d="M49 208l286 423h91v-422h68v-78h-68v-131h-87v131h-290v77zM339 209v301l-201 -301h201z" />
    <glyph glyph-name="five" unicode="5" horiz-adv-x="545" 
d="M89 118q28 -23 61.5 -38.5t83.5 -15.5q35 0 61 10.5t43.5 28.5t26 42t8.5 52q0 19 -6 41t-21 40.5t-41 30.5t-66 12q-41 0 -65 -8t-44 -18l-46 35l60 300h309v-84h-246l-29 -165q10 6 32 11.5t53 5.5q45 0 82.5 -13t64.5 -38.5t42 -62t15 -84.5q0 -44 -14 -83t-43 -69
t-74 -47.5t-107 -17.5q-66 0 -112.5 20t-78.5 49z" />
    <glyph glyph-name="six" unicode="6" horiz-adv-x="545" 
d="M437 534q-3 2 -11.5 7t-22.5 10.5t-32.5 10t-40.5 4.5q-42 0 -74 -18t-54 -48t-34 -68.5t-13 -79.5q22 15 57 32.5t89 17.5q91 0 142.5 -54t51.5 -153q0 -47 -15.5 -86t-43 -67t-65.5 -43.5t-83 -15.5q-106 0 -165.5 75t-59.5 227q0 84 17.5 151t52 114t84.5 72t116 25
q51 0 88.5 -15t56.5 -27zM154 273q0 -99 31 -154.5t102 -55.5q24 0 46 9t39 26t27 42t10 57q0 54 -27.5 89.5t-89.5 35.5q-48 0 -81.5 -14.5t-56.5 -34.5z" />
    <glyph glyph-name="seven" unicode="7" horiz-adv-x="545" 
d="M140 0q23 71 55 151.5t65.5 156.5t65 139t53.5 99h-310v85h403v-82q-15 -23 -34.5 -62l-42 -86.5l-46 -101.5l-44.5 -107t-39 -103t-29 -89h-97z" />
    <glyph glyph-name="eight" unicode="8" horiz-adv-x="545" 
d="M273 379q48 15 77 44t29 68q0 37 -29 61.5t-77 24.5t-77 -24.5t-29 -66.5q0 -34 27.5 -63t78.5 -44zM269 302q-27 -7 -51 -19.5t-42 -29t-28.5 -37t-10.5 -44.5q0 -30 12.5 -51.5t32 -35t43.5 -19.5t48 -6t48 6t43.5 19.5t31.5 35t12 51.5q0 24 -11.5 44.5t-31 37
t-44.5 29t-52 19.5zM176 344q-40 21 -68 56t-28 86q0 35 13.5 65t38.5 51.5t60.5 33.5t80.5 12q47 0 83 -12t60 -33t36.5 -49.5t12.5 -61.5q0 -47 -26 -85t-74 -60q18 -8 41.5 -22t44.5 -36t35.5 -51.5t14.5 -67.5q0 -32 -12.5 -65t-40 -60t-71 -44t-104.5 -17
q-63 0 -106.5 17t-70.5 44t-39.5 59.5t-12.5 64.5q0 33 11 60t29.5 49t42.5 38.5t49 27.5z" />
    <glyph glyph-name="nine" unicode="9" horiz-adv-x="545" 
d="M106 99q3 -2 13 -7.5t25.5 -11.5t35 -10.5t41.5 -4.5q42 0 73 17.5t51.5 46.5t31 67.5t12.5 79.5q-18 -15 -53.5 -32t-94.5 -17q-45 0 -81 15.5t-61.5 43t-39 65.5t-13.5 84q0 47 16 86t44 67.5t66.5 44t83.5 15.5q106 0 165.5 -75.5t59.5 -227.5q0 -83 -16.5 -149.5
t-49.5 -113t-82 -72t-114 -25.5q-26 0 -49.5 4.5t-43.5 10.5t-35 13t-24 13zM390 357q0 98 -31.5 154t-101.5 56q-24 0 -46.5 -8.5t-39.5 -25.5t-28 -42t-11 -57q0 -26 7 -48.5t21.5 -39.5t37.5 -27t56 -10q50 0 81.5 14t54.5 34z" />
    <glyph glyph-name="colon" unicode=":" horiz-adv-x="256" 
d="M71 466h113v-112h-113v112zM71 112h113v-112h-113v112z" />
    <glyph glyph-name="semicolon" unicode=";" horiz-adv-x="256" 
d="M71 466h113v-112h-113v112zM111 0h-40v111h113v-110l-69 -118h-55z" />
    <glyph glyph-name="less" unicode="&#x3c;" horiz-adv-x="545" 
d="M71 349l366 192l34 -68l-295 -153l295 -153l-34 -68l-366 192v58z" />
    <glyph glyph-name="equal" unicode="=" horiz-adv-x="545" 
d="M73 442h399v-78h-399v78zM73 269h399v-78h-399v78z" />
    <glyph glyph-name="greater" unicode="&#x3e;" horiz-adv-x="545" 
d="M73 167l295 153l-295 153l34 68l366 -192v-58l-366 -192z" />
    <glyph glyph-name="question" unicode="?" horiz-adv-x="506" 
d="M167 110h111v-110h-111v110zM177 220q0 54 22 97t73 80l32.5 24.5t29.5 26.5t21 31t8 37q0 38 -31 61.5t-82 23.5q-28 0 -51 -7t-42 -17t-33 -22.5t-24 -22.5l-60 55q9 12 26 28.5t43 31.5t61 26t80 11q49 0 87 -13.5t64.5 -36.5t40 -53.5t13.5 -64.5q0 -29 -7 -51.5
t-20 -42t-32 -36.5t-43 -35l-36 -27.5t-27 -27.5t-17 -33.5t-6 -43.5v-27h-90v28z" />
    <glyph glyph-name="at" unicode="@" horiz-adv-x="956" 
d="M183 -14q-23 17 -47 45t-43.5 65.5t-32 84t-12.5 100.5q0 102 36 178t96 126.5t137.5 75t161.5 24.5q91 0 170 -24.5t136.5 -73t90.5 -121.5t33 -170q0 -92 -21 -152t-51.5 -95.5t-66 -50t-65.5 -14.5q-16 0 -32.5 3.5t-31 11t-25.5 20.5t-17 33q-41 -41 -83 -54t-87 -13
q-26 0 -54 8t-51 26t-38 46t-15 67q0 75 52.5 120.5t151.5 45.5q38 0 66.5 -2t45.5 -4v17q0 48 -30.5 70.5t-82.5 22.5q-54 0 -85.5 -14.5t-52.5 -29.5l-43 62q13 11 30.5 21.5t40.5 19t52.5 14t67.5 5.5q88 0 139.5 -43t51.5 -124v-201q0 -28 12.5 -39.5t31.5 -11.5
q17 0 36 12.5t34.5 40.5t25.5 73.5t10 111.5q0 82 -28.5 141t-76.5 97t-111.5 56t-132.5 18q-59 0 -119.5 -17t-109.5 -55.5t-80.5 -100.5t-31.5 -152q0 -51 10.5 -91t26.5 -70t33.5 -51t32.5 -34zM587 220q-10 2 -37 4.5t-69 2.5q-36 0 -60 -9t-37.5 -22.5t-19 -29.5
t-5.5 -31q0 -35 25.5 -55t72.5 -20q25 0 48.5 8t41.5 22.5t29 33.5t11 40v56z" />
    <glyph glyph-name="A" unicode="A" horiz-adv-x="641" 
d="M271 667h98l261 -667h-107l-69 186h-274l-69 -186h-101zM425 267l-108 293l-109 -293h217z" />
    <glyph glyph-name="B" unicode="B" horiz-adv-x="590" 
d="M76 667h226q52 0 90 -13.5t63 -36.5t37.5 -54t12.5 -66q0 -32 -11.5 -58t-28 -44t-36 -29t-33.5 -13q19 -3 44.5 -12.5t47.5 -28.5t37 -49.5t15 -75.5q0 -54 -19.5 -89.5t-53 -57.5t-79.5 -31t-98 -9h-214v667zM285 83q26 0 54 3t51.5 14t38.5 32.5t15 59.5
q0 36 -14.5 58t-37 35t-49.5 17.5t-52 4.5h-122v-224h116zM288 389q22 0 44 5.5t40 17.5t29 31t11 46q0 30 -11 48.5t-29 29t-40 14t-44 3.5h-119v-195h119z" />
    <glyph glyph-name="C" unicode="C" horiz-adv-x="677" 
d="M642 117q-11 -18 -34 -41t-56 -43.5t-76 -34.5t-95 -14q-74 0 -135 26t-105 72.5t-68.5 110t-24.5 138.5q0 73 24.5 137t68.5 112t105.5 75.5t136.5 27.5q53 0 95 -13t73.5 -32.5t54 -42.5t36.5 -44l-68 -58q-12 17 -28.5 35.5t-39.5 33.5t-53 25t-69 10q-55 0 -98.5 -21
t-74 -57t-46.5 -84t-16 -102t16.5 -101.5t46.5 -82.5t73 -55t96 -20q45 0 77.5 11.5t55 27.5t37 32.5l24.5 27.5z" />
    <glyph glyph-name="D" unicode="D" horiz-adv-x="715" 
d="M76 667h223q79 0 145.5 -19.5t114.5 -61t75 -104.5t27 -150q0 -84 -27 -146.5t-75 -104t-115 -61.5t-146 -20h-222v667zM296 86q125 0 194.5 61.5t69.5 182.5q0 122 -67 186.5t-200 64.5h-121v-495h124z" />
    <glyph glyph-name="E" unicode="E" horiz-adv-x="564" 
d="M76 667h420v-85h-324v-194h244v-86h-244v-216h348v-86h-444v667z" />
    <glyph glyph-name="F" unicode="F" horiz-adv-x="529" 
d="M76 667h419v-86h-323v-204h246v-85h-246v-292h-96v667z" />
    <glyph glyph-name="G" unicode="G" horiz-adv-x="721" 
d="M417 339h234v-266q-19 -17 -43.5 -33t-57 -28.5t-72.5 -20t-90 -7.5q-78 0 -140.5 26.5t-107 73t-68 110t-23.5 138.5q0 73 24.5 137t68.5 111.5t105.5 75t136.5 27.5q53 0 95 -12.5t73.5 -32t53.5 -42.5t37 -44l-68 -58q-12 17 -29 35.5t-40 33.5t-52.5 25t-67.5 10
q-55 0 -99 -21t-74.5 -57t-47 -84.5t-16.5 -102.5q0 -58 18 -106t50.5 -82.5t76.5 -54t97 -19.5q58 0 98.5 13t69.5 36v136h-142v83z" />
    <glyph glyph-name="H" unicode="H" horiz-adv-x="709" 
d="M76 667h96v-279h365v279h96v-667h-96v302h-365v-302h-96v667z" />
    <glyph glyph-name="I" unicode="I" horiz-adv-x="248" 
d="M76 667h96v-667h-96v667z" />
    <glyph glyph-name="J" unicode="J" horiz-adv-x="494" 
d="M82 135q29 -33 58.5 -48t70.5 -15q24 0 44.5 7.5t36.5 23.5t25 41t9 60v463h96v-471q0 -58 -17 -98.5t-45.5 -66t-66.5 -37t-80 -11.5q-74 0 -121 26t-78 66z" />
    <glyph glyph-name="K" unicode="K" horiz-adv-x="603" 
d="M76 667h95v-303l279 303h110l-248 -272l278 -395h-115l-228 327l-76 -82v-245h-95v667z" />
    <glyph glyph-name="L" unicode="L" horiz-adv-x="548" 
d="M76 667h96v-582h347v-85h-443v667z" />
    <glyph glyph-name="M" unicode="M" horiz-adv-x="787" 
d="M99 667h92l203 -347l203 347h90l31 -667h-94l-22 512l-188 -315h-48l-185 311l-23 -508h-90z" />
    <glyph glyph-name="N" unicode="N" horiz-adv-x="707" 
d="M76 667h97l364 -521v521h94v-667h-96l-365 522v-522h-94v667z" />
    <glyph glyph-name="O" unicode="O" horiz-adv-x="779" 
d="M389 -17q-72 0 -134 27.5t-108 75t-72 111.5t-26 137t26 136.5t71.5 111t108 75t134.5 27.5t134.5 -27.5t108.5 -75t72 -111t26 -136.5t-26 -137t-72 -111.5t-108.5 -75t-134.5 -27.5zM389 73q55 0 99.5 21t76 57t48.5 83.5t17 100.5q0 54 -17 101.5t-48.5 83.5t-76 56.5
t-99.5 20.5t-99 -20.5t-75.5 -56.5t-48.5 -83.5t-17 -101.5q0 -53 17 -100.5t48.5 -83.5t75.5 -57t99 -21z" />
    <glyph glyph-name="P" unicode="P" horiz-adv-x="566" 
d="M76 667h211q68 0 112.5 -19t71 -48t37 -65t10.5 -70q0 -50 -17 -88t-47 -63.5t-71.5 -38.5t-90.5 -13h-121v-262h-95v667zM291 344q62 0 95.5 31.5t33.5 87.5q0 57 -34.5 89.5t-94.5 32.5h-120v-241h120z" />
    <glyph glyph-name="Q" unicode="Q" horiz-adv-x="779" 
d="M549 22q-35 -18 -75.5 -28.5t-84.5 -10.5q-72 0 -134.5 27.5t-108.5 74.5t-72 111t-26 137t26 137t72 111.5t108.5 75t134.5 27.5t134.5 -27.5t108.5 -75t72 -111.5t26 -137q0 -81 -31.5 -149.5t-86.5 -116.5l80 -97l-59 -50zM408 197l60 50l85 -106q36 35 56 85.5
t20 108.5q0 54 -17 101.5t-48.5 83t-75.5 56.5t-99 21t-99 -21t-75.5 -56.5t-48.5 -83t-17 -101.5t17 -101.5t48.5 -83.5t75.5 -57t99 -21t102 22z" />
    <glyph glyph-name="R" unicode="R" horiz-adv-x="590" 
d="M76 667h213q64 0 108 -17.5t71.5 -45t40 -62.5t12.5 -71q0 -64 -30 -113t-93 -73l156 -285h-108l-143 273h-134v-273h-93v667zM297 354q63 0 94.5 31t31.5 83q0 55 -34 85.5t-94 30.5h-126v-230h128z" />
    <glyph glyph-name="S" unicode="S" horiz-adv-x="582" 
d="M105 162q14 -16 31.5 -32.5t39.5 -29.5t49 -21t59 -8q66 0 103 30t37 81q0 55 -42 82.5t-121 44.5q-43 9 -78 25t-60.5 40t-39.5 55.5t-14 71.5q0 37 14 70t42 58t70 40t97 15q49 0 84.5 -10.5t60.5 -25.5t40 -31t23 -26l-64 -59q-6 7 -18 18.5t-30.5 22.5t-43 18.5
t-56.5 7.5t-55 -8.5t-38 -22t-22 -30.5t-7 -34q0 -25 10.5 -42.5t30.5 -31t49.5 -23t67.5 -18.5q37 -9 72.5 -23.5t63.5 -39t44.5 -60t16.5 -86.5q0 -43 -18 -79t-49.5 -62.5t-74.5 -41t-93 -14.5q-47 0 -85.5 11t-70 28t-55 37.5t-38.5 40.5z" />
    <glyph glyph-name="T" unicode="T" horiz-adv-x="621" 
d="M263 583h-239v84h573v-84h-238v-583h-96v583z" />
    <glyph glyph-name="U" unicode="U" horiz-adv-x="673" 
d="M71 667h96v-390q0 -45 8 -82.5t27.5 -64.5t52 -41.5t82.5 -14.5q49 0 81.5 14.5t52 41.5t27.5 64.5t8 82.5v390h96v-413q0 -57 -16 -106.5t-48.5 -86t-82.5 -57.5t-118 -21t-118 21t-83 57.5t-49 86t-16 106.5v413z" />
    <glyph glyph-name="V" unicode="V" horiz-adv-x="634" 
d="M10 667h107l203 -548l203 548h101l-258 -667h-98z" />
    <glyph glyph-name="W" unicode="W" horiz-adv-x="878" 
d="M17 667h106l128 -538l145 518h93l142 -517l128 537h100l-179 -667h-102l-139 493l-143 -493h-101z" />
    <glyph glyph-name="X" unicode="X" horiz-adv-x="598" 
d="M242 345l-220 322h116l162 -243l160 243h105l-214 -319l237 -348h-115l-179 269l-179 -269h-106z" />
    <glyph glyph-name="Y" unicode="Y" horiz-adv-x="577" 
d="M239 298l-230 369h107l174 -285l174 285h103l-231 -369v-298h-97v298z" />
    <glyph glyph-name="Z" unicode="Z" horiz-adv-x="642" 
d="M51 84l415 498h-395v85h512v-85l-410 -497h417v-85h-539v84z" />
    <glyph glyph-name="bracketleft" unicode="[" horiz-adv-x="315" 
d="M78 706h211v-81h-121v-635h121v-83h-211v799z" />
    <glyph glyph-name="backslash" unicode="\" horiz-adv-x="406" 
d="M25 685h89l266 -701h-91z" />
    <glyph glyph-name="bracketright" unicode="]" horiz-adv-x="315" 
d="M25 -10h121v635h-121v81h212v-799h-212v83z" />
    <glyph glyph-name="asciicircum" unicode="^" horiz-adv-x="549" 
d="M234 667h81l177 -359h-91l-127 268l-127 -268h-90z" />
    <glyph glyph-name="underscore" unicode="_" horiz-adv-x="500" 
d="M0 -70h500v-51h-500v51z" />
    <glyph glyph-name="grave" unicode="`" horiz-adv-x="447" 
d="M135 677h100l53 -136h-75z" />
    <glyph glyph-name="a" unicode="a" horiz-adv-x="499" 
d="M353 56q-26 -35 -68.5 -52t-87.5 -17q-29 0 -57.5 7.5t-52 25t-38 45t-14.5 67.5q0 75 52.5 120t151.5 45q16 0 34 -1t34 -2t28 -2t17 -2v17q0 52 -31.5 74.5t-85.5 22.5q-53 0 -84 -14.5t-52 -29.5l-42 61q12 10 29 20t40 18.5t52 14t67 5.5q90 0 141.5 -43.5
t51.5 -123.5v-271q0 -24 1 -41h-84zM352 220q-4 1 -15.5 2.5t-26.5 2.5t-32 2t-33 1q-38 0 -61.5 -9t-37 -22.5t-18.5 -30t-5 -31.5q0 -38 26 -57.5t72 -19.5q26 0 49.5 9t41.5 24t29 35t11 41v53z" />
    <glyph glyph-name="b" unicode="b" horiz-adv-x="548" 
d="M62 667h90v-253q7 9 19.5 20t30.5 20.5t41.5 15.5t52.5 6q52 0 91.5 -18.5t66.5 -51t40.5 -76.5t13.5 -94q0 -55 -19 -101t-53.5 -79t-82.5 -51.5t-106 -18.5q-57 0 -106 9t-79 21v651zM151 77q14 -4 34.5 -8.5t60.5 -4.5q39 0 70 12.5t53.5 35t34.5 54t12 68.5
q0 32 -7.5 61.5t-24 52t-41.5 36t-61 13.5q-33 0 -57.5 -11.5t-41 -30t-24.5 -43t-8 -50.5v-185z" />
    <glyph glyph-name="c" unicode="c" horiz-adv-x="493" 
d="M466 64q-31 -35 -76.5 -56.5t-105.5 -21.5q-56 0 -101.5 18.5t-77 51t-48.5 78t-17 99.5q0 51 18 96t50.5 78.5t77 53t98.5 19.5q59 0 104 -21t77 -57l-59 -57q-21 26 -51 41t-71 15q-36 0 -64.5 -13.5t-48 -37t-30 -54t-10.5 -63.5q0 -32 10.5 -62.5t30 -54t48 -37.5
t64.5 -14q41 0 73.5 15.5t53.5 41.5z" />
    <glyph glyph-name="d" unicode="d" horiz-adv-x="550" 
d="M397 59q-5 -6 -16.5 -18.5t-30.5 -24.5t-44.5 -21t-59.5 -9q-44 0 -82 17t-66 48t-43.5 75.5t-15.5 99.5q0 66 23 113.5t58.5 78t77 44.5t78.5 14q50 0 78 -12l43 -18v221h90v-620q0 -22 1 -47h-88zM397 362q-10 8 -37 21.5t-77 13.5q-33 0 -60.5 -12t-48 -34t-32 -54
t-11.5 -72q0 -33 8 -62.5t24.5 -51.5t42 -34.5t60.5 -12.5t60 13t40.5 32.5t23 43t7.5 43.5v166z" />
    <glyph glyph-name="e" unicode="e" horiz-adv-x="536" 
d="M486 68q-8 -9 -24 -23t-41.5 -27t-60 -22.5t-78.5 -9.5q-54 0 -99 18t-77 51t-49.5 79t-17.5 102q0 51 17 95.5t48 77t73.5 51.5t93.5 19q60 0 103 -23t70.5 -61t40.5 -87t13 -102h-367q1 -31 13.5 -57t33.5 -45t48 -30t57 -11q59 0 97 20t55 39zM405 273q-4 54 -38 92
t-96 38q-32 0 -57.5 -11t-43.5 -29t-28 -41.5t-11 -48.5h274z" />
    <glyph glyph-name="f" unicode="f" horiz-adv-x="330" 
d="M97 390h-84v75h84v38q0 47 13.5 81.5t36 56.5t51.5 32.5t61 10.5q37 0 72.5 -11.5t65.5 -39.5l-45 -58q-37 31 -79 31q-39 0 -62.5 -25t-23.5 -86v-30h133v-75h-133v-390h-90v390z" />
    <glyph glyph-name="g" unicode="g" horiz-adv-x="547" 
d="M396 383q-9 3 -30.5 8.5t-64.5 5.5q-38 0 -69 -12.5t-53.5 -35t-35 -53.5t-12.5 -68q0 -32 7.5 -60t24 -49t41.5 -33t61 -12q33 0 58 10t41 26.5t24 37t8 42.5v193zM124 -95q23 -16 56.5 -27.5t81.5 -11.5q67 0 100 37t33 97v57l-18.5 -16.5t-29 -20t-41.5 -17t-55 -7.5
q-51 0 -90.5 17.5t-66.5 48t-41 73t-14 92.5q0 54 19 99.5t53.5 79t82.5 52t107 18.5q57 0 106 -10t79 -22v-444q0 -101 -58.5 -156.5t-164.5 -55.5q-71 0 -113 15.5t-68 35.5z" />
    <glyph glyph-name="h" unicode="h" horiz-adv-x="543" 
d="M61 667h89v-271q9 12 22 26t32 26t44 20t57 8q91 0 135 -53t44 -144v-279h-90v272q0 65 -28 95.5t-79 30.5q-39 0 -65 -16t-41.5 -41.5t-22.5 -58t-7 -66.5v-216h-90v667z" />
    <glyph glyph-name="i" unicode="i" horiz-adv-x="222" 
d="M60 649h101v-101h-101v101zM66 465h90v-465h-90v465z" />
    <glyph glyph-name="j" unicode="j" horiz-adv-x="222" 
d="M-53 -101q12 -9 25.5 -15t32.5 -6q35 0 48 33.5t13 107.5v446h90v-471q0 -38 -5.5 -73t-20.5 -62t-43 -43t-73 -16q-37 0 -62.5 12t-41.5 25zM60 649h101v-101h-101v101z" />
    <glyph glyph-name="k" unicode="k" horiz-adv-x="489" 
d="M61 667h90v-393l195 191h108l-176 -172l202 -293h-107l-158 233l-64 -62v-171h-90v667z" />
    <glyph glyph-name="l" unicode="l" horiz-adv-x="214" 
d="M62 667h90v-667h-90v667z" />
    <glyph glyph-name="m" unicode="m" horiz-adv-x="850" 
d="M62 0v417q0 23 -1 48h86l3 -70q8 12 21 26.5t31 26.5t42.5 20t56.5 8q54 0 89.5 -21.5t55.5 -62.5q28 33 68.5 58.5t100.5 25.5q90 0 133 -53.5t43 -143.5v-279h-90v272q0 65 -25.5 95.5t-74.5 30.5q-28 0 -51.5 -11.5t-41 -30.5t-27 -44.5t-9.5 -53.5v-258h-90v272
q0 65 -25.5 95.5t-73.5 30.5q-37 0 -62 -16t-40.5 -41.5t-22 -58.5t-6.5 -66v-216h-90z" />
    <glyph glyph-name="n" unicode="n" horiz-adv-x="544" 
d="M62 0v417q0 23 -1 48h86l3 -70q9 12 22 26.5t32 26.5t44.5 20t57.5 8q91 0 135 -53t44 -144v-279h-90v272q0 65 -28 95.5t-79 30.5q-39 0 -65 -16t-41.5 -41.5t-22.5 -58t-7 -66.5v-216h-90z" />
    <glyph glyph-name="o" unicode="o" horiz-adv-x="572" 
d="M286 -14q-54 0 -99 19.5t-77.5 53.5t-51 78.5t-18.5 95.5t18.5 95.5t51 78.5t77.5 53.5t99 19.5q53 0 98 -19.5t78 -53.5t51.5 -78.5t18.5 -95.5t-18.5 -95.5t-51.5 -78.5t-78 -53.5t-98 -19.5zM286 64q36 0 65 14.5t49 38t30.5 54t10.5 62.5q0 31 -10.5 61.5t-31 54.5
t-49 38.5t-64.5 14.5t-65 -14.5t-49 -38t-30.5 -54t-10.5 -62.5t10.5 -62t31 -54t49 -38.5t64.5 -14.5z" />
    <glyph glyph-name="p" unicode="p" horiz-adv-x="558" 
d="M62 -200v617q0 23 -1 48h86l3 -66q7 9 20 22t32.5 25t45.5 20.5t60 8.5q54 0 93.5 -20t65.5 -54t38.5 -78t12.5 -93q0 -63 -21.5 -109t-56 -76t-77 -44.5t-83.5 -14.5q-47 0 -75.5 9.5t-53.5 20.5v-216h-89zM151 101q16 -13 46 -25t75 -12q34 0 62.5 12.5t49 35
t31.5 52.5t11 66q0 34 -7.5 64t-24 53t-42.5 36.5t-64 13.5q-48 0 -82 -26.5t-48 -77.5q-5 -16 -6 -34.5t-1 -38.5v-119z" />
    <glyph glyph-name="q" unicode="q" horiz-adv-x="548" 
d="M395 46q-4 -5 -14.5 -14.5t-27.5 -20t-40.5 -18t-54.5 -7.5q-54 0 -95 19t-68.5 51.5t-41.5 76.5t-14 94q0 54 19 99.5t53.5 79t82.5 52t107 18.5q57 0 105.5 -10t78.5 -22v-644h-90v246zM396 383q-9 3 -30.5 8.5t-64.5 5.5q-80 0 -125 -46.5t-45 -122.5q0 -32 7.5 -61.5
t24 -52t41.5 -36.5t61 -14q34 0 58.5 10t40.5 27t24 39.5t8 47.5v195z" />
    <glyph glyph-name="r" unicode="r" horiz-adv-x="364" 
d="M62 0v420q0 22 -1 45h86l3 -75q8 12 21 26.5t31.5 26.5t43 20.5t56.5 8.5q15 0 27.5 -2t23.5 -6l-20 -84q-18 7 -46 7q-29 0 -53.5 -11t-42.5 -30.5t-28.5 -45.5t-10.5 -55v-245h-90z" />
    <glyph glyph-name="s" unicode="s" horiz-adv-x="472" 
d="M92 117q25 -25 60 -40t81 -15q45 0 75 14.5t30 45.5q0 16 -6.5 27.5t-22 20.5t-41 16.5t-63.5 16.5q-27 6 -53.5 16t-47.5 26.5t-34 40t-13 56.5q0 34 15.5 59.5t41.5 43t58.5 26.5t67.5 9q59 0 101.5 -15.5t74.5 -43.5l-49 -62q-21 19 -52.5 32t-73.5 13q-43 0 -69 -14
t-26 -46q0 -30 34.5 -44.5t90.5 -27.5q33 -8 61.5 -18.5t50 -27t34 -40.5t12.5 -58q0 -35 -16 -61.5t-43 -44.5t-62 -27t-73 -9q-132 0 -198 71z" />
    <glyph glyph-name="t" unicode="t" horiz-adv-x="384" 
d="M102 390h-84v75h84v152h90v-152h136v-75h-136v-229q0 -56 17.5 -77t49.5 -21q26 0 43 8t34 24l41 -55q-29 -28 -59.5 -40.5t-72.5 -12.5q-74 0 -108.5 40t-34.5 125v238z" />
    <glyph glyph-name="u" unicode="u" horiz-adv-x="542" 
d="M59 465h90v-273q0 -66 27 -95.5t78 -29.5q39 0 64.5 16t41.5 41.5t22.5 58t6.5 66.5v216h90v-418q0 -22 1 -47h-86l-3 69q-9 -12 -22 -26t-32 -25.5t-44 -19.5t-57 -8q-91 0 -134 52.5t-43 143.5v279z" />
    <glyph glyph-name="v" unicode="v" horiz-adv-x="502" 
d="M6 465h103l145 -363l144 363h97l-199 -465h-90z" />
    <glyph glyph-name="w" unicode="w" horiz-adv-x="722" 
d="M11 465h99l104 -355l112 355h77l112 -358l102 358h93l-154 -465h-89l-108 325l-107 -325h-84z" />
    <glyph glyph-name="x" unicode="x" horiz-adv-x="487" 
d="M188 240l-167 225h112l112 -154l110 154h100l-162 -218l185 -247h-113l-129 176l-127 -176h-101z" />
    <glyph glyph-name="y" unicode="y" horiz-adv-x="502" 
d="M64 -114q10 -9 23 -16t32 -7q16 0 27.5 7t21 21.5t18 35l19.5 47.5l12 30l-208 461h103l150 -351l132 351h98l-186 -453q-13 -32 -26.5 -70.5t-33.5 -73t-49 -57.5t-73 -23q-35 0 -59 9.5t-42 25.5z" />
    <glyph glyph-name="z" unicode="z" horiz-adv-x="476" 
d="M52 71l266 318h-257v76h367v-72l-271 -318h274v-75h-379v71z" />
    <glyph glyph-name="braceleft" unicode="{" horiz-adv-x="289" 
d="M107 198q-2 31 -20 54.5t-56 25.5v57q38 2 56 25.5t20 54.5l14 170q4 44 15 73t34 48h93q-19 -18 -33 -47.5t-16 -62.5l-15 -190q-3 -42 -23.5 -66.5t-49.5 -32.5q29 -8 49.5 -33t23.5 -67l15 -190q2 -33 16 -62.5t33 -47.5h-93q-23 19 -34 48t-15 73z" />
    <glyph glyph-name="bar" unicode="|" horiz-adv-x="233" 
d="M75 833h83v-997h-83v997z" />
    <glyph glyph-name="braceright" unicode="}" horiz-adv-x="289" 
d="M26 -93q19 18 33 47.5t16 62.5l15 190q3 42 23.5 67t49.5 33q-29 8 -49.5 32.5t-23.5 66.5l-15 190q-2 33 -16 62.5t-33 47.5h93q23 -19 34 -48t15 -73l14 -170q2 -31 20 -54.5t56 -25.5v-57q-38 -2 -56 -25.5t-20 -54.5l-14 -170q-4 -44 -15 -73t-34 -48h-93z" />
    <glyph glyph-name="asciitilde" unicode="~" horiz-adv-x="478" 
d="M435 302q-7 -8 -18.5 -18t-26.5 -20t-33.5 -16.5t-40.5 -6.5q-17 0 -33.5 5t-29.5 12q-20 11 -41.5 20t-52.5 9q-27 0 -46.5 -14.5t-29.5 -23.5q-11 14 -21 28.5t-21 28.5l18 17.5t26.5 20.5t35 17t42.5 7q26 0 45.5 -9.5t39.5 -20.5q13 -7 27.5 -12t31.5 -5
q32 0 53.5 14t33.5 25z" />
    <glyph glyph-name="Euro" unicode="&#x20ac;" horiz-adv-x="545" 
d="M49 273h64q-2 11 -2 22v45q0 10 2 21h-84l20 61h73q10 48 30 89t50.5 71.5t71.5 48t92 17.5q31 0 56.5 -6t46.5 -16t37.5 -22.5t30.5 -25.5l-50 -63q-17 18 -45.5 33.5t-73.5 15.5q-60 0 -98.5 -38t-53.5 -104h220l-20 -61h-210q-1 -11 -1 -21v-45q0 -11 1 -22h224
l-20 -60h-194q16 -66 54 -103.5t98 -37.5q45 0 73 15t46 33l50 -62q-12 -12 -28.5 -24t-37.5 -22t-47 -16.5t-58 -6.5q-51 0 -91.5 17t-71 47t-50.5 71t-30 89h-94z" />
    <glyph glyph-name="uni20BA" unicode="&#x20ba;" horiz-adv-x="545" 
d="M48 194l-25 56l96 44v87l-71 -33l-25 56l96 44v185h87v-144l139 65l25 -56l-164 -77v-86l139 65l25 -56l-164 -77v-184h14q48 0 84 14t61.5 38.5t42.5 59.5t28 77l80 -21q-29 -126 -106 -188.5t-196 -62.5h-95v227z" />
    <glyph glyph-name="quotesinglbase" unicode="&#x201a;" horiz-adv-x="248" 
d="M90 112h101l-52 -197h-70z" />
    <glyph glyph-name="florin" unicode="&#x192;" horiz-adv-x="517" 
d="M-27 -84q12 -12 30.5 -21.5t40.5 -9.5q44 0 65 28t31 82l55 309h-89v77h103l13 76q6 36 17.5 69.5t32.5 60t53 42t78 15.5t76.5 -17t49.5 -38l-49 -63q-17 15 -35.5 24.5t-38.5 9.5q-24 0 -40 -8.5t-26.5 -23.5t-16.5 -36t-10 -46l-11 -65h104v-77h-118l-56 -318
q-6 -35 -18.5 -68.5t-34.5 -59.5t-54.5 -42t-80.5 -16q-30 0 -63.5 14t-56.5 34z" />
    <glyph glyph-name="quotedblbase" unicode="&#x201e;" horiz-adv-x="418" 
d="M90 112h101l-52 -197h-70zM260 112h101l-52 -197h-70z" />
    <glyph glyph-name="ellipsis" unicode="&#x2026;" horiz-adv-x="768" 
d="M583 112h113v-112h-113v112zM327 112h113v-112h-113v112zM71 112h113v-112h-113v112z" />
    <glyph glyph-name="dagger" unicode="&#x2020;" horiz-adv-x="516" 
d="M214 399h-153v75h153v193h88v-193h153v-75h-153v-520h-88v520z" />
    <glyph glyph-name="daggerdbl" unicode="&#x2021;" horiz-adv-x="516" 
d="M214 72h-153v75h153v252h-153v75h153v193h88v-193h153v-75h-153v-252h153v-75h-153v-193h-88v193z" />
    <glyph glyph-name="circumflex" unicode="&#x2c6;" horiz-adv-x="410" 
d="M162 676h85l99 -137h-82l-60 83l-59 -83h-82z" />
    <glyph glyph-name="perthousand" unicode="&#x2030;" horiz-adv-x="1269" 
d="M603 630h85l-405 -630h-85zM689 -8q-68 0 -111.5 46t-43.5 135t43.5 134.5t111.5 45.5q34 0 62.5 -11.5t49 -34t32 -56t11.5 -78.5q0 -89 -43.5 -135t-111.5 -46zM689 55q14 0 27.5 6t24.5 20t18 36.5t7 55.5t-7 55.5t-18 36t-24.5 19.5t-27.5 6t-28 -6t-25 -19.5
t-18 -36t-7 -55.5t7 -55.5t18 -36.5t25 -20t28 -6zM1067 -8q-68 0 -111.5 46t-43.5 135t43.5 134.5t111.5 45.5q34 0 62.5 -11.5t49 -34t32 -56t11.5 -78.5q0 -89 -43.5 -135t-111.5 -46zM1067 55q14 0 27.5 6t24.5 20t18 36.5t7 55.5t-7 55.5t-18 36t-24.5 19.5t-27.5 6
t-28 -6t-25 -19.5t-18 -36t-7 -55.5t7 -55.5t18 -36.5t25 -20t28 -6zM202 286q-68 0 -111.5 46t-43.5 135t43.5 134.5t111.5 45.5q34 0 62.5 -11.5t49 -34t32 -56t11.5 -78.5q0 -89 -43.5 -135t-111.5 -46zM202 349q14 0 27.5 6t24.5 20t18 36.5t7 55.5t-7 55.5t-18 36
t-24.5 19.5t-27.5 6t-28 -6t-25 -19.5t-18 -36t-7 -55.5t7 -55.5t18 -36.5t25 -20t28 -6z" />
    <glyph glyph-name="Scaron" unicode="&#x160;" horiz-adv-x="582" 
d="M105 162q14 -16 31.5 -32.5t39.5 -29.5t49 -21t59 -8q66 0 103 30t37 81q0 55 -42 82.5t-121 44.5q-43 9 -78 25t-60.5 40t-39.5 55.5t-14 71.5q0 37 14 70t42 58t70 40t97 15q49 0 84.5 -10.5t60.5 -25.5t40 -31t23 -26l-64 -59q-6 7 -18 18.5t-30.5 22.5t-43 18.5
t-56.5 7.5t-55 -8.5t-38 -22t-22 -30.5t-7 -34q0 -25 10.5 -42.5t30.5 -31t49.5 -23t67.5 -18.5q37 -9 72.5 -23.5t63.5 -39t44.5 -60t16.5 -86.5q0 -43 -18 -79t-49.5 -62.5t-74.5 -41t-93 -14.5q-47 0 -85.5 11t-70 28t-55 37.5t-38.5 40.5zM220 870l36.5 -46l36.5 -46
l72 92h84l-113 -150h-88l-56 75l-55 75h83z" />
    <glyph glyph-name="guilsinglleft" unicode="&#x2039;" horiz-adv-x="325" 
d="M63 238l105 193h89l-101 -193l101 -193h-89z" />
    <glyph glyph-name="OE" unicode="&#x152;" horiz-adv-x="1118" 
d="M631 113q-16 -30 -41.5 -54t-57.5 -41t-69.5 -26t-76.5 -9q-71 0 -132.5 27.5t-107 75t-71.5 111.5t-26 137t26 136.5t71.5 111t107 75t132.5 27.5q40 0 77 -9t69 -26t57.5 -41t41.5 -54v113h419v-85h-326v-194h247v-86h-247v-216h351v-86h-444v113zM389 73q55 0 99 21
t75.5 57t48.5 83.5t17 100.5q0 54 -17 101.5t-48.5 83.5t-75.5 56.5t-99 20.5t-99.5 -20.5t-76 -56.5t-48.5 -83.5t-17 -101.5q0 -53 17 -100.5t48.5 -83.5t76 -57t99.5 -21z" />
    <glyph glyph-name="quoteleft" unicode="&#x2018;" horiz-adv-x="239" 
d="M107 666h70l-21 -198h-102z" />
    <glyph glyph-name="quoteright" unicode="&#x2019;" horiz-adv-x="239" 
d="M87 666h102l-53 -198h-69z" />
    <glyph glyph-name="quotedblleft" unicode="&#x201c;" horiz-adv-x="409" 
d="M277 666h70l-21 -198h-102zM107 666h70l-21 -198h-102z" />
    <glyph glyph-name="quotedblright" unicode="&#x201d;" horiz-adv-x="409" 
d="M257 666h102l-53 -198h-69zM87 666h102l-53 -198h-69z" />
    <glyph glyph-name="bullet" unicode="&#x2022;" horiz-adv-x="400" 
d="M75 325q0 25 10 48t27 39.5t39.5 26.5t48.5 10t48.5 -10t39.5 -26.5t27 -39.5t10 -48q0 -26 -10 -48.5t-27 -39.5t-39.5 -27t-48.5 -10t-48.5 10t-39.5 27t-27 39.5t-10 48.5z" />
    <glyph glyph-name="endash" unicode="&#x2013;" horiz-adv-x="500" 
d="M0 323h500v-86h-500v86z" />
    <glyph glyph-name="emdash" unicode="&#x2014;" horiz-adv-x="1000" 
d="M0 323h1000v-86h-1000v86z" />
    <glyph glyph-name="tilde" unicode="&#x2dc;" horiz-adv-x="418" 
d="M29 606q17 19 47 36.5t65 17.5q21 0 36.5 -6.5t29.5 -15t29 -15t36 -6.5q29 2 45 12t33 24l36 -54q-17 -19 -46.5 -37t-64.5 -18q-21 0 -37 7t-30 15t-28 15t-33 7q-28 0 -46.5 -10.5t-34.5 -24.5z" />
    <glyph glyph-name="trademark" unicode="&#x2122;" horiz-adv-x="888" 
d="M442 667h68l116 -186l114 186h73l12 -383h-71l-7 279l-107 -178h-31l-103 169l-8 -270h-66zM166 601h-136v66h347v-66h-135v-317h-76v317z" />
    <glyph glyph-name="scaron" unicode="&#x161;" horiz-adv-x="472" 
d="M92 117q25 -25 60 -40t81 -15q45 0 75 14.5t30 45.5q0 16 -6.5 27.5t-22 20.5t-41 16.5t-63.5 16.5q-27 6 -53.5 16t-47.5 26.5t-34 40t-13 56.5q0 34 15.5 59.5t41.5 43t58.5 26.5t67.5 9q59 0 101.5 -15.5t74.5 -43.5l-49 -62q-21 19 -52.5 32t-73.5 13q-43 0 -69 -14
t-26 -46q0 -30 34.5 -44.5t90.5 -27.5q33 -8 61.5 -18.5t50 -27t34 -40.5t12.5 -58q0 -35 -16 -61.5t-43 -44.5t-62 -27t-73 -9q-132 0 -198 71zM103 676h82l60 -83l59 83h82l-99 -137h-85z" />
    <glyph glyph-name="guilsinglright" unicode="&#x203a;" horiz-adv-x="325" 
d="M169 238l-101 193h89l105 -193l-105 -193h-89z" />
    <glyph glyph-name="oe" unicode="&#x153;" horiz-adv-x="937" 
d="M887 68q-8 -9 -24 -23t-41.5 -27t-60 -22.5t-78.5 -9.5q-67 0 -118 28.5t-82 79.5q-30 -49 -82 -78.5t-115 -29.5q-54 0 -99 19.5t-78 53t-51.5 78.5t-18.5 96t18.5 95.5t51.5 78t78 53t99 19.5q63 0 114 -29.5t82 -77.5q29 50 78 78.5t112 28.5q60 0 103 -23t70.5 -61
t40.5 -87.5t13 -101.5h-367q1 -31 13.5 -57t33 -45t48 -30t57.5 -11q29 0 53 5.5t43.5 14.5t33.5 19.5t22 19.5zM286 63q36 0 65 14.5t49 38.5t30.5 54.5t10.5 62.5q0 31 -11 61t-31 54t-48.5 38.5t-64.5 14.5t-65 -14.5t-49.5 -38t-31 -54t-10.5 -61.5q0 -32 11 -62.5
t31 -54.5t49 -38.5t65 -14.5zM806 273q-4 54 -38 92t-96 38q-32 0 -58 -11t-44 -29t-27.5 -41.5t-10.5 -48.5h274z" />
    <glyph glyph-name="Ydieresis" unicode="&#x178;" horiz-adv-x="577" 
d="M239 298l-230 369h107l174 -285l174 285h103l-231 -369v-298h-97v298zM338 844h101v-98h-101v98zM143 844h101v-98h-101v98z" />
    <glyph glyph-name="uni00A0" unicode="&#xa0;" horiz-adv-x="181" 
 />
    <glyph glyph-name="exclamdown" unicode="&#xa1;" horiz-adv-x="258" 
d="M82 273h95l3 -475h-100zM74 465h112v-109h-112v109z" />
    <glyph glyph-name="cent" unicode="&#xa2;" horiz-adv-x="545" 
d="M277 69q-48 6 -86 27t-64.5 53t-40.5 74.5t-14 90.5q0 46 15 88t42 74.5t64.5 54t83.5 28.5v90h61v-89q51 -3 90 -23.5t68 -52.5l-59 -56q-18 22 -42.5 36t-56.5 18v-335q34 4 60.5 18t44.5 37l55 -58q-29 -32 -69 -52.5t-91 -24.5v-86h-61v88zM277 477q-27 -7 -48 -23
t-36 -38t-22.5 -48t-7.5 -54q0 -26 8 -52t22.5 -48t35.5 -39t48 -24v326z" />
    <glyph glyph-name="sterling" unicode="&#xa3;" horiz-adv-x="545" 
d="M127 287h-73v76h73v81q0 27 7.5 62.5t29 67t61 53t103.5 21.5q36 0 64 -8.5t48.5 -20t34 -23.5l21.5 -19l-58 -64q-18 19 -42.5 35t-67.5 16q-30 0 -50.5 -11.5t-32.5 -30.5t-17 -44t-5 -53v-62h200v-76h-200v-201h289v-86h-385v287z" />
    <glyph glyph-name="currency" unicode="&#xa4;" horiz-adv-x="545" 
d="M37 158l65 66q-16 23 -24.5 51t-8.5 59q0 60 33 110l-65 65l55 56l65 -65q24 17 53.5 27t61.5 10t61 -9.5t54 -26.5l65 64l55 -56l-65 -65q16 -24 25 -52t9 -58q0 -32 -9 -59.5t-25 -51.5l65 -65l-55 -56l-65 64q-50 -35 -115 -35q-67 0 -115 36l-65 -65zM145 334
q0 -26 10 -49.5t27 -40.5t40.5 -27t49.5 -10t49.5 10t41 27t27.5 40.5t10 49.5t-10 49t-27.5 40.5t-41 27.5t-49.5 10t-49.5 -10t-40.5 -27.5t-27 -40.5t-10 -49z" />
    <glyph glyph-name="yen" unicode="&#xa5;" horiz-adv-x="545" 
d="M72 186h156v60l-2 26h-154v61h118l-173 298h106l152 -283l151 283h102l-173 -298h122v-61h-157l-2 -26v-60h159v-61h-159v-125h-90v125h-156v61z" />
    <glyph glyph-name="brokenbar" unicode="&#xa6;" horiz-adv-x="233" 
d="M75 215h83v-379h-83v379zM75 833h83v-379h-83v379z" />
    <glyph glyph-name="section" unicode="&#xa7;" horiz-adv-x="463" 
d="M117 -93q28 -20 51 -28.5t52 -8.5q25 0 43.5 9t31 22.5t18.5 30.5t6 34q0 38 -20 63.5t-53 47.5l-189 125l49 74l190 -123q48 -32 80 -75.5t32 -101.5q0 -37 -12.5 -71t-37 -60t-60 -41.5t-80.5 -15.5q-27 0 -50 5.5t-41.5 14t-32.5 17.5l-22 15zM171 319q-49 32 -81 75
t-32 101q0 37 13 71.5t38 60.5t60 42t79 16q27 0 49.5 -6t40.5 -14t31 -17l21 -15l-45 -68q-26 20 -49.5 28.5t-49.5 8.5q-24 0 -42 -9t-31 -22.5t-19.5 -31t-6.5 -33.5q0 -38 19.5 -63.5t53.5 -47.5l189 -125l-49 -74z" />
    <glyph glyph-name="dieresis" unicode="&#xa8;" horiz-adv-x="348" 
d="M212 651h93v-91h-93v91zM41 651h94v-91h-94v91z" />
    <glyph glyph-name="copyright" unicode="&#xa9;" horiz-adv-x="809" 
d="M404 -14q-73 0 -136.5 27t-110 74.5t-73.5 111t-27 136.5t27 136.5t73.5 110.5t110 74.5t137.5 27.5q73 0 136 -27.5t109.5 -74.5t73.5 -110.5t27 -136.5t-27 -136.5t-73.5 -111t-110 -74.5t-136.5 -27zM404 53q59 0 109 21.5t86.5 59.5t57 89.5t20.5 110.5t-20.5 110.5
t-57 89.5t-86.5 60t-108 22q-59 0 -109 -22t-87 -60t-57.5 -89.5t-20.5 -110.5t20.5 -110.5t57 -89.5t86.5 -59.5t109 -21.5zM562 225q-24 -35 -63.5 -58t-89.5 -23q-42 0 -77 14.5t-60 40t-38.5 60.5t-13.5 76q0 40 14 74.5t39.5 60t60 40t75.5 14.5q51 0 90 -23t63 -58
l-54 -39q-15 21 -40 37t-56 16q-26 0 -47.5 -9.5t-37 -26t-24 -39t-8.5 -48.5q0 -24 8.5 -46t24 -38.5t37 -26.5t47.5 -10q32 0 57.5 16.5t39.5 38.5z" />
    <glyph glyph-name="ordfeminine" unicode="&#xaa;" horiz-adv-x="381" 
d="M57 606q20 17 50.5 29.5t78.5 12.5q62 0 99 -29.5t37 -82.5v-172q0 -14 1 -28h-65q0 4 -0.5 12t-1.5 16q-17 -16 -44.5 -26t-51.5 -10q-21 0 -41 5t-36.5 16.5t-26.5 29.5t-10 45q0 51 37.5 78t103.5 27q17 0 34 -1t34 -3v8q0 55 -73 55q-32 0 -53.5 -9.5t-36.5 -20.5z
M256 471q-11 2 -29.5 3t-35.5 1q-45 0 -61.5 -16t-16.5 -33q0 -41 60 -41q15 0 30 5t27 13t19 19.5t7 24.5v24z" />
    <glyph glyph-name="guillemotleft" unicode="&#xab;" horiz-adv-x="502" 
d="M65 238l105 193h89l-101 -193l101 -193h-89zM242 238l105 193h89l-101 -193l101 -193h-89z" />
    <glyph glyph-name="logicalnot" unicode="&#xac;" horiz-adv-x="545" 
d="M73 361h399v-214h-79v136h-320v78z" />
    <glyph glyph-name="uni00AD" unicode="&#xad;" horiz-adv-x="439" 
d="M73 323h293v-86h-293v86z" />
    <glyph glyph-name="registered" unicode="&#xae;" horiz-adv-x="809" 
d="M283 513h136q33 0 56.5 -9.5t39 -24.5t22.5 -33.5t7 -36.5q0 -34 -17 -61.5t-52 -41.5l86 -146h-76l-79 137h-56v-137h-67v353zM416 350q31 0 45 15t14 40q0 26 -15 39t-48 13h-62v-107h66zM404 -14q-73 0 -136.5 27t-110 74.5t-73.5 111t-27 136.5t27 136.5t73.5 110.5
t110 74.5t137.5 27.5q73 0 136 -27.5t109.5 -74.5t73.5 -110.5t27 -136.5t-27 -136.5t-73.5 -111t-110 -74.5t-136.5 -27zM404 53q59 0 109 21.5t86.5 59.5t57 89.5t20.5 110.5t-20.5 110.5t-57 89.5t-86.5 60t-108 22q-59 0 -109 -22t-87 -60t-57.5 -89.5t-20.5 -110.5
t20.5 -110.5t57 -89.5t86.5 -59.5t109 -21.5z" />
    <glyph glyph-name="macron" unicode="&#xaf;" horiz-adv-x="349" 
d="M50 637h250v-72h-250v72z" />
    <glyph glyph-name="degree" unicode="&#xb0;" horiz-adv-x="332" 
d="M29 526q0 29 10.5 53.5t29 42.5t43 28t53.5 10t54 -10t43.5 -28t29 -42.5t10.5 -52.5q0 -29 -10.5 -53.5t-29 -42.5t-43.5 -28t-53 -10q-29 0 -54 10t-43.5 28t-29 42t-10.5 53zM166 453q31 0 51.5 21t20.5 53q0 30 -20.5 51t-52.5 21q-30 0 -50.5 -21t-20.5 -52
t20.5 -52t51.5 -21z" />
    <glyph glyph-name="plusminus" unicode="&#xb1;" horiz-adv-x="545" 
d="M73 360h161v157h78v-157h160v-78h-159v-157h-79v157h-161v78zM73 79h399v-78h-399v78z" />
    <glyph glyph-name="acute" unicode="&#xb4;" horiz-adv-x="401" 
d="M207 676h98l-77 -136h-75z" />
    <glyph glyph-name="mu" unicode="&#xb5;" horiz-adv-x="542" 
d="M60 465h90v-273q0 -63 28.5 -94t77.5 -31q32 0 57 12.5t42.5 33t26.5 47t9 55.5v250h89v-414q0 -25 1 -51h-85q-2 16 -2.5 29.5t-0.5 36.5q-9 -12 -22 -25.5t-31 -24.5t-41.5 -18.5t-51.5 -7.5q-30 0 -52 7t-45 26v-223h-90v665z" />
    <glyph glyph-name="paragraph" unicode="&#xb6;" horiz-adv-x="536" 
d="M294 305q-50 0 -95.5 8.5t-79.5 29.5t-54 55.5t-20 87.5q0 52 20 87t54 56t79.5 29.5t95.5 8.5v-362zM365 667h92v-789h-92v789zM203 257q14 -5 31.5 -6t32.5 -1h27v-372h-91v379z" />
    <glyph glyph-name="periodcentered" unicode="&#xb7;" horiz-adv-x="253" 
d="M71 380h113v-112h-113v112z" />
    <glyph glyph-name="cedilla" unicode="&#xb8;" horiz-adv-x="562" 
d="M93 -144q17 -6 35 -10t37 -4q32 0 48.5 10.5t16.5 28.5q0 14 -13.5 24.5t-44.5 10.5q-18 0 -35 -3.5t-34 -9.5l9 55q16 5 34 9t50 4q53 0 80 -26t27 -61q0 -24 -10 -42t-27.5 -30.5t-40 -18.5t-47.5 -6q-43 0 -67 6.5t-29 8.5z" />
    <glyph glyph-name="ordmasculine" unicode="&#xba;" horiz-adv-x="409" 
d="M42 488q0 34 12 63.5t33.5 51t51.5 33.5t66 12t65.5 -12t51 -33.5t33.5 -51t12 -63.5t-12 -63.5t-33.5 -51t-51 -33.5t-65.5 -12t-66 12t-51.5 33.5t-33.5 51t-12 63.5zM205 392q22 0 39 8t28 21.5t16.5 31t5.5 35.5t-5.5 35t-16.5 30.5t-28 22t-39 8.5q-23 0 -40 -8.5
t-28 -22t-16.5 -30.5t-5.5 -35t5.5 -35.5t16.5 -31t28 -21.5t40 -8z" />
    <glyph glyph-name="guillemotright" unicode="&#xbb;" horiz-adv-x="502" 
d="M348 238l-101 193h89l105 -193l-105 -193h-89zM171 238l-101 193h89l105 -193l-105 -193h-89z" />
    <glyph glyph-name="onequarter" unicode="&#xbc;" horiz-adv-x="892" 
d="M183 557l-88 -44l-28 57l126 67h67v-341h-77v261zM603 630h85l-405 -630h-85zM522 124l179 218h76v-217h42v-58h-42v-65h-69v65h-186v57zM708 125v144l-120 -144h120z" />
    <glyph glyph-name="onehalf" unicode="&#xbd;" horiz-adv-x="892" 
d="M176 557l-88 -44l-28 57l126 67h67v-341h-77v261zM579 630h85l-405 -630h-85zM565 43q0 26 13 45.5t32.5 35.5t42 30t42 28t32.5 28.5t13 32.5q0 23 -16 33t-36 10q-26 0 -52 -12.5t-44 -28.5l-33 53q22 20 57.5 37t80.5 17q65 0 95.5 -31t30.5 -73q0 -41 -23.5 -66
t-53.5 -43.5l-58 -34.5t-37 -39h173v-64h-259v42z" />
    <glyph glyph-name="threequarters" unicode="&#xbe;" horiz-adv-x="892" 
d="M95 378q17 -14 39 -22t48 -8q31 0 50.5 13.5t19.5 39.5q0 16 -6 26t-16 16t-23 8.5t-27 2.5q-11 0 -23 -1.5t-21 -4.5l-15 31l107 96h-142v62h228v-57l-88 -81q51 -5 76.5 -33t25.5 -70q0 -48 -39.5 -79t-105.5 -31q-38 0 -69 10t-55 27zM622 630h85l-405 -630h-85z
M538 124l179 218h76v-217h42v-58h-42v-65h-69v65h-186v57zM724 125v144l-120 -144h120z" />
    <glyph glyph-name="questiondown" unicode="&#xbf;" horiz-adv-x="506" 
d="M245 465h111v-110h-111v110zM483 -122q-9 -12 -26 -28.5t-43 -31.5t-61 -26t-80 -11q-49 0 -87 13.5t-64.5 36.5t-40 53.5t-13.5 64.5q0 29 7 51.5t20 42t32 36.5t43 35l36 27.5t27 27.5t17 33t6 44v27h90v-28q0 -54 -22 -97t-73 -80q-17 -12 -33 -24.5t-29 -26.5
t-21 -31t-8 -37q0 -38 31 -61.5t82 -23.5q28 0 51 7t42 17t33 22t24 23z" />
    <glyph glyph-name="Agrave" unicode="&#xc0;" horiz-adv-x="641" 
d="M271 667h98l261 -667h-107l-69 186h-274l-69 -186h-101zM425 267l-108 293l-109 -293h217zM196 870h112l74 -150h-81z" />
    <glyph glyph-name="Aacute" unicode="&#xc1;" horiz-adv-x="641" 
d="M271 667h98l261 -667h-107l-69 186h-274l-69 -186h-101zM425 267l-108 293l-109 -293h217zM343 870h114l-106 -150h-81z" />
    <glyph glyph-name="Acircumflex" unicode="&#xc2;" horiz-adv-x="641" 
d="M271 667h98l261 -667h-107l-69 186h-274l-69 -186h-101zM425 267l-108 293l-109 -293h217zM274 870h88l56 -75l55 -75h-83l-36.5 46l-36.5 46l-72 -92h-84z" />
    <glyph glyph-name="Atilde" unicode="&#xc3;" horiz-adv-x="641" 
d="M271 667h98l261 -667h-107l-69 186h-274l-69 -186h-101zM425 267l-108 293l-109 -293h217zM131 798q19 20 49.5 38.5t68.5 18.5q23 0 39.5 -7t31 -15t29 -15t34.5 -7q29 0 48.5 11.5t36.5 25.5l20.5 -28.5l20.5 -29.5q-19 -20 -49 -39t-68 -19q-23 0 -39 7t-31 16t-30 16
t-35 7q-29 0 -49 -11.5t-37 -25.5z" />
    <glyph glyph-name="Adieresis" unicode="&#xc4;" horiz-adv-x="641" 
d="M271 667h98l261 -667h-107l-69 186h-274l-69 -186h-101zM425 267l-108 293l-109 -293h217zM367 844h101v-98h-101v98zM172 844h101v-98h-101v98z" />
    <glyph glyph-name="Aring" unicode="&#xc5;" horiz-adv-x="641" 
d="M261 643q-28 14 -44.5 41.5t-16.5 62.5q0 26 9.5 48t25.5 37.5t38 24.5t48 9q25 0 47.5 -8.5t38.5 -24.5t25.5 -37.5t9.5 -46.5q0 -37 -17.5 -65t-46.5 -42l252 -642h-107l-69 186h-274l-69 -186h-101zM425 267l-108 293l-109 -293h217zM322 689q25 0 40.5 17t15.5 43
q0 25 -15.5 41t-41.5 16q-25 0 -40.5 -16.5t-15.5 -42.5q0 -25 15.5 -41.5t41.5 -16.5z" />
    <glyph glyph-name="AE" unicode="&#xc6;" horiz-adv-x="952" 
d="M411 667h473v-86h-325v-194h246v-86h-246v-215h349v-86h-444v179h-251l-109 -179h-101zM464 259v332l-203 -332h203z" />
    <glyph glyph-name="Ccedilla" unicode="&#xc7;" horiz-adv-x="677" 
d="M642 117q-11 -18 -34 -41t-56 -43.5t-76 -34.5t-95 -14q-74 0 -135 26t-105 72.5t-68.5 110t-24.5 138.5q0 73 24.5 137t68.5 112t105.5 75.5t136.5 27.5q53 0 95 -13t73.5 -32.5t54 -42.5t36.5 -44l-68 -58q-12 17 -28.5 35.5t-39.5 33.5t-53 25t-69 10q-55 0 -98.5 -21
t-74 -57t-46.5 -84t-16 -102t16.5 -101.5t46.5 -82.5t73 -55t96 -20q45 0 77.5 11.5t55 27.5t37 32.5l24.5 27.5zM268 -152q17 -6 35.5 -10t38.5 -4q63 0 63 38q0 14 -13.5 22.5t-42.5 8.5q-37 0 -71 -12q3 14 5.5 28.5t4.5 28.5q18 5 37 9t49 4q54 0 82 -26t28 -61
q0 -24 -10.5 -42.5t-28.5 -30.5t-41 -18.5t-48 -6.5q-43 0 -68.5 6.5t-30.5 8.5l6 28.5t5 28.5z" />
    <glyph glyph-name="Egrave" unicode="&#xc8;" horiz-adv-x="564" 
d="M76 667h420v-85h-324v-194h244v-86h-244v-216h348v-86h-444v667zM172 870h112l74 -150h-81z" />
    <glyph glyph-name="Eacute" unicode="&#xc9;" horiz-adv-x="564" 
d="M76 667h420v-85h-324v-194h244v-86h-244v-216h348v-86h-444v667zM311 870h114l-106 -150h-81z" />
    <glyph glyph-name="Ecircumflex" unicode="&#xca;" horiz-adv-x="564" 
d="M76 667h420v-85h-324v-194h244v-86h-244v-216h348v-86h-444v667zM242 870h88l56 -75l55 -75h-83l-36.5 46l-36.5 46l-72 -92h-84z" />
    <glyph glyph-name="Edieresis" unicode="&#xcb;" horiz-adv-x="564" 
d="M76 667h420v-85h-324v-194h244v-86h-244v-216h348v-86h-444v667zM332 844h101v-98h-101v98zM137 844h101v-98h-101v98z" />
    <glyph glyph-name="Igrave" unicode="&#xcc;" horiz-adv-x="248" 
d="M76 667h96v-667h-96v667zM-10 870h112l74 -150h-81z" />
    <glyph glyph-name="Iacute" unicode="&#xcd;" horiz-adv-x="248" 
d="M76 667h96v-667h-96v667zM147 870h114l-106 -150h-81z" />
    <glyph glyph-name="Icircumflex" unicode="&#xce;" horiz-adv-x="248" 
d="M76 667h96v-667h-96v667zM82 870h88l56 -75l55 -75h-83l-36.5 46l-36.5 46l-72 -92h-84z" />
    <glyph glyph-name="Idieresis" unicode="&#xcf;" horiz-adv-x="248" 
d="M76 667h96v-667h-96v667zM172 844h101v-98h-101v98zM-23 844h101v-98h-101v98z" />
    <glyph glyph-name="Eth" unicode="&#xd0;" horiz-adv-x="720" 
d="M82 301h-72v79h72v287h223q79 0 145.5 -19.5t114.5 -61t74.5 -104.5t26.5 -150q0 -84 -27 -146.5t-75 -104t-114.5 -61.5t-145.5 -20h-222v301zM303 86q125 0 194.5 61.5t69.5 183.5q0 121 -66.5 186t-200.5 65h-122v-202h168v-79h-168v-215h125z" />
    <glyph glyph-name="Ntilde" unicode="&#xd1;" horiz-adv-x="707" 
d="M76 667h97l364 -521v521h94v-667h-96l-365 522v-522h-94v667zM151 798q19 20 49.5 38.5t68.5 18.5q23 0 39.5 -7t31 -15t29 -15t34.5 -7q29 0 48.5 11.5t36.5 25.5l20.5 -28.5l20.5 -29.5q-19 -20 -49 -39t-68 -19q-23 0 -39 7t-31 16t-30 16t-35 7q-29 0 -49 -11.5
t-37 -25.5z" />
    <glyph glyph-name="Ograve" unicode="&#xd2;" horiz-adv-x="779" 
d="M389 -17q-72 0 -134 27.5t-108 75t-72 111.5t-26 137t26 136.5t71.5 111t108 75t134.5 27.5t134.5 -27.5t108.5 -75t72 -111t26 -136.5t-26 -137t-72 -111.5t-108.5 -75t-134.5 -27.5zM389 73q55 0 99.5 21t76 57t48.5 83.5t17 100.5q0 54 -17 101.5t-48.5 83.5t-76 56.5
t-99.5 20.5t-99 -20.5t-75.5 -56.5t-48.5 -83.5t-17 -101.5q0 -53 17 -100.5t48.5 -83.5t75.5 -57t99 -21zM267 870h112l74 -150h-81z" />
    <glyph glyph-name="Oacute" unicode="&#xd3;" horiz-adv-x="779" 
d="M389 -17q-72 0 -134 27.5t-108 75t-72 111.5t-26 137t26 136.5t71.5 111t108 75t134.5 27.5t134.5 -27.5t108.5 -75t72 -111t26 -136.5t-26 -137t-72 -111.5t-108.5 -75t-134.5 -27.5zM389 73q55 0 99.5 21t76 57t48.5 83.5t17 100.5q0 54 -17 101.5t-48.5 83.5t-76 56.5
t-99.5 20.5t-99 -20.5t-75.5 -56.5t-48.5 -83.5t-17 -101.5q0 -53 17 -100.5t48.5 -83.5t75.5 -57t99 -21zM413 870h114l-106 -150h-81z" />
    <glyph glyph-name="Ocircumflex" unicode="&#xd4;" horiz-adv-x="779" 
d="M389 -17q-72 0 -134 27.5t-108 75t-72 111.5t-26 137t26 136.5t71.5 111t108 75t134.5 27.5t134.5 -27.5t108.5 -75t72 -111t26 -136.5t-26 -137t-72 -111.5t-108.5 -75t-134.5 -27.5zM389 73q55 0 99.5 21t76 57t48.5 83.5t17 100.5q0 54 -17 101.5t-48.5 83.5t-76 56.5
t-99.5 20.5t-99 -20.5t-75.5 -56.5t-48.5 -83.5t-17 -101.5q0 -53 17 -100.5t48.5 -83.5t75.5 -57t99 -21zM344 870h88l56 -75l55 -75h-83l-36.5 46l-36.5 46l-72 -92h-84z" />
    <glyph glyph-name="Otilde" unicode="&#xd5;" horiz-adv-x="779" 
d="M389 -17q-72 0 -134 27.5t-108 75t-72 111.5t-26 137t26 136.5t71.5 111t108 75t134.5 27.5t134.5 -27.5t108.5 -75t72 -111t26 -136.5t-26 -137t-72 -111.5t-108.5 -75t-134.5 -27.5zM389 73q55 0 99.5 21t76 57t48.5 83.5t17 100.5q0 54 -17 101.5t-48.5 83.5t-76 56.5
t-99.5 20.5t-99 -20.5t-75.5 -56.5t-48.5 -83.5t-17 -101.5q0 -53 17 -100.5t48.5 -83.5t75.5 -57t99 -21zM201 798q19 20 49.5 38.5t68.5 18.5q23 0 39.5 -7t31 -15t29 -15t34.5 -7q29 0 48.5 11.5t36.5 25.5l20.5 -28.5l20.5 -29.5q-19 -20 -49 -39t-68 -19q-23 0 -39 7
t-31 16t-30 16t-35 7q-29 0 -49 -11.5t-37 -25.5z" />
    <glyph glyph-name="Odieresis" unicode="&#xd6;" horiz-adv-x="779" 
d="M389 -17q-72 0 -134 27.5t-108 75t-72 111.5t-26 137t26 136.5t71.5 111t108 75t134.5 27.5t134.5 -27.5t108.5 -75t72 -111t26 -136.5t-26 -137t-72 -111.5t-108.5 -75t-134.5 -27.5zM389 73q55 0 99.5 21t76 57t48.5 83.5t17 100.5q0 54 -17 101.5t-48.5 83.5t-76 56.5
t-99.5 20.5t-99 -20.5t-75.5 -56.5t-48.5 -83.5t-17 -101.5q0 -53 17 -100.5t48.5 -83.5t75.5 -57t99 -21zM436 844h101v-98h-101v98zM241 844h101v-98h-101v98z" />
    <glyph glyph-name="multiply" unicode="&#xd7;" horiz-adv-x="545" 
d="M218 320l-120 121l54 55l121 -121l121 122l54 -55l-121 -121l120 -120l-55 -55l-119 121l-122 -122l-55 54z" />
    <glyph glyph-name="Oslash" unicode="&#xd8;" horiz-adv-x="779" 
d="M154 77q-50 48 -77.5 114t-27.5 142q0 73 26 137t71.5 111.5t108 75t134.5 27.5q45 0 85 -10.5t75 -30.5l59 83l68 -43l-60 -86q54 -48 84 -116.5t30 -147.5q0 -73 -26 -137t-72 -111t-108.5 -74.5t-134.5 -27.5q-48 0 -90.5 12t-80.5 33l-62 -87l-68 43zM271 104
q25 -15 54.5 -23.5t63.5 -8.5q55 0 99.5 21t76 57t48.5 83.5t17 101.5t-18 102t-50 83zM498 570q-23 13 -50.5 20t-58.5 7q-55 0 -99 -21t-75.5 -56.5t-48.5 -83t-17 -101.5q0 -52 15.5 -97.5t44.5 -80.5z" />
    <glyph glyph-name="Ugrave" unicode="&#xd9;" horiz-adv-x="673" 
d="M71 667h96v-390q0 -45 8 -82.5t27.5 -64.5t52 -41.5t82.5 -14.5q49 0 81.5 14.5t52 41.5t27.5 64.5t8 82.5v390h96v-413q0 -57 -16 -106.5t-48.5 -86t-82.5 -57.5t-118 -21t-118 21t-83 57.5t-49 86t-16 106.5v413zM221 870h112l74 -150h-81z" />
    <glyph glyph-name="Uacute" unicode="&#xda;" horiz-adv-x="673" 
d="M71 667h96v-390q0 -45 8 -82.5t27.5 -64.5t52 -41.5t82.5 -14.5q49 0 81.5 14.5t52 41.5t27.5 64.5t8 82.5v390h96v-413q0 -57 -16 -106.5t-48.5 -86t-82.5 -57.5t-118 -21t-118 21t-83 57.5t-49 86t-16 106.5v413zM354 870h114l-106 -150h-81z" />
    <glyph glyph-name="Ucircumflex" unicode="&#xdb;" horiz-adv-x="673" 
d="M71 667h96v-390q0 -45 8 -82.5t27.5 -64.5t52 -41.5t82.5 -14.5q49 0 81.5 14.5t52 41.5t27.5 64.5t8 82.5v390h96v-413q0 -57 -16 -106.5t-48.5 -86t-82.5 -57.5t-118 -21t-118 21t-83 57.5t-49 86t-16 106.5v413zM293 870h88l56 -75l55 -75h-83l-36.5 46l-36.5 46
l-72 -92h-84z" />
    <glyph glyph-name="Udieresis" unicode="&#xdc;" horiz-adv-x="673" 
d="M71 667h96v-390q0 -45 8 -82.5t27.5 -64.5t52 -41.5t82.5 -14.5q49 0 81.5 14.5t52 41.5t27.5 64.5t8 82.5v390h96v-413q0 -57 -16 -106.5t-48.5 -86t-82.5 -57.5t-118 -21t-118 21t-83 57.5t-49 86t-16 106.5v413zM383 844h101v-98h-101v98zM188 844h101v-98h-101v98z
" />
    <glyph glyph-name="Yacute" unicode="&#xdd;" horiz-adv-x="577" 
d="M239 298l-230 369h107l174 -285l174 285h103l-231 -369v-298h-97v298zM318 870h114l-106 -150h-81z" />
    <glyph glyph-name="Thorn" unicode="&#xde;" horiz-adv-x="566" 
d="M76 667h92v-122h118q68 0 113 -19t71.5 -48t37 -64.5t10.5 -69.5q0 -50 -17 -88.5t-47 -64t-72 -38.5t-91 -13h-123v-140h-92v667zM290 222q62 0 95.5 32t33.5 87q0 57 -34.5 89.5t-94.5 32.5h-122v-241h122z" />
    <glyph glyph-name="germandbls" unicode="&#xdf;" horiz-adv-x="586" 
d="M62 475q0 59 16 99t44 64t67 34.5t85 10.5q37 0 69 -10.5t55.5 -29t37 -44.5t13.5 -57q0 -40 -18.5 -68.5t-40.5 -51l-40.5 -43t-18.5 -44.5t22 -37t57 -22q28 -8 52.5 -18.5t43 -27t29 -41t10.5 -60.5q0 -64 -45 -103t-130 -39q-50 0 -89.5 13.5t-69.5 37.5l53 65
q23 -20 50 -30t53 -10q46 0 67.5 17.5t21.5 43.5q0 30 -17.5 47.5t-66.5 33.5q-24 7 -47 15.5t-41 22.5t-29.5 35.5t-11.5 55.5q0 35 18 61t39 48l39 42.5t18 43.5q0 31 -21.5 53.5t-69.5 22.5q-32 0 -54 -10t-35.5 -27.5t-19.5 -42.5t-6 -55v-470h-89v475z" />
    <glyph glyph-name="agrave" unicode="&#xe0;" horiz-adv-x="499" 
d="M353 56q-26 -35 -68.5 -52t-87.5 -17q-29 0 -57.5 7.5t-52 25t-38 45t-14.5 67.5q0 75 52.5 120t151.5 45q16 0 34 -1t34 -2t28 -2t17 -2v17q0 52 -31.5 74.5t-85.5 22.5q-53 0 -84 -14.5t-52 -29.5l-42 61q12 10 29 20t40 18.5t52 14t67 5.5q90 0 141.5 -43.5
t51.5 -123.5v-271q0 -24 1 -41h-84zM352 220q-4 1 -15.5 2.5t-26.5 2.5t-32 2t-33 1q-38 0 -61.5 -9t-37 -22.5t-18.5 -30t-5 -31.5q0 -38 26 -57.5t72 -19.5q26 0 49.5 9t41.5 24t29 35t11 41v53zM147 677h100l53 -136h-75z" />
    <glyph glyph-name="aacute" unicode="&#xe1;" horiz-adv-x="499" 
d="M353 56q-26 -35 -68.5 -52t-87.5 -17q-29 0 -57.5 7.5t-52 25t-38 45t-14.5 67.5q0 75 52.5 120t151.5 45q16 0 34 -1t34 -2t28 -2t17 -2v17q0 52 -31.5 74.5t-85.5 22.5q-53 0 -84 -14.5t-52 -29.5l-42 61q12 10 29 20t40 18.5t52 14t67 5.5q90 0 141.5 -43.5
t51.5 -123.5v-271q0 -24 1 -41h-84zM352 220q-4 1 -15.5 2.5t-26.5 2.5t-32 2t-33 1q-38 0 -61.5 -9t-37 -22.5t-18.5 -30t-5 -31.5q0 -38 26 -57.5t72 -19.5q26 0 49.5 9t41.5 24t29 35t11 41v53zM256 676h98l-77 -136h-75z" />
    <glyph glyph-name="acircumflex" unicode="&#xe2;" horiz-adv-x="499" 
d="M353 56q-26 -35 -68.5 -52t-87.5 -17q-29 0 -57.5 7.5t-52 25t-38 45t-14.5 67.5q0 75 52.5 120t151.5 45q16 0 34 -1t34 -2t28 -2t17 -2v17q0 52 -31.5 74.5t-85.5 22.5q-53 0 -84 -14.5t-52 -29.5l-42 61q12 10 29 20t40 18.5t52 14t67 5.5q90 0 141.5 -43.5
t51.5 -123.5v-271q0 -24 1 -41h-84zM352 220q-4 1 -15.5 2.5t-26.5 2.5t-32 2t-33 1q-38 0 -61.5 -9t-37 -22.5t-18.5 -30t-5 -31.5q0 -38 26 -57.5t72 -19.5q26 0 49.5 9t41.5 24t29 35t11 41v53zM200 676h85l99 -137h-82l-60 83l-59 -83h-82z" />
    <glyph glyph-name="atilde" unicode="&#xe3;" horiz-adv-x="499" 
d="M353 56q-26 -35 -68.5 -52t-87.5 -17q-29 0 -57.5 7.5t-52 25t-38 45t-14.5 67.5q0 75 52.5 120t151.5 45q16 0 34 -1t34 -2t28 -2t17 -2v17q0 52 -31.5 74.5t-85.5 22.5q-53 0 -84 -14.5t-52 -29.5l-42 61q12 10 29 20t40 18.5t52 14t67 5.5q90 0 141.5 -43.5
t51.5 -123.5v-271q0 -24 1 -41h-84zM352 220q-4 1 -15.5 2.5t-26.5 2.5t-32 2t-33 1q-38 0 -61.5 -9t-37 -22.5t-18.5 -30t-5 -31.5q0 -38 26 -57.5t72 -19.5q26 0 49.5 9t41.5 24t29 35t11 41v53zM65 606q17 19 47 36.5t65 17.5q21 0 36.5 -6.5t29.5 -15t29 -15t36 -6.5
q29 2 45 12t33 24l36 -54q-17 -19 -46.5 -37t-64.5 -18q-21 0 -37 7t-30 15t-28 15t-33 7q-28 0 -46.5 -10.5t-34.5 -24.5z" />
    <glyph glyph-name="adieresis" unicode="&#xe4;" horiz-adv-x="499" 
d="M353 56q-26 -35 -68.5 -52t-87.5 -17q-29 0 -57.5 7.5t-52 25t-38 45t-14.5 67.5q0 75 52.5 120t151.5 45q16 0 34 -1t34 -2t28 -2t17 -2v17q0 52 -31.5 74.5t-85.5 22.5q-53 0 -84 -14.5t-52 -29.5l-42 61q12 10 29 20t40 18.5t52 14t67 5.5q90 0 141.5 -43.5
t51.5 -123.5v-271q0 -24 1 -41h-84zM352 220q-4 1 -15.5 2.5t-26.5 2.5t-32 2t-33 1q-38 0 -61.5 -9t-37 -22.5t-18.5 -30t-5 -31.5q0 -38 26 -57.5t72 -19.5q26 0 49.5 9t41.5 24t29 35t11 41v53zM291 651h93v-91h-93v91zM120 651h94v-91h-94v91z" />
    <glyph glyph-name="aring" unicode="&#xe5;" horiz-adv-x="499" 
d="M353 56q-26 -35 -68.5 -52t-87.5 -17q-29 0 -57.5 7.5t-52 25t-38 45t-14.5 67.5q0 75 52.5 120t151.5 45q16 0 34 -1t34 -2t28 -2t17 -2v17q0 52 -31.5 74.5t-85.5 22.5q-53 0 -84 -14.5t-52 -29.5l-42 61q12 10 29 20t40 18.5t52 14t67 5.5q90 0 141.5 -43.5
t51.5 -123.5v-271q0 -24 1 -41h-84zM352 220q-4 1 -15.5 2.5t-26.5 2.5t-32 2t-33 1q-38 0 -61.5 -9t-37 -22.5t-18.5 -30t-5 -31.5q0 -38 26 -57.5t72 -19.5q26 0 49.5 9t41.5 24t29 35t11 41v53zM140 641q0 23 8.5 42.5t23.5 34t35 22.5t43 8t43 -8t35 -22t23.5 -33.5
t8.5 -42.5t-8.5 -43t-23.5 -34t-35 -22t-42 -8q-23 0 -43 8t-35 22t-24 33.5t-9 42.5zM250 589q21 0 36 15t15 37t-15 36.5t-36 14.5t-35.5 -14.5t-14.5 -36.5t14.5 -37t35.5 -15z" />
    <glyph glyph-name="ae" unicode="&#xe6;" horiz-adv-x="843" 
d="M57 421q12 9 28.5 19.5t39 19t51 14t64.5 5.5q125 0 170 -79q28 37 71.5 58t96.5 21q60 0 103 -22.5t70.5 -60t40.5 -87t13 -102.5h-366q0 -31 12.5 -57t33.5 -45.5t48 -30.5t57 -11q59 0 97 20t55 39l51 -54q-8 -9 -24 -23t-41.5 -27t-60 -22.5t-78.5 -9.5
q-63 0 -112 24.5t-81 69.5q-40 -53 -84.5 -73t-107.5 -20q-31 0 -61 7.5t-54 24.5t-39 44.5t-15 67.5q0 75 53 115t151 40q15 0 32 -1l33 -2t28.5 -2t19.5 -1v27q0 52 -30.5 74.5t-82.5 22.5q-55 0 -87 -14.5t-53 -29.5zM352 210l-22 2.5t-28 2.5t-30 1.5t-27 0.5
q-35 0 -59 -7.5t-38.5 -19t-20.5 -26.5t-6 -30q0 -38 27 -57t73 -19q28 0 52 9t41.5 24t27.5 35t10 41v43zM712 274q-4 54 -38 91.5t-96 37.5q-32 0 -57.5 -11t-43.5 -29t-28 -41t-11 -48h274z" />
    <glyph glyph-name="ccedilla" unicode="&#xe7;" horiz-adv-x="493" 
d="M466 64q-31 -35 -76.5 -56.5t-105.5 -21.5q-56 0 -101.5 18.5t-77 51t-48.5 78t-17 99.5q0 51 18 96t50.5 78.5t77 53t98.5 19.5q59 0 104 -21t77 -57l-59 -57q-21 26 -51 41t-71 15q-36 0 -64.5 -13.5t-48 -37t-30 -54t-10.5 -63.5q0 -32 10.5 -62.5t30 -54t48 -37.5
t64.5 -14q41 0 73.5 15.5t53.5 41.5zM170 -155q17 -6 35 -10t37 -4q32 0 48.5 10.5t16.5 28.5q0 14 -13.5 24.5t-44.5 10.5q-18 0 -35 -3.5t-34 -9.5l9 55q16 5 34 9t50 4q53 0 80 -26t27 -61q0 -24 -10 -42t-27.5 -30.5t-40 -18.5t-47.5 -6q-43 0 -67 6.5t-29 8.5z" />
    <glyph glyph-name="egrave" unicode="&#xe8;" horiz-adv-x="536" 
d="M486 68q-8 -9 -24 -23t-41.5 -27t-60 -22.5t-78.5 -9.5q-54 0 -99 18t-77 51t-49.5 79t-17.5 102q0 51 17 95.5t48 77t73.5 51.5t93.5 19q60 0 103 -23t70.5 -61t40.5 -87t13 -102h-367q1 -31 13.5 -57t33.5 -45t48 -30t57 -11q59 0 97 20t55 39zM405 273q-4 54 -38 92
t-96 38q-32 0 -57.5 -11t-43.5 -29t-28 -41.5t-11 -48.5h274zM172 677h100l53 -136h-75z" />
    <glyph glyph-name="eacute" unicode="&#xe9;" horiz-adv-x="536" 
d="M486 68q-8 -9 -24 -23t-41.5 -27t-60 -22.5t-78.5 -9.5q-54 0 -99 18t-77 51t-49.5 79t-17.5 102q0 51 17 95.5t48 77t73.5 51.5t93.5 19q60 0 103 -23t70.5 -61t40.5 -87t13 -102h-367q1 -31 13.5 -57t33.5 -45t48 -30t57 -11q59 0 97 20t55 39zM405 273q-4 54 -38 92
t-96 38q-32 0 -57.5 -11t-43.5 -29t-28 -41.5t-11 -48.5h274zM285 676h98l-77 -136h-75z" />
    <glyph glyph-name="ecircumflex" unicode="&#xea;" horiz-adv-x="536" 
d="M486 68q-8 -9 -24 -23t-41.5 -27t-60 -22.5t-78.5 -9.5q-54 0 -99 18t-77 51t-49.5 79t-17.5 102q0 51 17 95.5t48 77t73.5 51.5t93.5 19q60 0 103 -23t70.5 -61t40.5 -87t13 -102h-367q1 -31 13.5 -57t33.5 -45t48 -30t57 -11q59 0 97 20t55 39zM405 273q-4 54 -38 92
t-96 38q-32 0 -57.5 -11t-43.5 -29t-28 -41.5t-11 -48.5h274zM226 676h85l99 -137h-82l-60 83l-59 -83h-82z" />
    <glyph glyph-name="edieresis" unicode="&#xeb;" horiz-adv-x="536" 
d="M486 68q-8 -9 -24 -23t-41.5 -27t-60 -22.5t-78.5 -9.5q-54 0 -99 18t-77 51t-49.5 79t-17.5 102q0 51 17 95.5t48 77t73.5 51.5t93.5 19q60 0 103 -23t70.5 -61t40.5 -87t13 -102h-367q1 -31 13.5 -57t33.5 -45t48 -30t57 -11q59 0 97 20t55 39zM405 273q-4 54 -38 92
t-96 38q-32 0 -57.5 -11t-43.5 -29t-28 -41.5t-11 -48.5h274zM307 651h93v-91h-93v91zM136 651h94v-91h-94v91z" />
    <glyph glyph-name="igrave" unicode="&#xec;" horiz-adv-x="222" 
d="M66 465h90v-465h-90v465zM-1 677h100l53 -136h-75z" />
    <glyph glyph-name="iacute" unicode="&#xed;" horiz-adv-x="222" 
d="M66 465h90v-465h-90v465zM125 676h98l-77 -136h-75z" />
    <glyph glyph-name="icircumflex" unicode="&#xee;" horiz-adv-x="222" 
d="M66 465h90v-465h-90v465zM69 676h85l99 -137h-82l-60 83l-59 -83h-82z" />
    <glyph glyph-name="idieresis" unicode="&#xef;" horiz-adv-x="222" 
d="M66 465h90v-465h-90v465zM151 651h93v-91h-93v91zM-20 651h94v-91h-94v91z" />
    <glyph glyph-name="eth" unicode="&#xf0;" horiz-adv-x="558" 
d="M220 592q-21 7 -44 10.5t-46 5.5l10 70q68 -4 125 -23l48 67l51 -32l-42 -58q100 -50 148 -144.5t48 -217.5q0 -74 -19.5 -127.5t-53.5 -89t-78.5 -52.5t-95.5 -17q-45 0 -87 15t-74 44.5t-51 73.5t-19 102q0 47 17.5 89t48.5 74t74.5 51t95.5 19q48 0 79 -10t50 -20
q-17 49 -49.5 86t-77.5 61l-53 -73l-51 32zM421 333q-18 12 -50 26.5t-81 14.5q-34 0 -63 -11t-50 -31.5t-33 -49.5t-12 -64t11 -63t30 -48.5t45.5 -31.5t56.5 -11q28 0 55.5 11.5t49.5 36t35 63.5t13 93q0 16 -1 31.5t-6 33.5z" />
    <glyph glyph-name="ntilde" unicode="&#xf1;" horiz-adv-x="544" 
d="M62 0v417q0 23 -1 48h86l3 -70q9 12 22 26.5t32 26.5t44.5 20t57.5 8q91 0 135 -53t44 -144v-279h-90v272q0 65 -28 95.5t-79 30.5q-39 0 -65 -16t-41.5 -41.5t-22.5 -58t-7 -66.5v-216h-90zM94 606q17 19 47 36.5t65 17.5q21 0 36.5 -6.5t29.5 -15t29 -15t36 -6.5
q29 2 45 12t33 24l36 -54q-17 -19 -46.5 -37t-64.5 -18q-21 0 -37 7t-30 15t-28 15t-33 7q-28 0 -46.5 -10.5t-34.5 -24.5z" />
    <glyph glyph-name="ograve" unicode="&#xf2;" horiz-adv-x="572" 
d="M286 -14q-54 0 -99 19.5t-77.5 53.5t-51 78.5t-18.5 95.5t18.5 95.5t51 78.5t77.5 53.5t99 19.5q53 0 98 -19.5t78 -53.5t51.5 -78.5t18.5 -95.5t-18.5 -95.5t-51.5 -78.5t-78 -53.5t-98 -19.5zM286 64q36 0 65 14.5t49 38t30.5 54t10.5 62.5q0 31 -10.5 61.5t-31 54.5
t-49 38.5t-64.5 14.5t-65 -14.5t-49 -38t-30.5 -54t-10.5 -62.5t10.5 -62t31 -54t49 -38.5t64.5 -14.5zM185 677h100l53 -136h-75z" />
    <glyph glyph-name="oacute" unicode="&#xf3;" horiz-adv-x="572" 
d="M286 -14q-54 0 -99 19.5t-77.5 53.5t-51 78.5t-18.5 95.5t18.5 95.5t51 78.5t77.5 53.5t99 19.5q53 0 98 -19.5t78 -53.5t51.5 -78.5t18.5 -95.5t-18.5 -95.5t-51.5 -78.5t-78 -53.5t-98 -19.5zM286 64q36 0 65 14.5t49 38t30.5 54t10.5 62.5q0 31 -10.5 61.5t-31 54.5
t-49 38.5t-64.5 14.5t-65 -14.5t-49 -38t-30.5 -54t-10.5 -62.5t10.5 -62t31 -54t49 -38.5t64.5 -14.5zM297 676h98l-77 -136h-75z" />
    <glyph glyph-name="ocircumflex" unicode="&#xf4;" horiz-adv-x="572" 
d="M286 -14q-54 0 -99 19.5t-77.5 53.5t-51 78.5t-18.5 95.5t18.5 95.5t51 78.5t77.5 53.5t99 19.5q53 0 98 -19.5t78 -53.5t51.5 -78.5t18.5 -95.5t-18.5 -95.5t-51.5 -78.5t-78 -53.5t-98 -19.5zM286 64q36 0 65 14.5t49 38t30.5 54t10.5 62.5q0 31 -10.5 61.5t-31 54.5
t-49 38.5t-64.5 14.5t-65 -14.5t-49 -38t-30.5 -54t-10.5 -62.5t10.5 -62t31 -54t49 -38.5t64.5 -14.5zM242 676h85l99 -137h-82l-60 83l-59 -83h-82z" />
    <glyph glyph-name="otilde" unicode="&#xf5;" horiz-adv-x="572" 
d="M286 -14q-54 0 -99 19.5t-77.5 53.5t-51 78.5t-18.5 95.5t18.5 95.5t51 78.5t77.5 53.5t99 19.5q53 0 98 -19.5t78 -53.5t51.5 -78.5t18.5 -95.5t-18.5 -95.5t-51.5 -78.5t-78 -53.5t-98 -19.5zM286 64q36 0 65 14.5t49 38t30.5 54t10.5 62.5q0 31 -10.5 61.5t-31 54.5
t-49 38.5t-64.5 14.5t-65 -14.5t-49 -38t-30.5 -54t-10.5 -62.5t10.5 -62t31 -54t49 -38.5t64.5 -14.5zM108 606q17 19 47 36.5t65 17.5q21 0 36.5 -6.5t29.5 -15t29 -15t36 -6.5q29 2 45 12t33 24l36 -54q-17 -19 -46.5 -37t-64.5 -18q-21 0 -37 7t-30 15t-28 15t-33 7
q-28 0 -46.5 -10.5t-34.5 -24.5z" />
    <glyph glyph-name="odieresis" unicode="&#xf6;" horiz-adv-x="572" 
d="M286 -14q-54 0 -99 19.5t-77.5 53.5t-51 78.5t-18.5 95.5t18.5 95.5t51 78.5t77.5 53.5t99 19.5q53 0 98 -19.5t78 -53.5t51.5 -78.5t18.5 -95.5t-18.5 -95.5t-51.5 -78.5t-78 -53.5t-98 -19.5zM286 64q36 0 65 14.5t49 38t30.5 54t10.5 62.5q0 31 -10.5 61.5t-31 54.5
t-49 38.5t-64.5 14.5t-65 -14.5t-49 -38t-30.5 -54t-10.5 -62.5t10.5 -62t31 -54t49 -38.5t64.5 -14.5zM325 651h93v-91h-93v91zM154 651h94v-91h-94v91z" />
    <glyph glyph-name="divide" unicode="&#xf7;" horiz-adv-x="544" 
d="M72 360h399v-78h-399v78zM227 209h89v-85h-89v85zM227 518h89v-84h-89v84z" />
    <glyph glyph-name="oslash" unicode="&#xf8;" horiz-adv-x="572" 
d="M118 49q-38 35 -58.5 82t-20.5 102q0 51 18.5 95.5t51.5 78t78 53t99 19.5q31 0 59 -7t53 -20l49 69l57 -35l-50 -72q36 -35 57 -81t21 -100q0 -51 -18.5 -96t-51.5 -78.5t-78 -53t-98 -19.5q-32 0 -60 7t-53 18l-46 -64l-56 35zM220 79q30 -16 66 -16t65 14.5t49 38.5
t30.5 54.5t10.5 62.5q0 29 -10 57t-28 51zM351 385q-30 16 -65 16q-36 0 -65 -14.5t-49.5 -38t-31 -54t-10.5 -61.5q0 -30 10 -59t29 -52z" />
    <glyph glyph-name="ugrave" unicode="&#xf9;" horiz-adv-x="542" 
d="M59 465h90v-273q0 -66 27 -95.5t78 -29.5q39 0 64.5 16t41.5 41.5t22.5 58t6.5 66.5v216h90v-418q0 -22 1 -47h-86l-3 69q-9 -12 -22 -26t-32 -25.5t-44 -19.5t-57 -8q-91 0 -134 52.5t-43 143.5v279zM167 677h100l53 -136h-75z" />
    <glyph glyph-name="uacute" unicode="&#xfa;" horiz-adv-x="542" 
d="M59 465h90v-273q0 -66 27 -95.5t78 -29.5q39 0 64.5 16t41.5 41.5t22.5 58t6.5 66.5v216h90v-418q0 -22 1 -47h-86l-3 69q-9 -12 -22 -26t-32 -25.5t-44 -19.5t-57 -8q-91 0 -134 52.5t-43 143.5v279zM279 676h98l-77 -136h-75z" />
    <glyph glyph-name="ucircumflex" unicode="&#xfb;" horiz-adv-x="542" 
d="M59 465h90v-273q0 -66 27 -95.5t78 -29.5q39 0 64.5 16t41.5 41.5t22.5 58t6.5 66.5v216h90v-418q0 -22 1 -47h-86l-3 69q-9 -12 -22 -26t-32 -25.5t-44 -19.5t-57 -8q-91 0 -134 52.5t-43 143.5v279zM227 676h85l99 -137h-82l-60 83l-59 -83h-82z" />
    <glyph glyph-name="udieresis" unicode="&#xfc;" horiz-adv-x="542" 
d="M59 465h90v-273q0 -66 27 -95.5t78 -29.5q39 0 64.5 16t41.5 41.5t22.5 58t6.5 66.5v216h90v-418q0 -22 1 -47h-86l-3 69q-9 -12 -22 -26t-32 -25.5t-44 -19.5t-57 -8q-91 0 -134 52.5t-43 143.5v279zM310 651h93v-91h-93v91zM139 651h94v-91h-94v91z" />
    <glyph glyph-name="yacute" unicode="&#xfd;" horiz-adv-x="502" 
d="M64 -114q10 -9 23 -16t32 -7q16 0 27.5 7t21 21.5t18 35l19.5 47.5l12 30l-208 461h103l150 -351l132 351h98l-186 -453q-13 -32 -26.5 -70.5t-33.5 -73t-49 -57.5t-73 -23q-35 0 -59 9.5t-42 25.5zM265 676h98l-77 -136h-75z" />
    <glyph glyph-name="thorn" unicode="&#xfe;" horiz-adv-x="558" 
d="M63 -200q0 218 -0.5 433.5t-0.5 433.5h89v-264q7 9 20.5 21.5t33 24t45 19t58.5 7.5q54 0 93.5 -19.5t65.5 -53t38.5 -77.5t12.5 -93q0 -64 -21.5 -110.5t-56 -76.5t-76.5 -44.5t-84 -14.5q-47 0 -75.5 9.5t-53.5 20.5v-216h-88zM151 101q16 -13 46 -25t75 -12
q34 0 62.5 12.5t49 35t31.5 53t11 67.5q0 34 -7.5 64t-24 52.5t-42.5 35.5t-64 13q-26 0 -46.5 -8.5t-36.5 -22t-27.5 -31t-18.5 -36.5q-7 -18 -7.5 -38.5t-0.5 -40.5v-119z" />
    <glyph glyph-name="ydieresis" unicode="&#xff;" horiz-adv-x="502" 
d="M64 -114q10 -9 23 -16t32 -7q16 0 27.5 7t21 21.5t18 35l19.5 47.5l12 30l-208 461h103l150 -351l132 351h98l-186 -453q-13 -32 -26.5 -70.5t-33.5 -73t-49 -57.5t-73 -23q-35 0 -59 9.5t-42 25.5zM293 651h93v-91h-93v91zM122 651h94v-91h-94v91z" />
    <glyph glyph-name="Amacron" unicode="&#x100;" horiz-adv-x="641" 
d="M271 667h98l261 -667h-107l-69 186h-274l-69 -186h-101zM425 267l-108 293l-109 -293h217zM163 832h315v-75h-315v75z" />
    <glyph glyph-name="amacron" unicode="&#x101;" horiz-adv-x="499" 
d="M353 56q-26 -35 -68.5 -52t-87.5 -17q-29 0 -57.5 7.5t-52 25t-38 45t-14.5 67.5q0 75 52.5 120t151.5 45q16 0 34 -1t34 -2t28 -2t17 -2v17q0 52 -31.5 74.5t-85.5 22.5q-53 0 -84 -14.5t-52 -29.5l-42 61q12 10 29 20t40 18.5t52 14t67 5.5q90 0 141.5 -43.5
t51.5 -123.5v-271q0 -24 1 -41h-84zM352 220q-4 1 -15.5 2.5t-26.5 2.5t-32 2t-33 1q-38 0 -61.5 -9t-37 -22.5t-18.5 -30t-5 -31.5q0 -38 26 -57.5t72 -19.5q26 0 49.5 9t41.5 24t29 35t11 41v53zM129 637h250v-72h-250v72z" />
    <glyph glyph-name="Abreve" unicode="&#x102;" horiz-adv-x="641" 
d="M271 667h98l261 -667h-107l-69 186h-274l-69 -186h-101zM425 267l-108 293l-109 -293h217zM245 854q1 -26 20 -46.5t54 -20.5t54.5 20.5t20.5 46.5h74q0 -25 -9.5 -49t-28 -42.5t-46.5 -29.5t-65 -11t-64.5 11t-46 29.5t-28 42.5t-9.5 49h74z" />
    <glyph glyph-name="abreve" unicode="&#x103;" horiz-adv-x="499" 
d="M353 56q-26 -35 -68.5 -52t-87.5 -17q-29 0 -57.5 7.5t-52 25t-38 45t-14.5 67.5q0 75 52.5 120t151.5 45q16 0 34 -1t34 -2t28 -2t17 -2v17q0 52 -31.5 74.5t-85.5 22.5q-53 0 -84 -14.5t-52 -29.5l-42 61q12 10 29 20t40 18.5t52 14t67 5.5q90 0 141.5 -43.5
t51.5 -123.5v-271q0 -24 1 -41h-84zM352 220q-4 1 -15.5 2.5t-26.5 2.5t-32 2t-33 1q-38 0 -61.5 -9t-37 -22.5t-18.5 -30t-5 -31.5q0 -38 26 -57.5t72 -19.5q26 0 49.5 9t41.5 24t29 35t11 41v53zM178 669q0 -26 16.5 -46.5t51.5 -20.5t51.5 20.5t16.5 46.5h70
q0 -24 -8.5 -47t-26 -41t-43.5 -29t-60 -11q-35 0 -61 11t-43 29t-26 41t-9 47h71z" />
    <glyph glyph-name="Aogonek" unicode="&#x104;" horiz-adv-x="641" 
d="M271 667h98l261 -667q-25 -23 -42 -49.5t-17 -47.5q0 -29 34 -29q15 0 28.5 6t27.5 14l26 -59q-25 -17 -53.5 -26t-53.5 -9q-48 0 -72 20.5t-24 56.5q0 33 21 64.5t47 58.5h-29l-69 186h-274l-69 -186h-101zM425 267l-108 293l-109 -293h217z" />
    <glyph glyph-name="aogonek" unicode="&#x105;" horiz-adv-x="499" 
d="M353 56q-26 -35 -68.5 -52t-87.5 -17q-29 0 -57.5 7.5t-52 25t-38 45t-14.5 67.5q0 75 52.5 120t151.5 45q16 0 34 -1t34 -2t28 -2t17 -2v17q0 52 -31.5 74.5t-85.5 22.5q-53 0 -84 -14.5t-52 -29.5l-42 61q12 10 29 20t40 18.5t52 14t67 5.5q90 0 141.5 -43.5
t51.5 -123.5v-271q0 -24 1 -41q-24 -23 -41.5 -49t-17.5 -46q0 -14 9.5 -22t24.5 -8q17 0 31 6t28 15l24 -59q-23 -16 -50.5 -24.5t-51.5 -8.5q-45 0 -69.5 20.5t-24.5 56.5q0 31 19.5 61.5t45.5 57.5h-11zM352 220q-4 1 -15.5 2.5t-26.5 2.5t-32 2t-33 1q-38 0 -61.5 -9
t-37 -22.5t-18.5 -30t-5 -31.5q0 -38 26 -57.5t72 -19.5q26 0 49.5 9t41.5 24t29 35t11 41v53z" />
    <glyph glyph-name="Cacute" unicode="&#x106;" horiz-adv-x="677" 
d="M642 117q-11 -18 -34 -41t-56 -43.5t-76 -34.5t-95 -14q-74 0 -135 26t-105 72.5t-68.5 110t-24.5 138.5q0 73 24.5 137t68.5 112t105.5 75.5t136.5 27.5q53 0 95 -13t73.5 -32.5t54 -42.5t36.5 -44l-68 -58q-12 17 -28.5 35.5t-39.5 33.5t-53 25t-69 10q-55 0 -98.5 -21
t-74 -57t-46.5 -84t-16 -102t16.5 -101.5t46.5 -82.5t73 -55t96 -20q45 0 77.5 11.5t55 27.5t37 32.5l24.5 27.5zM397 870h114l-106 -150h-81z" />
    <glyph glyph-name="cacute" unicode="&#x107;" horiz-adv-x="493" 
d="M466 64q-31 -35 -76.5 -56.5t-105.5 -21.5q-56 0 -101.5 18.5t-77 51t-48.5 78t-17 99.5q0 51 18 96t50.5 78.5t77 53t98.5 19.5q59 0 104 -21t77 -57l-59 -57q-21 26 -51 41t-71 15q-36 0 -64.5 -13.5t-48 -37t-30 -54t-10.5 -63.5q0 -32 10.5 -62.5t30 -54t48 -37.5
t64.5 -14q41 0 73.5 15.5t53.5 41.5zM288 676h98l-77 -136h-75z" />
    <glyph glyph-name="Ccircumflex" unicode="&#x108;" horiz-adv-x="677" 
d="M642 117q-11 -18 -34 -41t-56 -43.5t-76 -34.5t-95 -14q-74 0 -135 26t-105 72.5t-68.5 110t-24.5 138.5q0 73 24.5 137t68.5 112t105.5 75.5t136.5 27.5q53 0 95 -13t73.5 -32.5t54 -42.5t36.5 -44l-68 -58q-12 17 -28.5 35.5t-39.5 33.5t-53 25t-69 10q-55 0 -98.5 -21
t-74 -57t-46.5 -84t-16 -102t16.5 -101.5t46.5 -82.5t73 -55t96 -20q45 0 77.5 11.5t55 27.5t37 32.5l24.5 27.5zM338 870h88l56 -75l55 -75h-83l-36.5 46l-36.5 46l-72 -92h-84z" />
    <glyph glyph-name="ccircumflex" unicode="&#x109;" horiz-adv-x="493" 
d="M466 64q-31 -35 -76.5 -56.5t-105.5 -21.5q-56 0 -101.5 18.5t-77 51t-48.5 78t-17 99.5q0 51 18 96t50.5 78.5t77 53t98.5 19.5q59 0 104 -21t77 -57l-59 -57q-21 26 -51 41t-71 15q-36 0 -64.5 -13.5t-48 -37t-30 -54t-10.5 -63.5q0 -32 10.5 -62.5t30 -54t48 -37.5
t64.5 -14q41 0 73.5 15.5t53.5 41.5zM238 676h85l99 -137h-82l-60 83l-59 -83h-82z" />
    <glyph glyph-name="Cdotaccent" unicode="&#x10a;" horiz-adv-x="677" 
d="M642 117q-11 -18 -34 -41t-56 -43.5t-76 -34.5t-95 -14q-74 0 -135 26t-105 72.5t-68.5 110t-24.5 138.5q0 73 24.5 137t68.5 112t105.5 75.5t136.5 27.5q53 0 95 -13t73.5 -32.5t54 -42.5t36.5 -44l-68 -58q-12 17 -28.5 35.5t-39.5 33.5t-53 25t-69 10q-55 0 -98.5 -21
t-74 -57t-46.5 -84t-16 -102t16.5 -101.5t46.5 -82.5t73 -55t96 -20q45 0 77.5 11.5t55 27.5t37 32.5l24.5 27.5zM322 847h107v-103h-107v103z" />
    <glyph glyph-name="cdotaccent" unicode="&#x10b;" horiz-adv-x="493" 
d="M466 64q-31 -35 -76.5 -56.5t-105.5 -21.5q-56 0 -101.5 18.5t-77 51t-48.5 78t-17 99.5q0 51 18 96t50.5 78.5t77 53t98.5 19.5q59 0 104 -21t77 -57l-59 -57q-21 26 -51 41t-71 15q-36 0 -64.5 -13.5t-48 -37t-30 -54t-10.5 -63.5q0 -32 10.5 -62.5t30 -54t48 -37.5
t64.5 -14q41 0 73.5 15.5t53.5 41.5zM228 654h100v-97h-100v97z" />
    <glyph glyph-name="Ccaron" unicode="&#x10c;" horiz-adv-x="677" 
d="M642 117q-11 -18 -34 -41t-56 -43.5t-76 -34.5t-95 -14q-74 0 -135 26t-105 72.5t-68.5 110t-24.5 138.5q0 73 24.5 137t68.5 112t105.5 75.5t136.5 27.5q53 0 95 -13t73.5 -32.5t54 -42.5t36.5 -44l-68 -58q-12 17 -28.5 35.5t-39.5 33.5t-53 25t-69 10q-55 0 -98.5 -21
t-74 -57t-46.5 -84t-16 -102t16.5 -101.5t46.5 -82.5t73 -55t96 -20q45 0 77.5 11.5t55 27.5t37 32.5l24.5 27.5zM310 870l36.5 -46l36.5 -46l72 92h84l-113 -150h-88l-56 75l-55 75h83z" />
    <glyph glyph-name="ccaron" unicode="&#x10d;" horiz-adv-x="493" 
d="M466 64q-31 -35 -76.5 -56.5t-105.5 -21.5q-56 0 -101.5 18.5t-77 51t-48.5 78t-17 99.5q0 51 18 96t50.5 78.5t77 53t98.5 19.5q59 0 104 -21t77 -57l-59 -57q-21 26 -51 41t-71 15q-36 0 -64.5 -13.5t-48 -37t-30 -54t-10.5 -63.5q0 -32 10.5 -62.5t30 -54t48 -37.5
t64.5 -14q41 0 73.5 15.5t53.5 41.5zM137 676h82l60 -83l59 83h82l-99 -137h-85z" />
    <glyph glyph-name="Dcaron" unicode="&#x10e;" horiz-adv-x="715" 
d="M76 667h223q79 0 145.5 -19.5t114.5 -61t75 -104.5t27 -150q0 -84 -27 -146.5t-75 -104t-115 -61.5t-146 -20h-222v667zM296 86q125 0 194.5 61.5t69.5 182.5q0 122 -67 186.5t-200 64.5h-121v-495h124zM237 870l36.5 -46l36.5 -46l72 92h84l-113 -150h-88l-56 75l-55 75
h83z" />
    <glyph glyph-name="dcaron" unicode="&#x10f;" horiz-adv-x="571" 
d="M397 59q-5 -6 -16.5 -18.5t-30.5 -24.5t-44.5 -21t-59.5 -9q-44 0 -82 17t-66 48t-43.5 75.5t-15.5 99.5q0 66 23 113.5t58.5 78t77 44.5t78.5 14q50 0 78 -12l43 -18v221h90v-620q0 -22 1 -47h-88zM397 362q-10 8 -37 21.5t-77 13.5q-33 0 -60.5 -12t-48 -34t-32 -54
t-11.5 -72q0 -33 8 -62.5t24.5 -51.5t42 -34.5t60.5 -12.5t60 13t40.5 32.5t23 43t7.5 43.5v166zM553 667h86l-25 -173h-61v173z" />
    <glyph glyph-name="Dcroat" unicode="&#x110;" horiz-adv-x="720" 
d="M82 301h-72v79h72v287h223q79 0 145.5 -19.5t114.5 -61t74.5 -104.5t26.5 -150q0 -84 -27 -146.5t-75 -104t-114.5 -61.5t-145.5 -20h-222v301zM303 86q125 0 194.5 61.5t69.5 183.5q0 121 -66.5 186t-200.5 65h-122v-202h168v-79h-168v-215h125z" />
    <glyph glyph-name="dcroat" unicode="&#x111;" horiz-adv-x="553" 
d="M397 57l-17.5 -18t-30.5 -23.5t-44.5 -20.5t-59.5 -9q-44 0 -81.5 16t-65.5 46.5t-43.5 74t-15.5 98.5q0 65 23 111t57.5 75t76 42.5t79.5 13.5q25 0 44.5 -3.5t34 -8.5t25 -10t18.5 -8v96h-174v63h174v75h89v-75h65v-63h-65v-482q0 -22 1 -47h-87zM397 349
q-11 7 -38.5 21t-75.5 14q-33 0 -61 -11t-48.5 -32t-32 -51.5t-11.5 -69.5q0 -33 8 -61.5t25 -49.5t42.5 -33t60.5 -12q36 0 61 14t40.5 35t22.5 45t7 45v146z" />
    <glyph glyph-name="Emacron" unicode="&#x112;" horiz-adv-x="564" 
d="M76 667h420v-85h-324v-194h244v-86h-244v-216h348v-86h-444v667zM132 832h315v-75h-315v75z" />
    <glyph glyph-name="emacron" unicode="&#x113;" horiz-adv-x="536" 
d="M486 68q-8 -9 -24 -23t-41.5 -27t-60 -22.5t-78.5 -9.5q-54 0 -99 18t-77 51t-49.5 79t-17.5 102q0 51 17 95.5t48 77t73.5 51.5t93.5 19q60 0 103 -23t70.5 -61t40.5 -87t13 -102h-367q1 -31 13.5 -57t33.5 -45t48 -30t57 -11q59 0 97 20t55 39zM405 273q-4 54 -38 92
t-96 38q-32 0 -57.5 -11t-43.5 -29t-28 -41.5t-11 -48.5h274zM147 637h250v-72h-250v72z" />
    <glyph glyph-name="Ebreve" unicode="&#x114;" horiz-adv-x="564" 
d="M76 667h420v-85h-324v-194h244v-86h-244v-216h348v-86h-444v667zM215 854q1 -26 20 -46.5t54 -20.5t54.5 20.5t20.5 46.5h74q0 -25 -9.5 -49t-28 -42.5t-46.5 -29.5t-65 -11t-64.5 11t-46 29.5t-28 42.5t-9.5 49h74z" />
    <glyph glyph-name="ebreve" unicode="&#x115;" horiz-adv-x="536" 
d="M486 68q-8 -9 -24 -23t-41.5 -27t-60 -22.5t-78.5 -9.5q-54 0 -99 18t-77 51t-49.5 79t-17.5 102q0 51 17 95.5t48 77t73.5 51.5t93.5 19q60 0 103 -23t70.5 -61t40.5 -87t13 -102h-367q1 -31 13.5 -57t33.5 -45t48 -30t57 -11q59 0 97 20t55 39zM405 273q-4 54 -38 92
t-96 38q-32 0 -57.5 -11t-43.5 -29t-28 -41.5t-11 -48.5h274zM207 669q0 -26 16.5 -46.5t51.5 -20.5t51.5 20.5t16.5 46.5h70q0 -24 -8.5 -47t-26 -41t-43.5 -29t-60 -11q-35 0 -61 11t-43 29t-26 41t-9 47h71z" />
    <glyph glyph-name="Edotaccent" unicode="&#x116;" horiz-adv-x="564" 
d="M76 667h420v-85h-324v-194h244v-86h-244v-216h348v-86h-444v667zM238 847h107v-103h-107v103z" />
    <glyph glyph-name="edotaccent" unicode="&#x117;" horiz-adv-x="536" 
d="M486 68q-8 -9 -24 -23t-41.5 -27t-60 -22.5t-78.5 -9.5q-54 0 -99 18t-77 51t-49.5 79t-17.5 102q0 51 17 95.5t48 77t73.5 51.5t93.5 19q60 0 103 -23t70.5 -61t40.5 -87t13 -102h-367q1 -31 13.5 -57t33.5 -45t48 -30t57 -11q59 0 97 20t55 39zM405 273q-4 54 -38 92
t-96 38q-32 0 -57.5 -11t-43.5 -29t-28 -41.5t-11 -48.5h274zM224 654h100v-97h-100v97z" />
    <glyph glyph-name="Eogonek" unicode="&#x118;" horiz-adv-x="564" 
d="M76 667h420v-85h-324v-194h244v-86h-244v-216h348v-86h-57q-25 -23 -42 -49.5t-17 -47.5q0 -29 34 -29q16 0 29 6t27 14l26 -59q-25 -17 -53 -26t-54 -9q-48 0 -72 20.5t-24 56.5q0 33 21 64.5t47 58.5h-309v667z" />
    <glyph glyph-name="eogonek" unicode="&#x119;" horiz-adv-x="536" 
d="M451 -162q-23 -16 -50.5 -25t-51.5 -9q-45 0 -69 21t-24 56q0 28 14.5 54.5t36.5 51.5q-7 0 -12.5 -0.5t-12.5 -0.5q-54 0 -99 19t-77 52.5t-49.5 79.5t-17.5 99q0 51 17.5 95.5t48 77t73.5 51.5t94 19q58 0 100.5 -22.5t70.5 -60t41.5 -87t13.5 -103.5h-367
q1 -31 13.5 -57t33.5 -45t48 -30t57 -11q59 0 97 20t55 39l51 -54q-12 -16 -37.5 -33.5t-51 -37t-44.5 -42.5t-19 -49q0 -15 9.5 -22.5t24.5 -7.5q17 0 31.5 5.5t28.5 14.5zM407 273q-4 54 -38 91t-96 37q-31 0 -56.5 -10.5t-44.5 -28.5t-29.5 -41t-11.5 -48h276z" />
    <glyph glyph-name="Ecaron" unicode="&#x11a;" horiz-adv-x="564" 
d="M76 667h420v-85h-324v-194h244v-86h-244v-216h348v-86h-444v667zM220 870l36.5 -46l36.5 -46l72 92h84l-113 -150h-88l-56 75l-55 75h83z" />
    <glyph glyph-name="ecaron" unicode="&#x11b;" horiz-adv-x="536" 
d="M486 68q-8 -9 -24 -23t-41.5 -27t-60 -22.5t-78.5 -9.5q-54 0 -99 18t-77 51t-49.5 79t-17.5 102q0 51 17 95.5t48 77t73.5 51.5t93.5 19q60 0 103 -23t70.5 -61t40.5 -87t13 -102h-367q1 -31 13.5 -57t33.5 -45t48 -30t57 -11q59 0 97 20t55 39zM405 273q-4 54 -38 92
t-96 38q-32 0 -57.5 -11t-43.5 -29t-28 -41.5t-11 -48.5h274zM130 676h82l60 -83l59 83h82l-99 -137h-85z" />
    <glyph glyph-name="Gcircumflex" unicode="&#x11c;" horiz-adv-x="721" 
d="M417 339h234v-266q-19 -17 -43.5 -33t-57 -28.5t-72.5 -20t-90 -7.5q-78 0 -140.5 26.5t-107 73t-68 110t-23.5 138.5q0 73 24.5 137t68.5 111.5t105.5 75t136.5 27.5q53 0 95 -12.5t73.5 -32t53.5 -42.5t37 -44l-68 -58q-12 17 -29 35.5t-40 33.5t-52.5 25t-67.5 10
q-55 0 -99 -21t-74.5 -57t-47 -84.5t-16.5 -102.5q0 -58 18 -106t50.5 -82.5t76.5 -54t97 -19.5q58 0 98.5 13t69.5 36v136h-142v83zM332 870h88l56 -75l55 -75h-83l-36.5 46l-36.5 46l-72 -92h-84z" />
    <glyph glyph-name="gcircumflex" unicode="&#x11d;" horiz-adv-x="547" 
d="M396 383q-9 3 -30.5 8.5t-64.5 5.5q-38 0 -69 -12.5t-53.5 -35t-35 -53.5t-12.5 -68q0 -32 7.5 -60t24 -49t41.5 -33t61 -12q33 0 58 10t41 26.5t24 37t8 42.5v193zM124 -95q23 -16 56.5 -27.5t81.5 -11.5q67 0 100 37t33 97v57l-18.5 -16.5t-29 -20t-41.5 -17t-55 -7.5
q-51 0 -90.5 17.5t-66.5 48t-41 73t-14 92.5q0 54 19 99.5t53.5 79t82.5 52t107 18.5q57 0 106 -10t79 -22v-444q0 -101 -58.5 -156.5t-164.5 -55.5q-71 0 -113 15.5t-68 35.5zM242 676h85l99 -137h-82l-60 83l-59 -83h-82z" />
    <glyph glyph-name="Gbreve" unicode="&#x11e;" horiz-adv-x="721" 
d="M417 339h234v-266q-19 -17 -43.5 -33t-57 -28.5t-72.5 -20t-90 -7.5q-78 0 -140.5 26.5t-107 73t-68 110t-23.5 138.5q0 73 24.5 137t68.5 111.5t105.5 75t136.5 27.5q53 0 95 -12.5t73.5 -32t53.5 -42.5t37 -44l-68 -58q-12 17 -29 35.5t-40 33.5t-52.5 25t-67.5 10
q-55 0 -99 -21t-74.5 -57t-47 -84.5t-16.5 -102.5q0 -58 18 -106t50.5 -82.5t76.5 -54t97 -19.5q58 0 98.5 13t69.5 36v136h-142v83zM304 854q1 -26 20 -46.5t54 -20.5t54.5 20.5t20.5 46.5h74q0 -25 -9.5 -49t-28 -42.5t-46.5 -29.5t-65 -11t-64.5 11t-46 29.5t-28 42.5
t-9.5 49h74z" />
    <glyph glyph-name="gbreve" unicode="&#x11f;" horiz-adv-x="547" 
d="M396 383q-9 3 -30.5 8.5t-64.5 5.5q-38 0 -69 -12.5t-53.5 -35t-35 -53.5t-12.5 -68q0 -32 7.5 -60t24 -49t41.5 -33t61 -12q33 0 58 10t41 26.5t24 37t8 42.5v193zM124 -95q23 -16 56.5 -27.5t81.5 -11.5q67 0 100 37t33 97v57l-18.5 -16.5t-29 -20t-41.5 -17t-55 -7.5
q-51 0 -90.5 17.5t-66.5 48t-41 73t-14 92.5q0 54 19 99.5t53.5 79t82.5 52t107 18.5q57 0 106 -10t79 -22v-444q0 -101 -58.5 -156.5t-164.5 -55.5q-71 0 -113 15.5t-68 35.5zM227 669q0 -26 16.5 -46.5t51.5 -20.5t51.5 20.5t16.5 46.5h70q0 -24 -8.5 -47t-26 -41
t-43.5 -29t-60 -11q-35 0 -61 11t-43 29t-26 41t-9 47h71z" />
    <glyph glyph-name="Gdotaccent" unicode="&#x120;" horiz-adv-x="721" 
d="M417 339h234v-266q-19 -17 -43.5 -33t-57 -28.5t-72.5 -20t-90 -7.5q-78 0 -140.5 26.5t-107 73t-68 110t-23.5 138.5q0 73 24.5 137t68.5 111.5t105.5 75t136.5 27.5q53 0 95 -12.5t73.5 -32t53.5 -42.5t37 -44l-68 -58q-12 17 -29 35.5t-40 33.5t-52.5 25t-67.5 10
q-55 0 -99 -21t-74.5 -57t-47 -84.5t-16.5 -102.5q0 -58 18 -106t50.5 -82.5t76.5 -54t97 -19.5q58 0 98.5 13t69.5 36v136h-142v83zM326 847h107v-103h-107v103z" />
    <glyph glyph-name="gdotaccent" unicode="&#x121;" horiz-adv-x="547" 
d="M396 383q-9 3 -30.5 8.5t-64.5 5.5q-38 0 -69 -12.5t-53.5 -35t-35 -53.5t-12.5 -68q0 -32 7.5 -60t24 -49t41.5 -33t61 -12q33 0 58 10t41 26.5t24 37t8 42.5v193zM124 -95q23 -16 56.5 -27.5t81.5 -11.5q67 0 100 37t33 97v57l-18.5 -16.5t-29 -20t-41.5 -17t-55 -7.5
q-51 0 -90.5 17.5t-66.5 48t-41 73t-14 92.5q0 54 19 99.5t53.5 79t82.5 52t107 18.5q57 0 106 -10t79 -22v-444q0 -101 -58.5 -156.5t-164.5 -55.5q-71 0 -113 15.5t-68 35.5zM245 654h100v-97h-100v97z" />
    <glyph glyph-name="Gcommaaccent" unicode="&#x122;" horiz-adv-x="721" 
d="M417 339h234v-266q-19 -17 -43.5 -33t-57 -28.5t-72.5 -20t-90 -7.5q-78 0 -140.5 26.5t-107 73t-68 110t-23.5 138.5q0 73 24.5 137t68.5 111.5t105.5 75t136.5 27.5q53 0 95 -12.5t73.5 -32t53.5 -42.5t37 -44l-68 -58q-12 17 -29 35.5t-40 33.5t-52.5 25t-67.5 10
q-55 0 -99 -21t-74.5 -57t-47 -84.5t-16.5 -102.5q0 -58 18 -106t50.5 -82.5t76.5 -54t97 -19.5q58 0 98.5 13t69.5 36v136h-142v83zM338 -56h107l-82 -150h-81z" />
    <glyph glyph-name="gcommaaccent" unicode="&#x123;" horiz-adv-x="547" 
d="M396 383q-9 3 -30.5 8.5t-64.5 5.5q-38 0 -69 -12.5t-53.5 -35t-35 -53.5t-12.5 -68q0 -32 7.5 -60t24 -49t41.5 -33t61 -12q33 0 58 10t41 26.5t24 37t8 42.5v193zM124 -95q23 -16 56.5 -27.5t81.5 -11.5q67 0 100 37t33 97v57l-18.5 -16.5t-29 -20t-41.5 -17t-55 -7.5
q-51 0 -90.5 17.5t-66.5 48t-41 73t-14 92.5q0 54 19 99.5t53.5 79t82.5 52t107 18.5q57 0 106 -10t79 -22v-444q0 -101 -58.5 -156.5t-164.5 -55.5q-71 0 -113 15.5t-68 35.5zM316 676h74l-53 -136h-99z" />
    <glyph glyph-name="Hcircumflex" unicode="&#x124;" horiz-adv-x="709" 
d="M76 667h96v-279h365v279h96v-667h-96v302h-365v-302h-96v667zM310 870h88l56 -75l55 -75h-83l-36.5 46l-36.5 46l-72 -92h-84z" />
    <glyph glyph-name="hcircumflex" unicode="&#x125;" horiz-adv-x="544" 
d="M61 667h89v-271q9 12 22 26t32 26t44 20t57 8q91 0 135 -53t44 -144v-279h-90v272q0 65 -28 95.5t-79 30.5q-39 0 -65 -16t-41.5 -41.5t-22.5 -58t-7 -66.5v-216h-90v667zM176 870h88l56 -75l55 -75h-83l-36.5 46l-36.5 46l-72 -92h-84z" />
    <glyph glyph-name="Hbar" unicode="&#x126;" horiz-adv-x="717" 
d="M80 492h-68v70h68v105h96v-105h365v105h96v-105h79v-70h-79v-492h-96v302h-365v-302h-96v492zM541 388v104h-365v-104h365z" />
    <glyph glyph-name="hbar" unicode="&#x127;" horiz-adv-x="543" 
d="M66 529h-65v63h65v75h88v-75h175v-63h-175v-145q9 12 22 26t32 26t44 20t57 8q91 0 134.5 -53t43.5 -144v-267h-89v260q0 65 -28 95.5t-79 30.5q-39 0 -65 -16t-41.5 -41.5t-22.5 -58t-7 -66.5v-204h-89v529z" />
    <glyph glyph-name="Itilde" unicode="&#x128;" horiz-adv-x="248" 
d="M76 667h96v-667h-96v667zM-63 798q19 20 49.5 38.5t68.5 18.5q23 0 39.5 -7t31 -15t29 -15t34.5 -7q29 0 48.5 11.5t36.5 25.5l20.5 -28.5l20.5 -29.5q-19 -20 -49 -39t-68 -19q-23 0 -39 7t-31 16t-30 16t-35 7q-29 0 -49 -11.5t-37 -25.5z" />
    <glyph glyph-name="itilde" unicode="&#x129;" horiz-adv-x="222" 
d="M66 465h90v-465h-90v465zM-67 606q17 19 47 36.5t65 17.5q21 0 36.5 -6.5t29.5 -15t29 -15t36 -6.5q29 2 45 12t33 24l36 -54q-17 -19 -46.5 -37t-64.5 -18q-21 0 -37 7t-30 15t-28 15t-33 7q-28 0 -46.5 -10.5t-34.5 -24.5z" />
    <glyph glyph-name="Imacron" unicode="&#x12a;" horiz-adv-x="248" 
d="M76 667h96v-667h-96v667zM-32 832h315v-75h-315v75z" />
    <glyph glyph-name="imacron" unicode="&#x12b;" horiz-adv-x="222" 
d="M66 465h90v-465h-90v465zM-13 637h250v-72h-250v72z" />
    <glyph glyph-name="Ibreve" unicode="&#x12c;" horiz-adv-x="248" 
d="M76 667h96v-667h-96v667zM51 854q1 -26 20 -46.5t54 -20.5t54.5 20.5t20.5 46.5h74q0 -25 -9.5 -49t-28 -42.5t-46.5 -29.5t-65 -11t-64.5 11t-46 29.5t-28 42.5t-9.5 49h74z" />
    <glyph glyph-name="ibreve" unicode="&#x12d;" horiz-adv-x="222" 
d="M66 465h90v-465h-90v465zM46 669q0 -26 16.5 -46.5t51.5 -20.5t51.5 20.5t16.5 46.5h70q0 -24 -8.5 -47t-26 -41t-43.5 -29t-60 -11q-35 0 -61 11t-43 29t-26 41t-9 47h71z" />
    <glyph glyph-name="Iogonek" unicode="&#x12e;" horiz-adv-x="248" 
d="M76 667h96v-667q-25 -23 -42 -49.5t-17 -47.5q0 -29 34 -29q15 0 28.5 6t27.5 14l26 -59q-25 -17 -53.5 -26t-53.5 -9q-48 0 -72 20.5t-24 56.5q0 33 21 64.5t47 58.5h-18v667z" />
    <glyph glyph-name="iogonek" unicode="&#x12f;" horiz-adv-x="222" 
d="M66 465h90v-465q-23 -23 -41 -49t-18 -46q0 -14 9.5 -22t24.5 -8q17 0 31 6t28 15l24 -59q-23 -16 -50.5 -24.5t-51.5 -8.5q-45 0 -69.5 20.5t-24.5 56.5q0 31 19.5 61.5t45.5 57.5h-17v465zM60 649h101v-101h-101v101z" />
    <glyph glyph-name="Idotaccent" unicode="&#x130;" horiz-adv-x="248" 
d="M76 667h96v-667h-96v667zM70 847h107v-103h-107v103z" />
    <glyph glyph-name="dotlessi" unicode="&#x131;" horiz-adv-x="222" 
d="M66 465h90v-465h-90v465z" />
    <glyph glyph-name="i.locl" horiz-adv-x="222" 
d="M60 649h101v-101h-101v101zM66 465h90v-465h-90v465z" />
    <glyph glyph-name="IJ" unicode="&#x132;" horiz-adv-x="752" 
d="M76 667h96v-667h-96v667zM340 135q29 -33 58.5 -48t70.5 -15q24 0 44.5 7.5t36.5 23.5t25 41t9 60v463h96v-471q0 -58 -17 -98.5t-45.5 -66t-66.5 -37t-80 -11.5q-74 0 -121 26t-78 66z" />
    <glyph glyph-name="ij" unicode="&#x133;" horiz-adv-x="449" 
d="M60 649h101v-101h-101v101zM66 465h90v-465h-90v465zM174 -101q12 -9 25.5 -15t32.5 -6q35 0 48 33.5t13 107.5v446h90v-471q0 -38 -5.5 -73t-20.5 -62t-43 -43t-73 -16q-37 0 -62.5 12t-41.5 25zM287 649h101v-101h-101v101z" />
    <glyph glyph-name="Jcircumflex" unicode="&#x134;" horiz-adv-x="494" 
d="M82 135q29 -33 58.5 -48t70.5 -15q24 0 44.5 7.5t36.5 23.5t25 41t9 60v463h96v-471q0 -58 -17 -98.5t-45.5 -66t-66.5 -37t-80 -11.5q-74 0 -121 26t-78 66zM330 870h88l56 -75l55 -75h-83l-36.5 46l-36.5 46l-72 -92h-84z" />
    <glyph glyph-name="jcircumflex" unicode="&#x135;" horiz-adv-x="222" 
d="M-53 -101q12 -9 25.5 -15t32.5 -6q35 0 48 33.5t13 107.5v446h90v-471q0 -38 -5.5 -73t-20.5 -62t-43 -43t-73 -16q-37 0 -62.5 12t-41.5 25zM68 676h85l99 -137h-82l-60 83l-59 -83h-82z" />
    <glyph glyph-name="Kcommaaccent" unicode="&#x136;" horiz-adv-x="603" 
d="M76 667h95v-303l279 303h110l-248 -272l278 -395h-115l-228 327l-76 -82v-245h-95v667zM259 -56h107l-82 -150h-81z" />
    <glyph glyph-name="kcommaaccent" unicode="&#x137;" horiz-adv-x="489" 
d="M61 667h90v-393l195 191h108l-176 -172l202 -293h-107l-158 233l-64 -62v-171h-90v667zM212 -56h97l-76 -141h-74z" />
    <glyph glyph-name="kgreenlandic" unicode="&#x138;" horiz-adv-x="498" 
d="M62 465h89v-197l204 197h108l-186 -180l211 -285h-107l-166 224l-64 -62v-162h-89v465z" />
    <glyph glyph-name="Lacute" unicode="&#x139;" horiz-adv-x="548" 
d="M76 667h96v-582h347v-85h-443v667zM157 870h114l-106 -150h-81z" />
    <glyph glyph-name="lacute" unicode="&#x13a;" horiz-adv-x="214" 
d="M62 667h90v-667h-90v667zM135 870h114l-106 -150h-81z" />
    <glyph glyph-name="Lcommaaccent" unicode="&#x13b;" horiz-adv-x="548" 
d="M76 667h96v-582h347v-85h-443v667zM251 -56h107l-82 -150h-81z" />
    <glyph glyph-name="lcommaaccent" unicode="&#x13c;" horiz-adv-x="214" 
d="M62 667h90v-667h-90v667zM58 -56h97l-76 -141h-74z" />
    <glyph glyph-name="Lcaron" unicode="&#x13d;" horiz-adv-x="548" 
d="M76 667h96v-582h347v-85h-443v667zM283 667h86l-25 -173h-61v173z" />
    <glyph glyph-name="lcaron" unicode="&#x13e;" horiz-adv-x="237" 
d="M62 667h90v-667h-90v667zM214 667h86l-25 -173h-61v173z" />
    <glyph glyph-name="Ldot" unicode="&#x13f;" horiz-adv-x="548" 
d="M76 667h96v-582h347v-85h-443v667zM341 422h107v-103h-107v103z" />
    <glyph glyph-name="ldot" unicode="&#x140;" horiz-adv-x="336" 
d="M62 667h90v-667h-90v667zM225 407h100v-97h-100v97z" />
    <glyph glyph-name="Lslash" unicode="&#x141;" horiz-adv-x="548" 
d="M84 263l-75 -48v85l75 48v319h96v-259l150 97v-85l-150 -97v-238h347v-85h-443v263z" />
    <glyph glyph-name="lslash" unicode="&#x142;" horiz-adv-x="214" 
d="M72 282l-61 -40v79l61 40v306h90v-248l59 39v-79l-59 -39v-340h-90v282z" />
    <glyph glyph-name="Nacute" unicode="&#x143;" horiz-adv-x="707" 
d="M76 667h97l364 -521v521h94v-667h-96l-365 522v-522h-94v667zM375 870h114l-106 -150h-81z" />
    <glyph glyph-name="nacute" unicode="&#x144;" horiz-adv-x="544" 
d="M62 0v417q0 23 -1 48h86l3 -70q9 12 22 26.5t32 26.5t44.5 20t57.5 8q91 0 135 -53t44 -144v-279h-90v272q0 65 -28 95.5t-79 30.5q-39 0 -65 -16t-41.5 -41.5t-22.5 -58t-7 -66.5v-216h-90zM288 676h98l-77 -136h-75z" />
    <glyph glyph-name="Ncommaaccent" unicode="&#x145;" horiz-adv-x="707" 
d="M76 667h97l364 -521v521h94v-667h-96l-365 522v-522h-94v667zM320 -56h107l-82 -150h-81z" />
    <glyph glyph-name="ncommaaccent" unicode="&#x146;" horiz-adv-x="544" 
d="M62 0v417q0 23 -1 48h86l3 -70q9 12 22 26.5t32 26.5t44.5 20t57.5 8q91 0 135 -53t44 -144v-279h-90v272q0 65 -28 95.5t-79 30.5q-39 0 -65 -16t-41.5 -41.5t-22.5 -58t-7 -66.5v-216h-90zM234 -56h97l-76 -141h-74z" />
    <glyph glyph-name="Ncaron" unicode="&#x147;" horiz-adv-x="707" 
d="M76 667h97l364 -521v521h94v-667h-96l-365 522v-522h-94v667zM288 870l36.5 -46l36.5 -46l72 92h84l-113 -150h-88l-56 75l-55 75h83z" />
    <glyph glyph-name="ncaron" unicode="&#x148;" horiz-adv-x="544" 
d="M62 0v417q0 23 -1 48h86l3 -70q9 12 22 26.5t32 26.5t44.5 20t57.5 8q91 0 135 -53t44 -144v-279h-90v272q0 65 -28 95.5t-79 30.5q-39 0 -65 -16t-41.5 -41.5t-22.5 -58t-7 -66.5v-216h-90zM135 676h82l60 -83l59 83h82l-99 -137h-85z" />
    <glyph glyph-name="napostrophe" unicode="&#x149;" horiz-adv-x="544" 
d="M62 0v417q0 23 -1 48h86l3 -70q9 12 22 26.5t32 26.5t44.5 20t57.5 8q91 0 135 -53t44 -144v-279h-90v272q0 65 -28 95.5t-79 30.5q-39 0 -65 -16t-41.5 -41.5t-22.5 -58t-7 -66.5v-216h-90zM23 676h92l-33 -136h-67z" />
    <glyph glyph-name="Eng" unicode="&#x14a;" horiz-adv-x="707" 
d="M76 667h97l364 -520v520h94v-665q0 -40 -7 -76.5t-24.5 -64.5t-47.5 -44.5t-76 -16.5q-42 0 -70.5 13t-47.5 27l39 65q13 -9 30 -16.5t38 -7.5q29 0 50.5 23.5t21.5 82.5v13l-367 522v-522h-94v667z" />
    <glyph glyph-name="eng" unicode="&#x14b;" horiz-adv-x="544" 
d="M63 0v417q0 23 -1 48h85l3 -70q9 12 22 26.5t32 26.5t44.5 20t57.5 8q91 0 134.5 -53t43.5 -144v-284q0 -38 -5 -73t-20.5 -62t-43 -43t-72.5 -16q-38 0 -63.5 12t-40.5 25l36 61q12 -9 25.5 -15t33.5 -6q27 0 44 23t17 77v294q0 65 -28 95.5t-79 30.5q-39 0 -65 -16
t-41.5 -41.5t-22.5 -58t-7 -66.5v-216h-89z" />
    <glyph glyph-name="Omacron" unicode="&#x14c;" horiz-adv-x="779" 
d="M389 -17q-72 0 -134 27.5t-108 75t-72 111.5t-26 137t26 136.5t71.5 111t108 75t134.5 27.5t134.5 -27.5t108.5 -75t72 -111t26 -136.5t-26 -137t-72 -111.5t-108.5 -75t-134.5 -27.5zM389 73q55 0 99.5 21t76 57t48.5 83.5t17 100.5q0 54 -17 101.5t-48.5 83.5t-76 56.5
t-99.5 20.5t-99 -20.5t-75.5 -56.5t-48.5 -83.5t-17 -101.5q0 -53 17 -100.5t48.5 -83.5t75.5 -57t99 -21zM232 832h315v-75h-315v75z" />
    <glyph glyph-name="omacron" unicode="&#x14d;" horiz-adv-x="572" 
d="M286 -14q-54 0 -99 19.5t-77.5 53.5t-51 78.5t-18.5 95.5t18.5 95.5t51 78.5t77.5 53.5t99 19.5q53 0 98 -19.5t78 -53.5t51.5 -78.5t18.5 -95.5t-18.5 -95.5t-51.5 -78.5t-78 -53.5t-98 -19.5zM286 64q36 0 65 14.5t49 38t30.5 54t10.5 62.5q0 31 -10.5 61.5t-31 54.5
t-49 38.5t-64.5 14.5t-65 -14.5t-49 -38t-30.5 -54t-10.5 -62.5t10.5 -62t31 -54t49 -38.5t64.5 -14.5zM161 637h250v-72h-250v72z" />
    <glyph glyph-name="Obreve" unicode="&#x14e;" horiz-adv-x="779" 
d="M389 -17q-72 0 -134 27.5t-108 75t-72 111.5t-26 137t26 136.5t71.5 111t108 75t134.5 27.5t134.5 -27.5t108.5 -75t72 -111t26 -136.5t-26 -137t-72 -111.5t-108.5 -75t-134.5 -27.5zM389 73q55 0 99.5 21t76 57t48.5 83.5t17 100.5q0 54 -17 101.5t-48.5 83.5t-76 56.5
t-99.5 20.5t-99 -20.5t-75.5 -56.5t-48.5 -83.5t-17 -101.5q0 -53 17 -100.5t48.5 -83.5t75.5 -57t99 -21zM314 854q1 -26 20 -46.5t54 -20.5t54.5 20.5t20.5 46.5h74q0 -25 -9.5 -49t-28 -42.5t-46.5 -29.5t-65 -11t-64.5 11t-46 29.5t-28 42.5t-9.5 49h74z" />
    <glyph glyph-name="obreve" unicode="&#x14f;" horiz-adv-x="572" 
d="M286 -14q-54 0 -99 19.5t-77.5 53.5t-51 78.5t-18.5 95.5t18.5 95.5t51 78.5t77.5 53.5t99 19.5q53 0 98 -19.5t78 -53.5t51.5 -78.5t18.5 -95.5t-18.5 -95.5t-51.5 -78.5t-78 -53.5t-98 -19.5zM286 64q36 0 65 14.5t49 38t30.5 54t10.5 62.5q0 31 -10.5 61.5t-31 54.5
t-49 38.5t-64.5 14.5t-65 -14.5t-49 -38t-30.5 -54t-10.5 -62.5t10.5 -62t31 -54t49 -38.5t64.5 -14.5zM218 669q0 -26 16.5 -46.5t51.5 -20.5t51.5 20.5t16.5 46.5h70q0 -24 -8.5 -47t-26 -41t-43.5 -29t-60 -11q-35 0 -61 11t-43 29t-26 41t-9 47h71z" />
    <glyph glyph-name="Ohungarumlaut" unicode="&#x150;" horiz-adv-x="779" 
d="M389 -17q-72 0 -134 27.5t-108 75t-72 111.5t-26 137t26 136.5t71.5 111t108 75t134.5 27.5t134.5 -27.5t108.5 -75t72 -111t26 -136.5t-26 -137t-72 -111.5t-108.5 -75t-134.5 -27.5zM389 73q55 0 99.5 21t76 57t48.5 83.5t17 100.5q0 54 -17 101.5t-48.5 83.5t-76 56.5
t-99.5 20.5t-99 -20.5t-75.5 -56.5t-48.5 -83.5t-17 -101.5q0 -53 17 -100.5t48.5 -83.5t75.5 -57t99 -21zM342 870h108l-109 -150h-76zM518 870h108l-109 -150h-76z" />
    <glyph glyph-name="ohungarumlaut" unicode="&#x151;" horiz-adv-x="572" 
d="M286 -14q-54 0 -99 19.5t-77.5 53.5t-51 78.5t-18.5 95.5t18.5 95.5t51 78.5t77.5 53.5t99 19.5q53 0 98 -19.5t78 -53.5t51.5 -78.5t18.5 -95.5t-18.5 -95.5t-51.5 -78.5t-78 -53.5t-98 -19.5zM286 64q36 0 65 14.5t49 38t30.5 54t10.5 62.5q0 31 -10.5 61.5t-31 54.5
t-49 38.5t-64.5 14.5t-65 -14.5t-49 -38t-30.5 -54t-10.5 -62.5t10.5 -62t31 -54t49 -38.5t64.5 -14.5zM372 676h94l-78 -136h-69zM220 676h95l-78 -136h-70z" />
    <glyph glyph-name="Racute" unicode="&#x154;" horiz-adv-x="590" 
d="M76 667h213q64 0 108 -17.5t71.5 -45t40 -62.5t12.5 -71q0 -64 -30 -113t-93 -73l156 -285h-108l-143 273h-134v-273h-93v667zM297 354q63 0 94.5 31t31.5 83q0 55 -34 85.5t-94 30.5h-126v-230h128zM291 870h114l-106 -150h-81z" />
    <glyph glyph-name="racute" unicode="&#x155;" horiz-adv-x="364" 
d="M62 0v420q0 22 -1 45h86l3 -75q8 12 21 26.5t31.5 26.5t43 20.5t56.5 8.5q15 0 27.5 -2t23.5 -6l-20 -84q-18 7 -46 7q-29 0 -53.5 -11t-42.5 -30.5t-28.5 -45.5t-10.5 -55v-245h-90zM214 676h98l-77 -136h-75z" />
    <glyph glyph-name="Rcommaaccent" unicode="&#x156;" horiz-adv-x="590" 
d="M76 667h213q64 0 108 -17.5t71.5 -45t40 -62.5t12.5 -71q0 -64 -30 -113t-93 -73l156 -285h-108l-143 273h-134v-273h-93v667zM297 354q63 0 94.5 31t31.5 83q0 55 -34 85.5t-94 30.5h-126v-230h128zM256 -56h107l-82 -150h-81z" />
    <glyph glyph-name="rcommaaccent" unicode="&#x157;" horiz-adv-x="364" 
d="M62 0v420q0 22 -1 45h86l3 -75q8 12 21 26.5t31.5 26.5t43 20.5t56.5 8.5q15 0 27.5 -2t23.5 -6l-20 -84q-18 7 -46 7q-29 0 -53.5 -11t-42.5 -30.5t-28.5 -45.5t-10.5 -55v-245h-90zM62 -56h97l-76 -141h-74z" />
    <glyph glyph-name="Rcaron" unicode="&#x158;" horiz-adv-x="590" 
d="M76 667h213q64 0 108 -17.5t71.5 -45t40 -62.5t12.5 -71q0 -64 -30 -113t-93 -73l156 -285h-108l-143 273h-134v-273h-93v667zM297 354q63 0 94.5 31t31.5 83q0 55 -34 85.5t-94 30.5h-126v-230h128zM197 870l36.5 -46l36.5 -46l72 92h84l-113 -150h-88l-56 75l-55 75h83
z" />
    <glyph glyph-name="rcaron" unicode="&#x159;" horiz-adv-x="364" 
d="M62 0v420q0 22 -1 45h86l3 -75q8 12 21 26.5t31.5 26.5t43 20.5t56.5 8.5q15 0 27.5 -2t23.5 -6l-20 -84q-18 7 -46 7q-29 0 -53.5 -11t-42.5 -30.5t-28.5 -45.5t-10.5 -55v-245h-90zM59 676h82l60 -83l59 83h82l-99 -137h-85z" />
    <glyph glyph-name="Sacute" unicode="&#x15a;" horiz-adv-x="582" 
d="M105 162q14 -16 31.5 -32.5t39.5 -29.5t49 -21t59 -8q66 0 103 30t37 81q0 55 -42 82.5t-121 44.5q-43 9 -78 25t-60.5 40t-39.5 55.5t-14 71.5q0 37 14 70t42 58t70 40t97 15q49 0 84.5 -10.5t60.5 -25.5t40 -31t23 -26l-64 -59q-6 7 -18 18.5t-30.5 22.5t-43 18.5
t-56.5 7.5t-55 -8.5t-38 -22t-22 -30.5t-7 -34q0 -25 10.5 -42.5t30.5 -31t49.5 -23t67.5 -18.5q37 -9 72.5 -23.5t63.5 -39t44.5 -60t16.5 -86.5q0 -43 -18 -79t-49.5 -62.5t-74.5 -41t-93 -14.5q-47 0 -85.5 11t-70 28t-55 37.5t-38.5 40.5zM311 870h114l-106 -150h-81z
" />
    <glyph glyph-name="sacute" unicode="&#x15b;" horiz-adv-x="472" 
d="M92 117q25 -25 60 -40t81 -15q45 0 75 14.5t30 45.5q0 16 -6.5 27.5t-22 20.5t-41 16.5t-63.5 16.5q-27 6 -53.5 16t-47.5 26.5t-34 40t-13 56.5q0 34 15.5 59.5t41.5 43t58.5 26.5t67.5 9q59 0 101.5 -15.5t74.5 -43.5l-49 -62q-21 19 -52.5 32t-73.5 13q-43 0 -69 -14
t-26 -46q0 -30 34.5 -44.5t90.5 -27.5q33 -8 61.5 -18.5t50 -27t34 -40.5t12.5 -58q0 -35 -16 -61.5t-43 -44.5t-62 -27t-73 -9q-132 0 -198 71zM252 676h98l-77 -136h-75z" />
    <glyph glyph-name="Scircumflex" unicode="&#x15c;" horiz-adv-x="582" 
d="M105 162q14 -16 31.5 -32.5t39.5 -29.5t49 -21t59 -8q66 0 103 30t37 81q0 55 -42 82.5t-121 44.5q-43 9 -78 25t-60.5 40t-39.5 55.5t-14 71.5q0 37 14 70t42 58t70 40t97 15q49 0 84.5 -10.5t60.5 -25.5t40 -31t23 -26l-64 -59q-6 7 -18 18.5t-30.5 22.5t-43 18.5
t-56.5 7.5t-55 -8.5t-38 -22t-22 -30.5t-7 -34q0 -25 10.5 -42.5t30.5 -31t49.5 -23t67.5 -18.5q37 -9 72.5 -23.5t63.5 -39t44.5 -60t16.5 -86.5q0 -43 -18 -79t-49.5 -62.5t-74.5 -41t-93 -14.5q-47 0 -85.5 11t-70 28t-55 37.5t-38.5 40.5zM247 870h88l56 -75l55 -75h-83
l-36.5 46l-36.5 46l-72 -92h-84z" />
    <glyph glyph-name="scircumflex" unicode="&#x15d;" horiz-adv-x="472" 
d="M92 117q25 -25 60 -40t81 -15q45 0 75 14.5t30 45.5q0 16 -6.5 27.5t-22 20.5t-41 16.5t-63.5 16.5q-27 6 -53.5 16t-47.5 26.5t-34 40t-13 56.5q0 34 15.5 59.5t41.5 43t58.5 26.5t67.5 9q59 0 101.5 -15.5t74.5 -43.5l-49 -62q-21 19 -52.5 32t-73.5 13q-43 0 -69 -14
t-26 -46q0 -30 34.5 -44.5t90.5 -27.5q33 -8 61.5 -18.5t50 -27t34 -40.5t12.5 -58q0 -35 -16 -61.5t-43 -44.5t-62 -27t-73 -9q-132 0 -198 71zM200 676h85l99 -137h-82l-60 83l-59 -83h-82z" />
    <glyph glyph-name="Scedilla" unicode="&#x15e;" horiz-adv-x="582" 
d="M105 162q14 -16 31.5 -32.5t39.5 -29.5t49 -21t59 -8q66 0 103 30t37 81q0 55 -42 82.5t-121 44.5q-43 9 -78 25t-60.5 40t-39.5 55.5t-14 71.5q0 37 14 70t42 58t70 40t97 15q49 0 84.5 -10.5t60.5 -25.5t40 -31t23 -26l-64 -59q-6 7 -18 18.5t-30.5 22.5t-43 18.5
t-56.5 7.5t-55 -8.5t-38 -22t-22 -30.5t-7 -34q0 -25 10.5 -42.5t30.5 -31t49.5 -23t67.5 -18.5q37 -9 72.5 -23.5t63.5 -39t44.5 -60t16.5 -86.5q0 -43 -18 -79t-49.5 -62.5t-74.5 -41t-93 -14.5q-47 0 -85.5 11t-70 28t-55 37.5t-38.5 40.5zM179 -154q17 -6 35.5 -10
t38.5 -4q63 0 63 38q0 14 -13.5 22.5t-42.5 8.5q-37 0 -71 -12q3 14 5.5 28.5t4.5 28.5q18 5 37 9t49 4q54 0 82 -26t28 -61q0 -24 -10.5 -42.5t-28.5 -30.5t-41 -18.5t-48 -6.5q-43 0 -68.5 6.5t-30.5 8.5l6 28.5t5 28.5z" />
    <glyph glyph-name="scedilla" unicode="&#x15f;" horiz-adv-x="472" 
d="M92 117q25 -25 60 -40t81 -15q45 0 75 14.5t30 45.5q0 16 -6.5 27.5t-22 20.5t-41 16.5t-63.5 16.5q-27 6 -53.5 16t-47.5 26.5t-34 40t-13 56.5q0 34 15.5 59.5t41.5 43t58.5 26.5t67.5 9q59 0 101.5 -15.5t74.5 -43.5l-49 -62q-21 19 -52.5 32t-73.5 13q-43 0 -69 -14
t-26 -46q0 -30 34.5 -44.5t90.5 -27.5q33 -8 61.5 -18.5t50 -27t34 -40.5t12.5 -58q0 -35 -16 -61.5t-43 -44.5t-62 -27t-73 -9q-132 0 -198 71zM131 -155q17 -6 35 -10t37 -4q32 0 48.5 10.5t16.5 28.5q0 14 -13.5 24.5t-44.5 10.5q-18 0 -35 -3.5t-34 -9.5l9 55q16 5 34 9
t50 4q53 0 80 -26t27 -61q0 -24 -10 -42t-27.5 -30.5t-40 -18.5t-47.5 -6q-43 0 -67 6.5t-29 8.5z" />
    <glyph glyph-name="uni0162" unicode="&#x162;" horiz-adv-x="621" 
d="M263 583h-239v84h573v-84h-238v-583h-96v583zM204 -150q17 -6 35.5 -10t38.5 -4q63 0 63 38q0 14 -13.5 22.5t-42.5 8.5q-37 0 -71 -12q3 14 5.5 28.5t4.5 28.5q18 5 37 9t49 4q54 0 82 -26t28 -61q0 -24 -10.5 -42.5t-28.5 -30.5t-41 -18.5t-48 -6.5q-43 0 -68.5 6.5
t-30.5 8.5l6 28.5t5 28.5z" />
    <glyph glyph-name="uni0163" unicode="&#x163;" horiz-adv-x="384" 
d="M102 390h-84v75h84v152h90v-152h136v-75h-136v-229q0 -56 17.5 -77t49.5 -21q26 0 43 8t34 24l41 -55q-29 -28 -59.5 -40.5t-72.5 -12.5q-74 0 -108.5 40t-34.5 125v238zM120 -153q17 -6 35 -10t37 -4q32 0 48.5 10.5t16.5 28.5q0 14 -13.5 24.5t-44.5 10.5
q-18 0 -35 -3.5t-34 -9.5l9 55q16 5 34 9t50 4q53 0 80 -26t27 -61q0 -24 -10 -42t-27.5 -30.5t-40 -18.5t-47.5 -6q-43 0 -67 6.5t-29 8.5z" />
    <glyph glyph-name="Tcaron" unicode="&#x164;" horiz-adv-x="621" 
d="M263 583h-239v84h573v-84h-238v-583h-96v583zM237 870l36.5 -46l36.5 -46l72 92h84l-113 -150h-88l-56 75l-55 75h83z" />
    <glyph glyph-name="tcaron" unicode="&#x165;" horiz-adv-x="384" 
d="M268 667h86l-25 -153h-61v153zM102 390h-84v75h84v152h90v-152h136v-75h-136v-229q0 -56 17.5 -77t49.5 -21q26 0 43 8t34 24l41 -55q-29 -28 -59.5 -40.5t-72.5 -12.5q-74 0 -108.5 40t-34.5 125v238z" />
    <glyph glyph-name="Tbar" unicode="&#x166;" horiz-adv-x="621" 
d="M263 281h-136v79h136v223h-239v84h573v-84h-238v-223h135v-79h-135v-281h-96v281z" />
    <glyph glyph-name="tbar" unicode="&#x167;" horiz-adv-x="384" 
d="M18 279h84v111h-84v75h84v152h90v-152h136v-75h-136v-111h136v-68h-136v-50q0 -56 17.5 -77t49.5 -21q26 0 43 8t34 24l41 -55q-29 -28 -59.5 -40.5t-72.5 -12.5q-77 0 -110 42t-33 136v46h-84v68z" />
    <glyph glyph-name="Utilde" unicode="&#x168;" horiz-adv-x="673" 
d="M71 667h96v-390q0 -45 8 -82.5t27.5 -64.5t52 -41.5t82.5 -14.5q49 0 81.5 14.5t52 41.5t27.5 64.5t8 82.5v390h96v-413q0 -57 -16 -106.5t-48.5 -86t-82.5 -57.5t-118 -21t-118 21t-83 57.5t-49 86t-16 106.5v413zM143 798q19 20 49.5 38.5t68.5 18.5q23 0 39.5 -7
t31 -15t29 -15t34.5 -7q29 0 48.5 11.5t36.5 25.5l20.5 -28.5l20.5 -29.5q-19 -20 -49 -39t-68 -19q-23 0 -39 7t-31 16t-30 16t-35 7q-29 0 -49 -11.5t-37 -25.5z" />
    <glyph glyph-name="utilde" unicode="&#x169;" horiz-adv-x="542" 
d="M59 465h90v-273q0 -66 27 -95.5t78 -29.5q39 0 64.5 16t41.5 41.5t22.5 58t6.5 66.5v216h90v-418q0 -22 1 -47h-86l-3 69q-9 -12 -22 -26t-32 -25.5t-44 -19.5t-57 -8q-91 0 -134 52.5t-43 143.5v279zM87 606q17 19 47 36.5t65 17.5q21 0 36.5 -6.5t29.5 -15t29 -15
t36 -6.5q29 2 45 12t33 24l36 -54q-17 -19 -46.5 -37t-64.5 -18q-21 0 -37 7t-30 15t-28 15t-33 7q-28 0 -46.5 -10.5t-34.5 -24.5z" />
    <glyph glyph-name="Umacron" unicode="&#x16a;" horiz-adv-x="673" 
d="M71 667h96v-390q0 -45 8 -82.5t27.5 -64.5t52 -41.5t82.5 -14.5q49 0 81.5 14.5t52 41.5t27.5 64.5t8 82.5v390h96v-413q0 -57 -16 -106.5t-48.5 -86t-82.5 -57.5t-118 -21t-118 21t-83 57.5t-49 86t-16 106.5v413zM179 832h315v-75h-315v75z" />
    <glyph glyph-name="umacron" unicode="&#x16b;" horiz-adv-x="542" 
d="M59 465h90v-273q0 -66 27 -95.5t78 -29.5q39 0 64.5 16t41.5 41.5t22.5 58t6.5 66.5v216h90v-418q0 -22 1 -47h-86l-3 69q-9 -12 -22 -26t-32 -25.5t-44 -19.5t-57 -8q-91 0 -134 52.5t-43 143.5v279zM142 637h250v-72h-250v72z" />
    <glyph glyph-name="Ubreve" unicode="&#x16c;" horiz-adv-x="673" 
d="M71 667h96v-390q0 -45 8 -82.5t27.5 -64.5t52 -41.5t82.5 -14.5q49 0 81.5 14.5t52 41.5t27.5 64.5t8 82.5v390h96v-413q0 -57 -16 -106.5t-48.5 -86t-82.5 -57.5t-118 -21t-118 21t-83 57.5t-49 86t-16 106.5v413zM263 854q1 -26 20 -46.5t54 -20.5t54.5 20.5t20.5 46.5
h74q0 -25 -9.5 -49t-28 -42.5t-46.5 -29.5t-65 -11t-64.5 11t-46 29.5t-28 42.5t-9.5 49h74z" />
    <glyph glyph-name="ubreve" unicode="&#x16d;" horiz-adv-x="542" 
d="M59 465h90v-273q0 -66 27 -95.5t78 -29.5q39 0 64.5 16t41.5 41.5t22.5 58t6.5 66.5v216h90v-418q0 -22 1 -47h-86l-3 69q-9 -12 -22 -26t-32 -25.5t-44 -19.5t-57 -8q-91 0 -134 52.5t-43 143.5v279zM201 669q0 -26 16.5 -46.5t51.5 -20.5t51.5 20.5t16.5 46.5h70
q0 -24 -8.5 -47t-26 -41t-43.5 -29t-60 -11q-35 0 -61 11t-43 29t-26 41t-9 47h71z" />
    <glyph glyph-name="Uring" unicode="&#x16e;" horiz-adv-x="673" 
d="M71 667h96v-390q0 -45 8 -82.5t27.5 -64.5t52 -41.5t82.5 -14.5q49 0 81.5 14.5t52 41.5t27.5 64.5t8 82.5v390h96v-413q0 -57 -16 -106.5t-48.5 -86t-82.5 -57.5t-118 -21t-118 21t-83 57.5t-49 86t-16 106.5v413zM218 798q0 26 9.5 48t25.5 37.5t38 24.5t48 9
q25 0 47.5 -8.5t38.5 -24.5t25.5 -37.5t9.5 -46.5q0 -26 -9.5 -48t-25.5 -38t-38 -25t-47 -9q-26 0 -48 9t-38.5 24.5t-26 37t-9.5 47.5zM340 740q25 0 40.5 17t15.5 43q0 25 -15.5 41t-41.5 16q-25 0 -40.5 -16.5t-15.5 -42.5q0 -25 15.5 -41.5t41.5 -16.5z" />
    <glyph glyph-name="uring" unicode="&#x16f;" horiz-adv-x="542" 
d="M59 465h90v-273q0 -66 27 -95.5t78 -29.5q39 0 64.5 16t41.5 41.5t22.5 58t6.5 66.5v216h90v-418q0 -22 1 -47h-86l-3 69q-9 -12 -22 -26t-32 -25.5t-44 -19.5t-57 -8q-91 0 -134 52.5t-43 143.5v279zM160 641q0 23 8.5 42.5t23.5 34t35 22.5t43 8t43 -8t35 -22
t23.5 -33.5t8.5 -42.5t-8.5 -43t-23.5 -34t-35 -22t-42 -8q-23 0 -43 8t-35 22t-24 33.5t-9 42.5zM270 589q21 0 36 15t15 37t-15 36.5t-36 14.5t-35.5 -14.5t-14.5 -36.5t14.5 -37t35.5 -15z" />
    <glyph glyph-name="Uhungarumlaut" unicode="&#x170;" horiz-adv-x="673" 
d="M71 667h96v-390q0 -45 8 -82.5t27.5 -64.5t52 -41.5t82.5 -14.5q49 0 81.5 14.5t52 41.5t27.5 64.5t8 82.5v390h96v-413q0 -57 -16 -106.5t-48.5 -86t-82.5 -57.5t-118 -21t-118 21t-83 57.5t-49 86t-16 106.5v413zM272 870h108l-109 -150h-76zM448 870h108l-109 -150
h-76z" />
    <glyph glyph-name="uhungarumlaut" unicode="&#x171;" horiz-adv-x="542" 
d="M59 465h90v-273q0 -66 27 -95.5t78 -29.5q39 0 64.5 16t41.5 41.5t22.5 58t6.5 66.5v216h90v-418q0 -22 1 -47h-86l-3 69q-9 -12 -22 -26t-32 -25.5t-44 -19.5t-57 -8q-91 0 -134 52.5t-43 143.5v279zM355 676h94l-78 -136h-69zM203 676h95l-78 -136h-70z" />
    <glyph glyph-name="Uogonek" unicode="&#x172;" horiz-adv-x="673" 
d="M71 667h96v-390q0 -45 8 -82.5t27.5 -64.5t52 -41.5t82.5 -14.5q49 0 81.5 14.5t52 41.5t27.5 64.5t8 82.5v390h96v-413q0 -52 -10 -90t-29.5 -67.5t-48.5 -53t-66 -45.5q-33 -20 -49 -44.5t-16 -50.5q0 -29 34 -29q15 0 28.5 6t27.5 14l26 -59q-25 -17 -53.5 -26
t-53.5 -9q-48 0 -72 20.5t-24 56.5q0 28 15 55t37 51h-11q-68 0 -118 21t-83 57.5t-49 86t-16 106.5v413z" />
    <glyph glyph-name="uogonek" unicode="&#x173;" horiz-adv-x="542" 
d="M59 465h90v-273q0 -66 27 -95.5t78 -29.5q39 0 64.5 16t41.5 41.5t22.5 58t6.5 66.5v216h89v-418q0 -22 1 -47q-23 -23 -41 -49t-18 -46q0 -14 9.5 -22t24.5 -8q17 0 31 6t28 15l24 -59q-23 -16 -50.5 -24.5t-51.5 -8.5q-45 0 -69.5 20.5t-24.5 56.5q0 31 19.5 61.5
t45.5 57.5h-12l-3 69q-9 -12 -22 -26t-32 -25.5t-44 -19.5t-57 -8q-91 0 -134 52.5t-43 143.5v279z" />
    <glyph glyph-name="Wcircumflex" unicode="&#x174;" horiz-adv-x="878" 
d="M17 667h106l128 -538l145 518h93l142 -517l128 537h100l-179 -667h-102l-139 493l-143 -493h-101zM398 870h88l56 -75l55 -75h-83l-36.5 46l-36.5 46l-72 -92h-84z" />
    <glyph glyph-name="wcircumflex" unicode="&#x175;" horiz-adv-x="722" 
d="M11 465h99l104 -355l112 355h77l112 -358l102 358h93l-154 -465h-89l-108 325l-107 -325h-84zM322 676h85l99 -137h-82l-60 83l-59 -83h-82z" />
    <glyph glyph-name="Ycircumflex" unicode="&#x176;" horiz-adv-x="577" 
d="M239 298l-230 369h107l174 -285l174 285h103l-231 -369v-298h-97v298zM247 870h88l56 -75l55 -75h-83l-36.5 46l-36.5 46l-72 -92h-84z" />
    <glyph glyph-name="ycircumflex" unicode="&#x177;" horiz-adv-x="502" 
d="M64 -114q10 -9 23 -16t32 -7q16 0 27.5 7t21 21.5t18 35l19.5 47.5l12 30l-208 461h103l150 -351l132 351h98l-186 -453q-13 -32 -26.5 -70.5t-33.5 -73t-49 -57.5t-73 -23q-35 0 -59 9.5t-42 25.5zM211 676h85l99 -137h-82l-60 83l-59 -83h-82z" />
    <glyph glyph-name="Zacute" unicode="&#x179;" horiz-adv-x="642" 
d="M51 84l415 498h-395v85h512v-85l-410 -497h417v-85h-539v84zM337 870h114l-106 -150h-81z" />
    <glyph glyph-name="zacute" unicode="&#x17a;" horiz-adv-x="476" 
d="M52 71l266 318h-257v76h367v-72l-271 -318h274v-75h-379v71zM266 676h98l-77 -136h-75z" />
    <glyph glyph-name="Zdotaccent" unicode="&#x17b;" horiz-adv-x="642" 
d="M51 84l415 498h-395v85h512v-85l-410 -497h417v-85h-539v84zM276 847h107v-103h-107v103z" />
    <glyph glyph-name="zdotaccent" unicode="&#x17c;" horiz-adv-x="476" 
d="M52 71l266 318h-257v76h367v-72l-271 -318h274v-75h-379v71zM202 654h100v-97h-100v97z" />
    <glyph glyph-name="Zcaron" unicode="&#x17d;" horiz-adv-x="642" 
d="M51 84l415 498h-395v85h512v-85l-410 -497h417v-85h-539v84zM260 870l36.5 -46l36.5 -46l72 92h84l-113 -150h-88l-56 75l-55 75h83z" />
    <glyph glyph-name="zcaron" unicode="&#x17e;" horiz-adv-x="476" 
d="M52 71l266 318h-257v76h367v-72l-271 -318h274v-75h-379v71zM113 676h82l60 -83l59 83h82l-99 -137h-85z" />
    <glyph glyph-name="longs" unicode="&#x17f;" horiz-adv-x="221" 
d="M66 489q0 40 8.5 75.5t27.5 62t49.5 42t75.5 15.5q37 0 72.5 -11.5t65.5 -39.5l-45 -58q-34 30 -81 30q-43 0 -63.5 -29t-20.5 -97v-479h-89v489z" />
    <glyph glyph-name="Scommaaccent" unicode="&#x218;" horiz-adv-x="582" 
d="M105 162q14 -16 31.5 -32.5t39.5 -29.5t49 -21t59 -8q66 0 103 30t37 81q0 55 -42 82.5t-121 44.5q-43 9 -78 25t-60.5 40t-39.5 55.5t-14 71.5q0 37 14 70t42 58t70 40t97 15q49 0 84.5 -10.5t60.5 -25.5t40 -31t23 -26l-64 -59q-6 7 -18 18.5t-30.5 22.5t-43 18.5
t-56.5 7.5t-55 -8.5t-38 -22t-22 -30.5t-7 -34q0 -25 10.5 -42.5t30.5 -31t49.5 -23t67.5 -18.5q37 -9 72.5 -23.5t63.5 -39t44.5 -60t16.5 -86.5q0 -43 -18 -79t-49.5 -62.5t-74.5 -41t-93 -14.5q-47 0 -85.5 11t-70 28t-55 37.5t-38.5 40.5zM249 -56h107l-82 -150h-81z
" />
    <glyph glyph-name="scommaaccent" unicode="&#x219;" horiz-adv-x="472" 
d="M92 117q25 -25 60 -40t81 -15q45 0 75 14.5t30 45.5q0 16 -6.5 27.5t-22 20.5t-41 16.5t-63.5 16.5q-27 6 -53.5 16t-47.5 26.5t-34 40t-13 56.5q0 34 15.5 59.5t41.5 43t58.5 26.5t67.5 9q59 0 101.5 -15.5t74.5 -43.5l-49 -62q-21 19 -52.5 32t-73.5 13q-43 0 -69 -14
t-26 -46q0 -30 34.5 -44.5t90.5 -27.5q33 -8 61.5 -18.5t50 -27t34 -40.5t12.5 -58q0 -35 -16 -61.5t-43 -44.5t-62 -27t-73 -9q-132 0 -198 71zM202 -56h97l-76 -141h-74z" />
    <glyph glyph-name="uni021A" unicode="&#x21a;" horiz-adv-x="621" 
d="M263 583h-239v84h573v-84h-238v-583h-96v583zM256 -56h107l-82 -150h-81z" />
    <glyph glyph-name="uni021B" unicode="&#x21b;" horiz-adv-x="384" 
d="M102 390h-84v75h84v152h90v-152h136v-75h-136v-229q0 -56 17.5 -77t49.5 -21q26 0 43 8t34 24l41 -55q-29 -28 -59.5 -40.5t-72.5 -12.5q-74 0 -108.5 40t-34.5 125v238zM193 -56h97l-76 -141h-74z" />
    <glyph glyph-name="dotlessj" unicode="&#x237;" horiz-adv-x="222" 
d="M-53 -101q12 -9 25.5 -15t32.5 -6q35 0 48 33.5t13 107.5v446h90v-471q0 -38 -5.5 -73t-20.5 -62t-43 -43t-73 -16q-37 0 -62.5 12t-41.5 25z" />
    <glyph glyph-name="apostrophe" unicode="&#x2bc;" horiz-adv-x="207" 
d="M71 676h92l-33 -136h-67z" />
    <glyph glyph-name="caron" unicode="&#x2c7;" horiz-adv-x="410" 
d="M63 676h82l60 -83l59 83h82l-99 -137h-85z" />
    <glyph glyph-name="uni02C9" unicode="&#x2c9;" horiz-adv-x="349" 
d="M50 637h250v-72h-250v72z" />
    <glyph glyph-name="breve" unicode="&#x2d8;" horiz-adv-x="417" 
d="M150 669q0 -26 16.5 -46.5t51.5 -20.5t51.5 20.5t16.5 46.5h70q0 -24 -8.5 -47t-26 -41t-43.5 -29t-60 -11q-35 0 -61 11t-43 29t-26 41t-9 47h71z" />
    <glyph glyph-name="dotaccent" unicode="&#x2d9;" horiz-adv-x="294" 
d="M97 654h100v-97h-100v97z" />
    <glyph glyph-name="ring" unicode="&#x2da;" horiz-adv-x="329" 
d="M54 641q0 23 8.5 42.5t23.5 34t35 22.5t43 8t43 -8t35 -22t23.5 -33.5t8.5 -42.5t-8.5 -43t-23.5 -34t-35 -22t-42 -8q-23 0 -43 8t-35 22t-24 33.5t-9 42.5zM164 589q21 0 36 15t15 37t-15 36.5t-36 14.5t-35.5 -14.5t-14.5 -36.5t14.5 -37t35.5 -15z" />
    <glyph glyph-name="ogonek" unicode="&#x2db;" horiz-adv-x="318" 
d="M204 0q-23 -23 -41 -49t-18 -46q0 -14 9.5 -22t24.5 -8q17 0 31 6t28 15l24 -59q-23 -16 -50.5 -24.5t-51.5 -8.5q-45 0 -69.5 20.5t-24.5 56.5q0 31 19.5 61.5t45.5 57.5h73z" />
    <glyph glyph-name="hungarumlaut" unicode="&#x2dd;" horiz-adv-x="408" 
d="M259 676h94l-78 -136h-69zM107 676h95l-78 -136h-70z" />
    <glyph glyph-name="uni20B9" unicode="&#x20b9;" horiz-adv-x="545" 
d="M72 399v71h247q-21 95 -149 95h-98v70h426l-23 -70h-115q17 -17 30.5 -40t18.5 -55h89l-23 -70h-65q-8 -77 -60 -118t-132 -48l266 -234h-127l-282 248v54h94q65 0 103 24t48 73h-248z" />
    <glyph glyph-name="Wgrave" unicode="&#x1e80;" horiz-adv-x="878" 
d="M17 667h106l128 -538l145 518h93l142 -517l128 537h100l-179 -667h-102l-139 493l-143 -493h-101zM297 870h112l74 -150h-81z" />
    <glyph glyph-name="wgrave" unicode="&#x1e81;" horiz-adv-x="722" 
d="M11 465h99l104 -355l112 355h77l112 -358l102 358h93l-154 -465h-89l-108 325l-107 -325h-84zM256 677h100l53 -136h-75z" />
    <glyph glyph-name="Wacute" unicode="&#x1e82;" horiz-adv-x="878" 
d="M17 667h106l128 -538l145 518h93l142 -517l128 537h100l-179 -667h-102l-139 493l-143 -493h-101zM469 870h114l-106 -150h-81z" />
    <glyph glyph-name="wacute" unicode="&#x1e83;" horiz-adv-x="722" 
d="M11 465h99l104 -355l112 355h77l112 -358l102 358h93l-154 -465h-89l-108 325l-107 -325h-84zM378 676h98l-77 -136h-75z" />
    <glyph glyph-name="Wdieresis" unicode="&#x1e84;" horiz-adv-x="878" 
d="M17 667h106l128 -538l145 518h93l142 -517l128 537h100l-179 -667h-102l-139 493l-143 -493h-101zM487 844h101v-98h-101v98zM292 844h101v-98h-101v98z" />
    <glyph glyph-name="wdieresis" unicode="&#x1e85;" horiz-adv-x="722" 
d="M11 465h99l104 -355l112 355h77l112 -358l102 358h93l-154 -465h-89l-108 325l-107 -325h-84zM399 651h93v-91h-93v91zM228 651h94v-91h-94v91z" />
    <glyph glyph-name="Ygrave" unicode="&#x1ef2;" horiz-adv-x="577" 
d="M239 298l-230 369h107l174 -285l174 285h103l-231 -369v-298h-97v298zM158 870h112l74 -150h-81z" />
    <glyph glyph-name="ygrave" unicode="&#x1ef3;" horiz-adv-x="502" 
d="M64 -114q10 -9 23 -16t32 -7q16 0 27.5 7t21 21.5t18 35l19.5 47.5l12 30l-208 461h103l150 -351l132 351h98l-186 -453q-13 -32 -26.5 -70.5t-33.5 -73t-49 -57.5t-73 -23q-35 0 -59 9.5t-42 25.5zM149 677h100l53 -136h-75z" />
    <glyph glyph-name="fraction" unicode="&#x2044;" horiz-adv-x="195" 
d="M259 630h85l-405 -630h-85z" />
    <glyph glyph-name="zerosuperior" unicode="&#x2070;" 
d="M178 286q-68 0 -111.5 46t-43.5 135t43.5 134.5t111.5 45.5q34 0 62.5 -11.5t49 -34t32 -56t11.5 -78.5q0 -89 -43.5 -135t-111.5 -46zM178 349q14 0 27.5 6t24.5 20t18 36.5t7 55.5t-7 55.5t-18 36t-24.5 19.5t-27.5 6t-28 -6t-25 -19.5t-18 -36t-7 -55.5t7 -55.5
t18 -36.5t25 -20t28 -6z" />
    <glyph glyph-name="onesuperior" unicode="&#xb9;" 
d="M178 557l-88 -44l-28 57l126 67h67v-341h-77v261z" />
    <glyph glyph-name="twosuperior" unicode="&#xb2;" 
d="M49 338q0 26 13 45.5t32.5 35.5t42 30t42 28t32.5 28.5t13 32.5q0 23 -16 33t-36 10q-26 0 -52 -12.5t-44 -28.5l-33 53q22 20 57.5 37t80.5 17q65 0 95.5 -31t30.5 -73q0 -41 -23.5 -66t-53.5 -43.5l-58 -34.5t-37 -39h173v-64h-259v42z" />
    <glyph glyph-name="threesuperior" unicode="&#xb3;" 
d="M70 378q17 -14 39 -22t48 -8q31 0 50.5 13.5t19.5 39.5q0 16 -6 26t-16 16t-23 8.5t-27 2.5q-11 0 -23 -1.5t-21 -4.5l-15 31l107 96h-142v62h228v-57l-88 -81q51 -5 76.5 -33t25.5 -70q0 -48 -39.5 -79t-105.5 -31q-38 0 -69 10t-55 27z" />
    <glyph glyph-name="foursuperior" unicode="&#x2074;" 
d="M35 419l179 218h76v-217h42v-58h-42v-65h-69v65h-186v57zM221 420v144l-120 -144h120z" />
    <glyph glyph-name="fivesuperior" unicode="&#x2075;" 
d="M71 377q18 -14 40.5 -22t47.5 -8q11 0 24 2.5t24 8.5t18 17t7 28q0 27 -20.5 40.5t-51.5 13.5q-15 0 -30.5 -2.5t-30.5 -9.5l-34 28l33 164h190v-63h-136l-13 -68q12 4 24.5 5t22.5 1q23 0 45 -7t38.5 -20.5t26.5 -33.5t10 -47q0 -24 -10 -46t-28.5 -38.5t-45 -26
t-59.5 -9.5q-35 0 -68 10t-58 28z" />
    <glyph glyph-name="sixsuperior" unicode="&#x2076;" 
d="M272 567q-10 7 -25.5 12t-35.5 5q-42 0 -67.5 -26.5t-28.5 -65.5q17 10 39.5 17t45.5 7q24 0 45.5 -6.5t38 -20.5t26.5 -35.5t10 -50.5q0 -26 -10.5 -47.5t-29 -37t-42.5 -24t-51 -8.5q-31 0 -58 10.5t-46.5 30.5t-31 50.5t-11.5 71.5q0 91 45.5 144.5t123.5 53.5
q33 0 55.5 -8.5t35.5 -16.5zM114 437q0 -43 18 -68t53 -25q27 0 46.5 15.5t19.5 43.5q0 9 -3 19.5t-10.5 18.5t-20 13.5t-30.5 5.5q-19 0 -39.5 -6t-33.5 -17z" />
    <glyph glyph-name="sevensuperior" unicode="&#x2077;" 
d="M90 296q13 36 30.5 75.5t36 76.5t37 70t33.5 57h-180v62h257v-63q-12 -19 -30 -52.5l-37.5 -72.5t-37 -79.5t-27.5 -73.5h-82z" />
    <glyph glyph-name="eightsuperior" unicode="&#x2078;" 
d="M112 478q-23 11 -39 29.5t-16 46.5q0 44 35 68.5t87 24.5q54 0 89 -24t35 -69q0 -28 -16 -46.5t-39 -29.5q13 -5 26 -13t23.5 -19t17 -25.5t6.5 -32.5q0 -47 -38.5 -74.5t-103.5 -27.5t-102.5 27.5t-37.5 74.5q0 35 22 56.5t51 33.5zM179 452q-25 -7 -44.5 -21.5
t-19.5 -40.5t20.5 -36t43.5 -10q24 0 44.5 10.5t20.5 35.5q0 26 -20.5 40t-44.5 22zM180 502q22 7 38 18.5t16 31.5q0 21 -15.5 32t-39.5 11q-23 0 -38 -11t-15 -32q0 -22 16.5 -33t37.5 -17z" />
    <glyph glyph-name="ninesuperior" unicode="&#x2079;" 
d="M82 366q11 -7 28.5 -12.5t39.5 -5.5q44 0 66 27t26 66q-17 -11 -40 -17.5t-46 -6.5q-24 0 -45.5 6.5t-38 20.5t-26.5 35.5t-10 50.5q0 26 10.5 47.5t29 37t42.5 24t51 8.5q31 0 58 -10.5t46.5 -31t31 -51t11.5 -71.5q0 -91 -43 -144t-126 -53q-32 0 -56 8t-37 16z
M242 496q0 38 -16.5 65.5t-54.5 27.5q-27 0 -46.5 -15.5t-19.5 -43.5q0 -10 3 -20t10.5 -18.5t20 -13.5t30.5 -5q20 0 41 7t32 16z" />
    <glyph glyph-name="zeroinferior" unicode="&#x2080;" 
d="M178 -9q-68 0 -111.5 46t-43.5 135t43.5 134.5t111.5 45.5q34 0 62.5 -11.5t49 -34t32 -56t11.5 -78.5q0 -89 -43.5 -135t-111.5 -46zM178 54q14 0 27.5 6t24.5 20t18 36.5t7 55.5t-7 55.5t-18 36t-24.5 19.5t-27.5 6t-28 -6t-25 -19.5t-18 -36t-7 -55.5t7 -55.5
t18 -36.5t25 -20t28 -6z" />
    <glyph glyph-name="oneinferior" unicode="&#x2081;" 
d="M178 262l-88 -44l-28 57l126 67h67v-341h-77v261z" />
    <glyph glyph-name="twoinferior" unicode="&#x2082;" 
d="M49 43q0 26 13 45.5t32.5 35.5t42 30t42 28t32.5 28.5t13 32.5q0 23 -16 33t-36 10q-26 0 -52 -12.5t-44 -28.5l-33 53q22 20 57.5 37t80.5 17q65 0 95.5 -31t30.5 -73q0 -41 -23.5 -66t-53.5 -43.5l-58 -34.5t-37 -39h173v-64h-259v42z" />
    <glyph glyph-name="threeinferior" unicode="&#x2083;" 
d="M70 83q17 -14 39 -22t48 -8q31 0 50.5 13.5t19.5 39.5q0 16 -6 26t-16 16t-23 8.5t-27 2.5q-11 0 -23 -1.5t-21 -4.5l-15 31l107 96h-142v62h228v-57l-88 -81q51 -5 76.5 -33t25.5 -70q0 -48 -39.5 -79t-105.5 -31q-38 0 -69 10t-55 27z" />
    <glyph glyph-name="fourinferior" unicode="&#x2084;" 
d="M35 124l179 218h76v-217h42v-58h-42v-65h-69v65h-186v57zM221 125v144l-120 -144h120z" />
    <glyph glyph-name="fiveinferior" unicode="&#x2085;" 
d="M71 82q18 -14 40.5 -22t47.5 -8q11 0 24 2.5t24 8.5t18 17t7 28q0 27 -20.5 40.5t-51.5 13.5q-15 0 -30.5 -2.5t-30.5 -9.5l-34 28l33 164h190v-63h-136l-13 -68q12 4 24.5 5t22.5 1q23 0 45 -7t38.5 -20.5t26.5 -33.5t10 -47q0 -24 -10 -46t-28.5 -38.5t-45 -26
t-59.5 -9.5q-35 0 -68 10t-58 28z" />
    <glyph glyph-name="sixinferior" unicode="&#x2086;" 
d="M272 272q-10 7 -25.5 12t-35.5 5q-42 0 -67.5 -26.5t-28.5 -65.5q17 10 39.5 17t45.5 7q24 0 45.5 -6.5t38 -20.5t26.5 -35.5t10 -50.5q0 -26 -10.5 -47.5t-29 -37t-42.5 -24t-51 -8.5q-31 0 -58 10.5t-46.5 30.5t-31 50.5t-11.5 71.5q0 91 45.5 144.5t123.5 53.5
q33 0 55.5 -8.5t35.5 -16.5zM114 142q0 -43 18 -68t53 -25q27 0 46.5 15.5t19.5 43.5q0 9 -3 19.5t-10.5 18.5t-20 13.5t-30.5 5.5q-19 0 -39.5 -6t-33.5 -17z" />
    <glyph glyph-name="seveninferior" unicode="&#x2087;" 
d="M90 1q13 36 30.5 75.5t36 76.5t37 70t33.5 57h-180v62h257v-63q-12 -19 -30 -52.5l-37.5 -72.5t-37 -79.5t-27.5 -73.5h-82z" />
    <glyph glyph-name="eightinferior" unicode="&#x2088;" 
d="M112 183q-23 11 -39 29.5t-16 46.5q0 44 35 68.5t87 24.5q54 0 89 -24t35 -69q0 -28 -16 -46.5t-39 -29.5q13 -5 26 -13t23.5 -19t17 -25.5t6.5 -32.5q0 -47 -38.5 -74.5t-103.5 -27.5t-102.5 27.5t-37.5 74.5q0 35 22 56.5t51 33.5zM179 157q-25 -7 -44.5 -21.5
t-19.5 -40.5t20.5 -36t43.5 -10q24 0 44.5 10.5t20.5 35.5q0 26 -20.5 40t-44.5 22zM180 207q22 7 38 18.5t16 31.5q0 21 -15.5 32t-39.5 11q-23 0 -38 -11t-15 -32q0 -22 16.5 -33t37.5 -17z" />
    <glyph glyph-name="nineinferior" unicode="&#x2089;" 
d="M82 71q11 -7 28.5 -12.5t39.5 -5.5q44 0 66 27t26 66q-17 -11 -40 -17.5t-46 -6.5q-24 0 -45.5 6.5t-38 20.5t-26.5 35.5t-10 50.5q0 26 10.5 47.5t29 37t42.5 24t51 8.5q31 0 58 -10.5t46.5 -31t31 -51t11.5 -71.5q0 -91 -43 -144t-126 -53q-32 0 -56 8t-37 16zM242 201
q0 38 -16.5 65.5t-54.5 27.5q-27 0 -46.5 -15.5t-19.5 -43.5q0 -10 3 -20t10.5 -18.5t20 -13.5t30.5 -5q20 0 41 7t32 16z" />
    <glyph glyph-name="afii61289" unicode="&#x2113;" horiz-adv-x="470" 
d="M130 437q0 71 9.5 119.5t28 78t45 42.5t61.5 13q51 0 84 -37.5t33 -106.5q0 -91 -48 -172.5t-136 -163.5v-20q0 -41 6 -66.5t16.5 -39.5t25 -19.5t31.5 -5.5q32 0 61.5 16.5t45.5 39.5l40 -38q-27 -40 -65.5 -63t-90.5 -23q-70 0 -108 39.5t-38 127.5q-13 -10 -24.5 -18
l-24.5 -17q-5 11 -11.5 22l-13.5 22q19 13 37 27.5l36 30.5v212zM207 289q54 60 85.5 123.5t31.5 132.5q0 48 -16 67.5t-38 19.5q-26 0 -44.5 -33t-18.5 -109v-201z" />
    <glyph glyph-name="estimated" unicode="&#x212e;" horiz-adv-x="891" 
d="M194 138q0 -13 9 -22q48 -51 110 -79t135 -28q79 0 145 32.5t114 86.5h57q-26 -32 -60.5 -57.5t-75.5 -43.5t-87 -28t-94 -10q-83 0 -156 28.5t-127 77t-85.5 114t-31.5 140.5t31.5 140.5t85.5 114.5t127 77.5t156 28.5t156.5 -28.5t128 -77.5t86 -114.5t31.5 -140.5v-10
h-650q-5 0 -5 -4v-197zM697 358q4 0 4 7v197q0 13 -9 24q-48 48 -110 75t-134 27q-71 0 -134 -29t-110 -77q-5 -4 -7.5 -10.5t-2.5 -13.5v-193q0 -7 5 -7h498z" />
    <glyph glyph-name="onethird" unicode="&#x2153;" horiz-adv-x="892" 
d="M178 557l-88 -44l-28 57l126 67h67v-341h-77v261zM585 630h85l-405 -630h-85zM588 83q17 -14 39 -22t48 -8q31 0 50.5 13.5t19.5 39.5q0 16 -6 26t-16 16t-23 8.5t-27 2.5q-11 0 -23 -1.5t-21 -4.5l-15 31l107 96h-142v62h228v-57l-88 -81q51 -5 76.5 -33t25.5 -70
q0 -48 -39.5 -79t-105.5 -31q-38 0 -69 10t-55 27z" />
    <glyph glyph-name="twothirds" unicode="&#x2154;" horiz-adv-x="892" 
d="M55 338q0 26 13 45.5t32.5 35.5t42 30t42 28t32.5 28.5t13 32.5q0 23 -16 33t-36 10q-26 0 -52 -12.5t-44 -28.5l-33 53q22 20 57.5 37t80.5 17q65 0 95.5 -31t30.5 -73q0 -41 -23.5 -66t-53.5 -43.5l-58 -34.5t-37 -39h173v-64h-259v42zM610 630h85l-405 -630h-85z
M608 83q17 -14 39 -22t48 -8q31 0 50.5 13.5t19.5 39.5q0 16 -6 26t-16 16t-23 8.5t-27 2.5q-11 0 -23 -1.5t-21 -4.5l-15 31l107 96h-142v62h228v-57l-88 -81q51 -5 76.5 -33t25.5 -70q0 -48 -39.5 -79t-105.5 -31q-38 0 -69 10t-55 27z" />
    <glyph glyph-name="oneeighth" unicode="&#x215b;" horiz-adv-x="892" 
d="M170 557l-88 -44l-28 57l126 67h67v-341h-77v261zM578 630h85l-405 -630h-85zM622 183q-23 11 -39 29.5t-16 46.5q0 44 35 68.5t87 24.5q54 0 89 -24t35 -69q0 -28 -16 -46.5t-39 -29.5q13 -5 26 -13t23.5 -19t17 -25.5t6.5 -32.5q0 -47 -38.5 -74.5t-103.5 -27.5
t-102.5 27.5t-37.5 74.5q0 35 22 56.5t51 33.5zM689 157q-25 -7 -44.5 -21.5t-19.5 -40.5t20.5 -36t43.5 -10q24 0 44.5 10.5t20.5 35.5q0 26 -20.5 40t-44.5 22zM690 207q22 7 38 18.5t16 31.5q0 21 -15.5 32t-39.5 11q-23 0 -38 -11t-15 -32q0 -22 16.5 -33t37.5 -17z" />
    <glyph glyph-name="threeeighths" unicode="&#x215c;" horiz-adv-x="892" 
d="M77 378q17 -14 39 -22t48 -8q31 0 50.5 13.5t19.5 39.5q0 16 -6 26t-16 16t-23 8.5t-27 2.5q-11 0 -23 -1.5t-21 -4.5l-15 31l107 96h-142v62h228v-57l-88 -81q51 -5 76.5 -33t25.5 -70q0 -48 -39.5 -79t-105.5 -31q-38 0 -69 10t-55 27zM601 630h85l-405 -630h-85z
M641 183q-23 11 -39 29.5t-16 46.5q0 44 35 68.5t87 24.5q54 0 89 -24t35 -69q0 -28 -16 -46.5t-39 -29.5q13 -5 26 -13t23.5 -19t17 -25.5t6.5 -32.5q0 -47 -38.5 -74.5t-103.5 -27.5t-102.5 27.5t-37.5 74.5q0 35 22 56.5t51 33.5zM708 157q-25 -7 -44.5 -21.5
t-19.5 -40.5t20.5 -36t43.5 -10q24 0 44.5 10.5t20.5 35.5q0 26 -20.5 40t-44.5 22zM709 207q22 7 38 18.5t16 31.5q0 21 -15.5 32t-39.5 11q-23 0 -38 -11t-15 -32q0 -22 16.5 -33t37.5 -17z" />
    <glyph glyph-name="fiveeighths" unicode="&#x215d;" horiz-adv-x="892" 
d="M79 377q18 -14 40.5 -22t47.5 -8q11 0 24 2.5t24 8.5t18 17t7 28q0 27 -20.5 40.5t-51.5 13.5q-15 0 -30.5 -2.5t-30.5 -9.5l-34 28l33 164h190v-63h-136l-13 -68q12 4 24.5 5t22.5 1q23 0 45 -7t38.5 -20.5t26.5 -33.5t10 -47q0 -24 -10 -46t-28.5 -38.5t-45 -26
t-59.5 -9.5q-35 0 -68 10t-58 28zM598 630h85l-405 -630h-85zM639 183q-23 11 -39 29.5t-16 46.5q0 44 35 68.5t87 24.5q54 0 89 -24t35 -69q0 -28 -16 -46.5t-39 -29.5q13 -5 26 -13t23.5 -19t17 -25.5t6.5 -32.5q0 -47 -38.5 -74.5t-103.5 -27.5t-102.5 27.5t-37.5 74.5
q0 35 22 56.5t51 33.5zM706 157q-25 -7 -44.5 -21.5t-19.5 -40.5t20.5 -36t43.5 -10q24 0 44.5 10.5t20.5 35.5q0 26 -20.5 40t-44.5 22zM707 207q22 7 38 18.5t16 31.5q0 21 -15.5 32t-39.5 11q-23 0 -38 -11t-15 -32q0 -22 16.5 -33t37.5 -17z" />
    <glyph glyph-name="seveneighths" unicode="&#x215e;" horiz-adv-x="892" 
d="M101 296q13 36 30.5 75.5t36 76.5t37 70t33.5 57h-180v62h257v-63q-12 -19 -30 -52.5l-37.5 -72.5t-37 -79.5t-27.5 -73.5h-82zM573 630h85l-405 -630h-85zM624 183q-23 11 -39 29.5t-16 46.5q0 44 35 68.5t87 24.5q54 0 89 -24t35 -69q0 -28 -16 -46.5t-39 -29.5
q13 -5 26 -13t23.5 -19t17 -25.5t6.5 -32.5q0 -47 -38.5 -74.5t-103.5 -27.5t-102.5 27.5t-37.5 74.5q0 35 22 56.5t51 33.5zM691 157q-25 -7 -44.5 -21.5t-19.5 -40.5t20.5 -36t43.5 -10q24 0 44.5 10.5t20.5 35.5q0 26 -20.5 40t-44.5 22zM692 207q22 7 38 18.5t16 31.5
q0 21 -15.5 32t-39.5 11q-23 0 -38 -11t-15 -32q0 -22 16.5 -33t37.5 -17z" />
    <glyph glyph-name="onefifth" unicode="&#x2155;" horiz-adv-x="892" 
d="M177 557l-88 -44l-28 57l126 67h67v-341h-77v261zM586 630h85l-405 -630h-85zM588 82q18 -14 40.5 -22t47.5 -8q11 0 24 2.5t24 8.5t18 17t7 28q0 27 -20.5 40.5t-51.5 13.5q-15 0 -30.5 -2.5t-30.5 -9.5l-34 28l33 164h190v-63h-136l-13 -68q12 4 24.5 5t22.5 1
q23 0 45 -7t38.5 -20.5t26.5 -33.5t10 -47q0 -24 -10 -46t-28.5 -38.5t-45 -26t-59.5 -9.5q-35 0 -68 10t-58 28z" />
    <glyph glyph-name="twofifths" unicode="&#x2156;" horiz-adv-x="892" 
d="M54 338q0 26 13 45.5t32.5 35.5t42 30t42 28t32.5 28.5t13 32.5q0 23 -16 33t-36 10q-26 0 -52 -12.5t-44 -28.5l-33 53q22 20 57.5 37t80.5 17q65 0 95.5 -31t30.5 -73q0 -41 -23.5 -66t-53.5 -43.5l-58 -34.5t-37 -39h173v-64h-259v42zM614 630h85l-405 -630h-85z
M607 82q18 -14 40.5 -22t47.5 -8q11 0 24 2.5t24 8.5t18 17t7 28q0 27 -20.5 40.5t-51.5 13.5q-15 0 -30.5 -2.5t-30.5 -9.5l-34 28l33 164h190v-63h-136l-13 -68q12 4 24.5 5t22.5 1q23 0 45 -7t38.5 -20.5t26.5 -33.5t10 -47q0 -24 -10 -46t-28.5 -38.5t-45 -26
t-59.5 -9.5q-35 0 -68 10t-58 28z" />
    <glyph glyph-name="threefifths" unicode="&#x2157;" horiz-adv-x="892" 
d="M84 378q17 -14 39 -22t48 -8q31 0 50.5 13.5t19.5 39.5q0 16 -6 26t-16 16t-23 8.5t-27 2.5q-11 0 -23 -1.5t-21 -4.5l-15 31l107 96h-142v62h228v-57l-88 -81q51 -5 76.5 -33t25.5 -70q0 -48 -39.5 -79t-105.5 -31q-38 0 -69 10t-55 27zM606 630h85l-405 -630h-85z
M607 82q18 -14 40.5 -22t47.5 -8q11 0 24 2.5t24 8.5t18 17t7 28q0 27 -20.5 40.5t-51.5 13.5q-15 0 -30.5 -2.5t-30.5 -9.5l-34 28l33 164h190v-63h-136l-13 -68q12 4 24.5 5t22.5 1q23 0 45 -7t38.5 -20.5t26.5 -33.5t10 -47q0 -24 -10 -46t-28.5 -38.5t-45 -26
t-59.5 -9.5q-35 0 -68 10t-58 28z" />
    <glyph glyph-name="fourfifths" unicode="&#x2158;" horiz-adv-x="892" 
d="M42 419l179 218h76v-217h42v-58h-42v-65h-69v65h-186v57zM228 420v144l-120 -144h120zM616 630h85l-405 -630h-85zM610 82q18 -14 40.5 -22t47.5 -8q11 0 24 2.5t24 8.5t18 17t7 28q0 27 -20.5 40.5t-51.5 13.5q-15 0 -30.5 -2.5t-30.5 -9.5l-34 28l33 164h190v-63h-136
l-13 -68q12 4 24.5 5t22.5 1q23 0 45 -7t38.5 -20.5t26.5 -33.5t10 -47q0 -24 -10 -46t-28.5 -38.5t-45 -26t-59.5 -9.5q-35 0 -68 10t-58 28z" />
    <glyph glyph-name="onesixth" unicode="&#x2159;" horiz-adv-x="892" 
d="M176 557l-88 -44l-28 57l126 67h67v-341h-77v261zM584 630h85l-405 -630h-85zM775 272q-10 7 -25.5 12t-35.5 5q-42 0 -67.5 -26.5t-28.5 -65.5q17 10 39.5 17t45.5 7q24 0 45.5 -6.5t38 -20.5t26.5 -35.5t10 -50.5q0 -26 -10.5 -47.5t-29 -37t-42.5 -24t-51 -8.5
q-31 0 -58 10.5t-46.5 30.5t-31 50.5t-11.5 71.5q0 91 45.5 144.5t123.5 53.5q33 0 55.5 -8.5t35.5 -16.5zM617 142q0 -43 18 -68t53 -25q27 0 46.5 15.5t19.5 43.5q0 9 -3 19.5t-10.5 18.5t-20 13.5t-30.5 5.5q-19 0 -39.5 -6t-33.5 -17z" />
    <glyph glyph-name="fivesixths" unicode="&#x215a;" horiz-adv-x="892" 
d="M84 377q18 -14 40.5 -22t47.5 -8q11 0 24 2.5t24 8.5t18 17t7 28q0 27 -20.5 40.5t-51.5 13.5q-15 0 -30.5 -2.5t-30.5 -9.5l-34 28l33 164h190v-63h-136l-13 -68q12 4 24.5 5t22.5 1q23 0 45 -7t38.5 -20.5t26.5 -33.5t10 -47q0 -24 -10 -46t-28.5 -38.5t-45 -26
t-59.5 -9.5q-35 0 -68 10t-58 28zM606 630h85l-405 -630h-85zM792 272q-10 7 -25.5 12t-35.5 5q-42 0 -67.5 -26.5t-28.5 -65.5q17 10 39.5 17t45.5 7q24 0 45.5 -6.5t38 -20.5t26.5 -35.5t10 -50.5q0 -26 -10.5 -47.5t-29 -37t-42.5 -24t-51 -8.5q-31 0 -58 10.5
t-46.5 30.5t-31 50.5t-11.5 71.5q0 91 45.5 144.5t123.5 53.5q33 0 55.5 -8.5t35.5 -16.5zM634 142q0 -43 18 -68t53 -25q27 0 46.5 15.5t19.5 43.5q0 9 -3 19.5t-10.5 18.5t-20 13.5t-30.5 5.5q-19 0 -39.5 -6t-33.5 -17z" />
    <glyph glyph-name="oneseventh" unicode="&#xf506;" horiz-adv-x="892" 
d="M178 557l-88 -44l-28 57l126 67h67v-341h-77v261zM582 630h85l-405 -630h-85zM608 1q13 36 30.5 75.5t36 76.5t37 70t33.5 57h-180v62h257v-63q-12 -19 -30 -52.5l-37.5 -72.5t-37 -79.5t-27.5 -73.5h-82z" />
    <glyph glyph-name="twosevenths" unicode="&#xf507;" horiz-adv-x="892" 
d="M55 338q0 26 13 45.5t32.5 35.5t42 30t42 28t32.5 28.5t13 32.5q0 23 -16 33t-36 10q-26 0 -52 -12.5t-44 -28.5l-33 53q22 20 57.5 37t80.5 17q65 0 95.5 -31t30.5 -73q0 -41 -23.5 -66t-53.5 -43.5l-58 -34.5t-37 -39h173v-64h-259v42zM608 630h85l-405 -630h-85z
M627 1q13 36 30.5 75.5t36 76.5t37 70t33.5 57h-180v62h257v-63q-12 -19 -30 -52.5l-37.5 -72.5t-37 -79.5t-27.5 -73.5h-82z" />
    <glyph glyph-name="threesevenths" unicode="&#xf508;" horiz-adv-x="892" 
d="M85 378q17 -14 39 -22t48 -8q31 0 50.5 13.5t19.5 39.5q0 16 -6 26t-16 16t-23 8.5t-27 2.5q-11 0 -23 -1.5t-21 -4.5l-15 31l107 96h-142v62h228v-57l-88 -81q51 -5 76.5 -33t25.5 -70q0 -48 -39.5 -79t-105.5 -31q-38 0 -69 10t-55 27zM598 630h85l-405 -630h-85z
M627 1q13 36 30.5 75.5t36 76.5t37 70t33.5 57h-180v62h257v-63q-12 -19 -30 -52.5l-37.5 -72.5t-37 -79.5t-27.5 -73.5h-82z" />
    <glyph glyph-name="foursevenths" unicode="&#xf509;" horiz-adv-x="892" 
d="M44 419l179 218h76v-217h42v-58h-42v-65h-69v65h-186v57zM230 420v144l-120 -144h120zM610 630h85l-405 -630h-85zM630 1q13 36 30.5 75.5t36 76.5t37 70t33.5 57h-180v62h257v-63q-12 -19 -30 -52.5l-37.5 -72.5t-37 -79.5t-27.5 -73.5h-82z" />
    <glyph glyph-name="fivesevenths" unicode="&#xf50a;" horiz-adv-x="892" 
d="M86 377q18 -14 40.5 -22t47.5 -8q11 0 24 2.5t24 8.5t18 17t7 28q0 27 -20.5 40.5t-51.5 13.5q-15 0 -30.5 -2.5t-30.5 -9.5l-34 28l33 164h190v-63h-136l-13 -68q12 4 24.5 5t22.5 1q23 0 45 -7t38.5 -20.5t26.5 -33.5t10 -47q0 -24 -10 -46t-28.5 -38.5t-45 -26
t-59.5 -9.5q-35 0 -68 10t-58 28zM597 630h85l-405 -630h-85zM625 1q13 36 30.5 75.5t36 76.5t37 70t33.5 57h-180v62h257v-63q-12 -19 -30 -52.5l-37.5 -72.5t-37 -79.5t-27.5 -73.5h-82z" />
    <glyph glyph-name="sixsevenths" unicode="&#xf50b;" horiz-adv-x="892" 
d="M279 567q-10 7 -25.5 12t-35.5 5q-42 0 -67.5 -26.5t-28.5 -65.5q17 10 39.5 17t45.5 7q24 0 45.5 -6.5t38 -20.5t26.5 -35.5t10 -50.5q0 -26 -10.5 -47.5t-29 -37t-42.5 -24t-51 -8.5q-31 0 -58 10.5t-46.5 30.5t-31 50.5t-11.5 71.5q0 91 45.5 144.5t123.5 53.5
q33 0 55.5 -8.5t35.5 -16.5zM121 437q0 -43 18 -68t53 -25q27 0 46.5 15.5t19.5 43.5q0 9 -3 19.5t-10.5 18.5t-20 13.5t-30.5 5.5q-19 0 -39.5 -6t-33.5 -17zM605 630h85l-405 -630h-85zM629 1q13 36 30.5 75.5t36 76.5t37 70t33.5 57h-180v62h257v-63q-12 -19 -30 -52.5
l-37.5 -72.5t-37 -79.5t-27.5 -73.5h-82z" />
    <glyph glyph-name="oneninth" unicode="&#xf50c;" horiz-adv-x="892" 
d="M176 557l-88 -44l-28 57l126 67h67v-341h-77v261zM577 630h85l-405 -630h-85zM598 71q11 -7 28.5 -12.5t39.5 -5.5q44 0 66 27t26 66q-17 -11 -40 -17.5t-46 -6.5q-24 0 -45.5 6.5t-38 20.5t-26.5 35.5t-10 50.5q0 26 10.5 47.5t29 37t42.5 24t51 8.5q31 0 58 -10.5
t46.5 -31t31 -51t11.5 -71.5q0 -91 -43 -144t-126 -53q-32 0 -56 8t-37 16zM758 201q0 38 -16.5 65.5t-54.5 27.5q-27 0 -46.5 -15.5t-19.5 -43.5q0 -10 3 -20t10.5 -18.5t20 -13.5t30.5 -5q20 0 41 7t32 16z" />
    <glyph glyph-name="twoninths" unicode="&#xf50d;" horiz-adv-x="892" 
d="M49 338q0 26 13 45.5t32.5 35.5t42 30t42 28t32.5 28.5t13 32.5q0 23 -16 33t-36 10q-26 0 -52 -12.5t-44 -28.5l-33 53q22 20 57.5 37t80.5 17q65 0 95.5 -31t30.5 -73q0 -41 -23.5 -66t-53.5 -43.5l-58 -34.5t-37 -39h173v-64h-259v42zM602 630h85l-405 -630h-85z
M613 71q11 -7 28.5 -12.5t39.5 -5.5q44 0 66 27t26 66q-17 -11 -40 -17.5t-46 -6.5q-24 0 -45.5 6.5t-38 20.5t-26.5 35.5t-10 50.5q0 26 10.5 47.5t29 37t42.5 24t51 8.5q31 0 58 -10.5t46.5 -31t31 -51t11.5 -71.5q0 -91 -43 -144t-126 -53q-32 0 -56 8t-37 16zM773 201
q0 38 -16.5 65.5t-54.5 27.5q-27 0 -46.5 -15.5t-19.5 -43.5q0 -10 3 -20t10.5 -18.5t20 -13.5t30.5 -5q20 0 41 7t32 16z" />
    <glyph glyph-name="fourninths" unicode="&#xf50e;" horiz-adv-x="892" 
d="M37 419l179 218h76v-217h42v-58h-42v-65h-69v65h-186v57zM223 420v144l-120 -144h120zM607 630h85l-405 -630h-85zM615 71q11 -7 28.5 -12.5t39.5 -5.5q44 0 66 27t26 66q-17 -11 -40 -17.5t-46 -6.5q-24 0 -45.5 6.5t-38 20.5t-26.5 35.5t-10 50.5q0 26 10.5 47.5t29 37
t42.5 24t51 8.5q31 0 58 -10.5t46.5 -31t31 -51t11.5 -71.5q0 -91 -43 -144t-126 -53q-32 0 -56 8t-37 16zM775 201q0 38 -16.5 65.5t-54.5 27.5q-27 0 -46.5 -15.5t-19.5 -43.5q0 -10 3 -20t10.5 -18.5t20 -13.5t30.5 -5q20 0 41 7t32 16z" />
    <glyph glyph-name="fiveninths" unicode="&#xf50f;" horiz-adv-x="892" 
d="M80 377q18 -14 40.5 -22t47.5 -8q11 0 24 2.5t24 8.5t18 17t7 28q0 27 -20.5 40.5t-51.5 13.5q-15 0 -30.5 -2.5t-30.5 -9.5l-34 28l33 164h190v-63h-136l-13 -68q12 4 24.5 5t22.5 1q23 0 45 -7t38.5 -20.5t26.5 -33.5t10 -47q0 -24 -10 -46t-28.5 -38.5t-45 -26
t-59.5 -9.5q-35 0 -68 10t-58 28zM596 630h85l-405 -630h-85zM610 71q11 -7 28.5 -12.5t39.5 -5.5q44 0 66 27t26 66q-17 -11 -40 -17.5t-46 -6.5q-24 0 -45.5 6.5t-38 20.5t-26.5 35.5t-10 50.5q0 26 10.5 47.5t29 37t42.5 24t51 8.5q31 0 58 -10.5t46.5 -31t31 -51
t11.5 -71.5q0 -91 -43 -144t-126 -53q-32 0 -56 8t-37 16zM770 201q0 38 -16.5 65.5t-54.5 27.5q-27 0 -46.5 -15.5t-19.5 -43.5q0 -10 3 -20t10.5 -18.5t20 -13.5t30.5 -5q20 0 41 7t32 16z" />
    <glyph glyph-name="sevenninths" unicode="&#xf510;" horiz-adv-x="892" 
d="M97 296q13 36 30.5 75.5t36 76.5t37 70t33.5 57h-180v62h257v-63q-12 -19 -30 -52.5l-37.5 -72.5t-37 -79.5t-27.5 -73.5h-82zM562 630h85l-405 -630h-85zM590 71q11 -7 28.5 -12.5t39.5 -5.5q44 0 66 27t26 66q-17 -11 -40 -17.5t-46 -6.5q-24 0 -45.5 6.5t-38 20.5
t-26.5 35.5t-10 50.5q0 26 10.5 47.5t29 37t42.5 24t51 8.5q31 0 58 -10.5t46.5 -31t31 -51t11.5 -71.5q0 -91 -43 -144t-126 -53q-32 0 -56 8t-37 16zM750 201q0 38 -16.5 65.5t-54.5 27.5q-27 0 -46.5 -15.5t-19.5 -43.5q0 -10 3 -20t10.5 -18.5t20 -13.5t30.5 -5
q20 0 41 7t32 16z" />
    <glyph glyph-name="eightninths" unicode="&#xf511;" horiz-adv-x="892" 
d="M114 478q-23 11 -39 29.5t-16 46.5q0 44 35 68.5t87 24.5q54 0 89 -24t35 -69q0 -28 -16 -46.5t-39 -29.5q13 -5 26 -13t23.5 -19t17 -25.5t6.5 -32.5q0 -47 -38.5 -74.5t-103.5 -27.5t-102.5 27.5t-37.5 74.5q0 35 22 56.5t51 33.5zM181 452q-25 -7 -44.5 -21.5
t-19.5 -40.5t20.5 -36t43.5 -10q24 0 44.5 10.5t20.5 35.5q0 26 -20.5 40t-44.5 22zM182 502q22 7 38 18.5t16 31.5q0 21 -15.5 32t-39.5 11q-23 0 -38 -11t-15 -32q0 -22 16.5 -33t37.5 -17zM607 630h85l-405 -630h-85zM615 71q11 -7 28.5 -12.5t39.5 -5.5q44 0 66 27
t26 66q-17 -11 -40 -17.5t-46 -6.5q-24 0 -45.5 6.5t-38 20.5t-26.5 35.5t-10 50.5q0 26 10.5 47.5t29 37t42.5 24t51 8.5q31 0 58 -10.5t46.5 -31t31 -51t11.5 -71.5q0 -91 -43 -144t-126 -53q-32 0 -56 8t-37 16zM775 201q0 38 -16.5 65.5t-54.5 27.5q-27 0 -46.5 -15.5
t-19.5 -43.5q0 -10 3 -20t10.5 -18.5t20 -13.5t30.5 -5q20 0 41 7t32 16z" />
    <glyph glyph-name="partialdiff" unicode="&#x2202;" horiz-adv-x="554" 
d="M115 610q11 7 29 16t41 16.5t49.5 13t55.5 5.5q54 0 95.5 -20.5t69 -57.5t41.5 -87t14 -110q0 -92 -18.5 -166.5t-54.5 -127t-88.5 -81t-119.5 -28.5q-46 0 -81 13.5t-58.5 37.5t-35.5 57t-12 72q0 48 16.5 92.5t46.5 78t72 54t93 20.5q46 0 83 -13.5t69 -37.5v41
q0 34 -8 66.5t-25.5 57.5t-44.5 40t-64 15q-25 0 -46 -4.5t-37.5 -11t-27.5 -13t-15 -9.5zM410 271q-11 9 -24 18.5t-30.5 17.5t-39 13t-49.5 5q-35 0 -61 -14.5t-42.5 -36.5t-24.5 -49t-8 -51q0 -55 30 -83t77 -28q62 0 108.5 49.5t63.5 158.5z" />
    <glyph glyph-name="Delta" unicode="&#x2206;" horiz-adv-x="669" 
d="M29 86l258 581h95l258 -581v-86h-611v86zM543 86l-212 478l-207 -478h419z" />
    <glyph glyph-name="product" unicode="&#x220f;" horiz-adv-x="724" 
d="M127 581h-109v86h686v-86h-109v-702h-95v702h-278v-702h-95v702z" />
    <glyph glyph-name="summation" unicode="&#x2211;" horiz-adv-x="557" 
d="M42 -34l216 315l-215 300v86h474v-86h-363l213 -300l-215 -315h366v-87h-476v87z" />
    <glyph glyph-name="uni2126" unicode="&#x2126;" horiz-adv-x="805" 
d="M51 86h140q-64 48 -97 113.5t-33 145.5q0 73 26.5 135t72.5 107t109 70.5t137 25.5q73 0 135 -25.5t107 -70.5t70 -106.5t25 -133.5q0 -82 -33 -147.5t-97 -113.5h140v-86h-280v86q40 12 71.5 38.5t53.5 62t33.5 77.5t11.5 85q0 52 -17 97t-48 78.5t-75.5 52.5t-99.5 19
h-2q-55 0 -99.5 -19t-75.5 -52.5t-48 -78.5t-17 -97q0 -43 11.5 -85t33.5 -77.5t53.5 -62t71.5 -38.5v-86h-280v86z" />
    <glyph glyph-name="minus" unicode="&#x2212;" horiz-adv-x="545" 
d="M73 359h399v-78h-399v78z" />
    <glyph glyph-name="uni2215" unicode="&#x2215;" horiz-adv-x="195" 
d="M259 630h85l-405 -630h-85z" />
    <glyph glyph-name="uni2219" unicode="&#x2219;" horiz-adv-x="240" 
d="M70 406h100v-97h-100v97z" />
    <glyph glyph-name="radical" unicode="&#x221a;" horiz-adv-x="574" 
d="M102 292h-77v86h135l126 -273l191 627h89l-220 -732h-103z" />
    <glyph glyph-name="infinity" unicode="&#x221e;" horiz-adv-x="683" 
d="M341 217q-17 -32 -53.5 -57t-86.5 -25q-36 0 -66 12.5t-51.5 36.5t-34 57.5t-12.5 75.5t12.5 75.5t34 57.5t51.5 36.5t66 12.5q50 0 86.5 -25t53.5 -57q18 32 54.5 57t87.5 25q35 0 64.5 -12.5t51.5 -36.5t34 -57.5t12 -75.5t-12.5 -75.5t-34 -57.5t-51.5 -36.5
t-66 -12.5q-51 0 -87 25t-53 57zM306 317q-9 45 -37.5 73.5t-63.5 28.5q-22 0 -38 -9t-27 -23t-16.5 -32.5t-5.5 -37.5t5.5 -37.5t16.5 -32.5t27 -23t38 -9q35 0 63.5 28.5t37.5 73.5zM376 317q9 -45 37.5 -73.5t63.5 -28.5q22 0 38 9t27 23t16.5 32.5t5.5 37.5t-5.5 37.5
t-16.5 32.5t-27 23t-38 9q-35 0 -63.5 -28.5t-37.5 -73.5z" />
    <glyph glyph-name="integral" unicode="&#x222b;" horiz-adv-x="541" 
d="M59 -12q18 -15 37 -23t42 -8q48 0 66.5 30.5t18.5 93.5v376q0 45 7 86t25.5 72.5t50 50t79.5 18.5q36 0 72 -11.5t65 -39.5l-45 -60q-37 32 -80 32q-50 0 -67.5 -33t-17.5 -91v-380q0 -43 -7 -83t-25.5 -71t-50 -50t-80.5 -19q-35 0 -71 11t-65 40z" />
    <glyph glyph-name="approxequal" unicode="&#x2248;" horiz-adv-x="545" 
d="M469 406q-7 -8 -18.5 -18t-26.5 -20t-33.5 -16.5t-40.5 -6.5q-17 0 -33.5 5t-29.5 12q-20 11 -41.5 20t-52.5 9q-27 0 -46.5 -14.5t-29.5 -23.5q-11 14 -21 28.5t-21 28.5l18 17.5t26.5 20.5t35 17t42.5 7q26 0 45.5 -9.5t39.5 -20.5q13 -7 27.5 -12t31.5 -5
q32 0 53.5 14t33.5 25zM469 229q-7 -8 -18.5 -18t-26.5 -20t-33.5 -16.5t-40.5 -6.5q-17 0 -33.5 5t-29.5 12q-20 11 -41.5 20t-52.5 9q-27 0 -46.5 -14.5t-29.5 -23.5q-11 14 -21 28.5t-21 28.5l18 17.5t26.5 20.5t35 17t42.5 7q26 0 45.5 -9.5t39.5 -20.5q13 -7 27.5 -12
t31.5 -5q32 0 53.5 14t33.5 25z" />
    <glyph glyph-name="notequal" unicode="&#x2260;" horiz-adv-x="545" 
d="M158 190h-85v78h131l56 96h-187v78h233l66 112l58 -30l-48 -82h90v-78h-136l-56 -96h192v-78h-238l-63 -109l-58 31z" />
    <glyph glyph-name="lessequal" unicode="&#x2264;" horiz-adv-x="545" 
d="M57 389l366 192l34 -68l-295 -153l295 -153l-34 -68l-366 192v58zM52 79h399v-78h-399v78z" />
    <glyph glyph-name="greaterequal" unicode="&#x2265;" horiz-adv-x="545" 
d="M89 207l295 153l-295 153l34 68l366 -192v-58l-366 -192zM95 79h399v-78h-399v78z" />
    <glyph glyph-name="lozenge" unicode="&#x25ca;" horiz-adv-x="576" 
d="M35 333l202 334h100l202 -334l-202 -333h-100zM441 333l-154 259l-153 -259l153 -259z" />
    <glyph glyph-name="fi" unicode="&#xf001;" horiz-adv-x="544" 
d="M97 390h-84v75h84v20q0 54 16.5 92t45.5 61.5t68 34.5t84 11q41 0 86 -13t80 -38l-41 -67q-24 17 -55.5 29t-69.5 12q-59 0 -91.5 -24.5t-32.5 -86.5v-31h291v-465h-90v390h-201v-390h-90v390z" />
    <glyph glyph-name="fl" unicode="&#xf002;" horiz-adv-x="551" 
d="M97 390h-84v75h84v23q0 52 15.5 89.5t43 61t66.5 34.5t87 11q30 0 58.5 -4.5t52 -11.5t41.5 -15.5t28 -15.5v-637h-90v591q-17 8 -41 12t-50 4q-66 0 -93.5 -27t-27.5 -92v-23h132v-75h-132v-390h-90v390z" />
    <glyph glyph-name="zero.alt" unicode="&#xf800;" horiz-adv-x="569" 
d="M284 -14q-59 0 -103.5 24t-75 68t-46 106t-15.5 138q0 75 15.5 135t46.5 102.5t75.5 65.5t103.5 23q58 0 103 -23t75.5 -65.5t46 -102.5t15.5 -135q0 -76 -15.5 -138t-46.5 -106t-76 -68t-103 -24zM284 69q36 0 63.5 18.5t46 52t28 80t9.5 102.5q0 55 -9.5 100
t-28.5 76.5t-46 48.5t-63 17t-63 -17t-45.5 -48.5t-28 -76.5t-9.5 -100q0 -56 9.5 -102.5t28 -80t45.5 -52t63 -18.5z" />
    <glyph glyph-name="one.alt" unicode="&#xf801;" horiz-adv-x="429" 
d="M86 80h112v455l-130 -70l-37 71l177 97h81v-553h110v-80h-313v80z" />
    <glyph glyph-name="two.alt" unicode="&#xf802;" horiz-adv-x="500" 
d="M51 65q0 53 25 93t60 75q43 43 81.5 74t67.5 57t45.5 51.5t16.5 58.5q0 15 -5.5 31t-18.5 29.5t-33 22.5t-50 9q-27 0 -48 -7.5t-37 -18.5t-27 -25l-20 -26l-67 48q10 18 27.5 37.5t42 36t58 27t77.5 10.5q51 0 88.5 -14t61.5 -37.5t36 -53.5t12 -63q0 -35 -12 -65.5
t-32 -56.5t-45.5 -49.5t-52.5 -44.5l-59.5 -48t-48 -45t-32 -44t-11.5 -45h300v-82h-400v65z" />
    <glyph glyph-name="three.alt" unicode="&#xf803;" horiz-adv-x="507" 
d="M70 118q25 -20 59 -37.5t86 -17.5q63 0 100 34t37 91q0 51 -31.5 84t-92.5 33q-18 0 -33 -3t-29 -8l-29 47l177 206h-252v83h362v-72l-162 -189q42 0 76 -13t58.5 -37t37.5 -57.5t13 -74.5q0 -50 -18 -88t-49.5 -63.5t-74 -39t-91.5 -13.5q-36 0 -66 6t-54 16t-43 22.5
t-34 25.5z" />
    <glyph glyph-name="four.alt" unicode="&#xf804;" horiz-adv-x="527" 
d="M43 208l286 423h91v-422h68v-78h-68v-131h-87v131h-290v77zM333 209v301l-201 -301h201z" />
    <glyph glyph-name="five.alt" unicode="&#xf805;" horiz-adv-x="511" 
d="M71 118q28 -23 61.5 -38.5t83.5 -15.5q35 0 61 10.5t43.5 28.5t26 42t8.5 52q0 19 -6 41t-21 40.5t-41 30.5t-66 12q-41 0 -65 -8t-44 -18l-46 35l60 300h309v-84h-246l-29 -165q10 6 32 11.5t53 5.5q45 0 82.5 -13t64.5 -38.5t42 -62t15 -84.5q0 -44 -14 -83t-43 -69
t-74 -47.5t-107 -17.5q-66 0 -112.5 20t-78.5 49z" />
    <glyph glyph-name="six.alt" unicode="&#xf806;" horiz-adv-x="537" 
d="M434 534q-3 2 -11.5 7t-22.5 10.5t-32.5 10t-40.5 4.5q-42 0 -74 -18t-54 -48t-34 -68.5t-13 -79.5q22 15 57 32.5t89 17.5q91 0 142.5 -54t51.5 -153q0 -47 -15.5 -86t-43 -67t-65.5 -43.5t-83 -15.5q-106 0 -165.5 75t-59.5 227q0 84 17.5 151t52 114t84.5 72t116 25
q51 0 88.5 -15t56.5 -27zM151 273q0 -99 31 -154.5t102 -55.5q24 0 46 9t39 26t27 42t10 57q0 54 -27.5 89.5t-89.5 35.5q-48 0 -81.5 -14.5t-56.5 -34.5z" />
    <glyph glyph-name="seven.alt" unicode="&#xf807;" horiz-adv-x="467" 
d="M96 0q23 71 55 151.5t65.5 156.5t65 139t53.5 99h-310v85h403v-82q-15 -23 -34.5 -62l-42 -86.5l-46 -101.5l-44.5 -107t-39 -103t-29 -89h-97z" />
    <glyph glyph-name="eight.alt" unicode="&#xf808;" horiz-adv-x="554" 
d="M277 379q48 15 77 44t29 68q0 37 -29 61.5t-77 24.5t-77 -24.5t-29 -66.5q0 -34 27.5 -63t78.5 -44zM273 302q-27 -7 -51 -19.5t-42 -29t-28.5 -37t-10.5 -44.5q0 -30 12.5 -51.5t32 -35t43.5 -19.5t48 -6t48 6t43.5 19.5t31.5 35t12 51.5q0 24 -11.5 44.5t-31 37
t-44.5 29t-52 19.5zM180 344q-40 21 -68 56t-28 86q0 35 13.5 65t38.5 51.5t60.5 33.5t80.5 12q47 0 83 -12t60 -33t36.5 -49.5t12.5 -61.5q0 -47 -26 -85t-74 -60q18 -8 41.5 -22t44.5 -36t35.5 -51.5t14.5 -67.5q0 -32 -12.5 -65t-40 -60t-71 -44t-104.5 -17
q-63 0 -106.5 17t-70.5 44t-39.5 59.5t-12.5 64.5q0 33 11 60t29.5 49t42.5 38.5t49 27.5z" />
    <glyph glyph-name="nine.alt" unicode="&#xf809;" horiz-adv-x="540" 
d="M106 99q3 -2 13 -7.5t25.5 -11.5t35 -10.5t41.5 -4.5q42 0 73 17.5t51.5 46.5t31 67.5t12.5 79.5q-18 -15 -53.5 -32t-94.5 -17q-45 0 -81 15.5t-61.5 43t-39 65.5t-13.5 84q0 47 16 86t44 67.5t66.5 44t83.5 15.5q106 0 165.5 -75.5t59.5 -227.5q0 -83 -16.5 -149.5
t-49.5 -113t-82 -72t-114 -25.5q-26 0 -49.5 4.5t-43.5 10.5t-35 13t-24 13zM390 357q0 98 -31.5 154t-101.5 56q-24 0 -46.5 -8.5t-39.5 -25.5t-28 -42t-11 -57q0 -26 7 -48.5t21.5 -39.5t37.5 -27t56 -10q50 0 81.5 14t54.5 34z" />
    <glyph glyph-name="zero.sups" unicode="&#xf80a;" 
d="M178 376q-68 0 -111.5 46t-43.5 135t43.5 134.5t111.5 45.5q34 0 62.5 -11.5t49 -34t32 -56t11.5 -78.5q0 -89 -43.5 -135t-111.5 -46zM178 439q14 0 27.5 6t24.5 20t18 36.5t7 55.5t-7 55.5t-18 36t-24.5 19.5t-27.5 6t-28 -6t-25 -19.5t-18 -36t-7 -55.5t7 -55.5
t18 -36.5t25 -20t28 -6z" />
    <glyph glyph-name="one.sups" unicode="&#xf80b;" 
d="M178 647l-88 -44l-28 57l126 67h67v-341h-77v261z" />
    <glyph glyph-name="two.sups" unicode="&#xf80c;" 
d="M49 428q0 26 13 45.5t32.5 35.5t42 30t42 28t32.5 28.5t13 32.5q0 23 -16 33t-36 10q-26 0 -52 -12.5t-44 -28.5l-33 53q22 20 57.5 37t80.5 17q65 0 95.5 -31t30.5 -73q0 -41 -23.5 -66t-53.5 -43.5l-58 -34.5t-37 -39h173v-64h-259v42z" />
    <glyph glyph-name="three.sups" unicode="&#xf80d;" 
d="M70 468q17 -14 39 -22t48 -8q31 0 50.5 13.5t19.5 39.5q0 16 -6 26t-16 16t-23 8.5t-27 2.5q-11 0 -23 -1.5t-21 -4.5l-15 31l107 96h-142v62h228v-57l-88 -81q51 -5 76.5 -33t25.5 -70q0 -48 -39.5 -79t-105.5 -31q-38 0 -69 10t-55 27z" />
    <glyph glyph-name="four.sups" unicode="&#xf80e;" 
d="M35 509l179 218h76v-217h42v-58h-42v-65h-69v65h-186v57zM221 510v144l-120 -144h120z" />
    <glyph glyph-name="five.sups" unicode="&#xf80f;" 
d="M71 467q18 -14 40.5 -22t47.5 -8q11 0 24 2.5t24 8.5t18 17t7 28q0 27 -20.5 40.5t-51.5 13.5q-15 0 -30.5 -2.5t-30.5 -9.5l-34 28l33 164h190v-63h-136l-13 -68q12 4 24.5 5t22.5 1q23 0 45 -7t38.5 -20.5t26.5 -33.5t10 -47q0 -24 -10 -46t-28.5 -38.5t-45 -26
t-59.5 -9.5q-35 0 -68 10t-58 28z" />
    <glyph glyph-name="six.sups" unicode="&#xf810;" 
d="M272 657q-10 7 -25.5 12t-35.5 5q-42 0 -67.5 -26.5t-28.5 -65.5q17 10 39.5 17t45.5 7q24 0 45.5 -6.5t38 -20.5t26.5 -35.5t10 -50.5q0 -26 -10.5 -47.5t-29 -37t-42.5 -24t-51 -8.5q-31 0 -58 10.5t-46.5 30.5t-31 50.5t-11.5 71.5q0 91 45.5 144.5t123.5 53.5
q33 0 55.5 -8.5t35.5 -16.5zM114 527q0 -43 18 -68t53 -25q27 0 46.5 15.5t19.5 43.5q0 9 -3 19.5t-10.5 18.5t-20 13.5t-30.5 5.5q-19 0 -39.5 -6t-33.5 -17z" />
    <glyph glyph-name="seven.sups" unicode="&#xf811;" 
d="M90 386q13 36 30.5 75.5t36 76.5t37 70t33.5 57h-180v62h257v-63q-12 -19 -30 -52.5l-37.5 -72.5t-37 -79.5t-27.5 -73.5h-82z" />
    <glyph glyph-name="eight.sups" unicode="&#xf812;" 
d="M112 568q-23 11 -39 29.5t-16 46.5q0 44 35 68.5t87 24.5q54 0 89 -24t35 -69q0 -28 -16 -46.5t-39 -29.5q13 -5 26 -13t23.5 -19t17 -25.5t6.5 -32.5q0 -47 -38.5 -74.5t-103.5 -27.5t-102.5 27.5t-37.5 74.5q0 35 22 56.5t51 33.5zM179 542q-25 -7 -44.5 -21.5
t-19.5 -40.5t20.5 -36t43.5 -10q24 0 44.5 10.5t20.5 35.5q0 26 -20.5 40t-44.5 22zM180 592q22 7 38 18.5t16 31.5q0 21 -15.5 32t-39.5 11q-23 0 -38 -11t-15 -32q0 -22 16.5 -33t37.5 -17z" />
    <glyph glyph-name="nine.sups" unicode="&#xf813;" 
d="M82 456q11 -7 28.5 -12.5t39.5 -5.5q44 0 66 27t26 66q-17 -11 -40 -17.5t-46 -6.5q-24 0 -45.5 6.5t-38 20.5t-26.5 35.5t-10 50.5q0 26 10.5 47.5t29 37t42.5 24t51 8.5q31 0 58 -10.5t46.5 -31t31 -51t11.5 -71.5q0 -91 -43 -144t-126 -53q-32 0 -56 8t-37 16z
M242 586q0 38 -16.5 65.5t-54.5 27.5q-27 0 -46.5 -15.5t-19.5 -43.5q0 -10 3 -20t10.5 -18.5t20 -13.5t30.5 -5q20 0 41 7t32 16z" />
    <glyph glyph-name="zero.sinf" unicode="&#xf814;" 
d="M178 -99q-68 0 -111.5 46t-43.5 135t43.5 134.5t111.5 45.5q34 0 62.5 -11.5t49 -34t32 -56t11.5 -78.5q0 -89 -43.5 -135t-111.5 -46zM178 -36q14 0 27.5 6t24.5 20t18 36.5t7 55.5t-7 55.5t-18 36t-24.5 19.5t-27.5 6t-28 -6t-25 -19.5t-18 -36t-7 -55.5t7 -55.5
t18 -36.5t25 -20t28 -6z" />
    <glyph glyph-name="one.sinf" unicode="&#xf815;" 
d="M178 172l-88 -44l-28 57l126 67h67v-341h-77v261z" />
    <glyph glyph-name="two.sinf" unicode="&#xf816;" 
d="M49 -47q0 26 13 45.5t32.5 35.5t42 30t42 28t32.5 28.5t13 32.5q0 23 -16 33t-36 10q-26 0 -52 -12.5t-44 -28.5l-33 53q22 20 57.5 37t80.5 17q65 0 95.5 -31t30.5 -73q0 -41 -23.5 -66t-53.5 -43.5l-58 -34.5t-37 -39h173v-64h-259v42z" />
    <glyph glyph-name="three.sinf" unicode="&#xf817;" 
d="M70 -7q17 -14 39 -22t48 -8q31 0 50.5 13.5t19.5 39.5q0 16 -6 26t-16 16t-23 8.5t-27 2.5q-11 0 -23 -1.5t-21 -4.5l-15 31l107 96h-142v62h228v-57l-88 -81q51 -5 76.5 -33t25.5 -70q0 -48 -39.5 -79t-105.5 -31q-38 0 -69 10t-55 27z" />
    <glyph glyph-name="four.sinf" unicode="&#xf818;" 
d="M35 34l179 218h76v-217h42v-58h-42v-65h-69v65h-186v57zM221 35v144l-120 -144h120z" />
    <glyph glyph-name="five.sinf" unicode="&#xf819;" 
d="M71 -8q18 -14 40.5 -22t47.5 -8q11 0 24 2.5t24 8.5t18 17t7 28q0 27 -20.5 40.5t-51.5 13.5q-15 0 -30.5 -2.5t-30.5 -9.5l-34 28l33 164h190v-63h-136l-13 -68q12 4 24.5 5t22.5 1q23 0 45 -7t38.5 -20.5t26.5 -33.5t10 -47q0 -24 -10 -46t-28.5 -38.5t-45 -26
t-59.5 -9.5q-35 0 -68 10t-58 28z" />
    <glyph glyph-name="six.sinf" unicode="&#xf81a;" 
d="M272 182q-10 7 -25.5 12t-35.5 5q-42 0 -67.5 -26.5t-28.5 -65.5q17 10 39.5 17t45.5 7q24 0 45.5 -6.5t38 -20.5t26.5 -35.5t10 -50.5q0 -26 -10.5 -47.5t-29 -37t-42.5 -24t-51 -8.5q-31 0 -58 10.5t-46.5 30.5t-31 50.5t-11.5 71.5q0 91 45.5 144.5t123.5 53.5
q33 0 55.5 -8.5t35.5 -16.5zM114 52q0 -43 18 -68t53 -25q27 0 46.5 15.5t19.5 43.5q0 9 -3 19.5t-10.5 18.5t-20 13.5t-30.5 5.5q-19 0 -39.5 -6t-33.5 -17z" />
    <glyph glyph-name="seven.sinf" unicode="&#xf81b;" 
d="M90 -89q13 36 30.5 75.5t36 76.5t37 70t33.5 57h-180v62h257v-63q-12 -19 -30 -52.5l-37.5 -72.5t-37 -79.5t-27.5 -73.5h-82z" />
    <glyph glyph-name="eight.sinf" unicode="&#xf81c;" 
d="M112 93q-23 11 -39 29.5t-16 46.5q0 44 35 68.5t87 24.5q54 0 89 -24t35 -69q0 -28 -16 -46.5t-39 -29.5q13 -5 26 -13t23.5 -19t17 -25.5t6.5 -32.5q0 -47 -38.5 -74.5t-103.5 -27.5t-102.5 27.5t-37.5 74.5q0 35 22 56.5t51 33.5zM179 67q-25 -7 -44.5 -21.5
t-19.5 -40.5t20.5 -36t43.5 -10q24 0 44.5 10.5t20.5 35.5q0 26 -20.5 40t-44.5 22zM180 117q22 7 38 18.5t16 31.5q0 21 -15.5 32t-39.5 11q-23 0 -38 -11t-15 -32q0 -22 16.5 -33t37.5 -17z" />
    <glyph glyph-name="nine.sinf" unicode="&#xf81d;" 
d="M82 -19q11 -7 28.5 -12.5t39.5 -5.5q44 0 66 27t26 66q-17 -11 -40 -17.5t-46 -6.5q-24 0 -45.5 6.5t-38 20.5t-26.5 35.5t-10 50.5q0 26 10.5 47.5t29 37t42.5 24t51 8.5q31 0 58 -10.5t46.5 -31t31 -51t11.5 -71.5q0 -91 -43 -144t-126 -53q-32 0 -56 8t-37 16z
M242 111q0 38 -16.5 65.5t-54.5 27.5q-27 0 -46.5 -15.5t-19.5 -43.5q0 -10 3 -20t10.5 -18.5t20 -13.5t30.5 -5q20 0 41 7t32 16z" />
    <glyph glyph-name="hungarumlaut.cap" horiz-adv-x="458" 
d="M126 870h108l-109 -150h-76zM302 870h108l-109 -150h-76z" />
    <glyph glyph-name="cedilla.cap" horiz-adv-x="345" 
d="M88 -141q17 -6 35.5 -10t38.5 -4q63 0 63 38q0 14 -13.5 22.5t-42.5 8.5q-37 0 -71 -12q3 14 5.5 28.5t4.5 28.5q18 5 37 9t49 4q54 0 82 -26t28 -61q0 -24 -10.5 -42.5t-28.5 -30.5t-41 -18.5t-48 -6.5q-43 0 -68.5 6.5t-30.5 8.5l6 28.5t5 28.5z" />
    <glyph glyph-name="tilde.cap" horiz-adv-x="457" 
d="M39 798q19 20 49.5 38.5t68.5 18.5q23 0 39.5 -7t31 -15t29 -15t34.5 -7q29 0 48.5 11.5t36.5 25.5l20.5 -28.5l20.5 -29.5q-19 -20 -49 -39t-68 -19q-23 0 -39 7t-31 16t-30 16t-35 7q-29 0 -49 -11.5t-37 -25.5z" />
    <glyph glyph-name="ogonek.cap" horiz-adv-x="318" 
d="M212 0q-25 -23 -42 -49.5t-17 -47.5q0 -29 34 -29q15 0 28.5 6t27.5 14l26 -59q-25 -17 -53.5 -26t-53.5 -9q-48 0 -72 20.5t-24 56.5q0 33 21 64.5t47 58.5h78z" />
    <glyph glyph-name="ring.cap" horiz-adv-x="313" 
d="M38 798q0 26 9.5 48t25.5 37.5t38 24.5t48 9q25 0 47.5 -8.5t38.5 -24.5t25.5 -37.5t9.5 -46.5q0 -26 -9.5 -48t-25.5 -38t-38 -25t-47 -9q-26 0 -48 9t-38.5 24.5t-26 37t-9.5 47.5zM160 740q25 0 40.5 17t15.5 43q0 25 -15.5 41t-41.5 16q-25 0 -40.5 -16.5
t-15.5 -42.5q0 -25 15.5 -41.5t41.5 -16.5z" />
    <glyph glyph-name="caron.cap" horiz-adv-x="398" 
d="M122 870l36.5 -46l36.5 -46l72 92h84l-113 -150h-88l-56 75l-55 75h83z" />
    <glyph glyph-name="macron.cap" horiz-adv-x="353" 
d="M19 832h315v-75h-315v75z" />
    <glyph glyph-name="dieresis.cap" horiz-adv-x="320" 
d="M207 844h101v-98h-101v98zM12 844h101v-98h-101v98z" />
    <glyph glyph-name="dotaccent.cap" horiz-adv-x="187" 
d="M40 847h107v-103h-107v103z" />
    <glyph glyph-name="circumflex.cap" horiz-adv-x="398" 
d="M155 870h88l56 -75l55 -75h-83l-36.5 46l-36.5 46l-72 -92h-84z" />
    <glyph glyph-name="acute.cap" horiz-adv-x="271" 
d="M115 870h114l-106 -150h-81z" />
    <glyph glyph-name="grave.cap" horiz-adv-x="271" 
d="M43 870h112l74 -150h-81z" />
    <glyph glyph-name="breve.cap" horiz-adv-x="384" 
d="M118 854q1 -26 20 -46.5t54 -20.5t54.5 20.5t20.5 46.5h74q0 -25 -9.5 -49t-28 -42.5t-46.5 -29.5t-65 -11t-64.5 11t-46 29.5t-28 42.5t-9.5 49h74z" />
    <glyph glyph-name="commaaccent.cap" horiz-adv-x="253" 
d="M96 -56h107l-82 -150h-81z" />
    <glyph glyph-name="caron.alt" horiz-adv-x="372" 
d="M127 667h86l-25 -173h-61v173z" />
    <glyph glyph-name="commaaccent" horiz-adv-x="172" 
d="M62 -56h97l-76 -141h-74z" />
    <glyph glyph-name="revcommaaccent" horiz-adv-x="179" 
d="M92 676h74l-53 -136h-99z" />
    <glyph glyph-name="Parenleft" horiz-adv-x="290" 
d="M164 -67q-13 22 -30.5 59.5t-33 88.5t-26.5 114.5t-11 136.5t11 136.5t26.5 114.5t33 89t30.5 60h88q-16 -29 -32.5 -70t-29.5 -92t-21.5 -111t-8.5 -127q0 -66 8.5 -126t21.5 -111t29.5 -92t32.5 -70h-88z" />
    <glyph glyph-name="Parenright" horiz-adv-x="290" 
d="M39 -67q16 29 32 70t29.5 92t22 111t8.5 126q0 67 -8.5 127t-22 111t-29.5 92t-32 70h87q13 -22 30 -60t33 -89t27 -114.5t11 -136.5t-11 -136.5t-27 -114.5t-33 -88.5t-30 -59.5h-87z" />
    <glyph glyph-name="Hyphen" horiz-adv-x="439" 
d="M73 376h293v-86h-293v86z" />
    <glyph glyph-name="Slash" horiz-adv-x="406" 
d="M291 685h89l-264 -701h-91z" />
    <glyph glyph-name="At" horiz-adv-x="956" 
d="M183 -14q-23 17 -47 45t-43.5 65.5t-32 84t-12.5 100.5q0 102 36 178t96 126.5t137.5 75t161.5 24.5q91 0 170 -24.5t136.5 -73t90.5 -121.5t33 -170q0 -92 -21 -152t-51.5 -95.5t-66 -50t-65.5 -14.5q-16 0 -32.5 3.5t-31 11t-25.5 20.5t-17 33q-41 -41 -83 -54t-87 -13
q-26 0 -54 8t-51 26t-38 46t-15 67q0 75 52.5 120.5t151.5 45.5q38 0 66.5 -2t45.5 -4v17q0 48 -30.5 70.5t-82.5 22.5q-54 0 -85.5 -14.5t-52.5 -29.5l-43 62q13 11 30.5 21.5t40.5 19t52.5 14t67.5 5.5q88 0 139.5 -43t51.5 -124v-201q0 -28 12.5 -39.5t31.5 -11.5
q17 0 36 12.5t34.5 40.5t25.5 73.5t10 111.5q0 82 -28.5 141t-76.5 97t-111.5 56t-132.5 18q-59 0 -119.5 -17t-109.5 -55.5t-80.5 -100.5t-31.5 -152q0 -51 10.5 -91t26.5 -70t33.5 -51t32.5 -34zM587 220q-10 2 -37 4.5t-69 2.5q-36 0 -60 -9t-37.5 -22.5t-19 -29.5
t-5.5 -31q0 -35 25.5 -55t72.5 -20q25 0 48.5 8t41.5 22.5t29 33.5t11 40v56z" />
    <glyph glyph-name="Bracketleft" horiz-adv-x="315" 
d="M78 732h211v-81h-121v-635h121v-83h-211v799z" />
    <glyph glyph-name="Backslash" horiz-adv-x="406" 
d="M25 685h89l266 -701h-91z" />
    <glyph glyph-name="Bracketright" horiz-adv-x="315" 
d="M25 16h121v635h-121v81h212v-799h-212v83z" />
    <glyph glyph-name="Braceleft" horiz-adv-x="289" 
d="M107 224q-2 31 -20 54.5t-56 25.5v57q38 2 56 25.5t20 54.5l14 170q4 44 15 73t34 48h93q-19 -18 -33 -47.5t-16 -62.5l-15 -190q-3 -42 -23.5 -66.5t-49.5 -32.5q29 -8 49.5 -33t23.5 -67l15 -190q2 -33 16 -62.5t33 -47.5h-93q-23 19 -34 48t-15 73z" />
    <glyph glyph-name="Braceright" horiz-adv-x="289" 
d="M26 -67q19 18 33 47.5t16 62.5l15 190q3 42 23.5 67t49.5 33q-29 8 -49.5 32.5t-23.5 66.5l-15 190q-2 33 -16 62.5t-33 47.5h93q23 -19 34 -48t15 -73l14 -170q2 -31 20 -54.5t56 -25.5v-57q-38 -2 -56 -25.5t-20 -54.5l-14 -170q-4 -44 -15 -73t-34 -48h-93z" />
    <glyph glyph-name="Guilsinglleft" horiz-adv-x="325" 
d="M63 333l105 193h89l-101 -193l101 -193h-89z" />
    <glyph glyph-name="Bullet" horiz-adv-x="400" 
d="M75 333q0 25 10 48t27 39.5t39.5 26.5t48.5 10t48.5 -10t39.5 -26.5t27 -39.5t10 -48q0 -26 -10 -48.5t-27 -39.5t-39.5 -27t-48.5 -10t-48.5 10t-39.5 27t-27 39.5t-10 48.5z" />
    <glyph glyph-name="Endash" horiz-adv-x="500" 
d="M0 376h500v-86h-500v86z" />
    <glyph glyph-name="Emdash" horiz-adv-x="1000" 
d="M0 376h1000v-86h-1000v86z" />
    <glyph glyph-name="Guilsinglright" horiz-adv-x="325" 
d="M169 333l-101 193h89l105 -193l-105 -193h-89z" />
    <glyph glyph-name="Exclamdown" horiz-adv-x="258" 
d="M82 475h95l3 -475h-100zM74 667h112v-109h-112v109z" />
    <glyph glyph-name="Guillemotleft" horiz-adv-x="502" 
d="M65 333l105 193h89l-101 -193l101 -193h-89zM242 333l105 193h89l-101 -193l101 -193h-89z" />
    <glyph glyph-name="Guillemotright" horiz-adv-x="502" 
d="M348 333l-101 193h89l105 -193l-105 -193h-89zM171 333l-101 193h89l105 -193l-105 -193h-89z" />
    <glyph glyph-name="Questiondown" horiz-adv-x="506" 
d="M229 667h111v-110h-111v110zM467 80q-9 -12 -26 -28.5t-43 -31.5t-61 -26t-80 -11q-49 0 -87 13.5t-64.5 36.5t-40 53.5t-13.5 64.5q0 29 7 51.5t20 42t32 36.5t43 35l36 27.5t27 27.5t17 33t6 44v27h90v-28q0 -54 -22 -97t-73 -80q-17 -12 -33 -24.5t-29 -26.5t-21 -31
t-8 -37q0 -38 31 -61.5t82 -23.5q28 0 51 7t42 17t33 22t24 23z" />
    <glyph glyph-name="uni0400" unicode="&#x400;" horiz-adv-x="564" 
d="M76 667h420v-85h-324v-194h244v-86h-244v-216h348v-86h-444v667zM172 870h112l74 -150h-81z" />
    <glyph glyph-name="afii10023" unicode="&#x401;" horiz-adv-x="564" 
d="M76 667h420v-85h-324v-194h244v-86h-244v-216h348v-86h-444v667zM333 844h101v-98h-101v98zM138 844h101v-98h-101v98z" />
    <glyph glyph-name="afii10051" unicode="&#x402;" horiz-adv-x="780" 
d="M247 581h-219v86h573v-86h-258v-190q38 20 78.5 29.5t80.5 9.5q47 0 89.5 -14t75 -41.5t52 -68.5t19.5 -96q0 -53 -18.5 -94t-50 -68.5t-74.5 -41.5t-92 -14q-33 0 -66 6l11 79q11 -2 22 -3t21 -1q29 0 56 7.5t48 24t33.5 42.5t12.5 63t-13 64t-34.5 43.5t-49.5 24.5
t-59 8q-37 0 -73.5 -10t-68.5 -30v-310h-96v581z" />
    <glyph glyph-name="afii10052" unicode="&#x403;" horiz-adv-x="526" 
d="M498 667v-86h-326v-581h-96v667h422zM301 870h114l-106 -150h-81z" />
    <glyph glyph-name="afii10053" unicode="&#x404;" horiz-adv-x="681" 
d="M646 109q-12 -18 -34.5 -39.5t-55 -41t-76 -32.5t-97.5 -13q-74 0 -135.5 26.5t-105.5 73t-68.5 110.5t-24.5 139q0 74 24 138t68 111.5t106 75t138 27.5q52 0 93 -12t72.5 -30.5t53.5 -40t36 -40.5l-67 -58q-12 15 -28.5 31.5t-40 30.5t-53.5 23t-67 9q-47 0 -86 -15
t-69 -43t-49.5 -66.5t-26.5 -84.5h336v-87h-338q5 -48 22.5 -89.5t47 -72t71 -48.5t94.5 -18q41 0 73 10t56 25t40.5 31.5t26.5 28.5z" />
    <glyph glyph-name="afii10054" unicode="&#x405;" horiz-adv-x="564" 
d="M100 162q14 -16 31.5 -32.5t39.5 -29.5t49 -21t59 -8q66 0 103 30t37 81q0 55 -42 82.5t-121 44.5q-43 9 -78 25t-60.5 40t-39.5 55.5t-14 71.5q0 37 14 70t42 58t70 40t97 15q49 0 84.5 -10.5t60.5 -25.5t40 -31t23 -26l-64 -59q-6 7 -18 18.5t-30.5 22.5t-43 18.5
t-56.5 7.5t-55 -8.5t-38 -22t-22 -30.5t-7 -34q0 -25 10.5 -42.5t30.5 -31t49.5 -23t67.5 -18.5q37 -9 72.5 -23.5t63.5 -39t44.5 -60t16.5 -86.5q0 -43 -18 -79t-49.5 -62.5t-74.5 -41t-93 -14.5q-47 0 -85.5 11t-70 28t-55 37.5t-38.5 40.5z" />
    <glyph glyph-name="afii10055" unicode="&#x406;" horiz-adv-x="248" 
d="M76 667h96v-667h-96v667z" />
    <glyph glyph-name="afii10056" unicode="&#x407;" horiz-adv-x="248" 
d="M76 667h96v-667h-96v667zM175 844h101v-98h-101v98zM-20 844h101v-98h-101v98z" />
    <glyph glyph-name="afii10057" unicode="&#x408;" horiz-adv-x="494" 
d="M82 135q29 -33 58.5 -48t70.5 -15q24 0 44.5 7.5t36.5 23.5t25 41t9 60v463h96v-471q0 -58 -17 -98.5t-45.5 -66t-66.5 -37t-80 -11.5q-74 0 -121 26t-78 66z" />
    <glyph glyph-name="afii10058" unicode="&#x409;" horiz-adv-x="1032" 
d="M632 667v-245h120q114 0 176 -55.5t62 -152.5q0 -41 -13 -79.5t-41.5 -68.5t-75 -48t-113.5 -18h-211v581h-221q-6 -132 -20.5 -239.5t-45.5 -184t-81 -118.5t-126 -42h-14v87q53 0 89 34t58.5 105.5t34 181.5t15.5 262h407zM632 82h118q66 0 103.5 32t37.5 96
q0 63 -37.5 96.5t-103.5 33.5h-118v-258z" />
    <glyph glyph-name="afii10059" unicode="&#x40a;" horiz-adv-x="1023" 
d="M76 667h96v-261h355v261h96v-261h129q109 0 169 -53.5t60 -146.5q0 -39 -12.5 -76.5t-40 -66t-72.5 -46t-109 -17.5h-220v320h-355v-320h-96v667zM623 82h127q62 0 97 30t35 90t-34.5 91t-97.5 31h-127v-242z" />
    <glyph glyph-name="afii10060" unicode="&#x40b;" horiz-adv-x="795" 
d="M247 581h-219v86h573v-86h-258v-192q32 15 73 25t86 10t87 -12t74 -38.5t51 -69t19 -103.5v-201h-96v188q0 42 -11 71t-31.5 47t-49.5 26t-64 8q-42 0 -78 -9.5t-60 -23.5v-307h-96v581z" />
    <glyph glyph-name="afii10061" unicode="&#x40c;" horiz-adv-x="618" 
d="M76 0v667h96v-279h69q39 0 62.5 16.5t42.5 48.5l129 214h105l-131 -217q-24 -39 -48 -64.5t-59 -38.5q20 -6 35.5 -15.5t29 -22.5t26 -30.5t26.5 -40.5l146 -238h-112l-138 226q-25 42 -49 59t-62 17h-72v-302h-96zM328 870h114l-106 -150h-81z" />
    <glyph glyph-name="uni040D" unicode="&#x40d;" horiz-adv-x="707" 
d="M537 0v532l-364 -532h-97v667h94v-530l363 530h98v-667h-94zM223 870h112l74 -150h-81z" />
    <glyph glyph-name="afii10062" unicode="&#x40e;" horiz-adv-x="614" 
d="M601 667l-257 -528q-15 -32 -32.5 -60t-39 -49.5t-48.5 -34t-62 -12.5q-36 0 -66.5 12t-53.5 29l42 72q16 -11 34.5 -19.5t42.5 -8.5q18 0 32 6t26.5 19.5t24 34t25.5 49.5l-256 490h105l199 -392l185 392h99zM241 854q1 -26 20 -46.5t54 -20.5t54.5 20.5t20.5 46.5h74
q0 -25 -9.5 -49t-28 -42.5t-46.5 -29.5t-65 -11t-64.5 11t-46 29.5t-28 42.5t-9.5 49h74z" />
    <glyph glyph-name="afii10145" unicode="&#x40f;" horiz-adv-x="705" 
d="M309 0h-233v667h96v-581h361v581h96v-667h-233v-154h-87v154z" />
    <glyph glyph-name="afii10017" unicode="&#x410;" horiz-adv-x="641" 
d="M271 667h98l261 -667h-107l-69 186h-274l-69 -186h-101zM425 267l-108 293l-109 -293h217z" />
    <glyph glyph-name="afii10018" unicode="&#x411;" horiz-adv-x="583" 
d="M480 667v-83h-308v-177h130q114 0 176 -53.5t62 -147.5q0 -39 -13 -76.5t-41.5 -66t-75 -46t-113.5 -17.5h-221v667h404zM172 82h128q66 0 103.5 30t37.5 91q0 60 -37.5 91t-103.5 31h-128v-243z" />
    <glyph glyph-name="afii10019" unicode="&#x412;" horiz-adv-x="584" 
d="M76 667h226q52 0 90 -13.5t63 -36.5t37.5 -54t12.5 -66q0 -32 -11.5 -58t-28 -44t-36 -29t-33.5 -13q19 -3 44.5 -12.5t47.5 -28.5t37 -49.5t15 -75.5q0 -54 -19.5 -89.5t-53 -57.5t-79.5 -31t-98 -9h-214v667zM285 83q26 0 54 3t51.5 14t38.5 32.5t15 59.5
q0 36 -14.5 58t-37 35t-49.5 17.5t-52 4.5h-122v-224h116zM288 389q22 0 44 5.5t40 17.5t29 31t11 46q0 30 -11 48.5t-29 29t-40 14t-44 3.5h-119v-195h119z" />
    <glyph glyph-name="afii10020" unicode="&#x413;" horiz-adv-x="526" 
d="M498 667v-86h-326v-581h-96v667h422z" />
    <glyph glyph-name="afii10021" unicode="&#x414;" horiz-adv-x="743" 
d="M558 581h-229q-8 -93 -20 -166t-29.5 -131.5t-40 -106.5t-50.5 -91h369v495zM651 86h56v-240h-87v154h-505v-154h-87v240h52q40 52 68.5 109.5t47.5 126.5t31 153.5t19 191.5h405v-581z" />
    <glyph glyph-name="afii10022" unicode="&#x415;" horiz-adv-x="564" 
d="M76 667h420v-85h-324v-194h244v-86h-244v-216h348v-86h-444v667z" />
    <glyph glyph-name="afii10024" unicode="&#x416;" horiz-adv-x="888" 
d="M490 667v-279h63q33 0 55.5 17t40.5 55l99 207h102l-116 -234q-16 -32 -37.5 -53t-47.5 -32q28 -9 50 -28.5t45 -63.5l131 -256h-109l-111 224q-20 42 -42.5 60t-54.5 18h-68v-302h-92v302h-71q-36 0 -59 -22.5t-48 -74.5l-101 -205h-106l131 256q22 44 44.5 63.5
t50.5 27.5q-26 12 -48 34t-37 52l-116 234h103l100 -207q18 -38 40.5 -55t55.5 -17h61v279h92z" />
    <glyph glyph-name="afii10025" unicode="&#x417;" horiz-adv-x="557" 
d="M178 387h96q25 0 47 6t39 19t27 33t10 48q0 29 -10.5 49t-28 32.5t-39.5 18t-45 5.5q-32 0 -57 -9t-43.5 -23t-32.5 -30t-24 -29l-67 50q13 20 32.5 42t48 41t66 31t85.5 12q51 0 90.5 -14.5t66 -38.5t40 -56.5t13.5 -68.5q0 -56 -30.5 -99.5t-84.5 -56.5
q27 -6 51.5 -19.5t43 -34.5t29.5 -50t11 -67q0 -50 -18.5 -86.5t-50.5 -60.5t-74 -35.5t-90 -11.5q-53 0 -94 13t-71.5 32t-51 41t-32.5 40l69 51q9 -12 23 -28t35 -30t50 -24t67 -10q28 0 53.5 6.5t45 20.5t31 37.5t11.5 56.5t-11.5 55t-30 35t-42.5 18.5t-49 5.5h-104v83z
" />
    <glyph glyph-name="afii10026" unicode="&#x418;" horiz-adv-x="707" 
d="M537 0v532l-364 -532h-97v667h94v-530l363 530h98v-667h-94z" />
    <glyph glyph-name="afii10027" unicode="&#x419;" horiz-adv-x="707" 
d="M537 0v532l-364 -532h-97v667h94v-530l363 530h98v-667h-94zM279 854q1 -26 20 -46.5t54 -20.5t54.5 20.5t20.5 46.5h74q0 -25 -9.5 -49t-28 -42.5t-46.5 -29.5t-65 -11t-64.5 11t-46 29.5t-28 42.5t-9.5 49h74z" />
    <glyph glyph-name="afii10028" unicode="&#x41a;" horiz-adv-x="618" 
d="M76 0v667h96v-279h69q39 0 62.5 16.5t42.5 48.5l129 214h105l-131 -217q-24 -39 -48 -64.5t-59 -38.5q20 -6 35.5 -15.5t29 -22.5t26 -30.5t26.5 -40.5l146 -238h-112l-138 226q-25 42 -49 59t-62 17h-72v-302h-96z" />
    <glyph glyph-name="afii10029" unicode="&#x41b;" horiz-adv-x="718" 
d="M642 667v-667h-96v581h-231q-6 -132 -20.5 -239.5t-45.5 -184t-81 -118.5t-126 -42h-14v87q53 0 89 34t58.5 105.5t34 181.5t15.5 262h417z" />
    <glyph glyph-name="afii10030" unicode="&#x41c;" horiz-adv-x="787" 
d="M99 667h92l203 -347l203 347h90l31 -667h-94l-22 512l-188 -315h-48l-185 311l-23 -508h-90z" />
    <glyph glyph-name="afii10031" unicode="&#x41d;" horiz-adv-x="709" 
d="M76 667h96v-279h365v279h96v-667h-96v302h-365v-302h-96v667z" />
    <glyph glyph-name="afii10032" unicode="&#x41e;" horiz-adv-x="779" 
d="M389 -17q-72 0 -134 27.5t-108 75t-72 111.5t-26 137t26 136.5t71.5 111t108 75t134.5 27.5t134.5 -27.5t108.5 -75t72 -111t26 -136.5t-26 -137t-72 -111.5t-108.5 -75t-134.5 -27.5zM389 73q55 0 99.5 21t76 57t48.5 83.5t17 100.5q0 54 -17 101.5t-48.5 83.5t-76 56.5
t-99.5 20.5t-99 -20.5t-75.5 -56.5t-48.5 -83.5t-17 -101.5q0 -53 17 -100.5t48.5 -83.5t75.5 -57t99 -21z" />
    <glyph glyph-name="afii10033" unicode="&#x41f;" horiz-adv-x="707" 
d="M630 667v-667h-96v581h-362v-581h-96v667h554z" />
    <glyph glyph-name="afii10034" unicode="&#x420;" horiz-adv-x="560" 
d="M76 667h211q68 0 112.5 -19t71 -48t37 -65t10.5 -70q0 -50 -17 -88t-47 -63.5t-71.5 -38.5t-90.5 -13h-121v-262h-95v667zM291 344q62 0 95.5 31.5t33.5 87.5q0 57 -34.5 89.5t-94.5 32.5h-120v-241h120z" />
    <glyph glyph-name="afii10035" unicode="&#x421;" horiz-adv-x="677" 
d="M642 117q-11 -18 -34 -41t-56 -43.5t-76 -34.5t-95 -14q-74 0 -135 26t-105 72.5t-68.5 110t-24.5 138.5q0 73 24.5 137t68.5 112t105.5 75.5t136.5 27.5q53 0 95 -13t73.5 -32.5t54 -42.5t36.5 -44l-68 -58q-12 17 -28.5 35.5t-39.5 33.5t-53 25t-69 10q-55 0 -98.5 -21
t-74 -57t-46.5 -84t-16 -102t16.5 -101.5t46.5 -82.5t73 -55t96 -20q45 0 77.5 11.5t55 27.5t37 32.5l24.5 27.5z" />
    <glyph glyph-name="afii10036" unicode="&#x422;" horiz-adv-x="629" 
d="M267 583h-239v84h573v-84h-238v-583h-96v583z" />
    <glyph glyph-name="afii10037" unicode="&#x423;" horiz-adv-x="614" 
d="M601 667l-257 -528q-15 -32 -32.5 -60t-39 -49.5t-48.5 -34t-62 -12.5q-36 0 -66.5 12t-53.5 29l42 72q16 -11 34.5 -19.5t42.5 -8.5q18 0 32 6t26.5 19.5t24 34t25.5 49.5l-256 490h105l199 -392l185 392h99z" />
    <glyph glyph-name="afii10038" unicode="&#x424;" horiz-adv-x="805" 
d="M358 705h89v-77q70 -4 127.5 -26.5t97.5 -60.5t62 -89.5t22 -112.5q0 -59 -20.5 -110t-60 -90t-97 -63.5t-131.5 -28.5v-81h-89v81q-71 4 -128 26.5t-97 60.5t-62 89t-22 113q0 59 20.5 110t60 90t97 63t131.5 29v77zM144 338q0 -42 13 -78.5t40 -64t67 -45.5t94 -22v419
q-54 -4 -94 -21.5t-67 -45.5t-40 -64t-13 -78zM661 337q0 42 -13 78.5t-40 64t-67 45.5t-94 22v-419q54 4 94 21.5t67 45.5t40 64t13 78z" />
    <glyph glyph-name="afii10039" unicode="&#x425;" horiz-adv-x="598" 
d="M242 345l-220 322h116l162 -243l160 243h105l-214 -319l237 -348h-115l-179 269l-179 -269h-106z" />
    <glyph glyph-name="afii10040" unicode="&#x426;" horiz-adv-x="717" 
d="M594 0h-518v667h96v-581h357v581h96v-581h56v-240h-87v154z" />
    <glyph glyph-name="afii10041" unicode="&#x427;" horiz-adv-x="616" 
d="M540 667v-667h-96v276q-32 -15 -71.5 -25t-84.5 -10q-44 0 -85 12t-72.5 38.5t-50 69t-18.5 103.5v203h96v-190q0 -83 41.5 -117.5t110.5 -34.5q40 0 75.5 9.5t58.5 23.5v309h96z" />
    <glyph glyph-name="afii10042" unicode="&#x428;" horiz-adv-x="1052" 
d="M76 0v667h96v-581h306v581h96v-581h306v581h96v-667h-900z" />
    <glyph glyph-name="afii10043" unicode="&#x429;" horiz-adv-x="1064" 
d="M941 0h-865v667h96v-581h304v581h96v-581h304v581h96v-581h56v-240h-87v154z" />
    <glyph glyph-name="afii10044" unicode="&#x42a;" horiz-adv-x="682" 
d="M28 667h254v-245h120q114 0 176 -55.5t62 -152.5q0 -41 -13 -79.5t-41.5 -68.5t-75 -48t-113.5 -18h-211v581h-158v86zM282 82h118q66 0 103.5 32t37.5 96q0 63 -37.5 96.5t-103.5 33.5h-118v-258z" />
    <glyph glyph-name="afii10045" unicode="&#x42b;" horiz-adv-x="800" 
d="M724 667v-667h-96v667h96zM172 82h113q66 0 103.5 32t37.5 96q0 63 -37.5 96.5t-103.5 33.5h-113v-258zM172 667v-245h115q114 0 176 -55.5t62 -152.5q0 -41 -13 -79.5t-41.5 -68.5t-75 -48t-113.5 -18h-206v667h96z" />
    <glyph glyph-name="afii10046" unicode="&#x42c;" horiz-adv-x="582" 
d="M172 82h128q66 0 103.5 32t37.5 96q0 63 -37.5 96.5t-103.5 33.5h-128v-258zM172 667v-245h130q114 0 176 -55.5t62 -152.5q0 -41 -13 -79.5t-41.5 -68.5t-75 -48t-113.5 -18h-221v667h96z" />
    <glyph glyph-name="afii10047" unicode="&#x42d;" horiz-adv-x="682" 
d="M192 388h336q-7 45 -24.5 83.5t-46 66t-67 43.5t-86.5 16q-38 0 -68 -9.5t-53.5 -23.5t-41 -31t-30.5 -33l-67 61q14 19 37.5 40.5t56.5 40t75 30.5t95 12q75 0 135 -26.5t102 -73t65 -110t23 -138.5q0 -78 -25 -143t-69 -111.5t-106 -72.5t-135 -26q-55 0 -98.5 13
t-76 32.5t-54.5 41t-34 39.5l66 60q9 -11 24.5 -27.5t39 -31.5t55.5 -26t74 -11q52 0 94 16.5t72 46.5t47.5 72t22.5 93h-338v87z" />
    <glyph glyph-name="afii10048" unicode="&#x42e;" horiz-adv-x="1038" 
d="M661 -17q-66 0 -123 24.5t-100.5 67.5t-70.5 101t-33 126h-162v-302h-96v667h96v-279h164q9 63 37 117t71 94t98.5 62.5t118.5 22.5q69 0 129 -27.5t104.5 -75t69.5 -111t25 -136.5t-25 -137t-69.5 -111.5t-104.5 -75t-129 -27.5zM658 73q53 0 95.5 21t72.5 57t46.5 83.5
t16.5 100.5q0 54 -16.5 101.5t-46.5 83.5t-72.5 56.5t-95.5 20.5t-95.5 -20.5t-72.5 -56.5t-46 -83.5t-16 -101.5q0 -53 16 -100.5t46 -83.5t72.5 -57t95.5 -21z" />
    <glyph glyph-name="afii10049" unicode="&#x42f;" horiz-adv-x="580" 
d="M411 584h-127q-60 0 -93.5 -30.5t-33.5 -84.5q0 -53 31.5 -84t93.5 -31h129v230zM25 0l116 212q19 35 34 52t40 27q-36 6 -65 22t-49.5 40t-31 55t-10.5 66q0 39 13.5 74t42 61.5t72 42t103.5 15.5h214v-667h-93v273h-77q-20 0 -34 -4.5t-26 -15t-23 -26.5t-23 -40
l-98 -187h-105z" />
    <glyph glyph-name="afii10065" unicode="&#x430;" horiz-adv-x="499" 
d="M352 224q-10 2 -40 5t-61 3q-41 0 -66 -9t-38.5 -23t-18.5 -30t-5 -31q0 -41 25.5 -61t67.5 -20q28 0 53 9t43.5 24.5t29 36t10.5 42.5v54zM355 0l-2 57q-19 -26 -45.5 -41t-59.5 -23q-26 -6 -51 -6q-29 0 -57.5 7.5t-52 25t-38 46t-14.5 69.5q0 75 52 120.5t155 45.5
q17 0 34.5 -1t33 -2t26.5 -2t16 -2v17q0 54 -31 76.5t-87 22.5q-52 0 -83 -14.5t-52 -29.5l-42 61q22 19 68 38.5t116 19.5q95 0 146 -44t51 -125v-223v-51t1 -42h-84z" />
    <glyph glyph-name="afii10066" unicode="&#x431;" horiz-adv-x="575" 
d="M297 64q33 0 60 12t46 33.5t29.5 50t10.5 61.5q0 32 -10 60t-29 48.5t-46 32t-61 11.5t-61 -12t-46 -33t-29 -48.5t-10 -58.5q0 -32 10.5 -60.5t29.5 -50t46 -34t60 -12.5zM316 451q48 0 88.5 -17.5t69.5 -48.5t45 -72.5t16 -90.5q0 -50 -17 -93.5t-48 -75t-74.5 -49.5
t-96.5 -18q-43 0 -86 14t-77.5 49.5t-56.5 95t-22 151.5q0 326 308 357l117 12l11 -77l-119 -13q-59 -6 -101 -21.5t-70 -41t-43 -63t-19 -88.5q29 45 75 67.5t100 22.5z" />
    <glyph glyph-name="afii10067" unicode="&#x432;" horiz-adv-x="516" 
d="M61 471h246q74 0 111 -33.5t37 -84.5q0 -41 -21.5 -68.5t-53.5 -37.5q39 -9 68 -36.5t29 -81.5q0 -35 -13 -59t-35.5 -40t-52 -23t-61.5 -7h-254v471zM148 274h139q36 0 57.5 16t21.5 50t-21 47.5t-52 13.5h-145v-127zM148 70h155q16 0 31 3t27 10.5t19 20.5t7 34
t-8 34.5t-23 21t-36 10t-46 2.5h-126v-136z" />
    <glyph glyph-name="afii10068" unicode="&#x433;" horiz-adv-x="411" 
d="M151 390v-390h-90v471h320v-81h-230z" />
    <glyph glyph-name="afii10069" unicode="&#x434;" horiz-adv-x="574" 
d="M409 394h-164q-4 -57 -11 -103.5t-17.5 -84.5t-24.5 -70t-33 -60h250v318zM496 76h50v-200h-81v124h-369v-124h-81v200h48q27 36 46 76.5t31 88.5t19 105t10 125h327v-395z" />
    <glyph glyph-name="afii10070" unicode="&#x435;" horiz-adv-x="536" 
d="M288 63q27 0 50.5 6t42.5 15t32.5 19t21.5 19l51 -54q-9 -10 -26 -24t-42.5 -27t-58.5 -22t-74 -9q-56 0 -101 18t-77.5 51t-50 79t-17.5 101q0 54 17 100t48 79.5t74.5 52t95.5 18.5q58 0 100.5 -23t70 -61.5t40.5 -88t13 -102.5h-370q8 -64 48.5 -105.5t111.5 -41.5z
M405 277q-2 27 -11.5 51t-26.5 42t-41.5 28.5t-56.5 10.5q-33 0 -57.5 -11t-41.5 -29t-27 -42t-14 -50h276z" />
    <glyph glyph-name="afii10072" unicode="&#x436;" horiz-adv-x="714" 
d="M400 0h-86v200h-48q-32 0 -47 -13.5t-31 -41.5l-84 -145h-95l103 172q18 30 34 46t39 24q-25 11 -41.5 28t-33.5 46l-87 155h93l74 -129q19 -33 36 -48t46 -15h42v192h86v-192h46q29 0 46 15t36 48l74 129h89l-87 -155q-14 -26 -30 -44t-45 -30q23 -8 39 -24t34 -46
l103 -172h-98l-85 145q-16 27 -31 41t-47 14h-44v-200z" />
    <glyph glyph-name="afii10073" unicode="&#x437;" horiz-adv-x="456" 
d="M129 275h71q22 0 43 2t37.5 9t26.5 20.5t10 35.5q0 37 -27.5 52.5t-70.5 15.5q-46 0 -79 -15.5t-59 -42.5l-50 51q29 35 79.5 57.5t116.5 22.5q82 0 130 -36t48 -96q0 -38 -21.5 -68.5t-61.5 -41.5q38 -8 66.5 -37t28.5 -79q0 -35 -15 -60.5t-41 -43t-60.5 -26
t-74.5 -8.5q-66 0 -119.5 21.5t-85.5 56.5l49 53q26 -26 63.5 -41.5t85.5 -15.5q47 0 78 16.5t31 57.5q0 22 -10 36t-27.5 21t-41 9.5t-50.5 2.5h-70v71z" />
    <glyph glyph-name="afii10074" unicode="&#x438;" horiz-adv-x="550" 
d="M148 122l258 349h83v-471h-87v353l-261 -353h-80v471h87v-349z" />
    <glyph glyph-name="afii10075" unicode="&#x439;" horiz-adv-x="550" 
d="M148 122l258 349h83v-471h-87v353l-261 -353h-80v471h87v-349zM275 544q-35 0 -61.5 11t-44 29t-26.5 41.5t-9 47.5h71q0 -26 17 -46.5t53 -20.5t53 20.5t17 46.5h71q0 -24 -9 -47.5t-26.5 -41.5t-44 -29t-61.5 -11z" />
    <glyph glyph-name="afii10076" unicode="&#x43a;" horiz-adv-x="499" 
d="M150 0h-89v471h89v-192h67q29 0 45.5 14.5t33.5 41.5l86 136h93l-95 -155q-17 -27 -35 -45.5t-44 -28.5q24 -7 41.5 -23t35.5 -45l112 -174h-103l-98 154q-13 20 -28 33t-47 13h-64v-200z" />
    <glyph glyph-name="afii10077" unicode="&#x43b;" horiz-adv-x="573" 
d="M512 471v-471h-90v390h-166q-5 -91 -17.5 -163.5t-36.5 -123.5t-61 -78t-91 -27h-10t-10 1v79h5q42 0 67.5 28t40.5 80t22 124t11 161h336z" />
    <glyph glyph-name="afii10078" unicode="&#x43c;" horiz-adv-x="622" 
d="M78 471h83l150 -250l153 250h80l23 -471h-86l-14 342l-133 -217h-48l-132 216l-15 -341h-84z" />
    <glyph glyph-name="afii10079" unicode="&#x43d;" horiz-adv-x="552" 
d="M491 0h-90v200h-250v-200h-90v471h90v-193h250v193h90v-471z" />
    <glyph glyph-name="afii10080" unicode="&#x43e;" horiz-adv-x="572" 
d="M286 -14q-54 0 -99 20t-77.5 54t-51 79.5t-18.5 96.5t18.5 96.5t51 79.5t77.5 54t99 20q53 0 98 -20t78 -54t51.5 -79.5t18.5 -96.5t-18.5 -96.5t-51.5 -79.5t-78 -54t-98 -20zM286 64q36 0 65 14.5t49 38.5t30.5 55t10.5 64q0 32 -10.5 63t-31 55t-49 39t-64.5 15
t-65 -14.5t-49 -38.5t-30.5 -55t-10.5 -64q0 -32 10.5 -63t31 -55t49 -39t64.5 -15z" />
    <glyph glyph-name="afii10081" unicode="&#x43f;" horiz-adv-x="546" 
d="M485 0h-90v390h-244v-390h-90v471h424v-471z" />
    <glyph glyph-name="afii10082" unicode="&#x440;" horiz-adv-x="558" 
d="M62 -200v569v54t-1 48h86l3 -66q9 12 22 26t32.5 26t46 20.5t60.5 8.5q52 0 91 -20.5t64.5 -55t38.5 -79t13 -93.5q0 -65 -21 -112.5t-55.5 -78.5t-78 -46t-88.5 -15q-42 0 -71.5 9.5t-52.5 20.5v-216h-89zM151 101q14 -12 45 -24.5t72 -12.5q72 0 115 47.5t43 128.5
q0 32 -7.5 62t-24 53.5t-42 38t-62.5 14.5q-41 0 -68 -16.5t-42.5 -41.5t-22 -54t-6.5 -54v-141z" />
    <glyph glyph-name="afii10083" unicode="&#x441;" horiz-adv-x="493" 
d="M466 64q-31 -35 -76.5 -56.5t-105.5 -21.5q-56 0 -101.5 18.5t-77 51.5t-48.5 78t-17 98q0 54 18 100.5t50.5 80.5t78 53.5t99.5 19.5q57 0 102 -21t77 -57l-59 -57q-21 26 -51 41t-68 15t-67 -14t-48.5 -37.5t-30 -54t-10.5 -64.5q0 -33 10 -64t30 -55t48.5 -38.5
t66.5 -14.5q39 0 71.5 15.5t53.5 41.5z" />
    <glyph glyph-name="afii10084" unicode="&#x442;" horiz-adv-x="482" 
d="M196 390h-166v81h422v-81h-166v-390h-90v390z" />
    <glyph glyph-name="afii10085" unicode="&#x443;" horiz-adv-x="503" 
d="M65 -114q10 -9 23 -16t31 -7q16 0 27 6.5t20.5 20t18.5 34.5l21 50l12 30l-208 467h103l150 -357l132 357h98l-211 -522q-16 -39 -30 -69t-31.5 -50.5t-40.5 -31t-57 -10.5q-33 0 -57 9.5t-42 25.5z" />
    <glyph glyph-name="afii10086" unicode="&#x444;" horiz-adv-x="696" 
d="M389 667v-190q65 -4 115 -24.5t83.5 -52.5t51 -74.5t17.5 -90.5q0 -49 -17.5 -92t-51 -75.5t-83.5 -53t-115 -23.5v-191h-82v191q-65 4 -115 24t-84 52.5t-51 75t-17 90.5q0 49 17.5 92t51 75.5t83.5 53t115 23.5v190h82zM568 234q0 34 -10.5 63.5t-32.5 52t-56 37
t-80 17.5v-340q94 8 136.5 54.5t42.5 115.5zM307 404q-94 -8 -136.5 -54.5t-42.5 -115.5q0 -34 10.5 -63.5t32.5 -52t55.5 -37t80.5 -17.5v340z" />
    <glyph glyph-name="afii10087" unicode="&#x445;" horiz-adv-x="494" 
d="M192 243l-167 228h112l112 -157l110 157h100l-162 -221l185 -250h-113l-129 179l-127 -179h-101z" />
    <glyph glyph-name="afii10088" unicode="&#x446;" horiz-adv-x="554" 
d="M526 -124h-81v124h-384v471h90v-390h235v390h90v-390h50v-205z" />
    <glyph glyph-name="afii10089" unicode="&#x447;" horiz-adv-x="509" 
d="M448 0h-90v181q-23 -11 -54.5 -18.5t-66.5 -7.5q-40 0 -75 11t-60.5 34.5t-40 60t-14.5 87.5v123h90v-114q0 -69 31.5 -97t86.5 -28q32 0 58 7t45 18v214h90v-471z" />
    <glyph glyph-name="afii10090" unicode="&#x448;" horiz-adv-x="825" 
d="M61 471h90v-390h217v390h90v-390h216v390h90v-471h-703v471z" />
    <glyph glyph-name="afii10091" unicode="&#x449;" horiz-adv-x="832" 
d="M804 -124h-81v124h-662v471h90v-390h212v390h90v-390h211v390h90v-390h50v-205z" />
    <glyph glyph-name="afii10092" unicode="&#x44a;" horiz-adv-x="576" 
d="M244 471v-157h128q80 0 126.5 -42t46.5 -114q0 -73 -48 -115.5t-127 -42.5h-216v390h-124v81h214zM244 71h115q50 0 74 22t24 63q0 85 -98 85h-115v-170z" />
    <glyph glyph-name="afii10093" unicode="&#x44b;" horiz-adv-x="686" 
d="M151 71h114q50 0 74 22.5t24 61.5q0 87 -98 87h-114v-171zM151 471v-158h128q79 0 126 -41.5t47 -113.5q0 -73 -48 -115.5t-128 -42.5h-215v471h90zM625 0h-90v471h90v-471z" />
    <glyph glyph-name="afii10094" unicode="&#x44c;" horiz-adv-x="488" 
d="M151 71h120q50 0 74 22t24 63q0 42 -25 64t-73 22h-120v-171zM151 471v-158h134q80 0 126 -41.5t46 -113.5q0 -37 -12.5 -66t-36 -49.5t-55.5 -31.5t-71 -11h-221v471h90z" />
    <glyph glyph-name="afii10095" unicode="&#x44d;" horiz-adv-x="500" 
d="M153 276h215q-10 57 -46.5 94.5t-100.5 37.5q-42 0 -74.5 -16t-57.5 -43l-55 56q32 37 82 59t108 22q52 0 95.5 -19t75 -52t48.5 -78.5t17 -99.5t-17.5 -100t-49.5 -79t-76.5 -52t-99.5 -19q-65 0 -114 23.5t-76 56.5l56 55q26 -27 58.5 -42.5t74.5 -15.5q60 0 101 35.5
t51 101.5h-215v75z" />
    <glyph glyph-name="afii10096" unicode="&#x44e;" horiz-adv-x="778" 
d="M500 -14q-47 0 -87.5 16.5t-71.5 45t-50.5 68t-25.5 84.5h-114v-200h-90v471h90v-193h115q7 44 27 82t50.5 66t70 44t86.5 16q51 0 95 -20t75.5 -54t49.5 -79.5t18 -96.5t-18 -96.5t-49.5 -79.5t-75.5 -54t-95 -20zM499 64q34 0 61.5 14.5t46.5 38.5t29.5 55t10.5 63
t-10.5 63t-29.5 55.5t-47 39.5t-62 15t-61.5 -14.5t-46.5 -38.5t-29 -55t-10 -63t10 -63t29.5 -55.5t46.5 -39.5t62 -15z" />
    <glyph glyph-name="afii10097" unicode="&#x44f;" horiz-adv-x="501" 
d="M352 400h-119q-92 0 -92 -80q0 -78 86 -78h125v158zM352 0v171h-91q-29 0 -45 -12t-30 -38l-64 -121h-96l78 137q13 22 26 36t31 21q-21 3 -41 13.5t-35 27.5t-24.5 40.5t-9.5 52.5q0 33 12.5 59.5t34.5 45t52.5 28.5t66.5 10h223v-471h-88z" />
    <glyph glyph-name="uni0450" unicode="&#x450;" horiz-adv-x="536" 
d="M288 63q27 0 50.5 6t42.5 15t32.5 19t21.5 19l51 -54q-9 -10 -26 -24t-42.5 -27t-58.5 -22t-74 -9q-56 0 -101 18t-77.5 51t-50 79t-17.5 101q0 54 17 100t48 79.5t74.5 52t95.5 18.5q58 0 100.5 -23t70 -61.5t40.5 -88t13 -102.5h-370q8 -64 48.5 -105.5t111.5 -41.5z
M405 277q-2 27 -11.5 51t-26.5 42t-41.5 28.5t-56.5 10.5q-33 0 -57.5 -11t-41.5 -29t-27 -42t-14 -50h276zM174 683h100l53 -136h-75z" />
    <glyph glyph-name="afii10071" unicode="&#x451;" horiz-adv-x="536" 
d="M288 63q27 0 50.5 6t42.5 15t32.5 19t21.5 19l51 -54q-9 -10 -26 -24t-42.5 -27t-58.5 -22t-74 -9q-56 0 -101 18t-77.5 51t-50 79t-17.5 101q0 54 17 100t48 79.5t74.5 52t95.5 18.5q58 0 100.5 -23t70 -61.5t40.5 -88t13 -102.5h-370q8 -64 48.5 -105.5t111.5 -41.5z
M405 277q-2 27 -11.5 51t-26.5 42t-41.5 28.5t-56.5 10.5q-33 0 -57.5 -11t-41.5 -29t-27 -42t-14 -50h276zM306 657h93v-91h-93v91zM135 657h94v-91h-94v91z" />
    <glyph glyph-name="afii10099" unicode="&#x452;" horiz-adv-x="539" 
d="M-4 529v63h65v75h90v-75h173v-63h-173v-143q9 13 23 27t32.5 25t43 18.5t54.5 7.5q52 0 88 -22t59 -59.5t33.5 -89t10.5 -109.5q0 -123 -40 -220t-107 -169l-68 52q60 69 91.5 149t31.5 187q0 94 -27.5 148.5t-92.5 54.5q-32 0 -56.5 -13t-41.5 -35.5t-25.5 -52
t-8.5 -62.5v-223h-90v529h-65z" />
    <glyph glyph-name="afii10100" unicode="&#x453;" horiz-adv-x="411" 
d="M151 390v-390h-90v471h320v-81h-230zM238 682h98l-77 -136h-75z" />
    <glyph glyph-name="afii10101" unicode="&#x454;" horiz-adv-x="497" 
d="M287 408q-63 0 -103.5 -36.5t-51.5 -94.5h215v-76h-217q5 -29 17.5 -54t32 -43.5t46.5 -29t61 -10.5q44 0 76 17t52 40l55 -54q-27 -33 -74 -56.5t-110 -23.5q-54 0 -99 18.5t-77.5 51.5t-51 78.5t-18.5 99.5q0 53 18 99t50.5 79.5t78 53t100.5 19.5q60 0 105 -22t75 -58
l-57 -53q-19 22 -49.5 38.5t-73.5 16.5z" />
    <glyph glyph-name="afii10102" unicode="&#x455;" horiz-adv-x="472" 
d="M92 117q25 -25 60 -40t83 -15q44 0 73.5 14.5t29.5 49.5q0 17 -8.5 28.5t-25 20.5t-41.5 16t-58 15q-27 7 -53.5 17t-47.5 26t-34 39.5t-13 56.5q0 34 15 60.5t41 44.5t60 27t73 9q51 0 94.5 -15t75.5 -44l-49 -62q-21 19 -52 32t-75 13q-43 0 -68.5 -14.5t-25.5 -44.5
q0 -17 9 -28.5t25 -19.5t39 -14.5t52 -13.5q33 -8 61.5 -19t50 -27.5t34 -40t12.5 -56.5q0 -36 -15.5 -63.5t-42.5 -45.5t-63.5 -27.5t-78.5 -9.5q-61 0 -111 18.5t-81 52.5z" />
    <glyph glyph-name="afii10103" unicode="&#x456;" horiz-adv-x="212" 
d="M55 655h101v-101h-101v101zM61 471h90v-471h-90v471z" />
    <glyph glyph-name="afii10104" unicode="&#x457;" horiz-adv-x="212" 
d="M148 657h93v-91h-93v91zM-23 657h94v-91h-94v91zM61 471h90v-471h-90v471z" />
    <glyph glyph-name="afii10105" unicode="&#x458;" horiz-adv-x="222" 
d="M-53 -101q12 -9 25.5 -15t32.5 -6q35 0 48 33.5t13 107.5v452h90v-477q0 -38 -5.5 -73t-20.5 -62t-43 -43t-73 -16q-37 0 -62.5 12t-41.5 25zM60 655h101v-101h-101v101z" />
    <glyph glyph-name="afii10106" unicode="&#x459;" horiz-adv-x="832" 
d="M503 471v-158h126q80 0 126 -41.5t46 -113.5q0 -37 -12.5 -66t-36 -49.5t-55.5 -31.5t-71 -11h-213v390h-157q-5 -91 -17.5 -163.5t-36.5 -123.5t-61 -78t-91 -27h-10t-10 1v79h5q42 0 67.5 28t40.5 80t22 124t11 161h327zM503 71h112q50 0 74 22t24 63q0 42 -25 64
t-73 22h-112v-171z" />
    <glyph glyph-name="afii10107" unicode="&#x45a;" horiz-adv-x="811" 
d="M482 471v-173h134q76 0 120 -39.5t44 -108.5q0 -35 -12 -62.5t-34 -47t-53 -30t-68 -10.5h-221v220h-241v-220h-90v471h90v-173h241v173h90zM482 71h121q45 0 67 20t22 58t-22.5 58t-66.5 20h-121v-156z" />
    <glyph glyph-name="afii10108" unicode="&#x45b;" horiz-adv-x="541" 
d="M61 532h-65v63h65v72h90v-72h173v-63h-173v-140q9 12 22 25.5t32 25.5t43 19.5t56 7.5q91 0 134.5 -53t43.5 -144v-273h-90v266q0 66 -27.5 96t-78.5 30q-39 0 -64.5 -16t-41.5 -41.5t-22.5 -58t-6.5 -66.5v-210h-90v532z" />
    <glyph glyph-name="afii10109" unicode="&#x45c;" horiz-adv-x="499" 
d="M150 0h-89v471h89v-192h67q29 0 45.5 14.5t33.5 41.5l86 136h93l-95 -155q-17 -27 -35 -45.5t-44 -28.5q24 -7 41.5 -23t35.5 -45l112 -174h-103l-98 154q-13 20 -28 33t-47 13h-64v-200zM269 682h98l-77 -136h-75z" />
    <glyph glyph-name="uni045D" unicode="&#x45d;" horiz-adv-x="550" 
d="M148 122l258 349h83v-471h-87v353l-261 -353h-80v471h87v-349zM165 683h100l53 -136h-75z" />
    <glyph glyph-name="afii10110" unicode="&#x45e;" horiz-adv-x="503" 
d="M65 -114q10 -9 23 -16t31 -7q16 0 27 6.5t20.5 20t18.5 34.5l21 50l12 30l-208 467h103l150 -357l132 357h98l-211 -522q-16 -39 -30 -69t-31.5 -50.5t-40.5 -31t-57 -10.5q-33 0 -57 9.5t-42 25.5zM266 550q-35 0 -61.5 11t-44 29t-26.5 41.5t-9 47.5h71q0 -26 17 -46.5
t53 -20.5t53 20.5t17 46.5h71q0 -24 -9 -47.5t-26.5 -41.5t-44 -29t-61.5 -11z" />
    <glyph glyph-name="afii10193" unicode="&#x45f;" horiz-adv-x="544" 
d="M61 471h90v-390h242v390h90v-471h-170v-124h-81v124h-171v471z" />
    <glyph glyph-name="afii10066.locl" horiz-adv-x="554" 
d="M40 213q0 41 13 77t36 64.5t54.5 48t67.5 28.5q-33 18 -58.5 47t-25.5 71q0 57 41.5 87.5t113.5 30.5h156v-74h-168q-27 0 -43.5 -11t-16.5 -33q0 -25 22.5 -42.5t56.5 -33.5l73 -35t73 -46.5t56.5 -68t22.5 -100.5q0 -53 -18.5 -96.5t-50.5 -75t-75.5 -48.5t-93.5 -17
t-93.5 17t-75 47.5t-49.5 72t-18 90.5zM422 222q0 37 -12 64.5t-32 47.5t-45.5 35t-52.5 28q-70 -18 -109.5 -64t-39.5 -111q0 -35 11 -64t30.5 -50t46.5 -32.5t58 -11.5q30 0 56.5 11.5t46 32t31 49.5t11.5 65z" />
    <glyph glyph-name="uni0462" unicode="&#x462;" horiz-adv-x="733" 
d="M323 711v-96h247v-83h-247v-125h130q114 0 176 -53.5t62 -147.5q0 -39 -13 -76.5t-41.5 -66t-75 -46t-113.5 -17.5h-221v532h-199v83h199v96h96zM323 82h128q66 0 103.5 30t37.5 91q0 60 -37.5 91t-103.5 31h-128v-243z" />
    <glyph glyph-name="uni0463" unicode="&#x463;" horiz-adv-x="603" 
d="M264 654v-183h171v-78h-171v-93h143q77 0 121 -40t44 -109q0 -70 -46.5 -110.5t-121.5 -40.5h-230v393h-146v78h146v183h90zM264 70h128q46 0 68.5 20.5t22.5 58.5t-23 59t-68 21h-128v-159z" />
    <glyph glyph-name="uni0472" unicode="&#x472;" horiz-adv-x="779" 
d="M389 -17q-72 0 -134 27.5t-108 75t-72 111.5t-26 137t26 136.5t71.5 111t108 75t134.5 27.5t134.5 -27.5t108.5 -75t72 -111t26 -136.5t-26 -137t-72 -111.5t-108.5 -75t-134.5 -27.5zM389 70q52 0 94.5 18.5t74 50t50 74t23.5 91.5h-484q5 -49 24 -91.5t50.5 -74t74 -50
t93.5 -18.5zM389 600q-50 0 -91 -17t-72 -46.5t-50.5 -70t-26.5 -86.5h480q-6 46 -26 86.5t-50.5 70t-72 46.5t-91.5 17z" />
    <glyph glyph-name="uni0473" unicode="&#x473;" horiz-adv-x="569" 
d="M284 -14q-53 0 -98 20t-77.5 54t-50.5 79.5t-18 96.5t18 96.5t50.5 79.5t77.5 54t98 20t98 -20t77.5 -54t51 -79.5t18.5 -96.5t-18.5 -96.5t-51 -79.5t-77.5 -54t-98 -20zM284 60q33 0 60.5 11.5t47.5 31.5t33 46t18 55h-317q5 -29 18 -55t33 -45.5t47 -31.5t60 -12z
M284 412q-33 0 -59.5 -11.5t-47 -30.5t-33.5 -44.5t-18 -53.5h316q-5 28 -18 53t-33.5 44.5t-47 31t-59.5 11.5z" />
    <glyph glyph-name="uni0474" unicode="&#x474;" horiz-adv-x="716" 
d="M13 667h107l202 -545l144 397q27 75 68.5 114t111.5 39q19 0 42 -3v-86h-20q-28 0 -47 -7t-32 -20t-22.5 -32t-18.5 -43l-179 -481h-98z" />
    <glyph glyph-name="uni0475" unicode="&#x475;" horiz-adv-x="563" 
d="M210 0l-200 472h104l143 -366l91 239q13 34 27.5 58.5t32.5 40.5t41 23.5t55 7.5h14t15 -1v-80h-18q-32 0 -50 -15.5t-32 -51.5l-133 -327h-90z" />
    <glyph glyph-name="uni048A" unicode="&#x48a;" horiz-adv-x="723" 
d="M537 0v532l-364 -532h-97v667h94v-530l363 530h98v-578h56v-48q0 -69 -29.5 -126t-81.5 -95l-52 58q32 23 53.5 56t26.5 66h-67zM279 854q1 -26 20 -46.5t54 -20.5t54.5 20.5t20.5 46.5h74q0 -26 -9.5 -49.5t-28 -42t-46.5 -29.5t-65 -11t-64.5 11t-46 29.5t-28 42
t-9.5 49.5h74z" />
    <glyph glyph-name="uni048B" unicode="&#x48b;" horiz-adv-x="568" 
d="M149 122l258 349h83v-393h50v-39q0 -61 -24.5 -106.5t-69.5 -79.5l-49 52q26 21 42 43.5t23 51.5h-59v353l-261 -353h-80v471h87v-349zM276 544q-35 0 -61.5 11t-44 29t-26.5 41.5t-9 47.5h71q0 -26 17 -46.5t53 -20.5t53 20.5t17 46.5h71q0 -24 -9 -47.5t-26.5 -41.5
t-44 -29t-61.5 -11z" />
    <glyph glyph-name="uni048C" unicode="&#x48c;" horiz-adv-x="590" 
d="M180 667v-83h164v-76h-164v-94h130q114 0 176 -54.5t62 -149.5q0 -40 -13 -78t-41.5 -67t-75 -47t-113.5 -18h-221v508h-73v76h73v83h96zM180 82h128q66 0 103.5 31t37.5 93q0 61 -37.5 93.5t-103.5 32.5h-128v-250z" />
    <glyph glyph-name="uni048D" unicode="&#x48d;" horiz-adv-x="504" 
d="M165 487v-61h167v-61h-167v-67h144q76 0 120 -39.5t44 -108.5q0 -35 -12 -62.5t-34 -47t-53 -30t-68 -10.5h-231v365h-65v61h65v61h90zM165 70h128q46 0 68.5 20.5t22.5 58.5t-23 58.5t-68 20.5h-128v-158z" />
    <glyph glyph-name="uni048E" unicode="&#x48e;" horiz-adv-x="560" 
d="M76 667h211q68 0 112.5 -19t71 -48.5t37 -66t10.5 -70.5q0 -66 -28.5 -111.5t-77.5 -69.5l48 -80l-55 -32l-55 93q-14 -2 -28.5 -3.5t-29.5 -1.5h-121v-258h-95v667zM310 456l58 -100q52 31 52 104q0 59 -34.5 92t-94.5 33h-120v-247h120q10 0 15 1l-50 85z" />
    <glyph glyph-name="uni048F" unicode="&#x48f;" horiz-adv-x="558" 
d="M62 -200v569v54t-1 48h86l3 -66q9 12 22 26t32.5 26t46 20.5t60.5 8.5q52 0 91 -20.5t64.5 -55t38.5 -79t13 -93.5q0 -76 -28 -128t-72 -82l43 -71l-52 -31l-44 75q-44 -15 -90 -15q-42 0 -71.5 9.5t-52.5 20.5v-216h-89zM314 206l62 -106q50 48 50 138q0 32 -7.5 62.5
t-24 54.5t-42 38.5t-62.5 14.5q-41 0 -68 -16.5t-42.5 -41.5t-22 -54t-6.5 -54v-141q14 -14 45 -28t72 -14q31 0 57 9l-62 107z" />
    <glyph glyph-name="afii10050" unicode="&#x490;" horiz-adv-x="531" 
d="M416 667v134h87v-220h-331v-581h-96v667h340z" />
    <glyph glyph-name="afii10098" unicode="&#x491;" horiz-adv-x="416" 
d="M386 390h-235v-390h-90v471h243v101h82v-182z" />
    <glyph glyph-name="uni0492" unicode="&#x492;" horiz-adv-x="531" 
d="M11 343h72v324h420v-86h-324v-238h177v-79h-177v-264h-96v264h-72v79z" />
    <glyph glyph-name="uni0493" unicode="&#x493;" horiz-adv-x="425" 
d="M10 242h65v229h320v-81h-230v-148h132v-64h-132v-178h-90v178h-65v64z" />
    <glyph glyph-name="uni0494" unicode="&#x494;" horiz-adv-x="651" 
d="M508 667v-86h-336v-191q29 13 65.5 22.5t83.5 9.5q67 0 120 -23t89.5 -64t55.5 -97t19 -123q0 -73 -22 -133t-61.5 -103t-94 -67t-118.5 -24q-50 0 -102 16l22 82q39 -11 77 -11q42 0 78.5 15.5t63 45.5t42 74.5t15.5 102.5q0 109 -52.5 167t-143.5 58q-37 0 -73.5 -8.5
t-63.5 -21.5v-308h-96v667h432z" />
    <glyph glyph-name="uni0495" unicode="&#x495;" horiz-adv-x="516" 
d="M151 390v-132q24 12 51 19.5t60 7.5q51 0 92.5 -18.5t71 -50.5t45.5 -75.5t16 -94.5q0 -54 -18 -99t-49.5 -77.5t-74 -50.5t-91.5 -18q-20 0 -41.5 3t-43.5 11l20 73q30 -9 59 -9q64 0 105.5 44t41.5 123q0 75 -39 119.5t-108 44.5q-26 0 -50.5 -6.5t-46.5 -17.5v-186
h-90v471h355v-81h-265z" />
    <glyph glyph-name="uni0496" unicode="&#x496;" horiz-adv-x="921" 
d="M487 667v-279h60q33 0 55.5 17t40.5 55l99 207h102l-116 -234q-16 -32 -37.5 -53t-47.5 -32q28 -9 50 -28.5t45 -63.5l87 -170h60v-240h-87v154h-38l-111 224q-20 42 -42.5 60t-54.5 18h-65v-302h-92v302h-68q-36 0 -59 -22.5t-48 -74.5l-101 -205h-106l131 256
q22 44 44.5 63.5t50.5 27.5q-26 12 -48 34t-37 52l-116 234h103l100 -207q18 -38 40.5 -55t55.5 -17h58v279h92z" />
    <glyph glyph-name="uni0497" unicode="&#x497;" horiz-adv-x="744" 
d="M398 0h-86v200h-46q-32 0 -47 -13.5t-31 -41.5l-84 -145h-95l103 172q18 30 34 46t39 24q-25 11 -41.5 28t-33.5 46l-87 155h93l74 -129q19 -33 36 -48t46 -15h40v192h86v-192h44q29 0 46 15t36 48l74 129h89l-87 -155q-14 -26 -30 -44t-45 -30q23 -8 39 -24t34 -46
l56 -94h62v-202h-81v124h-32l-85 145q-16 27 -31 41t-47 14h-42v-200z" />
    <glyph glyph-name="uni0498" unicode="&#x498;" horiz-adv-x="557" 
d="M178 387h96q25 0 47 6t39 19t27 33t10 48q0 29 -10.5 49t-28 32.5t-39.5 18t-45 5.5q-32 0 -57 -9t-43.5 -23t-32.5 -30t-24 -29l-67 50q13 20 32.5 42t48 41t66 31t85.5 12q51 0 90.5 -14.5t66 -38.5t40 -56.5t13.5 -68.5q0 -56 -30.5 -99.5t-84.5 -56.5
q27 -6 51.5 -19.5t43 -34.5t29.5 -50t11 -67q0 -50 -18.5 -86.5t-50.5 -60.5t-74 -35.5t-90 -11.5q-53 0 -94 13t-71.5 32t-51 41t-32.5 40l69 51q9 -12 23 -28t35 -30t50 -24t67 -10q28 0 53.5 6.5t45 20.5t31 37.5t11.5 56.5t-11.5 55t-30 35t-42.5 18.5t-49 5.5h-104v83z
M189 -149q17 -6 35.5 -10t38.5 -4q63 0 63 38q0 14 -13.5 22.5t-42.5 8.5q-37 0 -71 -12q3 14 5.5 28.5t4.5 28.5q18 5 37 9t49 4q54 0 82 -26t28 -61q0 -24 -10.5 -42.5t-28.5 -30.5t-41 -18.5t-48 -6.5q-43 0 -68.5 6.5t-30.5 8.5l6 28.5t5 28.5z" />
    <glyph glyph-name="uni0499" unicode="&#x499;" horiz-adv-x="456" 
d="M129 275h71q22 0 43 2t37.5 9t26.5 20.5t10 35.5q0 37 -27.5 52.5t-70.5 15.5q-46 0 -79 -15.5t-59 -42.5l-50 51q29 35 79.5 57.5t116.5 22.5q82 0 130 -36t48 -96q0 -38 -21.5 -68.5t-61.5 -41.5q38 -8 66.5 -37t28.5 -79q0 -35 -15 -60.5t-41 -43t-60.5 -26
t-74.5 -8.5q-66 0 -119.5 21.5t-85.5 56.5l49 53q26 -26 63.5 -41.5t85.5 -15.5q47 0 78 16.5t31 57.5q0 22 -10 36t-27.5 21t-41 9.5t-50.5 2.5h-70v71zM131 -152q17 -6 35 -10t37 -4q32 0 48.5 10.5t16.5 28.5q0 14 -13.5 24.5t-44.5 10.5q-18 0 -35 -3.5t-34 -9.5l9 55
q16 5 34 9t50 4q53 0 80 -26t27 -61q0 -24 -10 -42t-27.5 -30.5t-40 -18.5t-47.5 -6q-43 0 -67 6.5t-29 8.5z" />
    <glyph glyph-name="uni049A" unicode="&#x49a;" horiz-adv-x="644" 
d="M76 0v667h96v-279h66q39 0 62.5 16.5t42.5 48.5l129 214h105l-131 -217q-24 -39 -48 -64.5t-59 -38.5q20 -6 35.5 -15.5t29 -22.5t26 -30.5t26.5 -40.5l93 -152h59v-240h-87v154h-31l-138 226q-25 42 -49 59t-62 17h-69v-302h-96z" />
    <glyph glyph-name="uni049B" unicode="&#x49b;" horiz-adv-x="527" 
d="M150 0h-89v471h89v-192h67q29 0 45.5 14.5t33.5 41.5l86 136h93l-95 -155q-17 -27 -35 -45.5t-44 -28.5q24 -7 41.5 -23t35.5 -45l62 -96h59v-202h-81v124h-31l-98 154q-13 20 -28 33t-47 13h-64v-200z" />
    <glyph glyph-name="uni049C" unicode="&#x49c;" horiz-adv-x="638" 
d="M76 0v667h94v-281h63v123h61v-122q25 3 42 17t37 49l124 214h103l-126 -217q-23 -40 -47.5 -65t-59.5 -38q40 -13 65 -38t52 -71l141 -238h-110l-133 226q-23 38 -42.5 55t-45.5 21v-127h-61v129h-63v-304h-94z" />
    <glyph glyph-name="uni049D" unicode="&#x49d;" horiz-adv-x="519" 
d="M147 0h-86v471h86v-192h60v100h57v-100q20 2 34 14.5t31 41.5l76 136h90l-85 -155q-30 -55 -79 -74q24 -7 42 -23t35 -45l102 -174h-100l-88 154q-14 23 -25.5 33t-32.5 12v-100h-57v101h-60v-200z" />
    <glyph glyph-name="uni049E" unicode="&#x49e;" horiz-adv-x="625" 
d="M83 0v506h-72v79h72v82h96v-82h92v-79h-92v-123h69q39 0 62.5 16.5t42.5 48.5l129 219h105l-131 -222q-23 -40 -47.5 -65t-59.5 -38q20 -6 35.5 -15.5t29 -23t26 -31t26.5 -39.5l146 -233h-112l-138 221q-26 41 -49.5 58.5t-61.5 17.5h-72v-297h-96z" />
    <glyph glyph-name="uni049F" unicode="&#x49f;" horiz-adv-x="512" 
d="M164 0h-89v353h-65v63h65v55h89v-55h58v-63h-58v-79h67q29 0 45.5 15t33.5 42l86 140h93l-95 -158q-17 -28 -35 -47t-44 -29q24 -7 41 -22.5t36 -44.5l112 -170h-103l-98 150q-13 20 -28 32.5t-47 12.5h-64v-195z" />
    <glyph glyph-name="uni04A0" unicode="&#x4a0;" horiz-adv-x="717" 
d="M185 0v581h-157v86h253v-279h59q39 0 62.5 16.5t42.5 48.5l129 214h105l-131 -217q-24 -39 -48 -64.5t-59 -38.5q20 -6 35.5 -15.5t29 -22.5t26 -30.5t26.5 -40.5l146 -238h-112l-138 226q-25 42 -49 59t-62 17h-62v-302h-96z" />
    <glyph glyph-name="uni04A1" unicode="&#x4a1;" horiz-adv-x="585" 
d="M243 0h-89v390h-124v81h213v-192h60q29 0 45.5 14.5t33.5 41.5l86 136h93l-95 -155q-17 -27 -35 -45.5t-44 -28.5q24 -7 41.5 -23t35.5 -45l112 -174h-103l-98 154q-13 20 -28 33t-47 13h-57v-200z" />
    <glyph glyph-name="uni04A2" unicode="&#x4a2;" horiz-adv-x="720" 
d="M76 667h96v-279h360v279h96v-581h56v-240h-87v154h-65v302h-360v-302h-96v667z" />
    <glyph glyph-name="uni04A3" unicode="&#x4a3;" horiz-adv-x="564" 
d="M486 81h50v-205h-81v124h-59v200h-245v-200h-90v471h90v-193h245v193h90v-390z" />
    <glyph glyph-name="uni04A4" unicode="&#x4a4;" horiz-adv-x="814" 
d="M76 667h96v-279h360v279h254v-86h-158v-581h-96v302h-360v-302h-96v667z" />
    <glyph glyph-name="uni04A5" unicode="&#x4a5;" horiz-adv-x="640" 
d="M610 390h-124v-390h-90v200h-245v-200h-90v471h90v-193h245v193h214v-81z" />
    <glyph glyph-name="uni04A6" unicode="&#x4a6;" horiz-adv-x="1096" 
d="M622 0h-96v581h-354v-581h-96v667h546v-262q29 13 65 22.5t82 9.5q67 0 119 -23.5t88 -65.5t55 -99.5t19 -125.5q0 -75 -21.5 -136.5t-60.5 -105.5t-92.5 -68.5t-117.5 -24.5q-49 0 -101 16l22 82q39 -11 76 -11q41 0 76.5 16t62 47t41.5 77t15 106q0 112 -52 172
t-141 60q-36 0 -72.5 -8.5t-62.5 -21.5v-323z" />
    <glyph glyph-name="uni04A7" unicode="&#x4a7;" horiz-adv-x="847" 
d="M482 0h-90v390h-241v-390h-90v471h421v-200q24 12 51 19.5t60 7.5q51 0 92.5 -19t71 -52t45.5 -77.5t16 -96.5q0 -55 -18 -101.5t-49.5 -80t-74 -52t-91.5 -18.5q-20 0 -41.5 3t-43.5 11l20 73q30 -9 59 -9q64 0 105.5 45.5t41.5 128.5q0 77 -39 123.5t-108 46.5
q-26 0 -51 -6.5t-46 -17.5v-199z" />
    <glyph glyph-name="uni04A8" unicode="&#x4a8;" horiz-adv-x="793" 
d="M769 11q-23 -12 -55 -20t-70 -8q-62 0 -123 25q-30 -11 -63.5 -17.5t-69.5 -6.5q-75 0 -137.5 26.5t-107.5 73t-69.5 110.5t-24.5 138q0 77 26.5 142t72.5 111.5t108 72.5t133 26q62 0 125 -20l-24 -83q-23 8 -49.5 12.5t-52.5 4.5q-49 0 -93 -18t-77 -52.5t-52 -84.5
t-19 -114q0 -70 22.5 -121t59 -84.5t82 -49.5t90.5 -16h17t17 2q-50 42 -80 100.5t-30 130.5q0 50 15.5 91.5t43 71t65 45.5t81.5 16q43 0 79.5 -15t63.5 -43t42.5 -67.5t15.5 -88.5q0 -74 -34.5 -139t-94.5 -110q18 -3 38 -3q33 0 58.5 8t44.5 18zM410 291
q0 -68 30.5 -122.5t81.5 -85.5q56 26 90 79t34 128q0 72 -32 111.5t-85 39.5q-55 0 -87 -40.5t-32 -109.5z" />
    <glyph glyph-name="uni04A9" unicode="&#x4a9;" horiz-adv-x="574" 
d="M126 234q0 -39 12.5 -72.5t35 -58t53.5 -38t68 -13.5h18q-30 28 -48.5 64.5t-18.5 80.5q0 33 10.5 60.5t30 47.5t45.5 31t58 11q31 0 56.5 -10.5t44 -30t29 -46t10.5 -57.5q0 -48 -22.5 -88.5t-59.5 -69.5q7 -2 13.5 -2h13.5q33 0 63 11l16 -53q-37 -14 -79 -14
q-49 0 -93 19q-49 -19 -100 -19q-49 0 -93 18t-77 50.5t-52.5 78t-19.5 101.5q0 54 19 99.5t51.5 78t76 51t92.5 18.5q39 0 83 -14l-20 -69q-29 10 -57 10q-33 0 -62 -13t-50.5 -36.5t-34 -55.5t-12.5 -70zM317 198q0 -39 18 -72.5t49 -55.5q30 17 52 49t22 78q0 38 -19 62
t-52 24q-35 0 -52.5 -25t-17.5 -60z" />
    <glyph glyph-name="uni04AA" unicode="&#x4aa;" horiz-adv-x="677" 
d="M642 117q-11 -18 -34 -41t-56 -43.5t-76 -34.5t-95 -14q-74 0 -135 26t-105 72.5t-68.5 110t-24.5 138.5q0 73 24.5 137t68.5 112t105.5 75.5t136.5 27.5q53 0 95 -13t73.5 -32.5t54 -42.5t36.5 -44l-68 -58q-12 17 -28.5 35.5t-39.5 33.5t-53 25t-69 10q-55 0 -98.5 -21
t-74 -57t-46.5 -84t-16 -102t16.5 -101.5t46.5 -82.5t73 -55t96 -20q45 0 77.5 11.5t55 27.5t37 32.5l24.5 27.5zM274 -149q17 -6 35.5 -10t38.5 -4q63 0 63 38q0 14 -13.5 22.5t-42.5 8.5q-37 0 -71 -12q3 14 5.5 28.5t4.5 28.5q18 5 37 9t49 4q54 0 82 -26t28 -61
q0 -24 -10.5 -42.5t-28.5 -30.5t-41 -18.5t-48 -6.5q-43 0 -68.5 6.5t-30.5 8.5l6 28.5t5 28.5z" />
    <glyph glyph-name="uni04AB" unicode="&#x4ab;" horiz-adv-x="493" 
d="M466 64q-31 -35 -76.5 -56.5t-105.5 -21.5q-56 0 -101.5 18.5t-77 51.5t-48.5 78t-17 98q0 54 18 100.5t50.5 80.5t78 53.5t99.5 19.5q57 0 102 -21t77 -57l-59 -57q-21 26 -51 41t-68 15t-67 -14t-48.5 -37.5t-30 -54t-10.5 -64.5q0 -33 10 -64t30 -55t48.5 -38.5
t66.5 -14.5q39 0 71.5 15.5t53.5 41.5zM181 -152q17 -6 35 -10t37 -4q32 0 48.5 10.5t16.5 28.5q0 14 -13.5 24.5t-44.5 10.5q-18 0 -35 -3.5t-34 -9.5l9 55q16 5 34 9t50 4q53 0 80 -26t27 -61q0 -24 -10 -42t-27.5 -30.5t-40 -18.5t-47.5 -6q-43 0 -67 6.5t-29 8.5z" />
    <glyph glyph-name="uni04AC" unicode="&#x4ac;" horiz-adv-x="630" 
d="M267 581h-239v86h573v-86h-238v-492h56v-243h-87v154h-65v581z" />
    <glyph glyph-name="uni04AD" unicode="&#x4ad;" horiz-adv-x="482" 
d="M196 390h-166v81h422v-81h-166v-312h50v-202h-81v124h-59v390z" />
    <glyph glyph-name="uni04AE" unicode="&#x4ae;" horiz-adv-x="584" 
d="M243 298l-230 369h107l174 -285l174 285h103l-231 -369v-298h-97v298z" />
    <glyph glyph-name="uni04AF" unicode="&#x4af;" horiz-adv-x="509" 
d="M113 471l145 -363l144 363h97l-196 -458v-213h-90v203l-203 468h103z" />
    <glyph glyph-name="uni04B0" unicode="&#x4b0;" horiz-adv-x="584" 
d="M87 304h156l-230 363h107l174 -285l174 285h103l-231 -363h157v-76h-157v-228h-97v228h-156v76z" />
    <glyph glyph-name="uni04B1" unicode="&#x4b1;" horiz-adv-x="509" 
d="M113 471l145 -363l144 363h97l-176 -407h106v-64h-127v-200h-88v200h-127v64h101l-178 407h103z" />
    <glyph glyph-name="uni04B2" unicode="&#x4b2;" horiz-adv-x="636" 
d="M243 345l-220 322h116l162 -243l160 243h105l-214 -319l178 -262h70v-240h-87v154h-39l-179 269l-179 -269h-106z" />
    <glyph glyph-name="uni04B3" unicode="&#x4b3;" horiz-adv-x="519" 
d="M192 243l-167 228h112l112 -157l110 157h100l-162 -221l127 -172h67v-202h-81v124h-41l-129 179l-127 -179h-101z" />
    <glyph glyph-name="uni04B4" unicode="&#x4b4;" horiz-adv-x="884" 
d="M761 0h-526v581h-207v86h498v-86h-195v-495h365v581h96v-581h56v-240h-87v154z" />
    <glyph glyph-name="uni04B5" unicode="&#x4b5;" horiz-adv-x="681" 
d="M171 390h-141v81h361v-81h-130v-309h252v390h90v-390h50v-205h-81v124h-401v390z" />
    <glyph glyph-name="uni04B6" unicode="&#x4b6;" horiz-adv-x="626" 
d="M535 667v-581h55v-240h-87v154h-64v276q-31 -15 -70.5 -25t-83.5 -10t-84 12t-71 38.5t-49.5 69t-18.5 103.5v203h96v-190q0 -83 40.5 -117.5t108.5 -34.5q39 0 74 9.5t58 23.5v309h96z" />
    <glyph glyph-name="uni04B7" unicode="&#x4b7;" horiz-adv-x="521" 
d="M443 81h50v-205h-81v124h-59v181q-23 -11 -53.5 -18.5t-65.5 -7.5q-39 0 -73.5 11t-59.5 34.5t-39.5 60t-14.5 87.5v123h90v-114q0 -69 30.5 -97t84.5 -28q31 0 57 7t44 18v214h90v-390z" />
    <glyph glyph-name="uni04B8" unicode="&#x4b8;" horiz-adv-x="630" 
d="M554 667v-667h-96v276q-25 -11 -55 -20t-63 -13v-108h-62v106q-43 2 -82 15.5t-69 40.5t-47.5 68t-17.5 99v203h96v-190q0 -74 32 -110.5t88 -44.5v143h62v-145q35 3 65.5 13.5t52.5 24.5v309h96z" />
    <glyph glyph-name="uni04B9" unicode="&#x4b9;" horiz-adv-x="511" 
d="M450 0h-87v181q-17 -8 -39.5 -14.5t-47.5 -9.5v-85h-55v83q-38 3 -69.5 15.5t-55 36t-36.5 58.5t-13 83v123h87v-114q0 -61 21.5 -90.5t65.5 -36.5v117h55v-120q26 2 48 10.5t39 19.5v214h87v-471z" />
    <glyph glyph-name="uni04BA" unicode="&#x4ba;" horiz-adv-x="624" 
d="M76 0v667h96v-258q32 15 73 25t86 10t87 -12t74 -38.5t51 -69t19 -103.5v-221h-96v208q0 42 -11 71t-31.5 47t-49.5 26t-64 8q-42 0 -78 -9.5t-60 -23.5v-327h-96z" />
    <glyph glyph-name="uni04BB" unicode="&#x4bb;" horiz-adv-x="543" 
d="M61 667h90v-260q9 12 22 26t32 25.5t43.5 19.5t56.5 8q91 0 135 -53t44 -144v-289h-90v282q0 66 -28 96t-79 30q-39 0 -65 -16t-41.5 -41.5t-22.5 -58t-7 -66.5v-226h-90v667z" />
    <glyph glyph-name="uni04BC" unicode="&#x4bc;" horiz-adv-x="874" 
d="M789 103q-45 -51 -114 -85t-157 -34q-73 0 -132.5 25t-103 68.5t-69 103t-29.5 127.5q-72 2 -114 39t-42 102q0 34 10.5 59t21.5 42l63 -29q-8 -14 -14 -31.5t-6 -36.5q0 -32 21 -51.5t61 -19.5q7 66 33.5 121t69.5 95.5t99.5 63t123.5 22.5t124.5 -23.5t99.5 -69.5
t65.5 -114t23.5 -158v-11h-542q4 -54 21.5 -98.5t47.5 -76t72 -48.5t96 -17q72 0 123 28t88 66zM509 599q-97 0 -156 -58t-70 -159h445q-4 54 -22 94.5t-46.5 67.5t-67 41t-83.5 14z" />
    <glyph glyph-name="uni04BD" unicode="&#x4bd;" horiz-adv-x="641" 
d="M591 68q-9 -10 -26 -24t-42 -27t-58 -22t-73 -9q-52 0 -95 16t-74.5 45.5t-50 71t-22.5 91.5q-62 0 -99 33t-37 92q0 28 8 50.5t20 41.5l58 -25q-8 -14 -13 -29t-5 -32q0 -33 19 -48.5t51 -15.5q6 46 25 84.5t49 66t69 42.5t86 15q58 0 100 -23t69 -61.5t40 -88
t13 -102.5h-365q8 -64 48 -105.5t109 -41.5q27 0 50 6t41.5 15t32 19t21.5 19zM377 409q-33 0 -57 -11t-41 -29t-26.5 -42t-13.5 -50h271q-2 27 -11 51t-25.5 42t-41 28.5t-55.5 10.5z" />
    <glyph glyph-name="uni04BE" unicode="&#x4be;" horiz-adv-x="874" 
d="M467 -154v142q-62 8 -112.5 36t-87 70t-58 97t-25.5 117q-72 2 -114 39t-42 102q0 34 10.5 59t21.5 42l63 -29q-8 -14 -14 -31.5t-6 -36.5q0 -32 21 -51.5t61 -19.5q7 66 33.5 121t69.5 95.5t99.5 63t123.5 22.5t124.5 -23.5t99.5 -69.5t65.5 -114t23.5 -158v-11h-542
q4 -54 21.5 -98.5t47.5 -76.5t72 -49.5t96 -17.5q72 0 123 28.5t88 67.5l59 -59q-41 -46 -100.5 -78t-134.5 -39v-140h-87zM509 599q-97 0 -156 -58t-70 -159h445q-4 54 -22 94.5t-46.5 67.5t-67 41t-83.5 14z" />
    <glyph glyph-name="uni04BF" unicode="&#x4bf;" horiz-adv-x="641" 
d="M346 -124v114q-85 13 -137 72t-59 148q-61 0 -98.5 32.5t-37.5 92.5q0 28 8 50.5t20 41.5l58 -25q-8 -14 -13 -29t-5 -32q0 -33 19 -48.5t51 -15.5q6 46 25 84.5t49 66t69 42.5t86 15q58 0 100 -23t69 -61.5t40 -88t13 -102.5h-365q8 -66 48 -108t109 -42q27 0 50 6.5
t41.5 15.5t32 20t21.5 20l51 -54q-8 -9 -22.5 -21t-35 -24t-47 -21.5t-59.5 -13.5v-112h-81zM377 409q-33 0 -57 -11t-41 -29t-26.5 -42t-13.5 -50h271q-2 27 -11 51t-25.5 42t-41 28.5t-55.5 10.5z" />
    <glyph glyph-name="uni04C0" unicode="&#x4c0;" horiz-adv-x="248" 
d="M76 667h96v-667h-96v667z" />
    <glyph glyph-name="uni04C1" unicode="&#x4c1;" horiz-adv-x="888" 
d="M490 667v-279h63q33 0 55.5 17t40.5 55l99 207h102l-116 -234q-16 -32 -37.5 -53t-47.5 -32q28 -9 50 -28.5t45 -63.5l131 -256h-109l-111 224q-20 42 -42.5 60t-54.5 18h-68v-302h-92v302h-71q-36 0 -59 -22.5t-48 -74.5l-101 -205h-106l131 256q22 44 44.5 63.5
t50.5 27.5q-26 12 -48 34t-37 52l-116 234h103l100 -207q18 -38 40.5 -55t55.5 -17h61v279h92zM370 854q1 -26 20 -46.5t54 -20.5t54.5 20.5t20.5 46.5h74q0 -25 -9.5 -49t-28 -42.5t-46.5 -29.5t-65 -11t-64.5 11t-46 29.5t-28 42.5t-9.5 49h74z" />
    <glyph glyph-name="uni04C2" unicode="&#x4c2;" horiz-adv-x="714" 
d="M400 0h-86v200h-48q-32 0 -47 -13.5t-31 -41.5l-84 -145h-95l103 172q18 30 34 46t39 24q-25 11 -41.5 28t-33.5 46l-87 155h93l74 -129q19 -33 36 -48t46 -15h42v192h86v-192h46q29 0 46 15t36 48l74 129h89l-87 -155q-14 -26 -30 -44t-45 -30q23 -8 39 -24t34 -46
l103 -172h-98l-85 145q-16 27 -31 41t-47 14h-44v-200zM357 544q-35 0 -61.5 11t-44 29t-26.5 41.5t-9 47.5h71q0 -26 17 -46.5t53 -20.5t53 20.5t17 46.5h71q0 -24 -9 -47.5t-26.5 -41.5t-44 -29t-61.5 -11z" />
    <glyph glyph-name="uni04C3" unicode="&#x4c3;" horiz-adv-x="640" 
d="M172 302v-302h-96v667h96v-279h69q39 0 62.5 16.5t42.5 48.5l129 214h105l-131 -217q-17 -28 -36.5 -47.5t-43.5 -31.5q55 -8 97 -31.5t70.5 -60t43 -84.5t14.5 -103q0 -67 -21 -122.5t-59 -96t-90.5 -63t-114.5 -22.5q-47 0 -98 16l22 82q38 -11 73 -11q40 0 74 14.5
t59.5 42t40 68t14.5 92.5q0 103 -53 156.5t-145 53.5h-124z" />
    <glyph glyph-name="uni04C4" unicode="&#x4c4;" horiz-adv-x="525" 
d="M151 200v-200h-89v471h89v-192h67q29 0 45.5 14.5t33.5 41.5l86 136h93l-95 -155q-25 -40 -60 -57q85 -17 126.5 -76.5t41.5 -139.5q0 -54 -17.5 -98.5t-48 -76.5t-71.5 -49.5t-89 -17.5q-20 0 -40.5 3t-41.5 11l20 73q28 -9 56 -9q61 0 100.5 43t39.5 118q0 74 -39 117
t-108 43h-99z" />
    </font>
</defs>
</svg>
