<?xml version="1.0" standalone="no"?>
<!DOCTYPE svg PUBLIC "-//W3C//DTD SVG 1.1//EN" "http://www.w3.org/Graphics/SVG/1.1/DTD/svg11.dtd" >
<svg>
<metadata>
Created by FontForge 20090622 at Mon Aug 31 22:49:47 2015
 By deploy user
Copyright 2013 Dalton Maag Ltd. Modification of this file requires prior written permission from Dalton Maag Ltd.
</metadata>
<defs>
<font id="Effra-Medium" horiz-adv-x="360" >
  <font-face 
    font-family="Effra Medium"
    font-weight="500"
    font-stretch="normal"
    units-per-em="1000"
    panose-1="2 11 7 3 2 2 3 2 2 4"
    ascent="798"
    descent="-202"
    x-height="469"
    cap-height="667"
    bbox="-157 -241 1255 931"
    underline-thickness="45"
    underline-position="-123"
    unicode-range="U+0008-U+FB04"
  />
<missing-glyph horiz-adv-x="500" 
d="M50 0v750h400v-750h-400zM400 50v650h-300v-650h300z" />
    <glyph glyph-name="f_f" unicode="ff" horiz-adv-x="651" 
d="M93 373h-80v96h80v25q0 59 18 96t44.5 58t55.5 29t52 8q32 0 66.5 -10t69.5 -39l-55 -78q-14 11 -31 18t-33 7q-34 0 -52 -22t-18 -61v-31h194v29q0 51 16 86.5t41 58t56 32.5t61 10q32 0 71 -9t75 -40l-55 -78q-16 11 -34.5 18t-37.5 7q-35 0 -55.5 -22.5t-20.5 -64.5
v-27h121v-96h-120v-373h-118v373h-193v-373h-118v373z" />
    <glyph glyph-name="f_i" unicode="fi" horiz-adv-x="565" 
d="M93 373h-80v96h80v5q0 61 19.5 101.5t52 65t75 34.5t89.5 10q18 0 40.5 -3t46.5 -9t48.5 -15.5t45.5 -22.5l-49 -89q-23 14 -60 26t-73 12q-62 0 -90 -21t-28 -69v-25h292v-469h-118v373h-173v-373h-118v373z" />
    <glyph glyph-name="f_l" unicode="fl" horiz-adv-x="570" 
d="M93 373h-80v96h80v14q0 58 17.5 96.5t48 62t71 33.5t85.5 10q36 0 69 -6t59 -14.5t44 -17t25 -12.5v-635h-118v572q-13 5 -36.5 8.5t-44.5 3.5q-58 0 -80.5 -22t-22.5 -77v-16h121v-96h-120v-373h-118v373z" />
    <glyph glyph-name="f_f_i" unicode="ffi" horiz-adv-x="876" 
d="M93 373h-80v96h80v25q0 59 18 96t44.5 58t55.5 29t52 8q32 0 66.5 -10t69.5 -39l-55 -78q-14 11 -31 18t-33 7q-34 0 -52 -22t-18 -61v-31h194v5q0 61 19 101.5t51 65t73.5 34.5t85.5 10q42 0 93.5 -12t94.5 -38l-49 -89q-23 14 -60 26t-73 12q-62 0 -90 -23t-28 -82v-10
h292v-469h-118v373h-173v-373h-118v373h-193v-373h-118v373z" />
    <glyph glyph-name="f_f_l" unicode="ffl" horiz-adv-x="881" 
d="M93 373h-80v96h80v25q0 59 18 96t44.5 58t55.5 29t52 8q32 0 66.5 -10t69.5 -39l-55 -78q-14 11 -31 18t-33 7q-34 0 -52 -22t-18 -61v-31h194v14q0 58 17.5 96.5t48 62t71 33.5t85.5 10q36 0 69 -6t59 -14.5t44 -17t25 -12.5v-635h-118v572q-13 5 -36.5 8.5t-44.5 3.5
q-58 0 -80.5 -22t-22.5 -77v-16h121v-96h-120v-373h-118v373h-193v-373h-118v373z" />
    <glyph glyph-name=".notdef" horiz-adv-x="500" 
d="M50 0v750h400v-750h-400zM400 50v650h-300v-650h300z" />
    <glyph glyph-name=".null" horiz-adv-x="0" 
 />
    <glyph glyph-name=".null" horiz-adv-x="0" 
 />
    <glyph glyph-name=".null" horiz-adv-x="0" 
 />
    <glyph glyph-name="nonmarkingreturn" unicode="&#x9;" horiz-adv-x="181" 
 />
    <glyph glyph-name="nonmarkingreturn" unicode="&#xd;" horiz-adv-x="181" 
 />
    <glyph glyph-name="space" unicode=" " horiz-adv-x="181" 
 />
    <glyph glyph-name="exclam" unicode="!" horiz-adv-x="279" 
d="M74 667h131l-2 -458h-127zM68 138h143v-138h-143v138z" />
    <glyph glyph-name="quotedbl" unicode="&#x22;" horiz-adv-x="388" 
d="M53 667h112v-232h-112v232zM223 667h112v-232h-112v232z" />
    <glyph glyph-name="numbersign" unicode="#" horiz-adv-x="745" 
d="M161 151h-93v93h118l38 142h-95v93h120l40 150h106l-40 -150h123l40 150h106l-40 -150h93v-93h-118l-38 -142h95v-93h-120l-40 -151h-106l40 151h-123l-40 -151h-106zM415 244l38 142h-123l-38 -142h123z" />
    <glyph glyph-name="dollar" unicode="$" horiz-adv-x="545" 
d="M97 181l25 -26t32 -27t39 -23t47 -14v184q-5 2 -8.5 2t-8.5 2q-48 13 -81.5 32t-54.5 42t-30.5 50.5t-9.5 58.5q0 33 11.5 63t35.5 53.5t60.5 39t85.5 19.5v92h75v-92q42 -5 72 -17t50.5 -25.5t32.5 -26.5t18 -19l-83 -75q-8 9 -30 28.5t-60 29.5v-164q37 -9 72 -23.5
t61 -38t42 -57t16 -78.5q0 -37 -14 -68.5t-39.5 -55t-60.5 -39t-77 -21.5v-93h-75v91q-43 4 -78.5 16.5t-64 29.5t-49.5 36t-35 37zM315 93q40 7 58 27t18 54q0 26 -15 45t-61 35v-161zM240 536q-44 -6 -62 -26.5t-18 -47.5q0 -29 17 -46t63 -31v151z" />
    <glyph glyph-name="percent" unicode="%" horiz-adv-x="925" 
d="M609 630h107l-406 -630h-107zM210 285q-69 0 -114 45.5t-45 135.5t45 135.5t114 45.5t114 -45.5t45 -135.5t-45 -135.5t-114 -45.5zM210 364q11 0 22 5t19.5 17t14 31.5t5.5 48.5t-5.5 48.5t-14 31.5t-19.5 17t-22 5t-22 -5t-19.5 -17t-14 -31.5t-5.5 -48.5t5.5 -48.5
t14 -31.5t19.5 -17t22 -5zM715 -9q-69 0 -114 45.5t-45 135.5t45 135.5t114 45.5t114 -45.5t45 -135.5t-45 -135.5t-114 -45.5zM715 70q11 0 22 5t19.5 17t14 31.5t5.5 48.5t-5.5 48.5t-14 31.5t-19.5 17t-22 5t-22 -5t-19.5 -17t-14 -31.5t-5.5 -48.5t5.5 -48.5t14 -31.5
t19.5 -17t22 -5z" />
    <glyph glyph-name="ampersand" unicode="&#x26;" horiz-adv-x="643" 
d="M429 61q-32 -33 -76 -55t-109 -22q-54 0 -95 15.5t-68 41.5t-40.5 61t-13.5 73q0 56 29 107.5t102 103.5l-2 3q-26 31 -37.5 63.5t-11.5 66.5q0 33 12.5 63t37 53t60 36.5t81.5 13.5q43 0 73 -11.5t51 -28.5t34 -36.5t21 -35.5l-88 -56q-25 41 -45 53t-39 12
q-35 0 -54 -18t-19 -45q0 -23 12 -44.5t30 -41.5l160 -194l86 105l88 -71l-101 -123l125 -150h-152zM226 304q-45 -34 -60.5 -61.5t-15.5 -60.5q0 -38 24.5 -62.5t75.5 -24.5q36 0 61 15t46 38z" />
    <glyph glyph-name="quotesingle" unicode="'" horiz-adv-x="218" 
d="M53 667h112v-232h-112v232z" />
    <glyph glyph-name="parenleft" unicode="(" horiz-adv-x="297" 
d="M153 -93q-12 23 -28.5 60.5t-31 88t-25 113.5t-10.5 137t10.5 137t25 114t31 88.5t28.5 60.5h116q-17 -29 -32.5 -72t-27.5 -95.5t-19 -112t-7 -120.5t7 -120t19 -111.5t27.5 -96t32.5 -71.5h-116z" />
    <glyph glyph-name="parenright" unicode=")" horiz-adv-x="297" 
d="M28 -93q16 28 31.5 71.5t27.5 96t19.5 111.5t7.5 120t-7.5 120.5t-19.5 112t-27.5 95.5t-31.5 72h116q12 -23 28.5 -60.5t31 -88.5t25 -114t10.5 -137t-10.5 -137t-25 -113.5t-31 -88t-28.5 -60.5h-116z" />
    <glyph glyph-name="asterisk" unicode="*" horiz-adv-x="501" 
d="M58 460l111 58l-111 58l46 80l106 -67l-5 125h92l-4 -125l104 67l46 -80l-109 -58l109 -58l-46 -80l-104 67l4 -125h-92l5 125l-106 -67z" />
    <glyph glyph-name="plus" unicode="+" horiz-adv-x="545" 
d="M74 371h149v147h100v-147h149v-99h-149v-146h-100v146h-149v99z" />
    <glyph glyph-name="comma" unicode="," horiz-adv-x="279" 
d="M129 0h-51v139h143v-137l-85 -145h-70z" />
    <glyph glyph-name="hyphen" unicode="-" horiz-adv-x="441" 
d="M68 335h305v-112h-305v112z" />
    <glyph glyph-name="period" unicode="." horiz-adv-x="279" 
d="M68 138h143v-138h-143v138z" />
    <glyph glyph-name="slash" unicode="/" horiz-adv-x="426" 
d="M289 685h114l-263 -701h-117z" />
    <glyph glyph-name="zero" unicode="0" horiz-adv-x="545" 
d="M272 -16q-61 0 -107 25t-77 69.5t-46.5 107t-15.5 137.5q0 73 15.5 133t46.5 102.5t77.5 66t107.5 23.5t107 -23.5t77 -66t46.5 -102.5t15.5 -133q0 -75 -15.5 -137.5t-46.5 -107t-77.5 -69.5t-107.5 -25zM273 92q31 0 54.5 18t39 49t23.5 73t8 91q0 47 -8 87t-24 68.5
t-39.5 44.5t-54.5 16t-54.5 -16t-39 -44.5t-23.5 -68.5t-8 -87q0 -49 8 -91t24 -73t39.5 -49t54.5 -18z" />
    <glyph glyph-name="one" unicode="1" horiz-adv-x="545" 
d="M131 103h108v398l-121 -64l-49 92l185 101h103v-527h104v-103h-330v103z" />
    <glyph glyph-name="two" unicode="2" horiz-adv-x="545" 
d="M63 79q0 43 14.5 78t37.5 64.5t51 54.5l56 49l49.5 41t36.5 32.5t22.5 31.5t7.5 37q0 13 -4.5 27t-15 24.5t-27.5 17.5t-43 7q-23 0 -41.5 -7t-33 -18t-25 -24t-17.5 -25l-88 63q12 20 30 40.5t44 37.5t61 27.5t80 10.5q54 0 93 -14.5t64 -38.5t37 -54.5t12 -62.5
q0 -34 -11 -63t-29 -54t-41 -47t-47 -42l-54.5 -44t-44.5 -39t-30 -38.5t-11 -43.5h272v-107h-405v79z" />
    <glyph glyph-name="three" unicode="3" horiz-adv-x="545" 
d="M89 138q27 -24 59.5 -38.5t74.5 -14.5q54 0 86 29.5t32 77.5q0 21 -5.5 39.5t-18.5 32t-34 21.5t-51 8q-14 0 -29 -3t-27 -6l-35 56l161 181h-236v108h377v-90l-140 -164q84 -10 123.5 -60t39.5 -124q0 -49 -18.5 -88t-51.5 -66t-77 -41t-95 -14q-68 0 -118 20.5
t-85 52.5z" />
    <glyph glyph-name="four" unicode="4" horiz-adv-x="545" 
d="M40 220l275 410h118v-409h65v-100h-65v-121h-113v121h-280v99zM320 221v243l-166 -243h166z" />
    <glyph glyph-name="five" unicode="5" horiz-adv-x="545" 
d="M90 139q27 -24 58 -38t79 -14q32 0 54.5 9.5t37 26t21 37.5t6.5 44q0 15 -5.5 33.5t-19.5 34.5t-38.5 27t-61.5 11q-34 0 -54 -6.5l-37 -12.5l-60 46l63 292h327v-110h-242l-25 -121q7 3 24 6t41 3q46 0 84.5 -14t66.5 -39.5t43.5 -62.5t15.5 -82q0 -44 -13 -85
t-42.5 -72.5t-77 -50.5t-115.5 -19q-67 0 -114 20t-82 52z" />
    <glyph glyph-name="six" unicode="6" horiz-adv-x="545" 
d="M442 513q-13 8 -30 15q-14 6 -34 11t-44 5q-36 0 -65 -15.5t-50 -41t-32.5 -57.5t-11.5 -66q22 13 53 28.5t79 15.5q43 0 79.5 -14t62 -40.5t40 -64.5t14.5 -87q0 -44 -14 -84t-41 -70t-67.5 -48t-92.5 -18q-50 0 -92.5 18t-73.5 56t-48.5 96.5t-17.5 139.5
q0 78 18 143.5t53 113t87 73.5t121 26q28 0 52 -4.5t44.5 -11t36 -13.5t25.5 -13zM174 269q0 -53 9 -88.5t24.5 -56.5t36.5 -30t44 -9q47 0 75.5 33.5t28.5 87.5q0 46 -26.5 73.5t-69.5 27.5q-45 0 -74.5 -13t-47.5 -25z" />
    <glyph glyph-name="seven" unicode="7" horiz-adv-x="545" 
d="M127 0q21 67 51 144.5t62 150t62 132.5t50 92h-287v111h408v-106q-13 -21 -31.5 -57t-39.5 -81.5t-42.5 -97l-41.5 -103t-36.5 -99.5t-26.5 -86h-128z" />
    <glyph glyph-name="eight" unicode="8" horiz-adv-x="545" 
d="M273 391q40 11 64 37.5t24 55.5q0 33 -24.5 54.5t-63.5 21.5q-37 0 -62.5 -22t-25.5 -57q0 -26 24 -52.5t64 -37.5zM271 294q-23 -5 -44 -15.5t-36.5 -25t-25 -33.5t-9.5 -40q0 -27 10.5 -45.5t27.5 -30.5t38 -17.5t41 -5.5t41 5.5t38 17.5t27.5 30.5t10.5 45.5
q0 21 -10 40t-26.5 33.5t-38 25t-44.5 15.5zM153 349q-31 18 -55 53.5t-24 78.5q0 37 14.5 68t40.5 53t62.5 34t81.5 12q49 0 86 -12t62 -33.5t38 -51.5t13 -65q0 -47 -25 -81.5t-57 -51.5q57 -24 88.5 -68.5t31.5 -105.5q0 -32 -13 -66.5t-41.5 -63t-73.5 -47t-109 -18.5
q-65 0 -110 18t-73.5 46t-41 62.5t-12.5 66.5q0 61 32 105t85 67z" />
    <glyph glyph-name="nine" unicode="9" horiz-adv-x="545" 
d="M104 121q17 -10 37 -17q17 -6 39.5 -11t46.5 -5q36 0 62.5 14.5t45 39t28 56t10.5 65.5q-16 -13 -47.5 -28t-87.5 -15q-44 0 -80 16.5t-62 45t-40.5 66t-14.5 80.5q0 44 14.5 84t42.5 70t68.5 48t93.5 18q50 0 92.5 -18t73.5 -56t48.5 -96.5t17.5 -139.5
q0 -77 -16 -141.5t-49 -112t-83 -74t-119 -26.5q-28 0 -54 4.5t-48 11t-39.5 13.5t-27.5 13zM374 361q0 53 -9 88.5t-24.5 56.5t-36.5 30t-44 9q-47 0 -77.5 -32t-30.5 -86q0 -44 27.5 -73t74.5 -29q49 0 75.5 12t44.5 24z" />
    <glyph glyph-name="colon" unicode=":" horiz-adv-x="279" 
d="M68 138h143v-138h-143v138zM68 469h143v-138h-143v138z" />
    <glyph glyph-name="semicolon" unicode=";" horiz-adv-x="279" 
d="M120 0h-51v139h143v-137l-85 -145h-70zM68 469h143v-138h-143v138z" />
    <glyph glyph-name="less" unicode="&#x3c;" horiz-adv-x="545" 
d="M71 357l357 193l43 -85l-267 -144l267 -144l-43 -85l-357 193v72z" />
    <glyph glyph-name="equal" unicode="=" horiz-adv-x="545" 
d="M74 454h398v-99h-398v99zM74 287h398v-99h-398v99z" />
    <glyph glyph-name="greater" unicode="&#x3e;" horiz-adv-x="545" 
d="M74 177l267 144l-267 144l43 85l357 -193v-72l-357 -193z" />
    <glyph glyph-name="question" unicode="?" horiz-adv-x="512" 
d="M155 138h143v-138h-143v138zM166 231q0 19 2.5 40.5t10.5 44t24.5 44.5t45.5 42l32 23t29 25t21 27t8 31q0 30 -23 49.5t-64 19.5q-27 0 -50 -8t-40.5 -18t-29 -20.5t-16.5 -14.5l-78 70q5 7 20 23t41 32.5t64.5 29.5t89.5 13q49 0 87 -14t64.5 -38t40.5 -55.5t14 -65.5
q0 -56 -22 -91t-66 -67l-38 -28t-26.5 -25.5t-15.5 -29.5t-5 -39v-22h-120v22z" />
    <glyph glyph-name="at" unicode="@" horiz-adv-x="958" 
d="M575 212l-35 2q-14 1 -29.5 1.5t-26.5 0.5q-53 0 -79.5 -22.5t-26.5 -51.5q0 -30 23 -47t65 -17q21 0 40.5 7t34.5 19t24.5 28t9.5 34v46zM182 -18q-23 16 -47.5 43.5t-45 65t-33.5 84t-13 101.5q0 105 37 182.5t98.5 128t140 75.5t162.5 25q91 0 170.5 -24t138 -72.5
t92 -122t33.5 -173.5q0 -92 -23 -152.5t-56 -95.5t-71 -49t-68 -14q-34 0 -62 14t-41 46q-21 -19 -41 -30.5t-40.5 -18t-43 -9t-49.5 -2.5q-22 0 -48.5 9t-49.5 28t-38.5 48t-15.5 68q0 40 15 71.5t42 53t65 32.5t84 11q14 0 31 -0.5t33 -1.5l37 -2v11q0 35 -26.5 55
t-68.5 20q-54 0 -85 -13t-54 -28l-54 80q16 12 34 22.5t42 18.5t55.5 13t75.5 5q43 0 79 -12.5t61.5 -35t39.5 -54t14 -68.5v-196q0 -15 8.5 -24.5t22.5 -9.5q13 0 29 11t29.5 36t23 66.5t9.5 101.5q0 79 -28.5 135t-75.5 91t-107 51t-123 16q-53 0 -110.5 -16.5t-104.5 -53
t-77.5 -95t-30.5 -143.5q0 -48 10 -86t25 -66.5t32 -48.5t31 -31z" />
    <glyph glyph-name="A" unicode="A" horiz-adv-x="646" 
d="M258 667h130l253 -667h-140l-58 169h-248l-58 -169h-132zM407 273l-88 259l-89 -259h177z" />
    <glyph glyph-name="B" unicode="B" horiz-adv-x="596" 
d="M70 667h229q53 0 93.5 -13.5t67.5 -37t41 -55t14 -68.5q0 -35 -13 -61t-30.5 -43.5t-35 -26t-27.5 -8.5q18 -2 42 -11t45.5 -28t36.5 -49.5t15 -74.5q0 -54 -19 -90.5t-52.5 -59t-79 -32t-98.5 -9.5h-229v667zM293 401q19 0 37 4t32.5 14t23 25t8.5 38t-9 38t-23.5 24
t-32.5 12.5t-36 3.5h-102v-159h102zM298 107q18 0 39.5 2.5t40.5 12t32 28t13 50.5q0 30 -12.5 48.5t-31 29t-40.5 14.5t-41 4h-107v-189h107z" />
    <glyph glyph-name="C" unicode="C" horiz-adv-x="680" 
d="M657 122q-15 -23 -41.5 -47t-62.5 -44.5t-79 -33.5t-91 -13q-75 0 -137 26t-107 72.5t-70 109.5t-25 138q0 73 25 137t70.5 112t108.5 76t139 28q49 0 90 -10.5t74.5 -28.5t59.5 -42.5t46 -52.5l-89 -79q-32 46 -74.5 74t-106.5 28q-49 0 -88 -19.5t-66.5 -52t-42 -76
t-14.5 -91.5t14.5 -90t41.5 -73t64.5 -49t84.5 -18q43 0 73.5 10t52 25t36 31.5t26.5 28.5z" />
    <glyph glyph-name="D" unicode="D" horiz-adv-x="726" 
d="M70 667h249q78 0 143 -20t112 -61t73 -105t26 -151q0 -83 -26.5 -144.5t-74 -103t-112.5 -62t-142 -20.5h-248v667zM307 112q114 0 174 55t60 161q0 105 -55.5 166t-178.5 61h-111v-443h111z" />
    <glyph glyph-name="E" unicode="E" horiz-adv-x="568" 
d="M70 667h432v-111h-306v-157h225v-112h-225v-174h329v-113h-455v667z" />
    <glyph glyph-name="F" unicode="F" horiz-adv-x="534" 
d="M70 667h431v-111h-305v-173h228v-112h-228v-271h-126v667z" />
    <glyph glyph-name="G" unicode="G" horiz-adv-x="723" 
d="M421 353h239v-276q-39 -37 -103 -65t-164 -28q-82 0 -146.5 27t-109.5 73.5t-69 109.5t-24 136t25 137t70.5 112t108.5 76t139 28q49 0 90 -10.5t74.5 -28.5t59.5 -42.5t46 -52.5l-89 -79q-32 46 -74.5 74t-106.5 28q-49 0 -88 -19.5t-66.5 -52t-42 -76t-14.5 -91.5
q0 -54 17.5 -97t48 -74t71 -47.5t85.5 -16.5q92 0 142 44v104h-119v107z" />
    <glyph glyph-name="H" unicode="H" horiz-adv-x="723" 
d="M70 667h126v-268h331v268h126v-667h-126v287h-331v-287h-126v667z" />
    <glyph glyph-name="I" unicode="I" horiz-adv-x="266" 
d="M70 667h126v-667h-126v667z" />
    <glyph glyph-name="J" unicode="J" horiz-adv-x="508" 
d="M98 157q32 -35 59 -46.5t62 -11.5q18 0 35.5 6.5t31.5 19.5t22.5 32.5t8.5 45.5v464h126v-471q0 -60 -19.5 -101t-50.5 -66t-70 -36t-78 -11q-78 0 -128.5 24.5t-86.5 70.5z" />
    <glyph glyph-name="K" unicode="K" horiz-adv-x="621" 
d="M70 667h126v-274l247 274h143l-246 -273l273 -394h-152l-203 303l-62 -69v-234h-126v667z" />
    <glyph glyph-name="L" unicode="L" horiz-adv-x="553" 
d="M70 667h126v-555h329v-112h-455v667z" />
    <glyph glyph-name="M" unicode="M" horiz-adv-x="789" 
d="M94 667h117l185 -315l182 315h117l32 -667h-123l-22 462l-160 -272h-59l-161 265l-22 -455h-118z" />
    <glyph glyph-name="N" unicode="N" horiz-adv-x="713" 
d="M70 667h127l323 -474v474h123v-667h-124l-326 480v-480h-123v667z" />
    <glyph glyph-name="O" unicode="O" horiz-adv-x="782" 
d="M391 -18q-73 0 -136 27.5t-110 75.5t-74 112t-27 137t27 137t73.5 111.5t110 75t136.5 27.5t136 -27.5t110 -75t74 -111.5t27 -137t-27 -137t-74 -112t-110 -75.5t-136 -27.5zM391 101q49 0 89 19t68 51.5t43 75.5t15 90q0 48 -15 90.5t-43 74.5t-68 50.5t-89 18.5
q-50 0 -89.5 -18.5t-67.5 -50.5t-43 -74.5t-15 -90.5q0 -47 15 -90t43 -75.5t67.5 -51.5t89.5 -19z" />
    <glyph glyph-name="P" unicode="P" horiz-adv-x="558" 
d="M70 667h214q70 0 114.5 -21.5t70.5 -53t36 -67.5t10 -66q0 -56 -20 -96t-52 -65.5t-72 -37.5t-79 -12h-101v-248h-121v667zM282 354q48 0 76.5 28t28.5 73q0 47 -30 76.5t-75 29.5h-91v-207h91z" />
    <glyph glyph-name="Q" unicode="Q" horiz-adv-x="782" 
d="M548 19q-35 -17 -75 -27t-82 -10q-73 0 -136 27.5t-110 75.5t-74 112t-27 137t27 137t73.5 111.5t110 75t136.5 27.5t136 -27.5t110 -75t74 -111.5t27 -137q0 -77 -29.5 -143t-80.5 -115l75 -96l-75 -63zM396 214l75 63l79 -102q27 32 41.5 73.5t14.5 88.5q0 48 -15 90.5
t-43 74.5t-68 50.5t-89 18.5q-50 0 -89.5 -18.5t-67.5 -50.5t-43 -74.5t-15 -90.5q0 -47 15 -90t43 -75.5t67.5 -51.5t89.5 -19q43 0 81 15z" />
    <glyph glyph-name="R" unicode="R" horiz-adv-x="586" 
d="M70 667h221q63 0 107 -19t71 -48.5t39.5 -64.5t12.5 -67q0 -63 -27.5 -111.5t-84.5 -77.5l154 -279h-142l-135 263h-95v-263h-121v667zM292 367q48 0 74.5 28t26.5 68q0 43 -28 70t-73 27h-101v-193h101z" />
    <glyph glyph-name="S" unicode="S" horiz-adv-x="593" 
d="M119 188q12 -14 28.5 -29.5t37 -29t46 -22.5t57.5 -9q59 0 87.5 27t28.5 65q0 21 -8 37.5t-27 29t-49.5 22.5t-75.5 19q-46 9 -79.5 28t-55.5 45t-33 57.5t-11 64.5q0 38 14 72.5t43 61t72.5 42.5t102.5 16q53 0 91 -12t63.5 -28t39.5 -31.5l20 -22.5l-83 -78
q-5 4 -16 14.5t-27.5 20.5t-39.5 18t-52 8q-26 0 -45 -7t-31.5 -18t-18.5 -24.5t-6 -25.5q0 -18 6.5 -32t22 -26t42.5 -21.5t68 -17.5q39 -8 75 -24t63.5 -41.5t44 -62t16.5 -87.5q0 -44 -18 -81t-50 -65t-76 -43.5t-96 -15.5q-50 0 -90.5 12t-73 30.5t-56 40.5t-39.5 42z
" />
    <glyph glyph-name="T" unicode="T" horiz-adv-x="624" 
d="M249 556h-226v111h578v-111h-226v-556h-126v556z" />
    <glyph glyph-name="U" unicode="U" horiz-adv-x="674" 
d="M65 667h126v-399q0 -38 7.5 -68.5t24.5 -52t45 -33t69 -11.5t69 11.5t45 33t24.5 52t7.5 68.5v399h126v-421q0 -56 -18 -104t-53 -83.5t-85.5 -56t-115.5 -20.5t-115.5 20.5t-85.5 56t-53 83.5t-18 104v421z" />
    <glyph glyph-name="V" unicode="V" horiz-adv-x="636" 
d="M5 667h140l177 -509l177 509h132l-248 -667h-130z" />
    <glyph glyph-name="W" unicode="W" horiz-adv-x="880" 
d="M10 667h138l109 -499l129 480h114l130 -480l108 499h132l-175 -667h-132l-124 441l-126 -441h-130z" />
    <glyph glyph-name="X" unicode="X" horiz-adv-x="605" 
d="M227 345l-213 322h152l139 -218l134 218h137l-205 -319l229 -348h-152l-154 243l-152 -243h-137z" />
    <glyph glyph-name="Y" unicode="Y" horiz-adv-x="600" 
d="M236 293l-231 374h138l160 -266l160 266h132l-231 -374v-293h-128v293z" />
    <glyph glyph-name="Z" unicode="Z" horiz-adv-x="658" 
d="M53 110l393 446h-375v111h526v-111l-385 -446h393v-110h-552v110z" />
    <glyph glyph-name="bracketleft" unicode="[" horiz-adv-x="330" 
d="M73 706h234v-105h-116v-587h116v-107h-234v799z" />
    <glyph glyph-name="backslash" unicode="\" horiz-adv-x="426" 
d="M23 685h114l266 -701h-117z" />
    <glyph glyph-name="bracketright" unicode="]" horiz-adv-x="330" 
d="M23 14h116v587h-116v105h234v-799h-234v107z" />
    <glyph glyph-name="asciicircum" unicode="^" horiz-adv-x="562" 
d="M226 667h110l173 -359h-117l-111 245l-111 -245h-117z" />
    <glyph glyph-name="underscore" unicode="_" horiz-adv-x="500" 
d="M0 -65h500v-55h-500v55z" />
    <glyph glyph-name="grave" unicode="`" horiz-adv-x="502" 
d="M144 682h126l48 -142h-95z" />
    <glyph glyph-name="a" unicode="a" horiz-adv-x="504" 
d="M335 44q-19 -23 -58 -41t-87 -18q-29 0 -57.5 9t-52 27.5t-38 47.5t-14.5 68q0 40 15 71.5t42 53t65 32.5t84 11q14 0 31 -0.5t33 -1.5l37 -2v11q0 35 -28 55t-73 20q-50 0 -80 -13t-53 -28l-54 80q14 10 32 20.5t42 19t55.5 14t73.5 5.5q45 0 81.5 -12.5t62.5 -35
t40 -54t14 -68.5v-315h-110zM335 212l-35 2q-14 1 -29.5 1.5t-26.5 0.5q-57 0 -80 -22.5t-23 -51.5q0 -30 21.5 -47t63.5 -17q21 0 40.5 7t34.5 19t24.5 28t9.5 34v46z" />
    <glyph glyph-name="b" unicode="b" horiz-adv-x="555" 
d="M58 667h118v-230q12 12 46 27t82 15q51 0 90.5 -19t67.5 -51t42.5 -76t14.5 -93q0 -53 -18.5 -99.5t-53 -81t-83.5 -55t-110 -20.5t-112.5 10t-83.5 21v652zM176 96q14 -5 29 -7.5t47 -2.5q36 0 63 12.5t46 33.5t28.5 48.5t9.5 56.5q0 27 -6.5 52t-20.5 44.5t-35.5 31
t-51.5 11.5q-54 0 -81.5 -27.5t-27.5 -75.5v-177z" />
    <glyph glyph-name="c" unicode="c" horiz-adv-x="492" 
d="M471 62q-33 -35 -78 -56t-105 -21t-107 18t-79 51t-49 79t-17 102q0 51 18.5 96.5t51.5 79.5t79.5 54t102.5 20q57 0 104 -20.5t80 -55.5l-75 -76q-20 23 -47 36t-62 13q-34 0 -59 -12.5t-41.5 -32.5t-24.5 -47t-8 -55q0 -27 8 -53t24.5 -47t41.5 -34t59 -13
q35 0 64 13.5t49 36.5z" />
    <glyph glyph-name="d" unicode="d" horiz-adv-x="557" 
d="M382 46q-9 -10 -22 -21t-30.5 -20t-39 -15t-48.5 -6q-38 0 -75 16t-66 47t-47 76t-18 103q0 55 16 96.5t40 70.5q20 24 44 40t48.5 26.5t47.5 15t40 4.5q23 0 38 -1.5t27 -4t22 -6.5l23 -9v209h117v-667h-114zM382 352q-17 14 -39.5 19.5t-57.5 5.5t-58 -13.5t-40 -35.5
q-15 -20 -23.5 -46.5t-8.5 -55.5q0 -60 30 -100t87 -40q30 0 51 11.5t34 29.5t19 39.5t6 41.5v144z" />
    <glyph glyph-name="e" unicode="e" horiz-adv-x="538" 
d="M499 68l-16.5 -16.5t-39 -28.5t-65 -27t-94.5 -12q-56 0 -102 19t-78.5 52.5t-50 80.5t-17.5 104q0 52 17.5 96.5t49 77.5t75 52t96.5 19q64 0 108.5 -23.5t71.5 -61.5t39 -86t12 -98v-17h-350q0 -26 11.5 -47t30 -36t42 -23t46.5 -8q34 0 59.5 6.5t43.5 15t29.5 18
t17.5 15.5zM384 284q0 18 -7 36t-20.5 32.5t-34.5 24t-48 9.5q-29 0 -51.5 -9.5t-37.5 -24t-23 -32.5t-8 -36h230z" />
    <glyph glyph-name="f" unicode="f" horiz-adv-x="340" 
d="M93 373h-80v96h80v29q0 51 16 86.5t41 58t56 32.5t61 10q32 0 71 -9t75 -40l-55 -78q-16 11 -34.5 18t-37.5 7q-35 0 -55.5 -22.5t-20.5 -64.5v-27h121v-96h-120v-373h-118v373z" />
    <glyph glyph-name="g" unicode="g" horiz-adv-x="555" 
d="M134 -76q28 -19 60.5 -27.5t76.5 -8.5q46 0 77 28t31 78v51q-24 -20 -52.5 -32.5t-75.5 -12.5q-51 0 -90.5 17t-67.5 47.5t-42.5 72t-14.5 91.5q0 52 18.5 98t53 80t83.5 53.5t110 19.5t112.5 -10t83.5 -21v-456q0 -49 -17 -87t-47 -64t-71 -39.5t-89 -13.5
q-37 0 -65.5 3.5t-51 9.5t-41 15t-34.5 21zM379 367q-14 5 -29 7.5t-47 2.5q-36 0 -63 -12t-46 -32t-28.5 -46.5t-9.5 -55.5q0 -54 27 -91t87 -37q54 0 81.5 23t27.5 73v168z" />
    <glyph glyph-name="h" unicode="h" horiz-adv-x="551" 
d="M58 667h116v-246q18 20 52.5 39t88.5 19q43 0 77 -14t56.5 -39.5t34.5 -61.5t12 -79v-285h-118v284q0 45 -24.5 69.5t-63.5 24.5q-24 0 -45 -9.5t-36 -26.5t-23.5 -39.5t-8.5 -48.5v-254h-118v667z" />
    <glyph glyph-name="i" unicode="i" horiz-adv-x="244" 
d="M59 667h126v-124h-126v124zM63 469h118v-469h-118v469z" />
    <glyph glyph-name="j" unicode="j" horiz-adv-x="244" 
d="M58 667h126v-124h-126v124zM-43 -83q9 -5 22 -10.5t32 -5.5q23 0 37.5 19t14.5 56v493h118v-470q0 -35 -5.5 -70t-22 -64t-46.5 -47t-80 -18q-42 0 -69.5 12.5t-44.5 24.5z" />
    <glyph glyph-name="k" unicode="k" horiz-adv-x="512" 
d="M58 667h118v-364l169 166h139l-176 -173l196 -296h-141l-136 216l-51 -50v-166h-118v667z" />
    <glyph glyph-name="l" unicode="l" horiz-adv-x="234" 
d="M58 667h118v-667h-118v667z" />
    <glyph glyph-name="m" unicode="m" horiz-adv-x="852" 
d="M58 469h113l3 -53q9 10 20.5 21.5t28 20.5t38 15t49.5 6q93 0 141 -68q36 37 73.5 52.5t87.5 15.5q89 0 136.5 -52.5t47.5 -141.5v-285h-118v284q0 45 -22.5 69.5t-61.5 24.5q-24 0 -44 -9.5t-34.5 -26.5t-22 -39.5t-7.5 -48.5v-254h-118v284q0 45 -22.5 69.5t-61.5 24.5
q-24 0 -44 -9.5t-34.5 -26.5t-22 -39.5t-7.5 -48.5v-254h-118v469z" />
    <glyph glyph-name="n" unicode="n" horiz-adv-x="551" 
d="M58 469h113l3 -53q9 10 21.5 21t30 20.5t39.5 15.5t50 6q88 0 134 -52.5t46 -141.5v-285h-118v284q0 45 -24.5 69.5t-63.5 24.5q-24 0 -45 -9.5t-36 -26.5t-23.5 -39.5t-8.5 -48.5v-254h-118v469z" />
    <glyph glyph-name="o" unicode="o" horiz-adv-x="576" 
d="M36 235q0 51 18.5 96.5t51.5 79.5t79.5 54t102.5 20t102.5 -20t79.5 -54t51.5 -79.5t18.5 -96.5t-18.5 -96.5t-51.5 -80t-79.5 -54.5t-102.5 -20t-102.5 20t-79.5 54.5t-51.5 80t-18.5 96.5zM288 86q34 0 59 13.5t41.5 35.5t24.5 48t8 52q0 25 -8 51.5t-24.5 48t-41.5 35
t-59 13.5t-59 -13.5t-41.5 -35t-24.5 -48t-8 -51.5q0 -26 8 -52t24.5 -48t41.5 -35.5t59 -13.5z" />
    <glyph glyph-name="p" unicode="p" horiz-adv-x="571" 
d="M58 469h114l3 -53q9 10 22.5 21t32 20t42 15t52.5 6q54 0 93.5 -21t65.5 -55.5t39 -78.5t13 -91q0 -55 -16 -94t-40 -68q-40 -48 -87.5 -67t-97.5 -19q-23 0 -39.5 2t-30 5.5t-25 8l-24.5 9.5v-209h-117v669zM175 115q35 -29 106 -29q32 0 57 12.5t42.5 33t26.5 46.5
t9 54q0 30 -6.5 56t-21 45.5t-37.5 31t-57 11.5q-27 0 -49 -11.5t-37.5 -29.5t-24 -39.5t-8.5 -41.5v-139z" />
    <glyph glyph-name="q" unicode="q" horiz-adv-x="555" 
d="M379 27q-14 -14 -43.5 -28.5t-73.5 -14.5q-55 0 -97 19.5t-70.5 53t-43.5 77.5t-15 94q0 52 18.5 98t53 80t83.5 53.5t110 19.5t112.5 -10t83.5 -21v-648h-118v227zM379 367q-14 5 -29 7.5t-47 2.5q-39 0 -67 -11.5t-45.5 -31t-26 -46.5t-8.5 -57q0 -27 6.5 -53t20.5 -46
t35.5 -32.5t51.5 -12.5q54 0 81.5 24t27.5 84v172z" />
    <glyph glyph-name="r" unicode="r" horiz-adv-x="382" 
d="M58 469h113l3 -59q8 10 20.5 22t29.5 22t39.5 17t51.5 7q17 0 30.5 -2t27.5 -7l-24 -111q-12 5 -24.5 7t-29.5 2q-24 0 -46 -8t-38 -23t-25.5 -36t-9.5 -47v-253h-118v469z" />
    <glyph glyph-name="s" unicode="s" horiz-adv-x="478" 
d="M106 134q22 -22 55.5 -36.5t76.5 -14.5q38 0 61 10t23 33q0 10 -4 18.5t-17 16.5t-36 16t-62 17q-24 6 -50 16t-48.5 27.5t-37 42t-14.5 58.5q0 35 17 62.5t44.5 46t62 28.5t69.5 10q62 0 105.5 -13t78.5 -39l-61 -83q-19 14 -50 25.5t-73 11.5t-58.5 -12.5t-16.5 -30.5
q0 -22 27.5 -34.5t85.5 -26.5q36 -8 64.5 -20t49 -30t31.5 -42.5t11 -58.5t-16 -61.5t-43.5 -46.5t-64 -29.5t-77.5 -10.5q-66 0 -119 18.5t-85 54.5z" />
    <glyph glyph-name="t" unicode="t" horiz-adv-x="402" 
d="M98 373h-80v96h80v152h118v-152h126v-96h-126v-205q0 -40 13.5 -61.5t43.5 -21.5q28 0 44.5 8t31.5 19l50 -73q-35 -29 -69 -41.5t-76 -12.5q-43 0 -73 12.5t-48.5 35.5t-26.5 55.5t-8 71.5v213z" />
    <glyph glyph-name="u" unicode="u" horiz-adv-x="551" 
d="M56 469h118v-284q0 -45 24.5 -69.5t63.5 -24.5q24 0 45 9.5t36 26.5t23.5 39.5t8.5 48.5v254h118v-469h-113l-3 53q-9 -10 -22 -21t-30 -20.5t-39 -15.5t-50 -6q-88 0 -134 52.5t-46 141.5v285z" />
    <glyph glyph-name="v" unicode="v" horiz-adv-x="527" 
d="M5 469h136l126 -336l126 336h129l-198 -469h-120z" />
    <glyph glyph-name="w" unicode="w" horiz-adv-x="749" 
d="M9 469h130l90 -326l99 326h99l100 -326l89 326h124l-159 -469h-114l-96 283l-93 -283h-110z" />
    <glyph glyph-name="x" unicode="x" horiz-adv-x="507" 
d="M183 237l-170 232h149l94 -136l95 136h133l-165 -220l183 -249h-149l-107 153l-108 -153h-133z" />
    <glyph glyph-name="y" unicode="y" horiz-adv-x="527" 
d="M77 -93q10 -8 22 -15.5t30 -7.5q24 0 39.5 20t32.5 62l15 38l-211 465h136l134 -321l118 321h129l-196 -469l-28 -72t-34.5 -68.5t-50.5 -51.5t-76 -20q-40 0 -66.5 9.5t-46.5 26.5z" />
    <glyph glyph-name="z" unicode="z" horiz-adv-x="472" 
d="M46 90l239 280h-232v99h379v-92l-247 -281h247v-96h-386v90z" />
    <glyph glyph-name="braceleft" unicode="{" horiz-adv-x="304" 
d="M104 199q-2 31 -18.5 52t-54.5 21v70q38 0 54.5 21t18.5 52l14 170q4 44 15 73t34 48h124q-18 -18 -32 -49.5t-16 -60.5l-16 -195q-3 -36 -22.5 -61t-47.5 -33q28 -8 47.5 -33t22.5 -61l16 -195q2 -29 16 -61t32 -50h-124q-23 19 -34 48.5t-15 73.5z" />
    <glyph glyph-name="bar" unicode="|" horiz-adv-x="245" 
d="M68 833h109v-997h-109v997z" />
    <glyph glyph-name="braceright" unicode="}" horiz-adv-x="304" 
d="M13 -93q18 18 32 50t16 61l16 195q3 36 22.5 61t47.5 33q-28 8 -47.5 33t-22.5 61l-16 195q-2 29 -16 60.5t-32 49.5h124q23 -19 34 -48t15 -73l14 -170q2 -31 18.5 -52t54.5 -21v-70q-38 0 -54.5 -21t-18.5 -52l-14 -170q-4 -44 -15 -73.5t-34 -48.5h-124z" />
    <glyph glyph-name="asciitilde" unicode="~" horiz-adv-x="499" 
d="M38 314q9 10 23 21.5t31 21t37 16t42 6.5q23 0 40 -7t32.5 -16t32 -16t38.5 -7q18 0 33 4.5t26.5 10.5t20.5 13t17 12l50 -76q-9 -10 -22.5 -22t-30.5 -22t-37 -16.5t-42 -6.5q-23 0 -40 7.5t-33 16.5t-32.5 16.5t-38.5 7.5q-37 0 -59.5 -14.5t-37.5 -25.5z" />
    <glyph glyph-name="Euro" unicode="&#x20ac;" horiz-adv-x="545" 
d="M56 280h55q-1 10 -1 20v21v19t1 19h-78l23 74h66q12 47 33.5 86.5t52.5 68.5t71 45t90 16q61 0 102 -20.5t74 -52.5l-63 -80q-23 23 -47.5 33.5t-62.5 10.5q-52 0 -83 -29.5t-45 -77.5h189l-23 -74h-179q-1 -10 -1 -19v-19v-21t1 -20h192l-23 -74h-155q14 -48 45 -77
t82 -29q38 0 62.5 10.5t47.5 33.5l63 -80q-33 -32 -74 -52.5t-102 -20.5q-49 0 -89.5 16t-71 44.5t-52 68t-33.5 86.5h-90z" />
    <glyph glyph-name="uni20BA" unicode="&#x20ba;" horiz-adv-x="545" 
d="M43 191l-31 67l91 42v78l-60 -28l-31 67l91 42v171h117v-116l119 55l31 -67l-150 -70v-77l119 55l31 -67l-150 -70v-166q84 2 129 50t65 129l108 -28q-29 -128 -111 -193t-199 -65h-109v219z" />
    <glyph glyph-name="quotesinglbase" unicode="&#x201a;" horiz-adv-x="283" 
d="M90 139h135l-68 -211h-89z" />
    <glyph glyph-name="florin" unicode="&#x192;" horiz-adv-x="545" 
d="M-10 -61q16 -15 34 -21.5t34 -6.5q34 0 53 16.5t29 70.5l54 296h-87v98h105l13 73q7 40 21.5 73.5t37.5 58t56.5 38t79.5 13.5q43 0 77.5 -12t60.5 -41l-62 -85q-17 15 -35.5 21.5t-34.5 6.5q-34 0 -53 -17t-29 -71l-11 -58h100v-98h-118l-56 -311q-8 -40 -22 -73.5
t-38 -58t-58 -38t-82 -13.5q-11 0 -27 2t-34 7.5t-36.5 15t-35.5 23.5z" />
    <glyph glyph-name="quotedblbase" unicode="&#x201e;" horiz-adv-x="476" 
d="M90 139h135l-68 -211h-89zM283 139h135l-68 -211h-89z" />
    <glyph glyph-name="ellipsis" unicode="&#x2026;" horiz-adv-x="793" 
d="M325 138h143v-138h-143v138zM585 138h143v-138h-143v138zM66 138h143v-138h-143v138z" />
    <glyph glyph-name="dagger" unicode="&#x2020;" horiz-adv-x="529" 
d="M207 383h-149v96h149v188h115v-188h149v-96h-149v-504h-115v504z" />
    <glyph glyph-name="daggerdbl" unicode="&#x2021;" horiz-adv-x="539" 
d="M212 67h-149v96h149v220h-149v96h149v188h115v-188h149v-96h-149v-220h149v-96h-149v-188h-115v188z" />
    <glyph glyph-name="circumflex" unicode="&#x2c6;" horiz-adv-x="449" 
d="M169 682h111l104 -142h-104l-56 76l-55 -76h-104z" />
    <glyph glyph-name="perthousand" unicode="&#x2030;" horiz-adv-x="1306" 
d="M609 630h107l-406 -630h-107zM210 285q-69 0 -114 45.5t-45 135.5t45 135.5t114 45.5t114 -45.5t45 -135.5t-45 -135.5t-114 -45.5zM210 364q11 0 22 5t19.5 17t14 31.5t5.5 48.5t-5.5 48.5t-14 31.5t-19.5 17t-22 5t-22 -5t-19.5 -17t-14 -31.5t-5.5 -48.5t5.5 -48.5
t14 -31.5t19.5 -17t22 -5zM715 -9q-69 0 -114 45.5t-45 135.5t45 135.5t114 45.5t114 -45.5t45 -135.5t-45 -135.5t-114 -45.5zM715 70q11 0 22 5t19.5 17t14 31.5t5.5 48.5t-5.5 48.5t-14 31.5t-19.5 17t-22 5t-22 -5t-19.5 -17t-14 -31.5t-5.5 -48.5t5.5 -48.5t14 -31.5
t19.5 -17t22 -5zM1096 -9q-69 0 -114 45.5t-45 135.5t45 135.5t114 45.5t114 -45.5t45 -135.5t-45 -135.5t-114 -45.5zM1096 70q11 0 22 5t19.5 17t14 31.5t5.5 48.5t-5.5 48.5t-14 31.5t-19.5 17t-22 5t-22 -5t-19.5 -17t-14 -31.5t-5.5 -48.5t5.5 -48.5t14 -31.5t19.5 -17
t22 -5z" />
    <glyph glyph-name="Scaron" unicode="&#x160;" horiz-adv-x="593" 
d="M119 188q12 -14 28.5 -29.5t37 -29t46 -22.5t57.5 -9q59 0 87.5 27t28.5 65q0 21 -8 37.5t-27 29t-49.5 22.5t-75.5 19q-46 9 -79.5 28t-55.5 45t-33 57.5t-11 64.5q0 38 14 72.5t43 61t72.5 42.5t102.5 16q53 0 91 -12t63.5 -28t39.5 -31.5l20 -22.5l-83 -78
q-5 4 -16 14.5t-27.5 20.5t-39.5 18t-52 8q-26 0 -45 -7t-31.5 -18t-18.5 -24.5t-6 -25.5q0 -18 6.5 -32t22 -26t42.5 -21.5t68 -17.5q39 -8 75 -24t63.5 -41.5t44 -62t16.5 -87.5q0 -44 -18 -81t-50 -65t-76 -43.5t-96 -15.5q-50 0 -90.5 12t-73 30.5t-56 40.5t-39.5 42z
M133 873h104l62 -82l61 82h104l-110 -156h-111z" />
    <glyph glyph-name="guilsinglleft" unicode="&#x2039;" horiz-adv-x="340" 
d="M58 241l104 194h115l-99 -194l99 -194h-115z" />
    <glyph glyph-name="OE" unicode="&#x152;" horiz-adv-x="1104" 
d="M606 83q-16 -23 -39.5 -41.5t-52 -31.5t-61.5 -20.5t-68 -7.5q-71 0 -133 27.5t-108.5 75.5t-73 112t-26.5 137t26.5 137t73 111.5t108.5 75t133 27.5q72 0 130.5 -28t90.5 -71v81h432v-111h-310v-157h229v-112h-229v-174h333v-113h-455v83zM391 101q49 0 88.5 19
t67.5 51.5t43 75.5t15 90q0 48 -15 90.5t-43 74.5t-68 50.5t-89 18.5q-50 0 -89.5 -18.5t-67.5 -50.5t-43 -74.5t-15 -90.5q0 -47 15 -90t43.5 -75.5t68 -51.5t89.5 -19z" />
    <glyph glyph-name="quoteleft" unicode="&#x2018;" horiz-adv-x="268" 
d="M116 666h89l-22 -211h-135z" />
    <glyph glyph-name="quoteright" unicode="&#x2019;" horiz-adv-x="268" 
d="M85 666h135l-68 -211h-89z" />
    <glyph glyph-name="quotedblleft" unicode="&#x201c;" horiz-adv-x="458" 
d="M116 666h89l-22 -211h-135zM306 666h89l-22 -211h-135z" />
    <glyph glyph-name="quotedblright" unicode="&#x201d;" horiz-adv-x="458" 
d="M85 666h135l-68 -211h-89zM275 666h135l-68 -211h-89z" />
    <glyph glyph-name="bullet" unicode="&#x2022;" horiz-adv-x="438" 
d="M83 343q0 28 10.5 53t29 43.5t43.5 29t53 10.5t53 -10.5t43.5 -29t29 -43.5t10.5 -53t-10.5 -53t-29 -43.5t-43.5 -29t-53 -10.5t-53 10.5t-43.5 29t-29 43.5t-10.5 53z" />
    <glyph glyph-name="endash" unicode="&#x2013;" horiz-adv-x="500" 
d="M0 336h500v-112h-500v112z" />
    <glyph glyph-name="emdash" unicode="&#x2014;" horiz-adv-x="1000" 
d="M0 336h1000v-112h-1000v112z" />
    <glyph glyph-name="tilde" unicode="&#x2dc;" horiz-adv-x="462" 
d="M38 615q8 9 20.5 19t28 18.5t34 14.5t38.5 6q21 0 36 -6.5t29 -14t29 -14t35 -6.5q34 0 54 13t34 23l45 -70q-8 -9 -20.5 -19.5t-27.5 -19.5t-33.5 -15t-38.5 -6q-21 0 -36.5 6.5t-29.5 15t-29 15t-35 6.5q-34 0 -54 -13t-34 -23z" />
    <glyph glyph-name="trademark" unicode="&#x2122;" horiz-adv-x="861" 
d="M433 667h80l106 -163l104 163h85l12 -383h-87l-7 249l-93 -152h-32l-89 142l-7 -239h-84zM161 584h-128v83h352v-83h-128v-300h-96v300z" />
    <glyph glyph-name="scaron" unicode="&#x161;" horiz-adv-x="478" 
d="M106 134q22 -22 55.5 -36.5t76.5 -14.5q38 0 61 10t23 33q0 10 -4 18.5t-17 16.5t-36 16t-62 17q-24 6 -50 16t-48.5 27.5t-37 42t-14.5 58.5q0 35 17 62.5t44.5 46t62 28.5t69.5 10q62 0 105.5 -13t78.5 -39l-61 -83q-19 14 -50 25.5t-73 11.5t-58.5 -12.5t-16.5 -30.5
q0 -22 27.5 -34.5t85.5 -26.5q36 -8 64.5 -20t49 -30t31.5 -42.5t11 -58.5t-16 -61.5t-43.5 -46.5t-64 -29.5t-77.5 -10.5q-66 0 -119 18.5t-85 54.5zM95 682h104l56 -76l55 76h104l-104 -142h-111z" />
    <glyph glyph-name="guilsinglright" unicode="&#x203a;" horiz-adv-x="340" 
d="M162 241l-99 194h115l104 -194l-104 -194h-115z" />
    <glyph glyph-name="oe" unicode="&#x153;" horiz-adv-x="922" 
d="M883 68l-16.5 -16.5t-39 -28.5t-65 -27t-94.5 -12q-62 0 -110.5 24t-81.5 69q-30 -42 -79.5 -67.5t-108.5 -25.5q-56 0 -102.5 20t-79.5 54.5t-51.5 80t-18.5 96.5t18.5 96.5t51.5 79.5t79.5 54t102.5 20q58 0 106.5 -25t79.5 -65q32 43 78.5 66.5t105.5 23.5
q64 0 108.5 -23.5t71.5 -61.5t39 -86t12 -98v-17h-350q0 -26 11.5 -47t30 -36t42 -23t46.5 -8q34 0 59.5 6.5t43.5 15t29.5 18t17.5 15.5zM768 284q0 18 -7 36t-20.5 32.5t-34.5 24t-48 9.5q-29 0 -51.5 -9.5t-37.5 -24t-23 -32.5t-8 -36h230zM288 86q34 0 59 13.5
t41.5 35.5t24.5 48t8 52q0 25 -8 51.5t-24.5 48t-41.5 35t-59 13.5t-59 -13.5t-41.5 -35t-24.5 -48t-8 -51.5q0 -26 8 -52t24.5 -48t41.5 -35.5t59 -13.5z" />
    <glyph glyph-name="Ydieresis" unicode="&#x178;" horiz-adv-x="600" 
d="M236 293l-231 374h138l160 -266l160 266h132l-231 -374v-293h-128v293zM347 854h123v-117h-123v117zM134 854h123v-117h-123v117z" />
    <glyph glyph-name="uni00A0" unicode="&#xa0;" horiz-adv-x="181" 
 />
    <glyph glyph-name="exclamdown" unicode="&#xa1;" horiz-adv-x="279" 
d="M76 260h127l2 -458h-131zM68 469h143v-138h-143v138z" />
    <glyph glyph-name="cent" unicode="&#xa2;" horiz-adv-x="545" 
d="M277 67q-49 7 -87 28.5t-64.5 54t-40 74.5t-13.5 90q0 45 14.5 86.5t41.5 74t64.5 55t84.5 30.5v89h75v-87q48 -5 87.5 -24t68.5 -50l-75 -76q-16 18 -36 30.5t-45 17.5v-291q52 9 85 48l70 -76q-29 -32 -67.5 -51.5t-87.5 -24.5v-84h-75v86zM277 453q-44 -17 -65 -57
t-21 -82q0 -19 5.5 -39.5t16 -39.5t26.5 -35t38 -25v278z" />
    <glyph glyph-name="sterling" unicode="&#xa3;" horiz-adv-x="545" 
d="M117 269h-76v96h76v77q0 27 9 63t32.5 67.5t64.5 53.5t106 22q39 0 68 -8t50.5 -19t37 -24.5l26.5 -23.5l-77 -83q-11 11 -21.5 19.5t-22 14.5t-26 9.5t-33.5 3.5q-24 0 -41 -10t-27.5 -27t-15 -38.5t-4.5 -43.5v-53h194v-96h-194v-157h274v-112h-400v269z" />
    <glyph glyph-name="currency" unicode="&#xa4;" horiz-adv-x="545" 
d="M95 226q-28 47 -28 103q0 55 28 103l-63 64l69 69l63 -63q23 15 50.5 23.5t57.5 8.5q29 0 56.5 -8.5t51.5 -23.5l63 63l69 -69l-64 -64q14 -23 21.5 -49t7.5 -54q0 -29 -7.5 -54.5t-21.5 -48.5l64 -64l-69 -69l-63 62q-50 -31 -108 -31q-60 0 -108 31l-63 -62l-69 69z
M163 329q0 -23 8.5 -42.5t23.5 -34.5t34.5 -23.5t42.5 -8.5q22 0 42 8.5t35 23.5t23.5 34.5t8.5 42.5q0 22 -8.5 42t-23.5 35t-35 23.5t-42 8.5q-23 0 -42.5 -8.5t-34.5 -23.5t-23.5 -35t-8.5 -42z" />
    <glyph glyph-name="yen" unicode="&#xa5;" horiz-adv-x="545" 
d="M74 190h139v77h-139v74h97l-165 290h138l132 -266l131 266h132l-165 -290h108v-74h-149v-77h149v-74h-149v-116h-120v116h-139v74z" />
    <glyph glyph-name="brokenbar" unicode="&#xa6;" horiz-adv-x="245" 
d="M68 215h109v-379h-109v379zM68 833h109v-379h-109v379z" />
    <glyph glyph-name="section" unicode="&#xa7;" horiz-adv-x="452" 
d="M141 327q-50 32 -73.5 76.5t-22.5 91.5q0 36 12.5 70.5t37 61t61 42.5t83.5 16q27 0 50 -6.5t41.5 -15.5t32.5 -18.5t22 -15.5l-57 -86q-26 18 -46 26.5t-45 8.5q-18 0 -32.5 -6.5t-24 -16.5t-15 -23t-5.5 -25q0 -11 1.5 -21.5t7 -21t16 -21t28.5 -22.5l193 -131l-64 -95
zM114 -70q26 -18 46 -26.5t45 -8.5q18 0 32.5 6.5t24 16.5t15 23t5.5 25q0 22 -8.5 42t-44.5 44l-193 131l64 95l201 -132q50 -32 73.5 -76.5t22.5 -91.5q0 -36 -12.5 -70.5t-37 -61t-61 -42.5t-83.5 -16q-27 0 -50 6.5t-41.5 15.5t-32.5 18.5t-22 15.5z" />
    <glyph glyph-name="dieresis" unicode="&#xa8;" horiz-adv-x="346" 
d="M207 666h115v-109h-115v109zM22 666h115v-109h-115v109z" />
    <glyph glyph-name="copyright" unicode="&#xa9;" horiz-adv-x="809" 
d="M404 -14q-73 0 -136 27t-109.5 74.5t-73.5 111t-27 136.5t27 136.5t73.5 110.5t110 74.5t136.5 27.5t136 -27.5t109.5 -74.5t73.5 -110.5t27 -136.5t-27 -136.5t-74 -111t-110 -74.5t-136 -27zM404 69q55 0 102 20.5t81.5 56t54 84t19.5 105.5q0 56 -19.5 104.5t-54 84.5
t-81.5 56.5t-101 20.5q-55 0 -102 -20.5t-81.5 -56.5t-54.5 -84.5t-20 -104.5q0 -57 19.5 -105.5t54 -84t81.5 -56t102 -20.5zM562 227q-23 -33 -62 -56.5t-90 -23.5q-43 0 -78 14.5t-60 40t-38.5 60.5t-13.5 76q0 39 14 73.5t39.5 60t60 40.5t76.5 15q51 0 90 -23.5
t62 -56.5l-65 -50q-12 17 -32.5 32t-49.5 15q-47 0 -74.5 -31t-27.5 -76q0 -21 7.5 -40t21 -33.5t32 -23t41.5 -8.5q29 0 49.5 15t32.5 32z" />
    <glyph glyph-name="ordfeminine" unicode="&#xaa;" horiz-adv-x="379" 
d="M48 606q25 19 55 30.5t83 11.5q63 0 100.5 -33t37.5 -85v-208h-81q-1 5 -1 9t-0.5 8t-0.5 8q-12 -12 -36.5 -22.5t-47.5 -10.5q-22 0 -43 5.5t-37.5 18t-27 32t-10.5 46.5q0 56 39 81.5t102 25.5q26 0 61 -3v8q0 20 -13.5 33.5t-44.5 13.5q-35 0 -55 -9t-38 -20zM241 454
q-10 2 -27 2.5t-28 0.5q-35 0 -50.5 -10.5t-15.5 -27.5q0 -20 13 -27.5t41 -7.5q27 0 47 16t20 36v18z" />
    <glyph glyph-name="guillemotleft" unicode="&#xab;" horiz-adv-x="536" 
d="M58 241l104 194h115l-99 -194l99 -194h-115zM254 241l104 194h115l-99 -194l99 -194h-115z" />
    <glyph glyph-name="logicalnot" unicode="&#xac;" horiz-adv-x="545" 
d="M74 371h398v-245h-100v146h-298v99z" />
    <glyph glyph-name="uni00AD" unicode="&#xad;" horiz-adv-x="441" 
d="M68 335h305v-112h-305v112z" />
    <glyph glyph-name="registered" unicode="&#xae;" horiz-adv-x="809" 
d="M274 511h145q35 0 59.5 -10t40 -25.5t22.5 -34t7 -34.5q0 -30 -15.5 -56.5t-47.5 -41.5l83 -143h-92l-75 131h-44v-131h-83v345zM416 361q27 0 37.5 11.5t10.5 28.5q0 20 -11 31t-37 11h-59v-82h59zM404 -14q-73 0 -136 27t-109.5 74.5t-73.5 111t-27 136.5t27 136.5
t73.5 110.5t110 74.5t136.5 27.5t136 -27.5t109.5 -74.5t73.5 -110.5t27 -136.5t-27 -136.5t-74 -111t-110 -74.5t-136 -27zM404 69q55 0 102 20.5t81.5 56t54 84t19.5 105.5q0 56 -19.5 104.5t-54 84.5t-81.5 56.5t-101 20.5q-55 0 -102 -20.5t-81.5 -56.5t-54.5 -84.5
t-20 -104.5q0 -57 19.5 -105.5t54 -84t81.5 -56t102 -20.5z" />
    <glyph glyph-name="macron" unicode="&#xaf;" horiz-adv-x="347" 
d="M43 649h261v-92h-261v92z" />
    <glyph glyph-name="degree" unicode="&#xb0;" horiz-adv-x="337" 
d="M28 530q0 30 11 55t30 43t44.5 28.5t54.5 10.5q30 0 55.5 -10.5t44.5 -28.5t30 -43t11 -54q0 -30 -11 -55t-30 -43t-44.5 -28.5t-54.5 -10.5q-30 0 -55.5 10.5t-44.5 28.5t-30 43t-11 54zM169 467q27 0 44.5 18t17.5 46q0 27 -17.5 45t-45.5 18q-27 0 -44.5 -18
t-17.5 -46q0 -27 17.5 -45t45.5 -18z" />
    <glyph glyph-name="plusminus" unicode="&#xb1;" horiz-adv-x="545" 
d="M74 371h149v147h100v-147h149v-99h-149v-136h-100v136h-149v99zM74 99h398v-99h-398v99z" />
    <glyph glyph-name="acute" unicode="&#xb4;" horiz-adv-x="502" 
d="M259 682h126l-79 -142h-95z" />
    <glyph glyph-name="mu" unicode="&#xb5;" horiz-adv-x="551" 
d="M59 469h118v-284q0 -45 24.5 -69.5t63.5 -24.5q49 0 81 33.5t32 85.5v259h118v-469h-113l-3 48q-18 -20 -50 -39t-77 -19q-20 0 -36.5 5t-39.5 19v-214h-118v669z" />
    <glyph glyph-name="paragraph" unicode="&#xb6;" horiz-adv-x="557" 
d="M362 667h122v-789h-122v789zM273 299q-50 0 -93 9t-74.5 30.5t-49.5 56.5t-18 88q0 52 18 87.5t49.5 57t74.5 30.5t93 9h30v-368h-30zM183 255q20 -6 44.5 -8t45.5 -2h30v-367h-120v377z" />
    <glyph glyph-name="periodcentered" unicode="&#xb7;" horiz-adv-x="279" 
d="M68 392h143v-138h-143v138z" />
    <glyph glyph-name="cedilla" unicode="&#xb8;" horiz-adv-x="705" 
d="M105 -131q19 -7 36 -9.5t33 -2.5q58 0 58 32q0 12 -12.5 21t-41.5 9q-17 0 -33.5 -3t-29.5 -8l11 67q18 5 36.5 8.5t47.5 3.5q54 0 84.5 -26t30.5 -67q0 -26 -11 -46t-29.5 -33.5t-42 -20t-48.5 -6.5q-24 0 -42.5 2t-32.5 5q-16 3 -27 7z" />
    <glyph glyph-name="ordmasculine" unicode="&#xba;" horiz-adv-x="423" 
d="M43 481q0 36 12.5 66.5t35 53t53.5 35t68 12.5q36 0 67 -12.5t53.5 -35t35 -53t12.5 -66.5t-12.5 -66.5t-35 -53t-53.5 -35t-67 -12.5q-37 0 -68 12.5t-53.5 35t-35 53t-12.5 66.5zM212 394q38 0 57 26t19 61t-19 61t-57 26t-57.5 -26t-19.5 -61t19.5 -61t57.5 -26z" />
    <glyph glyph-name="guillemotright" unicode="&#xbb;" horiz-adv-x="536" 
d="M358 241l-99 194h115l104 -194l-104 -194h-115zM162 241l-99 194h115l104 -194l-104 -194h-115z" />
    <glyph glyph-name="onequarter" unicode="&#xbc;" horiz-adv-x="925" 
d="M200 533l-78 -39l-36 72l126 71h86v-342h-98v238zM616 630h107l-406 -630h-107zM535 132l172 211h96v-211h41v-71h-41v-60h-87v60h-181v71zM716 132v122l-103 -122h103z" />
    <glyph glyph-name="onehalf" unicode="&#xbd;" horiz-adv-x="925" 
d="M180 533l-78 -39l-36 72l126 71h86v-342h-98v238zM596 630h107l-406 -630h-107zM591 46q0 26 12.5 46.5t30.5 37.5t40 31l40 26.5t30.5 24.5t12.5 25q0 18 -11 25.5t-28 7.5q-23 0 -50 -11t-47 -24l-36 70q25 17 63 32.5t82 15.5q66 0 97 -30.5t31 -75.5q0 -36 -17 -58.5
t-41 -39.5t-51 -32t-47 -36h157v-80h-268v45z" />
    <glyph glyph-name="threequarters" unicode="&#xbe;" horiz-adv-x="925" 
d="M114 395q18 -14 40.5 -23t47.5 -9q24 0 39 10t15 31q0 26 -19 34t-47 8q-13 0 -26 -2t-23 -5l-16 35l106 84h-133v79h240v-76l-77 -61q52 -10 71.5 -39t19.5 -67q0 -48 -40.5 -78.5t-108.5 -30.5q-42 0 -75.5 11.5t-57.5 30.5zM634 630h107l-406 -630h-107zM553 132
l172 211h96v-211h41v-71h-41v-60h-87v60h-181v71zM734 132v122l-103 -122h103z" />
    <glyph glyph-name="questiondown" unicode="&#xbf;" horiz-adv-x="512" 
d="M229 469h143v-138h-143v138zM489 -117q-5 -7 -20 -23t-41 -32.5t-64.5 -29.5t-89.5 -13q-49 0 -87 14t-64.5 38t-40.5 55.5t-14 65.5q0 56 22 91t66 67l38 28t26.5 25.5t15.5 29.5t5 39v22h120v-22q0 -19 -2.5 -40.5t-10.5 -44t-25 -44.5t-45 -42l-32 -23t-29 -25
t-21 -27.5t-8 -30.5q0 -30 23 -49.5t64 -19.5q27 0 50 8t40.5 18t29 20t16.5 15z" />
    <glyph glyph-name="Agrave" unicode="&#xc0;" horiz-adv-x="646" 
d="M258 667h130l253 -667h-140l-58 169h-248l-58 -169h-132zM407 273l-88 259l-89 -259h177zM179 873h146l73 -156h-105z" />
    <glyph glyph-name="Aacute" unicode="&#xc1;" horiz-adv-x="646" 
d="M258 667h130l253 -667h-140l-58 169h-248l-58 -169h-132zM407 273l-88 259l-89 -259h177zM338 873h146l-114 -156h-105z" />
    <glyph glyph-name="Acircumflex" unicode="&#xc2;" horiz-adv-x="646" 
d="M258 667h130l253 -667h-140l-58 169h-248l-58 -169h-132zM407 273l-88 259l-89 -259h177zM267 873h111l110 -156h-104l-62 82l-61 -82h-104z" />
    <glyph glyph-name="Atilde" unicode="&#xc3;" horiz-adv-x="646" 
d="M258 667h130l253 -667h-140l-58 169h-248l-58 -169h-132zM407 273l-88 259l-89 -259h177zM121 804q9 9 22 20t29.5 20t35.5 15t41 6t38 -6.5t30.5 -14.5t30 -14.5t36.5 -6.5q35 0 56.5 13t35.5 24l49 -75q-9 -9 -22 -20t-29 -20.5t-35 -16t-41 -6.5t-38 7t-31 15
t-30.5 15t-36.5 7q-35 0 -56.5 -13t-35.5 -24z" />
    <glyph glyph-name="Adieresis" unicode="&#xc4;" horiz-adv-x="646" 
d="M258 667h130l253 -667h-140l-58 169h-248l-58 -169h-132zM407 273l-88 259l-89 -259h177zM367 854h123v-117h-123v117zM154 854h123v-117h-123v117z" />
    <glyph glyph-name="Aring" unicode="&#xc5;" horiz-adv-x="646" 
d="M251 649q-26 17 -42 44.5t-16 62.5q0 28 10 51.5t28 40.5t42 26.5t51 9.5q28 0 52 -9.5t42 -26.5t28 -40.5t10 -50.5q0 -36 -16.5 -64t-44.5 -45l246 -648h-140l-58 169h-248l-58 -169h-132zM407 273l-88 259l-89 -259h177zM325 704q23 0 36.5 14.5t13.5 38.5
q0 23 -13.5 37.5t-37.5 14.5q-23 0 -36.5 -14.5t-13.5 -38.5q0 -23 13.5 -37.5t37.5 -14.5z" />
    <glyph glyph-name="AE" unicode="&#xc6;" horiz-adv-x="954" 
d="M383 667h505v-111h-308v-157h227v-112h-227v-174h331v-113h-455v169h-230l-97 -169h-129zM456 272v298l-171 -298h171z" />
    <glyph glyph-name="Ccedilla" unicode="&#xc7;" horiz-adv-x="680" 
d="M657 122q-15 -23 -41.5 -47t-62.5 -44.5t-79 -33.5t-91 -13q-75 0 -137 26t-107 72.5t-70 109.5t-25 138q0 73 25 137t70.5 112t108.5 76t139 28q49 0 90 -10.5t74.5 -28.5t59.5 -42.5t46 -52.5l-89 -79q-32 46 -74.5 74t-106.5 28q-49 0 -88 -19.5t-66.5 -52t-42 -76
t-14.5 -91.5t14.5 -90t41.5 -73t64.5 -49t84.5 -18q43 0 73.5 10t52 25t36 31.5t26.5 28.5zM264 -148q19 -7 36.5 -9.5t33.5 -2.5q26 0 41 7.5t15 22.5q0 12 -12.5 20.5t-39.5 8.5q-17 0 -34 -3t-30 -8l11 68q18 5 37 8.5t48 3.5q54 0 85.5 -26t31.5 -67q0 -26 -11.5 -46
t-30 -33.5t-42.5 -20t-49 -6.5q-24 0 -42.5 2t-32.5 5q-16 3 -28 7z" />
    <glyph glyph-name="Egrave" unicode="&#xc8;" horiz-adv-x="568" 
d="M70 667h432v-111h-306v-157h225v-112h-225v-174h329v-113h-455v667zM150 873h146l73 -156h-105z" />
    <glyph glyph-name="Eacute" unicode="&#xc9;" horiz-adv-x="568" 
d="M70 667h432v-111h-306v-157h225v-112h-225v-174h329v-113h-455v667zM303 873h146l-114 -156h-105z" />
    <glyph glyph-name="Ecircumflex" unicode="&#xca;" horiz-adv-x="568" 
d="M70 667h432v-111h-306v-157h225v-112h-225v-174h329v-113h-455v667zM230 873h111l110 -156h-104l-62 82l-61 -82h-104z" />
    <glyph glyph-name="Edieresis" unicode="&#xcb;" horiz-adv-x="568" 
d="M70 667h432v-111h-306v-157h225v-112h-225v-174h329v-113h-455v667zM330 854h123v-117h-123v117zM117 854h123v-117h-123v117z" />
    <glyph glyph-name="Igrave" unicode="&#xcc;" horiz-adv-x="266" 
d="M70 667h126v-667h-126v667zM-22 873h146l73 -156h-105z" />
    <glyph glyph-name="Iacute" unicode="&#xcd;" horiz-adv-x="266" 
d="M70 667h126v-667h-126v667zM143 873h146l-114 -156h-105z" />
    <glyph glyph-name="Icircumflex" unicode="&#xce;" horiz-adv-x="266" 
d="M70 667h126v-667h-126v667zM78 873h111l110 -156h-104l-62 82l-61 -82h-104z" />
    <glyph glyph-name="Idieresis" unicode="&#xcf;" horiz-adv-x="266" 
d="M70 667h126v-667h-126v667zM178 854h123v-117h-123v117zM-35 854h123v-117h-123v117z" />
    <glyph glyph-name="Eth" unicode="&#xd0;" horiz-adv-x="726" 
d="M70 287h-67v102h67v278h249q78 0 143 -20t112 -61t73 -105t26 -151q0 -83 -26.5 -144.5t-74 -103t-112.5 -62t-142 -20.5h-248v287zM310 113q114 0 174 55t60 161q0 105 -55.5 166t-178.5 61h-114v-167h155v-102h-155v-174h114z" />
    <glyph glyph-name="Ntilde" unicode="&#xd1;" horiz-adv-x="713" 
d="M70 667h127l323 -474v474h123v-667h-124l-326 480v-480h-123v667zM134 804q9 9 22 20t29.5 20t35.5 15t41 6t38 -6.5t30.5 -14.5t30 -14.5t36.5 -6.5q35 0 56.5 13t35.5 24l49 -75q-9 -9 -22 -20t-29 -20.5t-35 -16t-41 -6.5t-38 7t-31 15t-30.5 15t-36.5 7
q-35 0 -56.5 -13t-35.5 -24z" />
    <glyph glyph-name="Ograve" unicode="&#xd2;" horiz-adv-x="782" 
d="M391 -18q-73 0 -136 27.5t-110 75.5t-74 112t-27 137t27 137t73.5 111.5t110 75t136.5 27.5t136 -27.5t110 -75t74 -111.5t27 -137t-27 -137t-74 -112t-110 -75.5t-136 -27.5zM391 101q49 0 89 19t68 51.5t43 75.5t15 90q0 48 -15 90.5t-43 74.5t-68 50.5t-89 18.5
q-50 0 -89.5 -18.5t-67.5 -50.5t-43 -74.5t-15 -90.5q0 -47 15 -90t43 -75.5t67.5 -51.5t89.5 -19zM246 873h146l73 -156h-105z" />
    <glyph glyph-name="Oacute" unicode="&#xd3;" horiz-adv-x="782" 
d="M391 -18q-73 0 -136 27.5t-110 75.5t-74 112t-27 137t27 137t73.5 111.5t110 75t136.5 27.5t136 -27.5t110 -75t74 -111.5t27 -137t-27 -137t-74 -112t-110 -75.5t-136 -27.5zM391 101q49 0 89 19t68 51.5t43 75.5t15 90q0 48 -15 90.5t-43 74.5t-68 50.5t-89 18.5
q-50 0 -89.5 -18.5t-67.5 -50.5t-43 -74.5t-15 -90.5q0 -47 15 -90t43 -75.5t67.5 -51.5t89.5 -19zM401 873h146l-114 -156h-105z" />
    <glyph glyph-name="Ocircumflex" unicode="&#xd4;" horiz-adv-x="782" 
d="M391 -18q-73 0 -136 27.5t-110 75.5t-74 112t-27 137t27 137t73.5 111.5t110 75t136.5 27.5t136 -27.5t110 -75t74 -111.5t27 -137t-27 -137t-74 -112t-110 -75.5t-136 -27.5zM391 101q49 0 89 19t68 51.5t43 75.5t15 90q0 48 -15 90.5t-43 74.5t-68 50.5t-89 18.5
q-50 0 -89.5 -18.5t-67.5 -50.5t-43 -74.5t-15 -90.5q0 -47 15 -90t43 -75.5t67.5 -51.5t89.5 -19zM336 873h111l110 -156h-104l-62 82l-61 -82h-104z" />
    <glyph glyph-name="Otilde" unicode="&#xd5;" horiz-adv-x="782" 
d="M391 -18q-73 0 -136 27.5t-110 75.5t-74 112t-27 137t27 137t73.5 111.5t110 75t136.5 27.5t136 -27.5t110 -75t74 -111.5t27 -137t-27 -137t-74 -112t-110 -75.5t-136 -27.5zM391 101q49 0 89 19t68 51.5t43 75.5t15 90q0 48 -15 90.5t-43 74.5t-68 50.5t-89 18.5
q-50 0 -89.5 -18.5t-67.5 -50.5t-43 -74.5t-15 -90.5q0 -47 15 -90t43 -75.5t67.5 -51.5t89.5 -19zM190 804q9 9 22 20t29.5 20t35.5 15t41 6t38 -6.5t30.5 -14.5t30 -14.5t36.5 -6.5q35 0 56.5 13t35.5 24l49 -75q-9 -9 -22 -20t-29 -20.5t-35 -16t-41 -6.5t-38 7t-31 15
t-30.5 15t-36.5 7q-35 0 -56.5 -13t-35.5 -24z" />
    <glyph glyph-name="Odieresis" unicode="&#xd6;" horiz-adv-x="782" 
d="M391 -18q-73 0 -136 27.5t-110 75.5t-74 112t-27 137t27 137t73.5 111.5t110 75t136.5 27.5t136 -27.5t110 -75t74 -111.5t27 -137t-27 -137t-74 -112t-110 -75.5t-136 -27.5zM391 101q49 0 89 19t68 51.5t43 75.5t15 90q0 48 -15 90.5t-43 74.5t-68 50.5t-89 18.5
q-50 0 -89.5 -18.5t-67.5 -50.5t-43 -74.5t-15 -90.5q0 -47 15 -90t43 -75.5t67.5 -51.5t89.5 -19zM436 854h123v-117h-123v117zM223 854h123v-117h-123v117z" />
    <glyph glyph-name="multiply" unicode="&#xd7;" horiz-adv-x="545" 
d="M204 321l-111 112l69 69l112 -111l113 113l68 -69l-113 -113l111 -111l-69 -69l-111 111l-113 -113l-69 68z" />
    <glyph glyph-name="Oslash" unicode="&#xd8;" horiz-adv-x="782" 
d="M146 84q-48 48 -75 112t-27 138q0 73 27 137t73.5 111.5t110 75t136.5 27.5q80 0 150 -34l58 82l89 -56l-60 -86q51 -48 80.5 -114.5t29.5 -142.5q0 -73 -27 -137t-74 -112t-110 -75.5t-136 -27.5q-44 0 -84.5 10.5t-76.5 28.5l-61 -88l-89 56zM300 121q40 -20 91 -20
q49 0 89 19t68 51.5t43 75.5t15 90q0 44 -13 82.5t-36 70.5zM474 555q-40 16 -83 16q-50 0 -89.5 -18.5t-67.5 -50.5t-43 -74.5t-15 -90.5q0 -42 11 -79.5t33 -68.5z" />
    <glyph glyph-name="Ugrave" unicode="&#xd9;" horiz-adv-x="674" 
d="M65 667h126v-399q0 -38 7.5 -68.5t24.5 -52t45 -33t69 -11.5t69 11.5t45 33t24.5 52t7.5 68.5v399h126v-421q0 -56 -18 -104t-53 -83.5t-85.5 -56t-115.5 -20.5t-115.5 20.5t-85.5 56t-53 83.5t-18 104v421zM199 873h146l73 -156h-105z" />
    <glyph glyph-name="Uacute" unicode="&#xda;" horiz-adv-x="674" 
d="M65 667h126v-399q0 -38 7.5 -68.5t24.5 -52t45 -33t69 -11.5t69 11.5t45 33t24.5 52t7.5 68.5v399h126v-421q0 -56 -18 -104t-53 -83.5t-85.5 -56t-115.5 -20.5t-115.5 20.5t-85.5 56t-53 83.5t-18 104v421zM351 873h146l-114 -156h-105z" />
    <glyph glyph-name="Ucircumflex" unicode="&#xdb;" horiz-adv-x="674" 
d="M65 667h126v-399q0 -38 7.5 -68.5t24.5 -52t45 -33t69 -11.5t69 11.5t45 33t24.5 52t7.5 68.5v399h126v-421q0 -56 -18 -104t-53 -83.5t-85.5 -56t-115.5 -20.5t-115.5 20.5t-85.5 56t-53 83.5t-18 104v421zM283 873h111l110 -156h-104l-62 82l-61 -82h-104z" />
    <glyph glyph-name="Udieresis" unicode="&#xdc;" horiz-adv-x="674" 
d="M65 667h126v-399q0 -38 7.5 -68.5t24.5 -52t45 -33t69 -11.5t69 11.5t45 33t24.5 52t7.5 68.5v399h126v-421q0 -56 -18 -104t-53 -83.5t-85.5 -56t-115.5 -20.5t-115.5 20.5t-85.5 56t-53 83.5t-18 104v421zM382 854h123v-117h-123v117zM169 854h123v-117h-123v117z" />
    <glyph glyph-name="Yacute" unicode="&#xdd;" horiz-adv-x="600" 
d="M236 293l-231 374h138l160 -266l160 266h132l-231 -374v-293h-128v293zM321 873h146l-114 -156h-105z" />
    <glyph glyph-name="Thorn" unicode="&#xde;" horiz-adv-x="558" 
d="M70 667h121v-114h93q70 0 114.5 -21.5t70.5 -53t36 -67.5t10 -66q0 -56 -20 -96t-52 -65.5t-72 -37.5t-79 -12h-101v-134h-121v667zM282 240q48 0 76.5 28t28.5 73q0 47 -30 76.5t-75 29.5h-91v-207h91z" />
    <glyph glyph-name="germandbls" unicode="&#xdf;" horiz-adv-x="604" 
d="M58 474q0 60 16.5 100t47 64.5t72.5 35t93 10.5q37 0 71.5 -10.5t61 -30.5t42 -48t15.5 -63q0 -38 -17.5 -66.5t-38.5 -51.5l-38.5 -42.5t-17.5 -38.5q0 -18 21 -29.5t56 -19.5q61 -14 93.5 -47t32.5 -100q0 -69 -48.5 -108.5t-136.5 -39.5q-101 0 -166 57l71 82
q21 -19 45.5 -29t45.5 -10q40 0 57.5 9.5t17.5 32.5q0 10 -2.5 19.5t-11.5 17.5t-26 16t-46 17q-23 7 -44.5 15.5t-38 23.5t-26.5 37.5t-10 56.5q0 31 16.5 56.5t36.5 47.5l36.5 40.5t16.5 35.5q0 29 -19 49t-61 20q-54 0 -76.5 -31t-22.5 -83v-469h-118v474z" />
    <glyph glyph-name="agrave" unicode="&#xe0;" horiz-adv-x="504" 
d="M335 44q-19 -23 -58 -41t-87 -18q-29 0 -57.5 9t-52 27.5t-38 47.5t-14.5 68q0 40 15 71.5t42 53t65 32.5t84 11q14 0 31 -0.5t33 -1.5l37 -2v11q0 35 -28 55t-73 20q-50 0 -80 -13t-53 -28l-54 80q14 10 32 20.5t42 19t55.5 14t73.5 5.5q45 0 81.5 -12.5t62.5 -35
t40 -54t14 -68.5v-315h-110zM335 212l-35 2q-14 1 -29.5 1.5t-26.5 0.5q-57 0 -80 -22.5t-23 -51.5q0 -30 21.5 -47t63.5 -17q21 0 40.5 7t34.5 19t24.5 28t9.5 34v46zM134 682h126l48 -142h-95z" />
    <glyph glyph-name="aacute" unicode="&#xe1;" horiz-adv-x="504" 
d="M335 44q-19 -23 -58 -41t-87 -18q-29 0 -57.5 9t-52 27.5t-38 47.5t-14.5 68q0 40 15 71.5t42 53t65 32.5t84 11q14 0 31 -0.5t33 -1.5l37 -2v11q0 35 -28 55t-73 20q-50 0 -80 -13t-53 -28l-54 80q14 10 32 20.5t42 19t55.5 14t73.5 5.5q45 0 81.5 -12.5t62.5 -35
t40 -54t14 -68.5v-315h-110zM335 212l-35 2q-14 1 -29.5 1.5t-26.5 0.5q-57 0 -80 -22.5t-23 -51.5q0 -30 21.5 -47t63.5 -17q21 0 40.5 7t34.5 19t24.5 28t9.5 34v46zM247 682h126l-79 -142h-95z" />
    <glyph glyph-name="acircumflex" unicode="&#xe2;" horiz-adv-x="504" 
d="M335 44q-19 -23 -58 -41t-87 -18q-29 0 -57.5 9t-52 27.5t-38 47.5t-14.5 68q0 40 15 71.5t42 53t65 32.5t84 11q14 0 31 -0.5t33 -1.5l37 -2v11q0 35 -28 55t-73 20q-50 0 -80 -13t-53 -28l-54 80q14 10 32 20.5t42 19t55.5 14t73.5 5.5q45 0 81.5 -12.5t62.5 -35
t40 -54t14 -68.5v-315h-110zM335 212l-35 2q-14 1 -29.5 1.5t-26.5 0.5q-57 0 -80 -22.5t-23 -51.5q0 -30 21.5 -47t63.5 -17q21 0 40.5 7t34.5 19t24.5 28t9.5 34v46zM188 682h111l104 -142h-104l-56 76l-55 -76h-104z" />
    <glyph glyph-name="atilde" unicode="&#xe3;" horiz-adv-x="504" 
d="M335 44q-19 -23 -58 -41t-87 -18q-29 0 -57.5 9t-52 27.5t-38 47.5t-14.5 68q0 40 15 71.5t42 53t65 32.5t84 11q14 0 31 -0.5t33 -1.5l37 -2v11q0 35 -28 55t-73 20q-50 0 -80 -13t-53 -28l-54 80q14 10 32 20.5t42 19t55.5 14t73.5 5.5q45 0 81.5 -12.5t62.5 -35
t40 -54t14 -68.5v-315h-110zM335 212l-35 2q-14 1 -29.5 1.5t-26.5 0.5q-57 0 -80 -22.5t-23 -51.5q0 -30 21.5 -47t63.5 -17q21 0 40.5 7t34.5 19t24.5 28t9.5 34v46zM49 615q8 9 20.5 19t28 18.5t34 14.5t38.5 6q21 0 36 -6.5t29 -14t29 -14t35 -6.5q34 0 54 13t34 23
l45 -70q-8 -9 -20.5 -19.5t-27.5 -19.5t-33.5 -15t-38.5 -6q-21 0 -36.5 6.5t-29.5 15t-29 15t-35 6.5q-34 0 -54 -13t-34 -23z" />
    <glyph glyph-name="adieresis" unicode="&#xe4;" horiz-adv-x="504" 
d="M335 44q-19 -23 -58 -41t-87 -18q-29 0 -57.5 9t-52 27.5t-38 47.5t-14.5 68q0 40 15 71.5t42 53t65 32.5t84 11q14 0 31 -0.5t33 -1.5l37 -2v11q0 35 -28 55t-73 20q-50 0 -80 -13t-53 -28l-54 80q14 10 32 20.5t42 19t55.5 14t73.5 5.5q45 0 81.5 -12.5t62.5 -35
t40 -54t14 -68.5v-315h-110zM335 212l-35 2q-14 1 -29.5 1.5t-26.5 0.5q-57 0 -80 -22.5t-23 -51.5q0 -30 21.5 -47t63.5 -17q21 0 40.5 7t34.5 19t24.5 28t9.5 34v46zM290 666h115v-109h-115v109zM105 666h115v-109h-115v109z" />
    <glyph glyph-name="aring" unicode="&#xe5;" horiz-adv-x="504" 
d="M335 44q-19 -23 -58 -41t-87 -18q-29 0 -57.5 9t-52 27.5t-38 47.5t-14.5 68q0 40 15 71.5t42 53t65 32.5t84 11q14 0 31 -0.5t33 -1.5l37 -2v11q0 35 -28 55t-73 20q-50 0 -80 -13t-53 -28l-54 80q14 10 32 20.5t42 19t55.5 14t73.5 5.5q45 0 81.5 -12.5t62.5 -35
t40 -54t14 -68.5v-315h-110zM335 212l-35 2q-14 1 -29.5 1.5t-26.5 0.5q-57 0 -80 -22.5t-23 -51.5q0 -30 21.5 -47t63.5 -17q21 0 40.5 7t34.5 19t24.5 28t9.5 34v46zM137 644q0 24 9.5 45t25 36t37 23.5t45.5 8.5t45.5 -8.5t37.5 -23.5t25.5 -35.5t9.5 -44.5t-9.5 -45
t-25 -36t-37 -23.5t-45.5 -8.5t-45.5 8.5t-37.5 23.5t-25.5 35.5t-9.5 44.5zM254 600q19 0 31.5 12.5t12.5 31.5q0 18 -12.5 30.5t-30.5 12.5q-19 0 -31.5 -12.5t-12.5 -30.5q0 -19 12.5 -31.5t30.5 -12.5z" />
    <glyph glyph-name="ae" unicode="&#xe6;" horiz-adv-x="831" 
d="M47 426q13 10 30.5 20.5t41 19t54 14t69.5 5.5q59 0 98.5 -16.5t67.5 -49.5q27 31 69 48.5t90 17.5q64 0 108.5 -23.5t71.5 -61.5t39 -86t12 -98v-17h-350q0 -26 11.5 -47t30 -36t42 -23t46.5 -8q34 0 59.5 6.5t43.5 15t29.5 18t17.5 15.5l64 -72l-16.5 -16.5t-39 -28.5
t-65 -27t-94.5 -12q-60 0 -107 22t-80 60q-18 -22 -37.5 -37.5t-42 -25t-48.5 -14t-59 -4.5q-34 0 -65.5 9t-56 27.5t-39 47.5t-14.5 68q0 40 15 70t42 49.5t65 29.5t84 10q13 0 30 -0.5t32 -1.5t26 -1.5t13 -0.5v20q0 35 -26.5 55t-68.5 20q-54 0 -85 -13t-54 -28zM335 203
q-4 0 -15 1t-24.5 1.5l-27.5 1t-24 0.5q-53 0 -79.5 -18t-26.5 -47q0 -30 23 -47t65 -17q49 0 79 26t30 62v37zM677 284q0 18 -7 36t-20.5 32.5t-34.5 24t-48 9.5q-29 0 -51.5 -9.5t-37.5 -24t-23 -32.5t-8 -36h230z" />
    <glyph glyph-name="ccedilla" unicode="&#xe7;" horiz-adv-x="492" 
d="M471 62q-33 -35 -78 -56t-105 -21t-107 18t-79 51t-49 79t-17 102q0 51 18.5 96.5t51.5 79.5t79.5 54t102.5 20q57 0 104 -20.5t80 -55.5l-75 -76q-20 23 -47 36t-62 13q-34 0 -59 -12.5t-41.5 -32.5t-24.5 -47t-8 -55q0 -27 8 -53t24.5 -47t41.5 -34t59 -13
q35 0 64 13.5t49 36.5zM163 -150q19 -7 36 -9.5t33 -2.5q58 0 58 32q0 12 -12.5 21t-41.5 9q-17 0 -33.5 -3t-29.5 -8l11 67q18 5 36.5 8.5t47.5 3.5q54 0 84.5 -26t30.5 -67q0 -26 -11 -46t-29.5 -33.5t-42 -20t-48.5 -6.5q-24 0 -42.5 2t-32.5 5q-16 3 -27 7z" />
    <glyph glyph-name="egrave" unicode="&#xe8;" horiz-adv-x="538" 
d="M499 68l-16.5 -16.5t-39 -28.5t-65 -27t-94.5 -12q-56 0 -102 19t-78.5 52.5t-50 80.5t-17.5 104q0 52 17.5 96.5t49 77.5t75 52t96.5 19q64 0 108.5 -23.5t71.5 -61.5t39 -86t12 -98v-17h-350q0 -26 11.5 -47t30 -36t42 -23t46.5 -8q34 0 59.5 6.5t43.5 15t29.5 18
t17.5 15.5zM384 284q0 18 -7 36t-20.5 32.5t-34.5 24t-48 9.5q-29 0 -51.5 -9.5t-37.5 -24t-23 -32.5t-8 -36h230zM159 682h126l48 -142h-95z" />
    <glyph glyph-name="eacute" unicode="&#xe9;" horiz-adv-x="538" 
d="M499 68l-16.5 -16.5t-39 -28.5t-65 -27t-94.5 -12q-56 0 -102 19t-78.5 52.5t-50 80.5t-17.5 104q0 52 17.5 96.5t49 77.5t75 52t96.5 19q64 0 108.5 -23.5t71.5 -61.5t39 -86t12 -98v-17h-350q0 -26 11.5 -47t30 -36t42 -23t46.5 -8q34 0 59.5 6.5t43.5 15t29.5 18
t17.5 15.5zM384 284q0 18 -7 36t-20.5 32.5t-34.5 24t-48 9.5q-29 0 -51.5 -9.5t-37.5 -24t-23 -32.5t-8 -36h230zM274 682h126l-79 -142h-95z" />
    <glyph glyph-name="ecircumflex" unicode="&#xea;" horiz-adv-x="538" 
d="M499 68l-16.5 -16.5t-39 -28.5t-65 -27t-94.5 -12q-56 0 -102 19t-78.5 52.5t-50 80.5t-17.5 104q0 52 17.5 96.5t49 77.5t75 52t96.5 19q64 0 108.5 -23.5t71.5 -61.5t39 -86t12 -98v-17h-350q0 -26 11.5 -47t30 -36t42 -23t46.5 -8q34 0 59.5 6.5t43.5 15t29.5 18
t17.5 15.5zM384 284q0 18 -7 36t-20.5 32.5t-34.5 24t-48 9.5q-29 0 -51.5 -9.5t-37.5 -24t-23 -32.5t-8 -36h230zM215 682h111l104 -142h-104l-56 76l-55 -76h-104z" />
    <glyph glyph-name="edieresis" unicode="&#xeb;" horiz-adv-x="538" 
d="M499 68l-16.5 -16.5t-39 -28.5t-65 -27t-94.5 -12q-56 0 -102 19t-78.5 52.5t-50 80.5t-17.5 104q0 52 17.5 96.5t49 77.5t75 52t96.5 19q64 0 108.5 -23.5t71.5 -61.5t39 -86t12 -98v-17h-350q0 -26 11.5 -47t30 -36t42 -23t46.5 -8q34 0 59.5 6.5t43.5 15t29.5 18
t17.5 15.5zM384 284q0 18 -7 36t-20.5 32.5t-34.5 24t-48 9.5q-29 0 -51.5 -9.5t-37.5 -24t-23 -32.5t-8 -36h230zM305 666h115v-109h-115v109zM120 666h115v-109h-115v109z" />
    <glyph glyph-name="igrave" unicode="&#xec;" horiz-adv-x="244" 
d="M63 469h118v-469h-118v469zM-4 682h126l48 -142h-95z" />
    <glyph glyph-name="iacute" unicode="&#xed;" horiz-adv-x="244" 
d="M63 469h118v-469h-118v469zM122 682h126l-79 -142h-95z" />
    <glyph glyph-name="icircumflex" unicode="&#xee;" horiz-adv-x="244" 
d="M63 469h118v-469h-118v469zM68 682h111l104 -142h-104l-56 76l-55 -76h-104z" />
    <glyph glyph-name="idieresis" unicode="&#xef;" horiz-adv-x="244" 
d="M63 469h118v-469h-118v469zM158 666h115v-109h-115v109zM-27 666h115v-109h-115v109z" />
    <glyph glyph-name="eth" unicode="&#xf0;" horiz-adv-x="555" 
d="M197 577q-36 9 -80 12l14 88q67 -5 121 -18l43 64l64 -38l-35 -53q102 -49 148.5 -143t46.5 -219q0 -74 -20 -127.5t-54 -89t-79.5 -52.5t-96.5 -17q-45 0 -87.5 15t-74.5 45t-51.5 74t-19.5 102q0 48 17.5 90.5t48.5 75t74.5 51.5t94.5 19q42 0 66.5 -6.5t37.5 -11.5
q-15 34 -41.5 63t-64.5 49l-47 -70l-64 38zM393 328q-14 8 -39.5 18t-59.5 10q-61 0 -100 -36.5t-39 -99.5q0 -30 9 -54.5t25 -42.5t38.5 -27.5t48.5 -9.5q23 0 45.5 10.5t40.5 32.5t29 56.5t11 82.5q0 13 -1.5 27.5t-7.5 32.5z" />
    <glyph glyph-name="ntilde" unicode="&#xf1;" horiz-adv-x="551" 
d="M58 469h113l3 -53q9 10 21.5 21t30 20.5t39.5 15.5t50 6q88 0 134 -52.5t46 -141.5v-285h-118v284q0 45 -24.5 69.5t-63.5 24.5q-24 0 -45 -9.5t-36 -26.5t-23.5 -39.5t-8.5 -48.5v-254h-118v469zM87 615q8 9 20.5 19t28 18.5t34 14.5t38.5 6q21 0 36 -6.5t29 -14t29 -14
t35 -6.5q34 0 54 13t34 23l45 -70q-8 -9 -20.5 -19.5t-27.5 -19.5t-33.5 -15t-38.5 -6q-21 0 -36.5 6.5t-29.5 15t-29 15t-35 6.5q-34 0 -54 -13t-34 -23z" />
    <glyph glyph-name="ograve" unicode="&#xf2;" horiz-adv-x="576" 
d="M36 235q0 51 18.5 96.5t51.5 79.5t79.5 54t102.5 20t102.5 -20t79.5 -54t51.5 -79.5t18.5 -96.5t-18.5 -96.5t-51.5 -80t-79.5 -54.5t-102.5 -20t-102.5 20t-79.5 54.5t-51.5 80t-18.5 96.5zM288 86q34 0 59 13.5t41.5 35.5t24.5 48t8 52q0 25 -8 51.5t-24.5 48t-41.5 35
t-59 13.5t-59 -13.5t-41.5 -35t-24.5 -48t-8 -51.5q0 -26 8 -52t24.5 -48t41.5 -35.5t59 -13.5zM174 682h126l48 -142h-95z" />
    <glyph glyph-name="oacute" unicode="&#xf3;" horiz-adv-x="576" 
d="M36 235q0 51 18.5 96.5t51.5 79.5t79.5 54t102.5 20t102.5 -20t79.5 -54t51.5 -79.5t18.5 -96.5t-18.5 -96.5t-51.5 -80t-79.5 -54.5t-102.5 -20t-102.5 20t-79.5 54.5t-51.5 80t-18.5 96.5zM288 86q34 0 59 13.5t41.5 35.5t24.5 48t8 52q0 25 -8 51.5t-24.5 48t-41.5 35
t-59 13.5t-59 -13.5t-41.5 -35t-24.5 -48t-8 -51.5q0 -26 8 -52t24.5 -48t41.5 -35.5t59 -13.5zM284 682h126l-79 -142h-95z" />
    <glyph glyph-name="ocircumflex" unicode="&#xf4;" horiz-adv-x="576" 
d="M36 235q0 51 18.5 96.5t51.5 79.5t79.5 54t102.5 20t102.5 -20t79.5 -54t51.5 -79.5t18.5 -96.5t-18.5 -96.5t-51.5 -80t-79.5 -54.5t-102.5 -20t-102.5 20t-79.5 54.5t-51.5 80t-18.5 96.5zM288 86q34 0 59 13.5t41.5 35.5t24.5 48t8 52q0 25 -8 51.5t-24.5 48t-41.5 35
t-59 13.5t-59 -13.5t-41.5 -35t-24.5 -48t-8 -51.5q0 -26 8 -52t24.5 -48t41.5 -35.5t59 -13.5zM233 682h111l104 -142h-104l-56 76l-55 -76h-104z" />
    <glyph glyph-name="otilde" unicode="&#xf5;" horiz-adv-x="576" 
d="M36 235q0 51 18.5 96.5t51.5 79.5t79.5 54t102.5 20t102.5 -20t79.5 -54t51.5 -79.5t18.5 -96.5t-18.5 -96.5t-51.5 -80t-79.5 -54.5t-102.5 -20t-102.5 20t-79.5 54.5t-51.5 80t-18.5 96.5zM288 86q34 0 59 13.5t41.5 35.5t24.5 48t8 52q0 25 -8 51.5t-24.5 48t-41.5 35
t-59 13.5t-59 -13.5t-41.5 -35t-24.5 -48t-8 -51.5q0 -26 8 -52t24.5 -48t41.5 -35.5t59 -13.5zM99 615q8 9 20.5 19t28 18.5t34 14.5t38.5 6q21 0 36 -6.5t29 -14t29 -14t35 -6.5q34 0 54 13t34 23l45 -70q-8 -9 -20.5 -19.5t-27.5 -19.5t-33.5 -15t-38.5 -6
q-21 0 -36.5 6.5t-29.5 15t-29 15t-35 6.5q-34 0 -54 -13t-34 -23z" />
    <glyph glyph-name="odieresis" unicode="&#xf6;" horiz-adv-x="576" 
d="M36 235q0 51 18.5 96.5t51.5 79.5t79.5 54t102.5 20t102.5 -20t79.5 -54t51.5 -79.5t18.5 -96.5t-18.5 -96.5t-51.5 -80t-79.5 -54.5t-102.5 -20t-102.5 20t-79.5 54.5t-51.5 80t-18.5 96.5zM288 86q34 0 59 13.5t41.5 35.5t24.5 48t8 52q0 25 -8 51.5t-24.5 48t-41.5 35
t-59 13.5t-59 -13.5t-41.5 -35t-24.5 -48t-8 -51.5q0 -26 8 -52t24.5 -48t41.5 -35.5t59 -13.5zM324 666h115v-109h-115v109zM139 666h115v-109h-115v109z" />
    <glyph glyph-name="divide" unicode="&#xf7;" horiz-adv-x="543" 
d="M72 371h398v-99h-398v99zM218 214h106v-100h-106v100zM218 530h106v-100h-106v100z" />
    <glyph glyph-name="oslash" unicode="&#xf8;" horiz-adv-x="576" 
d="M111 53q-36 35 -55.5 81.5t-19.5 100.5q0 51 18.5 96.5t51.5 79.5t79.5 54t102.5 20q58 0 107 -23l47 68l73 -45l-49 -71q35 -35 54.5 -80.5t19.5 -98.5q0 -51 -18.5 -96.5t-51.5 -80t-79.5 -54.5t-102.5 -20q-29 0 -56 5.5t-50 15.5l-44 -63l-72 45zM334 375
q-22 8 -46 8q-34 0 -59 -13.5t-41.5 -35t-24.5 -48t-8 -51.5q0 -22 5.5 -44t17.5 -42zM243 93q18 -7 45 -7q34 0 59 13.5t41.5 35.5t24.5 48t8 52q0 42 -22 83z" />
    <glyph glyph-name="ugrave" unicode="&#xf9;" horiz-adv-x="551" 
d="M56 469h118v-284q0 -45 24.5 -69.5t63.5 -24.5q24 0 45 9.5t36 26.5t23.5 39.5t8.5 48.5v254h118v-469h-113l-3 53q-9 -10 -22 -21t-30 -20.5t-39 -15.5t-50 -6q-88 0 -134 52.5t-46 141.5v285zM159 682h126l48 -142h-95z" />
    <glyph glyph-name="uacute" unicode="&#xfa;" horiz-adv-x="551" 
d="M56 469h118v-284q0 -45 24.5 -69.5t63.5 -24.5q24 0 45 9.5t36 26.5t23.5 39.5t8.5 48.5v254h118v-469h-113l-3 53q-9 -10 -22 -21t-30 -20.5t-39 -15.5t-50 -6q-88 0 -134 52.5t-46 141.5v285zM270 682h126l-79 -142h-95z" />
    <glyph glyph-name="ucircumflex" unicode="&#xfb;" horiz-adv-x="551" 
d="M56 469h118v-284q0 -45 24.5 -69.5t63.5 -24.5q24 0 45 9.5t36 26.5t23.5 39.5t8.5 48.5v254h118v-469h-113l-3 53q-9 -10 -22 -21t-30 -20.5t-39 -15.5t-50 -6q-88 0 -134 52.5t-46 141.5v285zM221 682h111l104 -142h-104l-56 76l-55 -76h-104z" />
    <glyph glyph-name="udieresis" unicode="&#xfc;" horiz-adv-x="551" 
d="M56 469h118v-284q0 -45 24.5 -69.5t63.5 -24.5q24 0 45 9.5t36 26.5t23.5 39.5t8.5 48.5v254h118v-469h-113l-3 53q-9 -10 -22 -21t-30 -20.5t-39 -15.5t-50 -6q-88 0 -134 52.5t-46 141.5v285zM315 666h115v-109h-115v109zM130 666h115v-109h-115v109z" />
    <glyph glyph-name="yacute" unicode="&#xfd;" horiz-adv-x="527" 
d="M77 -93q10 -8 22 -15.5t30 -7.5q24 0 39.5 20t32.5 62l15 38l-211 465h136l134 -321l118 321h129l-196 -469l-28 -72t-34.5 -68.5t-50.5 -51.5t-76 -20q-40 0 -66.5 9.5t-46.5 26.5zM270 682h126l-79 -142h-95z" />
    <glyph glyph-name="thorn" unicode="&#xfe;" horiz-adv-x="571" 
d="M58 667h117v-246q18 20 56.5 38.5t92.5 18.5t93.5 -20t65.5 -54t39 -77.5t13 -90.5q0 -55 -16 -96.5t-40 -70.5q-40 -48 -87.5 -66.5t-97.5 -18.5q-23 0 -39.5 2t-30 5.5t-25 8l-24.5 9.5v-211h-117v869zM175 115q35 -29 106 -29q32 0 57 12t42.5 33t26.5 48t9 57
t-6.5 55.5t-21 44.5t-37.5 29.5t-57 10.5q-27 0 -49 -11.5t-37.5 -29.5t-24 -39.5t-8.5 -41.5v-139z" />
    <glyph glyph-name="ydieresis" unicode="&#xff;" horiz-adv-x="527" 
d="M77 -93q10 -8 22 -15.5t30 -7.5q24 0 39.5 20t32.5 62l15 38l-211 465h136l134 -321l118 321h129l-196 -469l-28 -72t-34.5 -68.5t-50.5 -51.5t-76 -20q-40 0 -66.5 9.5t-46.5 26.5zM304 666h115v-109h-115v109zM119 666h115v-109h-115v109z" />
    <glyph glyph-name="Amacron" unicode="&#x100;" horiz-adv-x="646" 
d="M258 667h130l253 -667h-140l-58 169h-248l-58 -169h-132zM407 273l-88 259l-89 -259h177zM166 844h315v-97h-315v97z" />
    <glyph glyph-name="amacron" unicode="&#x101;" horiz-adv-x="504" 
d="M335 44q-19 -23 -58 -41t-87 -18q-29 0 -57.5 9t-52 27.5t-38 47.5t-14.5 68q0 40 15 71.5t42 53t65 32.5t84 11q14 0 31 -0.5t33 -1.5l37 -2v11q0 35 -28 55t-73 20q-50 0 -80 -13t-53 -28l-54 80q14 10 32 20.5t42 19t55.5 14t73.5 5.5q45 0 81.5 -12.5t62.5 -35
t40 -54t14 -68.5v-315h-110zM335 212l-35 2q-14 1 -29.5 1.5t-26.5 0.5q-57 0 -80 -22.5t-23 -51.5q0 -30 21.5 -47t63.5 -17q21 0 40.5 7t34.5 19t24.5 28t9.5 34v46zM128 650h261v-92h-261v92z" />
    <glyph glyph-name="Abreve" unicode="&#x102;" horiz-adv-x="646" 
d="M258 667h130l253 -667h-140l-58 169h-248l-58 -169h-132zM407 273l-88 259l-89 -259h177zM255 863q0 -26 17.5 -46.5t49.5 -20.5t49.5 20.5t17.5 46.5h93q0 -29 -10 -55.5t-29.5 -47.5t-50 -33.5t-70.5 -12.5q-41 0 -71 12.5t-49.5 33.5t-29.5 47.5t-10 55.5h93z" />
    <glyph glyph-name="abreve" unicode="&#x103;" horiz-adv-x="504" 
d="M335 44q-19 -23 -58 -41t-87 -18q-29 0 -57.5 9t-52 27.5t-38 47.5t-14.5 68q0 40 15 71.5t42 53t65 32.5t84 11q14 0 31 -0.5t33 -1.5l37 -2v11q0 35 -28 55t-73 20q-50 0 -80 -13t-53 -28l-54 80q14 10 32 20.5t42 19t55.5 14t73.5 5.5q45 0 81.5 -12.5t62.5 -35
t40 -54t14 -68.5v-315h-110zM335 212l-35 2q-14 1 -29.5 1.5t-26.5 0.5q-57 0 -80 -22.5t-23 -51.5q0 -30 21.5 -47t63.5 -17q21 0 40.5 7t34.5 19t24.5 28t9.5 34v46zM181 682q0 -24 13.5 -44.5t48.5 -20.5t48.5 20.5t13.5 44.5h92q0 -27 -9.5 -52.5t-29 -45.5t-48.5 -32
t-67 -12t-67 12t-48.5 32t-29 45.5t-9.5 52.5h92z" />
    <glyph glyph-name="Aogonek" unicode="&#x104;" horiz-adv-x="646" 
d="M258 667h130l253 -667q-19 -19 -33 -42t-14 -40q0 -21 26 -21q14 0 26 4.5t24 12.5l29 -75q-26 -17 -56.5 -27t-56.5 -10q-52 0 -76.5 22t-24.5 58q0 30 18.5 60.5t44.5 57.5h-47l-58 169h-248l-58 -169h-132zM407 273l-88 259l-89 -259h177z" />
    <glyph glyph-name="aogonek" unicode="&#x105;" horiz-adv-x="504" 
d="M335 44q-19 -23 -58 -41t-87 -18q-29 0 -57.5 9t-52 27.5t-38 47.5t-14.5 68q0 40 15 71.5t42 53t65 32.5t84 11q14 0 31 -0.5t33 -1.5l37 -2v11q0 35 -28 55t-73 20q-50 0 -80 -13t-53 -28l-54 80q14 10 32 20.5t42 19t55.5 14t73.5 5.5q45 0 81.5 -12.5t62.5 -35
t40 -54t14 -68.5v-315q-19 -18 -35.5 -40.5t-16.5 -39.5q0 -21 25 -21q16 0 29 5.5t26 13.5l28 -74q-25 -17 -54.5 -26.5t-55.5 -9.5q-51 0 -74.5 21.5t-23.5 56.5q0 29 18 58.5t43 55.5h-19zM335 212l-35 2q-14 1 -29.5 1.5t-26.5 0.5q-57 0 -80 -22.5t-23 -51.5
q0 -30 21.5 -47t63.5 -17q21 0 40.5 7t34.5 19t24.5 28t9.5 34v46z" />
    <glyph glyph-name="Cacute" unicode="&#x106;" horiz-adv-x="680" 
d="M657 122q-15 -23 -41.5 -47t-62.5 -44.5t-79 -33.5t-91 -13q-75 0 -137 26t-107 72.5t-70 109.5t-25 138q0 73 25 137t70.5 112t108.5 76t139 28q49 0 90 -10.5t74.5 -28.5t59.5 -42.5t46 -52.5l-89 -79q-32 46 -74.5 74t-106.5 28q-49 0 -88 -19.5t-66.5 -52t-42 -76
t-14.5 -91.5t14.5 -90t41.5 -73t64.5 -49t84.5 -18q43 0 73.5 10t52 25t36 31.5t26.5 28.5zM392 873h146l-114 -156h-105z" />
    <glyph glyph-name="cacute" unicode="&#x107;" horiz-adv-x="492" 
d="M471 62q-33 -35 -78 -56t-105 -21t-107 18t-79 51t-49 79t-17 102q0 51 18.5 96.5t51.5 79.5t79.5 54t102.5 20q57 0 104 -20.5t80 -55.5l-75 -76q-20 23 -47 36t-62 13q-34 0 -59 -12.5t-41.5 -32.5t-24.5 -47t-8 -55q0 -27 8 -53t24.5 -47t41.5 -34t59 -13
q35 0 64 13.5t49 36.5zM274 682h126l-79 -142h-95z" />
    <glyph glyph-name="Ccircumflex" unicode="&#x108;" horiz-adv-x="680" 
d="M657 122q-15 -23 -41.5 -47t-62.5 -44.5t-79 -33.5t-91 -13q-75 0 -137 26t-107 72.5t-70 109.5t-25 138q0 73 25 137t70.5 112t108.5 76t139 28q49 0 90 -10.5t74.5 -28.5t59.5 -42.5t46 -52.5l-89 -79q-32 46 -74.5 74t-106.5 28q-49 0 -88 -19.5t-66.5 -52t-42 -76
t-14.5 -91.5t14.5 -90t41.5 -73t64.5 -49t84.5 -18q43 0 73.5 10t52 25t36 31.5t26.5 28.5zM332 873h111l110 -156h-104l-62 82l-61 -82h-104z" />
    <glyph glyph-name="ccircumflex" unicode="&#x109;" horiz-adv-x="492" 
d="M471 62q-33 -35 -78 -56t-105 -21t-107 18t-79 51t-49 79t-17 102q0 51 18.5 96.5t51.5 79.5t79.5 54t102.5 20q57 0 104 -20.5t80 -55.5l-75 -76q-20 23 -47 36t-62 13q-34 0 -59 -12.5t-41.5 -32.5t-24.5 -47t-8 -55q0 -27 8 -53t24.5 -47t41.5 -34t59 -13
q35 0 64 13.5t49 36.5zM231 682h111l104 -142h-104l-56 76l-55 -76h-104z" />
    <glyph glyph-name="Cdotaccent" unicode="&#x10a;" horiz-adv-x="680" 
d="M657 122q-15 -23 -41.5 -47t-62.5 -44.5t-79 -33.5t-91 -13q-75 0 -137 26t-107 72.5t-70 109.5t-25 138q0 73 25 137t70.5 112t108.5 76t139 28q49 0 90 -10.5t74.5 -28.5t59.5 -42.5t46 -52.5l-89 -79q-32 46 -74.5 74t-106.5 28q-49 0 -88 -19.5t-66.5 -52t-42 -76
t-14.5 -91.5t14.5 -90t41.5 -73t64.5 -49t84.5 -18q43 0 73.5 10t52 25t36 31.5t26.5 28.5zM314 857h129v-123h-129v123z" />
    <glyph glyph-name="cdotaccent" unicode="&#x10b;" horiz-adv-x="492" 
d="M471 62q-33 -35 -78 -56t-105 -21t-107 18t-79 51t-49 79t-17 102q0 51 18.5 96.5t51.5 79.5t79.5 54t102.5 20q57 0 104 -20.5t80 -55.5l-75 -76q-20 23 -47 36t-62 13q-34 0 -59 -12.5t-41.5 -32.5t-24.5 -47t-8 -55q0 -27 8 -53t24.5 -47t41.5 -34t59 -13
q35 0 64 13.5t49 36.5zM222 670h123v-117h-123v117z" />
    <glyph glyph-name="Ccaron" unicode="&#x10c;" horiz-adv-x="680" 
d="M657 122q-15 -23 -41.5 -47t-62.5 -44.5t-79 -33.5t-91 -13q-75 0 -137 26t-107 72.5t-70 109.5t-25 138q0 73 25 137t70.5 112t108.5 76t139 28q49 0 90 -10.5t74.5 -28.5t59.5 -42.5t46 -52.5l-89 -79q-32 46 -74.5 74t-106.5 28q-49 0 -88 -19.5t-66.5 -52t-42 -76
t-14.5 -91.5t14.5 -90t41.5 -73t64.5 -49t84.5 -18q43 0 73.5 10t52 25t36 31.5t26.5 28.5zM224 873h104l62 -82l61 82h104l-110 -156h-111z" />
    <glyph glyph-name="ccaron" unicode="&#x10d;" horiz-adv-x="492" 
d="M471 62q-33 -35 -78 -56t-105 -21t-107 18t-79 51t-49 79t-17 102q0 51 18.5 96.5t51.5 79.5t79.5 54t102.5 20q57 0 104 -20.5t80 -55.5l-75 -76q-20 23 -47 36t-62 13q-34 0 -59 -12.5t-41.5 -32.5t-24.5 -47t-8 -55q0 -27 8 -53t24.5 -47t41.5 -34t59 -13
q35 0 64 13.5t49 36.5zM124 682h104l56 -76l55 76h104l-104 -142h-111z" />
    <glyph glyph-name="Dcaron" unicode="&#x10e;" horiz-adv-x="726" 
d="M70 667h249q78 0 143 -20t112 -61t73 -105t26 -151q0 -83 -26.5 -144.5t-74 -103t-112.5 -62t-142 -20.5h-248v667zM307 112q114 0 174 55t60 161q0 105 -55.5 166t-178.5 61h-111v-443h111zM155 873h104l62 -82l61 82h104l-110 -156h-111z" />
    <glyph glyph-name="dcaron" unicode="&#x10f;" horiz-adv-x="557" 
d="M382 46q-9 -10 -22 -21t-30.5 -20t-39 -15t-48.5 -6q-38 0 -75 16t-66 47t-47 76t-18 103q0 55 16 96.5t40 70.5q20 24 44 40t48.5 26.5t47.5 15t40 4.5q23 0 38 -1.5t27 -4t22 -6.5l23 -9v209h117v-667h-114zM382 352q-17 14 -39.5 19.5t-57.5 5.5t-58 -13.5t-40 -35.5
q-15 -20 -23.5 -46.5t-8.5 -55.5q0 -60 30 -100t87 -40q30 0 51 11.5t34 29.5t19 39.5t6 41.5v144zM560 667h110l-34 -169h-76v169z" />
    <glyph glyph-name="Dcroat" unicode="&#x110;" horiz-adv-x="726" 
d="M70 287h-67v102h67v278h249q78 0 143 -20t112 -61t73 -105t26 -151q0 -83 -26.5 -144.5t-74 -103t-112.5 -62t-142 -20.5h-248v287zM310 113q114 0 174 55t60 161q0 105 -55.5 166t-178.5 61h-114v-167h155v-102h-155v-174h114z" />
    <glyph glyph-name="dcroat" unicode="&#x111;" horiz-adv-x="557" 
d="M382 46q-9 -10 -22 -21t-30.5 -20t-39 -15t-48.5 -6q-38 0 -75 15t-66 44t-47 73t-18 102q0 55 16 92.5t40 66.5q20 24 44 39.5t48.5 24.5t47.5 13t40 4q23 0 38 -1.5t27 -4t22 -6.5l23 -9v85h-171v79h171v66h117v-66h56v-79h-56v-522h-117v46zM382 331q-17 11 -40.5 18
t-56.5 7q-35 0 -58 -11t-40 -33q-15 -20 -23.5 -42.5t-8.5 -51.5q0 -60 30 -96t87 -36q30 0 51 11.5t34 29.5t19 39.5t6 41.5v123z" />
    <glyph glyph-name="Emacron" unicode="&#x112;" horiz-adv-x="568" 
d="M70 667h432v-111h-306v-157h225v-112h-225v-174h329v-113h-455v667zM134 844h315v-97h-315v97z" />
    <glyph glyph-name="emacron" unicode="&#x113;" horiz-adv-x="538" 
d="M499 68l-16.5 -16.5t-39 -28.5t-65 -27t-94.5 -12q-56 0 -102 19t-78.5 52.5t-50 80.5t-17.5 104q0 52 17.5 96.5t49 77.5t75 52t96.5 19q64 0 108.5 -23.5t71.5 -61.5t39 -86t12 -98v-17h-350q0 -26 11.5 -47t30 -36t42 -23t46.5 -8q34 0 59.5 6.5t43.5 15t29.5 18
t17.5 15.5zM384 284q0 18 -7 36t-20.5 32.5t-34.5 24t-48 9.5q-29 0 -51.5 -9.5t-37.5 -24t-23 -32.5t-8 -36h230zM142 649h261v-92h-261v92z" />
    <glyph glyph-name="Ebreve" unicode="&#x114;" horiz-adv-x="568" 
d="M70 667h432v-111h-306v-157h225v-112h-225v-174h329v-113h-455v667zM223 863q0 -26 17.5 -46.5t49.5 -20.5t49.5 20.5t17.5 46.5h93q0 -29 -10 -55.5t-29.5 -47.5t-50 -33.5t-70.5 -12.5q-41 0 -71 12.5t-49.5 33.5t-29.5 47.5t-10 55.5h93z" />
    <glyph glyph-name="ebreve" unicode="&#x115;" horiz-adv-x="538" 
d="M499 68l-16.5 -16.5t-39 -28.5t-65 -27t-94.5 -12q-56 0 -102 19t-78.5 52.5t-50 80.5t-17.5 104q0 52 17.5 96.5t49 77.5t75 52t96.5 19q64 0 108.5 -23.5t71.5 -61.5t39 -86t12 -98v-17h-350q0 -26 11.5 -47t30 -36t42 -23t46.5 -8q34 0 59.5 6.5t43.5 15t29.5 18
t17.5 15.5zM384 284q0 18 -7 36t-20.5 32.5t-34.5 24t-48 9.5q-29 0 -51.5 -9.5t-37.5 -24t-23 -32.5t-8 -36h230zM216 682q0 -24 13.5 -44.5t48.5 -20.5t48.5 20.5t13.5 44.5h92q0 -27 -9.5 -52.5t-29 -45.5t-48.5 -32t-67 -12t-67 12t-48.5 32t-29 45.5t-9.5 52.5h92z" />
    <glyph glyph-name="Edotaccent" unicode="&#x116;" horiz-adv-x="568" 
d="M70 667h432v-111h-306v-157h225v-112h-225v-174h329v-113h-455v667zM230 857h129v-123h-129v123z" />
    <glyph glyph-name="edotaccent" unicode="&#x117;" horiz-adv-x="538" 
d="M499 68l-16.5 -16.5t-39 -28.5t-65 -27t-94.5 -12q-56 0 -102 19t-78.5 52.5t-50 80.5t-17.5 104q0 52 17.5 96.5t49 77.5t75 52t96.5 19q64 0 108.5 -23.5t71.5 -61.5t39 -86t12 -98v-17h-350q0 -26 11.5 -47t30 -36t42 -23t46.5 -8q34 0 59.5 6.5t43.5 15t29.5 18
t17.5 15.5zM384 284q0 18 -7 36t-20.5 32.5t-34.5 24t-48 9.5q-29 0 -51.5 -9.5t-37.5 -24t-23 -32.5t-8 -36h230zM215 670h123v-117h-123v117z" />
    <glyph glyph-name="Eogonek" unicode="&#x118;" horiz-adv-x="568" 
d="M70 667h432v-111h-306v-157h225v-112h-225v-174h329v-113h-58q-19 -19 -33 -42t-14 -40q0 -21 26 -21q14 0 26 4.5t24 12.5l29 -75q-26 -17 -56.5 -27t-56.5 -10q-52 0 -76.5 22t-24.5 58q0 30 18.5 60.5t44.5 57.5h-304v667z" />
    <glyph glyph-name="eogonek" unicode="&#x119;" horiz-adv-x="538" 
d="M473 -156q-25 -17 -54.5 -26.5t-55.5 -9.5q-51 0 -74.5 21.5t-23.5 56.5q0 25 13.5 50.5t33.5 48.5q-7 0 -14 -0.5t-14 -0.5q-56 0 -102 20t-78.5 55t-50 81.5t-17.5 99.5q0 52 18 96.5t49.5 77.5t75.5 52t97 19q60 0 103.5 -23.5t71.5 -61.5t41 -86t13 -98v-17h-350
q0 -26 11.5 -47t30 -36t42 -23t46.5 -8q34 0 59.5 6.5t43.5 15t29.5 18t17.5 15.5l64 -72q-4 -4 -19 -16.5t-39 -30.5q-11 -8 -24 -19.5t-24.5 -25t-19.5 -28.5t-8 -28q0 -21 25 -21q16 0 29 5.5t26 13.5zM387 284q0 18 -7 35.5t-20.5 32t-34.5 23.5t-48 9t-50 -9t-39 -23.5
t-25 -32t-9 -35.5h233z" />
    <glyph glyph-name="Ecaron" unicode="&#x11a;" horiz-adv-x="568" 
d="M70 667h432v-111h-306v-157h225v-112h-225v-174h329v-113h-455v667zM130 873h104l62 -82l61 82h104l-110 -156h-111z" />
    <glyph glyph-name="ecaron" unicode="&#x11b;" horiz-adv-x="538" 
d="M499 68l-16.5 -16.5t-39 -28.5t-65 -27t-94.5 -12q-56 0 -102 19t-78.5 52.5t-50 80.5t-17.5 104q0 52 17.5 96.5t49 77.5t75 52t96.5 19q64 0 108.5 -23.5t71.5 -61.5t39 -86t12 -98v-17h-350q0 -26 11.5 -47t30 -36t42 -23t46.5 -8q34 0 59.5 6.5t43.5 15t29.5 18
t17.5 15.5zM384 284q0 18 -7 36t-20.5 32.5t-34.5 24t-48 9.5q-29 0 -51.5 -9.5t-37.5 -24t-23 -32.5t-8 -36h230zM115 682h104l56 -76l55 76h104l-104 -142h-111z" />
    <glyph glyph-name="Gcircumflex" unicode="&#x11c;" horiz-adv-x="723" 
d="M421 353h239v-276q-39 -37 -103 -65t-164 -28q-82 0 -146.5 27t-109.5 73.5t-69 109.5t-24 136t25 137t70.5 112t108.5 76t139 28q49 0 90 -10.5t74.5 -28.5t59.5 -42.5t46 -52.5l-89 -79q-32 46 -74.5 74t-106.5 28q-49 0 -88 -19.5t-66.5 -52t-42 -76t-14.5 -91.5
q0 -54 17.5 -97t48 -74t71 -47.5t85.5 -16.5q92 0 142 44v104h-119v107zM325 873h111l110 -156h-104l-62 82l-61 -82h-104z" />
    <glyph glyph-name="gcircumflex" unicode="&#x11d;" horiz-adv-x="555" 
d="M134 -76q28 -19 60.5 -27.5t76.5 -8.5q46 0 77 28t31 78v51q-24 -20 -52.5 -32.5t-75.5 -12.5q-51 0 -90.5 17t-67.5 47.5t-42.5 72t-14.5 91.5q0 52 18.5 98t53 80t83.5 53.5t110 19.5t112.5 -10t83.5 -21v-456q0 -49 -17 -87t-47 -64t-71 -39.5t-89 -13.5
q-37 0 -65.5 3.5t-51 9.5t-41 15t-34.5 21zM379 367q-14 5 -29 7.5t-47 2.5q-36 0 -63 -12t-46 -32t-28.5 -46.5t-9.5 -55.5q0 -54 27 -91t87 -37q54 0 81.5 23t27.5 73v168zM232 682h111l104 -142h-104l-56 76l-55 -76h-104z" />
    <glyph glyph-name="Gbreve" unicode="&#x11e;" horiz-adv-x="723" 
d="M421 353h239v-276q-39 -37 -103 -65t-164 -28q-82 0 -146.5 27t-109.5 73.5t-69 109.5t-24 136t25 137t70.5 112t108.5 76t139 28q49 0 90 -10.5t74.5 -28.5t59.5 -42.5t46 -52.5l-89 -79q-32 46 -74.5 74t-106.5 28q-49 0 -88 -19.5t-66.5 -52t-42 -76t-14.5 -91.5
q0 -54 17.5 -97t48 -74t71 -47.5t85.5 -16.5q92 0 142 44v104h-119v107zM312 863q0 -26 17.5 -46.5t49.5 -20.5t49.5 20.5t17.5 46.5h93q0 -29 -10 -55.5t-29.5 -47.5t-50 -33.5t-70.5 -12.5q-41 0 -71 12.5t-49.5 33.5t-29.5 47.5t-10 55.5h93z" />
    <glyph glyph-name="gbreve" unicode="&#x11f;" horiz-adv-x="555" 
d="M134 -76q28 -19 60.5 -27.5t76.5 -8.5q46 0 77 28t31 78v51q-24 -20 -52.5 -32.5t-75.5 -12.5q-51 0 -90.5 17t-67.5 47.5t-42.5 72t-14.5 91.5q0 52 18.5 98t53 80t83.5 53.5t110 19.5t112.5 -10t83.5 -21v-456q0 -49 -17 -87t-47 -64t-71 -39.5t-89 -13.5
q-37 0 -65.5 3.5t-51 9.5t-41 15t-34.5 21zM379 367q-14 5 -29 7.5t-47 2.5q-36 0 -63 -12t-46 -32t-28.5 -46.5t-9.5 -55.5q0 -54 27 -91t87 -37q54 0 81.5 23t27.5 73v168zM237 682q0 -24 13.5 -44.5t48.5 -20.5t48.5 20.5t13.5 44.5h92q0 -27 -9.5 -52.5t-29 -45.5
t-48.5 -32t-67 -12t-67 12t-48.5 32t-29 45.5t-9.5 52.5h92z" />
    <glyph glyph-name="Gdotaccent" unicode="&#x120;" horiz-adv-x="723" 
d="M421 353h239v-276q-39 -37 -103 -65t-164 -28q-82 0 -146.5 27t-109.5 73.5t-69 109.5t-24 136t25 137t70.5 112t108.5 76t139 28q49 0 90 -10.5t74.5 -28.5t59.5 -42.5t46 -52.5l-89 -79q-32 46 -74.5 74t-106.5 28q-49 0 -88 -19.5t-66.5 -52t-42 -76t-14.5 -91.5
q0 -54 17.5 -97t48 -74t71 -47.5t85.5 -16.5q92 0 142 44v104h-119v107zM318 857h129v-123h-129v123z" />
    <glyph glyph-name="gdotaccent" unicode="&#x121;" horiz-adv-x="555" 
d="M134 -76q28 -19 60.5 -27.5t76.5 -8.5q46 0 77 28t31 78v51q-24 -20 -52.5 -32.5t-75.5 -12.5q-51 0 -90.5 17t-67.5 47.5t-42.5 72t-14.5 91.5q0 52 18.5 98t53 80t83.5 53.5t110 19.5t112.5 -10t83.5 -21v-456q0 -49 -17 -87t-47 -64t-71 -39.5t-89 -13.5
q-37 0 -65.5 3.5t-51 9.5t-41 15t-34.5 21zM379 367q-14 5 -29 7.5t-47 2.5q-36 0 -63 -12t-46 -32t-28.5 -46.5t-9.5 -55.5q0 -54 27 -91t87 -37q54 0 81.5 23t27.5 73v168zM238 670h123v-117h-123v117z" />
    <glyph glyph-name="Gcommaaccent" unicode="&#x122;" horiz-adv-x="723" 
d="M421 353h239v-276q-39 -37 -103 -65t-164 -28q-82 0 -146.5 27t-109.5 73.5t-69 109.5t-24 136t25 137t70.5 112t108.5 76t139 28q49 0 90 -10.5t74.5 -28.5t59.5 -42.5t46 -52.5l-89 -79q-32 46 -74.5 74t-106.5 28q-49 0 -88 -19.5t-66.5 -52t-42 -76t-14.5 -91.5
q0 -54 17.5 -97t48 -74t71 -47.5t85.5 -16.5q92 0 142 44v104h-119v107zM320 -51h139l-88 -158h-104z" />
    <glyph glyph-name="gcommaaccent" unicode="&#x123;" horiz-adv-x="555" 
d="M134 -76q28 -19 60.5 -27.5t76.5 -8.5q46 0 77 28t31 78v51q-24 -20 -52.5 -32.5t-75.5 -12.5q-51 0 -90.5 17t-67.5 47.5t-42.5 72t-14.5 91.5q0 52 18.5 98t53 80t83.5 53.5t110 19.5t112.5 -10t83.5 -21v-456q0 -49 -17 -87t-47 -64t-71 -39.5t-89 -13.5
q-37 0 -65.5 3.5t-51 9.5t-41 15t-34.5 21zM379 367q-14 5 -29 7.5t-47 2.5q-36 0 -63 -12t-46 -32t-28.5 -46.5t-9.5 -55.5q0 -54 27 -91t87 -37q54 0 81.5 23t27.5 73v168zM310 682h95l-48 -142h-126z" />
    <glyph glyph-name="Hcircumflex" unicode="&#x124;" horiz-adv-x="723" 
d="M70 667h126v-268h331v268h126v-667h-126v287h-331v-287h-126v667zM305 873h111l110 -156h-104l-62 82l-61 -82h-104z" />
    <glyph glyph-name="hcircumflex" unicode="&#x125;" horiz-adv-x="551" 
d="M58 667h116v-246q18 20 52.5 39t88.5 19q43 0 77 -14t56.5 -39.5t34.5 -61.5t12 -79v-285h-118v284q0 45 -24.5 69.5t-63.5 24.5q-24 0 -45 -9.5t-36 -26.5t-23.5 -39.5t-8.5 -48.5v-254h-118v667zM172 873h111l110 -156h-104l-62 82l-61 -82h-104z" />
    <glyph glyph-name="Hbar" unicode="&#x126;" horiz-adv-x="723" 
d="M70 487h-70v88h70v92h125v-92h333v92h125v-92h70v-88h-70v-487h-125v287h-333v-287h-125v487zM528 399v88h-333v-88h333z" />
    <glyph glyph-name="hbar" unicode="&#x127;" horiz-adv-x="551" 
d="M58 522h-56v79h56v66h116v-66h172v-79h-172v-121q18 20 52.5 39t88.5 19q43 0 77 -14t56.5 -39.5t34.5 -61.5t12 -79v-265h-118v264q0 45 -24.5 69.5t-63.5 24.5q-24 0 -45 -9.5t-36 -26.5t-23.5 -39.5t-8.5 -48.5v-234h-118v522z" />
    <glyph glyph-name="Itilde" unicode="&#x128;" horiz-adv-x="266" 
d="M70 667h126v-667h-126v667zM-66 804q9 9 22 20t29.5 20t35.5 15t41 6t38 -6.5t30.5 -14.5t30 -14.5t36.5 -6.5q35 0 56.5 13t35.5 24l49 -75q-9 -9 -22 -20t-29 -20.5t-35 -16t-41 -6.5t-38 7t-31 15t-30.5 15t-36.5 7q-35 0 -56.5 -13t-35.5 -24z" />
    <glyph glyph-name="itilde" unicode="&#x129;" horiz-adv-x="244" 
d="M63 469h118v-469h-118v469zM-68 615q8 9 20.5 19t28 18.5t34 14.5t38.5 6q21 0 36 -6.5t29 -14t29 -14t35 -6.5q34 0 54 13t34 23l45 -70q-8 -9 -20.5 -19.5t-27.5 -19.5t-33.5 -15t-38.5 -6q-21 0 -36.5 6.5t-29.5 15t-29 15t-35 6.5q-34 0 -54 -13t-34 -23z" />
    <glyph glyph-name="Imacron" unicode="&#x12a;" horiz-adv-x="266" 
d="M70 667h126v-667h-126v667zM-23 844h315v-97h-315v97z" />
    <glyph glyph-name="imacron" unicode="&#x12b;" horiz-adv-x="244" 
d="M63 469h118v-469h-118v469zM-8 649h261v-92h-261v92z" />
    <glyph glyph-name="Ibreve" unicode="&#x12c;" horiz-adv-x="266" 
d="M70 667h126v-667h-126v667zM66 863q0 -26 17.5 -46.5t49.5 -20.5t49.5 20.5t17.5 46.5h93q0 -29 -10 -55.5t-29.5 -47.5t-50 -33.5t-70.5 -12.5q-41 0 -71 12.5t-49.5 33.5t-29.5 47.5t-10 55.5h93z" />
    <glyph glyph-name="ibreve" unicode="&#x12d;" horiz-adv-x="244" 
d="M63 469h118v-469h-118v469zM63 682q0 -24 13.5 -44.5t48.5 -20.5t48.5 20.5t13.5 44.5h92q0 -27 -9.5 -52.5t-29 -45.5t-48.5 -32t-67 -12t-67 12t-48.5 32t-29 45.5t-9.5 52.5h92z" />
    <glyph glyph-name="Iogonek" unicode="&#x12e;" horiz-adv-x="266" 
d="M70 667h126v-667q-19 -19 -33 -42t-14 -40q0 -21 26 -21q14 0 26 4.5t24 12.5l29 -75q-26 -17 -56.5 -27t-56.5 -10q-52 0 -76.5 22t-24.5 58q0 30 18.5 60.5t44.5 57.5h-33v667z" />
    <glyph glyph-name="iogonek" unicode="&#x12f;" horiz-adv-x="244" 
d="M63 469h118v-469q-19 -18 -35.5 -40.5t-16.5 -39.5q0 -21 25 -21q16 0 29 5.5t26 13.5l28 -74q-25 -17 -54.5 -26.5t-55.5 -9.5q-51 0 -74.5 21.5t-23.5 56.5q0 29 18 58.5t43 55.5h-27v469zM59 667h126v-124h-126v124z" />
    <glyph glyph-name="Idotaccent" unicode="&#x130;" horiz-adv-x="266" 
d="M70 667h126v-667h-126v667zM68 857h129v-123h-129v123z" />
    <glyph glyph-name="dotlessi" unicode="&#x131;" horiz-adv-x="244" 
d="M63 469h118v-469h-118v469z" />
    <glyph glyph-name="i.locl" horiz-adv-x="244" 
d="M59 667h126v-124h-126v124zM63 469h118v-469h-118v469z" />
    <glyph glyph-name="IJ" unicode="&#x132;" horiz-adv-x="791" 
d="M70 667h126v-667h-126v667zM381 157q32 -35 59 -46.5t62 -11.5q18 0 35.5 6.5t31.5 19.5t22.5 32.5t8.5 45.5v464h126v-471q0 -60 -19.5 -101t-50.5 -66t-70 -36t-78 -11q-78 0 -128.5 24.5t-86.5 70.5z" />
    <glyph glyph-name="ij" unicode="&#x133;" horiz-adv-x="475" 
d="M59 667h126v-124h-126v124zM63 469h118v-469h-118v469zM289 667h126v-124h-126v124zM188 -83q9 -5 22 -10.5t32 -5.5q23 0 37.5 19t14.5 56v493h118v-470q0 -35 -5.5 -70t-22 -64t-46.5 -47t-80 -18q-42 0 -69.5 12.5t-44.5 24.5z" />
    <glyph glyph-name="Jcircumflex" unicode="&#x134;" horiz-adv-x="508" 
d="M98 157q32 -35 59 -46.5t62 -11.5q18 0 35.5 6.5t31.5 19.5t22.5 32.5t8.5 45.5v464h126v-471q0 -60 -19.5 -101t-50.5 -66t-70 -36t-78 -11q-78 0 -128.5 24.5t-86.5 70.5zM326 873h111l110 -156h-104l-62 82l-61 -82h-104z" />
    <glyph glyph-name="jcircumflex" unicode="&#x135;" horiz-adv-x="244" 
d="M-43 -83q9 -5 22 -10.5t32 -5.5q23 0 37.5 19t14.5 56v493h118v-470q0 -35 -5.5 -70t-22 -64t-46.5 -47t-80 -18q-42 0 -69.5 12.5t-44.5 24.5zM68 682h111l104 -142h-104l-56 76l-55 -76h-104z" />
    <glyph glyph-name="Kcommaaccent" unicode="&#x136;" horiz-adv-x="621" 
d="M70 667h126v-274l247 274h143l-246 -273l273 -394h-152l-203 303l-62 -69v-234h-126v667zM246 -51h139l-88 -158h-104z" />
    <glyph glyph-name="kcommaaccent" unicode="&#x137;" horiz-adv-x="512" 
d="M58 667h118v-364l169 166h139l-176 -173l196 -296h-141l-136 216l-51 -50v-166h-118v667zM203 -51h126l-79 -142h-95z" />
    <glyph glyph-name="kgreenlandic" unicode="&#x138;" horiz-adv-x="512" 
d="M58 469h118v-166l169 166h139l-176 -173l196 -296h-141l-136 216l-51 -50v-166h-118v469z" />
    <glyph glyph-name="Lacute" unicode="&#x139;" horiz-adv-x="553" 
d="M70 667h126v-555h329v-112h-455v667zM153 873h146l-114 -156h-105z" />
    <glyph glyph-name="lacute" unicode="&#x13a;" horiz-adv-x="234" 
d="M58 667h118v-667h-118v667zM131 873h146l-114 -156h-105z" />
    <glyph glyph-name="Lcommaaccent" unicode="&#x13b;" horiz-adv-x="553" 
d="M70 667h126v-555h329v-112h-455v667zM233 -51h139l-88 -158h-104z" />
    <glyph glyph-name="lcommaaccent" unicode="&#x13c;" horiz-adv-x="234" 
d="M58 667h118v-667h-118v667zM53 -51h126l-79 -142h-95z" />
    <glyph glyph-name="Lcaron" unicode="&#x13d;" horiz-adv-x="553" 
d="M70 667h126v-555h329v-112h-455v667zM288 667h129l-34 -189h-95v189z" />
    <glyph glyph-name="lcaron" unicode="&#x13e;" horiz-adv-x="234" 
d="M58 667h118v-667h-118v667zM229 667h110l-34 -169h-76v169z" />
    <glyph glyph-name="Ldot" unicode="&#x13f;" horiz-adv-x="553" 
d="M70 667h126v-555h329v-112h-455v667zM341 440h129v-123h-129v123z" />
    <glyph glyph-name="ldot" unicode="&#x140;" horiz-adv-x="384" 
d="M58 667h118v-667h-118v667zM248 414h123v-117h-123v117z" />
    <glyph glyph-name="Lslash" unicode="&#x141;" horiz-adv-x="553" 
d="M70 252l-67 -42v109l67 42v306h126v-226l143 91v-110l-143 -90v-220h329v-112h-455v252z" />
    <glyph glyph-name="lslash" unicode="&#x142;" horiz-adv-x="234" 
d="M58 262l-55 -35v100l55 35v305h118v-228l55 36v-100l-55 -36v-339h-118v262z" />
    <glyph glyph-name="Nacute" unicode="&#x143;" horiz-adv-x="713" 
d="M70 667h127l323 -474v474h123v-667h-124l-326 480v-480h-123v667zM368 873h146l-114 -156h-105z" />
    <glyph glyph-name="nacute" unicode="&#x144;" horiz-adv-x="551" 
d="M58 469h113l3 -53q9 10 21.5 21t30 20.5t39.5 15.5t50 6q88 0 134 -52.5t46 -141.5v-285h-118v284q0 45 -24.5 69.5t-63.5 24.5q-24 0 -45 -9.5t-36 -26.5t-23.5 -39.5t-8.5 -48.5v-254h-118v469zM279 682h126l-79 -142h-95z" />
    <glyph glyph-name="Ncommaaccent" unicode="&#x145;" horiz-adv-x="713" 
d="M70 667h127l323 -474v474h123v-667h-124l-326 480v-480h-123v667zM310 -51h139l-88 -158h-104z" />
    <glyph glyph-name="ncommaaccent" unicode="&#x146;" horiz-adv-x="551" 
d="M58 469h113l3 -53q9 10 21.5 21t30 20.5t39.5 15.5t50 6q88 0 134 -52.5t46 -141.5v-285h-118v284q0 45 -24.5 69.5t-63.5 24.5q-24 0 -45 -9.5t-36 -26.5t-23.5 -39.5t-8.5 -48.5v-254h-118v469zM216 -51h126l-79 -142h-95z" />
    <glyph glyph-name="Ncaron" unicode="&#x147;" horiz-adv-x="713" 
d="M70 667h127l323 -474v474h123v-667h-124l-326 480v-480h-123v667zM194 873h104l62 -82l61 82h104l-110 -156h-111z" />
    <glyph glyph-name="ncaron" unicode="&#x148;" horiz-adv-x="551" 
d="M58 469h113l3 -53q9 10 21.5 21t30 20.5t39.5 15.5t50 6q88 0 134 -52.5t46 -141.5v-285h-118v284q0 45 -24.5 69.5t-63.5 24.5q-24 0 -45 -9.5t-36 -26.5t-23.5 -39.5t-8.5 -48.5v-254h-118v469zM122 682h104l56 -76l55 76h104l-104 -142h-111z" />
    <glyph glyph-name="napostrophe" unicode="&#x149;" horiz-adv-x="551" 
d="M58 469h113l3 -53q9 10 21.5 21t30 20.5t39.5 15.5t50 6q88 0 134 -52.5t46 -141.5v-285h-118v284q0 45 -24.5 69.5t-63.5 24.5q-24 0 -45 -9.5t-36 -26.5t-23.5 -39.5t-8.5 -48.5v-254h-118v469zM22 682h119l-39 -142h-88z" />
    <glyph glyph-name="Eng" unicode="&#x14a;" horiz-adv-x="713" 
d="M70 667h127l323 -474v474h123v-667q0 -35 -6.5 -71t-24 -64.5t-48.5 -46.5t-81 -18q-45 0 -73 12.5t-47 24.5l46 84q9 -5 23 -10.5t33 -5.5q25 0 39.5 19.5t14.5 57.5v18l-326 480v-480h-123v667z" />
    <glyph glyph-name="eng" unicode="&#x14b;" horiz-adv-x="551" 
d="M58 469h113l3 -53q9 10 21.5 21t30 20.5t39.5 15.5t50 6q43 0 77 -14t56.5 -39.5t34.5 -61.5t12 -79v-285q0 -35 -5.5 -70t-22 -64t-46.5 -47t-80 -18q-42 0 -69.5 12.5t-44.5 24.5l44 80q9 -5 22 -10.5t32 -5.5q23 0 37.5 19t14.5 56v307q0 45 -24.5 69.5t-63.5 24.5
q-24 0 -45 -9.5t-36 -26.5t-23.5 -39.5t-8.5 -48.5v-254h-118v469z" />
    <glyph glyph-name="Omacron" unicode="&#x14c;" horiz-adv-x="782" 
d="M391 -18q-73 0 -136 27.5t-110 75.5t-74 112t-27 137t27 137t73.5 111.5t110 75t136.5 27.5t136 -27.5t110 -75t74 -111.5t27 -137t-27 -137t-74 -112t-110 -75.5t-136 -27.5zM391 101q49 0 89 19t68 51.5t43 75.5t15 90q0 48 -15 90.5t-43 74.5t-68 50.5t-89 18.5
q-50 0 -89.5 -18.5t-67.5 -50.5t-43 -74.5t-15 -90.5q0 -47 15 -90t43 -75.5t67.5 -51.5t89.5 -19zM235 844h315v-97h-315v97z" />
    <glyph glyph-name="omacron" unicode="&#x14d;" horiz-adv-x="576" 
d="M36 235q0 51 18.5 96.5t51.5 79.5t79.5 54t102.5 20t102.5 -20t79.5 -54t51.5 -79.5t18.5 -96.5t-18.5 -96.5t-51.5 -80t-79.5 -54.5t-102.5 -20t-102.5 20t-79.5 54.5t-51.5 80t-18.5 96.5zM288 86q34 0 59 13.5t41.5 35.5t24.5 48t8 52q0 25 -8 51.5t-24.5 48t-41.5 35
t-59 13.5t-59 -13.5t-41.5 -35t-24.5 -48t-8 -51.5q0 -26 8 -52t24.5 -48t41.5 -35.5t59 -13.5zM159 650h261v-92h-261v92z" />
    <glyph glyph-name="Obreve" unicode="&#x14e;" horiz-adv-x="782" 
d="M391 -18q-73 0 -136 27.5t-110 75.5t-74 112t-27 137t27 137t73.5 111.5t110 75t136.5 27.5t136 -27.5t110 -75t74 -111.5t27 -137t-27 -137t-74 -112t-110 -75.5t-136 -27.5zM391 101q49 0 89 19t68 51.5t43 75.5t15 90q0 48 -15 90.5t-43 74.5t-68 50.5t-89 18.5
q-50 0 -89.5 -18.5t-67.5 -50.5t-43 -74.5t-15 -90.5q0 -47 15 -90t43 -75.5t67.5 -51.5t89.5 -19zM324 863q0 -26 17.5 -46.5t49.5 -20.5t49.5 20.5t17.5 46.5h93q0 -29 -10 -55.5t-29.5 -47.5t-50 -33.5t-70.5 -12.5q-41 0 -71 12.5t-49.5 33.5t-29.5 47.5t-10 55.5h93z
" />
    <glyph glyph-name="obreve" unicode="&#x14f;" horiz-adv-x="576" 
d="M36 235q0 51 18.5 96.5t51.5 79.5t79.5 54t102.5 20t102.5 -20t79.5 -54t51.5 -79.5t18.5 -96.5t-18.5 -96.5t-51.5 -80t-79.5 -54.5t-102.5 -20t-102.5 20t-79.5 54.5t-51.5 80t-18.5 96.5zM288 86q34 0 59 13.5t41.5 35.5t24.5 48t8 52q0 25 -8 51.5t-24.5 48t-41.5 35
t-59 13.5t-59 -13.5t-41.5 -35t-24.5 -48t-8 -51.5q0 -26 8 -52t24.5 -48t41.5 -35.5t59 -13.5zM227 682q0 -24 13.5 -44.5t48.5 -20.5t48.5 20.5t13.5 44.5h92q0 -27 -9.5 -52.5t-29 -45.5t-48.5 -32t-67 -12t-67 12t-48.5 32t-29 45.5t-9.5 52.5h92z" />
    <glyph glyph-name="Ohungarumlaut" unicode="&#x150;" horiz-adv-x="782" 
d="M391 -18q-73 0 -136 27.5t-110 75.5t-74 112t-27 137t27 137t73.5 111.5t110 75t136.5 27.5t136 -27.5t110 -75t74 -111.5t27 -137t-27 -137t-74 -112t-110 -75.5t-136 -27.5zM391 101q49 0 89 19t68 51.5t43 75.5t15 90q0 48 -15 90.5t-43 74.5t-68 50.5t-89 18.5
q-50 0 -89.5 -18.5t-67.5 -50.5t-43 -74.5t-15 -90.5q0 -47 15 -90t43 -75.5t67.5 -51.5t89.5 -19zM329 873h138l-114 -156h-97zM514 873h138l-114 -156h-97z" />
    <glyph glyph-name="ohungarumlaut" unicode="&#x151;" horiz-adv-x="576" 
d="M36 235q0 51 18.5 96.5t51.5 79.5t79.5 54t102.5 20t102.5 -20t79.5 -54t51.5 -79.5t18.5 -96.5t-18.5 -96.5t-51.5 -80t-79.5 -54.5t-102.5 -20t-102.5 20t-79.5 54.5t-51.5 80t-18.5 96.5zM288 86q34 0 59 13.5t41.5 35.5t24.5 48t8 52q0 25 -8 51.5t-24.5 48t-41.5 35
t-59 13.5t-59 -13.5t-41.5 -35t-24.5 -48t-8 -51.5q0 -26 8 -52t24.5 -48t41.5 -35.5t59 -13.5zM365 682h119l-79 -142h-88zM203 682h119l-79 -142h-88z" />
    <glyph glyph-name="Racute" unicode="&#x154;" horiz-adv-x="586" 
d="M70 667h221q63 0 107 -19t71 -48.5t39.5 -64.5t12.5 -67q0 -63 -27.5 -111.5t-84.5 -77.5l154 -279h-142l-135 263h-95v-263h-121v667zM292 367q48 0 74.5 28t26.5 68q0 43 -28 70t-73 27h-101v-193h101zM279 873h146l-114 -156h-105z" />
    <glyph glyph-name="racute" unicode="&#x155;" horiz-adv-x="382" 
d="M58 469h113l3 -59q8 10 20.5 22t29.5 22t39.5 17t51.5 7q17 0 30.5 -2t27.5 -7l-24 -111q-12 5 -24.5 7t-29.5 2q-24 0 -46 -8t-38 -23t-25.5 -36t-9.5 -47v-253h-118v469zM214 682h126l-79 -142h-95z" />
    <glyph glyph-name="Rcommaaccent" unicode="&#x156;" horiz-adv-x="586" 
d="M70 667h221q63 0 107 -19t71 -48.5t39.5 -64.5t12.5 -67q0 -63 -27.5 -111.5t-84.5 -77.5l154 -279h-142l-135 263h-95v-263h-121v667zM292 367q48 0 74.5 28t26.5 68q0 43 -28 70t-73 27h-101v-193h101zM236 -51h139l-88 -158h-104z" />
    <glyph glyph-name="rcommaaccent" unicode="&#x157;" horiz-adv-x="382" 
d="M58 469h113l3 -59q8 10 20.5 22t29.5 22t39.5 17t51.5 7q17 0 30.5 -2t27.5 -7l-24 -111q-12 5 -24.5 7t-29.5 2q-24 0 -46 -8t-38 -23t-25.5 -36t-9.5 -47v-253h-118v469zM57 -51h126l-79 -142h-95z" />
    <glyph glyph-name="Rcaron" unicode="&#x158;" horiz-adv-x="586" 
d="M70 667h221q63 0 107 -19t71 -48.5t39.5 -64.5t12.5 -67q0 -63 -27.5 -111.5t-84.5 -77.5l154 -279h-142l-135 263h-95v-263h-121v667zM292 367q48 0 74.5 28t26.5 68q0 43 -28 70t-73 27h-101v-193h101zM108 873h104l62 -82l61 82h104l-110 -156h-111z" />
    <glyph glyph-name="rcaron" unicode="&#x159;" horiz-adv-x="382" 
d="M58 469h113l3 -59q8 10 20.5 22t29.5 22t39.5 17t51.5 7q17 0 30.5 -2t27.5 -7l-24 -111q-12 5 -24.5 7t-29.5 2q-24 0 -46 -8t-38 -23t-25.5 -36t-9.5 -47v-253h-118v469zM50 682h104l56 -76l55 76h104l-104 -142h-111z" />
    <glyph glyph-name="Sacute" unicode="&#x15a;" horiz-adv-x="593" 
d="M119 188q12 -14 28.5 -29.5t37 -29t46 -22.5t57.5 -9q59 0 87.5 27t28.5 65q0 21 -8 37.5t-27 29t-49.5 22.5t-75.5 19q-46 9 -79.5 28t-55.5 45t-33 57.5t-11 64.5q0 38 14 72.5t43 61t72.5 42.5t102.5 16q53 0 91 -12t63.5 -28t39.5 -31.5l20 -22.5l-83 -78
q-5 4 -16 14.5t-27.5 20.5t-39.5 18t-52 8q-26 0 -45 -7t-31.5 -18t-18.5 -24.5t-6 -25.5q0 -18 6.5 -32t22 -26t42.5 -21.5t68 -17.5q39 -8 75 -24t63.5 -41.5t44 -62t16.5 -87.5q0 -44 -18 -81t-50 -65t-76 -43.5t-96 -15.5q-50 0 -90.5 12t-73 30.5t-56 40.5t-39.5 42z
M309 873h146l-114 -156h-105z" />
    <glyph glyph-name="sacute" unicode="&#x15b;" horiz-adv-x="478" 
d="M106 134q22 -22 55.5 -36.5t76.5 -14.5q38 0 61 10t23 33q0 10 -4 18.5t-17 16.5t-36 16t-62 17q-24 6 -50 16t-48.5 27.5t-37 42t-14.5 58.5q0 35 17 62.5t44.5 46t62 28.5t69.5 10q62 0 105.5 -13t78.5 -39l-61 -83q-19 14 -50 25.5t-73 11.5t-58.5 -12.5t-16.5 -30.5
q0 -22 27.5 -34.5t85.5 -26.5q36 -8 64.5 -20t49 -30t31.5 -42.5t11 -58.5t-16 -61.5t-43.5 -46.5t-64 -29.5t-77.5 -10.5q-66 0 -119 18.5t-85 54.5zM247 682h126l-79 -142h-95z" />
    <glyph glyph-name="Scircumflex" unicode="&#x15c;" horiz-adv-x="593" 
d="M119 188q12 -14 28.5 -29.5t37 -29t46 -22.5t57.5 -9q59 0 87.5 27t28.5 65q0 21 -8 37.5t-27 29t-49.5 22.5t-75.5 19q-46 9 -79.5 28t-55.5 45t-33 57.5t-11 64.5q0 38 14 72.5t43 61t72.5 42.5t102.5 16q53 0 91 -12t63.5 -28t39.5 -31.5l20 -22.5l-83 -78
q-5 4 -16 14.5t-27.5 20.5t-39.5 18t-52 8q-26 0 -45 -7t-31.5 -18t-18.5 -24.5t-6 -25.5q0 -18 6.5 -32t22 -26t42.5 -21.5t68 -17.5q39 -8 75 -24t63.5 -41.5t44 -62t16.5 -87.5q0 -44 -18 -81t-50 -65t-76 -43.5t-96 -15.5q-50 0 -90.5 12t-73 30.5t-56 40.5t-39.5 42z
M242 873h111l110 -156h-104l-62 82l-61 -82h-104z" />
    <glyph glyph-name="scircumflex" unicode="&#x15d;" horiz-adv-x="478" 
d="M106 134q22 -22 55.5 -36.5t76.5 -14.5q38 0 61 10t23 33q0 10 -4 18.5t-17 16.5t-36 16t-62 17q-24 6 -50 16t-48.5 27.5t-37 42t-14.5 58.5q0 35 17 62.5t44.5 46t62 28.5t69.5 10q62 0 105.5 -13t78.5 -39l-61 -83q-19 14 -50 25.5t-73 11.5t-58.5 -12.5t-16.5 -30.5
q0 -22 27.5 -34.5t85.5 -26.5q36 -8 64.5 -20t49 -30t31.5 -42.5t11 -58.5t-16 -61.5t-43.5 -46.5t-64 -29.5t-77.5 -10.5q-66 0 -119 18.5t-85 54.5zM196 682h111l104 -142h-104l-56 76l-55 -76h-104z" />
    <glyph glyph-name="Scedilla" unicode="&#x15e;" horiz-adv-x="593" 
d="M119 188q12 -14 28.5 -29.5t37 -29t46 -22.5t57.5 -9q59 0 87.5 27t28.5 65q0 21 -8 37.5t-27 29t-49.5 22.5t-75.5 19q-46 9 -79.5 28t-55.5 45t-33 57.5t-11 64.5q0 38 14 72.5t43 61t72.5 42.5t102.5 16q53 0 91 -12t63.5 -28t39.5 -31.5l20 -22.5l-83 -78
q-5 4 -16 14.5t-27.5 20.5t-39.5 18t-52 8q-26 0 -45 -7t-31.5 -18t-18.5 -24.5t-6 -25.5q0 -18 6.5 -32t22 -26t42.5 -21.5t68 -17.5q39 -8 75 -24t63.5 -41.5t44 -62t16.5 -87.5q0 -44 -18 -81t-50 -65t-76 -43.5t-96 -15.5q-50 0 -90.5 12t-73 30.5t-56 40.5t-39.5 42z
M178 -150q19 -7 36.5 -9.5t33.5 -2.5q26 0 41 7.5t15 22.5q0 12 -12.5 20.5t-39.5 8.5q-17 0 -34 -3t-30 -8l11 68q18 5 37 8.5t48 3.5q54 0 85.5 -26t31.5 -67q0 -26 -11.5 -46t-30 -33.5t-42.5 -20t-49 -6.5q-24 0 -42.5 2t-32.5 5q-16 3 -28 7z" />
    <glyph glyph-name="scedilla" unicode="&#x15f;" horiz-adv-x="478" 
d="M106 134q22 -22 55.5 -36.5t76.5 -14.5q38 0 61 10t23 33q0 10 -4 18.5t-17 16.5t-36 16t-62 17q-24 6 -50 16t-48.5 27.5t-37 42t-14.5 58.5q0 35 17 62.5t44.5 46t62 28.5t69.5 10q62 0 105.5 -13t78.5 -39l-61 -83q-19 14 -50 25.5t-73 11.5t-58.5 -12.5t-16.5 -30.5
q0 -22 27.5 -34.5t85.5 -26.5q36 -8 64.5 -20t49 -30t31.5 -42.5t11 -58.5t-16 -61.5t-43.5 -46.5t-64 -29.5t-77.5 -10.5q-66 0 -119 18.5t-85 54.5zM128 -150q19 -7 36 -9.5t33 -2.5q58 0 58 32q0 12 -12.5 21t-41.5 9q-17 0 -33.5 -3t-29.5 -8l11 67q18 5 36.5 8.5
t47.5 3.5q54 0 84.5 -26t30.5 -67q0 -26 -11 -46t-29.5 -33.5t-42 -20t-48.5 -6.5q-24 0 -42.5 2t-32.5 5q-16 3 -27 7z" />
    <glyph glyph-name="uni0162" unicode="&#x162;" horiz-adv-x="624" 
d="M249 556h-226v111h578v-111h-226v-556h-126v556zM207 -148q19 -7 36.5 -9.5t33.5 -2.5q26 0 41 7.5t15 22.5q0 12 -12.5 20.5t-39.5 8.5q-17 0 -34 -3t-30 -8l11 68q18 5 37 8.5t48 3.5q54 0 85.5 -26t31.5 -67q0 -26 -11.5 -46t-30 -33.5t-42.5 -20t-49 -6.5
q-24 0 -42.5 2t-32.5 5q-16 3 -28 7z" />
    <glyph glyph-name="uni0163" unicode="&#x163;" horiz-adv-x="402" 
d="M98 373h-80v96h80v152h118v-152h126v-96h-126v-205q0 -40 13.5 -61.5t43.5 -21.5q28 0 44.5 8t31.5 19l50 -73q-35 -29 -69 -41.5t-76 -12.5q-43 0 -73 12.5t-48.5 35.5t-26.5 55.5t-8 71.5v213zM136 -160q19 -7 36 -9.5t33 -2.5q58 0 58 32q0 12 -12.5 21t-41.5 9
q-17 0 -33.5 -3t-29.5 -8l11 67q18 5 36.5 8.5t47.5 3.5q54 0 84.5 -26t30.5 -67q0 -26 -11 -46t-29.5 -33.5t-42 -20t-48.5 -6.5q-24 0 -42.5 2t-32.5 5q-16 3 -27 7z" />
    <glyph glyph-name="Tcaron" unicode="&#x164;" horiz-adv-x="624" 
d="M249 556h-226v111h578v-111h-226v-556h-126v556zM146 873h104l62 -82l61 82h104l-110 -156h-111z" />
    <glyph glyph-name="tcaron" unicode="&#x165;" horiz-adv-x="402" 
d="M269 668h110l-34 -155h-76v155zM98 373h-80v96h80v152h118v-152h126v-96h-126v-205q0 -40 13.5 -61.5t43.5 -21.5q28 0 44.5 8t31.5 19l50 -73q-35 -29 -69 -41.5t-76 -12.5q-43 0 -73 12.5t-48.5 35.5t-26.5 55.5t-8 71.5v213z" />
    <glyph glyph-name="Tbar" unicode="&#x166;" horiz-adv-x="624" 
d="M249 255h-134v104h134v197h-226v111h578v-111h-226v-197h133v-104h-133v-255h-126v255z" />
    <glyph glyph-name="tbar" unicode="&#x167;" horiz-adv-x="402" 
d="M19 280h79v93h-80v96h80v152h118v-152h126v-96h-126v-93h126v-84h-126v-28q0 -40 13.5 -61.5t43.5 -21.5q28 0 44.5 8t31.5 19l50 -73q-35 -29 -69 -41.5t-76 -12.5q-43 0 -73 12.5t-48.5 35.5t-26.5 55.5t-8 71.5v36h-79v84z" />
    <glyph glyph-name="Utilde" unicode="&#x168;" horiz-adv-x="674" 
d="M65 667h126v-399q0 -38 7.5 -68.5t24.5 -52t45 -33t69 -11.5t69 11.5t45 33t24.5 52t7.5 68.5v399h126v-421q0 -56 -18 -104t-53 -83.5t-85.5 -56t-115.5 -20.5t-115.5 20.5t-85.5 56t-53 83.5t-18 104v421zM133 804q9 9 22 20t29.5 20t35.5 15t41 6t38 -6.5t30.5 -14.5
t30 -14.5t36.5 -6.5q35 0 56.5 13t35.5 24l49 -75q-9 -9 -22 -20t-29 -20.5t-35 -16t-41 -6.5t-38 7t-31 15t-30.5 15t-36.5 7q-35 0 -56.5 -13t-35.5 -24z" />
    <glyph glyph-name="utilde" unicode="&#x169;" horiz-adv-x="551" 
d="M56 469h118v-284q0 -45 24.5 -69.5t63.5 -24.5q24 0 45 9.5t36 26.5t23.5 39.5t8.5 48.5v254h118v-469h-113l-3 53q-9 -10 -22 -21t-30 -20.5t-39 -15.5t-50 -6q-88 0 -134 52.5t-46 141.5v285zM79 615q8 9 20.5 19t28 18.5t34 14.5t38.5 6q21 0 36 -6.5t29 -14t29 -14
t35 -6.5q34 0 54 13t34 23l45 -70q-8 -9 -20.5 -19.5t-27.5 -19.5t-33.5 -15t-38.5 -6q-21 0 -36.5 6.5t-29.5 15t-29 15t-35 6.5q-34 0 -54 -13t-34 -23z" />
    <glyph glyph-name="Umacron" unicode="&#x16a;" horiz-adv-x="674" 
d="M65 667h126v-399q0 -38 7.5 -68.5t24.5 -52t45 -33t69 -11.5t69 11.5t45 33t24.5 52t7.5 68.5v399h126v-421q0 -56 -18 -104t-53 -83.5t-85.5 -56t-115.5 -20.5t-115.5 20.5t-85.5 56t-53 83.5t-18 104v421zM181 844h315v-97h-315v97z" />
    <glyph glyph-name="umacron" unicode="&#x16b;" horiz-adv-x="551" 
d="M56 469h118v-284q0 -45 24.5 -69.5t63.5 -24.5q24 0 45 9.5t36 26.5t23.5 39.5t8.5 48.5v254h118v-469h-113l-3 53q-9 -10 -22 -21t-30 -20.5t-39 -15.5t-50 -6q-88 0 -134 52.5t-46 141.5v285zM142 649h261v-92h-261v92z" />
    <glyph glyph-name="Ubreve" unicode="&#x16c;" horiz-adv-x="674" 
d="M65 667h126v-399q0 -38 7.5 -68.5t24.5 -52t45 -33t69 -11.5t69 11.5t45 33t24.5 52t7.5 68.5v399h126v-421q0 -56 -18 -104t-53 -83.5t-85.5 -56t-115.5 -20.5t-115.5 20.5t-85.5 56t-53 83.5t-18 104v421zM272 863q0 -26 17.5 -46.5t49.5 -20.5t49.5 20.5t17.5 46.5h93
q0 -29 -10 -55.5t-29.5 -47.5t-50 -33.5t-70.5 -12.5q-41 0 -71 12.5t-49.5 33.5t-29.5 47.5t-10 55.5h93z" />
    <glyph glyph-name="ubreve" unicode="&#x16d;" horiz-adv-x="551" 
d="M56 469h118v-284q0 -45 24.5 -69.5t63.5 -24.5q24 0 45 9.5t36 26.5t23.5 39.5t8.5 48.5v254h118v-469h-113l-3 53q-9 -10 -22 -21t-30 -20.5t-39 -15.5t-50 -6q-88 0 -134 52.5t-46 141.5v285zM213 682q0 -24 13.5 -44.5t48.5 -20.5t48.5 20.5t13.5 44.5h92
q0 -27 -9.5 -52.5t-29 -45.5t-48.5 -32t-67 -12t-67 12t-48.5 32t-29 45.5t-9.5 52.5h92z" />
    <glyph glyph-name="Uring" unicode="&#x16e;" horiz-adv-x="674" 
d="M65 667h126v-399q0 -38 7.5 -68.5t24.5 -52t45 -33t69 -11.5t69 11.5t45 33t24.5 52t7.5 68.5v399h126v-421q0 -56 -18 -104t-53 -83.5t-85.5 -56t-115.5 -20.5t-115.5 20.5t-85.5 56t-53 83.5t-18 104v421zM205 803q0 28 10 51.5t28 40.5t42 26.5t51 9.5q28 0 52 -9.5
t42 -26.5t28 -40.5t10 -50.5q0 -28 -10 -51.5t-28 -40.5t-42 -26.5t-51 -9.5q-28 0 -52 9.5t-42 26.5t-28 40.5t-10 50.5zM337 751q23 0 36.5 14.5t13.5 38.5q0 23 -13.5 37.5t-37.5 14.5q-23 0 -36.5 -14.5t-13.5 -38.5q0 -23 13.5 -37.5t37.5 -14.5z" />
    <glyph glyph-name="uring" unicode="&#x16f;" horiz-adv-x="551" 
d="M56 469h118v-284q0 -45 24.5 -69.5t63.5 -24.5q24 0 45 9.5t36 26.5t23.5 39.5t8.5 48.5v254h118v-469h-113l-3 53q-9 -10 -22 -21t-30 -20.5t-39 -15.5t-50 -6q-88 0 -134 52.5t-46 141.5v285zM155 644q0 24 9.5 45t25 36t37 23.5t45.5 8.5t45.5 -8.5t37.5 -23.5
t25.5 -35.5t9.5 -44.5t-9.5 -45t-25 -36t-37 -23.5t-45.5 -8.5t-45.5 8.5t-37.5 23.5t-25.5 35.5t-9.5 44.5zM272 600q19 0 31.5 12.5t12.5 31.5q0 18 -12.5 30.5t-30.5 12.5q-19 0 -31.5 -12.5t-12.5 -30.5q0 -19 12.5 -31.5t30.5 -12.5z" />
    <glyph glyph-name="Uhungarumlaut" unicode="&#x170;" horiz-adv-x="674" 
d="M65 667h126v-399q0 -38 7.5 -68.5t24.5 -52t45 -33t69 -11.5t69 11.5t45 33t24.5 52t7.5 68.5v399h126v-421q0 -56 -18 -104t-53 -83.5t-85.5 -56t-115.5 -20.5t-115.5 20.5t-85.5 56t-53 83.5t-18 104v421zM255 873h138l-114 -156h-97zM440 873h138l-114 -156h-97z" />
    <glyph glyph-name="uhungarumlaut" unicode="&#x171;" horiz-adv-x="551" 
d="M56 469h118v-284q0 -45 24.5 -69.5t63.5 -24.5q24 0 45 9.5t36 26.5t23.5 39.5t8.5 48.5v254h118v-469h-113l-3 53q-9 -10 -22 -21t-30 -20.5t-39 -15.5t-50 -6q-88 0 -134 52.5t-46 141.5v285zM354 682h119l-79 -142h-88zM192 682h119l-79 -142h-88z" />
    <glyph glyph-name="Uogonek" unicode="&#x172;" horiz-adv-x="674" 
d="M65 667h126v-399q0 -38 7.5 -68.5t24.5 -52t45 -33t69 -11.5q82 0 115.5 44.5t33.5 120.5v399h123v-421q0 -51 -12 -88.5t-30 -64t-40 -44.5t-42 -30q-43 -27 -59 -48.5t-16 -44.5q0 -29 26 -29q14 0 26 4.5t24 12.5l29 -75q-26 -17 -56.5 -27t-56.5 -10q-52 0 -76.5 22
t-24.5 58q0 26 13.5 51.5t33.5 49.5h-17q-64 0 -113.5 21t-83.5 57t-51.5 83.5t-17.5 101.5v421z" />
    <glyph glyph-name="uogonek" unicode="&#x173;" horiz-adv-x="551" 
d="M56 469h118v-284q0 -45 24.5 -69.5t63.5 -24.5q24 0 45 9.5t36 26.5t23.5 39.5t8.5 48.5v254h118v-469q-19 -18 -35.5 -40.5t-16.5 -39.5q0 -21 25 -21q16 0 29 5.5t26 13.5l28 -74q-25 -17 -54.5 -26.5t-55.5 -9.5q-51 0 -74.5 21.5t-23.5 56.5q0 29 18 58.5t43 55.5
h-22l-3 53q-9 -10 -22 -21t-30 -20.5t-39 -15.5t-50 -6q-88 0 -134 52.5t-46 141.5v285z" />
    <glyph glyph-name="Wcircumflex" unicode="&#x174;" horiz-adv-x="880" 
d="M10 667h138l109 -499l129 480h114l130 -480l108 499h132l-175 -667h-132l-124 441l-126 -441h-130zM390 873h111l110 -156h-104l-62 82l-61 -82h-104z" />
    <glyph glyph-name="wcircumflex" unicode="&#x175;" horiz-adv-x="749" 
d="M9 469h130l90 -326l99 326h99l100 -326l89 326h124l-159 -469h-114l-96 283l-93 -283h-110zM326 682h111l104 -142h-104l-56 76l-55 -76h-104z" />
    <glyph glyph-name="Ycircumflex" unicode="&#x176;" horiz-adv-x="600" 
d="M236 293l-231 374h138l160 -266l160 266h132l-231 -374v-293h-128v293zM248 873h111l110 -156h-104l-62 82l-61 -82h-104z" />
    <glyph glyph-name="ycircumflex" unicode="&#x177;" horiz-adv-x="527" 
d="M77 -93q10 -8 22 -15.5t30 -7.5q24 0 39.5 20t32.5 62l15 38l-211 465h136l134 -321l118 321h129l-196 -469l-28 -72t-34.5 -68.5t-50.5 -51.5t-76 -20q-40 0 -66.5 9.5t-46.5 26.5zM214 682h111l104 -142h-104l-56 76l-55 -76h-104z" />
    <glyph glyph-name="Zacute" unicode="&#x179;" horiz-adv-x="658" 
d="M53 110l393 446h-375v111h526v-111l-385 -446h393v-110h-552v110zM334 873h146l-114 -156h-105z" />
    <glyph glyph-name="zacute" unicode="&#x17a;" horiz-adv-x="472" 
d="M46 90l239 280h-232v99h379v-92l-247 -281h247v-96h-386v90zM256 682h126l-79 -142h-95z" />
    <glyph glyph-name="Zdotaccent" unicode="&#x17b;" horiz-adv-x="658" 
d="M53 110l393 446h-375v111h526v-111l-385 -446h393v-110h-552v110zM276 857h129v-123h-129v123z" />
    <glyph glyph-name="zdotaccent" unicode="&#x17c;" horiz-adv-x="472" 
d="M46 90l239 280h-232v99h379v-92l-247 -281h247v-96h-386v90zM191 670h123v-117h-123v117z" />
    <glyph glyph-name="Zcaron" unicode="&#x17d;" horiz-adv-x="658" 
d="M53 110l393 446h-375v111h526v-111l-385 -446h393v-110h-552v110zM174 873h104l62 -82l61 82h104l-110 -156h-111z" />
    <glyph glyph-name="zcaron" unicode="&#x17e;" horiz-adv-x="472" 
d="M46 90l239 280h-232v99h379v-92l-247 -281h247v-96h-386v90zM94 682h104l56 -76l55 76h104l-104 -142h-111z" />
    <glyph glyph-name="longs" unicode="&#x17f;" horiz-adv-x="233" 
d="M58 474q0 48 7.5 85.5t33.5 66.5q21 24 54.5 41.5t78.5 17.5q16 0 34 -2t37 -7t38 -14.5t37 -25.5l-55 -78q-27 20 -61.5 24.5t-60.5 -16.5q-19 -15 -22 -38t-4 -59l1 -469h-118v474z" />
    <glyph glyph-name="Scommaaccent" unicode="&#x218;" horiz-adv-x="593" 
d="M119 188q12 -14 28.5 -29.5t37 -29t46 -22.5t57.5 -9q59 0 87.5 27t28.5 65q0 21 -8 37.5t-27 29t-49.5 22.5t-75.5 19q-46 9 -79.5 28t-55.5 45t-33 57.5t-11 64.5q0 38 14 72.5t43 61t72.5 42.5t102.5 16q53 0 91 -12t63.5 -28t39.5 -31.5l20 -22.5l-83 -78
q-5 4 -16 14.5t-27.5 20.5t-39.5 18t-52 8q-26 0 -45 -7t-31.5 -18t-18.5 -24.5t-6 -25.5q0 -18 6.5 -32t22 -26t42.5 -21.5t68 -17.5q39 -8 75 -24t63.5 -41.5t44 -62t16.5 -87.5q0 -44 -18 -81t-50 -65t-76 -43.5t-96 -15.5q-50 0 -90.5 12t-73 30.5t-56 40.5t-39.5 42z
M231 -51h139l-88 -158h-104z" />
    <glyph glyph-name="scommaaccent" unicode="&#x219;" horiz-adv-x="478" 
d="M106 134q22 -22 55.5 -36.5t76.5 -14.5q38 0 61 10t23 33q0 10 -4 18.5t-17 16.5t-36 16t-62 17q-24 6 -50 16t-48.5 27.5t-37 42t-14.5 58.5q0 35 17 62.5t44.5 46t62 28.5t69.5 10q62 0 105.5 -13t78.5 -39l-61 -83q-19 14 -50 25.5t-73 11.5t-58.5 -12.5t-16.5 -30.5
q0 -22 27.5 -34.5t85.5 -26.5q36 -8 64.5 -20t49 -30t31.5 -42.5t11 -58.5t-16 -61.5t-43.5 -46.5t-64 -29.5t-77.5 -10.5q-66 0 -119 18.5t-85 54.5zM189 -51h126l-79 -142h-95z" />
    <glyph glyph-name="uni021A" unicode="&#x21a;" horiz-adv-x="624" 
d="M249 556h-226v111h578v-111h-226v-556h-126v556zM243 -51h139l-88 -158h-104z" />
    <glyph glyph-name="uni021B" unicode="&#x21b;" horiz-adv-x="402" 
d="M98 373h-80v96h80v152h118v-152h126v-96h-126v-205q0 -40 13.5 -61.5t43.5 -21.5q28 0 44.5 8t31.5 19l50 -73q-35 -29 -69 -41.5t-76 -12.5q-43 0 -73 12.5t-48.5 35.5t-26.5 55.5t-8 71.5v213zM186 -51h126l-79 -142h-95z" />
    <glyph glyph-name="dotlessj" unicode="&#x237;" horiz-adv-x="244" 
d="M-43 -83q9 -5 22 -10.5t32 -5.5q23 0 37.5 19t14.5 56v493h118v-470q0 -35 -5.5 -70t-22 -64t-46.5 -47t-80 -18q-42 0 -69.5 12.5t-44.5 24.5z" />
    <glyph glyph-name="apostrophe" unicode="&#x2bc;" horiz-adv-x="116" 
d="M18 682h119l-39 -142h-88z" />
    <glyph glyph-name="caron" unicode="&#x2c7;" horiz-adv-x="449" 
d="M65 682h104l56 -76l55 76h104l-104 -142h-111z" />
    <glyph glyph-name="uni02C9" unicode="&#x2c9;" horiz-adv-x="347" 
d="M43 649h261v-92h-261v92z" />
    <glyph glyph-name="breve" unicode="&#x2d8;" horiz-adv-x="460" 
d="M183 682q0 -24 13.5 -44.5t48.5 -20.5t48.5 20.5t13.5 44.5h92q0 -27 -9.5 -52.5t-29 -45.5t-48.5 -32t-67 -12t-67 12t-48.5 32t-29 45.5t-9.5 52.5h92z" />
    <glyph glyph-name="dotaccent" unicode="&#x2d9;" horiz-adv-x="259" 
d="M68 670h123v-117h-123v117z" />
    <glyph glyph-name="ring" unicode="&#x2da;" horiz-adv-x="315" 
d="M40 644q0 24 9.5 45t25 36t37 23.5t45.5 8.5t45.5 -8.5t37.5 -23.5t25.5 -35.5t9.5 -44.5t-9.5 -45t-25 -36t-37 -23.5t-45.5 -8.5t-45.5 8.5t-37.5 23.5t-25.5 35.5t-9.5 44.5zM157 600q19 0 31.5 12.5t12.5 31.5q0 18 -12.5 30.5t-30.5 12.5q-19 0 -31.5 -12.5
t-12.5 -30.5q0 -19 12.5 -31.5t30.5 -12.5z" />
    <glyph glyph-name="ogonek" unicode="&#x2db;" horiz-adv-x="298" 
d="M214 0q-19 -18 -35.5 -40.5t-16.5 -39.5q0 -21 25 -21q16 0 29 5.5t26 13.5l28 -74q-25 -17 -54.5 -26.5t-55.5 -9.5q-51 0 -74.5 21.5t-23.5 56.5q0 29 18 58.5t43 55.5h91z" />
    <glyph glyph-name="hungarumlaut" unicode="&#x2dd;" horiz-adv-x="445" 
d="M268 682h119l-79 -142h-88zM106 682h119l-79 -142h-88z" />
    <glyph glyph-name="uni20B9" unicode="&#x20b9;" horiz-adv-x="545" 
d="M67 382v85h225q-24 81 -135 81h-90v85h429l-26 -85h-103q17 -16 27 -37t15 -44h87l-26 -85h-59q-4 -29 -15.5 -55.5t-31.5 -48t-49 -37.5t-68 -22l248 -219h-166l-262 231v67h89q57 0 91.5 20t45.5 64h-226z" />
    <glyph glyph-name="Wgrave" unicode="&#x1e80;" horiz-adv-x="880" 
d="M10 667h138l109 -499l129 480h114l130 -480l108 499h132l-175 -667h-132l-124 441l-126 -441h-130zM269 873h146l73 -156h-105z" />
    <glyph glyph-name="wgrave" unicode="&#x1e81;" horiz-adv-x="749" 
d="M9 469h130l90 -326l99 326h99l100 -326l89 326h124l-159 -469h-114l-96 283l-93 -283h-110zM253 682h126l48 -142h-95z" />
    <glyph glyph-name="Wacute" unicode="&#x1e82;" horiz-adv-x="880" 
d="M10 667h138l109 -499l129 480h114l130 -480l108 499h132l-175 -667h-132l-124 441l-126 -441h-130zM465 873h146l-114 -156h-105z" />
    <glyph glyph-name="wacute" unicode="&#x1e83;" horiz-adv-x="749" 
d="M9 469h130l90 -326l99 326h99l100 -326l89 326h124l-159 -469h-114l-96 283l-93 -283h-110zM376 682h126l-79 -142h-95z" />
    <glyph glyph-name="Wdieresis" unicode="&#x1e84;" horiz-adv-x="880" 
d="M10 667h138l109 -499l129 480h114l130 -480l108 499h132l-175 -667h-132l-124 441l-126 -441h-130zM487 854h123v-117h-123v117zM274 854h123v-117h-123v117z" />
    <glyph glyph-name="wdieresis" unicode="&#x1e85;" horiz-adv-x="749" 
d="M9 469h130l90 -326l99 326h99l100 -326l89 326h124l-159 -469h-114l-96 283l-93 -283h-110zM409 666h115v-109h-115v109zM224 666h115v-109h-115v109z" />
    <glyph glyph-name="Ygrave" unicode="&#x1ef2;" horiz-adv-x="600" 
d="M236 293l-231 374h138l160 -266l160 266h132l-231 -374v-293h-128v293zM149 873h146l73 -156h-105z" />
    <glyph glyph-name="ygrave" unicode="&#x1ef3;" horiz-adv-x="527" 
d="M77 -93q10 -8 22 -15.5t30 -7.5q24 0 39.5 20t32.5 62l15 38l-211 465h136l134 -321l118 321h129l-196 -469l-28 -72t-34.5 -68.5t-50.5 -51.5t-76 -20q-40 0 -66.5 9.5t-46.5 26.5zM151 682h126l48 -142h-95z" />
    <glyph glyph-name="fraction" unicode="&#x2044;" horiz-adv-x="195" 
d="M249 630h107l-406 -630h-107z" />
    <glyph glyph-name="zerosuperior" unicode="&#x2070;" 
d="M180 285q-69 0 -114 45.5t-45 135.5t45 135.5t114 45.5t114 -45.5t45 -135.5t-45 -135.5t-114 -45.5zM180 364q11 0 22 5t19.5 17t14 31.5t5.5 48.5t-5.5 48.5t-14 31.5t-19.5 17t-22 5t-22 -5t-19.5 -17t-14 -31.5t-5.5 -48.5t5.5 -48.5t14 -31.5t19.5 -17t22 -5z" />
    <glyph glyph-name="onesuperior" unicode="&#xb9;" 
d="M173 533l-78 -39l-36 72l126 71h86v-342h-98v238z" />
    <glyph glyph-name="twosuperior" unicode="&#xb2;" 
d="M49 340q0 26 12.5 46.5t30.5 37.5t40 31l40 26.5t30.5 24.5t12.5 25q0 18 -11 25.5t-28 7.5q-23 0 -50 -11t-47 -24l-36 70q25 17 63 32.5t82 15.5q66 0 97 -30.5t31 -75.5q0 -36 -17 -58.5t-41 -39.5t-51 -32t-47 -36h157v-80h-268v45z" />
    <glyph glyph-name="threesuperior" unicode="&#xb3;" 
d="M74 395q18 -14 40.5 -23t47.5 -9q24 0 39 10t15 31q0 26 -19 34t-47 8q-13 0 -26 -2t-23 -5l-16 35l106 84h-133v79h240v-76l-77 -61q52 -10 71.5 -39t19.5 -67q0 -48 -40.5 -78.5t-108.5 -30.5q-42 0 -75.5 11.5t-57.5 30.5z" />
    <glyph glyph-name="foursuperior" unicode="&#x2074;" 
d="M33 426l172 211h96v-211h41v-71h-41v-60h-87v60h-181v71zM214 426v122l-103 -122h103z" />
    <glyph glyph-name="fivesuperior" unicode="&#x2075;" 
d="M69 390q17 -14 40 -22t48 -8q9 0 19.5 1.5t20 6t15.5 13t6 22.5q0 21 -19 31.5t-43 10.5q-13 0 -28 -2.5t-29 -10.5l-44 35l38 170h199v-79h-131l-11 -52q18 5 37 5q24 0 46 -6.5t39.5 -19.5t27.5 -33.5t10 -47.5q0 -25 -10.5 -47.5t-30 -39t-47 -26t-61.5 -9.5
q-38 0 -74 11t-61 29z" />
    <glyph glyph-name="sixsuperior" unicode="&#x2076;" 
d="M271 554q-11 6 -27 10.5t-33 4.5q-34 0 -58 -21t-26 -53q17 9 37.5 13.5t38.5 4.5q23 0 45 -6t39 -19t27 -34t10 -51q0 -24 -10.5 -45.5t-29 -37.5t-44.5 -25.5t-56 -9.5q-28 0 -55 9.5t-48 29.5t-34 52t-13 76q0 43 12.5 78.5t35 61.5t54 40.5t70.5 14.5q35 0 60 -8.5
t36 -14.5zM127 429q0 -37 15.5 -55t39.5 -18q26 0 42 13t16 34q0 18 -13 31t-40 13q-17 0 -34.5 -6t-25.5 -12z" />
    <glyph glyph-name="sevensuperior" unicode="&#x2077;" 
d="M83 295q12 37 30.5 76t38 75t37.5 65t28 47h-172v79h269v-80q-11 -17 -29 -48.5l-37.5 -68t-36.5 -75t-26 -70.5h-102z" />
    <glyph glyph-name="eightsuperior" unicode="&#x2078;" 
d="M99 476q-51 26 -51 73q0 24 11 42.5t29 30.5t41.5 18.5t49.5 6.5q25 0 49 -6t42.5 -18.5t29.5 -31t11 -42.5q0 -23 -13.5 -42t-37.5 -31q29 -11 47.5 -31.5t18.5 -52.5q0 -27 -12 -47t-32 -33.5t-46.5 -20t-56.5 -6.5t-56.5 6.5t-46.5 20t-31.5 33.5t-11.5 47
q0 32 18.5 52.5t47.5 31.5zM181 446q-19 -5 -35.5 -18t-16.5 -34q0 -20 15.5 -29t34.5 -9q18 0 34 9t16 29q0 21 -15.5 34t-32.5 18zM177 505q17 5 32 14t15 28q0 18 -13.5 27t-31.5 9t-31.5 -9t-13.5 -27q0 -19 13 -28t30 -14z" />
    <glyph glyph-name="ninesuperior" unicode="&#x2079;" 
d="M85 378q11 -6 27.5 -10.5t39.5 -4.5q40 0 59 21t21 53q-17 -9 -37.5 -13.5t-38.5 -4.5q-23 0 -45 6t-39 19t-27 34t-10 51q0 24 10.5 45.5t29 37.5t44.5 25.5t56 9.5q28 0 55 -9.5t48 -30t34 -52t13 -75.5q0 -43 -11 -78.5t-33 -61.5t-55 -40.5t-78 -14.5
q-34 0 -58.5 8.5t-35.5 14.5zM232 503q0 37 -15.5 55t-39.5 18q-26 0 -42 -13t-16 -34q0 -18 13 -31t40 -13q17 0 34.5 6t25.5 12z" />
    <glyph glyph-name="zeroinferior" unicode="&#x2080;" 
d="M180 -9q-69 0 -114 45.5t-45 135.5t45 135.5t114 45.5t114 -45.5t45 -135.5t-45 -135.5t-114 -45.5zM180 70q11 0 22 5t19.5 17t14 31.5t5.5 48.5t-5.5 48.5t-14 31.5t-19.5 17t-22 5t-22 -5t-19.5 -17t-14 -31.5t-5.5 -48.5t5.5 -48.5t14 -31.5t19.5 -17t22 -5z" />
    <glyph glyph-name="oneinferior" unicode="&#x2081;" 
d="M173 239l-78 -39l-36 72l126 71h86v-342h-98v238z" />
    <glyph glyph-name="twoinferior" unicode="&#x2082;" 
d="M49 46q0 26 12.5 46.5t30.5 37.5t40 31l40 26.5t30.5 24.5t12.5 25q0 18 -11 25.5t-28 7.5q-23 0 -50 -11t-47 -24l-36 70q25 17 63 32.5t82 15.5q66 0 97 -30.5t31 -75.5q0 -36 -17 -58.5t-41 -39.5t-51 -32t-47 -36h157v-80h-268v45z" />
    <glyph glyph-name="threeinferior" unicode="&#x2083;" 
d="M74 101q18 -14 40.5 -23t47.5 -9q24 0 39 10t15 31q0 26 -19 34t-47 8q-13 0 -26 -2t-23 -5l-16 35l106 84h-133v79h240v-76l-77 -61q52 -10 71.5 -39t19.5 -67q0 -48 -40.5 -78.5t-108.5 -30.5q-42 0 -75.5 11.5t-57.5 30.5z" />
    <glyph glyph-name="fourinferior" unicode="&#x2084;" 
d="M33 132l172 211h96v-211h41v-71h-41v-60h-87v60h-181v71zM214 132v122l-103 -122h103z" />
    <glyph glyph-name="fiveinferior" unicode="&#x2085;" 
d="M69 96q17 -14 40 -22t48 -8q9 0 19.5 1.5t20 6t15.5 13t6 22.5q0 21 -19 31.5t-43 10.5q-13 0 -28 -2.5t-29 -10.5l-44 35l38 170h199v-79h-131l-11 -52q18 5 37 5q24 0 46 -6.5t39.5 -19.5t27.5 -33.5t10 -47.5q0 -25 -10.5 -47.5t-30 -39t-47 -26t-61.5 -9.5
q-38 0 -74 11t-61 29z" />
    <glyph glyph-name="sixinferior" unicode="&#x2086;" 
d="M271 260q-11 6 -27 10.5t-33 4.5q-34 0 -58 -21t-26 -53q17 9 37.5 13.5t38.5 4.5q23 0 45 -6t39 -19t27 -34t10 -51q0 -24 -10.5 -45.5t-29 -37.5t-44.5 -25.5t-56 -9.5q-28 0 -55 9.5t-48 29.5t-34 52t-13 76q0 43 12.5 78.5t35 61.5t54 40.5t70.5 14.5q35 0 60 -8.5
t36 -14.5zM127 135q0 -37 15.5 -55t39.5 -18q26 0 42 13t16 34q0 18 -13 31t-40 13q-17 0 -34.5 -6t-25.5 -12z" />
    <glyph glyph-name="seveninferior" unicode="&#x2087;" 
d="M83 1q12 37 30.5 76t38 75t37.5 65t28 47h-172v79h269v-80q-11 -17 -29 -48.5l-37.5 -68t-36.5 -75t-26 -70.5h-102z" />
    <glyph glyph-name="eightinferior" unicode="&#x2088;" 
d="M99 182q-51 26 -51 73q0 24 11 42.5t29 30.5t41.5 18.5t49.5 6.5q25 0 49 -6t42.5 -18.5t29.5 -31t11 -42.5q0 -23 -13.5 -42t-37.5 -31q29 -11 47.5 -31.5t18.5 -52.5q0 -27 -12 -47t-32 -33.5t-46.5 -20t-56.5 -6.5t-56.5 6.5t-46.5 20t-31.5 33.5t-11.5 47
q0 32 18.5 52.5t47.5 31.5zM181 152q-19 -5 -35.5 -18t-16.5 -34q0 -20 15.5 -29t34.5 -9q18 0 34 9t16 29q0 21 -15.5 34t-32.5 18zM177 211q17 5 32 14t15 28q0 18 -13.5 27t-31.5 9t-31.5 -9t-13.5 -27q0 -19 13 -28t30 -14z" />
    <glyph glyph-name="nineinferior" unicode="&#x2089;" 
d="M85 84q11 -6 27.5 -10.5t39.5 -4.5q40 0 59 21t21 53q-17 -9 -37.5 -13.5t-38.5 -4.5q-23 0 -45 6t-39 19t-27 34t-10 51q0 24 10.5 45.5t29 37.5t44.5 25.5t56 9.5q28 0 55 -9.5t48 -30t34 -52t13 -75.5q0 -43 -11 -78.5t-33 -61.5t-55 -40.5t-78 -14.5q-34 0 -58.5 8.5
t-35.5 14.5zM232 209q0 37 -15.5 55t-39.5 18q-26 0 -42 -13t-16 -34q0 -18 13 -31t40 -13q17 0 34.5 6t25.5 12z" />
    <glyph glyph-name="afii61289" unicode="&#x2113;" horiz-adv-x="472" 
d="M131 437q0 71 9.5 119.5t28 78t45 42.5t61.5 13q51 0 84 -37.5t33 -106.5q0 -91 -48 -172.5t-136 -163.5v-20q0 -41 6 -66.5t16.5 -39.5t25 -19.5t31.5 -5.5q32 0 61.5 16.5t45.5 39.5l19 -20l21 -18q-27 -40 -65.5 -63t-90.5 -23q-70 0 -108 39.5t-38 127.5
q-13 -10 -24.5 -18l-24.5 -17q-5 11 -11.5 22l-13.5 22q19 13 37 27.5l36 30.5v212zM208 289q54 60 85.5 123.5t31.5 132.5q0 48 -16 67.5t-38 19.5q-26 0 -44.5 -33t-18.5 -109v-201z" />
    <glyph glyph-name="estimated" unicode="&#x212e;" horiz-adv-x="893" 
d="M195 138q0 -13 9 -22q48 -51 110 -79t135 -28q79 0 145 32.5t114 86.5h57q-26 -32 -60.5 -57.5t-75.5 -43.5t-87 -28t-94 -10q-83 0 -156 28.5t-127 77t-85.5 114t-31.5 140.5t31.5 140.5t85.5 114.5t127 77.5t156 28.5t156.5 -28.5t128 -77.5t86 -114.5t31.5 -140.5v-10
h-650q-5 0 -5 -4v-197zM698 358q4 0 4 7v197q0 13 -9 24q-48 48 -110 75t-134 27q-71 0 -134 -29t-110 -77q-5 -4 -7.5 -10.5t-2.5 -13.5v-193q0 -7 5 -7h498z" />
    <glyph glyph-name="onethird" unicode="&#x2153;" horiz-adv-x="925" 
d="M182 533l-78 -39l-36 72l126 71h86v-342h-98v238zM598 630h107l-406 -630h-107zM618 101q18 -14 40.5 -23t47.5 -9q24 0 39 10t15 31q0 26 -19 34t-47 8q-13 0 -26 -2t-23 -5l-16 35l106 84h-133v79h240v-76l-77 -61q52 -10 71.5 -39t19.5 -67q0 -48 -40.5 -78.5
t-108.5 -30.5q-42 0 -75.5 11.5t-57.5 30.5z" />
    <glyph glyph-name="twothirds" unicode="&#x2154;" horiz-adv-x="925" 
d="M56 340q0 26 12.5 46.5t30.5 37.5t40 31l40 26.5t30.5 24.5t12.5 25q0 18 -11 25.5t-28 7.5q-23 0 -50 -11t-47 -24l-36 70q25 17 63 32.5t82 15.5q66 0 97 -30.5t31 -75.5q0 -36 -17 -58.5t-41 -39.5t-51 -32t-47 -36h157v-80h-268v45zM616 630h107l-406 -630h-107z
M636 101q18 -14 40.5 -23t47.5 -9q24 0 39 10t15 31q0 26 -19 34t-47 8q-13 0 -26 -2t-23 -5l-16 35l106 84h-133v79h240v-76l-77 -61q52 -10 71.5 -39t19.5 -67q0 -48 -40.5 -78.5t-108.5 -30.5q-42 0 -75.5 11.5t-57.5 30.5z" />
    <glyph glyph-name="oneeighth" unicode="&#x215b;" horiz-adv-x="925" 
d="M175 533l-78 -39l-36 72l126 71h86v-342h-98v238zM591 630h107l-406 -630h-107zM636 182q-51 26 -51 73q0 24 11 42.5t29 30.5t41.5 18.5t49.5 6.5q25 0 49 -6t42.5 -18.5t29.5 -31t11 -42.5q0 -23 -13.5 -42t-37.5 -31q29 -11 47.5 -31.5t18.5 -52.5q0 -27 -12 -47
t-32 -33.5t-46.5 -20t-56.5 -6.5t-56.5 6.5t-46.5 20t-31.5 33.5t-11.5 47q0 32 18.5 52.5t47.5 31.5zM718 152q-19 -5 -35.5 -18t-16.5 -34q0 -20 15.5 -29t34.5 -9q18 0 34 9t16 29q0 21 -15.5 34t-32.5 18zM714 211q17 5 32 14t15 28q0 18 -13.5 27t-31.5 9t-31.5 -9
t-13.5 -27q0 -19 13 -28t30 -14z" />
    <glyph glyph-name="threeeighths" unicode="&#x215c;" horiz-adv-x="925" 
d="M89 395q18 -14 40.5 -23t47.5 -9q24 0 39 10t15 31q0 26 -19 34t-47 8q-13 0 -26 -2t-23 -5l-16 35l106 84h-133v79h240v-76l-77 -61q52 -10 71.5 -39t19.5 -67q0 -48 -40.5 -78.5t-108.5 -30.5q-42 0 -75.5 11.5t-57.5 30.5zM609 630h107l-406 -630h-107zM654 182
q-51 26 -51 73q0 24 11 42.5t29 30.5t41.5 18.5t49.5 6.5q25 0 49 -6t42.5 -18.5t29.5 -31t11 -42.5q0 -23 -13.5 -42t-37.5 -31q29 -11 47.5 -31.5t18.5 -52.5q0 -27 -12 -47t-32 -33.5t-46.5 -20t-56.5 -6.5t-56.5 6.5t-46.5 20t-31.5 33.5t-11.5 47q0 32 18.5 52.5
t47.5 31.5zM736 152q-19 -5 -35.5 -18t-16.5 -34q0 -20 15.5 -29t34.5 -9q18 0 34 9t16 29q0 21 -15.5 34t-32.5 18zM732 211q17 5 32 14t15 28q0 18 -13.5 27t-31.5 9t-31.5 -9t-13.5 -27q0 -19 13 -28t30 -14z" />
    <glyph glyph-name="fiveeighths" unicode="&#x215d;" horiz-adv-x="925" 
d="M88 390q17 -14 40 -22t48 -8q9 0 19.5 1.5t20 6t15.5 13t6 22.5q0 21 -19 31.5t-43 10.5q-13 0 -28 -2.5t-29 -10.5l-44 35l38 170h199v-79h-131l-11 -52q18 5 37 5q24 0 46 -6.5t39.5 -19.5t27.5 -33.5t10 -47.5q0 -25 -10.5 -47.5t-30 -39t-47 -26t-61.5 -9.5
q-38 0 -74 11t-61 29zM608 630h107l-406 -630h-107zM653 182q-51 26 -51 73q0 24 11 42.5t29 30.5t41.5 18.5t49.5 6.5q25 0 49 -6t42.5 -18.5t29.5 -31t11 -42.5q0 -23 -13.5 -42t-37.5 -31q29 -11 47.5 -31.5t18.5 -52.5q0 -27 -12 -47t-32 -33.5t-46.5 -20t-56.5 -6.5
t-56.5 6.5t-46.5 20t-31.5 33.5t-11.5 47q0 32 18.5 52.5t47.5 31.5zM735 152q-19 -5 -35.5 -18t-16.5 -34q0 -20 15.5 -29t34.5 -9q18 0 34 9t16 29q0 21 -15.5 34t-32.5 18zM731 211q17 5 32 14t15 28q0 18 -13.5 27t-31.5 9t-31.5 -9t-13.5 -27q0 -19 13 -28t30 -14z" />
    <glyph glyph-name="seveneighths" unicode="&#x215e;" horiz-adv-x="925" 
d="M107 295q12 37 30.5 76t38 75t37.5 65t28 47h-172v79h269v-80q-11 -17 -29 -48.5l-37.5 -68t-36.5 -75t-26 -70.5h-102zM583 630h107l-406 -630h-107zM628 182q-51 26 -51 73q0 24 11 42.5t29 30.5t41.5 18.5t49.5 6.5q25 0 49 -6t42.5 -18.5t29.5 -31t11 -42.5
q0 -23 -13.5 -42t-37.5 -31q29 -11 47.5 -31.5t18.5 -52.5q0 -27 -12 -47t-32 -33.5t-46.5 -20t-56.5 -6.5t-56.5 6.5t-46.5 20t-31.5 33.5t-11.5 47q0 32 18.5 52.5t47.5 31.5zM710 152q-19 -5 -35.5 -18t-16.5 -34q0 -20 15.5 -29t34.5 -9q18 0 34 9t16 29q0 21 -15.5 34
t-32.5 18zM706 211q17 5 32 14t15 28q0 18 -13.5 27t-31.5 9t-31.5 -9t-13.5 -27q0 -19 13 -28t30 -14z" />
    <glyph glyph-name="onefifth" unicode="&#x2155;" horiz-adv-x="925" 
d="M183 533l-78 -39l-36 72l126 71h86v-342h-98v238zM599 630h107l-406 -630h-107zM614 96q17 -14 40 -22t48 -8q9 0 19.5 1.5t20 6t15.5 13t6 22.5q0 21 -19 31.5t-43 10.5q-13 0 -28 -2.5t-29 -10.5l-44 35l38 170h199v-79h-131l-11 -52q18 5 37 5q24 0 46 -6.5
t39.5 -19.5t27.5 -33.5t10 -47.5q0 -25 -10.5 -47.5t-30 -39t-47 -26t-61.5 -9.5q-38 0 -74 11t-61 29z" />
    <glyph glyph-name="twofifths" unicode="&#x2156;" horiz-adv-x="925" 
d="M57 340q0 26 12.5 46.5t30.5 37.5t40 31l40 26.5t30.5 24.5t12.5 25q0 18 -11 25.5t-28 7.5q-23 0 -50 -11t-47 -24l-36 70q25 17 63 32.5t82 15.5q66 0 97 -30.5t31 -75.5q0 -36 -17 -58.5t-41 -39.5t-51 -32t-47 -36h157v-80h-268v45zM617 630h107l-406 -630h-107z
M632 96q17 -14 40 -22t48 -8q9 0 19.5 1.5t20 6t15.5 13t6 22.5q0 21 -19 31.5t-43 10.5q-13 0 -28 -2.5t-29 -10.5l-44 35l38 170h199v-79h-131l-11 -52q18 5 37 5q24 0 46 -6.5t39.5 -19.5t27.5 -33.5t10 -47.5q0 -25 -10.5 -47.5t-30 -39t-47 -26t-61.5 -9.5
q-38 0 -74 11t-61 29z" />
    <glyph glyph-name="threefifths" unicode="&#x2157;" horiz-adv-x="925" 
d="M97 395q18 -14 40.5 -23t47.5 -9q24 0 39 10t15 31q0 26 -19 34t-47 8q-13 0 -26 -2t-23 -5l-16 35l106 84h-133v79h240v-76l-77 -61q52 -10 71.5 -39t19.5 -67q0 -48 -40.5 -78.5t-108.5 -30.5q-42 0 -75.5 11.5t-57.5 30.5zM617 630h107l-406 -630h-107zM632 96
q17 -14 40 -22t48 -8q9 0 19.5 1.5t20 6t15.5 13t6 22.5q0 21 -19 31.5t-43 10.5q-13 0 -28 -2.5t-29 -10.5l-44 35l38 170h199v-79h-131l-11 -52q18 5 37 5q24 0 46 -6.5t39.5 -19.5t27.5 -33.5t10 -47.5q0 -25 -10.5 -47.5t-30 -39t-47 -26t-61.5 -9.5q-38 0 -74 11
t-61 29z" />
    <glyph glyph-name="fourfifths" unicode="&#x2158;" horiz-adv-x="925" 
d="M44 426l172 211h96v-211h41v-71h-41v-60h-87v60h-181v71zM225 426v122l-103 -122h103zM620 630h107l-406 -630h-107zM635 96q17 -14 40 -22t48 -8q9 0 19.5 1.5t20 6t15.5 13t6 22.5q0 21 -19 31.5t-43 10.5q-13 0 -28 -2.5t-29 -10.5l-44 35l38 170h199v-79h-131
l-11 -52q18 5 37 5q24 0 46 -6.5t39.5 -19.5t27.5 -33.5t10 -47.5q0 -25 -10.5 -47.5t-30 -39t-47 -26t-61.5 -9.5q-38 0 -74 11t-61 29z" />
    <glyph glyph-name="onesixth" unicode="&#x2159;" horiz-adv-x="925" 
d="M186 533l-78 -39l-36 72l126 71h86v-342h-98v238zM602 630h107l-406 -630h-107zM799 260q-11 6 -27 10.5t-33 4.5q-34 0 -58 -21t-26 -53q17 9 37.5 13.5t38.5 4.5q23 0 45 -6t39 -19t27 -34t10 -51q0 -24 -10.5 -45.5t-29 -37.5t-44.5 -25.5t-56 -9.5q-28 0 -55 9.5
t-48 29.5t-34 52t-13 76q0 43 12.5 78.5t35 61.5t54 40.5t70.5 14.5q35 0 60 -8.5t36 -14.5zM655 135q0 -37 15.5 -55t39.5 -18q26 0 42 13t16 34q0 18 -13 31t-40 13q-17 0 -34.5 -6t-25.5 -12z" />
    <glyph glyph-name="fivesixths" unicode="&#x215a;" horiz-adv-x="925" 
d="M99 390q17 -14 40 -22t48 -8q9 0 19.5 1.5t20 6t15.5 13t6 22.5q0 21 -19 31.5t-43 10.5q-13 0 -28 -2.5t-29 -10.5l-44 35l38 170h199v-79h-131l-11 -52q18 5 37 5q24 0 46 -6.5t39.5 -19.5t27.5 -33.5t10 -47.5q0 -25 -10.5 -47.5t-30 -39t-47 -26t-61.5 -9.5
q-38 0 -74 11t-61 29zM619 630h107l-406 -630h-107zM816 260q-11 6 -27 10.5t-33 4.5q-34 0 -58 -21t-26 -53q17 9 37.5 13.5t38.5 4.5q23 0 45 -6t39 -19t27 -34t10 -51q0 -24 -10.5 -45.5t-29 -37.5t-44.5 -25.5t-56 -9.5q-28 0 -55 9.5t-48 29.5t-34 52t-13 76
q0 43 12.5 78.5t35 61.5t54 40.5t70.5 14.5q35 0 60 -8.5t36 -14.5zM672 135q0 -37 15.5 -55t39.5 -18q26 0 42 13t16 34q0 18 -13 31t-40 13q-17 0 -34.5 -6t-25.5 -12z" />
    <glyph glyph-name="oneseventh" unicode="&#xf506;" horiz-adv-x="925" 
d="M181 533l-78 -39l-36 72l126 71h86v-342h-98v238zM597 630h107l-406 -630h-107zM626 1q12 37 30.5 76t38 75t37.5 65t28 47h-172v79h269v-80q-11 -17 -29 -48.5l-37.5 -68t-36.5 -75t-26 -70.5h-102z" />
    <glyph glyph-name="twosevenths" unicode="&#xf507;" horiz-adv-x="925" 
d="M55 340q0 26 12.5 46.5t30.5 37.5t40 31l40 26.5t30.5 24.5t12.5 25q0 18 -11 25.5t-28 7.5q-23 0 -50 -11t-47 -24l-36 70q25 17 63 32.5t82 15.5q66 0 97 -30.5t31 -75.5q0 -36 -17 -58.5t-41 -39.5t-51 -32t-47 -36h157v-80h-268v45zM615 630h107l-406 -630h-107z
M644 1q12 37 30.5 76t38 75t37.5 65t28 47h-172v79h269v-80q-11 -17 -29 -48.5l-37.5 -68t-36.5 -75t-26 -70.5h-102z" />
    <glyph glyph-name="threesevenths" unicode="&#xf508;" horiz-adv-x="925" 
d="M95 395q18 -14 40.5 -23t47.5 -9q24 0 39 10t15 31q0 26 -19 34t-47 8q-13 0 -26 -2t-23 -5l-16 35l106 84h-133v79h240v-76l-77 -61q52 -10 71.5 -39t19.5 -67q0 -48 -40.5 -78.5t-108.5 -30.5q-42 0 -75.5 11.5t-57.5 30.5zM615 630h107l-406 -630h-107zM644 1
q12 37 30.5 76t38 75t37.5 65t28 47h-172v79h269v-80q-11 -17 -29 -48.5l-37.5 -68t-36.5 -75t-26 -70.5h-102z" />
    <glyph glyph-name="foursevenths" unicode="&#xf509;" horiz-adv-x="925" 
d="M42 426l172 211h96v-211h41v-71h-41v-60h-87v60h-181v71zM223 426v122l-103 -122h103zM618 630h107l-406 -630h-107zM647 1q12 37 30.5 76t38 75t37.5 65t28 47h-172v79h269v-80q-11 -17 -29 -48.5l-37.5 -68t-36.5 -75t-26 -70.5h-102z" />
    <glyph glyph-name="fivesevenths" unicode="&#xf50a;" horiz-adv-x="925" 
d="M94 390q17 -14 40 -22t48 -8q9 0 19.5 1.5t20 6t15.5 13t6 22.5q0 21 -19 31.5t-43 10.5q-13 0 -28 -2.5t-29 -10.5l-44 35l38 170h199v-79h-131l-11 -52q18 5 37 5q24 0 46 -6.5t39.5 -19.5t27.5 -33.5t10 -47.5q0 -25 -10.5 -47.5t-30 -39t-47 -26t-61.5 -9.5
q-38 0 -74 11t-61 29zM614 630h107l-406 -630h-107zM643 1q12 37 30.5 76t38 75t37.5 65t28 47h-172v79h269v-80q-11 -17 -29 -48.5l-37.5 -68t-36.5 -75t-26 -70.5h-102z" />
    <glyph glyph-name="sixsevenths" unicode="&#xf50b;" horiz-adv-x="925" 
d="M282 554q-11 6 -27 10.5t-33 4.5q-34 0 -58 -21t-26 -53q17 9 37.5 13.5t38.5 4.5q23 0 45 -6t39 -19t27 -34t10 -51q0 -24 -10.5 -45.5t-29 -37.5t-44.5 -25.5t-56 -9.5q-28 0 -55 9.5t-48 29.5t-34 52t-13 76q0 43 12.5 78.5t35 61.5t54 40.5t70.5 14.5q35 0 60 -8.5
t36 -14.5zM138 429q0 -37 15.5 -55t39.5 -18q26 0 42 13t16 34q0 18 -13 31t-40 13q-17 0 -34.5 -6t-25.5 -12zM620 630h107l-406 -630h-107zM649 1q12 37 30.5 76t38 75t37.5 65t28 47h-172v79h269v-80q-11 -17 -29 -48.5l-37.5 -68t-36.5 -75t-26 -70.5h-102z" />
    <glyph glyph-name="oneninth" unicode="&#xf50c;" horiz-adv-x="925" 
d="M176 533l-78 -39l-36 72l126 71h86v-342h-98v238zM592 630h107l-406 -630h-107zM623 84q11 -6 27.5 -10.5t39.5 -4.5q40 0 59 21t21 53q-17 -9 -37.5 -13.5t-38.5 -4.5q-23 0 -45 6t-39 19t-27 34t-10 51q0 24 10.5 45.5t29 37.5t44.5 25.5t56 9.5q28 0 55 -9.5t48 -30
t34 -52t13 -75.5q0 -43 -11 -78.5t-33 -61.5t-55 -40.5t-78 -14.5q-34 0 -58.5 8.5t-35.5 14.5zM770 209q0 37 -15.5 55t-39.5 18q-26 0 -42 -13t-16 -34q0 -18 13 -31t40 -13q17 0 34.5 6t25.5 12z" />
    <glyph glyph-name="twoninths" unicode="&#xf50d;" horiz-adv-x="925" 
d="M50 340q0 26 12.5 46.5t30.5 37.5t40 31l40 26.5t30.5 24.5t12.5 25q0 18 -11 25.5t-28 7.5q-23 0 -50 -11t-47 -24l-36 70q25 17 63 32.5t82 15.5q66 0 97 -30.5t31 -75.5q0 -36 -17 -58.5t-41 -39.5t-51 -32t-47 -36h157v-80h-268v45zM610 630h107l-406 -630h-107z
M641 84q11 -6 27.5 -10.5t39.5 -4.5q40 0 59 21t21 53q-17 -9 -37.5 -13.5t-38.5 -4.5q-23 0 -45 6t-39 19t-27 34t-10 51q0 24 10.5 45.5t29 37.5t44.5 25.5t56 9.5q28 0 55 -9.5t48 -30t34 -52t13 -75.5q0 -43 -11 -78.5t-33 -61.5t-55 -40.5t-78 -14.5q-34 0 -58.5 8.5
t-35.5 14.5zM788 209q0 37 -15.5 55t-39.5 18q-26 0 -42 -13t-16 -34q0 -18 13 -31t40 -13q17 0 34.5 6t25.5 12z" />
    <glyph glyph-name="fourninths" unicode="&#xf50e;" horiz-adv-x="925" 
d="M36 426l172 211h96v-211h41v-71h-41v-60h-87v60h-181v71zM217 426v122l-103 -122h103zM612 630h107l-406 -630h-107zM643 84q11 -6 27.5 -10.5t39.5 -4.5q40 0 59 21t21 53q-17 -9 -37.5 -13.5t-38.5 -4.5q-23 0 -45 6t-39 19t-27 34t-10 51q0 24 10.5 45.5t29 37.5
t44.5 25.5t56 9.5q28 0 55 -9.5t48 -30t34 -52t13 -75.5q0 -43 -11 -78.5t-33 -61.5t-55 -40.5t-78 -14.5q-34 0 -58.5 8.5t-35.5 14.5zM790 209q0 37 -15.5 55t-39.5 18q-26 0 -42 -13t-16 -34q0 -18 13 -31t40 -13q17 0 34.5 6t25.5 12z" />
    <glyph glyph-name="fiveninths" unicode="&#xf50f;" horiz-adv-x="925" 
d="M88 390q17 -14 40 -22t48 -8q9 0 19.5 1.5t20 6t15.5 13t6 22.5q0 21 -19 31.5t-43 10.5q-13 0 -28 -2.5t-29 -10.5l-44 35l38 170h199v-79h-131l-11 -52q18 5 37 5q24 0 46 -6.5t39.5 -19.5t27.5 -33.5t10 -47.5q0 -25 -10.5 -47.5t-30 -39t-47 -26t-61.5 -9.5
q-38 0 -74 11t-61 29zM608 630h107l-406 -630h-107zM639 84q11 -6 27.5 -10.5t39.5 -4.5q40 0 59 21t21 53q-17 -9 -37.5 -13.5t-38.5 -4.5q-23 0 -45 6t-39 19t-27 34t-10 51q0 24 10.5 45.5t29 37.5t44.5 25.5t56 9.5q28 0 55 -9.5t48 -30t34 -52t13 -75.5
q0 -43 -11 -78.5t-33 -61.5t-55 -40.5t-78 -14.5q-34 0 -58.5 8.5t-35.5 14.5zM786 209q0 37 -15.5 55t-39.5 18q-26 0 -42 -13t-16 -34q0 -18 13 -31t40 -13q17 0 34.5 6t25.5 12z" />
    <glyph glyph-name="sevenninths" unicode="&#xf510;" horiz-adv-x="925" 
d="M98 295q12 37 30.5 76t38 75t37.5 65t28 47h-172v79h269v-80q-11 -17 -29 -48.5l-37.5 -68t-36.5 -75t-26 -70.5h-102zM574 630h107l-406 -630h-107zM605 84q11 -6 27.5 -10.5t39.5 -4.5q40 0 59 21t21 53q-17 -9 -37.5 -13.5t-38.5 -4.5q-23 0 -45 6t-39 19t-27 34
t-10 51q0 24 10.5 45.5t29 37.5t44.5 25.5t56 9.5q28 0 55 -9.5t48 -30t34 -52t13 -75.5q0 -43 -11 -78.5t-33 -61.5t-55 -40.5t-78 -14.5q-34 0 -58.5 8.5t-35.5 14.5zM752 209q0 37 -15.5 55t-39.5 18q-26 0 -42 -13t-16 -34q0 -18 13 -31t40 -13q17 0 34.5 6t25.5 12z
" />
    <glyph glyph-name="eightninths" unicode="&#xf511;" horiz-adv-x="925" 
d="M105 476q-51 26 -51 73q0 24 11 42.5t29 30.5t41.5 18.5t49.5 6.5q25 0 49 -6t42.5 -18.5t29.5 -31t11 -42.5q0 -23 -13.5 -42t-37.5 -31q29 -11 47.5 -31.5t18.5 -52.5q0 -27 -12 -47t-32 -33.5t-46.5 -20t-56.5 -6.5t-56.5 6.5t-46.5 20t-31.5 33.5t-11.5 47
q0 32 18.5 52.5t47.5 31.5zM187 446q-19 -5 -35.5 -18t-16.5 -34q0 -20 15.5 -29t34.5 -9q18 0 34 9t16 29q0 21 -15.5 34t-32.5 18zM183 505q17 5 32 14t15 28q0 18 -13.5 27t-31.5 9t-31.5 -9t-13.5 -27q0 -19 13 -28t30 -14zM615 630h107l-406 -630h-107zM646 84
q11 -6 27.5 -10.5t39.5 -4.5q40 0 59 21t21 53q-17 -9 -37.5 -13.5t-38.5 -4.5q-23 0 -45 6t-39 19t-27 34t-10 51q0 24 10.5 45.5t29 37.5t44.5 25.5t56 9.5q28 0 55 -9.5t48 -30t34 -52t13 -75.5q0 -43 -11 -78.5t-33 -61.5t-55 -40.5t-78 -14.5q-34 0 -58.5 8.5
t-35.5 14.5zM793 209q0 37 -15.5 55t-39.5 18q-26 0 -42 -13t-16 -34q0 -18 13 -31t40 -13q17 0 34.5 6t25.5 12z" />
    <glyph glyph-name="partialdiff" unicode="&#x2202;" horiz-adv-x="549" 
d="M108 600q10 6 28.5 14t42.5 15.5t51.5 13t55.5 5.5q56 0 98 -20.5t69.5 -57.5t41.5 -87t14 -109q0 -68 -15.5 -137.5t-49.5 -126t-87 -92.5t-129 -36q-46 0 -80.5 13t-58 37t-35.5 57.5t-12 73.5q0 45 17 88.5t48 78.5t75 56.5t98 21.5q42 0 69 -8.5t49 -21.5v13
q0 27 -7.5 53.5t-22.5 47.5t-38.5 34t-56.5 13q-24 0 -45.5 -5.5t-38.5 -11.5q-19 -7 -35 -16zM384 266q-18 12 -45.5 24t-72.5 12q-24 0 -44 -10t-34.5 -27.5t-23 -40.5t-8.5 -48q0 -42 22.5 -66.5t63.5 -24.5q23 0 45.5 8.5t41.5 29t33 55.5t22 88z" />
    <glyph glyph-name="Delta" unicode="&#x2206;" horiz-adv-x="681" 
d="M29 113l249 554h125l249 -554v-113h-623v113zM528 113l-191 425l-185 -425h376z" />
    <glyph glyph-name="product" unicode="&#x220f;" horiz-adv-x="761" 
d="M132 556h-109v111h715v-111h-109v-678h-125v678h-247v-678h-125v678z" />
    <glyph glyph-name="summation" unicode="&#x2211;" horiz-adv-x="578" 
d="M43 -8l198 289l-198 275v111h492v-111h-348l195 -275l-196 -289h349v-113h-492v113z" />
    <glyph glyph-name="uni2126" unicode="&#x2126;" horiz-adv-x="800" 
d="M469 0v103q35 15 62 40t46 57.5t28.5 69.5t9.5 75q0 46 -14.5 87.5t-42.5 73t-67.5 49.5t-90.5 18q-50 0 -90 -18t-67.5 -49t-42 -73t-14.5 -89q0 -38 9.5 -75t28.5 -69.5t45.5 -57.5t61.5 -39v-103h-278v104h125q-60 45 -88 111.5t-28 139.5q0 74 27 134.5t74 104
t109.5 67.5t133.5 24t131.5 -24t105 -67t70 -103t25.5 -132q0 -73 -28.5 -141t-88.5 -114h126v-104h-278z" />
    <glyph glyph-name="minus" unicode="&#x2212;" horiz-adv-x="545" 
d="M74 371h398v-99h-398v99z" />
    <glyph glyph-name="uni2215" unicode="&#x2215;" horiz-adv-x="195" 
d="M249 630h107l-406 -630h-107z" />
    <glyph glyph-name="uni2219" unicode="&#x2219;" horiz-adv-x="259" 
d="M68 413h123v-117h-123v117z" />
    <glyph glyph-name="radical" unicode="&#x221a;" horiz-adv-x="592" 
d="M101 280h-77v111h151l113 -246l177 587h116l-218 -732h-124z" />
    <glyph glyph-name="infinity" unicode="&#x221e;" horiz-adv-x="689" 
d="M345 191q-19 -28 -55 -49t-81 -21q-39 0 -71.5 13.5t-55.5 39t-36 61t-13 79.5t13 79.5t36 61t55.5 39t71.5 13.5q45 0 81 -21.5t55 -49.5q19 28 55.5 49.5t81.5 21.5q38 0 70 -13.5t55 -39t36 -61t13 -79.5t-13 -79.5t-36 -61t-55.5 -39t-71.5 -13.5q-45 0 -80.5 21.5
t-54.5 48.5zM389 314q11 -40 37 -64t52 -24q36 0 55.5 27.5t19.5 60.5t-19.5 60.5t-55.5 27.5q-26 0 -52 -24t-37 -64zM300 314q-11 40 -37 64t-52 24q-36 0 -55.5 -27.5t-19.5 -60.5t19.5 -60.5t55.5 -27.5q26 0 52 24t37 64z" />
    <glyph glyph-name="integral" unicode="&#x222b;" horiz-adv-x="539" 
d="M58 5q16 -11 34.5 -18t37.5 -7q14 0 26.5 4t23.5 13q19 15 22.5 38t3.5 59v375q0 52 7.5 90t33.5 67q21 24 54.5 41.5t78.5 17.5q16 0 34 -2t37 -7t38 -14.5t37 -25.5l-55 -78q-16 11 -34.5 18t-37.5 7q-14 0 -26.5 -4t-23.5 -13q-19 -15 -22.5 -38t-3.5 -59v-380
q0 -48 -7.5 -85.5t-33.5 -66.5q-21 -24 -54.5 -41.5t-78.5 -17.5q-16 0 -34 1.5t-37 7t-38 15t-37 25.5z" />
    <glyph glyph-name="approxequal" unicode="&#x2248;" horiz-adv-x="545" 
d="M61 415q9 10 23 21.5t31 21t37 16t42 6.5q23 0 40 -7t32.5 -16t32 -16t38.5 -7q18 0 33 4.5t26.5 10.5t20.5 13t17 12l50 -76q-9 -10 -22.5 -22t-30.5 -22t-37 -16.5t-42 -6.5q-23 0 -40 7.5t-33 16.5t-32.5 16.5t-38.5 7.5q-37 0 -59.5 -14.5t-37.5 -25.5zM61 238
q9 10 23 21.5t31 21t37 16t42 6.5q23 0 40 -7t32.5 -16t32 -16t38.5 -7q18 0 33 4.5t26.5 10.5t20.5 13t17 12l50 -76q-9 -10 -22.5 -22t-30.5 -22t-37 -16.5t-42 -6.5q-23 0 -40 7.5t-33 16.5t-32.5 16.5t-38.5 7.5q-37 0 -59.5 -14.5t-37.5 -25.5z" />
    <glyph glyph-name="notequal" unicode="&#x2260;" horiz-adv-x="545" 
d="M151 187h-74v99h130l39 69h-169v99h224l63 111l72 -36l-42 -75h75v-99h-131l-39 -69h170v-99h-226l-65 -116l-72 36z" />
    <glyph glyph-name="lessequal" unicode="&#x2264;" horiz-adv-x="545" 
d="M56 397l357 187l43 -85l-267 -138l267 -138l-43 -85l-357 187v72zM51 99h398v-99h-398v99z" />
    <glyph glyph-name="greaterequal" unicode="&#x2265;" horiz-adv-x="545" 
d="M89 223l267 138l-267 138l43 85l357 -187v-72l-357 -187zM96 99h398v-99h-398v99z" />
    <glyph glyph-name="lozenge" unicode="&#x25ca;" horiz-adv-x="588" 
d="M33 333l199 334h124l199 -334l-199 -334h-124zM429 333l-135 236l-135 -236l135 -236z" />
    <glyph glyph-name="fi" unicode="&#xf001;" horiz-adv-x="565" 
d="M93 373h-80v96h80v5q0 61 19.5 101.5t52 65t75 34.5t89.5 10q18 0 40.5 -3t46.5 -9t48.5 -15.5t45.5 -22.5l-49 -89q-23 14 -60 26t-73 12q-62 0 -90 -21t-28 -69v-25h292v-469h-118v373h-173v-373h-118v373z" />
    <glyph glyph-name="fl" unicode="&#xf002;" horiz-adv-x="570" 
d="M93 373h-80v96h80v14q0 58 17.5 96.5t48 62t71 33.5t85.5 10q36 0 69 -6t59 -14.5t44 -17t25 -12.5v-635h-118v572q-13 5 -36.5 8.5t-44.5 3.5q-58 0 -80.5 -22t-22.5 -77v-16h121v-96h-120v-373h-118v373z" />
    <glyph glyph-name="zero.alt" unicode="&#xf800;" horiz-adv-x="579" 
d="M289 -16q-61 0 -107 25t-77 69.5t-46.5 107t-15.5 137.5q0 73 15.5 133t46.5 102.5t77.5 66t107.5 23.5t107 -23.5t77 -66t46.5 -102.5t15.5 -133q0 -75 -15.5 -137.5t-46.5 -107t-77.5 -69.5t-107.5 -25zM290 92q31 0 54.5 18t39 49t23.5 73t8 91q0 47 -8 87t-24 68.5
t-39.5 44.5t-54.5 16t-54.5 -16t-39 -44.5t-23.5 -68.5t-8 -87q0 -49 8 -91t24 -73t39.5 -49t54.5 -18z" />
    <glyph glyph-name="one.alt" unicode="&#xf801;" horiz-adv-x="438" 
d="M79 103h108v398l-121 -64l-49 92l185 101h103v-527h104v-103h-330v103z" />
    <glyph glyph-name="two.alt" unicode="&#xf802;" horiz-adv-x="504" 
d="M52 79q0 43 14.5 78t37.5 64.5t51 54.5l56 49l49.5 41t36.5 32.5t22.5 31.5t7.5 37q0 13 -4.5 27t-15 24.5t-27.5 17.5t-43 7q-23 0 -41.5 -7t-33 -18t-25 -24t-17.5 -25l-88 63q12 20 30 40.5t44 37.5t61 27.5t80 10.5q54 0 93 -14.5t64 -38.5t37 -54.5t12 -62.5
q0 -34 -11 -63t-29 -54t-41 -47t-47 -42l-54.5 -44t-44.5 -39t-30 -38.5t-11 -43.5h272v-107h-405v79z" />
    <glyph glyph-name="three.alt" unicode="&#xf803;" horiz-adv-x="514" 
d="M80 138q27 -24 59.5 -38.5t74.5 -14.5q54 0 86 29.5t32 77.5q0 21 -5.5 39.5t-18.5 32t-34 21.5t-51 8q-14 0 -29 -3t-27 -6l-35 56l161 181h-236v108h377v-90l-140 -164q84 -10 123.5 -60t39.5 -124q0 -49 -18.5 -88t-51.5 -66t-77 -41t-95 -14q-68 0 -118 20.5
t-85 52.5z" />
    <glyph glyph-name="four.alt" unicode="&#xf804;" horiz-adv-x="534" 
d="M39 220l275 410h118v-409h65v-100h-65v-121h-113v121h-280v99zM319 221v243l-166 -243h166z" />
    <glyph glyph-name="five.alt" unicode="&#xf805;" horiz-adv-x="517" 
d="M78 139q27 -24 58 -38t79 -14q32 0 54.5 9.5t37 26t21 37.5t6.5 44q0 15 -5.5 33.5t-19.5 34.5t-38.5 27t-61.5 11q-34 0 -54 -6.5l-37 -12.5l-60 46l63 292h327v-110h-242l-25 -121q7 3 24 6t41 3q46 0 84.5 -14t66.5 -39.5t43.5 -62.5t15.5 -82q0 -44 -13 -85
t-42.5 -72.5t-77 -50.5t-115.5 -19q-67 0 -114 20t-82 52z" />
    <glyph glyph-name="six.alt" unicode="&#xf806;" horiz-adv-x="539" 
d="M436 513q-13 8 -30 15q-14 6 -34 11t-44 5q-36 0 -65 -15.5t-50 -41t-32.5 -57.5t-11.5 -66q22 13 53 28.5t79 15.5q43 0 79.5 -14t62 -40.5t40 -64.5t14.5 -87q0 -44 -14 -84t-41 -70t-67.5 -48t-92.5 -18q-50 0 -92.5 18t-73.5 56t-48.5 96.5t-17.5 139.5
q0 78 18 143.5t53 113t87 73.5t121 26q28 0 52 -4.5t44.5 -11t36 -13.5t25.5 -13zM168 269q0 -53 9 -88.5t24.5 -56.5t36.5 -30t44 -9q47 0 75.5 33.5t28.5 87.5q0 46 -26.5 73.5t-69.5 27.5q-45 0 -74.5 -13t-47.5 -25z" />
    <glyph glyph-name="seven.alt" unicode="&#xf807;" horiz-adv-x="474" 
d="M88 0q21 67 51 144.5t62 150t62 132.5t50 92h-287v111h408v-106q-13 -21 -31.5 -57t-39.5 -81.5t-42.5 -97l-41.5 -103t-36.5 -99.5t-26.5 -86h-128z" />
    <glyph glyph-name="eight.alt" unicode="&#xf808;" horiz-adv-x="560" 
d="M280 391q40 11 64 37.5t24 55.5q0 33 -24.5 54.5t-63.5 21.5q-37 0 -62.5 -22t-25.5 -57q0 -26 24 -52.5t64 -37.5zM278 294q-23 -5 -44 -15.5t-36.5 -25t-25 -33.5t-9.5 -40q0 -27 10.5 -45.5t27.5 -30.5t38 -17.5t41 -5.5t41 5.5t38 17.5t27.5 30.5t10.5 45.5
q0 21 -10 40t-26.5 33.5t-38 25t-44.5 15.5zM160 349q-31 18 -55 53.5t-24 78.5q0 37 14.5 68t40.5 53t62.5 34t81.5 12q49 0 86 -12t62 -33.5t38 -51.5t13 -65q0 -47 -25 -81.5t-57 -51.5q57 -24 88.5 -68.5t31.5 -105.5q0 -32 -13 -66.5t-41.5 -63t-73.5 -47t-109 -18.5
q-65 0 -110 18t-73.5 46t-41 62.5t-12.5 66.5q0 61 32 105t85 67z" />
    <glyph glyph-name="nine.alt" unicode="&#xf809;" horiz-adv-x="543" 
d="M106 121q17 -10 37 -17q17 -6 39.5 -11t46.5 -5q36 0 62.5 14.5t45 39t28 56t10.5 65.5q-16 -13 -47.5 -28t-87.5 -15q-44 0 -80 16.5t-62 45t-40.5 66t-14.5 80.5q0 44 14.5 84t42.5 70t68.5 48t93.5 18q50 0 92.5 -18t73.5 -56t48.5 -96.5t17.5 -139.5
q0 -77 -16 -141.5t-49 -112t-83 -74t-119 -26.5q-28 0 -54 4.5t-48 11t-39.5 13.5t-27.5 13zM376 361q0 53 -9 88.5t-24.5 56.5t-36.5 30t-44 9q-47 0 -77.5 -32t-30.5 -86q0 -44 27.5 -73t74.5 -29q49 0 75.5 12t44.5 24z" />
    <glyph glyph-name="zero.sups" unicode="&#xf80a;" 
d="M180 375q-69 0 -114 45.5t-45 135.5t45 135.5t114 45.5t114 -45.5t45 -135.5t-45 -135.5t-114 -45.5zM180 454q11 0 22 5t19.5 17t14 31.5t5.5 48.5t-5.5 48.5t-14 31.5t-19.5 17t-22 5t-22 -5t-19.5 -17t-14 -31.5t-5.5 -48.5t5.5 -48.5t14 -31.5t19.5 -17t22 -5z" />
    <glyph glyph-name="one.sups" unicode="&#xf80b;" 
d="M173 623l-78 -39l-36 72l126 71h86v-342h-98v238z" />
    <glyph glyph-name="two.sups" unicode="&#xf80c;" 
d="M49 430q0 26 12.5 46.5t30.5 37.5t40 31l40 26.5t30.5 24.5t12.5 25q0 18 -11 25.5t-28 7.5q-23 0 -50 -11t-47 -24l-36 70q25 17 63 32.5t82 15.5q66 0 97 -30.5t31 -75.5q0 -36 -17 -58.5t-41 -39.5t-51 -32t-47 -36h157v-80h-268v45z" />
    <glyph glyph-name="three.sups" unicode="&#xf80d;" 
d="M74 485q18 -14 40.5 -23t47.5 -9q24 0 39 10t15 31q0 26 -19 34t-47 8q-13 0 -26 -2t-23 -5l-16 35l106 84h-133v79h240v-76l-77 -61q52 -10 71.5 -39t19.5 -67q0 -48 -40.5 -78.5t-108.5 -30.5q-42 0 -75.5 11.5t-57.5 30.5z" />
    <glyph glyph-name="four.sups" unicode="&#xf80e;" 
d="M33 516l172 211h96v-211h41v-71h-41v-60h-87v60h-181v71zM214 516v122l-103 -122h103z" />
    <glyph glyph-name="five.sups" unicode="&#xf80f;" 
d="M69 480q17 -14 40 -22t48 -8q9 0 19.5 1.5t20 6t15.5 13t6 22.5q0 21 -19 31.5t-43 10.5q-13 0 -28 -2.5t-29 -10.5l-44 35l38 170h199v-79h-131l-11 -52q18 5 37 5q24 0 46 -6.5t39.5 -19.5t27.5 -33.5t10 -47.5q0 -25 -10.5 -47.5t-30 -39t-47 -26t-61.5 -9.5
q-38 0 -74 11t-61 29z" />
    <glyph glyph-name="six.sups" unicode="&#xf810;" 
d="M271 644q-11 6 -27 10.5t-33 4.5q-34 0 -58 -21t-26 -53q17 9 37.5 13.5t38.5 4.5q23 0 45 -6t39 -19t27 -34t10 -51q0 -24 -10.5 -45.5t-29 -37.5t-44.5 -25.5t-56 -9.5q-28 0 -55 9.5t-48 29.5t-34 52t-13 76q0 43 12.5 78.5t35 61.5t54 40.5t70.5 14.5q35 0 60 -8.5
t36 -14.5zM127 519q0 -37 15.5 -55t39.5 -18q26 0 42 13t16 34q0 18 -13 31t-40 13q-17 0 -34.5 -6t-25.5 -12z" />
    <glyph glyph-name="seven.sups" unicode="&#xf811;" 
d="M83 385q12 37 30.5 76t38 75t37.5 65t28 47h-172v79h269v-80q-11 -17 -29 -48.5l-37.5 -68t-36.5 -75t-26 -70.5h-102z" />
    <glyph glyph-name="eight.sups" unicode="&#xf812;" 
d="M99 566q-51 26 -51 73q0 24 11 42.5t29 30.5t41.5 18.5t49.5 6.5q25 0 49 -6t42.5 -18.5t29.5 -31t11 -42.5q0 -23 -13.5 -42t-37.5 -31q29 -11 47.5 -31.5t18.5 -52.5q0 -27 -12 -47t-32 -33.5t-46.5 -20t-56.5 -6.5t-56.5 6.5t-46.5 20t-31.5 33.5t-11.5 47
q0 32 18.5 52.5t47.5 31.5zM181 536q-19 -5 -35.5 -18t-16.5 -34q0 -20 15.5 -29t34.5 -9q18 0 34 9t16 29q0 21 -15.5 34t-32.5 18zM177 595q17 5 32 14t15 28q0 18 -13.5 27t-31.5 9t-31.5 -9t-13.5 -27q0 -19 13 -28t30 -14z" />
    <glyph glyph-name="nine.sups" unicode="&#xf813;" 
d="M85 468q11 -6 27.5 -10.5t39.5 -4.5q40 0 59 21t21 53q-17 -9 -37.5 -13.5t-38.5 -4.5q-23 0 -45 6t-39 19t-27 34t-10 51q0 24 10.5 45.5t29 37.5t44.5 25.5t56 9.5q28 0 55 -9.5t48 -30t34 -52t13 -75.5q0 -43 -11 -78.5t-33 -61.5t-55 -40.5t-78 -14.5
q-34 0 -58.5 8.5t-35.5 14.5zM232 593q0 37 -15.5 55t-39.5 18q-26 0 -42 -13t-16 -34q0 -18 13 -31t40 -13q17 0 34.5 6t25.5 12z" />
    <glyph glyph-name="zero.sinf" unicode="&#xf814;" 
d="M180 -99q-69 0 -114 45.5t-45 135.5t45 135.5t114 45.5t114 -45.5t45 -135.5t-45 -135.5t-114 -45.5zM180 -20q11 0 22 5t19.5 17t14 31.5t5.5 48.5t-5.5 48.5t-14 31.5t-19.5 17t-22 5t-22 -5t-19.5 -17t-14 -31.5t-5.5 -48.5t5.5 -48.5t14 -31.5t19.5 -17t22 -5z" />
    <glyph glyph-name="one.sinf" unicode="&#xf815;" 
d="M173 149l-78 -39l-36 72l126 71h86v-342h-98v238z" />
    <glyph glyph-name="two.sinf" unicode="&#xf816;" 
d="M49 -44q0 26 12.5 46.5t30.5 37.5t40 31l40 26.5t30.5 24.5t12.5 25q0 18 -11 25.5t-28 7.5q-23 0 -50 -11t-47 -24l-36 70q25 17 63 32.5t82 15.5q66 0 97 -30.5t31 -75.5q0 -36 -17 -58.5t-41 -39.5t-51 -32t-47 -36h157v-80h-268v45z" />
    <glyph glyph-name="three.sinf" unicode="&#xf817;" 
d="M74 11q18 -14 40.5 -23t47.5 -9q24 0 39 10t15 31q0 26 -19 34t-47 8q-13 0 -26 -2t-23 -5l-16 35l106 84h-133v79h240v-76l-77 -61q52 -10 71.5 -39t19.5 -67q0 -48 -40.5 -78.5t-108.5 -30.5q-42 0 -75.5 11.5t-57.5 30.5z" />
    <glyph glyph-name="four.sinf" unicode="&#xf818;" 
d="M33 42l172 211h96v-211h41v-71h-41v-60h-87v60h-181v71zM214 42v122l-103 -122h103z" />
    <glyph glyph-name="five.sinf" unicode="&#xf819;" 
d="M69 6q17 -14 40 -22t48 -8q9 0 19.5 1.5t20 6t15.5 13t6 22.5q0 21 -19 31.5t-43 10.5q-13 0 -28 -2.5t-29 -10.5l-44 35l38 170h199v-79h-131l-11 -52q18 5 37 5q24 0 46 -6.5t39.5 -19.5t27.5 -33.5t10 -47.5q0 -25 -10.5 -47.5t-30 -39t-47 -26t-61.5 -9.5
q-38 0 -74 11t-61 29z" />
    <glyph glyph-name="six.sinf" unicode="&#xf81a;" 
d="M271 170q-11 6 -27 10.5t-33 4.5q-34 0 -58 -21t-26 -53q17 9 37.5 13.5t38.5 4.5q23 0 45 -6t39 -19t27 -34t10 -51q0 -24 -10.5 -45.5t-29 -37.5t-44.5 -25.5t-56 -9.5q-28 0 -55 9.5t-48 29.5t-34 52t-13 76q0 43 12.5 78.5t35 61.5t54 40.5t70.5 14.5q35 0 60 -8.5
t36 -14.5zM127 45q0 -37 15.5 -55t39.5 -18q26 0 42 13t16 34q0 18 -13 31t-40 13q-17 0 -34.5 -6t-25.5 -12z" />
    <glyph glyph-name="seven.sinf" unicode="&#xf81b;" 
d="M83 -89q12 37 30.5 76t38 75t37.5 65t28 47h-172v79h269v-80q-11 -17 -29 -48.5l-37.5 -68t-36.5 -75t-26 -70.5h-102z" />
    <glyph glyph-name="eight.sinf" unicode="&#xf81c;" 
d="M99 92q-51 26 -51 73q0 24 11 42.5t29 30.5t41.5 18.5t49.5 6.5q25 0 49 -6t42.5 -18.5t29.5 -31t11 -42.5q0 -23 -13.5 -42t-37.5 -31q29 -11 47.5 -31.5t18.5 -52.5q0 -27 -12 -47t-32 -33.5t-46.5 -20t-56.5 -6.5t-56.5 6.5t-46.5 20t-31.5 33.5t-11.5 47
q0 32 18.5 52.5t47.5 31.5zM181 62q-19 -5 -35.5 -18t-16.5 -34q0 -20 15.5 -29t34.5 -9q18 0 34 9t16 29q0 21 -15.5 34t-32.5 18zM177 121q17 5 32 14t15 28q0 18 -13.5 27t-31.5 9t-31.5 -9t-13.5 -27q0 -19 13 -28t30 -14z" />
    <glyph glyph-name="nine.sinf" unicode="&#xf81d;" 
d="M85 -6q11 -6 27.5 -10.5t39.5 -4.5q40 0 59 21t21 53q-17 -9 -37.5 -13.5t-38.5 -4.5q-23 0 -45 6t-39 19t-27 34t-10 51q0 24 10.5 45.5t29 37.5t44.5 25.5t56 9.5q28 0 55 -9.5t48 -30t34 -52t13 -75.5q0 -43 -11 -78.5t-33 -61.5t-55 -40.5t-78 -14.5q-34 0 -58.5 8.5
t-35.5 14.5zM232 119q0 37 -15.5 55t-39.5 18q-26 0 -42 -13t-16 -34q0 -18 13 -31t40 -13q17 0 34.5 6t25.5 12z" />
    <glyph glyph-name="hungarumlaut.cap" horiz-adv-x="498" 
d="M124 873h138l-114 -156h-97zM309 873h138l-114 -156h-97z" />
    <glyph glyph-name="cedilla.cap" horiz-adv-x="356" 
d="M104 -129q19 -7 36.5 -9.5t33.5 -2.5q26 0 41 7.5t15 22.5q0 12 -12.5 20.5t-39.5 8.5q-17 0 -34 -3t-30 -8l11 68q18 5 37 8.5t48 3.5q54 0 85.5 -26t31.5 -67q0 -26 -11.5 -46t-30 -33.5t-42.5 -20t-49 -6.5q-24 0 -42.5 2t-32.5 5q-16 3 -28 7z" />
    <glyph glyph-name="tilde.cap" horiz-adv-x="490" 
d="M43 804q9 9 22 20t29.5 20t35.5 15t41 6t38 -6.5t30.5 -14.5t30 -14.5t36.5 -6.5q35 0 56.5 13t35.5 24l49 -75q-9 -9 -22 -20t-29 -20.5t-35 -16t-41 -6.5t-38 7t-31 15t-30.5 15t-36.5 7q-35 0 -56.5 -13t-35.5 -24z" />
    <glyph glyph-name="ogonek.cap" horiz-adv-x="298" 
d="M215 0q-19 -19 -33 -42t-14 -40q0 -21 26 -21q14 0 26 4.5t24 12.5l29 -75q-26 -17 -56.5 -27t-56.5 -10q-52 0 -76.5 22t-24.5 58q0 30 18.5 60.5t44.5 57.5h93z" />
    <glyph glyph-name="ring.cap" horiz-adv-x="315" 
d="M26 803q0 28 10 51.5t28 40.5t42 26.5t51 9.5q28 0 52 -9.5t42 -26.5t28 -40.5t10 -50.5q0 -28 -10 -51.5t-28 -40.5t-42 -26.5t-51 -9.5q-28 0 -52 9.5t-42 26.5t-28 40.5t-10 50.5zM158 751q23 0 36.5 14.5t13.5 38.5q0 23 -13.5 37.5t-37.5 14.5q-23 0 -36.5 -14.5
t-13.5 -38.5q0 -23 13.5 -37.5t37.5 -14.5z" />
    <glyph glyph-name="caron.cap" horiz-adv-x="417" 
d="M43 873h104l62 -82l61 82h104l-110 -156h-111z" />
    <glyph glyph-name="macron.cap" horiz-adv-x="361" 
d="M23 844h315v-97h-315v97z" />
    <glyph glyph-name="dieresis.cap" horiz-adv-x="322" 
d="M206 854h123v-117h-123v117zM-7 854h123v-117h-123v117z" />
    <glyph glyph-name="dotaccent.cap" horiz-adv-x="215" 
d="M43 857h129v-123h-129v123z" />
    <glyph glyph-name="circumflex.cap" horiz-adv-x="417" 
d="M153 873h111l110 -156h-104l-62 82l-61 -82h-104z" />
    <glyph glyph-name="acute.cap" horiz-adv-x="305" 
d="M116 873h146l-114 -156h-105z" />
    <glyph glyph-name="grave.cap" horiz-adv-x="305" 
d="M43 873h146l73 -156h-105z" />
    <glyph glyph-name="breve.cap" horiz-adv-x="406" 
d="M136 863q0 -26 17.5 -46.5t49.5 -20.5t49.5 20.5t17.5 46.5h93q0 -29 -10 -55.5t-29.5 -47.5t-50 -33.5t-70.5 -12.5q-41 0 -71 12.5t-49.5 33.5t-29.5 47.5t-10 55.5h93z" />
    <glyph glyph-name="commaaccent.cap" horiz-adv-x="238" 
d="M76 -51h139l-88 -158h-104z" />
    <glyph glyph-name="caron.alt" horiz-adv-x="374" 
d="M112 667h110l-34 -169h-76v169z" />
    <glyph glyph-name="commaaccent" horiz-adv-x="181" 
d="M53 -51h126l-79 -142h-95z" />
    <glyph glyph-name="revcommaaccent" horiz-adv-x="181" 
d="M84 682h95l-48 -142h-126z" />
    <glyph glyph-name="Parenleft" horiz-adv-x="297" 
d="M153 -67q-12 23 -28.5 60.5t-31 88t-25 113.5t-10.5 137t10.5 137t25 114t31 88.5t28.5 60.5h116q-17 -29 -32.5 -72t-27.5 -95.5t-19 -112t-7 -120.5t7 -120t19 -111.5t27.5 -96t32.5 -71.5h-116z" />
    <glyph glyph-name="Parenright" horiz-adv-x="297" 
d="M28 -67q16 28 31.5 71.5t27.5 96t19.5 111.5t7.5 120t-7.5 120.5t-19.5 112t-27.5 95.5t-31.5 72h116q12 -23 28.5 -60.5t31 -88.5t25 -114t10.5 -137t-10.5 -137t-25 -113.5t-31 -88t-28.5 -60.5h-116z" />
    <glyph glyph-name="Hyphen" horiz-adv-x="441" 
d="M68 389h305v-112h-305v112z" />
    <glyph glyph-name="Slash" horiz-adv-x="426" 
d="M289 685h114l-263 -701h-117z" />
    <glyph glyph-name="At" horiz-adv-x="958" 
d="M575 212l-35 2q-14 1 -29.5 1.5t-26.5 0.5q-53 0 -79.5 -22.5t-26.5 -51.5q0 -30 23 -47t65 -17q21 0 40.5 7t34.5 19t24.5 28t9.5 34v46zM182 -18q-23 16 -47.5 43.5t-45 65t-33.5 84t-13 101.5q0 105 37 182.5t98.5 128t140 75.5t162.5 25q91 0 170.5 -24t138 -72.5
t92 -122t33.5 -173.5q0 -92 -23 -152.5t-56 -95.5t-71 -49t-68 -14q-34 0 -62 14t-41 46q-21 -19 -41 -30.5t-40.5 -18t-43 -9t-49.5 -2.5q-22 0 -48.5 9t-49.5 28t-38.5 48t-15.5 68q0 40 15 71.5t42 53t65 32.5t84 11q14 0 31 -0.5t33 -1.5l37 -2v11q0 35 -26.5 55
t-68.5 20q-54 0 -85 -13t-54 -28l-54 80q16 12 34 22.5t42 18.5t55.5 13t75.5 5q43 0 79 -12.5t61.5 -35t39.5 -54t14 -68.5v-196q0 -15 8.5 -24.5t22.5 -9.5q13 0 29 11t29.5 36t23 66.5t9.5 101.5q0 79 -28.5 135t-75.5 91t-107 51t-123 16q-53 0 -110.5 -16.5t-104.5 -53
t-77.5 -95t-30.5 -143.5q0 -48 10 -86t25 -66.5t32 -48.5t31 -31z" />
    <glyph glyph-name="Bracketleft" horiz-adv-x="330" 
d="M73 732h234v-105h-116v-587h116v-107h-234v799z" />
    <glyph glyph-name="Backslash" horiz-adv-x="426" 
d="M23 685h114l266 -701h-117z" />
    <glyph glyph-name="Bracketright" horiz-adv-x="330" 
d="M23 40h116v587h-116v105h234v-799h-234v107z" />
    <glyph glyph-name="Braceleft" horiz-adv-x="304" 
d="M104 225q-2 31 -18.5 52t-54.5 21v70q38 0 54.5 21t18.5 52l14 170q4 44 15 73t34 48h124q-18 -18 -32 -49.5t-16 -60.5l-16 -195q-3 -36 -22.5 -61t-47.5 -33q28 -8 47.5 -33t22.5 -61l16 -195q2 -29 16 -61t32 -50h-124q-23 19 -34 48.5t-15 73.5z" />
    <glyph glyph-name="Braceright" horiz-adv-x="304" 
d="M13 -67q18 18 32 50t16 61l16 195q3 36 22.5 61t47.5 33q-28 8 -47.5 33t-22.5 61l-16 195q-2 29 -16 60.5t-32 49.5h124q23 -19 34 -48t15 -73l14 -170q2 -31 18.5 -52t54.5 -21v-70q-38 0 -54.5 -21t-18.5 -52l-14 -170q-4 -44 -15 -73.5t-34 -48.5h-124z" />
    <glyph glyph-name="Guilsinglleft" horiz-adv-x="340" 
d="M58 333l104 194h115l-99 -194l99 -194h-115z" />
    <glyph glyph-name="Bullet" horiz-adv-x="438" 
d="M83 334q0 28 10.5 53t29 43.5t43.5 29t53 10.5t53 -10.5t43.5 -29t29 -43.5t10.5 -53t-10.5 -53t-29 -43.5t-43.5 -29t-53 -10.5t-53 10.5t-43.5 29t-29 43.5t-10.5 53z" />
    <glyph glyph-name="Endash" horiz-adv-x="500" 
d="M0 389h500v-112h-500v112z" />
    <glyph glyph-name="Emdash" horiz-adv-x="1000" 
d="M0 389h1000v-112h-1000v112z" />
    <glyph glyph-name="Guilsinglright" horiz-adv-x="340" 
d="M162 333l-99 194h115l104 -194l-104 -194h-115z" />
    <glyph glyph-name="Exclamdown" horiz-adv-x="279" 
d="M76 458h127l2 -458h-131zM68 667h143v-138h-143v138z" />
    <glyph glyph-name="Guillemotleft" horiz-adv-x="536" 
d="M58 333l104 194h115l-99 -194l99 -194h-115zM254 333l104 194h115l-99 -194l99 -194h-115z" />
    <glyph glyph-name="Guillemotright" horiz-adv-x="536" 
d="M358 333l-99 194h115l104 -194l-104 -194h-115zM162 333l-99 194h115l104 -194l-104 -194h-115z" />
    <glyph glyph-name="Questiondown" horiz-adv-x="512" 
d="M215 667h143v-138h-143v138zM475 81q-5 -7 -20 -23t-41 -32.5t-64.5 -29.5t-89.5 -13q-49 0 -87 14t-64.5 38t-40.5 55.5t-14 65.5q0 56 22 91t66 67l38 28t26.5 25.5t15.5 29.5t5 39v22h120v-22q0 -19 -2.5 -40.5t-10.5 -44t-25 -44.5t-45 -42l-32 -23t-29 -25
t-21 -27.5t-8 -30.5q0 -30 23 -49.5t64 -19.5q27 0 50 8t40.5 18t29 20t16.5 15z" />
    <glyph glyph-name="uni0400" unicode="&#x400;" horiz-adv-x="568" 
d="M70 667h432v-111h-306v-157h225v-112h-225v-174h329v-113h-455v667zM150 873h146l73 -156h-105z" />
    <glyph glyph-name="afii10023" unicode="&#x401;" horiz-adv-x="568" 
d="M70 667h432v-111h-306v-157h225v-112h-225v-174h329v-113h-455v667zM330 854h123v-117h-123v117zM117 854h123v-117h-123v117z" />
    <glyph glyph-name="afii10051" unicode="&#x402;" horiz-adv-x="775" 
d="M236 0v555h-206v112h577v-112h-245v-162q32 15 69 24.5t77 9.5q52 0 95 -16t74 -45t48 -69.5t17 -89.5q0 -48 -16.5 -87.5t-47 -68t-73 -44t-94.5 -15.5q-32 0 -68 6l13 102q19 -3 37 -3q52 0 86.5 28.5t34.5 82.5q0 58 -36.5 87.5t-91.5 29.5q-33 0 -67 -10t-57 -25
v-290h-126z" />
    <glyph glyph-name="afii10052" unicode="&#x403;" horiz-adv-x="525" 
d="M70 667h425v-112h-299v-555h-126v667zM288 873h146l-114 -156h-105z" />
    <glyph glyph-name="afii10053" unicode="&#x404;" horiz-adv-x="676" 
d="M653 108q-16 -22 -41.5 -44.5t-60 -40.5t-77.5 -29.5t-92 -11.5q-74 0 -136 26t-107 72.5t-70 110.5t-25 140q0 74 24.5 138.5t69 112.5t108 75.5t141.5 27.5q47 0 87 -10t72.5 -26.5t58 -38.5t44.5 -46l-86 -79q-32 38 -76.5 62t-101.5 24q-41 0 -75 -13t-60 -36
t-43 -54.5t-25 -68.5h304v-113h-307q6 -40 23 -74t43.5 -58.5t62.5 -38.5t81 -14q34 0 62.5 8.5t51.5 21.5t40 28.5t27 28.5z" />
    <glyph glyph-name="afii10054" unicode="&#x405;" horiz-adv-x="565" 
d="M110 188q12 -14 28.5 -29.5t37 -29t46 -22.5t57.5 -9q59 0 87.5 27t28.5 65q0 21 -8 37.5t-27 29t-49.5 22.5t-75.5 19q-46 9 -79.5 28t-55.5 45t-33 57.5t-11 64.5q0 38 14 72.5t43 61t72.5 42.5t102.5 16q53 0 91 -12t63.5 -28t39.5 -31.5l20 -22.5l-83 -78
q-5 4 -16 14.5t-27.5 20.5t-39.5 18t-52 8q-26 0 -45 -7t-31.5 -18t-18.5 -24.5t-6 -25.5q0 -18 6.5 -32t22 -26t42.5 -21.5t68 -17.5q39 -8 75 -24t63.5 -41.5t44 -62t16.5 -87.5q0 -44 -18 -81t-50 -65t-76 -43.5t-96 -15.5q-50 0 -90.5 12t-73 30.5t-56 40.5t-39.5 42z
" />
    <glyph glyph-name="afii10055" unicode="&#x406;" horiz-adv-x="266" 
d="M70 667h126v-667h-126v667z" />
    <glyph glyph-name="afii10056" unicode="&#x407;" horiz-adv-x="266" 
d="M70 667h126v-667h-126v667zM181 854h123v-117h-123v117zM-32 854h123v-117h-123v117z" />
    <glyph glyph-name="afii10057" unicode="&#x408;" horiz-adv-x="508" 
d="M98 157q32 -35 59 -46.5t62 -11.5q18 0 35.5 6.5t31.5 19.5t22.5 32.5t8.5 45.5v464h126v-471q0 -60 -19.5 -101t-50.5 -66t-70 -36t-78 -11q-78 0 -128.5 24.5t-86.5 70.5z" />
    <glyph glyph-name="afii10058" unicode="&#x409;" horiz-adv-x="1031" 
d="M644 667v-233h116q51 0 94.5 -14t75.5 -41t50 -67t18 -91q0 -41 -13 -80.5t-42 -70.5t-76 -50.5t-115 -19.5h-229v555h-189q-7 -138 -23.5 -242.5t-49.5 -174.5t-85 -105.5t-130 -35.5h-16v113q48 0 81.5 28t55.5 93t34 171.5t17 264.5h426zM644 328v-222h106
q53 0 86.5 27t33.5 83q0 54 -33 83t-87 29h-106z" />
    <glyph glyph-name="afii10059" unicode="&#x40a;" horiz-adv-x="1025" 
d="M517 307h-321v-307h-126v667h126v-248h321v248h121v-248h124q49 0 91 -13.5t73 -39.5t48.5 -64.5t17.5 -88.5q0 -39 -12.5 -77t-40.5 -68.5t-73 -49t-111 -18.5h-238v307zM638 313v-207h114q49 0 80.5 25.5t31.5 77.5q0 51 -30.5 77.5t-81.5 26.5h-114z" />
    <glyph glyph-name="afii10060" unicode="&#x40b;" horiz-adv-x="801" 
d="M362 0h-126v555h-206v112h578v-112h-246v-166q31 14 69 23t80 9q45 0 87.5 -12.5t75.5 -39.5t52.5 -70t19.5 -104v-195h-126v180q0 72 -37.5 102.5t-101.5 30.5q-35 0 -67 -8t-52 -19v-286z" />
    <glyph glyph-name="afii10061" unicode="&#x40c;" horiz-adv-x="647" 
d="M196 0h-126v667h126v-267h58q39 0 62 17.5t43 51.5l114 198h138l-132 -225q-23 -38 -48 -60t-57 -35q21 -7 37.5 -15.5t29.5 -20.5t24.5 -27.5t23.5 -35.5l150 -248h-149l-125 213q-11 19 -21.5 33.5t-22.5 23.5t-27 13.5t-34 4.5h-64v-288zM327 873h146l-114 -156h-105z
" />
    <glyph glyph-name="uni040D" unicode="&#x40d;" horiz-adv-x="713" 
d="M643 0h-123v490l-326 -490h-124v667h123v-484l323 484h127v-667zM207 873h146l73 -156h-105z" />
    <glyph glyph-name="afii10062" unicode="&#x40e;" horiz-adv-x="630" 
d="M490 667h130l-256 -524q-37 -75 -83 -117.5t-114 -42.5q-39 0 -72 13t-60 30l52 93q14 -10 34.5 -18.5t41.5 -8.5q30 0 52.5 21t44.5 65l-250 489h136l176 -362zM253 863q0 -26 17.5 -46.5t49.5 -20.5t49.5 20.5t17.5 46.5h93q0 -29 -10 -55.5t-29.5 -47.5t-50 -33.5
t-70.5 -12.5q-41 0 -71 12.5t-49.5 33.5t-29.5 47.5t-10 55.5h93z" />
    <glyph glyph-name="afii10145" unicode="&#x40f;" horiz-adv-x="715" 
d="M301 -154v154h-231v667h126v-555h323v555h126v-667h-231v-154h-113z" />
    <glyph glyph-name="afii10017" unicode="&#x410;" horiz-adv-x="646" 
d="M258 667h130l253 -667h-140l-58 169h-248l-58 -169h-132zM407 273l-88 259l-89 -259h177z" />
    <glyph glyph-name="afii10018" unicode="&#x411;" horiz-adv-x="570" 
d="M70 667h405v-108h-284v-145h106q51 0 94.5 -13.5t75.5 -39t50 -63.5t18 -87q0 -39 -13 -76.5t-42 -67.5t-76 -48.5t-115 -18.5h-219v667zM191 308v-202h96q53 0 86.5 24.5t33.5 75.5q0 50 -33 76t-87 26h-96z" />
    <glyph glyph-name="afii10019" unicode="&#x412;" horiz-adv-x="586" 
d="M70 667h229q53 0 93.5 -13.5t67.5 -37t41 -55t14 -68.5q0 -35 -13 -61t-30.5 -43.5t-35 -26t-27.5 -8.5q18 -2 42 -11t45.5 -28t36.5 -49.5t15 -74.5q0 -54 -19 -90.5t-52.5 -59t-79 -32t-98.5 -9.5h-229v667zM293 401q19 0 37 4t32.5 14t23 25t8.5 38t-9 38t-23.5 24
t-32.5 12.5t-36 3.5h-102v-159h102zM298 107q18 0 39.5 2.5t40.5 12t32 28t13 50.5q0 30 -12.5 48.5t-31 29t-40.5 14.5t-41 4h-107v-189h107z" />
    <glyph glyph-name="afii10020" unicode="&#x413;" horiz-adv-x="525" 
d="M70 667h425v-112h-299v-555h-126v667z" />
    <glyph glyph-name="afii10021" unicode="&#x414;" horiz-adv-x="741" 
d="M656 667v-557h62v-264h-113v154h-476v-154h-111v264h58q39 58 65.5 116t43.5 124t27.5 143.5t16.5 173.5h427zM535 557h-198q-7 -78 -17.5 -140.5t-25.5 -115.5t-35 -99t-45 -92h321v447z" />
    <glyph glyph-name="afii10022" unicode="&#x415;" horiz-adv-x="568" 
d="M70 667h432v-111h-306v-157h225v-112h-225v-174h329v-113h-455v667z" />
    <glyph glyph-name="afii10024" unicode="&#x416;" horiz-adv-x="925" 
d="M401 288h-61q-32 0 -52 -19.5t-39 -59.5l-100 -209h-141l127 250q23 47 47 68t53 30q-26 12 -50.5 36t-41.5 59l-109 224h137l90 -194q18 -38 39 -55.5t54 -17.5h47v267h123v-267h49q33 0 54 17.5t39 55.5l90 194h135l-109 -224q-17 -35 -41.5 -59t-50.5 -36
q29 -9 53 -30t47 -68l127 -250h-145l-100 209q-19 40 -39 59.5t-52 19.5h-57v-288h-123v288z" />
    <glyph glyph-name="afii10025" unicode="&#x417;" horiz-adv-x="552" 
d="M179 291v106h88q45 0 73.5 21.5t28.5 65.5q0 23 -8.5 40t-22.5 28t-32.5 16.5t-39.5 5.5q-26 0 -47 -8t-38 -20t-31 -26.5t-25 -27.5l-84 68q16 24 38.5 46t51.5 39.5t66 28t81 10.5q49 0 88 -13.5t67 -37.5t43 -57.5t15 -73.5q0 -56 -28.5 -98t-77.5 -56
q58 -15 92.5 -58t34.5 -110q0 -50 -19 -86.5t-51 -61t-75 -36.5t-92 -12t-89 11t-71.5 28.5t-54.5 39.5t-38 45l85 70q10 -12 24 -27t33.5 -27.5t44.5 -21t57 -8.5q25 0 47 6t38.5 18.5t26 32.5t9.5 48q0 26 -8.5 43.5t-23 28.5t-34 15.5t-41.5 4.5h-101z" />
    <glyph glyph-name="afii10026" unicode="&#x418;" horiz-adv-x="713" 
d="M643 0h-123v490l-326 -490h-124v667h123v-484l323 484h127v-667z" />
    <glyph glyph-name="afii10027" unicode="&#x419;" horiz-adv-x="713" 
d="M643 0h-123v490l-326 -490h-124v667h123v-484l323 484h127v-667zM271 863q0 -26 17.5 -46.5t49.5 -20.5t49.5 20.5t17.5 46.5h93q0 -29 -10 -55.5t-29.5 -47.5t-50 -33.5t-70.5 -12.5q-41 0 -71 12.5t-49.5 33.5t-29.5 47.5t-10 55.5h93z" />
    <glyph glyph-name="afii10028" unicode="&#x41a;" horiz-adv-x="647" 
d="M196 0h-126v667h126v-267h58q39 0 62 17.5t43 51.5l114 198h138l-132 -225q-23 -38 -48 -60t-57 -35q21 -7 37.5 -15.5t29.5 -20.5t24.5 -27.5t23.5 -35.5l150 -248h-149l-125 213q-11 19 -21.5 33.5t-22.5 23.5t-27 13.5t-34 4.5h-64v-288z" />
    <glyph glyph-name="afii10029" unicode="&#x41b;" horiz-adv-x="729" 
d="M659 667v-667h-126v555h-199q-7 -138 -23.5 -242.5t-49.5 -174.5t-85 -105.5t-130 -35.5h-16v113q48 0 81.5 28t55.5 93t34 171.5t17 264.5h441z" />
    <glyph glyph-name="afii10030" unicode="&#x41c;" horiz-adv-x="789" 
d="M94 667h117l185 -315l182 315h117l32 -667h-123l-22 462l-160 -272h-59l-161 265l-22 -455h-118z" />
    <glyph glyph-name="afii10031" unicode="&#x41d;" horiz-adv-x="723" 
d="M70 667h126v-268h331v268h126v-667h-126v287h-331v-287h-126v667z" />
    <glyph glyph-name="afii10032" unicode="&#x41e;" horiz-adv-x="782" 
d="M391 -18q-73 0 -136 27.5t-110 75.5t-74 112t-27 137t27 137t73.5 111.5t110 75t136.5 27.5t136 -27.5t110 -75t74 -111.5t27 -137t-27 -137t-74 -112t-110 -75.5t-136 -27.5zM391 101q49 0 89 19t68 51.5t43 75.5t15 90q0 48 -15 90.5t-43 74.5t-68 50.5t-89 18.5
q-50 0 -89.5 -18.5t-67.5 -50.5t-43 -74.5t-15 -90.5q0 -47 15 -90t43 -75.5t67.5 -51.5t89.5 -19z" />
    <glyph glyph-name="afii10033" unicode="&#x41f;" horiz-adv-x="715" 
d="M70 667h575v-667h-126v555h-323v-555h-126v667z" />
    <glyph glyph-name="afii10034" unicode="&#x420;" horiz-adv-x="548" 
d="M70 667h214q70 0 114.5 -21.5t70.5 -53t36 -67.5t10 -66q0 -56 -20 -96t-52 -65.5t-72 -37.5t-79 -12h-101v-248h-121v667zM282 354q48 0 76.5 28t28.5 73q0 47 -30 76.5t-75 29.5h-91v-207h91z" />
    <glyph glyph-name="afii10035" unicode="&#x421;" horiz-adv-x="680" 
d="M657 122q-15 -23 -41.5 -47t-62.5 -44.5t-79 -33.5t-91 -13q-75 0 -137 26t-107 72.5t-70 109.5t-25 138q0 73 25 137t70.5 112t108.5 76t139 28q49 0 90 -10.5t74.5 -28.5t59.5 -42.5t46 -52.5l-89 -79q-32 46 -74.5 74t-106.5 28q-49 0 -88 -19.5t-66.5 -52t-42 -76
t-14.5 -91.5t14.5 -90t41.5 -73t64.5 -49t84.5 -18q43 0 73.5 10t52 25t36 31.5t26.5 28.5z" />
    <glyph glyph-name="afii10036" unicode="&#x422;" horiz-adv-x="638" 
d="M256 556h-226v111h578v-111h-226v-556h-126v556z" />
    <glyph glyph-name="afii10037" unicode="&#x423;" horiz-adv-x="630" 
d="M490 667h130l-256 -524q-37 -75 -83 -117.5t-114 -42.5q-39 0 -72 13t-60 30l52 93q14 -10 34.5 -18.5t41.5 -8.5q30 0 52.5 21t44.5 65l-250 489h136l176 -362z" />
    <glyph glyph-name="afii10038" unicode="&#x424;" horiz-adv-x="824" 
d="M470 704v-74q69 -5 126 -27t98 -59t63.5 -88.5t22.5 -114.5q0 -60 -20.5 -111.5t-60 -90.5t-97 -63t-132.5 -30v-77h-116v78q-69 5 -126 27t-98 59t-63.5 88t-22.5 115q0 59 20.5 110.5t60 90.5t97 63.5t132.5 29.5v74h116zM657 338q0 37 -11.5 68.5t-35 56t-58.5 40
t-82 20.5v-370q94 8 140.5 59.5t46.5 125.5zM167 339q0 -74 46 -125t141 -60v369q-48 -4 -83 -19.5t-58 -40t-34.5 -56t-11.5 -68.5z" />
    <glyph glyph-name="afii10039" unicode="&#x425;" horiz-adv-x="605" 
d="M227 345l-213 322h152l139 -218l134 218h137l-205 -319l229 -348h-152l-154 243l-152 -243h-137z" />
    <glyph glyph-name="afii10040" unicode="&#x426;" horiz-adv-x="723" 
d="M587 -154v154h-517v667h126v-555h316v555h126v-555h62v-266h-113z" />
    <glyph glyph-name="afii10041" unicode="&#x427;" horiz-adv-x="620" 
d="M550 667v-667h-126v263q-29 -14 -65.5 -23t-75.5 -9q-43 0 -83.5 12.5t-71.5 39.5t-49.5 70t-18.5 104v210h126v-195q0 -71 35 -102t94 -31q32 0 61.5 8t47.5 19v301h126z" />
    <glyph glyph-name="afii10042" unicode="&#x428;" horiz-adv-x="1060" 
d="M990 0h-920v667h126v-555h271v555h126v-555h271v555h126v-667z" />
    <glyph glyph-name="afii10043" unicode="&#x429;" horiz-adv-x="1067" 
d="M931 -154v154h-861v667h126v-555h267v555h126v-555h267v555h126v-555h62v-266h-113z" />
    <glyph glyph-name="afii10044" unicode="&#x42a;" horiz-adv-x="674" 
d="M30 667h275v-233h98q51 0 94.5 -14t75.5 -41t50 -67t18 -91q0 -41 -13 -80.5t-42 -70.5t-76 -50.5t-115 -19.5h-211v555h-154v112zM305 328v-222h88q53 0 86.5 27t33.5 83q0 54 -33 83t-87 29h-88z" />
    <glyph glyph-name="afii10045" unicode="&#x42b;" horiz-adv-x="814" 
d="M617 667h127v-667h-127v667zM70 667h121v-233h91q51 0 94.5 -14t75.5 -41t50 -67t18 -91q0 -41 -13 -80.5t-42 -70.5t-76 -50.5t-115 -19.5h-204v667zM191 328v-222h81q53 0 86.5 27t33.5 83q0 54 -33 83t-87 29h-81z" />
    <glyph glyph-name="afii10046" unicode="&#x42c;" horiz-adv-x="568" 
d="M70 667h121v-233h106q51 0 94.5 -14t75.5 -41t50 -67t18 -91q0 -41 -13 -80.5t-42 -70.5t-76 -50.5t-115 -19.5h-219v667zM191 328v-222h96q53 0 86.5 27t33.5 83q0 54 -33 83t-87 29h-96z" />
    <glyph glyph-name="afii10047" unicode="&#x42d;" horiz-adv-x="676" 
d="M108 190q10 -13 25.5 -28.5t38 -29t51.5 -22.5t66 -9q87 0 140.5 50t66.5 135h-306v113h304q-15 77 -65 124.5t-130 47.5q-57 0 -101.5 -24t-79.5 -65l-86 82q19 24 46 46t61 38.5t75 26.5t88 10q76 0 137.5 -26.5t104 -73t65.5 -110t23 -138.5q0 -80 -25.5 -145.5
t-70.5 -112t-107.5 -72t-136.5 -25.5q-51 0 -93.5 11.5t-76.5 29.5t-59 40.5t-40 44.5z" />
    <glyph glyph-name="afii10048" unicode="&#x42e;" horiz-adv-x="1051" 
d="M671 -18q-66 0 -123 23.5t-101 64.5t-72 96.5t-36 120.5h-143v-287h-126v667h126v-268h145q10 61 39.5 113.5t73 90.5t99 60t118.5 22q72 0 133.5 -27.5t106.5 -75t70.5 -111.5t25.5 -137t-25.5 -137t-70.5 -112t-106.5 -75.5t-133.5 -27.5zM668 101q48 0 86.5 19
t65.5 51.5t41 75.5t14 90q0 48 -14 90.5t-41 74.5t-65.5 50.5t-86.5 18.5t-86 -18.5t-64.5 -50.5t-40.5 -74.5t-14 -90.5q0 -47 14 -90t40.5 -75.5t64.5 -51.5t86 -19z" />
    <glyph glyph-name="afii10049" unicode="&#x42f;" horiz-adv-x="586" 
d="M516 0h-121v263h-43q-19 0 -32.5 -4.5t-25 -15.5t-22 -28.5t-23.5 -42.5l-88 -172h-138l103 187l18.5 32t20 29.5t23 23.5t26.5 15q-32 6 -59 22.5t-47 40.5t-31.5 55t-11.5 66q0 38 14 73.5t42.5 62.5t72 43.5t101.5 16.5h221v-667zM395 367v193h-101q-45 0 -73 -27
t-28 -70q0 -40 26.5 -68t74.5 -28h101z" />
    <glyph glyph-name="afii10065" unicode="&#x430;" horiz-adv-x="509" 
d="M343 0l-3 44q-19 -23 -58 -41t-85 -18q-29 0 -58.5 9t-53 28t-38 48.5t-14.5 70.5q0 81 56.5 125t151.5 44q12 0 29 -0.5t33 -1.5l37 -2v11q0 36 -27.5 56t-78.5 20q-44 0 -74.5 -13t-53.5 -28l-54 80q26 20 74 39.5t118 19.5q52 0 91.5 -13t65.5 -36t39 -54.5t13 -68.5
v-319h-110zM340 217l-35 2q-14 1 -29 1.5t-25 0.5q-29 0 -49 -6.5t-32.5 -17t-18 -24t-5.5 -28.5q0 -32 21.5 -49.5t58.5 -17.5q24 0 44.5 7t36 19t24.5 28t9 34v51z" />
    <glyph glyph-name="afii10066" unicode="&#x431;" horiz-adv-x="570" 
d="M492 568l-128 -16q-92 -11 -143.5 -52.5t-61.5 -128.5q28 35 71.5 53.5t91.5 18.5q47 0 86 -17.5t67 -47.5t43.5 -71.5t15.5 -89.5q0 -51 -17.5 -94t-49 -73.5t-75 -48t-96.5 -17.5q-48 0 -92.5 16.5t-78.5 53.5t-54.5 96.5t-20.5 146.5q0 163 76.5 251t225.5 105l125 14
zM294 86q27 0 49.5 10t38.5 27.5t24.5 41t8.5 51.5q0 55 -32.5 91.5t-88.5 36.5q-28 0 -50.5 -10t-38 -27.5t-24 -40.5t-8.5 -50t8.5 -50.5t24 -41.5t38 -28t50.5 -10z" />
    <glyph glyph-name="afii10067" unicode="&#x432;" horiz-adv-x="524" 
d="M171 284h123q29 0 43 14t14 37q0 52 -57 52h-123v-103zM58 0v475h260q72 0 110.5 -34t38.5 -86q0 -40 -20 -67t-49 -38q37 -11 64 -39t27 -79q0 -35 -13.5 -59.5t-36.5 -41t-53 -24t-64 -7.5h-264zM171 88h139q29 0 45 14t16 40t-15.5 41t-45.5 15h-139v-110z" />
    <glyph glyph-name="afii10068" unicode="&#x433;" horiz-adv-x="414" 
d="M384 370h-208v-370h-118v475h326v-105z" />
    <glyph glyph-name="afii10069" unicode="&#x434;" horiz-adv-x="582" 
d="M507 475v-377h55v-222h-105v124h-337v-122h-105v220h52q25 34 42 73t28 85t17 100.5t10 118.5h343zM393 377h-130q-8 -94 -24.5 -161t-48.5 -118h203v279z" />
    <glyph glyph-name="afii10070" unicode="&#x435;" horiz-adv-x="538" 
d="M505 202h-353q8 -51 41.5 -84t98.5 -33q28 0 51 6t41 14.5t31 18t20 16.5l64 -72q-6 -6 -21.5 -20t-41 -28.5t-62 -25t-83.5 -10.5q-59 0 -106.5 19t-80.5 52.5t-50.5 80.5t-17.5 103t17.5 102.5t49.5 79.5t76.5 51.5t98.5 18.5q62 0 105.5 -24t70.5 -62.5t39 -87
t12 -98.5v-17zM272 392q-30 0 -51.5 -9.5t-35 -24.5t-21.5 -33.5t-11 -37.5h231q-4 43 -29.5 74t-82.5 31z" />
    <glyph glyph-name="afii10072" unicode="&#x436;" horiz-adv-x="741" 
d="M427 0h-113v187h-38q-32 0 -47.5 -15t-31.5 -45l-67 -127h-122l91 163q20 34 38.5 53t44.5 28q-26 11 -44.5 28t-35.5 51l-78 152h121l61 -117q18 -35 35 -50.5t46 -15.5h27v183h113v-183h32q29 0 46 15.5t35 50.5l61 117h116l-78 -152q-17 -34 -35.5 -51t-44.5 -28
q26 -9 44.5 -28t38.5 -53l91 -163h-127l-67 127q-16 30 -31.5 45t-47.5 15h-33v-187z" />
    <glyph glyph-name="afii10073" unicode="&#x437;" horiz-adv-x="459" 
d="M130 195v90h100q27 0 47 12t20 41t-23 41.5t-59 12.5q-42 0 -74 -15t-58 -39l-58 70q31 32 81.5 55t119.5 23q42 0 76 -9.5t58.5 -27.5t38 -43t13.5 -56q0 -35 -18.5 -65.5t-56.5 -43.5q38 -10 62.5 -39.5t24.5 -75.5q0 -35 -15.5 -61.5t-42.5 -44t-63 -26t-77 -8.5
q-68 0 -123 21.5t-88 55.5l59 71q24 -23 59 -38t83 -15q41 0 66.5 13.5t25.5 45.5t-22 43.5t-56 11.5h-100z" />
    <glyph glyph-name="afii10074" unicode="&#x438;" horiz-adv-x="560" 
d="M171 475v-312l227 312h104v-475h-113v319l-231 -319h-100v475h113z" />
    <glyph glyph-name="afii10075" unicode="&#x439;" horiz-adv-x="560" 
d="M171 475v-312l227 312h104v-475h-113v319l-231 -319h-100v475h113zM217 688q0 -24 13.5 -44.5t48.5 -20.5t48.5 20.5t13.5 44.5h92q0 -27 -9.5 -52.5t-29 -45.5t-48.5 -32t-67 -12t-67 12t-48.5 32t-29 45.5t-9.5 52.5h92z" />
    <glyph glyph-name="afii10076" unicode="&#x43a;" horiz-adv-x="523" 
d="M174 0h-116v475h116v-183h56q27 0 42.5 14t30.5 40l74 129h121l-86 -152q-17 -30 -37 -50t-46 -29q28 -8 47.5 -27.5t39.5 -52.5l99 -164h-133l-84 141q-12 20 -26.5 33t-43.5 13h-54v-187z" />
    <glyph glyph-name="afii10077" unicode="&#x43b;" horiz-adv-x="577" 
d="M519 475v-475h-118v370h-132q-5 -93 -20 -163t-42 -116.5t-67 -70t-95 -23.5q-5 0 -10 0.5t-10 1.5v103h6q37 0 61 23.5t39 70.5t23 116.5t11 162.5h354z" />
    <glyph glyph-name="afii10078" unicode="&#x43c;" horiz-adv-x="627" 
d="M49 0l23 475h108l133 -236l135 236h107l23 -475h-112l-13 308l-111 -195h-61l-110 194l-14 -307h-108z" />
    <glyph glyph-name="afii10079" unicode="&#x43d;" horiz-adv-x="560" 
d="M502 475v-475h-118v189h-208v-189h-118v475h118v-185h208v185h118z" />
    <glyph glyph-name="afii10080" unicode="&#x43e;" horiz-adv-x="576" 
d="M36 238q0 52 18.5 98t51.5 80.5t79.5 54.5t102.5 20t102.5 -20t79.5 -54.5t51.5 -80.5t18.5 -98t-18.5 -98t-51.5 -80.5t-79.5 -55t-102.5 -20.5t-102.5 20.5t-79.5 55t-51.5 80.5t-18.5 98zM288 86q34 0 59 14t41.5 36t24.5 49t8 53t-8 53t-24.5 48.5t-41.5 35.5t-59 14
t-59 -14t-41.5 -35.5t-24.5 -48.5t-8 -53t8 -53t24.5 -49t41.5 -36t59 -14z" />
    <glyph glyph-name="afii10081" unicode="&#x43f;" horiz-adv-x="549" 
d="M491 475v-475h-118v370h-197v-370h-118v475h433z" />
    <glyph glyph-name="afii10082" unicode="&#x440;" horiz-adv-x="571" 
d="M58 475h114l3 -53q9 11 22.5 23.5t32 22.5t42 16.5t53.5 6.5q53 0 92.5 -22t65.5 -57t39 -79.5t13 -90.5q0 -55 -18 -102.5t-50 -82t-78 -54t-101 -19.5q-36 0 -64.5 8t-48.5 17v-209h-117v675zM175 115q17 -14 45 -21.5t55 -7.5q36 0 63 13t44 35t25.5 50.5t8.5 59.5
q0 29 -7 55t-21.5 46t-36.5 32t-52 12q-29 0 -52 -11.5t-39 -32t-24.5 -48t-8.5 -59.5v-123z" />
    <glyph glyph-name="afii10083" unicode="&#x441;" horiz-adv-x="483" 
d="M463 64q-26 -32 -73.5 -55t-109.5 -23q-53 0 -97.5 18.5t-77 51.5t-51 79t-18.5 101q0 54 18 100t50.5 80t78 53t99.5 19q58 0 104 -21.5t75 -57.5l-73 -77q-14 20 -40.5 36t-63.5 16q-29 0 -52.5 -11t-40.5 -30.5t-26 -46.5t-9 -58q0 -32 9.5 -59t26.5 -47t40 -31
t51 -11q38 0 66.5 17t42.5 36z" />
    <glyph glyph-name="afii10084" unicode="&#x442;" horiz-adv-x="490" 
d="M186 0v370h-156v105h430v-105h-156v-370h-118z" />
    <glyph glyph-name="afii10085" unicode="&#x443;" horiz-adv-x="537" 
d="M82 -93q10 -8 22 -15.5t29 -7.5q25 0 40.5 20t32.5 62l15 38l-211 471h136l134 -327l118 327h129l-216 -523q-14 -35 -29 -64.5t-34.5 -52t-46.5 -35t-64 -12.5q-29 0 -58 8.5t-50 27.5z" />
    <glyph glyph-name="afii10086" unicode="&#x444;" horiz-adv-x="707" 
d="M301 -200v189q-65 4 -114.5 24.5t-83 53t-50.5 75t-17 90.5q0 50 18 93.5t52 76.5t83.5 53.5t111.5 24.5v187h105v-187q64 -5 113.5 -25t83.5 -52.5t51 -75t17 -90.5q0 -50 -18 -93.5t-52 -76.5t-83 -53.5t-112 -24.5v-189h-105zM301 386q-81 -8 -116.5 -49.5
t-35.5 -101.5t35.5 -101.5t116.5 -49.5v302zM406 83q81 8 116.5 49.5t35.5 101.5t-35.5 101.5t-116.5 49.5v-302z" />
    <glyph glyph-name="afii10087" unicode="&#x445;" horiz-adv-x="517" 
d="M188 240l-170 235h149l94 -138l95 138h133l-165 -223l183 -252h-149l-107 155l-108 -155h-133z" />
    <glyph glyph-name="afii10088" unicode="&#x446;" horiz-adv-x="556" 
d="M536 105v-229h-105v124h-373v475h118v-370h187v370h118v-370h55z" />
    <glyph glyph-name="afii10089" unicode="&#x447;" horiz-adv-x="521" 
d="M463 475v-475h-118v166q-21 -10 -48.5 -16.5t-60.5 -6.5q-42 0 -77 12t-60.5 37.5t-39.5 63.5t-14 91v128h118v-124q0 -59 27 -83.5t74 -24.5q26 0 46 6t35 15v211h118z" />
    <glyph glyph-name="afii10090" unicode="&#x448;" horiz-adv-x="832" 
d="M58 0v475h118v-370h181v370h118v-370h181v370h118v-475h-716z" />
    <glyph glyph-name="afii10091" unicode="&#x449;" horiz-adv-x="831" 
d="M811 105v-229h-105v124h-650v475h118v-370h173v370h118v-370h173v370h118v-370h55z" />
    <glyph glyph-name="afii10092" unicode="&#x44a;" horiz-adv-x="580" 
d="M30 475h238v-150h109q80 0 129 -42.5t49 -120.5q0 -39 -14 -69.5t-38.5 -51t-57.5 -31t-70 -10.5h-225v370h-120v105zM268 91h90q41 0 61.5 19t20.5 51q0 73 -82 73h-90v-143z" />
    <glyph glyph-name="afii10093" unicode="&#x44b;" horiz-adv-x="716" 
d="M658 0h-118v475h118v-475zM176 91h90q41 0 61.5 19t20.5 51q0 73 -82 73h-90v-143zM176 475v-150h109q80 0 129 -42.5t49 -120.5q0 -39 -14 -69.5t-38.5 -51t-57.5 -31t-70 -10.5h-225v475h118z" />
    <glyph glyph-name="afii10094" unicode="&#x44c;" horiz-adv-x="491" 
d="M174 91h95q41 0 61.5 19t20.5 51q0 73 -82 73h-95v-143zM174 475v-150h114q80 0 129 -42.5t49 -120.5q0 -39 -14 -69.5t-38.5 -51t-57.5 -31t-70 -10.5h-230v475h118z" />
    <glyph glyph-name="afii10095" unicode="&#x44d;" horiz-adv-x="501" 
d="M91 138q26 -25 55 -39t68 -14q54 0 88 27.5t45 76.5h-193v96h192q-11 48 -43.5 75t-83.5 27q-39 0 -68.5 -15t-55.5 -40l-67 75q32 35 82.5 58t112.5 23q52 0 96.5 -18.5t77 -51.5t50.5 -79.5t18 -102.5t-18 -102t-50.5 -79t-78.5 -51t-102 -18q-68 0 -119 24t-77 57z
" />
    <glyph glyph-name="afii10096" unicode="&#x44e;" horiz-adv-x="797" 
d="M176 290h101q8 42 28.5 79t51.5 64t71.5 42.5t87.5 15.5q54 0 99.5 -20t77.5 -54.5t50 -80.5t18 -98t-18 -98t-50 -80.5t-77.5 -55t-99.5 -20.5q-48 0 -88.5 15.5t-71.5 43.5t-51.5 65t-28.5 81h-100v-189h-118v475h118v-185zM513 86q33 0 57.5 14t40 36.5t23.5 49
t8 52.5t-8 53t-23.5 48.5t-39.5 35.5t-57 14t-57 -14t-39.5 -35.5t-23.5 -48.5t-8 -53t7.5 -53t23.5 -49t40 -36t56 -14z" />
    <glyph glyph-name="afii10097" unicode="&#x44f;" horiz-adv-x="509" 
d="M451 0h-116v159h-69q-24 0 -38.5 -10.5t-28.5 -36.5l-57 -112h-124l73 130q16 27 29.5 40t33.5 21q-21 5 -40.5 16.5t-34 29.5t-23.5 41t-9 50q0 36 13.5 63.5t37 46t54.5 28t66 9.5h233v-475zM335 250v134h-93q-37 0 -57.5 -16.5t-20.5 -50.5q0 -32 19.5 -49.5
t54.5 -17.5h97z" />
    <glyph glyph-name="uni0450" unicode="&#x450;" horiz-adv-x="538" 
d="M505 202h-353q8 -51 41.5 -84t98.5 -33q28 0 51 6t41 14.5t31 18t20 16.5l64 -72q-6 -6 -21.5 -20t-41 -28.5t-62 -25t-83.5 -10.5q-59 0 -106.5 19t-80.5 52.5t-50.5 80.5t-17.5 103t17.5 102.5t49.5 79.5t76.5 51.5t98.5 18.5q62 0 105.5 -24t70.5 -62.5t39 -87
t12 -98.5v-17zM272 392q-30 0 -51.5 -9.5t-35 -24.5t-21.5 -33.5t-11 -37.5h231q-4 43 -29.5 74t-82.5 31zM163 682h126l48 -142h-95z" />
    <glyph glyph-name="afii10071" unicode="&#x451;" horiz-adv-x="538" 
d="M505 202h-353q8 -51 41.5 -84t98.5 -33q28 0 51 6t41 14.5t31 18t20 16.5l64 -72q-6 -6 -21.5 -20t-41 -28.5t-62 -25t-83.5 -10.5q-59 0 -106.5 19t-80.5 52.5t-50.5 80.5t-17.5 103t17.5 102.5t49.5 79.5t76.5 51.5t98.5 18.5q62 0 105.5 -24t70.5 -62.5t39 -87
t12 -98.5v-17zM272 392q-30 0 -51.5 -9.5t-35 -24.5t-21.5 -33.5t-11 -37.5h231q-4 43 -29.5 74t-82.5 31zM305 666h115v-109h-115v109zM120 666h115v-109h-115v109z" />
    <glyph glyph-name="afii10099" unicode="&#x452;" horiz-adv-x="547" 
d="M58 522h-56v79h56v66h116v-66h172v-79h-172v-121q19 20 54 39t87 19q48 0 84 -20t60 -56t36 -86.5t12 -112.5q0 -63 -11.5 -119.5t-31.5 -105t-47 -89.5t-57 -74l-92 67q56 67 87 142t31 176q0 85 -23.5 131t-74.5 46q-23 0 -43.5 -9.5t-35.5 -26.5t-24 -39.5t-9 -48.5
v-234h-118v522z" />
    <glyph glyph-name="afii10100" unicode="&#x453;" horiz-adv-x="414" 
d="M384 370h-208v-370h-118v475h326v-105zM227 688h126l-79 -142h-95z" />
    <glyph glyph-name="afii10101" unicode="&#x454;" horiz-adv-x="497" 
d="M477 67q-26 -32 -73.5 -56.5t-114.5 -24.5q-55 0 -101.5 18.5t-80 51.5t-52.5 79t-19 101q0 54 18.5 100t52.5 80t80.5 53t103.5 19q60 0 106.5 -21.5t78.5 -57.5l-71 -71q-17 19 -46 34t-68 15q-54 0 -88.5 -28t-46.5 -73h191v-96h-192q12 -48 47 -76.5t89 -28.5
q44 0 71.5 17t44.5 35z" />
    <glyph glyph-name="afii10102" unicode="&#x455;" horiz-adv-x="478" 
d="M106 134q22 -22 55 -36.5t81 -14.5q35 0 57.5 10t22.5 35q0 13 -7.5 22.5t-22 17t-37 14.5t-52.5 15q-19 5 -44.5 14t-49 25.5t-40 41.5t-16.5 62q0 36 16.5 64t44 47.5t65 29.5t79.5 10q47 0 92.5 -13t79.5 -39l-61 -83q-19 14 -49.5 25.5t-72.5 11.5q-43 0 -59.5 -12.5
t-16.5 -30.5q0 -24 27 -36t86 -28q22 -6 49 -14.5t51 -24.5t40 -42t16 -65t-16.5 -68t-44.5 -48.5t-65.5 -29.5t-80.5 -10q-29 0 -57 4.5t-54 13.5t-48.5 23t-38.5 32z" />
    <glyph glyph-name="afii10103" unicode="&#x456;" horiz-adv-x="234" 
d="M54 673h126v-124h-126v124zM58 475h118v-475h-118v475z" />
    <glyph glyph-name="afii10104" unicode="&#x457;" horiz-adv-x="234" 
d="M152 672h115v-109h-115v109zM-33 672h115v-109h-115v109zM58 475h118v-475h-118v475z" />
    <glyph glyph-name="afii10105" unicode="&#x458;" horiz-adv-x="244" 
d="M58 673h126v-124h-126v124zM-43 -83q9 -5 22 -10.5t29 -5.5q55 0 55 75v499h118v-476q0 -34 -5.5 -69.5t-22 -64t-46.5 -47t-79 -18.5q-44 0 -71 12.5t-44 24.5z" />
    <glyph glyph-name="afii10106" unicode="&#x459;" horiz-adv-x="816" 
d="M509 475v-150h104q80 0 129 -42.5t49 -120.5q0 -39 -14 -69.5t-38.5 -51t-57.5 -31t-70 -10.5h-220v370h-122q-5 -91 -20 -160.5t-42 -117t-67 -71.5t-95 -24q-5 0 -10 0.5t-10 1.5v103h6q37 0 61 23.5t39 70.5t23 116.5t11 162.5h344zM509 91h85q41 0 61.5 19t20.5 51
q0 73 -82 73h-85v-143z" />
    <glyph glyph-name="afii10107" unicode="&#x45a;" horiz-adv-x="799" 
d="M492 475v-165h104q80 0 129 -40.5t49 -114.5q0 -38 -14 -67t-38.5 -48.5t-57.5 -29.5t-70 -10h-220v209h-198v-209h-118v475h118v-165h198v165h118zM492 91h88q41 0 60 17t19 46q0 65 -79 65h-88v-128z" />
    <glyph glyph-name="afii10108" unicode="&#x45b;" horiz-adv-x="551" 
d="M58 525h-56v79h56v63h116v-63h172v-79h-172v-118q18 20 52.5 39t88.5 19q87 0 133.5 -53.5t46.5 -140.5v-271h-118v270q0 45 -24.5 69.5t-63.5 24.5q-24 0 -45 -9.5t-36 -26.5t-23.5 -39.5t-8.5 -48.5v-240h-118v525z" />
    <glyph glyph-name="afii10109" unicode="&#x45c;" horiz-adv-x="523" 
d="M174 0h-116v475h116v-183h56q27 0 42.5 14t30.5 40l74 129h121l-86 -152q-17 -30 -37 -50t-46 -29q28 -8 47.5 -27.5t39.5 -52.5l99 -164h-133l-84 141q-12 20 -26.5 33t-43.5 13h-54v-187zM268 688h126l-79 -142h-95z" />
    <glyph glyph-name="uni045D" unicode="&#x45d;" horiz-adv-x="560" 
d="M171 475v-312l227 312h104v-475h-113v319l-231 -319h-100v475h113zM161 688h126l48 -142h-95z" />
    <glyph glyph-name="afii10110" unicode="&#x45e;" horiz-adv-x="537" 
d="M82 -93q10 -8 22 -15.5t29 -7.5q25 0 40.5 20t32.5 62l15 38l-211 471h136l134 -327l118 327h129l-216 -523q-14 -35 -29 -64.5t-34.5 -52t-46.5 -35t-64 -12.5q-29 0 -58 8.5t-50 27.5zM218 694q0 -24 13.5 -44.5t48.5 -20.5t48.5 20.5t13.5 44.5h92q0 -27 -9.5 -52.5
t-29 -45.5t-48.5 -32t-67 -12t-67 12t-48.5 32t-29 45.5t-9.5 52.5h92z" />
    <glyph glyph-name="afii10193" unicode="&#x45f;" horiz-adv-x="549" 
d="M58 0v475h118v-370h197v370h118v-475h-164v-124h-105v124h-164z" />
    <glyph glyph-name="afii10066.locl" horiz-adv-x="549" 
d="M36 210q0 41 13 76t34.5 62t50.5 45t61 25q-44 29 -60.5 58t-16.5 63q0 32 12 56t34 40t51.5 24t65.5 8h157v-95h-158q-25 0 -40 -8.5t-15 -28.5q0 -25 23 -40t71 -37q33 -15 67.5 -34.5t62.5 -47t46 -65.5t18 -90t-18.5 -95.5t-51 -75t-76 -49t-94.5 -17.5
q-50 0 -93.5 17t-75.5 47t-50 71.5t-18 90.5zM394 222q0 34 -11.5 59t-29 42.5t-38.5 30t-41 21.5q-58 -15 -88.5 -57t-30.5 -96q0 -30 9 -55t24.5 -43t37.5 -28t48 -10q25 0 47 10t38.5 28t25.5 43t9 55z" />
    <glyph glyph-name="uni0462" unicode="&#x462;" horiz-adv-x="724" 
d="M30 623h196v90h121v-90h241v-108h-241v-101h117q48 0 89.5 -13.5t72 -39t48 -63.5t17.5 -87q0 -39 -12.5 -76.5t-40 -67.5t-72.5 -48.5t-110 -18.5h-230v515h-196v108zM347 310v-206h107q48 0 78.5 25.5t30.5 77.5q0 49 -29.5 76t-79.5 27h-107z" />
    <glyph glyph-name="uni0463" unicode="&#x463;" horiz-adv-x="601" 
d="M284 216v-127h104q36 0 54.5 16.5t18.5 45.5q0 65 -73 65h-104zM284 305h125q75 0 121 -40t46 -113q0 -37 -13 -65.5t-36 -47.5t-54 -29t-66 -10h-241v375h-136v100h136v172h118v-172h156v-100h-156v-70z" />
    <glyph glyph-name="uni0472" unicode="&#x472;" horiz-adv-x="782" 
d="M391 -18q-73 0 -136 27.5t-110 75.5t-74 112t-27 137t27 137t73.5 111.5t110 75t136.5 27.5t136 -27.5t110 -75t74 -111.5t27 -137t-27 -137t-74 -112t-110 -75.5t-136 -27.5zM391 96q45 0 82 15.5t65 42.5t46 63t24 77h-435q6 -41 24 -77t46 -63t65.5 -42.5t82.5 -15.5z
M391 576q-44 0 -80 -14t-64 -39t-46.5 -59t-25.5 -74h432q-8 40 -26 74t-46 59t-64.5 39t-79.5 14z" />
    <glyph glyph-name="uni0473" unicode="&#x473;" horiz-adv-x="571" 
d="M36 238q0 52 18 98t51 80.5t79 54.5t101 20t101 -20t79 -54.5t51.5 -80.5t18.5 -98t-18.5 -98t-51.5 -80.5t-79 -55t-101 -20.5t-101 20.5t-79 55t-51 80.5t-18 98zM285 80q30 0 53 9.5t40.5 26t28.5 37t16 43.5h-275q5 -23 16 -43.5t28 -37t40 -26t53 -9.5zM285 395
q-29 0 -52 -9.5t-40 -25.5t-28 -36t-17 -42h274q-5 22 -16 42t-28.5 36t-40.5 25.5t-52 9.5z" />
    <glyph glyph-name="uni0474" unicode="&#x474;" horiz-adv-x="719" 
d="M10 667h140l176 -505l113 328q18 51 38.5 86t46 56t55.5 30.5t66 9.5q21 0 44 -3v-112h-22q-47 0 -74 -27.5t-49 -91.5l-156 -438h-130z" />
    <glyph glyph-name="uni0475" unicode="&#x475;" horiz-adv-x="577" 
d="M10 475h136l125 -338l77 212q23 62 62 95t107 33h15t15 -1v-105h-16q-32 0 -49.5 -15t-33.5 -54l-119 -302h-120z" />
    <glyph glyph-name="uni048A" unicode="&#x48a;" horiz-adv-x="713" 
d="M628 116h62v-61q0 -78 -30.5 -139t-86.5 -106l-71 71q31 26 53 56.5t29 62.5h-79v487l-311 -487h-124v667h123v-480l308 480h127v-551zM283 863q0 -26 17.5 -46.5t49.5 -20.5t49.5 20.5t17.5 46.5h93q0 -29 -10 -55.5t-29.5 -47.5t-50 -33.5t-70.5 -12.5q-41 0 -71 12.5
t-49.5 33.5t-29.5 47.5t-10 55.5h93z" />
    <glyph glyph-name="uni048B" unicode="&#x48b;" horiz-adv-x="577" 
d="M171 475v-312l227 312h104v-374h55v-50q0 -67 -25.5 -117t-72.5 -89l-68 65q25 21 40.5 42.5t25.5 47.5h-68v319l-231 -319h-100v475h113zM218 682q0 -24 13.5 -44.5t48.5 -20.5t48.5 20.5t13.5 44.5h92q0 -27 -9.5 -52.5t-29 -45.5t-48.5 -32t-67 -12t-67 12t-48.5 32
t-29 45.5t-9.5 52.5h92z" />
    <glyph glyph-name="uni048C" unicode="&#x48c;" horiz-adv-x="570" 
d="M5 602h67v65h121v-65h157v-97h-157v-81h106q51 0 94.5 -13.5t75.5 -40t50 -65.5t18 -89q0 -40 -13 -78.5t-42 -69t-76 -49.5t-115 -19h-219v505h-67v97zM193 318v-212h96q53 0 86.5 25.5t33.5 79.5q0 52 -33 79.5t-87 27.5h-96z" />
    <glyph glyph-name="uni048D" unicode="&#x48d;" horiz-adv-x="501" 
d="M10 440h56v51h118v-51h159v-74h-159v-61h125q75 0 121 -40t46 -113q0 -37 -13 -65.5t-36 -47.5t-54 -29t-66 -10h-241v366h-56v74zM184 217v-129h103q37 0 55.5 17t18.5 46q0 66 -74 66h-103z" />
    <glyph glyph-name="uni048E" unicode="&#x48e;" horiz-adv-x="548" 
d="M70 667h214q70 0 114.5 -21.5t70.5 -53.5t36 -68.5t10 -66.5q0 -68 -29 -113t-74 -70l48 -80l-61 -36l-54 91q-30 -6 -60 -6h-94v-243h-121v667zM289 344l-44 74l61 36l51 -86q30 28 30 81q0 51 -30 81.5t-75 30.5h-91v-217h98z" />
    <glyph glyph-name="uni048F" unicode="&#x48f;" horiz-adv-x="571" 
d="M58 475h114l3 -53q9 11 22.5 23.5t32 22.5t42 16.5t53.5 6.5q53 0 92.5 -22t65.5 -57t39 -79.5t13 -90.5q0 -72 -29.5 -129.5t-82.5 -91.5l37 -65l-58 -32l-40 70q-17 -5 -35.5 -7.5t-38.5 -2.5q-36 0 -64 8t-49 17v-209h-117v675zM317 211l54 -97q23 22 34 54.5t11 70.5
q0 30 -7 57.5t-21.5 48t-36.5 32.5t-52 12q-31 0 -54.5 -12.5t-39 -32t-23 -42.5t-7.5 -45v-142q17 -18 45 -27t57 -9q18 0 35 3l-53 96z" />
    <glyph glyph-name="afii10050" unicode="&#x490;" horiz-adv-x="527" 
d="M196 0h-126v667h314v132h113v-244h-301v-555z" />
    <glyph glyph-name="afii10098" unicode="&#x491;" horiz-adv-x="424" 
d="M394 370h-218v-370h-118v475h231v97h105v-202z" />
    <glyph glyph-name="uni0492" unicode="&#x492;" horiz-adv-x="520" 
d="M5 343h67v324h425v-112h-299v-212h175v-102h-175v-241h-126v241h-67v102z" />
    <glyph glyph-name="uni0493" unicode="&#x493;" horiz-adv-x="422" 
d="M392 370h-208v-129h118v-79h-118v-162h-118v162h-56v79h56v234h326v-105z" />
    <glyph glyph-name="uni0494" unicode="&#x494;" horiz-adv-x="663" 
d="M70 667h455v-112h-329v-169q30 12 65 20.5t77 8.5q63 0 115.5 -22t90 -62t58.5 -96.5t21 -124.5q0 -71 -22 -130t-62 -101.5t-94.5 -66.5t-120.5 -24q-50 0 -102 15l28 107q34 -10 67 -10q80 0 127.5 55.5t47.5 152.5q0 98 -48.5 148t-131.5 50q-32 0 -62 -7t-54 -18
v-281h-126v667z" />
    <glyph glyph-name="uni0495" unicode="&#x495;" horiz-adv-x="516" 
d="M424 370h-248v-112q22 10 46 16t54 6q51 0 91.5 -18t69 -50t44 -75t15.5 -92q0 -56 -18 -101.5t-49.5 -78t-74 -50t-91.5 -17.5q-43 0 -85 13l25 94q13 -3 25.5 -5t23.5 -2q56 0 90.5 36.5t34.5 108.5q0 64 -30.5 102.5t-91.5 38.5q-22 0 -41.5 -5t-37.5 -13v-166h-118
v475h366v-105z" />
    <glyph glyph-name="uni0496" unicode="&#x496;" horiz-adv-x="944" 
d="M808 0h-44l-100 209q-19 40 -39 59.5t-52 19.5h-53v-288h-123v288h-57q-32 0 -52 -19.5t-39 -59.5l-100 -209h-141l127 250q23 47 47 68t53 30q-26 12 -50.5 36t-41.5 59l-109 224h137l90 -194q18 -38 39 -55.5t54 -17.5h43v267h123v-267h45q33 0 54 17.5t39 55.5l90 194
h135l-109 -224q-17 -35 -41.5 -59t-50.5 -36q29 -9 53 -30t47 -68l70 -138h69v-266h-113v154z" />
    <glyph glyph-name="uni0497" unicode="&#x497;" horiz-adv-x="761" 
d="M636 0h-36l-67 127q-16 30 -31.5 45t-47.5 15h-30v-187h-113v187h-35q-32 0 -47.5 -15t-31.5 -45l-67 -127h-122l91 163q20 34 38.5 53t44.5 28q-26 11 -44.5 28t-35.5 51l-78 152h121l61 -117q18 -35 35 -50.5t46 -15.5h24v183h113v-183h29q29 0 46 15.5t35 50.5l61 117
h116l-78 -152q-17 -34 -35.5 -51t-44.5 -28q26 -9 44.5 -28t38.5 -53l34 -62h71v-225h-105v124z" />
    <glyph glyph-name="uni0498" unicode="&#x498;" horiz-adv-x="552" 
d="M179 291v106h88q45 0 73.5 21.5t28.5 65.5q0 23 -8.5 40t-22.5 28t-32.5 16.5t-39.5 5.5q-26 0 -47 -8t-38 -20t-31 -26.5t-25 -27.5l-84 68q16 24 38.5 46t51.5 39.5t66 28t81 10.5q49 0 88 -13.5t67 -37.5t43 -57.5t15 -73.5q0 -56 -28.5 -98t-77.5 -56
q58 -15 92.5 -58t34.5 -110q0 -50 -19 -86.5t-51 -61t-75 -36.5t-92 -12t-89 11t-71.5 28.5t-54.5 39.5t-38 45l85 70q10 -12 24 -27t33.5 -27.5t44.5 -21t57 -8.5q25 0 47 6t38.5 18.5t26 32.5t9.5 48q0 26 -8.5 43.5t-23 28.5t-34 15.5t-41.5 4.5h-101zM182 -143
q19 -7 36.5 -9.5t33.5 -2.5q26 0 41 7.5t15 22.5q0 12 -12.5 20.5t-39.5 8.5q-17 0 -34 -3t-30 -8l11 68q18 5 37 8.5t48 3.5q54 0 85.5 -26t31.5 -67q0 -26 -11.5 -46t-30 -33.5t-42.5 -20t-49 -6.5q-24 0 -42.5 2t-32.5 5q-16 3 -28 7z" />
    <glyph glyph-name="uni0499" unicode="&#x499;" horiz-adv-x="459" 
d="M130 195v90h100q27 0 47 12t20 41t-23 41.5t-59 12.5q-42 0 -74 -15t-58 -39l-58 70q31 32 81.5 55t119.5 23q42 0 76 -9.5t58.5 -27.5t38 -43t13.5 -56q0 -35 -18.5 -65.5t-56.5 -43.5q38 -10 62.5 -39.5t24.5 -75.5q0 -35 -15.5 -61.5t-42.5 -44t-63 -26t-77 -8.5
q-68 0 -123 21.5t-88 55.5l59 71q24 -23 59 -38t83 -15q41 0 66.5 13.5t25.5 45.5t-22 43.5t-56 11.5h-100zM133 -145q19 -7 36 -9.5t33 -2.5q58 0 58 32q0 12 -12.5 21t-41.5 9q-17 0 -33.5 -3t-29.5 -8l11 67q18 5 36.5 8.5t47.5 3.5q54 0 84.5 -26t30.5 -67
q0 -26 -11 -46t-29.5 -33.5t-42 -20t-48.5 -6.5q-24 0 -42.5 2t-32.5 5q-16 3 -27 7z" />
    <glyph glyph-name="uni049A" unicode="&#x49a;" horiz-adv-x="661" 
d="M525 0h-40l-125 213q-11 19 -21.5 33.5t-22.5 23.5t-27 13.5t-34 4.5h-59v-288h-126v667h126v-267h53q39 0 62 17.5t43 51.5l114 198h138l-132 -225q-23 -38 -48 -60t-57 -35q21 -7 37.5 -15.5t29.5 -20.5t24.5 -27.5t23.5 -35.5l82 -136h72v-266h-113v154z" />
    <glyph glyph-name="uni049B" unicode="&#x49b;" horiz-adv-x="541" 
d="M172 0h-116v475h116v-183h56q27 0 42.5 14t30.5 40l74 129h121l-86 -152q-17 -30 -37 -50t-46 -29q28 -8 47.5 -27.5t39.5 -52.5l38 -63h69v-225h-105v124h-36l-84 141q-12 20 -26.5 33t-43.5 13h-54v-187z" />
    <glyph glyph-name="uni049C" unicode="&#x49c;" horiz-adv-x="668" 
d="M192 0h-122v667h122v-271h62v118h73v-117q21 5 38 23.5t33 48.5l104 198h137l-124 -226q-20 -35 -42.5 -57.5t-57.5 -36.5q29 -9 55.5 -30.5t51.5 -66.5l138 -250h-145l-113 209q-23 41 -39 57.5t-36 22.5v-119h-73v122h-62v-292z" />
    <glyph glyph-name="uni049D" unicode="&#x49d;" horiz-adv-x="551" 
d="M170 0h-112v475h112v-186h56v96h60v-96q21 2 31.5 13.5t21.5 34.5l68 138h119l-76 -152q-15 -30 -33 -49t-43 -30q31 -11 49.5 -33t32.5 -48l87 -163h-124l-82 154q-11 20 -21 28t-30 8v-98h-60v98h-56v-190z" />
    <glyph glyph-name="uni049E" unicode="&#x49e;" horiz-adv-x="653" 
d="M202 0h-126v498h-71v98h71v71h126v-71h95v-98h-95v-104h58q39 0 62 18t43 53l114 202h138l-132 -229q-23 -39 -48 -61.5t-57 -35.5q21 -7 37.5 -15.5t29.5 -20t24.5 -27t23.5 -34.5l150 -244h-149l-125 209q-11 19 -21.5 32.5t-22.5 22.5t-27 13.5t-34 4.5h-64v-282z" />
    <glyph glyph-name="uni049F" unicode="&#x49f;" horiz-adv-x="531" 
d="M10 427h56v48h116v-48h53v-73h-53v-67h56q27 0 42 15.5t31 43.5l74 129h121l-86 -152q-18 -32 -37.5 -53t-45.5 -31q28 -8 48 -25.5t39 -49.5l99 -164h-133l-84 141q-11 19 -26 30t-44 11h-54v-182h-116v354h-56v73z" />
    <glyph glyph-name="uni04A0" unicode="&#x4a0;" horiz-adv-x="753" 
d="M310 0h-126v555h-154v112h280v-267h50q39 0 62 17.5t43 51.5l114 198h138l-132 -225q-23 -38 -48 -60t-57 -35q21 -7 37.5 -15.5t29.5 -20.5t24.5 -27.5t23.5 -35.5l150 -248h-149l-125 213q-11 19 -21.5 33.5t-22.5 23.5t-27 13.5t-34 4.5h-56v-288z" />
    <glyph glyph-name="uni04A1" unicode="&#x4a1;" horiz-adv-x="610" 
d="M30 475h236v-183h51q27 0 42.5 14t30.5 40l74 129h121l-86 -152q-17 -30 -37 -50t-46 -29q28 -8 47.5 -27.5t39.5 -52.5l99 -164h-133l-84 141q-12 20 -26.5 33t-43.5 13h-49v-187h-116v370h-120v105z" />
    <glyph glyph-name="uni04A2" unicode="&#x4a2;" horiz-adv-x="736" 
d="M600 -154v154h-75v287h-326v-287h-126v667h126v-268h326v268h126v-555h62v-266h-113z" />
    <glyph glyph-name="uni04A3" unicode="&#x4a3;" horiz-adv-x="567" 
d="M442 0h-68v189h-198v-189h-118v475h118v-185h198v185h118v-370h55v-229h-105v124z" />
    <glyph glyph-name="uni04A4" unicode="&#x4a4;" horiz-adv-x="830" 
d="M70 667h126v-268h324v268h280v-112h-154v-555h-126v287h-324v-287h-126v667z" />
    <glyph glyph-name="uni04A5" unicode="&#x4a5;" horiz-adv-x="652" 
d="M622 475v-105h-120v-370h-118v189h-208v-189h-118v475h118v-185h208v185h238z" />
    <glyph glyph-name="uni04A6" unicode="&#x4a6;" horiz-adv-x="1107" 
d="M640 0h-126v555h-318v-555h-126v667h570v-266q30 12 65 20.5t77 8.5q63 0 115.5 -22.5t90 -63.5t58.5 -98.5t21 -127.5q0 -72 -22 -133t-62 -104.5t-94.5 -68t-120.5 -24.5q-50 0 -102 15l28 107q34 -10 67 -10q80 0 127.5 57.5t47.5 158.5t-48.5 153t-131.5 52
q-32 0 -62 -7t-54 -18v-296z" />
    <glyph glyph-name="uni04A7" unicode="&#x4a7;" horiz-adv-x="831" 
d="M491 475v-202q22 10 46 16t54 6q51 0 91.5 -18.5t69 -51.5t44 -77t15.5 -95q0 -58 -18 -105.5t-49.5 -81t-74 -52t-91.5 -18.5q-43 0 -85 13l25 94q13 -3 25.5 -5t23.5 -2q56 0 90.5 40t34.5 115q0 67 -30.5 107.5t-91.5 40.5q-22 0 -41.5 -5t-37.5 -13v-181h-118v370
h-197v-370h-118v475h433z" />
    <glyph glyph-name="uni04A8" unicode="&#x4a8;" horiz-adv-x="800" 
d="M740 292q0 -66 -33.5 -123.5t-89.5 -99.5q17 -4 36 -4q32 0 59 7t48 17l25 -77q-23 -12 -55.5 -20.5t-74.5 -8.5q-32 0 -63 6.5t-61 17.5q-31 -11 -64.5 -17t-69.5 -6q-81 0 -146.5 26.5t-111 73t-70.5 109.5t-25 136q0 77 26 142t72 112.5t109.5 74t137.5 26.5
q70 0 133 -22l-35 -101q-23 8 -44.5 12t-47.5 4q-48 0 -89 -17.5t-71 -50.5t-47 -79t-17 -103q0 -55 17 -100t49 -77.5t77.5 -50t102.5 -18.5q-42 40 -66.5 92t-24.5 114q0 48 15.5 87.5t43.5 68t66 44.5t83 16q43 0 80.5 -14.5t65.5 -41.5t44 -66t16 -89zM433 281
q0 -63 29 -105t70 -68q44 24 72.5 68.5t28.5 108.5q0 59 -26.5 92.5t-72.5 33.5q-47 0 -74 -35.5t-27 -94.5z" />
    <glyph glyph-name="uni04A9" unicode="&#x4a9;" horiz-adv-x="576" 
d="M534 200q0 -40 -19.5 -76t-53.5 -65q15 -3 30 -3q27 0 56 9l14 -67q-35 -12 -73 -12q-49 0 -97 20q-49 -20 -106 -20q-51 0 -96.5 17t-79 49.5t-53.5 78.5t-20 103q0 56 18.5 102t51 79t76 51.5t93.5 18.5q44 0 91 -15l-25 -90q-29 10 -57 10q-30 0 -55.5 -11.5
t-43.5 -32t-28.5 -49t-10.5 -62.5q0 -35 11 -65.5t31.5 -53t50.5 -36t68 -13.5q-27 26 -42.5 59.5t-15.5 71.5q0 30 10.5 55.5t29 45t44.5 30.5t57 11t57 -10.5t45.5 -29.5t30.5 -44.5t11 -55.5zM333 194q0 -33 16 -60t41 -45q29 18 44.5 46.5t15.5 58.5q0 34 -16.5 53
t-43.5 19q-29 0 -43 -20t-14 -52z" />
    <glyph glyph-name="uni04AA" unicode="&#x4aa;" horiz-adv-x="680" 
d="M657 122q-15 -23 -41.5 -47t-62.5 -44.5t-79 -33.5t-91 -13q-75 0 -137 26t-107 72.5t-70 109.5t-25 138q0 73 25 137t70.5 112t108.5 76t139 28q49 0 90 -10.5t74.5 -28.5t59.5 -42.5t46 -52.5l-89 -79q-32 46 -74.5 74t-106.5 28q-49 0 -88 -19.5t-66.5 -52t-42 -76
t-14.5 -91.5t14.5 -90t41.5 -73t64.5 -49t84.5 -18q43 0 73.5 10t52 25t36 31.5t26.5 28.5zM264 -143q19 -7 36.5 -9.5t33.5 -2.5q26 0 41 7.5t15 22.5q0 12 -12.5 20.5t-39.5 8.5q-17 0 -34 -3t-30 -8l11 68q18 5 37 8.5t48 3.5q54 0 85.5 -26t31.5 -67q0 -26 -11.5 -46
t-30 -33.5t-42.5 -20t-49 -6.5q-24 0 -42.5 2t-32.5 5q-16 3 -28 7z" />
    <glyph glyph-name="uni04AB" unicode="&#x4ab;" horiz-adv-x="483" 
d="M463 64q-26 -32 -73.5 -55t-109.5 -23q-53 0 -97.5 18.5t-77 51.5t-51 79t-18.5 101q0 54 18 100t50.5 80t78 53t99.5 19q58 0 104 -21.5t75 -57.5l-73 -77q-14 20 -40.5 36t-63.5 16q-29 0 -52.5 -11t-40.5 -30.5t-26 -46.5t-9 -58q0 -32 9.5 -59t26.5 -47t40 -31
t51 -11q38 0 66.5 17t42.5 36zM163 -145q19 -7 36 -9.5t33 -2.5q58 0 58 32q0 12 -12.5 21t-41.5 9q-17 0 -33.5 -3t-29.5 -8l11 67q18 5 36.5 8.5t47.5 3.5q54 0 84.5 -26t30.5 -67q0 -26 -11 -46t-29.5 -33.5t-42 -20t-48.5 -6.5q-24 0 -42.5 2t-32.5 5q-16 3 -27 7z" />
    <glyph glyph-name="uni04AC" unicode="&#x4ac;" horiz-adv-x="638" 
d="M256 556h-226v111h578v-111h-226v-440h62v-270h-113v154h-75v556z" />
    <glyph glyph-name="uni04AD" unicode="&#x4ad;" horiz-adv-x="490" 
d="M254 0h-68v370h-156v105h430v-105h-156v-269h55v-225h-105v124z" />
    <glyph glyph-name="uni04AE" unicode="&#x4ae;" horiz-adv-x="610" 
d="M241 293l-231 374h138l160 -266l160 266h132l-231 -374v-293h-128v293z" />
    <glyph glyph-name="uni04AF" unicode="&#x4af;" horiz-adv-x="537" 
d="M213 -200v197l-203 478h136l126 -342l126 342h129l-196 -467v-208h-118z" />
    <glyph glyph-name="uni04B0" unicode="&#x4b0;" horiz-adv-x="610" 
d="M90 304h151l-231 363h138l160 -266l160 266h132l-231 -363h150v-97h-152v-207h-124v207h-153v97z" />
    <glyph glyph-name="uni04B1" unicode="&#x4b1;" horiz-adv-x="537" 
d="M88 79h93l-171 396h136l126 -342l126 342h129l-170 -396h96v-79h-124v-200h-114v200h-127v79z" />
    <glyph glyph-name="uni04B2" unicode="&#x4b2;" horiz-adv-x="629" 
d="M493 0h-45l-154 243l-152 -243h-137l222 345l-213 322h152l139 -218l134 218h137l-205 -319l155 -236h80v-266h-113v154z" />
    <glyph glyph-name="uni04B3" unicode="&#x4b3;" horiz-adv-x="529" 
d="M404 0h-46l-107 155l-108 -155h-133l178 240l-170 235h149l94 -138l95 138h133l-165 -223l109 -151h76v-225h-105v124z" />
    <glyph glyph-name="uni04B4" unicode="&#x4b4;" horiz-adv-x="898" 
d="M762 -154v154h-526v555h-206v112h512v-112h-180v-443h325v555h126v-555h62v-266h-113z" />
    <glyph glyph-name="uni04B5" unicode="&#x4b5;" horiz-adv-x="682" 
d="M161 0v370h-131v105h360v-105h-111v-265h210v370h118v-370h55v-229h-105v124h-396z" />
    <glyph glyph-name="uni04B6" unicode="&#x4b6;" horiz-adv-x="630" 
d="M545 667v-551h62v-270h-113v154h-75v263q-29 -14 -65 -23t-74 -9q-42 0 -82 12.5t-70.5 39.5t-49 70t-18.5 104v210h126v-195q0 -72 34 -102.5t92 -30.5q32 0 61 8t46 19v301h126z" />
    <glyph glyph-name="uni04B7" unicode="&#x4b7;" horiz-adv-x="527" 
d="M453 475v-370h55v-229h-105v124h-68v166q-21 -10 -47 -16.5t-58 -6.5q-40 0 -74 12t-58.5 37.5t-38.5 63.5t-14 91v128h118v-124q0 -59 25.5 -83.5t69.5 -24.5q24 0 43.5 6t33.5 15v211h118z" />
    <glyph glyph-name="uni04B8" unicode="&#x4b8;" horiz-adv-x="640" 
d="M570 667v-667h-126v263q-20 -9 -42.5 -16t-47.5 -11v-104h-73v99q-44 2 -83.5 15.5t-70.5 40.5t-49 69t-18 101v210h126v-195q0 -62 23 -94t72 -41v132h73v-134q27 3 50.5 11.5t39.5 19.5v301h126z" />
    <glyph glyph-name="uni04B9" unicode="&#x4b9;" horiz-adv-x="528" 
d="M470 475v-475h-114v166q-14 -6 -30 -11t-35 -8v-79h-62v75q-41 2 -75 15t-58 38.5t-37.5 63t-13.5 87.5v128h114v-124q0 -49 18.5 -75t51.5 -34v110h62v-113q20 3 35.5 9.5t29.5 15.5v211h114z" />
    <glyph glyph-name="uni04BA" unicode="&#x4ba;" horiz-adv-x="630" 
d="M70 0v667h126v-248q30 14 67 23t78 9q44 0 85.5 -12.5t73.5 -39.5t51 -70t19 -104v-225h-126v210q0 72 -36 102.5t-98 30.5q-34 0 -64.5 -8t-49.5 -19v-316h-126z" />
    <glyph glyph-name="uni04BB" unicode="&#x4bb;" horiz-adv-x="551" 
d="M58 667h116v-234q18 20 52.5 39t88.5 19q87 0 133.5 -53.5t46.5 -140.5v-297h-118v296q0 45 -24.5 69.5t-63.5 24.5q-24 0 -45 -9.5t-36 -26.5t-23.5 -39.5t-8.5 -48.5v-266h-118v667z" />
    <glyph glyph-name="uni04BC" unicode="&#x4bc;" horiz-adv-x="878" 
d="M314 296q11 -94 66.5 -148.5t147.5 -54.5q37 0 67.5 9t54 22.5t41.5 29t31 29.5l75 -78q-23 -25 -51 -47t-62 -38.5t-74 -26t-86 -9.5q-71 0 -130.5 23t-104 64.5t-71 99t-32.5 125.5q-36 1 -66.5 13t-52.5 32.5t-34.5 48t-12.5 60.5q0 35 11.5 62t20.5 42l82 -35
q-8 -13 -14 -30t-6 -34q0 -28 18.5 -47t56.5 -19q9 62 35.5 116t68.5 93.5t98.5 62.5t124.5 23q69 0 127.5 -24t100.5 -70.5t66 -113.5t24 -152q0 -14 -0.5 -17t-0.5 -11h-519zM514 575q-45 0 -80 -14t-59.5 -38.5t-39.5 -59t-20 -74.5h393q-6 88 -57.5 137t-136.5 49z" />
    <glyph glyph-name="uni04BD" unicode="&#x4bd;" horiz-adv-x="653" 
d="M617 202h-349q8 -51 40.5 -84t97.5 -33q27 0 50 6t41 14.5t31 18t19 16.5l64 -72q-9 -9 -25.5 -23.5t-41.5 -28t-59.5 -23t-78.5 -9.5q-54 0 -98 16t-76.5 44.5t-52 68.5t-24.5 89q-67 0 -106 38.5t-39 96.5q0 27 8.5 52t19.5 44l74 -29q-7 -13 -12 -27.5t-5 -31.5
q0 -28 16.5 -42.5t44.5 -15.5q7 46 27 83.5t51 64.5t71 41.5t87 14.5q62 0 105 -23.5t69.5 -62t38.5 -87.5t12 -99v-17zM386 392q-30 0 -50.5 -9t-34 -24t-21 -34t-10.5 -38h226q-4 43 -29 74t-81 31z" />
    <glyph glyph-name="uni04BE" unicode="&#x4be;" horiz-adv-x="878" 
d="M314 296q11 -94 66.5 -150t147.5 -56q37 0 67.5 9t54 23t41.5 30.5t31 30.5l75 -78q-38 -43 -93 -75.5t-127 -41.5v-142h-113v143q-59 9 -108 35.5t-85 66.5t-58 92t-27 113q-36 1 -66.5 13t-52.5 32.5t-34.5 48t-12.5 60.5q0 35 11.5 62t20.5 42l82 -35q-8 -13 -14 -30
t-6 -34q0 -28 18.5 -47t56.5 -19q9 62 35.5 116t68.5 93.5t98.5 62.5t124.5 23q69 0 127.5 -24t100.5 -70.5t66 -113.5t24 -152q0 -14 -0.5 -17t-0.5 -11h-519zM514 575q-45 0 -79.5 -14t-59 -38.5t-39.5 -59t-21 -74.5h393q-6 88 -57.5 137t-136.5 49z" />
    <glyph glyph-name="uni04BF" unicode="&#x4bf;" horiz-adv-x="650" 
d="M617 202h-349q8 -54 40.5 -88t97.5 -34q27 0 50 6.5t41 15.5t31 19.5t19 18.5l64 -72l-18 -18t-32 -24t-47.5 -23t-63.5 -16v-111h-105v114q-82 16 -131.5 72.5t-58.5 139.5q-67 0 -106 38.5t-39 96.5q0 27 8.5 52t19.5 44l74 -29q-7 -13 -12 -27.5t-5 -31.5
q0 -28 16.5 -42.5t44.5 -15.5q7 46 27 83.5t51 64.5t71 41.5t87 14.5q62 0 105 -23.5t69.5 -62t38.5 -87.5t12 -99v-17zM386 392q-30 0 -50.5 -9.5t-34 -24.5t-21 -33.5t-10.5 -37.5h226q-4 43 -29 74t-81 31z" />
    <glyph glyph-name="uni04C0" unicode="&#x4c0;" horiz-adv-x="266" 
d="M70 667h126v-667h-126v667z" />
    <glyph glyph-name="uni04C1" unicode="&#x4c1;" horiz-adv-x="925" 
d="M401 288h-61q-32 0 -52 -19.5t-39 -59.5l-100 -209h-141l127 250q23 47 47 68t53 30q-26 12 -50.5 36t-41.5 59l-109 224h137l90 -194q18 -38 39 -55.5t54 -17.5h47v267h123v-267h49q33 0 54 17.5t39 55.5l90 194h135l-109 -224q-17 -35 -41.5 -59t-50.5 -36
q29 -9 53 -30t47 -68l127 -250h-145l-100 209q-19 40 -39 59.5t-52 19.5h-57v-288h-123v288zM395 863q0 -26 17.5 -46.5t49.5 -20.5t49.5 20.5t17.5 46.5h93q0 -29 -10 -55.5t-29.5 -47.5t-50 -33.5t-70.5 -12.5q-41 0 -71 12.5t-49.5 33.5t-29.5 47.5t-10 55.5h93z" />
    <glyph glyph-name="uni04C2" unicode="&#x4c2;" horiz-adv-x="741" 
d="M427 0h-113v187h-38q-32 0 -47.5 -15t-31.5 -45l-67 -127h-122l91 163q20 34 38.5 53t44.5 28q-26 11 -44.5 28t-35.5 51l-78 152h121l61 -117q18 -35 35 -50.5t46 -15.5h27v183h113v-183h32q29 0 46 15.5t35 50.5l61 117h116l-78 -152q-17 -34 -35.5 -51t-44.5 -28
q26 -9 44.5 -28t38.5 -53l91 -163h-127l-67 127q-16 30 -31.5 45t-47.5 15h-33v-187zM308 688q0 -24 13.5 -44.5t48.5 -20.5t48.5 20.5t13.5 44.5h92q0 -27 -9.5 -52.5t-29 -45.5t-48.5 -32t-67 -12t-67 12t-48.5 32t-29 45.5t-9.5 52.5h92z" />
    <glyph glyph-name="uni04C3" unicode="&#x4c3;" horiz-adv-x="660" 
d="M196 288v-288h-126v667h126v-267h58q39 0 62 17.5t43 51.5l114 198h138l-120 -205q-18 -31 -37 -50t-45 -34q48 -9 87 -33.5t66.5 -62t42.5 -86.5t15 -107q0 -65 -21.5 -120t-60.5 -95t-92.5 -63t-117.5 -23q-48 0 -99 15l28 107q33 -10 64 -10q77 0 122.5 53t45.5 143
q0 97 -47.5 144.5t-135.5 47.5h-110z" />
    <glyph glyph-name="uni04C4" unicode="&#x4c4;" horiz-adv-x="540" 
d="M174 0h-116v475h116v-183h56q27 0 42.5 14t30.5 40l74 129h121l-78 -139q-16 -28 -33 -44t-37 -24q80 -20 120 -80.5t40 -141.5q0 -57 -19 -103.5t-51.5 -78.5t-75.5 -49.5t-91 -17.5q-20 0 -40.5 3t-40.5 10l26 97q14 -5 26.5 -6.5t24.5 -1.5q53 0 87.5 37t34.5 109
q0 64 -30.5 103t-91.5 39h-95v-187z" />
    <glyph glyph-name="uni04C5" unicode="&#x4c5;" horiz-adv-x="739" 
d="M654 667v-551h62v-61q0 -78 -30.5 -139t-86.5 -106l-71 71q31 26 53 56.5t29 62.5h-82v555h-194q-7 -138 -23.5 -242.5t-49.5 -174.5t-85 -105.5t-130 -35.5h-16v113q48 0 81.5 28t55.5 93t34 171.5t17 264.5h436z" />
    </font>
</defs>
</svg>
