<?xml version="1.0" standalone="no"?>
<!DOCTYPE svg PUBLIC "-//W3C//DTD SVG 1.1//EN" "http://www.w3.org/Graphics/SVG/1.1/DTD/svg11.dtd" >
<svg>
<metadata>
Created by FontForge 20090622 at Mon Aug 31 22:48:12 2015
 By deploy user
Copyright 2013 Dalton Maag Ltd. Modification of this file requires prior written permission from Dalton Maag Ltd.
</metadata>
<defs>
<font id="Effra-Heavy" horiz-adv-x="360" >
  <font-face 
    font-family="Effra Heavy"
    font-weight="900"
    font-stretch="normal"
    units-per-em="1000"
    panose-1="2 11 8 3 2 2 3 2 2 4"
    ascent="798"
    descent="-202"
    x-height="470"
    cap-height="667"
    bbox="-173 -241 1250 955"
    underline-thickness="45"
    underline-position="-123"
    unicode-range="U+0008-U+FB04"
  />
<missing-glyph horiz-adv-x="500" 
d="M50 0v750h400v-750h-400zM400 50v650h-300v-650h300z" />
    <glyph glyph-name="f_f" unicode="ff" horiz-adv-x="683" 
d="M87 340h-72v130h72v6q0 48 13 85t37 64q54 60 156 60q31 0 61 -8.5t54 -25.5l-54 -114q-26 15 -47 15q-7 0 -16 -2.5t-16.5 -9t-13 -18.5t-5.5 -30v-22h142v18q0 48 16 84.5t44 61.5t66.5 38t84.5 13q44 0 82.5 -12.5t67.5 -35.5l-70 -109q-14 10 -30.5 16t-34.5 6
q-26 0 -41.5 -16t-15.5 -43v-21h102v-130h-102v-340h-169v340h-142v-340h-169v340z" />
    <glyph glyph-name="f_i" unicode="fi" horiz-adv-x="605" 
d="M87 340h-72v130h72v6q0 42 13.5 76t32.5 57q34 41 88 58.5t114 17.5q57 0 110.5 -13t91.5 -36l-61 -113q-32 14 -64.5 23.5t-67.5 9.5q-18 0 -34 -3.5t-28 -12t-19 -22.5t-7 -35v-13h297v-470h-169v340h-128v-340h-169v340z" />
    <glyph glyph-name="f_l" unicode="fl" horiz-adv-x="602" 
d="M87 340h-72v130h72v9q0 57 20.5 96.5t55.5 64t81 35t97 10.5q54 0 110 -12.5t102 -41.5v-631h-169v547q-11 5 -25 6.5t-26 1.5q-35 0 -56 -17t-21 -53v-15h79v-130h-79v-340h-169v340z" />
    <glyph glyph-name="f_f_i" unicode="ffi" horiz-adv-x="916" 
d="M87 340h-72v130h72v6q0 104 60 159q26 24 62.5 37t83.5 13q31 0 61 -8.5t54 -25.5l-54 -114q-26 15 -47 15q-7 0 -16 -2.5t-17 -9t-13.5 -18.5t-5.5 -30v-22h143v6q0 42 13.5 76t32.5 57q34 41 88 58.5t114 17.5q57 0 110.5 -13t91.5 -36l-61 -113q-32 14 -64.5 23.5
t-67.5 9.5q-18 0 -34 -3.5t-28 -12t-19 -22.5t-7 -35v-13h297v-470h-169v340h-128v-340h-169v340h-141v-340h-170v340z" />
    <glyph glyph-name="f_f_l" unicode="ffl" horiz-adv-x="913" 
d="M87 340h-72v130h72v6q0 104 60 159q26 24 62.5 37t83.5 13q31 0 61 -8.5t54 -25.5l-54 -114q-26 15 -47 15q-7 0 -16 -2.5t-17 -9t-13.5 -18.5t-5.5 -30v-22h143v9q0 57 20.5 96.5t55.5 64t81 35t97 10.5q54 0 110 -12.5t102 -41.5v-631h-169v547q-11 5 -25 6.5t-26 1.5
q-35 0 -56 -17t-21 -53v-15h79v-130h-79v-340h-169v340h-141v-340h-170v340z" />
    <glyph glyph-name=".notdef" horiz-adv-x="500" 
d="M50 0v750h400v-750h-400zM400 50v650h-300v-650h300z" />
    <glyph glyph-name=".null" horiz-adv-x="0" 
 />
    <glyph glyph-name=".null" horiz-adv-x="0" 
 />
    <glyph glyph-name=".null" horiz-adv-x="0" 
 />
    <glyph glyph-name="nonmarkingreturn" unicode="&#x9;" horiz-adv-x="160" 
 />
    <glyph glyph-name="nonmarkingreturn" unicode="&#xd;" horiz-adv-x="160" 
 />
    <glyph glyph-name="space" unicode=" " horiz-adv-x="160" 
 />
    <glyph glyph-name="exclam" unicode="!" horiz-adv-x="305" 
d="M67 170h171v-170h-171v170zM60 667h185l-10 -441h-165z" />
    <glyph glyph-name="quotedbl" unicode="&#x22;" horiz-adv-x="456" 
d="M42 667h153v-266h-153v266zM261 667h153v-266h-153v266z" />
    <glyph glyph-name="numbersign" unicode="#" horiz-adv-x="713" 
d="M123 134h-84v121h117l28 105h-82v121h115l41 149h132l-40 -149h111l41 149h133l-40 -149h79v-121h-112l-28 -105h76v-121h-109l-36 -134h-133l35 134h-111l-36 -134h-132zM400 255l28 105h-111l-28 -105h111z" />
    <glyph glyph-name="dollar" unicode="$" horiz-adv-x="561" 
d="M111 200q37 -35 84 -52t92 -17q10 0 21.5 2t21 7.5t15.5 14t6 22.5q0 24 -28.5 37.5t-68.5 27.5q-35 12 -72 27t-68 38.5t-51 57.5t-20 83q0 43 14 76.5t38.5 57.5t57 39t69.5 22v86h118v-85q45 -6 86.5 -23.5t76.5 -48.5l-90 -118q-26 22 -60 34.5t-64 12.5
q-12 0 -25.5 -1.5t-25 -6.5t-19.5 -14t-8 -25q0 -13 8 -22t22 -16.5t32 -14t38 -12.5q34 -11 71 -25.5t68 -37.5t51 -58t20 -87q0 -40 -15 -71.5t-39.5 -55t-57.5 -39.5t-69 -23v-100h-118v95q-57 6 -111 27.5t-96 62.5z" />
    <glyph glyph-name="percent" unicode="%" horiz-adv-x="925" 
d="M586 630h143l-394 -630h-147zM209 284q-41 0 -72 14t-51 38t-30 57.5t-10 72.5t10 72t30 57t51 37.5t72 13.5t72 -13.5t51.5 -37.5t30.5 -57t10 -72t-10 -72.5t-30.5 -57.5t-51.5 -38t-72 -14zM209 379q15 0 24 9t13.5 22.5t6 28.5t1.5 27t-1.5 27t-6 28.5t-13.5 22.5
t-24 9t-24 -9t-13.5 -22.5t-6 -28.5t-1.5 -27t1.5 -27t6 -28.5t13.5 -22.5t24 -9zM714 -10q-41 0 -72 14t-51 38t-30 57.5t-10 72.5t10 72t30 57t51 37.5t72 13.5t72 -13.5t51.5 -37.5t30.5 -57t10 -72t-10 -72.5t-30.5 -57.5t-51.5 -38t-72 -14zM714 85q15 0 24 9
t13.5 22.5t6 28.5t1.5 27t-1.5 27t-6 28.5t-13.5 22.5t-24 9t-24 -9t-13.5 -22.5t-6 -28.5t-1.5 -27t1.5 -27t6 -28.5t13.5 -22.5t24 -9z" />
    <glyph glyph-name="ampersand" unicode="&#x26;" horiz-adv-x="690" 
d="M438 48q-27 -20 -51.5 -32t-47 -19.5t-44.5 -10t-45 -2.5q-45 0 -85.5 13t-71 38.5t-48 62.5t-17.5 85q0 62 32 115.5t94 88.5q-23 35 -28.5 62t-5.5 50q0 39 16 72.5t45 59t69 40t88 14.5q63 0 115.5 -30.5t81.5 -97.5l-122 -71q-10 25 -26.5 41.5t-42.5 16.5
q-24 0 -40.5 -14.5t-16.5 -38.5q0 -17 10 -32.5t21 -28.5l142 -166q20 20 42.5 45l48.5 54l111 -101l-55.5 -59.5l-49.5 -50.5l130 -152h-208zM241 281q-26 -17 -37.5 -38t-11.5 -44q0 -32 23.5 -49.5t53.5 -17.5q19 0 36.5 5.5t39.5 20.5z" />
    <glyph glyph-name="quotesingle" unicode="'" horiz-adv-x="237" 
d="M42 667h153v-266h-153v266z" />
    <glyph glyph-name="parenleft" unicode="(" horiz-adv-x="347" 
d="M150 -93q-8 14 -23.5 49.5t-31.5 88t-28 119.5t-12 143t12 142.5t28 119t31.5 88t23.5 49.5h172q-4 -7 -19 -42t-31.5 -89t-30 -123t-13.5 -145t13.5 -145.5t30 -123.5t31.5 -89t19 -42h-172z" />
    <glyph glyph-name="parenright" unicode=")" horiz-adv-x="347" 
d="M25 -93q4 7 19 42t31.5 89t30 123.5t13.5 145.5t-13.5 145t-30 123t-31.5 89t-19 42h172q7 -14 23 -49.5t32 -88t28 -119t12 -142.5t-12 -143t-28 -119.5t-32 -88t-23 -49.5h-172z" />
    <glyph glyph-name="asterisk" unicode="*" horiz-adv-x="486" 
d="M40 476l105 42l-105 42l66 114l85 -64l-15 104h132l-13 -106l85 63l66 -114l-105 -37l105 -41l-66 -114l-86 64l14 -107h-132l16 104l-86 -64z" />
    <glyph glyph-name="plus" unicode="+" horiz-adv-x="561" 
d="M212 250h-131v132h131v136h136v-136h132v-132h-132v-134h-136v134z" />
    <glyph glyph-name="comma" unicode="," horiz-adv-x="292" 
d="M116 0h-63v182h187v-182l-83 -143h-103z" />
    <glyph glyph-name="hyphen" unicode="-" horiz-adv-x="450" 
d="M60 361h330v-162h-330v162z" />
    <glyph glyph-name="period" unicode="." horiz-adv-x="292" 
d="M55 181h182v-181h-182v181z" />
    <glyph glyph-name="slash" unicode="/" horiz-adv-x="471" 
d="M283 685h171l-263 -701h-174z" />
    <glyph glyph-name="zero" unicode="0" horiz-adv-x="561" 
d="M281 -16q-62 0 -109 24t-78.5 68t-47.5 105t-16 135t16 135t47.5 105t78.5 68t109 24q66 0 113.5 -24t77.5 -68t44.5 -105t14.5 -135t-14.5 -135t-44.5 -105t-77.5 -68t-113.5 -24zM281 138q24 0 39 14t24 38t12.5 56.5t3.5 69.5t-3.5 69.5t-12.5 56.5t-24 38t-39 14
t-39.5 -14t-24 -38t-12 -56.5t-3.5 -69.5t3.5 -69.5t12 -56.5t24 -38t39.5 -14z" />
    <glyph glyph-name="one" unicode="1" horiz-adv-x="561" 
d="M101 144h110v302l-89 -48l-72 128l189 104h135v-486h102v-144h-375v144z" />
    <glyph glyph-name="two" unicode="2" horiz-adv-x="561" 
d="M44 92q0 49 21 88t52 70.5t68 58l68 49.5t52 44.5t21 44.5q0 21 -18 38.5t-55 17.5q-20 0 -36.5 -7t-29.5 -17t-22 -21.5t-15 -20.5l-122 84q15 25 37.5 48t53 40.5t69.5 28t87 10.5q53 0 94 -16t68.5 -42.5t42 -60t14.5 -68.5q0 -43 -18 -77.5t-45.5 -63t-60 -51.5
l-60.5 -43.5t-47 -39t-20 -36.5h253v-150h-452v92z" />
    <glyph glyph-name="three" unicode="3" horiz-adv-x="561" 
d="M96 189q35 -30 67 -44.5t69 -14.5q19 0 36 5t30 15t21 25.5t8 36.5q0 14 -5.5 28t-16.5 25t-27 18t-37 7q-23 0 -41.5 -4.5t-25.5 -8.5l-38 62l160 148h-233v143h415v-116l-122 -132q66 -17 103.5 -66t37.5 -123q0 -50 -22 -89t-57.5 -65.5t-80.5 -40.5t-91 -14
q-72 0 -132.5 21.5t-105.5 61.5z" />
    <glyph glyph-name="four" unicode="4" horiz-adv-x="561" 
d="M27 232l269 398h167v-385h63v-135h-63v-110h-155v110h-281v122zM308 245v188l-128 -188h128z" />
    <glyph glyph-name="five" unicode="5" horiz-adv-x="561" 
d="M104 187q27 -25 57.5 -41t67.5 -16q49 0 72.5 25.5t23.5 56.5q0 16 -6 31t-18 27t-30 19.5t-41 7.5q-18 0 -43 -4.5t-46 -15.5l-72 53l47 300h353v-143h-241l-12 -80q7 2 27 4t33 2q47 0 86.5 -14.5t68 -40.5t44.5 -64t16 -84t-16 -87t-47.5 -72t-77 -49t-105.5 -18
q-77 0 -131.5 24.5t-97.5 64.5z" />
    <glyph glyph-name="six" unicode="6" horiz-adv-x="561" 
d="M433 481q-24 13 -49.5 18.5t-45.5 5.5q-18 0 -37.5 -6t-37 -19.5t-31.5 -35.5t-21 -54q22 15 52 23t56 8q49 0 87.5 -16t65 -43.5t40 -65.5t13.5 -81q0 -47 -16 -89.5t-46.5 -74t-74 -50t-98.5 -18.5q-53 0 -99 17.5t-79.5 56.5t-53 100t-19.5 148q0 70 19.5 132
t57.5 109t93.5 74.5t127.5 27.5q53 0 89 -12t63 -26zM206 260q1 -38 8.5 -63t19.5 -40t27 -21.5t30 -6.5q36 0 56.5 23.5t20.5 59.5q0 39 -23.5 59t-55.5 21q-27 0 -47 -9t-36 -23z" />
    <glyph glyph-name="seven" unicode="7" horiz-adv-x="561" 
d="M98 0q18 58 45 127t57.5 135.5t60.5 125.5t54 97h-269v145h441v-135q-41 -70 -72.5 -134t-57 -124.5t-46 -119l-39.5 -117.5h-174z" />
    <glyph glyph-name="eight" unicode="8" horiz-adv-x="561" 
d="M279 386q31 10 53 29.5t22 48.5q0 31 -21 49.5t-54 18.5t-54 -18.5t-21 -49.5q0 -29 22 -48.5t53 -29.5zM279 277q-16 -5 -32 -12t-28.5 -17.5t-20.5 -25t-8 -33.5q0 -18 7.5 -32t20 -23t28.5 -13.5t33 -4.5t33 4.5t28.5 13.5t20 23t7.5 32q0 19 -8 33.5t-21 25
t-28.5 17.5t-31.5 12zM126 346q-29 18 -51.5 52t-22.5 79q0 36 16 67t45.5 54.5t71.5 36.5t94 13t94 -13t72 -36.5t46.5 -54.5t16.5 -67q0 -45 -22.5 -79t-51.5 -52q47 -23 75 -62.5t28 -100.5q0 -34 -15.5 -69.5t-47.5 -64t-80.5 -47t-114.5 -18.5q-65 0 -113 17t-80 44.5
t-47.5 63t-15.5 72.5q0 61 29 101.5t74 63.5z" />
    <glyph glyph-name="nine" unicode="9" horiz-adv-x="561" 
d="M128 152q24 -14 51 -20t47 -6q60 0 88 28t36 84q-23 -14 -53 -21.5t-60 -7.5q-50 0 -87 17t-61.5 46t-37 66t-12.5 78q0 47 15.5 89.5t45 74t72 50t97.5 18.5q53 0 98.5 -18t79.5 -58t53 -105t19 -159q0 -59 -16 -117t-50.5 -104.5t-90.5 -75t-135 -28.5
q-53 0 -93.5 12.5t-66.5 27.5zM354 381q0 65 -23.5 93t-57.5 28q-36 0 -56.5 -23.5t-20.5 -59.5q0 -35 19.5 -56.5t51.5 -22.5q29 0 48.5 8.5t38.5 25.5v7z" />
    <glyph glyph-name="colon" unicode=":" horiz-adv-x="292" 
d="M55 181h182v-181h-182v181zM55 470h182v-181h-182v181z" />
    <glyph glyph-name="semicolon" unicode=";" horiz-adv-x="292" 
d="M116 0h-63v182h187v-182l-83 -143h-103zM55 470h182v-181h-182v181z" />
    <glyph glyph-name="less" unicode="&#x3c;" horiz-adv-x="561" 
d="M70 363l353 187l60 -119l-229 -114l237 -114l-68 -124l-353 187v97z" />
    <glyph glyph-name="equal" unicode="=" horiz-adv-x="561" 
d="M81 473h399v-132h-399v132zM81 276h399v-132h-399v132z" />
    <glyph glyph-name="greater" unicode="&#x3e;" horiz-adv-x="561" 
d="M491 266l-353 -187l-68 124l237 114l-229 114l60 119l353 -187v-97z" />
    <glyph glyph-name="question" unicode="?" horiz-adv-x="541" 
d="M182 230q0 35 6.5 60.5t17.5 45t24.5 33t27.5 24.5l25.5 19t22 18.5t15.5 20t6 24.5q0 16 -7.5 26.5t-18.5 16.5t-25 8.5t-26 2.5q-35 0 -68 -17t-59 -43l-98 116q45 46 105.5 73.5t138.5 27.5q45 0 86 -11t73 -35t51 -61.5t19 -89.5q0 -29 -6.5 -51.5t-17.5 -39.5
t-24.5 -30.5t-27.5 -24.5q-15 -13 -30.5 -24.5t-27.5 -24t-19.5 -28.5t-7.5 -37v-4h-155v5zM173 170h171v-170h-171v170z" />
    <glyph glyph-name="at" unicode="@" horiz-adv-x="962" 
d="M122 -19q-9 10 -23.5 35.5t-28.5 63t-24 85t-10 101.5q0 105 37.5 183.5t100.5 131t146 78.5t174 26q116 0 198 -31.5t134 -86t76 -128t24 -158.5q0 -81 -19 -137t-50 -91.5t-70.5 -51.5t-80.5 -16q-27 0 -47.5 3.5t-36 10t-29 17.5t-26.5 26q-20 -23 -52.5 -40.5
t-90.5 -17.5q-28 0 -57 6.5t-53 22.5t-39 43.5t-15 69.5t17.5 73.5t47.5 52t70.5 30.5t86.5 10q20 0 29 -1l26 -3v24q0 15 -6.5 24.5t-17 15.5t-23.5 8t-26 2q-45 0 -76.5 -11.5t-52.5 -26.5l-66 96q30 24 83 44.5t136 20.5q98 0 153 -46t55 -142v-135q0 -36 9.5 -50.5
t30.5 -14.5q15 0 29 13.5t24 37.5t16 57.5t6 74.5q0 79 -23.5 136t-65.5 94t-100 54.5t-128 17.5q-61 0 -122 -16.5t-110 -54t-80 -98t-31 -147.5q0 -45 8.5 -83.5t20 -67.5t22 -48t14.5 -25zM537 204q-5 1 -13.5 2t-24.5 1q-42 0 -58.5 -17t-16.5 -40q0 -51 51 -51
q26 0 44 15.5t18 57.5v32z" />
    <glyph glyph-name="A" unicode="A" horiz-adv-x="704" 
d="M255 667h203l236 -667h-191l-43 138h-223l-44 -138h-183zM424 267l-74 245l-77 -245h151z" />
    <glyph glyph-name="B" unicode="B" horiz-adv-x="633" 
d="M60 667h271q70 0 116 -15.5t73 -40t37.5 -56t10.5 -62.5q0 -29 -9.5 -52t-24 -40.5t-31.5 -29.5t-32 -17q19 -6 42 -18t43 -32t34 -48t14 -65q0 -100 -69.5 -145.5t-203.5 -45.5h-271v667zM310 399q31 0 55.5 15.5t24.5 53.5q0 21 -7 35.5t-18.5 22.5t-26 11.5t-28.5 3.5
h-77v-142h77zM323 126q15 0 33 2.5t33 10.5t25 24t10 43q0 25 -10 40.5t-25 23.5t-33 11t-33 3h-90v-158h90z" />
    <glyph glyph-name="C" unicode="C" horiz-adv-x="683" 
d="M678 124q-113 -141 -297 -141q-77 0 -141 26t-109.5 72t-71 110t-25.5 141q0 76 25 140.5t71 112t110 74t141 26.5q87 0 161 -29t125 -101l-117 -118q-28 38 -67 61t-89 23q-42 0 -75 -14t-55.5 -39t-34.5 -58.5t-12 -72.5q0 -40 12.5 -74t35.5 -59t55.5 -39t72.5 -14
q58 0 94.5 20.5t71.5 64.5z" />
    <glyph glyph-name="D" unicode="D" horiz-adv-x="708" 
d="M60 667h256q77 0 142.5 -20t113.5 -61t75 -105t27 -151q0 -83 -27.5 -144.5t-75.5 -103t-114 -62t-142 -20.5h-255v667zM309 156q87 0 134.5 49.5t47.5 128.5q0 40 -11 72.5t-33.5 56t-56.5 36.5t-81 13h-72v-356h72z" />
    <glyph glyph-name="E" unicode="E" horiz-adv-x="593" 
d="M60 667h480v-153h-303v-103h249v-144h-249v-114h324v-153h-501v667z" />
    <glyph glyph-name="F" unicode="F" horiz-adv-x="545" 
d="M60 667h465v-155h-288v-129h223v-146h-223v-237h-177v667z" />
    <glyph glyph-name="G" unicode="G" horiz-adv-x="723" 
d="M400 381h274v-301q-60 -51 -137.5 -73.5t-155.5 -22.5q-81 0 -145.5 24.5t-109.5 70t-68.5 110.5t-23.5 146q0 76 25.5 140.5t71.5 111t109.5 72.5t140.5 26q83 0 155.5 -27.5t121.5 -91.5l-115 -116q-31 31 -66.5 51t-82.5 20q-43 0 -76 -15t-55.5 -40.5t-34.5 -60
t-12 -73.5q0 -43 13 -77.5t36 -59t56 -38t74 -13.5q33 0 63 8t58 28v64h-116v137z" />
    <glyph glyph-name="H" unicode="H" horiz-adv-x="720" 
d="M60 667h177v-244h246v244h177v-667h-177v261h-246v-261h-177v667z" />
    <glyph glyph-name="I" unicode="I" horiz-adv-x="297" 
d="M60 667h177v-667h-177v667z" />
    <glyph glyph-name="J" unicode="J" horiz-adv-x="540" 
d="M115 194q19 -22 46.5 -39t63.5 -17q46 0 65 24.5t19 67.5v437h177v-457q0 -54 -18.5 -96.5t-51.5 -72t-77.5 -44.5t-96.5 -15q-66 0 -128 25.5t-104 77.5z" />
    <glyph glyph-name="K" unicode="K" horiz-adv-x="688" 
d="M60 667h177v-250l199 250h207l-222 -257l257 -410h-215l-163 270l-63 -74v-196h-177v667z" />
    <glyph glyph-name="L" unicode="L" horiz-adv-x="566" 
d="M60 667h177v-511h309v-156h-486v667z" />
    <glyph glyph-name="M" unicode="M" horiz-adv-x="814" 
d="M77 667h169l162 -291l159 291h170l31 -667h-179l-16 391l-117 -228h-97l-130 228l-13 -391h-170z" />
    <glyph glyph-name="N" unicode="N" horiz-adv-x="712" 
d="M60 667h161l256 -372v372h175v-667h-151l-266 383v-383h-175v667z" />
    <glyph glyph-name="O" unicode="O" horiz-adv-x="762" 
d="M381 -16q-75 0 -138.5 26.5t-110 73t-72.5 111t-26 140.5t26 140.5t72.5 111t110 72.5t138.5 26t139 -26t110 -72.5t72 -111t26 -140.5t-26 -140.5t-72 -111t-110 -73t-139 -26.5zM381 150q39 0 69.5 14.5t51.5 39.5t32 59t11 72t-11 72t-32 59t-51.5 39.5t-69.5 14.5
t-69.5 -14.5t-51.5 -39.5t-32 -59t-11 -72t11 -72t32 -59t51.5 -39.5t69.5 -14.5z" />
    <glyph glyph-name="P" unicode="P" horiz-adv-x="598" 
d="M61 667h272q54 0 97.5 -14.5t74.5 -42t48 -69t17 -95.5q0 -51 -17.5 -92.5t-48 -71t-73 -45t-93.5 -15.5h-104v-222h-173v667zM318 361q36 0 57 23t21 59q0 38 -20 61t-59 23h-83v-166h84z" />
    <glyph glyph-name="Q" unicode="Q" horiz-adv-x="762" 
d="M536 17q-35 -16 -73.5 -24.5t-81.5 -8.5q-75 0 -138.5 26.5t-110 73t-72.5 111t-26 140.5t26 140.5t72.5 111t110 72.5t138.5 26t139 -26t110 -72.5t72 -111t26 -140.5t-25.5 -140t-72.5 -111l66 -79l-89 -73zM354 238l88 73l73 -89q15 23 22.5 52t7.5 61q0 38 -11 72
t-32 59t-51.5 39.5t-69.5 14.5t-69.5 -14.5t-51.5 -39.5t-32 -59t-11 -72t11 -72t32 -59t51.5 -39.5t69.5 -14.5q11 0 21 1.5t20 3.5z" />
    <glyph glyph-name="R" unicode="R" horiz-adv-x="628" 
d="M60 667h276q54 0 97.5 -14t74.5 -41.5t48 -68.5t17 -95q0 -66 -29 -114.5t-77 -77.5l143 -256h-190l-113 227h-74v-227h-173v667zM319 366q35 0 57 21.5t22 57.5q0 38 -21 60t-59 22h-85v-161h86z" />
    <glyph glyph-name="S" unicode="S" horiz-adv-x="590" 
d="M112 211q28 -28 73 -51t99 -23q13 0 27 2.5t25 8.5t18 16t7 26q0 26 -26.5 43t-77.5 34l-37 12q-31 10 -62.5 26t-56.5 38.5t-40.5 53t-15.5 71.5q0 46 17 85.5t49.5 69t80.5 46t111 16.5q49 0 89 -9t70 -22t51 -28t32 -27l-90 -114q-35 26 -73 42.5t-78 16.5
q-13 0 -26 -3t-23.5 -9t-17 -15.5t-6.5 -23.5q0 -15 7.5 -26t20.5 -19t31.5 -14.5l39.5 -13.5l32 -10q34 -11 69 -25.5t63 -39t46 -61t18 -89.5q0 -46 -21.5 -85t-58 -67t-86 -43.5t-105.5 -15.5q-100 0 -167.5 26.5t-114.5 71.5z" />
    <glyph glyph-name="T" unicode="T" horiz-adv-x="627" 
d="M225 512h-205v155h587v-155h-203v-512h-179v512z" />
    <glyph glyph-name="U" unicode="U" horiz-adv-x="687" 
d="M56 667h177v-391q0 -55 25.5 -90t84.5 -35t84 35.5t25 89.5v391h179v-407q0 -64 -21 -115.5t-59.5 -87.5t-91 -55t-115.5 -19t-116 19t-91.5 54.5t-59.5 87t-21 116.5v407z" />
    <glyph glyph-name="V" unicode="V" horiz-adv-x="692" 
d="M10 667h193l150 -464l140 464h189l-243 -667h-187z" />
    <glyph glyph-name="W" unicode="W" horiz-adv-x="931" 
d="M10 667h187l86 -447l105 431h161l106 -431l85 447h181l-166 -667h-185l-105 422l-105 -422h-188z" />
    <glyph glyph-name="X" unicode="X" horiz-adv-x="677" 
d="M227 341l-227 326h218l111 -173l107 173h197l-207 -309l251 -358h-221l-133 205l-129 -205h-194z" />
    <glyph glyph-name="Y" unicode="Y" horiz-adv-x="672" 
d="M247 266l-237 401h203l130 -238l122 238h197l-238 -400v-267h-177v266z" />
    <glyph glyph-name="Z" unicode="Z" horiz-adv-x="623" 
d="M36 137l337 375h-320v155h539v-136l-331 -376h338v-155h-563v137z" />
    <glyph glyph-name="bracketleft" unicode="[" horiz-adv-x="368" 
d="M70 706h268v-128h-119v-541h119v-130h-268v799z" />
    <glyph glyph-name="backslash" unicode="\" horiz-adv-x="471" 
d="M454 -16h-174l-263 701h171z" />
    <glyph glyph-name="bracketright" unicode="]" horiz-adv-x="368" 
d="M298 -93h-268v130h119v541h-119v128h268v-799z" />
    <glyph glyph-name="asciicircum" unicode="^" horiz-adv-x="567" 
d="M215 668h137l180 -375h-172l-76 177l-78 -177h-171z" />
    <glyph glyph-name="underscore" unicode="_" horiz-adv-x="500" 
d="M0 -65h500v-55h-500v55z" />
    <glyph glyph-name="grave" unicode="`" horiz-adv-x="440" 
d="M117 682h159l48 -142h-117z" />
    <glyph glyph-name="a" unicode="a" horiz-adv-x="527" 
d="M315 44q-32 -34 -64.5 -47t-80.5 -13q-23 0 -49 6.5t-48 22.5t-36 43.5t-14 69.5t18 74.5t49 54t72 32.5t86 11q23 0 36.5 -1t30.5 -3v9q0 18 -7.5 29.5t-19 18t-25 9t-26.5 2.5q-45 0 -79 -11.5t-55 -26.5l-64 97q30 24 84 44t138 20q49 0 89 -12.5t69 -38t45 -63
t16 -87.5v-284h-159zM315 203q-17 4 -46 4q-42 0 -62 -16.5t-20 -39.5q0 -52 56 -52q13 0 26 3.5t23 12t16.5 22.5t6.5 35v31z" />
    <glyph glyph-name="b" unicode="b" horiz-adv-x="569" 
d="M218 132q23 -10 59 -10q41 0 67 28t26 89q0 16 -4 33.5t-13 31.5t-23 23t-33 9q-42 0 -60.5 -26t-18.5 -65v-113zM49 667h169v-235q13 15 29.5 24t33 14.5t31 7.5t24.5 2q49 0 87.5 -19.5t64 -52t39 -74.5t13.5 -88q0 -125 -72 -193.5t-212 -68.5q-60 0 -115 12t-92 26
v645z" />
    <glyph glyph-name="c" unicode="c" horiz-adv-x="483" 
d="M478 62q-13 -15 -32 -29t-43.5 -25t-54.5 -17.5t-65 -6.5q-53 0 -99.5 18t-81 51t-54 79.5t-19.5 103.5q0 53 19.5 98.5t54 79.5t81 53t99.5 19q70 0 117.5 -22t77.5 -56l-99 -113q-11 13 -31 28t-60 15q-35 0 -62 -27.5t-27 -74.5q0 -23 7.5 -42.5t19.5 -33t28 -21
t34 -7.5q19 0 34 4.5t26 11.5t18.5 14.5l12.5 12.5z" />
    <glyph glyph-name="d" unicode="d" horiz-adv-x="574" 
d="M362 48q-26 -31 -61 -46t-68 -15q-38 0 -69.5 11.5t-56.5 32.5q-38 32 -58 84.5t-20 115.5q0 53 18 98.5t51.5 79t80 52.5t103.5 19q23 0 42 -3.5t32 -7.5v198h169v-667h-154zM356 329q-26 9 -55 9q-45 0 -73.5 -28t-28.5 -85q0 -42 20.5 -67.5t62.5 -25.5q37 0 55.5 22
t18.5 62v113z" />
    <glyph glyph-name="e" unicode="e" horiz-adv-x="533" 
d="M493 34q-12 -7 -30.5 -15.5t-43.5 -16t-56 -13t-66 -5.5q-130 0 -199 65.5t-69 183.5q0 47 15 92.5t45.5 81t77 57.5t108.5 22q48 0 90.5 -16.5t74 -50t49.5 -84t18 -118.5v-32h-318q1 -12 6.5 -25t19 -24.5t36 -18.5t55.5 -7q43 0 78.5 11t55.5 23zM357 285q0 12 -5 25
t-15.5 24t-26 18.5t-37.5 7.5q-21 0 -37 -7.5t-26 -18.5t-15 -24t-5 -25h167z" />
    <glyph glyph-name="f" unicode="f" horiz-adv-x="372" 
d="M87 340h-72v130h72v18q0 48 16 84.5t44 61.5t66.5 38t84.5 13q44 0 82.5 -12.5t67.5 -35.5l-70 -109q-14 10 -30.5 16t-34.5 6q-26 0 -41.5 -16t-15.5 -43v-21h102v-130h-102v-340h-169v340z" />
    <glyph glyph-name="g" unicode="g" horiz-adv-x="567" 
d="M127 -44q27 -17 57.5 -26.5t62.5 -9.5q52 0 77.5 23.5t25.5 78.5v16q-23 -21 -53 -27t-59 -6q-50 0 -89 16t-65.5 45t-40.5 69.5t-14 89.5q0 61 20 109t56.5 80t87 49t110.5 17q56 0 109.5 -10t105.5 -29v-403q0 -134 -65 -192t-190 -58q-53 0 -104 11t-96 40zM351 334
q-27 9 -54 9q-26 0 -45 -9t-31 -24t-17.5 -35.5t-5.5 -43.5q0 -47 22.5 -70t56.5 -23q33 0 53.5 19.5t20.5 61.5v115z" />
    <glyph glyph-name="h" unicode="h" horiz-adv-x="577" 
d="M49 667h169v-240q14 17 32 28t37 17t36.5 8t30.5 2q37 0 69 -10.5t56 -33t37.5 -58t13.5 -84.5v-296h-169v252q0 38 -16.5 59.5t-48.5 21.5q-23 0 -38 -7t-24 -19t-12.5 -26.5t-3.5 -29.5v-251h-169v667z" />
    <glyph glyph-name="i" unicode="i" horiz-adv-x="273" 
d="M45 667h183v-133h-183v133zM52 470h169v-470h-169v470z" />
    <glyph glyph-name="j" unicode="j" horiz-adv-x="286" 
d="M58 667h183v-133h-183v133zM-64 -36q14 -8 29 -14t31 -6q44 0 56.5 23t12.5 62v441h169v-421q0 -54 -9 -99.5t-32.5 -79t-63.5 -52t-102 -18.5q-43 0 -84 12.5t-70 36.5z" />
    <glyph glyph-name="k" unicode="k" horiz-adv-x="554" 
d="M49 667h169v-328l117 131h188l-160 -173l186 -297h-194l-104 180l-33 -35v-145h-169v667z" />
    <glyph glyph-name="l" unicode="l" horiz-adv-x="267" 
d="M49 667h169v-667h-169v667z" />
    <glyph glyph-name="m" unicode="m" horiz-adv-x="875" 
d="M49 470h163l6 -52q27 34 63.5 49t72.5 15q33 0 56.5 -7.5t39.5 -18t25 -21l14 -16.5q11 12 29 23.5t38.5 20.5t43 14t42.5 5q91 0 138.5 -50t47.5 -136v-296h-169v251q0 38 -15 60t-49 22t-55.5 -22t-21.5 -60v-251h-159v251q0 38 -14.5 60t-49.5 22q-32 0 -54.5 -22
t-22.5 -60v-251h-169v470z" />
    <glyph glyph-name="n" unicode="n" horiz-adv-x="573" 
d="M49 470h163l6 -49q14 17 32 29t37 19t36.5 10t30.5 3q37 0 68.5 -10.5t54.5 -33t36 -58t13 -84.5v-296h-169v256q0 35 -14.5 56t-46.5 21q-23 0 -38 -7t-24 -19t-12.5 -26.5t-3.5 -29.5v-251h-169v470z" />
    <glyph glyph-name="o" unicode="o" horiz-adv-x="560" 
d="M280 132q42 0 67 29t25 74t-25 74t-67 29t-67 -29t-25 -74t25 -74t67 -29zM29 235q0 52 18.5 98t51.5 80t79 53.5t102 19.5t102 -19.5t79 -53.5t51.5 -80t18.5 -98q0 -53 -18.5 -98.5t-51.5 -79.5t-79 -53.5t-102 -19.5t-102 19.5t-79 53.5t-51.5 79.5t-18.5 98.5z" />
    <glyph glyph-name="p" unicode="p" horiz-adv-x="569" 
d="M49 470h162l7 -49q13 19 29.5 30.5t33 17.5t31 8t24.5 2q49 0 87.5 -19.5t64 -52t39 -74.5t13.5 -88q0 -62 -19 -110t-53 -81t-79.5 -50.5t-97.5 -17.5q-22 0 -42.5 4t-31.5 7v-197h-168v670zM218 134q23 -10 59 -10q41 0 67 26.5t26 87.5q0 16 -4 33.5t-13 31.5t-23 23
t-33 9q-42 0 -60.5 -26t-18.5 -65v-110z" />
    <glyph glyph-name="q" unicode="q" horiz-adv-x="574" 
d="M356 27q-18 -18 -46.5 -27.5t-63.5 -9.5q-48 0 -88 14.5t-68.5 44t-44.5 75t-16 107.5q0 53 18.5 98.5t54 79t87.5 52.5t119 19q51 0 102.5 -8.5t114.5 -31.5v-640h-169v227zM356 329q-26 9 -55 9q-45 0 -73.5 -28t-28.5 -85q0 -42 20.5 -67.5t62.5 -25.5q37 0 55.5 22
t18.5 62v113z" />
    <glyph glyph-name="r" unicode="r" horiz-adv-x="404" 
d="M49 470h163l6 -59q20 28 49.5 47.5t71.5 19.5q20 0 34.5 -2t25.5 -6l-22 -144q-24 6 -49 6q-110 0 -110 -121v-211h-169v470z" />
    <glyph glyph-name="s" unicode="s" horiz-adv-x="486" 
d="M87 156q12 -10 29 -18.5t35.5 -14.5t37 -9.5t32.5 -3.5q26 0 44.5 6t18.5 28q0 16 -21.5 25.5t-76.5 26.5q-31 9 -57 21.5t-45 29.5t-29.5 40t-10.5 53t14.5 56.5t41 46.5t64 31.5t82.5 11.5q58 0 104.5 -14t87.5 -41l-57 -105q-27 16 -56.5 28t-61.5 12q-52 0 -52 -28
q0 -12 9.5 -19.5t25.5 -13t37 -11t45 -13.5q36 -12 59 -27t36.5 -33t18.5 -39.5t5 -45.5q0 -43 -19.5 -72t-50.5 -47t-69.5 -25.5t-75.5 -7.5q-61 0 -120.5 16.5t-96.5 48.5z" />
    <glyph glyph-name="t" unicode="t" horiz-adv-x="434" 
d="M79 340h-69v130h69v131h169v-131h116v-130h-116v-166q0 -58 55 -58q16 0 31.5 7t28.5 16l66 -104q-32 -25 -71 -39t-80 -14q-57 0 -95.5 16t-61.5 44.5t-32.5 68.5t-9.5 87v142z" />
    <glyph glyph-name="u" unicode="u" horiz-adv-x="571" 
d="M47 470h169v-257q0 -35 14.5 -56t51.5 -21q20 0 33.5 7t22 19t12 26.5t3.5 29.5v252h169v-470h-163l-6 48q-14 -17 -32 -29t-37 -19t-36.5 -10t-30.5 -3q-37 0 -68 10.5t-53.5 33t-35.5 57.5t-13 85v297z" />
    <glyph glyph-name="v" unicode="v" horiz-adv-x="563" 
d="M5 470h184l96 -281l89 281h184l-204 -470h-151z" />
    <glyph glyph-name="w" unicode="w" horiz-adv-x="790" 
d="M5 470h167l74 -276l83 276h131l84 -276l74 276h167l-163 -470h-146l-81 242l-81 -242h-146z" />
    <glyph glyph-name="x" unicode="x" horiz-adv-x="547" 
d="M177 233l-172 237h195l74 -114l75 114h181l-165 -228l177 -242h-195l-79 118l-79 -118h-181z" />
    <glyph glyph-name="y" unicode="y" horiz-adv-x="573" 
d="M81 -54q14 -10 32 -17t32 -7q23 0 38 8.5t26 37.5l14 38l-218 464h192l100 -272l95 272h176l-187 -463l-35.5 -83.5t-42 -69.5t-59.5 -48t-87 -18q-37 0 -72 10.5t-67 32.5z" />
    <glyph glyph-name="z" unicode="z" horiz-adv-x="508" 
d="M34 104l221 232h-208v134h425v-107l-215 -233h218v-130h-441v104z" />
    <glyph glyph-name="braceleft" unicode="{" horiz-adv-x="317" 
d="M98 189q-2 31 -18.5 52t-54.5 21v90q38 0 54.5 21t18.5 52l14 160q4 44 15 73t34 48h141q-18 -18 -32 -51.5t-18 -78.5l-14 -175q-2 -18 -10.5 -33.5t-21 -27.5t-27 -20.5t-28.5 -12.5q14 -4 28.5 -13t27.5 -23t22 -33.5t11 -44.5l14 -175q2 -29 16 -61t32 -50h-141
q-23 19 -34 48.5t-15 73.5z" />
    <glyph glyph-name="bar" unicode="|" horiz-adv-x="281" 
d="M65 833h151v-997h-151v997z" />
    <glyph glyph-name="braceright" unicode="}" horiz-adv-x="317" 
d="M205 29q-4 -44 -15 -73.5t-34 -48.5h-141q18 18 32 50t16 61l14 175q2 25 11 44.5t22 33.5t27.5 23t28.5 13q-14 4 -28.5 12.5t-27 20.5t-21.5 27.5t-10 33.5l-14 175q-4 45 -18 78.5t-32 51.5h141q23 -19 34 -48t15 -73l14 -160q2 -31 18.5 -52t54.5 -21v-90
q-38 0 -54.5 -21t-18.5 -52z" />
    <glyph glyph-name="asciitilde" unicode="~" horiz-adv-x="507" 
d="M32 320l27 26.5t33.5 26.5t40.5 20t48 8q19 0 36 -6.5t32 -14t30 -13.5t31 -6q20 0 39 11t51 39l75 -124q-10 -15 -26 -30t-34.5 -26.5t-39 -19t-38.5 -7.5q-23 0 -42 6.5t-35.5 15t-31.5 15t-31 6.5q-23 0 -41.5 -12.5t-48.5 -38.5z" />
    <glyph glyph-name="Euro" unicode="&#x20ac;" horiz-adv-x="561" 
d="M33 285h58q-1 8 -1 15.5v15.5v24h-77l32 87h58q12 47 34 87.5t55 70t77.5 46.5t101.5 17q53 0 103.5 -19t85.5 -60l-88 -112q-17 18 -41.5 30t-49.5 12q-39 0 -63 -20.5t-37 -51.5h147l-32 -87h-133q-1 -7 -1 -13v-12v-15t1 -15h153l-33 -87h-99q13 -29 36.5 -47.5
t60.5 -18.5q29 0 53 11t41 29l85 -110q-35 -41 -85.5 -60t-103.5 -19q-56 0 -100 16.5t-77 45.5t-55 68t-34 85h-105z" />
    <glyph glyph-name="uni20BA" unicode="&#x20ba;" horiz-adv-x="561" 
d="M46 353l-37 79l88 40v158h158v-85l89 42l36 -79l-125 -58v-57l89 42l36 -79l-125 -58v-149q58 5 92 47.5t51 112.5l144 -38q-29 -133 -110 -202t-213 -69h-122v224l-51 -23l-37 79l88 40v56z" />
    <glyph glyph-name="quotesinglbase" unicode="&#x201a;" horiz-adv-x="309" 
d="M83 167h176l-77 -248h-125z" />
    <glyph glyph-name="florin" unicode="&#x192;" horiz-adv-x="561" 
d="M-38 -38q10 -7 26.5 -15t39.5 -8q13 0 25 4t21.5 15t17 29.5t12.5 48.5l41 223h-59l10 130h72l5 24q12 56 28.5 100t42.5 74t65 45.5t95 15.5q31 0 57 -7t46.5 -16.5t34.5 -19.5l22 -16l-80 -102q-10 7 -26.5 15t-39.5 8q-27 0 -46.5 -19t-29.5 -78l-4 -24h101l-10 -130
h-114l-40 -229q-10 -57 -26.5 -99.5t-43.5 -71.5t-67 -43.5t-96 -14.5q-32 0 -57.5 7t-46 16.5t-34.5 19.5l-22 16z" />
    <glyph glyph-name="quotedblbase" unicode="&#x201e;" horiz-adv-x="533" 
d="M83 167h176l-77 -248h-125zM307 167h176l-77 -248h-125z" />
    <glyph glyph-name="ellipsis" unicode="&#x2026;" horiz-adv-x="912" 
d="M55 181h182v-181h-182v181zM365 181h182v-181h-182v181zM675 181h182v-181h-182v181z" />
    <glyph glyph-name="dagger" unicode="&#x2020;" horiz-adv-x="556" 
d="M196 342h-140v146h140v179h164v-179h140v-146h-140v-463h-164v463z" />
    <glyph glyph-name="daggerdbl" unicode="&#x2021;" horiz-adv-x="556" 
d="M196 58h-140v146h140v138h-140v146h140v179h164v-179h140v-146h-140v-138h140v-146h-140v-179h-164v179z" />
    <glyph glyph-name="circumflex" unicode="&#x2c6;" horiz-adv-x="440" 
d="M155 682h132l107 -142h-133l-41 57l-39 -57h-134z" />
    <glyph glyph-name="perthousand" unicode="&#x2030;" horiz-adv-x="1297" 
d="M586 630h143l-394 -630h-147zM209 284q-41 0 -72 14t-51 38t-30 57.5t-10 72.5t10 72t30 57t51 37.5t72 13.5t72 -13.5t51.5 -37.5t30.5 -57t10 -72t-10 -72.5t-30.5 -57.5t-51.5 -38t-72 -14zM209 379q15 0 24 9t13.5 22.5t6 28.5t1.5 27t-1.5 27t-6 28.5t-13.5 22.5
t-24 9t-24 -9t-13.5 -22.5t-6 -28.5t-1.5 -27t1.5 -27t6 -28.5t13.5 -22.5t24 -9zM714 -10q-41 0 -72 14t-51 38t-30 57.5t-10 72.5t10 72t30 57t51 37.5t72 13.5t72 -13.5t51.5 -37.5t30.5 -57t10 -72t-10 -72.5t-30.5 -57.5t-51.5 -38t-72 -14zM714 85q15 0 24 9
t13.5 22.5t6 28.5t1.5 27t-1.5 27t-6 28.5t-13.5 22.5t-24 9t-24 -9t-13.5 -22.5t-6 -28.5t-1.5 -27t1.5 -27t6 -28.5t13.5 -22.5t24 -9zM1086 -10q-41 0 -72 14t-51 38t-30 57.5t-10 72.5t10 72t30 57t51 37.5t72 13.5t72 -13.5t51.5 -37.5t30.5 -57t10 -72t-10 -72.5
t-30.5 -57.5t-51.5 -38t-72 -14zM1086 85q15 0 24 9t13.5 22.5t6 28.5t1.5 27t-1.5 27t-6 28.5t-13.5 22.5t-24 9t-24 -9t-13.5 -22.5t-6 -28.5t-1.5 -27t1.5 -27t6 -28.5t13.5 -22.5t24 -9z" />
    <glyph glyph-name="Scaron" unicode="&#x160;" horiz-adv-x="590" 
d="M112 211q28 -28 73 -51t99 -23q13 0 27 2.5t25 8.5t18 16t7 26q0 26 -26.5 43t-77.5 34l-37 12q-31 10 -62.5 26t-56.5 38.5t-40.5 53t-15.5 71.5q0 46 17 85.5t49.5 69t80.5 46t111 16.5q49 0 89 -9t70 -22t51 -28t32 -27l-90 -114q-35 26 -73 42.5t-78 16.5
q-13 0 -26 -3t-23.5 -9t-17 -15.5t-6.5 -23.5q0 -15 7.5 -26t20.5 -19t31.5 -14.5l39.5 -13.5l32 -10q34 -11 69 -25.5t63 -39t46 -61t18 -89.5q0 -46 -21.5 -85t-58 -67t-86 -43.5t-105.5 -15.5q-100 0 -167.5 26.5t-114.5 71.5zM122 873h135l45 -68l46 68h134l-116 -156
h-128z" />
    <glyph glyph-name="guilsinglleft" unicode="&#x2039;" horiz-adv-x="373" 
d="M48 242l105 199h168l-104 -199l104 -201h-168z" />
    <glyph glyph-name="OE" unicode="&#x152;" horiz-adv-x="1060" 
d="M558 68q-32 -38 -83 -61t-116 -23q-71 0 -130.5 26.5t-103 73t-67.5 111t-24 140.5t25.5 140.5t70.5 111t105.5 72.5t130.5 26q38 0 70 -9.5t56.5 -23t41 -28.5t24.5 -26v69h449v-155h-301v-100h247v-146h-247v-110h322v-156h-470v68zM381 150q39 0 69.5 14.5t51.5 39.5
t32 59t11 72t-11 72t-32 59t-51.5 39.5t-69.5 14.5t-69.5 -14.5t-51.5 -39.5t-32 -59t-11 -72t11 -72t32 -59t51.5 -39.5t69.5 -14.5z" />
    <glyph glyph-name="quoteleft" unicode="&#x2018;" horiz-adv-x="295" 
d="M117 667h125l-26 -248h-176z" />
    <glyph glyph-name="quoteright" unicode="&#x2019;" horiz-adv-x="295" 
d="M78 667h176l-77 -248h-125z" />
    <glyph glyph-name="quotedblleft" unicode="&#x201c;" horiz-adv-x="518" 
d="M117 667h125l-26 -248h-176zM340 667h125l-26 -248h-176z" />
    <glyph glyph-name="quotedblright" unicode="&#x201d;" horiz-adv-x="518" 
d="M78 667h176l-77 -248h-125zM301 667h176l-77 -248h-125z" />
    <glyph glyph-name="bullet" unicode="&#x2022;" horiz-adv-x="441" 
d="M70 332q0 31 12 58.5t32 47.5t47.5 32t58.5 12t58.5 -12t48 -32t32.5 -47.5t12 -58.5t-12 -58.5t-32.5 -47.5t-48 -32t-58.5 -12t-58.5 12t-47.5 32t-32 47.5t-12 58.5z" />
    <glyph glyph-name="endash" unicode="&#x2013;" horiz-adv-x="500" 
d="M0 361h500v-162h-500v162z" />
    <glyph glyph-name="emdash" unicode="&#x2014;" horiz-adv-x="1000" 
d="M0 361h1000v-162h-1000v162z" />
    <glyph glyph-name="tilde" unicode="&#x2dc;" horiz-adv-x="440" 
d="M14 625q25 27 57.5 44.5t69.5 17.5q19 0 35.5 -6.5t33 -14.5t33.5 -14.5t35 -6.5q26 0 49 10.5t43 26.5l57 -88q-24 -26 -57 -43.5t-70 -17.5q-18 0 -35 6.5t-33.5 14t-33 14t-35.5 6.5q-26 0 -49 -10.5t-43 -26.5z" />
    <glyph glyph-name="trademark" unicode="&#x2122;" horiz-adv-x="896" 
d="M433 667h109l92 -158l93 158h109l18 -383h-114l-10 201l-62 -112h-66l-67 112l-7 -201h-113zM148 565h-120v102h362v-102h-120v-281h-122v281z" />
    <glyph glyph-name="scaron" unicode="&#x161;" horiz-adv-x="486" 
d="M87 156q12 -10 29 -18.5t35.5 -14.5t37 -9.5t32.5 -3.5q26 0 44.5 6t18.5 28q0 16 -21.5 25.5t-76.5 26.5q-31 9 -57 21.5t-45 29.5t-29.5 40t-10.5 53t14.5 56.5t41 46.5t64 31.5t82.5 11.5q58 0 104.5 -14t87.5 -41l-57 -105q-27 16 -56.5 28t-61.5 12q-52 0 -52 -28
q0 -12 9.5 -19.5t25.5 -13t37 -11t45 -13.5q36 -12 59 -27t36.5 -33t18.5 -39.5t5 -45.5q0 -43 -19.5 -72t-50.5 -47t-69.5 -25.5t-75.5 -7.5q-61 0 -120.5 16.5t-96.5 48.5zM71 682h133l41 -57l40 57h133l-107 -142h-133z" />
    <glyph glyph-name="guilsinglright" unicode="&#x203a;" horiz-adv-x="373" 
d="M156 242l-104 199h168l105 -199l-105 -201h-168z" />
    <glyph glyph-name="oe" unicode="&#x153;" horiz-adv-x="869" 
d="M829 34q-12 -7 -30.5 -15.5t-43.5 -16t-56 -13t-66 -5.5q-63 0 -111.5 16t-82.5 46q-29 -29 -68.5 -45.5t-90.5 -16.5q-56 0 -102 19.5t-79 53.5t-51.5 79.5t-18.5 98.5q0 52 18.5 98t51.5 80t79 53.5t102 19.5q52 0 92 -17.5t69 -46.5q30 29 72.5 46.5t97.5 17.5
q48 0 90.5 -16.5t74 -50t49.5 -84t18 -118.5v-32h-318q1 -12 6.5 -25t19 -24.5t36 -18.5t55.5 -7q43 0 78.5 11t55.5 23zM693 285q0 12 -5 25t-15.5 24t-26 18.5t-37.5 7.5q-21 0 -37 -7.5t-26 -18.5t-15 -24t-5 -25h167zM280 132q42 0 67 29t25 74t-25 74t-67 29t-67 -29
t-25 -74t25 -74t67 -29z" />
    <glyph glyph-name="Ydieresis" unicode="&#x178;" horiz-adv-x="672" 
d="M247 266l-237 401h203l130 -238l122 238h197l-238 -400v-267h-177v266zM378 859h141v-128h-141v128zM153 859h141v-128h-141v128z" />
    <glyph glyph-name="uni00A0" unicode="&#xa0;" horiz-adv-x="160" 
 />
    <glyph glyph-name="exclamdown" unicode="&#xa1;" horiz-adv-x="305" 
d="M238 300h-171v170h171v-170zM245 -197h-185l10 441h165z" />
    <glyph glyph-name="cent" unicode="&#xa2;" horiz-adv-x="561" 
d="M278 66q-45 7 -82.5 27.5t-65.5 52.5t-43.5 74.5t-15.5 92.5q0 47 15.5 88.5t43.5 73.5t65.5 54t82.5 30v90h101v-91q48 -8 82.5 -27.5t58.5 -45.5l-99 -113q-11 13 -31 28t-60 15q-35 0 -62 -27.5t-27 -74.5t25 -75t64 -28q19 0 34 4.5t26 11.5t18.5 14.5l12.5 12.5
l99 -113q-21 -23 -56.5 -44t-84.5 -30v-85h-101v85z" />
    <glyph glyph-name="sterling" unicode="&#xa3;" horiz-adv-x="561" 
d="M112 269h-71v96h71v46q0 54 15.5 98t45.5 74.5t73 47.5t98 17q59 0 108.5 -20.5t87.5 -66.5l-99 -108q-14 16 -34 28t-42 12q-21 0 -35.5 -7.5t-24 -20.5t-13.5 -29t-4 -34v-37h161v-96h-161v-114h251v-155h-427v269z" />
    <glyph glyph-name="currency" unicode="&#xa4;" horiz-adv-x="545" 
d="M90 227q-23 41 -23 93q0 47 20 87l-65 68l91 93l67 -70q19 8 39 13t43 5q51 0 95 -25l73 77l92 -93l-78 -81q7 -17 11 -35.5t4 -38.5q0 -42 -17 -81l80 -83l-92 -91l-78 80q-41 -21 -90 -21q-42 0 -76 15l-73 -74l-91 91zM262 250q29 0 49 20.5t20 49.5q0 28 -20 48
t-49 20t-49 -20t-20 -48q0 -29 20 -49.5t49 -20.5z" />
    <glyph glyph-name="yen" unicode="&#xa5;" horiz-adv-x="561" 
d="M67 190h123v64h-123v90h77l-144 286h183l99 -247l101 247h178l-145 -286h77v-90h-122v-64h122v-90h-122v-100h-181v100h-123v90z" />
    <glyph glyph-name="brokenbar" unicode="&#xa6;" horiz-adv-x="281" 
d="M65 833h151v-379h-151v379zM65 215h151v-379h-151v379z" />
    <glyph glyph-name="section" unicode="&#xa7;" horiz-adv-x="488" 
d="M149 328q-51 32 -72 74.5t-21 91.5q0 41 16.5 76t44.5 60.5t65.5 40t79.5 14.5q36 0 65.5 -8.5t51 -19.5t34.5 -21t17 -14l-82 -124l-14.5 9l-20.5 12.5t-23.5 11t-24.5 4.5q-19 0 -30 -10t-11 -24q0 -11 5.5 -20.5t21.5 -20.5l195 -130l-90 -135zM140 -25q5 -3 14 -9
t20.5 -12.5t24 -11t24.5 -4.5q19 0 30 10t11 24q0 11 -5.5 20.5t-21.5 20.5l-195 130l90 135l207 -133q51 -32 72 -74.5t21 -91.5q0 -41 -16.5 -76t-44.5 -60.5t-65.5 -40t-79.5 -14.5q-36 0 -65.5 8.5t-51 19.5t-34.5 21t-17 14z" />
    <glyph glyph-name="dieresis" unicode="&#xa8;" horiz-adv-x="440" 
d="M255 671h131v-120h-131v120zM54 671h131v-120h-131v120z" />
    <glyph glyph-name="copyright" unicode="&#xa9;" horiz-adv-x="803" 
d="M563 231q-26 -35 -66 -60.5t-92 -25.5q-43 0 -78.5 14.5t-60.5 40.5t-39 61.5t-14 76.5q0 39 14 74t39.5 61t61 41t77.5 15q52 0 92 -25.5t66 -61.5l-76 -59q-11 20 -31 35t-46 15q-42 0 -66 -27t-24 -69q0 -40 24.5 -67t65.5 -27q29 0 48.5 16t28.5 33zM401 -14
q-73 0 -136 27t-109.5 74.5t-73.5 111t-27 136.5t27 136.5t73.5 110.5t110 74.5t136.5 27.5t136 -27.5t109.5 -74.5t73.5 -110.5t27 -136.5t-27 -136.5t-74 -111t-110 -74.5t-136 -27zM401 69q55 0 102 20.5t81.5 56t54 84t19.5 105.5q0 56 -19.5 104.5t-54 84.5t-81.5 56.5
t-101 20.5q-55 0 -102 -20.5t-81.5 -56.5t-54.5 -84.5t-20 -104.5q0 -57 19.5 -105.5t54 -84t81.5 -56t102 -20.5z" />
    <glyph glyph-name="ordfeminine" unicode="&#xaa;" horiz-adv-x="390" 
d="M233 349q-20 -20 -43.5 -29t-52.5 -9q-45 0 -73.5 26.5t-28.5 72.5q0 31 14.5 51.5t37 33t49.5 17.5t53 5q20 0 40 -3v17q0 19 -17.5 26.5t-33.5 7.5q-24 0 -48 -6.5t-44 -20.5l-43 65q32 25 72 35t80 10q31 0 57.5 -7.5t46 -23t31 -39.5t11.5 -57v-199h-105zM229 455
q-14 3 -28 3q-8 0 -18 -2t-18 -6.5t-13.5 -11.5t-5.5 -17q0 -17 11 -25t27 -8q21 0 33 12.5t12 33.5v21z" />
    <glyph glyph-name="guillemotleft" unicode="&#xab;" horiz-adv-x="619" 
d="M48 242l105 199h168l-104 -199l104 -201h-168zM294 242l105 199h168l-104 -199l104 -201h-168z" />
    <glyph glyph-name="logicalnot" unicode="&#xac;" horiz-adv-x="561" 
d="M81 382h399v-266h-136v134h-263v132z" />
    <glyph glyph-name="uni00AD" unicode="&#xad;" horiz-adv-x="450" 
d="M60 361h330v-162h-330v162z" />
    <glyph glyph-name="registered" unicode="&#xae;" horiz-adv-x="803" 
d="M262 513h148q36 0 61.5 -10.5t41 -26.5t23 -35t7.5 -36q0 -28 -16 -55t-42 -43l83 -143h-107l-72 126h-31v-126h-96v349zM407 368q23 0 31 8.5t8 22.5q0 15 -9 24t-30 9h-49v-64h49zM401 -14q-73 0 -136 27t-109.5 74.5t-73.5 111t-27 136.5t27 136.5t73.5 110.5
t110 74.5t136.5 27.5t136 -27.5t109.5 -74.5t73.5 -110.5t27 -136.5t-27 -136.5t-74 -111t-110 -74.5t-136 -27zM401 69q55 0 102 20.5t81.5 56t54 84t19.5 105.5q0 56 -19.5 104.5t-54 84.5t-81.5 56.5t-101 20.5q-55 0 -102 -20.5t-81.5 -56.5t-54.5 -84.5t-20 -104.5
q0 -57 19.5 -105.5t54 -84t81.5 -56t102 -20.5z" />
    <glyph glyph-name="macron" unicode="&#xaf;" horiz-adv-x="440" 
d="M77 660h286v-113h-286v113z" />
    <glyph glyph-name="degree" unicode="&#xb0;" horiz-adv-x="381" 
d="M40 519q0 32 12 59.5t32 47t47.5 30.5t58.5 11t59 -11t48 -30.5t32 -47t12 -59.5t-12 -59t-32 -46.5t-48 -30.5t-59 -11t-58.5 11t-47.5 30.5t-32 46.5t-12 59zM190 468q23 0 36 15t13 36q0 22 -13 37t-36 15q-22 0 -35 -15t-13 -37q0 -21 13 -36t35 -15z" />
    <glyph glyph-name="plusminus" unicode="&#xb1;" horiz-adv-x="561" 
d="M81 132h131v118h-131v132h131v136h136v-136h132v-132h-132v-118h132v-132h-399v132z" />
    <glyph glyph-name="acute" unicode="&#xb4;" horiz-adv-x="440" 
d="M165 682h159l-90 -142h-117z" />
    <glyph glyph-name="mu" unicode="&#xb5;" horiz-adv-x="573" 
d="M49 470h169v-255q0 -38 15.5 -58.5t50.5 -20.5q20 0 33.5 7t22 19t12 26.5t3.5 29.5v252h169v-470h-163l-5 43q-13 -25 -37.5 -37t-52.5 -12q-26 0 -48 9v-203h-169v670z" />
    <glyph glyph-name="paragraph" unicode="&#xb6;" horiz-adv-x="579" 
d="M366 667h153v-789h-153v789zM267 293q-47 0 -91 8.5t-77.5 30t-53.5 57.5t-20 91q0 54 20 90t54 57.5t77.5 30.5t90.5 9h42v-374h-42zM156 246q26 -8 55.5 -10t55.5 -2h42v-356h-153v368z" />
    <glyph glyph-name="periodcentered" unicode="&#xb7;" horiz-adv-x="292" 
d="M55 407h182v-181h-182v181z" />
    <glyph glyph-name="cedilla" unicode="&#xb8;" horiz-adv-x="440" 
d="M113 -139q17 -6 35 -10t36 -4q7 0 16.5 0.5t18 3.5t14.5 8.5t6 14.5t-5.5 14t-13.5 7t-17 2.5t-15 0.5q-36 0 -68 -13l14 69q43 12 88 12q22 0 43.5 -5t38.5 -16t27.5 -28.5t10.5 -42.5q0 -28 -12.5 -48t-32 -33t-44.5 -19t-49 -6q-27 0 -53.5 4t-52.5 14z" />
    <glyph glyph-name="ordmasculine" unicode="&#xba;" horiz-adv-x="423" 
d="M42 480q0 35 12 66t34.5 53.5t54 35.5t69.5 13t69 -13t53.5 -35.5t34.5 -53.5t12 -66t-12 -66t-34.5 -53.5t-53.5 -35.5t-69 -13t-69.5 13t-54 35.5t-34.5 53.5t-12 66zM212 414q27 0 42.5 18.5t15.5 47.5t-15.5 47.5t-42.5 18.5t-43 -18.5t-16 -47.5t16 -47.5t43 -18.5z
" />
    <glyph glyph-name="guillemotright" unicode="&#xbb;" horiz-adv-x="619" 
d="M398 242l-104 199h168l105 -199l-105 -201h-168zM153 242l-104 199h168l105 -199l-105 -201h-168z" />
    <glyph glyph-name="onequarter" unicode="&#xbc;" horiz-adv-x="875" 
d="M130 524q-17 -8 -33.5 -17t-33.5 -16l-43 86l122 60h107v-343h-119v230zM551 630h143l-394 -630h-147zM512 144l149 199h126v-199h36v-86h-36v-58h-110v58h-165v86zM677 144v91l-70 -91h70z" />
    <glyph glyph-name="onehalf" unicode="&#xbd;" horiz-adv-x="925" 
d="M142 524q-17 -8 -33.5 -17t-33.5 -16l-43 86l122 60h107v-343h-119v230zM558 630h143l-394 -630h-147zM577 63q0 20 9.5 37t24 31.5t32 27t34.5 23.5q23 14 41 28t18 28q0 22 -31 22q-34 0 -80 -29l-55 74q36 24 69 36t73 12q29 0 55 -6.5t45.5 -19.5t31 -33t11.5 -47
q0 -25 -8 -43.5t-21.5 -33t-30.5 -26t-35 -22.5l-21.5 -13t-20.5 -14h139v-94h-280v62z" />
    <glyph glyph-name="threequarters" unicode="&#xbe;" horiz-adv-x="925" 
d="M112 410q21 -14 45 -22.5t47 -8.5q17 0 30 7t13 22q0 19 -14.5 24.5t-29.5 5.5q-11 0 -24 -1.5t-27 -5.5l-25 51l98 63h-129v92h254v-76l-72 -57q43 -7 64 -33.5t21 -67.5q0 -31 -13.5 -53.5t-36 -37t-51 -21.5t-57.5 -7q-38 0 -75.5 11.5t-72.5 32.5zM605 630h143
l-394 -630h-147zM556 145l149 199h126v-199h36v-86h-36v-58h-110v58h-165v86zM721 145v91l-70 -91h70z" />
    <glyph glyph-name="questiondown" unicode="&#xbf;" horiz-adv-x="541" 
d="M374 240q0 -35 -6.5 -60.5t-17.5 -45t-24.5 -33t-27.5 -24.5l-25.5 -19t-22 -18.5t-15.5 -20t-6 -24.5q0 -16 7.5 -26.5t18.5 -16.5t25 -8.5t26 -2.5q35 0 68 17t59 43l98 -116q-45 -46 -105.5 -73.5t-138.5 -27.5q-45 0 -86 11t-73 35t-51 61t-19 90q0 29 6.5 51.5
t17.5 39.5t24.5 30.5t27.5 24.5q15 13 30.5 24.5t27.5 24t19.5 28.5t7.5 37v4h155v-5zM383 300h-171v170h171v-170z" />
    <glyph glyph-name="Agrave" unicode="&#xc0;" horiz-adv-x="704" 
d="M255 667h203l236 -667h-191l-43 138h-223l-44 -138h-183zM424 267l-74 245l-77 -245h151zM175 873h179l73 -156h-128z" />
    <glyph glyph-name="Aacute" unicode="&#xc1;" horiz-adv-x="704" 
d="M255 667h203l236 -667h-191l-43 138h-223l-44 -138h-183zM424 267l-74 245l-77 -245h151zM355 873h179l-124 -156h-128z" />
    <glyph glyph-name="Acircumflex" unicode="&#xc2;" horiz-adv-x="704" 
d="M255 667h203l236 -667h-191l-43 138h-223l-44 -138h-183zM424 267l-74 245l-77 -245h151zM288 873h128l116 -156h-135l-45 68l-46 -68h-134z" />
    <glyph glyph-name="Atilde" unicode="&#xc3;" horiz-adv-x="704" 
d="M255 667h203l236 -667h-191l-43 138h-223l-44 -138h-183zM424 267l-74 245l-77 -245h151zM141 809q25 27 58.5 45t71.5 18q19 0 36 -6.5t34 -15t34 -15t36 -6.5q26 0 49.5 10.5t44.5 27.5l58 -90q-25 -27 -58.5 -45t-71.5 -18q-19 0 -36 6.5t-33.5 15t-33.5 15t-36 6.5
q-27 0 -50.5 -10.5t-43.5 -27.5z" />
    <glyph glyph-name="Adieresis" unicode="&#xc4;" horiz-adv-x="704" 
d="M255 667h203l236 -667h-191l-43 138h-223l-44 -138h-183zM424 267l-74 245l-77 -245h151zM394 859h141v-128h-141v128zM169 859h141v-128h-141v128z" />
    <glyph glyph-name="Aring" unicode="&#xc5;" horiz-adv-x="704" 
d="M213 767q0 29 11.5 54t31 43.5t45 29t54.5 10.5t54.5 -10.5t45 -29t31 -44t11.5 -54.5q0 -30 -12 -55.5t-32 -43.5h5l236 -667h-191l-43 138h-223l-44 -138h-183l245 667h1q-20 18 -31.5 43.5t-11.5 56.5zM424 267l-74 245l-77 -245h151zM355 723q18 0 30 13t12 30
q0 18 -12 31t-30 13t-30 -12.5t-12 -30.5t12 -31t30 -13z" />
    <glyph glyph-name="AE" unicode="&#xc6;" horiz-adv-x="965" 
d="M367 667h545v-155h-275v-100h222v-146h-222v-110h296v-156h-462v151h-203l-75 -151h-193zM471 290v227h-19l-115 -227h134z" />
    <glyph glyph-name="Ccedilla" unicode="&#xc7;" horiz-adv-x="683" 
d="M678 124q-113 -141 -297 -141q-77 0 -141 26t-109.5 72t-71 110t-25.5 141q0 76 25 140.5t71 112t110 74t141 26.5q87 0 161 -29t125 -101l-117 -118q-28 38 -67 61t-89 23q-42 0 -75 -14t-55.5 -39t-34.5 -58.5t-12 -72.5q0 -40 12.5 -74t35.5 -59t55.5 -39t72.5 -14
q58 0 94.5 20.5t71.5 64.5zM272 -141q36 -12 72 -12q7 0 16.5 0.5t17.5 2.5t14 7t6 14q0 8 -5.5 12t-13 6t-16.5 2.5t-15 0.5q-17 0 -34.5 -2t-34.5 -8l14 69q22 6 44 8t45 2q22 0 43.5 -4.5t38.5 -15t28 -28t11 -42.5q0 -28 -12.5 -47.5t-32.5 -32t-44.5 -18t-49.5 -5.5
q-27 0 -54 3t-53 13z" />
    <glyph glyph-name="Egrave" unicode="&#xc8;" horiz-adv-x="593" 
d="M60 667h480v-153h-303v-103h249v-144h-249v-114h324v-153h-501v667zM148 873h179l73 -156h-128z" />
    <glyph glyph-name="Eacute" unicode="&#xc9;" horiz-adv-x="593" 
d="M60 667h480v-153h-303v-103h249v-144h-249v-114h324v-153h-501v667zM311 873h179l-124 -156h-128z" />
    <glyph glyph-name="Ecircumflex" unicode="&#xca;" horiz-adv-x="593" 
d="M60 667h480v-153h-303v-103h249v-144h-249v-114h324v-153h-501v667zM243 873h128l116 -156h-135l-45 68l-46 -68h-134z" />
    <glyph glyph-name="Edieresis" unicode="&#xcb;" horiz-adv-x="593" 
d="M60 667h480v-153h-303v-103h249v-144h-249v-114h324v-153h-501v667zM346 859h141v-128h-141v128zM121 859h141v-128h-141v128z" />
    <glyph glyph-name="Igrave" unicode="&#xcc;" horiz-adv-x="297" 
d="M60 667h177v-667h-177v667zM-24 873h179l73 -156h-128z" />
    <glyph glyph-name="Iacute" unicode="&#xcd;" horiz-adv-x="297" 
d="M60 667h177v-667h-177v667zM147 873h179l-124 -156h-128z" />
    <glyph glyph-name="Icircumflex" unicode="&#xce;" horiz-adv-x="297" 
d="M60 667h177v-667h-177v667zM86 873h128l116 -156h-135l-45 68l-46 -68h-134z" />
    <glyph glyph-name="Idieresis" unicode="&#xcf;" horiz-adv-x="297" 
d="M60 667h177v-667h-177v667zM192 859h141v-128h-141v128zM-33 859h141v-128h-141v128z" />
    <glyph glyph-name="Eth" unicode="&#xd0;" horiz-adv-x="708" 
d="M60 289h-60v90h60v288h256q77 0 142.5 -20t113.5 -61t75 -105t27 -151q0 -83 -27.5 -144.5t-75.5 -103t-114 -62t-142 -20.5h-255v289zM309 156q87 0 134.5 49.5t47.5 128.5q0 40 -11 72.5t-33.5 56t-56.5 36.5t-81 13h-72v-133h108v-90h-108v-133h72z" />
    <glyph glyph-name="Ntilde" unicode="&#xd1;" horiz-adv-x="712" 
d="M60 667h161l256 -372v372h175v-667h-151l-266 383v-383h-175v667zM151 809q25 27 58.5 45t71.5 18q19 0 36 -6.5t34 -15t34 -15t36 -6.5q26 0 49.5 10.5t44.5 27.5l58 -90q-25 -27 -58.5 -45t-71.5 -18q-19 0 -36 6.5t-33.5 15t-33.5 15t-36 6.5q-27 0 -50.5 -10.5
t-43.5 -27.5z" />
    <glyph glyph-name="Ograve" unicode="&#xd2;" horiz-adv-x="762" 
d="M381 -16q-75 0 -138.5 26.5t-110 73t-72.5 111t-26 140.5t26 140.5t72.5 111t110 72.5t138.5 26t139 -26t110 -72.5t72 -111t26 -140.5t-26 -140.5t-72 -111t-110 -73t-139 -26.5zM381 150q39 0 69.5 14.5t51.5 39.5t32 59t11 72t-11 72t-32 59t-51.5 39.5t-69.5 14.5
t-69.5 -14.5t-51.5 -39.5t-32 -59t-11 -72t11 -72t32 -59t51.5 -39.5t69.5 -14.5zM205 873h179l73 -156h-128z" />
    <glyph glyph-name="Oacute" unicode="&#xd3;" horiz-adv-x="762" 
d="M381 -16q-75 0 -138.5 26.5t-110 73t-72.5 111t-26 140.5t26 140.5t72.5 111t110 72.5t138.5 26t139 -26t110 -72.5t72 -111t26 -140.5t-26 -140.5t-72 -111t-110 -73t-139 -26.5zM381 150q39 0 69.5 14.5t51.5 39.5t32 59t11 72t-11 72t-32 59t-51.5 39.5t-69.5 14.5
t-69.5 -14.5t-51.5 -39.5t-32 -59t-11 -72t11 -72t32 -59t51.5 -39.5t69.5 -14.5zM367 873h179l-124 -156h-128z" />
    <glyph glyph-name="Ocircumflex" unicode="&#xd4;" horiz-adv-x="762" 
d="M381 -16q-75 0 -138.5 26.5t-110 73t-72.5 111t-26 140.5t26 140.5t72.5 111t110 72.5t138.5 26t139 -26t110 -72.5t72 -111t26 -140.5t-26 -140.5t-72 -111t-110 -73t-139 -26.5zM381 150q39 0 69.5 14.5t51.5 39.5t32 59t11 72t-11 72t-32 59t-51.5 39.5t-69.5 14.5
t-69.5 -14.5t-51.5 -39.5t-32 -59t-11 -72t11 -72t32 -59t51.5 -39.5t69.5 -14.5zM317 873h128l116 -156h-135l-45 68l-46 -68h-134z" />
    <glyph glyph-name="Otilde" unicode="&#xd5;" horiz-adv-x="762" 
d="M381 -16q-75 0 -138.5 26.5t-110 73t-72.5 111t-26 140.5t26 140.5t72.5 111t110 72.5t138.5 26t139 -26t110 -72.5t72 -111t26 -140.5t-26 -140.5t-72 -111t-110 -73t-139 -26.5zM381 150q39 0 69.5 14.5t51.5 39.5t32 59t11 72t-11 72t-32 59t-51.5 39.5t-69.5 14.5
t-69.5 -14.5t-51.5 -39.5t-32 -59t-11 -72t11 -72t32 -59t51.5 -39.5t69.5 -14.5zM170 809q25 27 58.5 45t71.5 18q19 0 36 -6.5t34 -15t34 -15t36 -6.5q26 0 49.5 10.5t44.5 27.5l58 -90q-25 -27 -58.5 -45t-71.5 -18q-19 0 -36 6.5t-33.5 15t-33.5 15t-36 6.5
q-27 0 -50.5 -10.5t-43.5 -27.5z" />
    <glyph glyph-name="Odieresis" unicode="&#xd6;" horiz-adv-x="762" 
d="M381 -16q-75 0 -138.5 26.5t-110 73t-72.5 111t-26 140.5t26 140.5t72.5 111t110 72.5t138.5 26t139 -26t110 -72.5t72 -111t26 -140.5t-26 -140.5t-72 -111t-110 -73t-139 -26.5zM381 150q39 0 69.5 14.5t51.5 39.5t32 59t11 72t-11 72t-32 59t-51.5 39.5t-69.5 14.5
t-69.5 -14.5t-51.5 -39.5t-32 -59t-11 -72t11 -72t32 -59t51.5 -39.5t69.5 -14.5zM423 859h141v-128h-141v128zM198 859h141v-128h-141v128z" />
    <glyph glyph-name="multiply" unicode="&#xd7;" horiz-adv-x="561" 
d="M187 315l-120 120l93 94l120 -121l121 121l93 -94l-120 -120l120 -120l-93 -94l-121 120l-120 -120l-93 94z" />
    <glyph glyph-name="Oslash" unicode="&#xd8;" horiz-adv-x="762" 
d="M381 -20q-42 0 -80.5 8.5t-72.5 23.5l-51 -74l-79 51l51 74q-54 48 -84.5 116t-30.5 152q0 76 26 140.5t72.5 111t110 72.5t138.5 26q46 0 88 -10t78 -29l57 83l79 -52l-59 -85q49 -48 76.5 -113.5t27.5 -143.5q0 -76 -26 -140.5t-72 -111t-110 -73t-139 -26.5zM217 331
q0 -71 34 -120l199 290q-30 15 -69 15t-69.5 -14.5t-51.5 -39.5t-32 -59t-11 -72zM381 146q39 0 69.5 14.5t51.5 39.5t32 59t11 72q0 58 -25 105l-194 -281q24 -9 55 -9z" />
    <glyph glyph-name="Ugrave" unicode="&#xd9;" horiz-adv-x="687" 
d="M56 667h177v-391q0 -55 25.5 -90t84.5 -35t84 35.5t25 89.5v391h179v-407q0 -64 -21 -115.5t-59.5 -87.5t-91 -55t-115.5 -19t-116 19t-91.5 54.5t-59.5 87t-21 116.5v407zM182 873h179l73 -156h-128z" />
    <glyph glyph-name="Uacute" unicode="&#xda;" horiz-adv-x="687" 
d="M56 667h177v-391q0 -55 25.5 -90t84.5 -35t84 35.5t25 89.5v391h179v-407q0 -64 -21 -115.5t-59.5 -87.5t-91 -55t-115.5 -19t-116 19t-91.5 54.5t-59.5 87t-21 116.5v407zM333 873h179l-124 -156h-128z" />
    <glyph glyph-name="Ucircumflex" unicode="&#xdb;" horiz-adv-x="687" 
d="M56 667h177v-391q0 -55 25.5 -90t84.5 -35t84 35.5t25 89.5v391h179v-407q0 -64 -21 -115.5t-59.5 -87.5t-91 -55t-115.5 -19t-116 19t-91.5 54.5t-59.5 87t-21 116.5v407zM279 873h128l116 -156h-135l-45 68l-46 -68h-134z" />
    <glyph glyph-name="Udieresis" unicode="&#xdc;" horiz-adv-x="687" 
d="M56 667h177v-391q0 -55 25.5 -90t84.5 -35t84 35.5t25 89.5v391h179v-407q0 -64 -21 -115.5t-59.5 -87.5t-91 -55t-115.5 -19t-116 19t-91.5 54.5t-59.5 87t-21 116.5v407zM385 859h141v-128h-141v128zM160 859h141v-128h-141v128z" />
    <glyph glyph-name="Yacute" unicode="&#xdd;" horiz-adv-x="672" 
d="M247 266l-237 401h203l130 -238l122 238h197l-238 -400v-267h-177v266zM351 873h179l-124 -156h-128z" />
    <glyph glyph-name="Thorn" unicode="&#xde;" horiz-adv-x="598" 
d="M61 667h173v-103h99q54 0 97.5 -14.5t74.5 -42t48 -69t17 -95.5q0 -52 -17.5 -93.5t-48 -71t-73 -45t-93.5 -15.5h-104v-118h-173v667zM318 258q36 0 57 22.5t21 59.5q0 38 -20 61t-59 23h-83v-166h84z" />
    <glyph glyph-name="germandbls" unicode="&#xdf;" horiz-adv-x="633" 
d="M45 461q0 58 19 100.5t53.5 70t81.5 40.5t103 13q42 0 82 -9.5t71 -29.5t50 -52.5t19 -78.5q0 -36 -12 -62.5t-26.5 -46.5t-26.5 -34.5t-12 -25.5q0 -17 15 -25.5t37 -17.5q21 -9 41 -20t36.5 -28.5t26.5 -43.5t10 -65q0 -40 -17 -70.5t-45 -50.5t-62.5 -30.5
t-70.5 -10.5q-44 0 -90 9t-82 35l75 112q17 -13 37 -21t41 -8q19 0 36 8.5t17 29.5q0 12 -7 20.5t-18.5 15.5t-26.5 12.5t-31 12.5t-31.5 16t-27.5 22.5t-19.5 32.5t-7.5 45q0 30 13 54t28.5 44.5l28.5 39t13 37.5q0 29 -20.5 42t-46.5 13q-45 0 -65 -30t-20 -71v-455h-169
v461z" />
    <glyph glyph-name="agrave" unicode="&#xe0;" horiz-adv-x="527" 
d="M315 44q-32 -34 -64.5 -47t-80.5 -13q-23 0 -49 6.5t-48 22.5t-36 43.5t-14 69.5t18 74.5t49 54t72 32.5t86 11q23 0 36.5 -1t30.5 -3v9q0 18 -7.5 29.5t-19 18t-25 9t-26.5 2.5q-45 0 -79 -11.5t-55 -26.5l-64 97q30 24 84 44t138 20q49 0 89 -12.5t69 -38t45 -63
t16 -87.5v-284h-159zM315 203q-17 4 -46 4q-42 0 -62 -16.5t-20 -39.5q0 -52 56 -52q13 0 26 3.5t23 12t16.5 22.5t6.5 35v31zM132 682h159l48 -142h-117z" />
    <glyph glyph-name="aacute" unicode="&#xe1;" horiz-adv-x="527" 
d="M315 44q-32 -34 -64.5 -47t-80.5 -13q-23 0 -49 6.5t-48 22.5t-36 43.5t-14 69.5t18 74.5t49 54t72 32.5t86 11q23 0 36.5 -1t30.5 -3v9q0 18 -7.5 29.5t-19 18t-25 9t-26.5 2.5q-45 0 -79 -11.5t-55 -26.5l-64 97q30 24 84 44t138 20q49 0 89 -12.5t69 -38t45 -63
t16 -87.5v-284h-159zM315 203q-17 4 -46 4q-42 0 -62 -16.5t-20 -39.5q0 -52 56 -52q13 0 26 3.5t23 12t16.5 22.5t6.5 35v31zM234 682h159l-90 -142h-117z" />
    <glyph glyph-name="acircumflex" unicode="&#xe2;" horiz-adv-x="527" 
d="M315 44q-32 -34 -64.5 -47t-80.5 -13q-23 0 -49 6.5t-48 22.5t-36 43.5t-14 69.5t18 74.5t49 54t72 32.5t86 11q23 0 36.5 -1t30.5 -3v9q0 18 -7.5 29.5t-19 18t-25 9t-26.5 2.5q-45 0 -79 -11.5t-55 -26.5l-64 97q30 24 84 44t138 20q49 0 89 -12.5t69 -38t45 -63
t16 -87.5v-284h-159zM315 203q-17 4 -46 4q-42 0 -62 -16.5t-20 -39.5q0 -52 56 -52q13 0 26 3.5t23 12t16.5 22.5t6.5 35v31zM199 682h132l107 -142h-133l-41 57l-39 -57h-134z" />
    <glyph glyph-name="atilde" unicode="&#xe3;" horiz-adv-x="527" 
d="M315 44q-32 -34 -64.5 -47t-80.5 -13q-23 0 -49 6.5t-48 22.5t-36 43.5t-14 69.5t18 74.5t49 54t72 32.5t86 11q23 0 36.5 -1t30.5 -3v9q0 18 -7.5 29.5t-19 18t-25 9t-26.5 2.5q-45 0 -79 -11.5t-55 -26.5l-64 97q30 24 84 44t138 20q49 0 89 -12.5t69 -38t45 -63
t16 -87.5v-284h-159zM315 203q-17 4 -46 4q-42 0 -62 -16.5t-20 -39.5q0 -52 56 -52q13 0 26 3.5t23 12t16.5 22.5t6.5 35v31zM55 625q25 27 57.5 44.5t69.5 17.5q19 0 35.5 -6.5t33 -14.5t33.5 -14.5t35 -6.5q26 0 49 10.5t43 26.5l57 -88q-24 -26 -57 -43.5t-70 -17.5
q-18 0 -35 6.5t-33.5 14t-33 14t-35.5 6.5q-26 0 -49 -10.5t-43 -26.5z" />
    <glyph glyph-name="adieresis" unicode="&#xe4;" horiz-adv-x="527" 
d="M315 44q-32 -34 -64.5 -47t-80.5 -13q-23 0 -49 6.5t-48 22.5t-36 43.5t-14 69.5t18 74.5t49 54t72 32.5t86 11q23 0 36.5 -1t30.5 -3v9q0 18 -7.5 29.5t-19 18t-25 9t-26.5 2.5q-45 0 -79 -11.5t-55 -26.5l-64 97q30 24 84 44t138 20q49 0 89 -12.5t69 -38t45 -63
t16 -87.5v-284h-159zM315 203q-17 4 -46 4q-42 0 -62 -16.5t-20 -39.5q0 -52 56 -52q13 0 26 3.5t23 12t16.5 22.5t6.5 35v31zM296 671h131v-120h-131v120zM95 671h131v-120h-131v120z" />
    <glyph glyph-name="aring" unicode="&#xe5;" horiz-adv-x="527" 
d="M315 44q-32 -34 -64.5 -47t-80.5 -13q-23 0 -49 6.5t-48 22.5t-36 43.5t-14 69.5t18 74.5t49 54t72 32.5t86 11q23 0 36.5 -1t30.5 -3v9q0 18 -7.5 29.5t-19 18t-25 9t-26.5 2.5q-45 0 -79 -11.5t-55 -26.5l-64 97q30 24 84 44t138 20q49 0 89 -12.5t69 -38t45 -63
t16 -87.5v-284h-159zM315 203q-17 4 -46 4q-42 0 -62 -16.5t-20 -39.5q0 -52 56 -52q13 0 26 3.5t23 12t16.5 22.5t6.5 35v31zM138 646q0 26 10 48t26.5 37.5t39 24.5t47.5 9t47.5 -9t39 -24.5t26.5 -37.5t10 -48t-10 -47.5t-26.5 -37.5t-39 -25t-47.5 -9t-47.5 9t-39 25
t-26.5 37.5t-10 47.5zM261 608q16 0 27 11t11 27t-11 27.5t-27 11.5t-27 -11t-11 -28q0 -16 11 -27t27 -11z" />
    <glyph glyph-name="ae" unicode="&#xe6;" horiz-adv-x="813" 
d="M39 421q32 25 84.5 44.5t131.5 19.5q51 0 87.5 -14t61.5 -39q28 26 65.5 40t94.5 14q48 0 89 -16.5t70.5 -50t46.5 -84t17 -118.5v-32h-318q1 -12 6.5 -25t19 -24.5t36 -18.5t55.5 -7q43 0 78.5 11t55.5 23l53 -110q-12 -7 -30.5 -15.5t-43.5 -16t-56 -13t-66 -5.5
q-66 0 -112 17t-76 50q-42 -37 -86.5 -52t-98.5 -15q-34 0 -66.5 7t-58 23.5t-41 45t-15.5 70.5t18 73.5t49 52.5t72 31.5t86 10.5q23 0 36.5 -1t30.5 -3v9q0 18 -7.5 29.5t-19 18t-25 9t-26.5 2.5q-45 0 -79 -11.5t-55 -26.5zM315 203q-17 4 -46 4q-42 0 -62 -16.5
t-20 -39.5q0 -52 56 -52q13 0 26 3.5t23 12t16.5 22.5t6.5 35v31zM637 285q0 27 -20 51t-63 24q-21 0 -37 -7.5t-26.5 -18.5t-15.5 -24t-5 -25h167z" />
    <glyph glyph-name="ccedilla" unicode="&#xe7;" horiz-adv-x="483" 
d="M478 62q-13 -15 -32 -29t-43.5 -25t-54.5 -17.5t-65 -6.5q-53 0 -99.5 18t-81 51t-54 79.5t-19.5 103.5q0 53 19.5 98.5t54 79.5t81 53t99.5 19q70 0 117.5 -22t77.5 -56l-99 -113q-11 13 -31 28t-60 15q-35 0 -62 -27.5t-27 -74.5q0 -23 7.5 -42.5t19.5 -33t28 -21
t34 -7.5q19 0 34 4.5t26 11.5t18.5 14.5l12.5 12.5zM183 -139q17 -6 35 -10t36 -4q7 0 16.5 0.5t18 3.5t14.5 8.5t6 14.5t-5.5 14t-13.5 7t-17 2.5t-15 0.5q-36 0 -68 -13l14 69q43 12 88 12q22 0 43.5 -5t38.5 -16t27.5 -28.5t10.5 -42.5q0 -28 -12.5 -48t-32 -33
t-44.5 -19t-49 -6q-27 0 -53.5 4t-52.5 14z" />
    <glyph glyph-name="egrave" unicode="&#xe8;" horiz-adv-x="533" 
d="M493 34q-12 -7 -30.5 -15.5t-43.5 -16t-56 -13t-66 -5.5q-130 0 -199 65.5t-69 183.5q0 47 15 92.5t45.5 81t77 57.5t108.5 22q48 0 90.5 -16.5t74 -50t49.5 -84t18 -118.5v-32h-318q1 -12 6.5 -25t19 -24.5t36 -18.5t55.5 -7q43 0 78.5 11t55.5 23zM357 285q0 12 -5 25
t-15.5 24t-26 18.5t-37.5 7.5q-21 0 -37 -7.5t-26 -18.5t-15 -24t-5 -25h167zM139 682h159l48 -142h-117z" />
    <glyph glyph-name="eacute" unicode="&#xe9;" horiz-adv-x="533" 
d="M493 34q-12 -7 -30.5 -15.5t-43.5 -16t-56 -13t-66 -5.5q-130 0 -199 65.5t-69 183.5q0 47 15 92.5t45.5 81t77 57.5t108.5 22q48 0 90.5 -16.5t74 -50t49.5 -84t18 -118.5v-32h-318q1 -12 6.5 -25t19 -24.5t36 -18.5t55.5 -7q43 0 78.5 11t55.5 23zM357 285q0 12 -5 25
t-15.5 24t-26 18.5t-37.5 7.5q-21 0 -37 -7.5t-26 -18.5t-15 -24t-5 -25h167zM257 682h159l-90 -142h-117z" />
    <glyph glyph-name="ecircumflex" unicode="&#xea;" horiz-adv-x="533" 
d="M493 34q-12 -7 -30.5 -15.5t-43.5 -16t-56 -13t-66 -5.5q-130 0 -199 65.5t-69 183.5q0 47 15 92.5t45.5 81t77 57.5t108.5 22q48 0 90.5 -16.5t74 -50t49.5 -84t18 -118.5v-32h-318q1 -12 6.5 -25t19 -24.5t36 -18.5t55.5 -7q43 0 78.5 11t55.5 23zM357 285q0 12 -5 25
t-15.5 24t-26 18.5t-37.5 7.5q-21 0 -37 -7.5t-26 -18.5t-15 -24t-5 -25h167zM203 682h132l107 -142h-133l-41 57l-39 -57h-134z" />
    <glyph glyph-name="edieresis" unicode="&#xeb;" horiz-adv-x="533" 
d="M493 34q-12 -7 -30.5 -15.5t-43.5 -16t-56 -13t-66 -5.5q-130 0 -199 65.5t-69 183.5q0 47 15 92.5t45.5 81t77 57.5t108.5 22q48 0 90.5 -16.5t74 -50t49.5 -84t18 -118.5v-32h-318q1 -12 6.5 -25t19 -24.5t36 -18.5t55.5 -7q43 0 78.5 11t55.5 23zM357 285q0 12 -5 25
t-15.5 24t-26 18.5t-37.5 7.5q-21 0 -37 -7.5t-26 -18.5t-15 -24t-5 -25h167zM303 671h131v-120h-131v120zM102 671h131v-120h-131v120z" />
    <glyph glyph-name="igrave" unicode="&#xec;" horiz-adv-x="273" 
d="M52 470h169v-470h-169v470zM-5 682h159l48 -142h-117z" />
    <glyph glyph-name="iacute" unicode="&#xed;" horiz-adv-x="273" 
d="M52 470h169v-470h-169v470zM120 682h159l-90 -142h-117z" />
    <glyph glyph-name="icircumflex" unicode="&#xee;" horiz-adv-x="273" 
d="M52 470h169v-470h-169v470zM72 682h132l107 -142h-133l-41 57l-39 -57h-134z" />
    <glyph glyph-name="idieresis" unicode="&#xef;" horiz-adv-x="273" 
d="M52 470h169v-470h-169v470zM172 671h131v-120h-131v120zM-29 671h131v-120h-131v120z" />
    <glyph glyph-name="eth" unicode="&#xf0;" horiz-adv-x="563" 
d="M165 564q-16 4 -33 7t-37 6l22 108q32 -2 61.5 -6.5t56.5 -10.5l38 56l67 -47l-25 -37q64 -29 106 -70.5t67 -89t35.5 -98.5t10.5 -97q0 -71 -18.5 -127t-53 -94.5t-83.5 -59t-110 -20.5q-51 0 -95 17t-76.5 48t-50.5 74.5t-18 95.5q0 51 19 92t51 70.5t74 45.5t89 16
q18 0 41 -3.5t41 -8.5q-11 23 -33.5 51t-67.5 52l-46 -69l-67 47zM368 298q-35 21 -78 21q-40 0 -70.5 -23t-30.5 -73q0 -18 6.5 -34.5t17.5 -29t27 -20t35 -7.5q25 0 43.5 9t30 24.5t17 36t5.5 44.5q0 28 -3 52z" />
    <glyph glyph-name="ntilde" unicode="&#xf1;" horiz-adv-x="573" 
d="M49 470h163l6 -49q14 17 32 29t37 19t36.5 10t30.5 3q37 0 68.5 -10.5t54.5 -33t36 -58t13 -84.5v-296h-169v256q0 35 -14.5 56t-46.5 21q-23 0 -38 -7t-24 -19t-12.5 -26.5t-3.5 -29.5v-251h-169v470zM70 625q25 27 57.5 44.5t69.5 17.5q19 0 35.5 -6.5t33 -14.5
t33.5 -14.5t35 -6.5q26 0 49 10.5t43 26.5l57 -88q-24 -26 -57 -43.5t-70 -17.5q-18 0 -35 6.5t-33.5 14t-33 14t-35.5 6.5q-26 0 -49 -10.5t-43 -26.5z" />
    <glyph glyph-name="ograve" unicode="&#xf2;" horiz-adv-x="560" 
d="M280 132q42 0 67 29t25 74t-25 74t-67 29t-67 -29t-25 -74t25 -74t67 -29zM29 235q0 52 18.5 98t51.5 80t79 53.5t102 19.5t102 -19.5t79 -53.5t51.5 -80t18.5 -98q0 -53 -18.5 -98.5t-51.5 -79.5t-79 -53.5t-102 -19.5t-102 19.5t-79 53.5t-51.5 79.5t-18.5 98.5z
M144 682h159l48 -142h-117z" />
    <glyph glyph-name="oacute" unicode="&#xf3;" horiz-adv-x="560" 
d="M280 132q42 0 67 29t25 74t-25 74t-67 29t-67 -29t-25 -74t25 -74t67 -29zM29 235q0 52 18.5 98t51.5 80t79 53.5t102 19.5t102 -19.5t79 -53.5t51.5 -80t18.5 -98q0 -53 -18.5 -98.5t-51.5 -79.5t-79 -53.5t-102 -19.5t-102 19.5t-79 53.5t-51.5 79.5t-18.5 98.5z
M252 682h159l-90 -142h-117z" />
    <glyph glyph-name="ocircumflex" unicode="&#xf4;" horiz-adv-x="560" 
d="M280 132q42 0 67 29t25 74t-25 74t-67 29t-67 -29t-25 -74t25 -74t67 -29zM29 235q0 52 18.5 98t51.5 80t79 53.5t102 19.5t102 -19.5t79 -53.5t51.5 -80t18.5 -98q0 -53 -18.5 -98.5t-51.5 -79.5t-79 -53.5t-102 -19.5t-102 19.5t-79 53.5t-51.5 79.5t-18.5 98.5z
M215 682h132l107 -142h-133l-41 57l-39 -57h-134z" />
    <glyph glyph-name="otilde" unicode="&#xf5;" horiz-adv-x="560" 
d="M280 132q42 0 67 29t25 74t-25 74t-67 29t-67 -29t-25 -74t25 -74t67 -29zM29 235q0 52 18.5 98t51.5 80t79 53.5t102 19.5t102 -19.5t79 -53.5t51.5 -80t18.5 -98q0 -53 -18.5 -98.5t-51.5 -79.5t-79 -53.5t-102 -19.5t-102 19.5t-79 53.5t-51.5 79.5t-18.5 98.5z
M74 625q25 27 57.5 44.5t69.5 17.5q19 0 35.5 -6.5t33 -14.5t33.5 -14.5t35 -6.5q26 0 49 10.5t43 26.5l57 -88q-24 -26 -57 -43.5t-70 -17.5q-18 0 -35 6.5t-33.5 14t-33 14t-35.5 6.5q-26 0 -49 -10.5t-43 -26.5z" />
    <glyph glyph-name="odieresis" unicode="&#xf6;" horiz-adv-x="560" 
d="M280 132q42 0 67 29t25 74t-25 74t-67 29t-67 -29t-25 -74t25 -74t67 -29zM29 235q0 52 18.5 98t51.5 80t79 53.5t102 19.5t102 -19.5t79 -53.5t51.5 -80t18.5 -98q0 -53 -18.5 -98.5t-51.5 -79.5t-79 -53.5t-102 -19.5t-102 19.5t-79 53.5t-51.5 79.5t-18.5 98.5z
M315 671h131v-120h-131v120zM114 671h131v-120h-131v120z" />
    <glyph glyph-name="divide" unicode="&#xf7;" horiz-adv-x="561" 
d="M206 200h149v-136h-149v136zM206 568h149v-136h-149v136zM81 382h399v-132h-399v132z" />
    <glyph glyph-name="oslash" unicode="&#xf8;" horiz-adv-x="560" 
d="M104 51q-35 35 -55 82t-20 102q0 52 18.5 98t51.5 80t79 53.5t102 19.5q61 0 110 -23l40 57l64 -45l-39 -56q36 -35 56 -82t20 -102q0 -53 -18.5 -98.5t-51.5 -79.5t-79 -53.5t-102 -19.5q-31 0 -59 6t-52 17l-42 -60l-64 45zM254 130q12 -3 26 -3q45 0 71 30.5t26 77.5
q0 31 -12 54zM305 340q-12 3 -25 3q-45 0 -71 -30.5t-26 -77.5q0 -30 11 -54z" />
    <glyph glyph-name="ugrave" unicode="&#xf9;" horiz-adv-x="571" 
d="M47 470h169v-257q0 -35 14.5 -56t51.5 -21q20 0 33.5 7t22 19t12 26.5t3.5 29.5v252h169v-470h-163l-6 48q-14 -17 -32 -29t-37 -19t-36.5 -10t-30.5 -3q-37 0 -68 10.5t-53.5 33t-35.5 57.5t-13 85v297zM159 682h159l48 -142h-117z" />
    <glyph glyph-name="uacute" unicode="&#xfa;" horiz-adv-x="571" 
d="M47 470h169v-257q0 -35 14.5 -56t51.5 -21q20 0 33.5 7t22 19t12 26.5t3.5 29.5v252h169v-470h-163l-6 48q-14 -17 -32 -29t-37 -19t-36.5 -10t-30.5 -3q-37 0 -68 10.5t-53.5 33t-35.5 57.5t-13 85v297zM264 682h159l-90 -142h-117z" />
    <glyph glyph-name="ucircumflex" unicode="&#xfb;" horiz-adv-x="571" 
d="M47 470h169v-257q0 -35 14.5 -56t51.5 -21q20 0 33.5 7t22 19t12 26.5t3.5 29.5v252h169v-470h-163l-6 48q-14 -17 -32 -29t-37 -19t-36.5 -10t-30.5 -3q-37 0 -68 10.5t-53.5 33t-35.5 57.5t-13 85v297zM220 682h132l107 -142h-133l-41 57l-39 -57h-134z" />
    <glyph glyph-name="udieresis" unicode="&#xfc;" horiz-adv-x="571" 
d="M47 470h169v-257q0 -35 14.5 -56t51.5 -21q20 0 33.5 7t22 19t12 26.5t3.5 29.5v252h169v-470h-163l-6 48q-14 -17 -32 -29t-37 -19t-36.5 -10t-30.5 -3q-37 0 -68 10.5t-53.5 33t-35.5 57.5t-13 85v297zM320 671h131v-120h-131v120zM119 671h131v-120h-131v120z" />
    <glyph glyph-name="yacute" unicode="&#xfd;" horiz-adv-x="573" 
d="M81 -54q14 -10 32 -17t32 -7q23 0 38 8.5t26 37.5l14 38l-218 464h192l100 -272l95 272h176l-187 -463l-35.5 -83.5t-42 -69.5t-59.5 -48t-87 -18q-37 0 -72 10.5t-67 32.5zM276 682h159l-90 -142h-117z" />
    <glyph glyph-name="thorn" unicode="&#xfe;" horiz-adv-x="569" 
d="M49 667h168v-246q13 19 30 30.5t33.5 17.5t31 8t24.5 2q49 0 87.5 -19.5t64 -52t39 -74.5t13.5 -88q0 -62 -19 -110t-53 -81t-79.5 -50.5t-97.5 -17.5q-22 0 -42.5 4t-31.5 7v-197h-168v867zM218 134q23 -10 59 -10q41 0 67 26.5t26 87.5q0 16 -4 33.5t-13 31.5t-23 23
t-33 9q-42 0 -60.5 -26t-18.5 -65v-110z" />
    <glyph glyph-name="ydieresis" unicode="&#xff;" horiz-adv-x="573" 
d="M81 -54q14 -10 32 -17t32 -7q23 0 38 8.5t26 37.5l14 38l-218 464h192l100 -272l95 272h176l-187 -463l-35.5 -83.5t-42 -69.5t-59.5 -48t-87 -18q-37 0 -72 10.5t-67 32.5zM321 671h131v-120h-131v120zM120 671h131v-120h-131v120z" />
    <glyph glyph-name="Amacron" unicode="&#x100;" horiz-adv-x="704" 
d="M255 667h203l236 -667h-191l-43 138h-223l-44 -138h-183zM424 267l-74 245l-77 -245h151zM192 853h319v-116h-319v116z" />
    <glyph glyph-name="amacron" unicode="&#x101;" horiz-adv-x="527" 
d="M315 44q-32 -34 -64.5 -47t-80.5 -13q-23 0 -49 6.5t-48 22.5t-36 43.5t-14 69.5t18 74.5t49 54t72 32.5t86 11q23 0 36.5 -1t30.5 -3v9q0 18 -7.5 29.5t-19 18t-25 9t-26.5 2.5q-45 0 -79 -11.5t-55 -26.5l-64 97q30 24 84 44t138 20q49 0 89 -12.5t69 -38t45 -63
t16 -87.5v-284h-159zM315 203q-17 4 -46 4q-42 0 -62 -16.5t-20 -39.5q0 -52 56 -52q13 0 26 3.5t23 12t16.5 22.5t6.5 35v31zM118 660h286v-113h-286v113z" />
    <glyph glyph-name="Abreve" unicode="&#x102;" horiz-adv-x="704" 
d="M255 667h203l236 -667h-191l-43 138h-223l-44 -138h-183zM424 267l-74 245l-77 -245h151zM305 863q1 -20 13 -33t33 -13q22 0 34 13t12 33h119q0 -36 -13.5 -63.5t-36 -46.5t-52 -29t-63.5 -10q-33 0 -63 10t-52.5 29t-35.5 46.5t-13 63.5h118z" />
    <glyph glyph-name="abreve" unicode="&#x103;" horiz-adv-x="527" 
d="M315 44q-32 -34 -64.5 -47t-80.5 -13q-23 0 -49 6.5t-48 22.5t-36 43.5t-14 69.5t18 74.5t49 54t72 32.5t86 11q23 0 36.5 -1t30.5 -3v9q0 18 -7.5 29.5t-19 18t-25 9t-26.5 2.5q-45 0 -79 -11.5t-55 -26.5l-64 97q30 24 84 44t138 20q49 0 89 -12.5t69 -38t45 -63
t16 -87.5v-284h-159zM315 203q-17 4 -46 4q-42 0 -62 -16.5t-20 -39.5q0 -52 56 -52q13 0 26 3.5t23 12t16.5 22.5t6.5 35v31zM219 682q1 -19 11 -32.5t31 -13.5t31 13.5t11 32.5h116q0 -35 -13 -61.5t-34.5 -44.5t-50 -27t-60.5 -9t-60.5 9t-50 27t-34.5 44.5t-13 61.5h116
z" />
    <glyph glyph-name="Aogonek" unicode="&#x104;" horiz-adv-x="704" 
d="M503 0l-43 138h-223l-44 -138h-183l245 667h203l236 -667q-6 -6 -14.5 -15.5t-16.5 -20.5t-13.5 -21.5t-5.5 -19.5q0 -11 7 -17t18 -6q14 0 26.5 4.5t23.5 12.5l33 -86q-26 -17 -56.5 -26t-61.5 -9q-21 0 -39.5 5t-32.5 15.5t-22 26.5t-8 39q0 35 19.5 64.5t42.5 53.5
h-91zM424 267l-74 245l-77 -245h151z" />
    <glyph glyph-name="aogonek" unicode="&#x105;" horiz-adv-x="527" 
d="M315 44q-32 -34 -64.5 -47t-80.5 -13q-23 0 -49 6.5t-48 22.5t-36 43.5t-14 69.5t18 74.5t49 54t72 32.5t86 11q23 0 36.5 -1t30.5 -3v9q0 18 -7.5 29.5t-19 18t-25 9t-26.5 2.5q-45 0 -79 -11.5t-55 -26.5l-64 97q30 24 84 44t138 20q49 0 89 -12.5t69 -38t45 -63
t16 -87.5v-284q-8 -6 -17.5 -15t-18 -19.5t-14.5 -21.5t-6 -19q0 -11 7 -16.5t18 -5.5q14 0 26 4.5t23 11.5l32 -83q-25 -17 -55.5 -25.5t-60.5 -8.5q-40 0 -69.5 19t-29.5 64q0 34 19 63t41 52h-54zM315 203q-17 4 -46 4q-42 0 -62 -16.5t-20 -39.5q0 -52 56 -52
q13 0 26 3.5t23 12t16.5 22.5t6.5 35v31z" />
    <glyph glyph-name="Cacute" unicode="&#x106;" horiz-adv-x="683" 
d="M678 124q-113 -141 -297 -141q-77 0 -141 26t-109.5 72t-71 110t-25.5 141q0 76 25 140.5t71 112t110 74t141 26.5q87 0 161 -29t125 -101l-117 -118q-28 38 -67 61t-89 23q-42 0 -75 -14t-55.5 -39t-34.5 -58.5t-12 -72.5q0 -40 12.5 -74t35.5 -59t55.5 -39t72.5 -14
q58 0 94.5 20.5t71.5 64.5zM372 873h179l-124 -156h-128z" />
    <glyph glyph-name="cacute" unicode="&#x107;" horiz-adv-x="483" 
d="M478 62q-13 -15 -32 -29t-43.5 -25t-54.5 -17.5t-65 -6.5q-53 0 -99.5 18t-81 51t-54 79.5t-19.5 103.5q0 53 19.5 98.5t54 79.5t81 53t99.5 19q70 0 117.5 -22t77.5 -56l-99 -113q-11 13 -31 28t-60 15q-35 0 -62 -27.5t-27 -74.5q0 -23 7.5 -42.5t19.5 -33t28 -21
t34 -7.5q19 0 34 4.5t26 11.5t18.5 14.5l12.5 12.5zM261 682h159l-90 -142h-117z" />
    <glyph glyph-name="Ccircumflex" unicode="&#x108;" horiz-adv-x="683" 
d="M678 124q-113 -141 -297 -141q-77 0 -141 26t-109.5 72t-71 110t-25.5 141q0 76 25 140.5t71 112t110 74t141 26.5q87 0 161 -29t125 -101l-117 -118q-28 38 -67 61t-89 23q-42 0 -75 -14t-55.5 -39t-34.5 -58.5t-12 -72.5q0 -40 12.5 -74t35.5 -59t55.5 -39t72.5 -14
q58 0 94.5 20.5t71.5 64.5zM306 873h128l116 -156h-135l-45 68l-46 -68h-134z" />
    <glyph glyph-name="ccircumflex" unicode="&#x109;" horiz-adv-x="483" 
d="M478 62q-13 -15 -32 -29t-43.5 -25t-54.5 -17.5t-65 -6.5q-53 0 -99.5 18t-81 51t-54 79.5t-19.5 103.5q0 53 19.5 98.5t54 79.5t81 53t99.5 19q70 0 117.5 -22t77.5 -56l-99 -113q-11 13 -31 28t-60 15q-35 0 -62 -27.5t-27 -74.5q0 -23 7.5 -42.5t19.5 -33t28 -21
t34 -7.5q19 0 34 4.5t26 11.5t18.5 14.5l12.5 12.5zM209 682h132l107 -142h-133l-41 57l-39 -57h-134z" />
    <glyph glyph-name="Cdotaccent" unicode="&#x10a;" horiz-adv-x="683" 
d="M678 124q-113 -141 -297 -141q-77 0 -141 26t-109.5 72t-71 110t-25.5 141q0 76 25 140.5t71 112t110 74t141 26.5q87 0 161 -29t125 -101l-117 -118q-28 38 -67 61t-89 23q-42 0 -75 -14t-55.5 -39t-34.5 -58.5t-12 -72.5q0 -40 12.5 -74t35.5 -59t55.5 -39t72.5 -14
q58 0 94.5 20.5t71.5 64.5zM310 863h148v-136h-148v136z" />
    <glyph glyph-name="cdotaccent" unicode="&#x10b;" horiz-adv-x="483" 
d="M478 62q-13 -15 -32 -29t-43.5 -25t-54.5 -17.5t-65 -6.5q-53 0 -99.5 18t-81 51t-54 79.5t-19.5 103.5q0 53 19.5 98.5t54 79.5t81 53t99.5 19q70 0 117.5 -22t77.5 -56l-99 -113q-11 13 -31 28t-60 15q-35 0 -62 -27.5t-27 -74.5q0 -23 7.5 -42.5t19.5 -33t28 -21
t34 -7.5q19 0 34 4.5t26 11.5t18.5 14.5l12.5 12.5zM210 675h140v-128h-140v128z" />
    <glyph glyph-name="Ccaron" unicode="&#x10c;" horiz-adv-x="683" 
d="M678 124q-113 -141 -297 -141q-77 0 -141 26t-109.5 72t-71 110t-25.5 141q0 76 25 140.5t71 112t110 74t141 26.5q87 0 161 -29t125 -101l-117 -118q-28 38 -67 61t-89 23q-42 0 -75 -14t-55.5 -39t-34.5 -58.5t-12 -72.5q0 -40 12.5 -74t35.5 -59t55.5 -39t72.5 -14
q58 0 94.5 20.5t71.5 64.5zM207 873h135l45 -68l46 68h134l-116 -156h-128z" />
    <glyph glyph-name="ccaron" unicode="&#x10d;" horiz-adv-x="483" 
d="M478 62q-13 -15 -32 -29t-43.5 -25t-54.5 -17.5t-65 -6.5q-53 0 -99.5 18t-81 51t-54 79.5t-19.5 103.5q0 53 19.5 98.5t54 79.5t81 53t99.5 19q70 0 117.5 -22t77.5 -56l-99 -113q-11 13 -31 28t-60 15q-35 0 -62 -27.5t-27 -74.5q0 -23 7.5 -42.5t19.5 -33t28 -21
t34 -7.5q19 0 34 4.5t26 11.5t18.5 14.5l12.5 12.5zM97 682h133l41 -57l40 57h133l-107 -142h-133z" />
    <glyph glyph-name="Dcaron" unicode="&#x10e;" horiz-adv-x="708" 
d="M60 667h256q77 0 142.5 -20t113.5 -61t75 -105t27 -151q0 -83 -27.5 -144.5t-75.5 -103t-114 -62t-142 -20.5h-255v667zM309 156q87 0 134.5 49.5t47.5 128.5q0 40 -11 72.5t-33.5 56t-56.5 36.5t-81 13h-72v-356h72zM133 873h135l45 -68l46 68h134l-116 -156h-128z" />
    <glyph glyph-name="dcaron" unicode="&#x10f;" horiz-adv-x="706" 
d="M362 48q-26 -31 -61 -46t-68 -15q-38 0 -69.5 11.5t-56.5 32.5q-38 32 -58 84.5t-20 115.5q0 53 18 98.5t51.5 79t80 52.5t103.5 19q23 0 42 -3.5t32 -7.5v198h169v-667h-154zM356 329q-26 9 -55 9q-45 0 -73.5 -28t-28.5 -85q0 -42 20.5 -67.5t62.5 -25.5q37 0 55.5 22
t18.5 62v113zM580 667h136l-41 -169h-95v169z" />
    <glyph glyph-name="Dcroat" unicode="&#x110;" horiz-adv-x="708" 
d="M60 289h-60v90h60v288h256q77 0 142.5 -20t113.5 -61t75 -105t27 -151q0 -83 -27.5 -144.5t-75.5 -103t-114 -62t-142 -20.5h-255v289zM309 156q87 0 134.5 49.5t47.5 128.5q0 40 -11 72.5t-33.5 56t-56.5 36.5t-81 13h-72v-133h108v-90h-108v-133h72z" />
    <glyph glyph-name="dcroat" unicode="&#x111;" horiz-adv-x="574" 
d="M362 48q-26 -31 -61 -46t-68 -15q-38 0 -69.5 11.5t-56.5 32.5q-38 32 -58 82t-20 113q0 53 18 97.5t51.5 77t80 50.5t103.5 18q23 0 42 -3.5t32 -7.5v61h-150v87h150v61h169v-61h57v-87h-57v-519h-154zM356 318q-26 9 -55 9q-45 0 -73.5 -25t-28.5 -82q0 -42 20.5 -65
t62.5 -23q37 0 55.5 22t18.5 62v102z" />
    <glyph glyph-name="Emacron" unicode="&#x112;" horiz-adv-x="593" 
d="M60 667h480v-153h-303v-103h249v-144h-249v-114h324v-153h-501v667zM154 853h319v-116h-319v116z" />
    <glyph glyph-name="emacron" unicode="&#x113;" horiz-adv-x="533" 
d="M493 34q-12 -7 -30.5 -15.5t-43.5 -16t-56 -13t-66 -5.5q-130 0 -199 65.5t-69 183.5q0 47 15 92.5t45.5 81t77 57.5t108.5 22q48 0 90.5 -16.5t74 -50t49.5 -84t18 -118.5v-32h-318q1 -12 6.5 -25t19 -24.5t36 -18.5t55.5 -7q43 0 78.5 11t55.5 23zM357 285q0 12 -5 25
t-15.5 24t-26 18.5t-37.5 7.5q-21 0 -37 -7.5t-26 -18.5t-15 -24t-5 -25h167zM125 660h286v-113h-286v113z" />
    <glyph glyph-name="Ebreve" unicode="&#x114;" horiz-adv-x="593" 
d="M60 667h480v-153h-303v-103h249v-144h-249v-114h324v-153h-501v667zM263 863q1 -20 13 -33t33 -13q22 0 34 13t12 33h119q0 -36 -13.5 -63.5t-36 -46.5t-52 -29t-63.5 -10q-33 0 -63 10t-52.5 29t-35.5 46.5t-13 63.5h118z" />
    <glyph glyph-name="ebreve" unicode="&#x115;" horiz-adv-x="533" 
d="M493 34q-12 -7 -30.5 -15.5t-43.5 -16t-56 -13t-66 -5.5q-130 0 -199 65.5t-69 183.5q0 47 15 92.5t45.5 81t77 57.5t108.5 22q48 0 90.5 -16.5t74 -50t49.5 -84t18 -118.5v-32h-318q1 -12 6.5 -25t19 -24.5t36 -18.5t55.5 -7q43 0 78.5 11t55.5 23zM357 285q0 12 -5 25
t-15.5 24t-26 18.5t-37.5 7.5q-21 0 -37 -7.5t-26 -18.5t-15 -24t-5 -25h167zM229 682q1 -19 11 -32.5t31 -13.5t31 13.5t11 32.5h116q0 -35 -13 -61.5t-34.5 -44.5t-50 -27t-60.5 -9t-60.5 9t-50 27t-34.5 44.5t-13 61.5h116z" />
    <glyph glyph-name="Edotaccent" unicode="&#x116;" horiz-adv-x="593" 
d="M60 667h480v-153h-303v-103h249v-144h-249v-114h324v-153h-501v667zM230 863h148v-136h-148v136z" />
    <glyph glyph-name="edotaccent" unicode="&#x117;" horiz-adv-x="533" 
d="M493 34q-12 -7 -30.5 -15.5t-43.5 -16t-56 -13t-66 -5.5q-130 0 -199 65.5t-69 183.5q0 47 15 92.5t45.5 81t77 57.5t108.5 22q48 0 90.5 -16.5t74 -50t49.5 -84t18 -118.5v-32h-318q1 -12 6.5 -25t19 -24.5t36 -18.5t55.5 -7q43 0 78.5 11t55.5 23zM357 285q0 12 -5 25
t-15.5 24t-26 18.5t-37.5 7.5q-21 0 -37 -7.5t-26 -18.5t-15 -24t-5 -25h167zM205 675h140v-128h-140v128z" />
    <glyph glyph-name="Eogonek" unicode="&#x118;" horiz-adv-x="593" 
d="M60 667h480v-153h-303v-103h249v-144h-249v-114h324v-153h-42l-15 -15.5t-17.5 -20.5t-14 -21.5t-5.5 -19.5q0 -11 7 -17t18 -6q14 0 26.5 4.5t23.5 12.5l33 -86q-26 -17 -56.5 -26t-61.5 -9q-21 0 -39.5 5t-32.5 15.5t-22 26.5t-8 39q0 35 19.5 64.5t42.5 53.5h-357v667
z" />
    <glyph glyph-name="eogonek" unicode="&#x119;" horiz-adv-x="533" 
d="M491 -164q-25 -17 -55.5 -25.5t-60.5 -8.5q-40 0 -69.5 19t-29.5 64q0 28 14 54t32 46q-6 0 -12.5 -0.5t-12.5 -0.5q-130 0 -199 65.5t-69 183.5q0 47 15 92.5t45.5 81t77 57.5t108.5 22q48 0 90.5 -16.5t74 -50t49.5 -84t18 -118.5v-32h-318q1 -12 6.5 -25t19 -24.5
t36 -18.5t55.5 -7q43 0 78.5 11t55.5 23l53 -110q-9 -5 -22 -11.5t-30 -12.5q-29 -20 -42.5 -42t-13.5 -36q0 -16 7 -22.5t18 -6.5q14 0 26 4.5t23 11.5zM357 285q0 12 -5 25t-15.5 24t-26 18.5t-37.5 7.5q-21 0 -37 -7.5t-26 -18.5t-15 -24t-5 -25h167z" />
    <glyph glyph-name="Ecaron" unicode="&#x11a;" horiz-adv-x="593" 
d="M60 667h480v-153h-303v-103h249v-144h-249v-114h324v-153h-501v667zM132 873h135l45 -68l46 68h134l-116 -156h-128z" />
    <glyph glyph-name="ecaron" unicode="&#x11b;" horiz-adv-x="533" 
d="M493 34q-12 -7 -30.5 -15.5t-43.5 -16t-56 -13t-66 -5.5q-130 0 -199 65.5t-69 183.5q0 47 15 92.5t45.5 81t77 57.5t108.5 22q48 0 90.5 -16.5t74 -50t49.5 -84t18 -118.5v-32h-318q1 -12 6.5 -25t19 -24.5t36 -18.5t55.5 -7q43 0 78.5 11t55.5 23zM357 285q0 12 -5 25
t-15.5 24t-26 18.5t-37.5 7.5q-21 0 -37 -7.5t-26 -18.5t-15 -24t-5 -25h167zM101 682h133l41 -57l40 57h133l-107 -142h-133z" />
    <glyph glyph-name="Gcircumflex" unicode="&#x11c;" horiz-adv-x="723" 
d="M400 381h274v-301q-60 -51 -137.5 -73.5t-155.5 -22.5q-81 0 -145.5 24.5t-109.5 70t-68.5 110.5t-23.5 146q0 76 25.5 140.5t71.5 111t109.5 72.5t140.5 26q83 0 155.5 -27.5t121.5 -91.5l-115 -116q-31 31 -66.5 51t-82.5 20q-43 0 -76 -15t-55.5 -40.5t-34.5 -60
t-12 -73.5q0 -43 13 -77.5t36 -59t56 -38t74 -13.5q33 0 63 8t58 28v64h-116v137zM305 873h128l116 -156h-135l-45 68l-46 -68h-134z" />
    <glyph glyph-name="gcircumflex" unicode="&#x11d;" horiz-adv-x="567" 
d="M127 -44q27 -17 57.5 -26.5t62.5 -9.5q52 0 77.5 23.5t25.5 78.5v16q-23 -21 -53 -27t-59 -6q-50 0 -89 16t-65.5 45t-40.5 69.5t-14 89.5q0 61 20 109t56.5 80t87 49t110.5 17q56 0 109.5 -10t105.5 -29v-403q0 -134 -65 -192t-190 -58q-53 0 -104 11t-96 40zM351 334
q-27 9 -54 9q-26 0 -45 -9t-31 -24t-17.5 -35.5t-5.5 -43.5q0 -47 22.5 -70t56.5 -23q33 0 53.5 19.5t20.5 61.5v115zM237 682h132l107 -142h-133l-41 57l-39 -57h-134z" />
    <glyph glyph-name="Gbreve" unicode="&#x11e;" horiz-adv-x="723" 
d="M400 381h274v-301q-60 -51 -137.5 -73.5t-155.5 -22.5q-81 0 -145.5 24.5t-109.5 70t-68.5 110.5t-23.5 146q0 76 25.5 140.5t71.5 111t109.5 72.5t140.5 26q83 0 155.5 -27.5t121.5 -91.5l-115 -116q-31 31 -66.5 51t-82.5 20q-43 0 -76 -15t-55.5 -40.5t-34.5 -60
t-12 -73.5q0 -43 13 -77.5t36 -59t56 -38t74 -13.5q33 0 63 8t58 28v64h-116v137zM327 863q1 -20 13 -33t33 -13q22 0 34 13t12 33h119q0 -36 -13.5 -63.5t-36 -46.5t-52 -29t-63.5 -10q-33 0 -63 10t-52.5 29t-35.5 46.5t-13 63.5h118z" />
    <glyph glyph-name="gbreve" unicode="&#x11f;" horiz-adv-x="567" 
d="M127 -44q27 -17 57.5 -26.5t62.5 -9.5q52 0 77.5 23.5t25.5 78.5v16q-23 -21 -53 -27t-59 -6q-50 0 -89 16t-65.5 45t-40.5 69.5t-14 89.5q0 61 20 109t56.5 80t87 49t110.5 17q56 0 109.5 -10t105.5 -29v-403q0 -134 -65 -192t-190 -58q-53 0 -104 11t-96 40zM351 334
q-27 9 -54 9q-26 0 -45 -9t-31 -24t-17.5 -35.5t-5.5 -43.5q0 -47 22.5 -70t56.5 -23q33 0 53.5 19.5t20.5 61.5v115zM261 682q1 -19 11 -32.5t31 -13.5t31 13.5t11 32.5h116q0 -35 -13 -61.5t-34.5 -44.5t-50 -27t-60.5 -9t-60.5 9t-50 27t-34.5 44.5t-13 61.5h116z" />
    <glyph glyph-name="Gdotaccent" unicode="&#x120;" horiz-adv-x="723" 
d="M400 381h274v-301q-60 -51 -137.5 -73.5t-155.5 -22.5q-81 0 -145.5 24.5t-109.5 70t-68.5 110.5t-23.5 146q0 76 25.5 140.5t71.5 111t109.5 72.5t140.5 26q83 0 155.5 -27.5t121.5 -91.5l-115 -116q-31 31 -66.5 51t-82.5 20q-43 0 -76 -15t-55.5 -40.5t-34.5 -60
t-12 -73.5q0 -43 13 -77.5t36 -59t56 -38t74 -13.5q33 0 63 8t58 28v64h-116v137zM303 863h148v-136h-148v136z" />
    <glyph glyph-name="gdotaccent" unicode="&#x121;" horiz-adv-x="567" 
d="M127 -44q27 -17 57.5 -26.5t62.5 -9.5q52 0 77.5 23.5t25.5 78.5v16q-23 -21 -53 -27t-59 -6q-50 0 -89 16t-65.5 45t-40.5 69.5t-14 89.5q0 61 20 109t56.5 80t87 49t110.5 17q56 0 109.5 -10t105.5 -29v-403q0 -134 -65 -192t-190 -58q-53 0 -104 11t-96 40zM351 334
q-27 9 -54 9q-26 0 -45 -9t-31 -24t-17.5 -35.5t-5.5 -43.5q0 -47 22.5 -70t56.5 -23q33 0 53.5 19.5t20.5 61.5v115zM233 675h140v-128h-140v128z" />
    <glyph glyph-name="Gcommaaccent" unicode="&#x122;" horiz-adv-x="723" 
d="M400 381h274v-301q-60 -51 -137.5 -73.5t-155.5 -22.5q-81 0 -145.5 24.5t-109.5 70t-68.5 110.5t-23.5 146q0 76 25.5 140.5t71.5 111t109.5 72.5t140.5 26q83 0 155.5 -27.5t121.5 -91.5l-115 -116q-31 31 -66.5 51t-82.5 20q-43 0 -76 -15t-55.5 -40.5t-34.5 -60
t-12 -73.5q0 -43 13 -77.5t36 -59t56 -38t74 -13.5q33 0 63 8t58 28v64h-116v137zM306 -51h172l-99 -158h-126z" />
    <glyph glyph-name="gcommaaccent" unicode="&#x123;" horiz-adv-x="567" 
d="M127 -44q27 -17 57.5 -26.5t62.5 -9.5q52 0 77.5 23.5t25.5 78.5v16q-23 -21 -53 -27t-59 -6q-50 0 -89 16t-65.5 45t-40.5 69.5t-14 89.5q0 61 20 109t56.5 80t87 49t110.5 17q56 0 109.5 -10t105.5 -29v-403q0 -134 -65 -192t-190 -58q-53 0 -104 11t-96 40zM351 334
q-27 9 -54 9q-26 0 -45 -9t-31 -24t-17.5 -35.5t-5.5 -43.5q0 -47 22.5 -70t56.5 -23q33 0 53.5 19.5t20.5 61.5v115zM305 682h117l-48 -142h-159z" />
    <glyph glyph-name="Hcircumflex" unicode="&#x124;" horiz-adv-x="720" 
d="M60 667h177v-244h246v244h177v-667h-177v261h-246v-261h-177v667zM295 873h128l116 -156h-135l-45 68l-46 -68h-134z" />
    <glyph glyph-name="hcircumflex" unicode="&#x125;" horiz-adv-x="577" 
d="M49 667h169v-240q14 17 32 28t37 17t36.5 8t30.5 2q37 0 69 -10.5t56 -33t37.5 -58t13.5 -84.5v-296h-169v252q0 38 -16.5 59.5t-48.5 21.5q-23 0 -38 -7t-24 -19t-12.5 -26.5t-3.5 -29.5v-251h-169v667zM159 873h128l116 -156h-135l-45 68l-46 -68h-134z" />
    <glyph glyph-name="Hbar" unicode="&#x126;" horiz-adv-x="720" 
d="M60 485h-57v89h57v93h177v-93h246v93h177v-93h57v-89h-57v-485h-177v232h-246v-232h-177v485zM483 394v91h-246v-91h246z" />
    <glyph glyph-name="hbar" unicode="&#x127;" horiz-adv-x="577" 
d="M49 520h-57v86h57v61h169v-61h150v-86h-150v-103q14 17 32 28t37 17t36.5 8t30.5 2q37 0 69 -10.5t56 -33t37.5 -58t13.5 -84.5v-286h-169v242q0 38 -16.5 59.5t-48.5 21.5q-23 0 -38 -7t-24 -19t-12.5 -26.5t-3.5 -29.5v-241h-169v520z" />
    <glyph glyph-name="Itilde" unicode="&#x128;" horiz-adv-x="297" 
d="M60 667h177v-667h-177v667zM-61 809q25 27 58.5 45t71.5 18q19 0 36 -6.5t34 -15t34 -15t36 -6.5q26 0 49.5 10.5t44.5 27.5l58 -90q-25 -27 -58.5 -45t-71.5 -18q-19 0 -36 6.5t-33.5 15t-33.5 15t-36 6.5q-27 0 -50.5 -10.5t-43.5 -27.5z" />
    <glyph glyph-name="itilde" unicode="&#x129;" horiz-adv-x="273" 
d="M52 470h169v-470h-169v470zM-69 625q25 27 57.5 44.5t69.5 17.5q19 0 35.5 -6.5t33 -14.5t33.5 -14.5t35 -6.5q26 0 49 10.5t43 26.5l57 -88q-24 -26 -57 -43.5t-70 -17.5q-18 0 -35 6.5t-33.5 14t-33 14t-35.5 6.5q-26 0 -49 -10.5t-43 -26.5z" />
    <glyph glyph-name="Imacron" unicode="&#x12a;" horiz-adv-x="297" 
d="M60 667h177v-667h-177v667zM-10 853h319v-116h-319v116z" />
    <glyph glyph-name="imacron" unicode="&#x12b;" horiz-adv-x="273" 
d="M52 470h169v-470h-169v470zM-6 660h286v-113h-286v113z" />
    <glyph glyph-name="Ibreve" unicode="&#x12c;" horiz-adv-x="297" 
d="M60 667h177v-667h-177v667zM103 863q1 -20 13 -33t33 -13q22 0 34 13t12 33h119q0 -36 -13.5 -63.5t-36 -46.5t-52 -29t-63.5 -10q-33 0 -63 10t-52.5 29t-35.5 46.5t-13 63.5h118z" />
    <glyph glyph-name="ibreve" unicode="&#x12d;" horiz-adv-x="273" 
d="M52 470h169v-470h-169v470zM95 682q1 -19 11 -32.5t31 -13.5t31 13.5t11 32.5h116q0 -35 -13 -61.5t-34.5 -44.5t-50 -27t-60.5 -9t-60.5 9t-50 27t-34.5 44.5t-13 61.5h116z" />
    <glyph glyph-name="Iogonek" unicode="&#x12e;" horiz-adv-x="297" 
d="M60 667h177v-667h4l-15 -15.5t-17.5 -20.5t-14 -21.5t-5.5 -19.5q0 -11 7 -17t18 -6q14 0 26.5 4.5t23.5 12.5l33 -86q-26 -17 -56.5 -26t-61.5 -9q-21 0 -39.5 5t-32.5 15.5t-22 26.5t-8 39q0 35 19.5 64.5t42.5 53.5h-79v667z" />
    <glyph glyph-name="iogonek" unicode="&#x12f;" horiz-adv-x="273" 
d="M52 470h169v-470l-14.5 -15t-17 -19.5t-14 -21.5t-5.5 -19q0 -11 7 -16.5t18 -5.5q14 0 26 4.5t23 11.5l32 -83q-25 -17 -55.5 -25.5t-60.5 -8.5q-40 0 -69.5 19t-29.5 64q0 34 19 63t41 52h-69v470zM45 667h183v-133h-183v133z" />
    <glyph glyph-name="Idotaccent" unicode="&#x130;" horiz-adv-x="297" 
d="M60 667h177v-667h-177v667zM76 863h148v-136h-148v136z" />
    <glyph glyph-name="dotlessi" unicode="&#x131;" horiz-adv-x="273" 
d="M52 470h169v-470h-169v470z" />
    <glyph glyph-name="i.locl" horiz-adv-x="273" 
d="M45 667h183v-133h-183v133zM52 470h169v-470h-169v470z" />
    <glyph glyph-name="IJ" unicode="&#x132;" horiz-adv-x="843" 
d="M60 667h177v-667h-177v667zM418 194q19 -22 46.5 -39t63.5 -17q46 0 65 24.5t19 67.5v437h177v-457q0 -54 -18.5 -96.5t-51.5 -72t-77.5 -44.5t-96.5 -15q-66 0 -128 25.5t-104 77.5z" />
    <glyph glyph-name="ij" unicode="&#x133;" horiz-adv-x="548" 
d="M45 667h183v-133h-183v133zM52 470h169v-470h-169v470zM320 667h183v-133h-183v133zM198 -36q14 -8 29 -14t31 -6q44 0 56.5 23t12.5 62v441h169v-421q0 -54 -9 -99.5t-32.5 -79t-63.5 -52t-102 -18.5q-43 0 -84 12.5t-70 36.5z" />
    <glyph glyph-name="Jcircumflex" unicode="&#x134;" horiz-adv-x="540" 
d="M115 194q19 -22 46.5 -39t63.5 -17q46 0 65 24.5t19 67.5v437h177v-457q0 -54 -18.5 -96.5t-51.5 -72t-77.5 -44.5t-96.5 -15q-66 0 -128 25.5t-104 77.5zM331 873h128l116 -156h-135l-45 68l-46 -68h-134z" />
    <glyph glyph-name="jcircumflex" unicode="&#x135;" horiz-adv-x="286" 
d="M-64 -48q14 -8 29 -14t31 -6q44 0 56.5 23t12.5 62v453h169v-433q0 -54 -9 -99.5t-32.5 -79t-63.5 -52t-102 -18.5q-43 0 -84 12.5t-70 36.5zM79 682h132l107 -142h-133l-41 57l-39 -57h-134z" />
    <glyph glyph-name="Kcommaaccent" unicode="&#x136;" horiz-adv-x="688" 
d="M60 667h177v-250l199 250h207l-222 -257l257 -410h-215l-163 270l-63 -74v-196h-177v667zM263 -51h172l-99 -158h-126z" />
    <glyph glyph-name="kcommaaccent" unicode="&#x137;" horiz-adv-x="544" 
d="M49 667h169v-328l117 131h188l-160 -173l186 -297h-194l-104 180l-33 -35v-145h-169v667zM216 -51h159l-90 -142h-117z" />
    <glyph glyph-name="kgreenlandic" unicode="&#x138;" horiz-adv-x="554" 
d="M49 470h169v-131l117 131h188l-160 -173l186 -297h-194l-104 180l-33 -35v-145h-169v470z" />
    <glyph glyph-name="Lacute" unicode="&#x139;" horiz-adv-x="566" 
d="M60 667h177v-511h309v-156h-486v667zM151 873h179l-124 -156h-128z" />
    <glyph glyph-name="lacute" unicode="&#x13a;" horiz-adv-x="267" 
d="M49 667h169v-667h-169v667zM137 873h179l-124 -156h-128z" />
    <glyph glyph-name="Lcommaaccent" unicode="&#x13b;" horiz-adv-x="566" 
d="M60 667h177v-511h309v-156h-486v667zM230 -51h172l-99 -158h-126z" />
    <glyph glyph-name="lcommaaccent" unicode="&#x13c;" horiz-adv-x="267" 
d="M49 667h169v-667h-169v667zM56 -51h159l-90 -142h-117z" />
    <glyph glyph-name="Lcaron" unicode="&#x13d;" horiz-adv-x="566" 
d="M60 667h177v-511h309v-156h-486v667zM315 667h149l-40 -193h-109v193z" />
    <glyph glyph-name="lcaron" unicode="&#x13e;" horiz-adv-x="399" 
d="M49 667h169v-667h-169v667zM273 667h136l-41 -169h-95v169z" />
    <glyph glyph-name="Ldot" unicode="&#x13f;" horiz-adv-x="566" 
d="M60 667h177v-511h309v-156h-486v667zM354 469h148v-136h-148v136z" />
    <glyph glyph-name="ldot" unicode="&#x140;" horiz-adv-x="489" 
d="M49 667h169v-667h-169v667zM308 425h140v-128h-140v128z" />
    <glyph glyph-name="Lslash" unicode="&#x141;" horiz-adv-x="566" 
d="M60 257l-59 -36v104l59 36v306h177v-196l50.5 30.5l49.5 30.5v-102l-100 -62v-212h309v-156h-486v257z" />
    <glyph glyph-name="lslash" unicode="&#x142;" horiz-adv-x="312" 
d="M73 250l-58 -36v112l58 36v305h169v-201l65 40v-111l-65 -41v-354h-169v250z" />
    <glyph glyph-name="Nacute" unicode="&#x143;" horiz-adv-x="712" 
d="M60 667h161l256 -372v372h175v-667h-151l-266 383v-383h-175v667zM344 873h179l-124 -156h-128z" />
    <glyph glyph-name="nacute" unicode="&#x144;" horiz-adv-x="573" 
d="M49 470h163l6 -49q14 17 32 29t37 19t36.5 10t30.5 3q37 0 68.5 -10.5t54.5 -33t36 -58t13 -84.5v-296h-169v256q0 35 -14.5 56t-46.5 21q-23 0 -38 -7t-24 -19t-12.5 -26.5t-3.5 -29.5v-251h-169v470zM275 682h159l-90 -142h-117z" />
    <glyph glyph-name="Ncommaaccent" unicode="&#x145;" horiz-adv-x="712" 
d="M60 667h161l256 -372v372h175v-667h-151l-266 383v-383h-175v667zM296 -51h172l-99 -158h-126z" />
    <glyph glyph-name="ncommaaccent" unicode="&#x146;" horiz-adv-x="573" 
d="M49 470h163l6 -49q14 17 32 29t37 19t36.5 10t30.5 3q37 0 68.5 -10.5t54.5 -33t36 -58t13 -84.5v-296h-169v256q0 35 -14.5 56t-46.5 21q-23 0 -38 -7t-24 -19t-12.5 -26.5t-3.5 -29.5v-251h-169v470zM222 -51h159l-90 -142h-117z" />
    <glyph glyph-name="Ncaron" unicode="&#x147;" horiz-adv-x="712" 
d="M60 667h161l256 -372v372h175v-667h-151l-266 383v-383h-175v667zM165 873h135l45 -68l46 68h134l-116 -156h-128z" />
    <glyph glyph-name="ncaron" unicode="&#x148;" horiz-adv-x="573" 
d="M49 470h163l6 -49q14 17 32 29t37 19t36.5 10t30.5 3q37 0 68.5 -10.5t54.5 -33t36 -58t13 -84.5v-296h-169v256q0 35 -14.5 56t-46.5 21q-23 0 -38 -7t-24 -19t-12.5 -26.5t-3.5 -29.5v-251h-169v470zM118 682h133l41 -57l40 57h133l-107 -142h-133z" />
    <glyph glyph-name="napostrophe" unicode="&#x149;" horiz-adv-x="573" 
d="M49 470h163l6 -49q14 17 32 29t37 19t36.5 10t30.5 3q37 0 68.5 -10.5t54.5 -33t36 -58t13 -84.5v-296h-169v256q0 35 -14.5 56t-46.5 21q-23 0 -38 -7t-24 -19t-12.5 -26.5t-3.5 -29.5v-251h-169v470zM9 682h137l-43 -155h-101z" />
    <glyph glyph-name="Eng" unicode="&#x14a;" horiz-adv-x="712" 
d="M60 667h140l276 -376v376h176v-642q0 -54 -10.5 -96.5t-34.5 -71.5t-63 -44t-96 -15q-19 0 -40 3.5t-41 9t-38.5 13t-31.5 16.5l31.5 57.5t31.5 56.5q14 -8 28.5 -13.5t30.5 -5.5q20 0 32 8t18 20.5t8 27t2 28.5v7l-243 330v-356h-176v667z" />
    <glyph glyph-name="eng" unicode="&#x14b;" horiz-adv-x="573" 
d="M228 -36q14 -8 29 -14t31 -6q41 0 55 19.5t14 53.5v239q0 35 -14.5 56t-46.5 21q-23 0 -38 -7t-24 -19t-12.5 -26.5t-3.5 -29.5v-251h-169v470h163l6 -49q14 17 32 29t37 19t36.5 10t30.5 3q37 0 68.5 -10.5t54.5 -33t36 -58t13 -84.5v-247q0 -54 -9 -99.5t-32.5 -79
t-63.5 -52t-102 -18.5q-43 0 -84 12.5t-70 36.5z" />
    <glyph glyph-name="Omacron" unicode="&#x14c;" horiz-adv-x="762" 
d="M381 -16q-75 0 -138.5 26.5t-110 73t-72.5 111t-26 140.5t26 140.5t72.5 111t110 72.5t138.5 26t139 -26t110 -72.5t72 -111t26 -140.5t-26 -140.5t-72 -111t-110 -73t-139 -26.5zM381 150q39 0 69.5 14.5t51.5 39.5t32 59t11 72t-11 72t-32 59t-51.5 39.5t-69.5 14.5
t-69.5 -14.5t-51.5 -39.5t-32 -59t-11 -72t11 -72t32 -59t51.5 -39.5t69.5 -14.5zM221 853h319v-116h-319v116z" />
    <glyph glyph-name="omacron" unicode="&#x14d;" horiz-adv-x="560" 
d="M280 132q42 0 67 29t25 74t-25 74t-67 29t-67 -29t-25 -74t25 -74t67 -29zM29 235q0 52 18.5 98t51.5 80t79 53.5t102 19.5t102 -19.5t79 -53.5t51.5 -80t18.5 -98q0 -53 -18.5 -98.5t-51.5 -79.5t-79 -53.5t-102 -19.5t-102 19.5t-79 53.5t-51.5 79.5t-18.5 98.5z
M137 660h286v-113h-286v113z" />
    <glyph glyph-name="Obreve" unicode="&#x14e;" horiz-adv-x="762" 
d="M381 -16q-75 0 -138.5 26.5t-110 73t-72.5 111t-26 140.5t26 140.5t72.5 111t110 72.5t138.5 26t139 -26t110 -72.5t72 -111t26 -140.5t-26 -140.5t-72 -111t-110 -73t-139 -26.5zM381 150q39 0 69.5 14.5t51.5 39.5t32 59t11 72t-11 72t-32 59t-51.5 39.5t-69.5 14.5
t-69.5 -14.5t-51.5 -39.5t-32 -59t-11 -72t11 -72t32 -59t51.5 -39.5t69.5 -14.5zM334 863q1 -20 13 -33t33 -13q22 0 34 13t12 33h119q0 -36 -13.5 -63.5t-36 -46.5t-52 -29t-63.5 -10q-33 0 -63 10t-52.5 29t-35.5 46.5t-13 63.5h118z" />
    <glyph glyph-name="obreve" unicode="&#x14f;" horiz-adv-x="560" 
d="M280 132q42 0 67 29t25 74t-25 74t-67 29t-67 -29t-25 -74t25 -74t67 -29zM29 235q0 52 18.5 98t51.5 80t79 53.5t102 19.5t102 -19.5t79 -53.5t51.5 -80t18.5 -98q0 -53 -18.5 -98.5t-51.5 -79.5t-79 -53.5t-102 -19.5t-102 19.5t-79 53.5t-51.5 79.5t-18.5 98.5z
M238 682q1 -19 11 -32.5t31 -13.5t31 13.5t11 32.5h116q0 -35 -13 -61.5t-34.5 -44.5t-50 -27t-60.5 -9t-60.5 9t-50 27t-34.5 44.5t-13 61.5h116z" />
    <glyph glyph-name="Ohungarumlaut" unicode="&#x150;" horiz-adv-x="762" 
d="M381 -16q-75 0 -138.5 26.5t-110 73t-72.5 111t-26 140.5t26 140.5t72.5 111t110 72.5t138.5 26t139 -26t110 -72.5t72 -111t26 -140.5t-26 -140.5t-72 -111t-110 -73t-139 -26.5zM381 150q39 0 69.5 14.5t51.5 39.5t32 59t11 72t-11 72t-32 59t-51.5 39.5t-69.5 14.5
t-69.5 -14.5t-51.5 -39.5t-32 -59t-11 -72t11 -72t32 -59t51.5 -39.5t69.5 -14.5zM494 873h162l-117 -156h-116zM291 873h162l-117 -156h-116z" />
    <glyph glyph-name="ohungarumlaut" unicode="&#x151;" horiz-adv-x="560" 
d="M280 132q42 0 67 29t25 74t-25 74t-67 29t-67 -29t-25 -74t25 -74t67 -29zM29 235q0 52 18.5 98t51.5 80t79 53.5t102 19.5t102 -19.5t79 -53.5t51.5 -80t18.5 -98q0 -53 -18.5 -98.5t-51.5 -79.5t-79 -53.5t-102 -19.5t-102 19.5t-79 53.5t-51.5 79.5t-18.5 98.5z
M370 682h143l-82 -142h-107zM189 682h143l-82 -142h-107z" />
    <glyph glyph-name="Racute" unicode="&#x154;" horiz-adv-x="628" 
d="M60 667h276q54 0 97.5 -14t74.5 -41.5t48 -68.5t17 -95q0 -66 -29 -114.5t-77 -77.5l143 -256h-190l-113 227h-74v-227h-173v667zM319 366q35 0 57 21.5t22 57.5q0 38 -21 60t-59 22h-85v-161h86zM273 873h179l-124 -156h-128z" />
    <glyph glyph-name="racute" unicode="&#x155;" horiz-adv-x="404" 
d="M49 470h163l6 -59q20 28 49.5 47.5t71.5 19.5q20 0 34.5 -2t25.5 -6l-22 -144q-24 6 -49 6q-110 0 -110 -121v-211h-169v470zM194 682h159l-90 -142h-117z" />
    <glyph glyph-name="Rcommaaccent" unicode="&#x156;" horiz-adv-x="628" 
d="M60 667h276q54 0 97.5 -14t74.5 -41.5t48 -68.5t17 -95q0 -66 -29 -114.5t-77 -77.5l143 -256h-190l-113 227h-74v-227h-173v667zM319 366q35 0 57 21.5t22 57.5q0 38 -21 60t-59 22h-85v-161h86zM251 -51h172l-99 -158h-126z" />
    <glyph glyph-name="rcommaaccent" unicode="&#x157;" horiz-adv-x="404" 
d="M49 470h163l6 -59q20 28 49.5 47.5t71.5 19.5q20 0 34.5 -2t25.5 -6l-22 -144q-24 6 -49 6q-110 0 -110 -121v-211h-169v470zM54 -51h159l-90 -142h-117z" />
    <glyph glyph-name="Rcaron" unicode="&#x158;" horiz-adv-x="628" 
d="M60 667h276q54 0 97.5 -14t74.5 -41.5t48 -68.5t17 -95q0 -66 -29 -114.5t-77 -77.5l143 -256h-190l-113 227h-74v-227h-173v667zM319 366q35 0 57 21.5t22 57.5q0 38 -21 60t-59 22h-85v-161h86zM114 873h135l45 -68l46 68h134l-116 -156h-128z" />
    <glyph glyph-name="rcaron" unicode="&#x159;" horiz-adv-x="404" 
d="M49 470h163l6 -59q20 28 49.5 47.5t71.5 19.5q20 0 34.5 -2t25.5 -6l-22 -144q-24 6 -49 6q-110 0 -110 -121v-211h-169v470zM50 682h133l41 -57l40 57h133l-107 -142h-133z" />
    <glyph glyph-name="Sacute" unicode="&#x15a;" horiz-adv-x="590" 
d="M112 211q28 -28 73 -51t99 -23q13 0 27 2.5t25 8.5t18 16t7 26q0 26 -26.5 43t-77.5 34l-37 12q-31 10 -62.5 26t-56.5 38.5t-40.5 53t-15.5 71.5q0 46 17 85.5t49.5 69t80.5 46t111 16.5q49 0 89 -9t70 -22t51 -28t32 -27l-90 -114q-35 26 -73 42.5t-78 16.5
q-13 0 -26 -3t-23.5 -9t-17 -15.5t-6.5 -23.5q0 -15 7.5 -26t20.5 -19t31.5 -14.5l39.5 -13.5l32 -10q34 -11 69 -25.5t63 -39t46 -61t18 -89.5q0 -46 -21.5 -85t-58 -67t-86 -43.5t-105.5 -15.5q-100 0 -167.5 26.5t-114.5 71.5zM297 873h179l-124 -156h-128z" />
    <glyph glyph-name="sacute" unicode="&#x15b;" horiz-adv-x="486" 
d="M87 156q12 -10 29 -18.5t35.5 -14.5t37 -9.5t32.5 -3.5q26 0 44.5 6t18.5 28q0 16 -21.5 25.5t-76.5 26.5q-31 9 -57 21.5t-45 29.5t-29.5 40t-10.5 53t14.5 56.5t41 46.5t64 31.5t82.5 11.5q58 0 104.5 -14t87.5 -41l-57 -105q-27 16 -56.5 28t-61.5 12q-52 0 -52 -28
q0 -12 9.5 -19.5t25.5 -13t37 -11t45 -13.5q36 -12 59 -27t36.5 -33t18.5 -39.5t5 -45.5q0 -43 -19.5 -72t-50.5 -47t-69.5 -25.5t-75.5 -7.5q-61 0 -120.5 16.5t-96.5 48.5zM218 682h159l-90 -142h-117z" />
    <glyph glyph-name="Scircumflex" unicode="&#x15c;" horiz-adv-x="590" 
d="M112 211q28 -28 73 -51t99 -23q13 0 27 2.5t25 8.5t18 16t7 26q0 26 -26.5 43t-77.5 34l-37 12q-31 10 -62.5 26t-56.5 38.5t-40.5 53t-15.5 71.5q0 46 17 85.5t49.5 69t80.5 46t111 16.5q49 0 89 -9t70 -22t51 -28t32 -27l-90 -114q-35 26 -73 42.5t-78 16.5
q-13 0 -26 -3t-23.5 -9t-17 -15.5t-6.5 -23.5q0 -15 7.5 -26t20.5 -19t31.5 -14.5l39.5 -13.5l32 -10q34 -11 69 -25.5t63 -39t46 -61t18 -89.5q0 -46 -21.5 -85t-58 -67t-86 -43.5t-105.5 -15.5q-100 0 -167.5 26.5t-114.5 71.5zM234 873h128l116 -156h-135l-45 68l-46 -68
h-134z" />
    <glyph glyph-name="scircumflex" unicode="&#x15d;" horiz-adv-x="486" 
d="M87 156q12 -10 29 -18.5t35.5 -14.5t37 -9.5t32.5 -3.5q26 0 44.5 6t18.5 28q0 16 -21.5 25.5t-76.5 26.5q-31 9 -57 21.5t-45 29.5t-29.5 40t-10.5 53t14.5 56.5t41 46.5t64 31.5t82.5 11.5q58 0 104.5 -14t87.5 -41l-57 -105q-27 16 -56.5 28t-61.5 12q-52 0 -52 -28
q0 -12 9.5 -19.5t25.5 -13t37 -11t45 -13.5q36 -12 59 -27t36.5 -33t18.5 -39.5t5 -45.5q0 -43 -19.5 -72t-50.5 -47t-69.5 -25.5t-75.5 -7.5q-61 0 -120.5 16.5t-96.5 48.5zM182 682h132l107 -142h-133l-41 57l-39 -57h-134z" />
    <glyph glyph-name="Scedilla" unicode="&#x15e;" horiz-adv-x="590" 
d="M112 211q28 -28 73 -51t99 -23q13 0 27 2.5t25 8.5t18 16t7 26q0 26 -26.5 43t-77.5 34l-37 12q-31 10 -62.5 26t-56.5 38.5t-40.5 53t-15.5 71.5q0 46 17 85.5t49.5 69t80.5 46t111 16.5q49 0 89 -9t70 -22t51 -28t32 -27l-90 -114q-35 26 -73 42.5t-78 16.5
q-13 0 -26 -3t-23.5 -9t-17 -15.5t-6.5 -23.5q0 -15 7.5 -26t20.5 -19t31.5 -14.5l39.5 -13.5l32 -10q34 -11 69 -25.5t63 -39t46 -61t18 -89.5q0 -46 -21.5 -85t-58 -67t-86 -43.5t-105.5 -15.5q-100 0 -167.5 26.5t-114.5 71.5zM180 -141q36 -12 72 -12q7 0 16.5 0.5
t17.5 2.5t14 7t6 14q0 8 -5.5 12t-13 6t-16.5 2.5t-15 0.5q-17 0 -34.5 -2t-34.5 -8l14 69q22 6 44 8t45 2q22 0 43.5 -4.5t38.5 -15t28 -28t11 -42.5q0 -28 -12.5 -47.5t-32.5 -32t-44.5 -18t-49.5 -5.5q-27 0 -54 3t-53 13z" />
    <glyph glyph-name="scedilla" unicode="&#x15f;" horiz-adv-x="486" 
d="M87 156q12 -10 29 -18.5t35.5 -14.5t37 -9.5t32.5 -3.5q26 0 44.5 6t18.5 28q0 16 -21.5 25.5t-76.5 26.5q-31 9 -57 21.5t-45 29.5t-29.5 40t-10.5 53t14.5 56.5t41 46.5t64 31.5t82.5 11.5q58 0 104.5 -14t87.5 -41l-57 -105q-27 16 -56.5 28t-61.5 12q-52 0 -52 -28
q0 -12 9.5 -19.5t25.5 -13t37 -11t45 -13.5q36 -12 59 -27t36.5 -33t18.5 -39.5t5 -45.5q0 -43 -19.5 -72t-50.5 -47t-69.5 -25.5t-75.5 -7.5q-61 0 -120.5 16.5t-96.5 48.5zM126 -139q17 -6 35 -10t36 -4q7 0 16.5 0.5t18 3.5t14.5 8.5t6 14.5t-5.5 14t-13.5 7t-17 2.5
t-15 0.5q-36 0 -68 -13l14 69q43 12 88 12q22 0 43.5 -5t38.5 -16t27.5 -28.5t10.5 -42.5q0 -28 -12.5 -48t-32 -33t-44.5 -19t-49 -6q-27 0 -53.5 4t-52.5 14z" />
    <glyph glyph-name="uni0162" unicode="&#x162;" horiz-adv-x="627" 
d="M225 512h-205v155h587v-155h-203v-512h-179v512zM197 -141q36 -12 72 -12q7 0 16.5 0.5t17.5 2.5t14 7t6 14q0 8 -5.5 12t-13 6t-16.5 2.5t-15 0.5q-17 0 -34.5 -2t-34.5 -8l14 69q22 6 44 8t45 2q22 0 43.5 -4.5t38.5 -15t28 -28t11 -42.5q0 -28 -12.5 -47.5t-32.5 -32
t-44.5 -18t-49.5 -5.5q-27 0 -54 3t-53 13z" />
    <glyph glyph-name="uni0163" unicode="&#x163;" horiz-adv-x="434" 
d="M79 340h-69v130h69v131h169v-131h116v-130h-116v-166q0 -58 55 -58q16 0 31.5 7t28.5 16l66 -104q-32 -25 -71 -39t-80 -14q-57 0 -95.5 16t-61.5 44.5t-32.5 68.5t-9.5 87v142zM130 -148q17 -6 35 -10t36 -4q7 0 16.5 0.5t18 3.5t14.5 8.5t6 14.5t-5.5 14t-13.5 7
t-17 2.5t-15 0.5q-36 0 -68 -13l14 69q43 12 88 12q22 0 43.5 -5t38.5 -16t27.5 -28.5t10.5 -42.5q0 -28 -12.5 -48t-32 -33t-44.5 -19t-49 -6q-27 0 -53.5 4t-52.5 14z" />
    <glyph glyph-name="Tcaron" unicode="&#x164;" horiz-adv-x="627" 
d="M225 512h-205v155h587v-155h-203v-512h-179v512zM134 873h135l45 -68l46 68h134l-116 -156h-128z" />
    <glyph glyph-name="tcaron" unicode="&#x165;" horiz-adv-x="434" 
d="M299 667h136l-41 -150h-95v150zM79 340h-69v130h69v131h169v-131h116v-130h-116v-166q0 -58 55 -58q16 0 31.5 7t28.5 16l66 -104q-32 -25 -71 -39t-80 -14q-57 0 -95.5 16t-61.5 44.5t-32.5 68.5t-9.5 87v142z" />
    <glyph glyph-name="Tbar" unicode="&#x166;" horiz-adv-x="627" 
d="M225 248h-99v89h99v175h-205v155h587v-155h-203v-175h99v-89h-99v-248h-179v248z" />
    <glyph glyph-name="tbar" unicode="&#x167;" horiz-adv-x="434" 
d="M10 284h69v56h-69v130h69v131h169v-131h116v-130h-116v-56h116v-86h-116v-24q0 -58 56 -58q16 0 31 7t28 16l66 -104q-32 -25 -71 -39t-80 -14q-57 0 -95.5 16t-61.5 44.5t-32.5 68.5t-9.5 87h-69v86z" />
    <glyph glyph-name="Utilde" unicode="&#x168;" horiz-adv-x="687" 
d="M56 667h177v-391q0 -55 25.5 -90t84.5 -35t84 35.5t25 89.5v391h179v-407q0 -64 -21 -115.5t-59.5 -87.5t-91 -55t-115.5 -19t-116 19t-91.5 54.5t-59.5 87t-21 116.5v407zM132 809q25 27 58.5 45t71.5 18q19 0 36 -6.5t34 -15t34 -15t36 -6.5q26 0 49.5 10.5t44.5 27.5
l58 -90q-25 -27 -58.5 -45t-71.5 -18q-19 0 -36 6.5t-33.5 15t-33.5 15t-36 6.5q-27 0 -50.5 -10.5t-43.5 -27.5z" />
    <glyph glyph-name="utilde" unicode="&#x169;" horiz-adv-x="571" 
d="M47 470h169v-257q0 -35 14.5 -56t51.5 -21q20 0 33.5 7t22 19t12 26.5t3.5 29.5v252h169v-470h-163l-6 48q-14 -17 -32 -29t-37 -19t-36.5 -10t-30.5 -3q-37 0 -68 10.5t-53.5 33t-35.5 57.5t-13 85v297zM83 625q25 27 57.5 44.5t69.5 17.5q19 0 35.5 -6.5t33 -14.5
t33.5 -14.5t35 -6.5q26 0 49 10.5t43 26.5l57 -88q-24 -26 -57 -43.5t-70 -17.5q-18 0 -35 6.5t-33.5 14t-33 14t-35.5 6.5q-26 0 -49 -10.5t-43 -26.5z" />
    <glyph glyph-name="Umacron" unicode="&#x16a;" horiz-adv-x="687" 
d="M56 667h177v-391q0 -55 25.5 -90t84.5 -35t84 35.5t25 89.5v391h179v-407q0 -64 -21 -115.5t-59.5 -87.5t-91 -55t-115.5 -19t-116 19t-91.5 54.5t-59.5 87t-21 116.5v407zM183 853h319v-116h-319v116z" />
    <glyph glyph-name="umacron" unicode="&#x16b;" horiz-adv-x="571" 
d="M47 470h169v-257q0 -35 14.5 -56t51.5 -21q20 0 33.5 7t22 19t12 26.5t3.5 29.5v252h169v-470h-163l-6 48q-14 -17 -32 -29t-37 -19t-36.5 -10t-30.5 -3q-37 0 -68 10.5t-53.5 33t-35.5 57.5t-13 85v297zM151 660h286v-113h-286v113z" />
    <glyph glyph-name="Ubreve" unicode="&#x16c;" horiz-adv-x="687" 
d="M56 667h177v-391q0 -55 25.5 -90t84.5 -35t84 35.5t25 89.5v391h179v-407q0 -64 -21 -115.5t-59.5 -87.5t-91 -55t-115.5 -19t-116 19t-91.5 54.5t-59.5 87t-21 116.5v407zM296 863q1 -20 13 -33t33 -13q22 0 34 13t12 33h119q0 -36 -13.5 -63.5t-36 -46.5t-52 -29
t-63.5 -10q-33 0 -63 10t-52.5 29t-35.5 46.5t-13 63.5h118z" />
    <glyph glyph-name="ubreve" unicode="&#x16d;" horiz-adv-x="571" 
d="M47 470h169v-257q0 -35 14.5 -56t51.5 -21q20 0 33.5 7t22 19t12 26.5t3.5 29.5v252h169v-470h-163l-6 48q-14 -17 -32 -29t-37 -19t-36.5 -10t-30.5 -3q-37 0 -68 10.5t-53.5 33t-35.5 57.5t-13 85v297zM243 682q1 -19 11 -32.5t31 -13.5t31 13.5t11 32.5h116
q0 -35 -13 -61.5t-34.5 -44.5t-50 -27t-60.5 -9t-60.5 9t-50 27t-34.5 44.5t-13 61.5h116z" />
    <glyph glyph-name="Uring" unicode="&#x16e;" horiz-adv-x="687" 
d="M56 667h177v-391q0 -55 25.5 -90t84.5 -35t84 35.5t25 89.5v391h179v-407q0 -64 -21 -115.5t-59.5 -87.5t-91 -55t-115.5 -19t-116 19t-91.5 54.5t-59.5 87t-21 116.5v407zM205 818q0 29 11.5 54t31 43.5t45 29t54.5 10.5t54.5 -10.5t45 -29t31 -44t11.5 -54.5t-11.5 -54
t-31 -43.5t-45 -29t-54.5 -10.5t-54.5 10.5t-45 29t-31 43.5t-11.5 55zM347 774q18 0 30 13t12 30q0 18 -12 31t-30 13t-30 -12.5t-12 -30.5t12 -31t30 -13z" />
    <glyph glyph-name="uring" unicode="&#x16f;" horiz-adv-x="571" 
d="M47 470h169v-257q0 -35 14.5 -56t51.5 -21q20 0 33.5 7t22 19t12 26.5t3.5 29.5v252h169v-470h-163l-6 48q-14 -17 -32 -29t-37 -19t-36.5 -10t-30.5 -3q-37 0 -68 10.5t-53.5 33t-35.5 57.5t-13 85v297zM164 646q0 26 10 48t26.5 37.5t39 24.5t47.5 9t47.5 -9t39 -24.5
t26.5 -37.5t10 -48t-10 -47.5t-26.5 -37.5t-39 -25t-47.5 -9t-47.5 9t-39 25t-26.5 37.5t-10 47.5zM287 608q16 0 27 11t11 27t-11 27.5t-27 11.5t-27 -11t-11 -28q0 -16 11 -27t27 -11z" />
    <glyph glyph-name="Uhungarumlaut" unicode="&#x170;" horiz-adv-x="687" 
d="M56 667h177v-391q0 -55 25.5 -90t84.5 -35t84 35.5t25 89.5v391h179v-407q0 -64 -21 -115.5t-59.5 -87.5t-91 -55t-115.5 -19t-116 19t-91.5 54.5t-59.5 87t-21 116.5v407zM449 873h162l-117 -156h-116zM246 873h162l-117 -156h-116z" />
    <glyph glyph-name="uhungarumlaut" unicode="&#x171;" horiz-adv-x="571" 
d="M47 470h169v-257q0 -35 14.5 -56t51.5 -21q20 0 33.5 7t22 19t12 26.5t3.5 29.5v252h169v-470h-163l-6 48q-14 -17 -32 -29t-37 -19t-36.5 -10t-30.5 -3q-37 0 -68 10.5t-53.5 33t-35.5 57.5t-13 85v297zM364 682h143l-82 -142h-107zM183 682h143l-82 -142h-107z" />
    <glyph glyph-name="Uogonek" unicode="&#x172;" horiz-adv-x="687" 
d="M56 667h177v-391q0 -55 25.5 -90t84.5 -35t84 35.5t25 89.5v391h179v-407q0 -99 -48.5 -166.5t-130.5 -93.5q-6 -6 -15 -16t-17 -20.5t-13.5 -21t-5.5 -19.5q0 -11 7 -17t18 -6q14 0 26.5 4.5t23.5 12.5l33 -86q-26 -17 -56.5 -26t-61.5 -9q-21 0 -39.5 5t-32.5 15.5
t-22 26.5t-8 39q0 29 13.5 54.5t32.5 46.5q-62 1 -113 21t-88 55.5t-57.5 86t-20.5 114.5v407z" />
    <glyph glyph-name="uogonek" unicode="&#x173;" horiz-adv-x="571" 
d="M359 0l-6 48q-14 -17 -32 -29t-37 -19t-36.5 -10t-30.5 -3q-37 0 -68 10.5t-53.5 33t-35.5 57.5t-13 85v297h169v-257q0 -35 14.5 -56t51.5 -21q20 0 33.5 7t22 19t12 26.5t3.5 29.5v252h169v-470l-14.5 -15t-17 -19.5t-14 -21.5t-5.5 -19q0 -11 7 -16.5t18 -5.5
q14 0 26 4.5t23 11.5l32 -83q-25 -17 -55.5 -25.5t-60.5 -8.5q-40 0 -69.5 19t-29.5 64q0 34 19 63t41 52h-63z" />
    <glyph glyph-name="Wcircumflex" unicode="&#x174;" horiz-adv-x="931" 
d="M10 667h187l86 -447l105 431h161l106 -431l85 447h181l-166 -667h-185l-105 422l-105 -422h-188zM401 873h128l116 -156h-135l-45 68l-46 -68h-134z" />
    <glyph glyph-name="wcircumflex" unicode="&#x175;" horiz-adv-x="790" 
d="M5 470h167l74 -276l83 276h131l84 -276l74 276h167l-163 -470h-146l-81 242l-81 -242h-146zM330 682h132l107 -142h-133l-41 57l-39 -57h-134z" />
    <glyph glyph-name="Ycircumflex" unicode="&#x176;" horiz-adv-x="672" 
d="M247 266l-237 401h203l130 -238l122 238h197l-238 -400v-267h-177v266zM272 873h128l116 -156h-135l-45 68l-46 -68h-134z" />
    <glyph glyph-name="ycircumflex" unicode="&#x177;" horiz-adv-x="573" 
d="M81 -54q14 -10 32 -17t32 -7q23 0 38 8.5t26 37.5l14 38l-218 464h192l100 -272l95 272h176l-187 -463l-35.5 -83.5t-42 -69.5t-59.5 -48t-87 -18q-37 0 -72 10.5t-67 32.5zM221 682h132l107 -142h-133l-41 57l-39 -57h-134z" />
    <glyph glyph-name="Zacute" unicode="&#x179;" horiz-adv-x="623" 
d="M36 137l337 375h-320v155h539v-136l-331 -376h338v-155h-563v137zM327 873h179l-124 -156h-128z" />
    <glyph glyph-name="zacute" unicode="&#x17a;" horiz-adv-x="508" 
d="M34 104l221 232h-208v134h425v-107l-215 -233h218v-130h-441v104zM262 682h159l-90 -142h-117z" />
    <glyph glyph-name="Zdotaccent" unicode="&#x17b;" horiz-adv-x="623" 
d="M36 137l337 375h-320v155h539v-136l-331 -376h338v-155h-563v137zM252 863h148v-136h-148v136z" />
    <glyph glyph-name="zdotaccent" unicode="&#x17c;" horiz-adv-x="508" 
d="M34 104l221 232h-208v134h425v-107l-215 -233h218v-130h-441v104zM202 675h140v-128h-140v128z" />
    <glyph glyph-name="Zcaron" unicode="&#x17d;" horiz-adv-x="623" 
d="M36 137l337 375h-320v155h539v-136l-331 -376h338v-155h-563v137zM156 873h135l45 -68l46 68h134l-116 -156h-128z" />
    <glyph glyph-name="zcaron" unicode="&#x17e;" horiz-adv-x="508" 
d="M34 104l221 232h-208v134h425v-107l-215 -233h218v-130h-441v104zM99 682h133l41 -57l40 57h133l-107 -142h-133z" />
    <glyph glyph-name="longs" unicode="&#x17f;" horiz-adv-x="290" 
d="M49 488q0 48 16 84.5t44 61.5t66.5 38t84.5 13q44 0 83.5 -11t71.5 -42l-70 -108q-14 12 -32.5 19t-37.5 7q-26 0 -41.5 -16t-15.5 -43v-491h-169v488z" />
    <glyph glyph-name="Scommaaccent" unicode="&#x218;" horiz-adv-x="590" 
d="M112 211q28 -28 73 -51t99 -23q13 0 27 2.5t25 8.5t18 16t7 26q0 26 -26.5 43t-77.5 34l-37 12q-31 10 -62.5 26t-56.5 38.5t-40.5 53t-15.5 71.5q0 46 17 85.5t49.5 69t80.5 46t111 16.5q49 0 89 -9t70 -22t51 -28t32 -27l-90 -114q-35 26 -73 42.5t-78 16.5
q-13 0 -26 -3t-23.5 -9t-17 -15.5t-6.5 -23.5q0 -15 7.5 -26t20.5 -19t31.5 -14.5l39.5 -13.5l32 -10q34 -11 69 -25.5t63 -39t46 -61t18 -89.5q0 -46 -21.5 -85t-58 -67t-86 -43.5t-105.5 -15.5q-100 0 -167.5 26.5t-114.5 71.5zM219 -51h172l-99 -158h-126z" />
    <glyph glyph-name="scommaaccent" unicode="&#x219;" horiz-adv-x="486" 
d="M87 156q12 -10 29 -18.5t35.5 -14.5t37 -9.5t32.5 -3.5q26 0 44.5 6t18.5 28q0 16 -21.5 25.5t-76.5 26.5q-31 9 -57 21.5t-45 29.5t-29.5 40t-10.5 53t14.5 56.5t41 46.5t64 31.5t82.5 11.5q58 0 104.5 -14t87.5 -41l-57 -105q-27 16 -56.5 28t-61.5 12q-52 0 -52 -28
q0 -12 9.5 -19.5t25.5 -13t37 -11t45 -13.5q36 -12 59 -27t36.5 -33t18.5 -39.5t5 -45.5q0 -43 -19.5 -72t-50.5 -47t-69.5 -25.5t-75.5 -7.5q-61 0 -120.5 16.5t-96.5 48.5zM170 -51h159l-90 -142h-117z" />
    <glyph glyph-name="uni021A" unicode="&#x21a;" horiz-adv-x="627" 
d="M225 512h-205v155h587v-155h-203v-512h-179v512zM229 -51h172l-99 -158h-126z" />
    <glyph glyph-name="uni021B" unicode="&#x21b;" horiz-adv-x="434" 
d="M79 340h-69v130h69v131h169v-131h116v-130h-116v-166q0 -58 55 -58q16 0 31.5 7t28.5 16l66 -104q-32 -25 -71 -39t-80 -14q-57 0 -95.5 16t-61.5 44.5t-32.5 68.5t-9.5 87v142zM162 -51h159l-90 -142h-117z" />
    <glyph glyph-name="dotlessj" unicode="&#x237;" horiz-adv-x="286" 
d="M-64 -48q14 -8 29 -14t31 -6q44 0 56.5 23t12.5 62v453h169v-433q0 -54 -9 -99.5t-32.5 -79t-63.5 -52t-102 -18.5q-43 0 -84 12.5t-70 36.5z" />
    <glyph glyph-name="apostrophe" unicode="&#x2bc;" horiz-adv-x="110" 
d="M7 682h137l-43 -155h-101z" />
    <glyph glyph-name="caron" unicode="&#x2c7;" horiz-adv-x="440" 
d="M47 682h133l41 -57l40 57h133l-107 -142h-133z" />
    <glyph glyph-name="uni02C9" unicode="&#x2c9;" horiz-adv-x="440" 
d="M77 660h286v-113h-286v113z" />
    <glyph glyph-name="breve" unicode="&#x2d8;" horiz-adv-x="440" 
d="M178 682q1 -19 11 -32.5t31 -13.5t31 13.5t11 32.5h116q0 -35 -13 -61.5t-34.5 -44.5t-50 -27t-60.5 -9t-60.5 9t-50 27t-34.5 44.5t-13 61.5h116z" />
    <glyph glyph-name="dotaccent" unicode="&#x2d9;" horiz-adv-x="440" 
d="M150 675h140v-128h-140v128z" />
    <glyph glyph-name="ring" unicode="&#x2da;" horiz-adv-x="440" 
d="M97 646q0 26 10 48t26.5 37.5t39 24.5t47.5 9t47.5 -9t39 -24.5t26.5 -37.5t10 -48t-10 -47.5t-26.5 -37.5t-39 -25t-47.5 -9t-47.5 9t-39 25t-26.5 37.5t-10 47.5zM220 608q16 0 27 11t11 27t-11 27.5t-27 11.5t-27 -11t-11 -28q0 -16 11 -27t27 -11z" />
    <glyph glyph-name="ogonek" unicode="&#x2db;" horiz-adv-x="440" 
d="M273 0l-14.5 -15t-17 -19.5t-14 -21.5t-5.5 -19q0 -11 7 -16.5t18 -5.5q14 0 26 4.5t23 11.5l32 -83q-25 -17 -55.5 -25.5t-60.5 -8.5q-40 0 -69.5 19t-29.5 64q0 34 19 63t41 52h100z" />
    <glyph glyph-name="hungarumlaut" unicode="&#x2dd;" horiz-adv-x="440" 
d="M262 682h143l-82 -142h-107zM81 682h143l-82 -142h-107z" />
    <glyph glyph-name="uni20B9" unicode="&#x20b9;" horiz-adv-x="561" 
d="M514 461l-39 -112h-44q-9 -57 -42 -99.5t-96 -59.5l213 -190h-207l-221 195v96h84q86 0 110 58h-194v112h193q-25 57 -108 57h-85v112h436l-39 -112h-77q18 -26 27 -57h89z" />
    <glyph glyph-name="Wgrave" unicode="&#x1e80;" horiz-adv-x="931" 
d="M10 667h187l86 -447l105 431h161l106 -431l85 447h181l-166 -667h-185l-105 422l-105 -422h-188zM274 873h179l73 -156h-128z" />
    <glyph glyph-name="wgrave" unicode="&#x1e81;" horiz-adv-x="790" 
d="M5 470h167l74 -276l83 276h131l84 -276l74 276h167l-163 -470h-146l-81 242l-81 -242h-146zM252 682h159l48 -142h-117z" />
    <glyph glyph-name="Wacute" unicode="&#x1e82;" horiz-adv-x="931" 
d="M10 667h187l86 -447l105 431h161l106 -431l85 447h181l-166 -667h-185l-105 422l-105 -422h-188zM482 873h179l-124 -156h-128z" />
    <glyph glyph-name="wacute" unicode="&#x1e83;" horiz-adv-x="790" 
d="M5 470h167l74 -276l83 276h131l84 -276l74 276h167l-163 -470h-146l-81 242l-81 -242h-146zM383 682h159l-90 -142h-117z" />
    <glyph glyph-name="Wdieresis" unicode="&#x1e84;" horiz-adv-x="931" 
d="M10 667h187l86 -447l105 431h161l106 -431l85 447h181l-166 -667h-185l-105 422l-105 -422h-188zM507 859h141v-128h-141v128zM282 859h141v-128h-141v128z" />
    <glyph glyph-name="wdieresis" unicode="&#x1e85;" horiz-adv-x="790" 
d="M5 470h167l74 -276l83 276h131l84 -276l74 276h167l-163 -470h-146l-81 242l-81 -242h-146zM430 671h131v-120h-131v120zM229 671h131v-120h-131v120z" />
    <glyph glyph-name="Ygrave" unicode="&#x1ef2;" horiz-adv-x="672" 
d="M247 266l-237 401h203l130 -238l122 238h197l-238 -400v-267h-177v266zM155 873h179l73 -156h-128z" />
    <glyph glyph-name="ygrave" unicode="&#x1ef3;" horiz-adv-x="573" 
d="M81 -54q14 -10 32 -17t32 -7q23 0 38 8.5t26 37.5l14 38l-218 464h192l100 -272l95 272h176l-187 -463l-35.5 -83.5t-42 -69.5t-59.5 -48t-87 -18q-37 0 -72 10.5t-67 32.5zM153 682h159l48 -142h-117z" />
    <glyph glyph-name="fraction" unicode="&#x2044;" horiz-adv-x="195" 
d="M225 630h143l-394 -630h-147z" />
    <glyph glyph-name="zerosuperior" unicode="&#x2070;" 
d="M178 284q-41 0 -72 14t-51 38t-30 57.5t-10 72.5t10 72t30 57t51 37.5t72 13.5t72 -13.5t51.5 -37.5t30.5 -57t10 -72t-10 -72.5t-30.5 -57.5t-51.5 -38t-72 -14zM178 379q15 0 24 9t13.5 22.5t6 28.5t1.5 27t-1.5 27t-6 28.5t-13.5 22.5t-24 9t-24 -9t-13.5 -22.5
t-6 -28.5t-1.5 -27t1.5 -27t6 -28.5t13.5 -22.5t24 -9z" />
    <glyph glyph-name="onesuperior" unicode="&#xb9;" 
d="M158 524q-17 -8 -33.5 -17t-33.5 -16l-43 86l122 60h107v-343h-119v230z" />
    <glyph glyph-name="twosuperior" unicode="&#xb2;" 
d="M39 356q0 20 9.5 37t24 31.5t32 27t34.5 23.5q23 14 41 28t18 28q0 22 -31 22q-34 0 -80 -29l-55 74q36 24 69 36t73 12q29 0 55 -6.5t45.5 -19.5t31 -33t11.5 -47q0 -25 -8 -43.5t-21.5 -33t-30.5 -26t-35 -22.5l-21.5 -13t-20.5 -14h139v-94h-280v62z" />
    <glyph glyph-name="threesuperior" unicode="&#xb3;" 
d="M69 410q21 -14 45 -22.5t47 -8.5q17 0 30 7t13 22q0 19 -14.5 24.5t-29.5 5.5q-11 0 -24 -1.5t-27 -5.5l-25 51l98 63h-129v92h254v-76l-72 -57q43 -7 64 -33.5t21 -67.5q0 -31 -13.5 -53.5t-36 -37t-51 -21.5t-57.5 -7q-38 0 -75.5 11.5t-72.5 32.5z" />
    <glyph glyph-name="foursuperior" unicode="&#x2074;" 
d="M21 438l149 199h126v-199h36v-86h-36v-58h-110v58h-165v86zM186 438v91l-70 -91h70z" />
    <glyph glyph-name="fivesuperior" unicode="&#x2075;" 
d="M74 410q22 -14 44 -22.5t45 -8.5q15 0 31 5t16 23q0 8 -5 13.5t-12.5 8.5t-16 4.5t-15.5 1.5q-27 0 -58 -11l-52 41l41 172h214v-89h-135l-8 -37q8 1 16.5 1.5t17.5 0.5q25 0 48.5 -5.5t41.5 -18t28.5 -32.5t10.5 -48q0 -32 -14.5 -55.5t-37 -39t-51 -23t-56.5 -7.5
q-38 0 -76 11.5t-72 32.5z" />
    <glyph glyph-name="sixsuperior" unicode="&#x2076;" 
d="M276 537q-9 5 -25 10t-38 5q-29 0 -45.5 -14t-23.5 -35q7 4 24.5 9t45.5 5q30 0 53 -9t38 -24t23 -34.5t8 -41.5q0 -24 -10 -46t-29 -39.5t-47.5 -28t-65.5 -10.5q-30 0 -58 9.5t-50.5 30t-36 52.5t-13.5 77t14.5 81t39.5 61t59.5 38t75.5 13q47 0 99 -23zM142 422
q1 -20 11 -34t32 -14q16 0 28.5 7.5t12.5 23.5q0 17 -11.5 23t-26.5 6q-12 0 -23.5 -3.5t-22.5 -8.5z" />
    <glyph glyph-name="sevensuperior" unicode="&#x2077;" 
d="M62 294q25 66 56.5 128t70.5 123h-150v92h278v-84q-38 -59 -71 -124.5t-56 -134.5h-128z" />
    <glyph glyph-name="eightsuperior" unicode="&#x2078;" 
d="M72 475q-17 12 -27 30.5t-10 40.5q0 28 14 47t35 31t46 17t48 5t48 -5t46 -17t35 -31t14 -47q0 -22 -10 -40.5t-27 -30.5q21 -12 36.5 -33.5t15.5 -47.5q0 -32 -15.5 -53t-39 -33.5t-51 -18t-52.5 -5.5q-24 0 -52 5.5t-51.5 18t-39 33.5t-15.5 53q0 25 16 46.5t36 34.5z
M176 506q12 4 25.5 11.5t13.5 21.5t-12.5 20t-24.5 6t-24.5 -6t-12.5 -20t12 -21.5t23 -11.5zM179 439q-14 -5 -28.5 -16t-14.5 -26t13 -22t29 -7t29 7t13 22t-13.5 26t-27.5 16z" />
    <glyph glyph-name="ninesuperior" unicode="&#x2079;" 
d="M77 395q11 -6 30 -10.5t37 -4.5q35 0 50.5 13t20.5 38q-6 -5 -22.5 -10.5t-41.5 -5.5q-32 0 -56.5 9t-41 24t-24.5 34.5t-8 41.5q0 24 10 46t29 39t47.5 27t65.5 10q30 0 58.5 -9t50.5 -29t35.5 -51.5t13.5 -76.5q0 -91 -48 -143.5t-142 -52.5q-29 0 -56 7.5t-45 16.5z
M217 508q-2 20 -12 34.5t-32 14.5q-17 0 -28.5 -7.5t-11.5 -23.5q0 -17 12 -22.5t26 -5.5q23 0 46 10z" />
    <glyph glyph-name="zeroinferior" unicode="&#x2080;" 
d="M178 -9q-41 0 -72 14t-51 38t-30 57.5t-10 72.5t10 72t30 57t51 37.5t72 13.5t72 -13.5t51.5 -37.5t30.5 -57t10 -72t-10 -72.5t-30.5 -57.5t-51.5 -38t-72 -14zM178 86q15 0 24 9t13.5 22.5t6 28.5t1.5 27t-1.5 27t-6 28.5t-13.5 22.5t-24 9t-24 -9t-13.5 -22.5
t-6 -28.5t-1.5 -27t1.5 -27t6 -28.5t13.5 -22.5t24 -9z" />
    <glyph glyph-name="oneinferior" unicode="&#x2081;" 
d="M158 231q-17 -8 -33.5 -17t-33.5 -16l-43 86l122 60h107v-343h-119v230z" />
    <glyph glyph-name="twoinferior" unicode="&#x2082;" 
d="M39 63q0 20 9.5 37t24 31.5t32 27t34.5 23.5q23 14 41 28t18 28q0 22 -31 22q-34 0 -80 -29l-55 74q36 24 69 36t73 12q29 0 55 -6.5t45.5 -19.5t31 -33t11.5 -47q0 -25 -8 -43.5t-21.5 -33t-30.5 -26t-35 -22.5l-21.5 -13t-20.5 -14h139v-94h-280v62z" />
    <glyph glyph-name="threeinferior" unicode="&#x2083;" 
d="M69 117q21 -14 45 -22.5t47 -8.5q17 0 30 7t13 22q0 19 -14.5 24.5t-29.5 5.5q-11 0 -24 -1.5t-27 -5.5l-25 51l98 63h-129v92h254v-76l-72 -57q43 -7 64 -33.5t21 -67.5q0 -31 -13.5 -53.5t-36 -37t-51 -21.5t-57.5 -7q-38 0 -75.5 11.5t-72.5 32.5z" />
    <glyph glyph-name="fourinferior" unicode="&#x2084;" 
d="M21 145l149 199h126v-199h36v-86h-36v-58h-110v58h-165v86zM186 145v91l-70 -91h70z" />
    <glyph glyph-name="fiveinferior" unicode="&#x2085;" 
d="M74 117q22 -14 44 -22.5t45 -8.5q15 0 31 5t16 23q0 8 -5 13.5t-12.5 8.5t-16 4.5t-15.5 1.5q-27 0 -58 -11l-52 41l41 172h214v-89h-135l-8 -37q8 1 16.5 1.5t17.5 0.5q25 0 48.5 -5.5t41.5 -18t28.5 -32.5t10.5 -48q0 -32 -14.5 -55.5t-37 -39t-51 -23t-56.5 -7.5
q-38 0 -76 11.5t-72 32.5z" />
    <glyph glyph-name="sixinferior" unicode="&#x2086;" 
d="M276 244q-9 5 -25 10t-38 5q-29 0 -45.5 -14t-23.5 -35q7 4 24.5 9t45.5 5q30 0 53 -9t38 -24t23 -34.5t8 -41.5q0 -24 -10 -46t-29 -39.5t-47.5 -28t-65.5 -10.5q-30 0 -58 9.5t-50.5 30t-36 52.5t-13.5 77t14.5 81t39.5 61t59.5 38t75.5 13q47 0 99 -23zM142 129
q1 -20 11 -34t32 -14q16 0 28.5 7.5t12.5 23.5q0 17 -11.5 23t-26.5 6q-12 0 -23.5 -3.5t-22.5 -8.5z" />
    <glyph glyph-name="seveninferior" unicode="&#x2087;" 
d="M62 1q25 66 56.5 128t70.5 123h-150v92h278v-84q-38 -59 -71 -124.5t-56 -134.5h-128z" />
    <glyph glyph-name="eightinferior" unicode="&#x2088;" 
d="M72 182q-17 12 -27 30.5t-10 40.5q0 28 14 47t35 31t46 17t48 5t48 -5t46 -17t35 -31t14 -47q0 -22 -10 -40.5t-27 -30.5q21 -12 36.5 -33.5t15.5 -47.5q0 -32 -15.5 -53t-39 -33.5t-51 -18t-52.5 -5.5q-24 0 -52 5.5t-51.5 18t-39 33.5t-15.5 53q0 25 16 46.5t36 34.5z
M176 213q12 4 25.5 11.5t13.5 21.5t-12.5 20t-24.5 6t-24.5 -6t-12.5 -20t12 -21.5t23 -11.5zM179 146q-14 -5 -28.5 -16t-14.5 -26t13 -22t29 -7t29 7t13 22t-13.5 26t-27.5 16z" />
    <glyph glyph-name="nineinferior" unicode="&#x2089;" 
d="M77 102q11 -6 30 -10.5t37 -4.5q35 0 50.5 13t20.5 38q-6 -5 -22.5 -10.5t-41.5 -5.5q-32 0 -56.5 9t-41 24t-24.5 34.5t-8 41.5q0 24 10 46t29 39t47.5 27t65.5 10q30 0 58.5 -9t50.5 -29t35.5 -51.5t13.5 -76.5q0 -91 -48 -143.5t-142 -52.5q-29 0 -56 7.5t-45 16.5z
M217 215q-2 20 -12 34.5t-32 14.5q-17 0 -28.5 -7.5t-11.5 -23.5q0 -17 12 -22.5t26 -5.5q23 0 46 10z" />
    <glyph glyph-name="afii61289" unicode="&#x2113;" horiz-adv-x="466" 
d="M128 437q0 71 9.5 119.5t28 78t45 42.5t61.5 13q51 0 84 -37.5t33 -106.5q0 -91 -48 -172.5t-136 -163.5v-20q0 -41 6 -66.5t16.5 -39.5t25 -19.5t31.5 -5.5q32 0 61.5 16.5t45.5 39.5l19 -20l21 -18q-27 -40 -65.5 -63t-90.5 -23q-70 0 -108 39.5t-38 127.5
q-13 -10 -24.5 -18l-24.5 -17q-5 11 -11.5 22l-13.5 22q19 13 37 27.5l36 30.5v212zM205 289q54 60 85.5 123.5t31.5 132.5q0 48 -16 67.5t-38 19.5q-26 0 -44.5 -33t-18.5 -109v-201z" />
    <glyph glyph-name="estimated" unicode="&#x212e;" horiz-adv-x="887" 
d="M192 138q0 -13 9 -22q48 -51 110 -79t135 -28q79 0 145 32.5t114 86.5h57q-26 -32 -60.5 -57.5t-75.5 -43.5t-87 -28t-94 -10q-83 0 -156 28.5t-127 77t-85.5 114t-31.5 140.5t31.5 140.5t85.5 114.5t127 77.5t156 28.5t156.5 -28.5t128 -77.5t86 -114.5t31.5 -140.5v-10
h-650q-5 0 -5 -4v-197zM695 358q4 0 4 7v197q0 13 -9 24q-48 48 -110 75t-134 27q-71 0 -134 -29t-110 -77q-5 -4 -7.5 -10.5t-2.5 -13.5v-193q0 -7 5 -7h498z" />
    <glyph glyph-name="onethird" unicode="&#x2153;" horiz-adv-x="925" 
d="M148 524q-17 -8 -33.5 -17t-33.5 -16l-43 86l122 60h107v-343h-119v230zM558 630h143l-394 -630h-147zM601 117q21 -14 45 -22.5t47 -8.5q17 0 30 7t13 22q0 19 -14.5 24.5t-29.5 5.5q-11 0 -24 -1.5t-27 -5.5l-25 51l98 63h-129v92h254v-76l-72 -57q43 -7 64 -33.5
t21 -67.5q0 -31 -13.5 -53.5t-36 -37t-51 -21.5t-57.5 -7q-38 0 -75.5 11.5t-72.5 32.5z" />
    <glyph glyph-name="twothirds" unicode="&#x2154;" horiz-adv-x="925" 
d="M56 356q0 20 9.5 37t24 31.5t32 27t34.5 23.5q23 14 41 28t18 28q0 22 -31 22q-34 0 -80 -29l-55 74q36 24 69 36t73 12q29 0 55 -6.5t45.5 -19.5t31 -33t11.5 -47q0 -25 -8 -43.5t-21.5 -33t-30.5 -26t-35 -22.5l-21.5 -13t-20.5 -14h139v-94h-280v62zM603 630h143
l-394 -630h-147zM634 117q21 -14 45 -22.5t47 -8.5q17 0 30 7t13 22q0 19 -14.5 24.5t-29.5 5.5q-11 0 -24 -1.5t-27 -5.5l-25 51l98 63h-129v92h254v-76l-72 -57q43 -7 64 -33.5t21 -67.5q0 -31 -13.5 -53.5t-36 -37t-51 -21.5t-57.5 -7q-38 0 -75.5 11.5t-72.5 32.5z" />
    <glyph glyph-name="oneeighth" unicode="&#x215b;" horiz-adv-x="925" 
d="M145 524q-17 -8 -33.5 -17t-33.5 -16l-43 86l122 60h107v-343h-119v230zM556 630h143l-394 -630h-147zM598 182q-17 12 -27 30.5t-10 40.5q0 28 14 47t35 31t46 17t48 5t48 -5t46 -17t35 -31t14 -47q0 -22 -10 -40.5t-27 -30.5q21 -12 36.5 -33.5t15.5 -47.5
q0 -32 -15.5 -53t-39 -33.5t-51 -18t-52.5 -5.5q-24 0 -52 5.5t-51.5 18t-39 33.5t-15.5 53q0 25 16 46.5t36 34.5zM702 213q12 4 25.5 11.5t13.5 21.5t-12.5 20t-24.5 6t-24.5 -6t-12.5 -20t12 -21.5t23 -11.5zM705 146q-14 -5 -28.5 -16t-14.5 -26t13 -22t29 -7t29 7
t13 22t-13.5 26t-27.5 16z" />
    <glyph glyph-name="threeeighths" unicode="&#x215c;" horiz-adv-x="925" 
d="M95 410q21 -14 45 -22.5t47 -8.5q17 0 30 7t13 22q0 19 -14.5 24.5t-29.5 5.5q-11 0 -24 -1.5t-27 -5.5l-25 51l98 63h-129v92h254v-76l-72 -57q43 -7 64 -33.5t21 -67.5q0 -31 -13.5 -53.5t-36 -37t-51 -21.5t-57.5 -7q-38 0 -75.5 11.5t-72.5 32.5zM587 630h143
l-394 -630h-147zM626 182q-17 12 -27 30.5t-10 40.5q0 28 14 47t35 31t46 17t48 5t48 -5t46 -17t35 -31t14 -47q0 -22 -10 -40.5t-27 -30.5q21 -12 36.5 -33.5t15.5 -47.5q0 -32 -15.5 -53t-39 -33.5t-51 -18t-52.5 -5.5q-24 0 -52 5.5t-51.5 18t-39 33.5t-15.5 53
q0 25 16 46.5t36 34.5zM730 213q12 4 25.5 11.5t13.5 21.5t-12.5 20t-24.5 6t-24.5 -6t-12.5 -20t12 -21.5t23 -11.5zM733 146q-14 -5 -28.5 -16t-14.5 -26t13 -22t29 -7t29 7t13 22t-13.5 26t-27.5 16z" />
    <glyph glyph-name="fiveeighths" unicode="&#x215d;" horiz-adv-x="925" 
d="M101 410q22 -14 44 -22.5t45 -8.5q15 0 31 5t16 23q0 8 -5 13.5t-12.5 8.5t-16 4.5t-15.5 1.5q-27 0 -58 -11l-52 41l41 172h214v-89h-135l-8 -37q8 1 16.5 1.5t17.5 0.5q25 0 48.5 -5.5t41.5 -18t28.5 -32.5t10.5 -48q0 -32 -14.5 -55.5t-37 -39t-51 -23t-56.5 -7.5
q-38 0 -76 11.5t-72 32.5zM592 630h143l-394 -630h-147zM624 182q-17 12 -27 30.5t-10 40.5q0 28 14 47t35 31t46 17t48 5t48 -5t46 -17t35 -31t14 -47q0 -22 -10 -40.5t-27 -30.5q21 -12 36.5 -33.5t15.5 -47.5q0 -32 -15.5 -53t-39 -33.5t-51 -18t-52.5 -5.5
q-24 0 -52 5.5t-51.5 18t-39 33.5t-15.5 53q0 25 16 46.5t36 34.5zM728 213q12 4 25.5 11.5t13.5 21.5t-12.5 20t-24.5 6t-24.5 -6t-12.5 -20t12 -21.5t23 -11.5zM731 146q-14 -5 -28.5 -16t-14.5 -26t13 -22t29 -7t29 7t13 22t-13.5 26t-27.5 16z" />
    <glyph glyph-name="seveneighths" unicode="&#x215e;" horiz-adv-x="925" 
d="M97 294q25 66 56.5 128t70.5 123h-150v92h278v-84q-38 -59 -71 -124.5t-56 -134.5h-128zM558 630h143l-394 -630h-147zM602 182q-17 12 -27 30.5t-10 40.5q0 28 14 47t35 31t46 17t48 5t48 -5t46 -17t35 -31t14 -47q0 -22 -10 -40.5t-27 -30.5q21 -12 36.5 -33.5
t15.5 -47.5q0 -32 -15.5 -53t-39 -33.5t-51 -18t-52.5 -5.5q-24 0 -52 5.5t-51.5 18t-39 33.5t-15.5 53q0 25 16 46.5t36 34.5zM706 213q12 4 25.5 11.5t13.5 21.5t-12.5 20t-24.5 6t-24.5 -6t-12.5 -20t12 -21.5t23 -11.5zM709 146q-14 -5 -28.5 -16t-14.5 -26t13 -22
t29 -7t29 7t13 22t-13.5 26t-27.5 16z" />
    <glyph glyph-name="onefifth" unicode="&#x2155;" horiz-adv-x="925" 
d="M148 524q-17 -8 -33.5 -17t-33.5 -16l-43 86l122 60h107v-343h-119v230zM564 630h143l-394 -630h-147zM598 117q22 -14 44 -22.5t45 -8.5q15 0 31 5t16 23q0 8 -5 13.5t-12.5 8.5t-16 4.5t-15.5 1.5q-27 0 -58 -11l-52 41l41 172h214v-89h-135l-8 -37q8 1 16.5 1.5
t17.5 0.5q25 0 48.5 -5.5t41.5 -18t28.5 -32.5t10.5 -48q0 -32 -14.5 -55.5t-37 -39t-51 -23t-56.5 -7.5q-38 0 -76 11.5t-72 32.5z" />
    <glyph glyph-name="twofifths" unicode="&#x2156;" horiz-adv-x="925" 
d="M63 356q0 20 9.5 37t24 31.5t32 27t34.5 23.5q23 14 41 28t18 28q0 22 -31 22q-34 0 -80 -29l-55 74q36 24 69 36t73 12q29 0 55 -6.5t45.5 -19.5t31 -33t11.5 -47q0 -25 -8 -43.5t-21.5 -33t-30.5 -26t-35 -22.5l-21.5 -13t-20.5 -14h139v-94h-280v62zM609 630h143
l-394 -630h-147zM623 117q22 -14 44 -22.5t45 -8.5q15 0 31 5t16 23q0 8 -5 13.5t-12.5 8.5t-16 4.5t-15.5 1.5q-27 0 -58 -11l-52 41l41 172h214v-89h-135l-8 -37q8 1 16.5 1.5t17.5 0.5q25 0 48.5 -5.5t41.5 -18t28.5 -32.5t10.5 -48q0 -32 -14.5 -55.5t-37 -39t-51 -23
t-56.5 -7.5q-38 0 -76 11.5t-72 32.5z" />
    <glyph glyph-name="threefifths" unicode="&#x2157;" horiz-adv-x="925" 
d="M111 410q21 -14 45 -22.5t47 -8.5q17 0 30 7t13 22q0 19 -14.5 24.5t-29.5 5.5q-11 0 -24 -1.5t-27 -5.5l-25 51l98 63h-129v92h254v-76l-72 -57q43 -7 64 -33.5t21 -67.5q0 -31 -13.5 -53.5t-36 -37t-51 -21.5t-57.5 -7q-38 0 -75.5 11.5t-72.5 32.5zM597 630h143
l-394 -630h-147zM611 117q22 -14 44 -22.5t45 -8.5q15 0 31 5t16 23q0 8 -5 13.5t-12.5 8.5t-16 4.5t-15.5 1.5q-27 0 -58 -11l-52 41l41 172h214v-89h-135l-8 -37q8 1 16.5 1.5t17.5 0.5q25 0 48.5 -5.5t41.5 -18t28.5 -32.5t10.5 -48q0 -32 -14.5 -55.5t-37 -39t-51 -23
t-56.5 -7.5q-38 0 -76 11.5t-72 32.5z" />
    <glyph glyph-name="fourfifths" unicode="&#x2158;" horiz-adv-x="925" 
d="M39 438l149 199h126v-199h36v-86h-36v-58h-110v58h-165v86zM204 438v91l-70 -91h70zM605 630h143l-394 -630h-147zM623 117q22 -14 44 -22.5t45 -8.5q15 0 31 5t16 23q0 8 -5 13.5t-12.5 8.5t-16 4.5t-15.5 1.5q-27 0 -58 -11l-52 41l41 172h214v-89h-135l-8 -37
q8 1 16.5 1.5t17.5 0.5q25 0 48.5 -5.5t41.5 -18t28.5 -32.5t10.5 -48q0 -32 -14.5 -55.5t-37 -39t-51 -23t-56.5 -7.5q-38 0 -76 11.5t-72 32.5z" />
    <glyph glyph-name="onesixth" unicode="&#x2159;" horiz-adv-x="925" 
d="M152 524q-17 -8 -33.5 -17t-33.5 -16l-43 86l122 60h107v-343h-119v230zM570 630h143l-394 -630h-147zM802 244q-9 5 -25 10t-38 5q-29 0 -45.5 -14t-23.5 -35q7 4 24.5 9t45.5 5q30 0 53 -9t38 -24t23 -34.5t8 -41.5q0 -24 -10 -46t-29 -39.5t-47.5 -28t-65.5 -10.5
q-30 0 -58 9.5t-50.5 30t-36 52.5t-13.5 77t14.5 81t39.5 61t59.5 38t75.5 13q47 0 99 -23zM668 129q1 -20 11 -34t32 -14q16 0 28.5 7.5t12.5 23.5q0 17 -11.5 23t-26.5 6q-12 0 -23.5 -3.5t-22.5 -8.5z" />
    <glyph glyph-name="fivesixths" unicode="&#x215a;" horiz-adv-x="925" 
d="M108 410q22 -14 44 -22.5t45 -8.5q15 0 31 5t16 23q0 8 -5 13.5t-12.5 8.5t-16 4.5t-15.5 1.5q-27 0 -58 -11l-52 41l41 172h214v-89h-135l-8 -37q8 1 16.5 1.5t17.5 0.5q25 0 48.5 -5.5t41.5 -18t28.5 -32.5t10.5 -48q0 -32 -14.5 -55.5t-37 -39t-51 -23t-56.5 -7.5
q-38 0 -76 11.5t-72 32.5zM596 630h143l-394 -630h-147zM810 244q-9 5 -25 10t-38 5q-29 0 -45.5 -14t-23.5 -35q7 4 24.5 9t45.5 5q30 0 53 -9t38 -24t23 -34.5t8 -41.5q0 -24 -10 -46t-29 -39.5t-47.5 -28t-65.5 -10.5q-30 0 -58 9.5t-50.5 30t-36 52.5t-13.5 77t14.5 81
t39.5 61t59.5 38t75.5 13q47 0 99 -23zM676 129q1 -20 11 -34t32 -14q16 0 28.5 7.5t12.5 23.5q0 17 -11.5 23t-26.5 6q-12 0 -23.5 -3.5t-22.5 -8.5z" />
    <glyph glyph-name="oneseventh" unicode="&#xf506;" horiz-adv-x="925" 
d="M154 524q-17 -8 -33.5 -17t-33.5 -16l-43 86l122 60h107v-343h-119v230zM557 630h143l-394 -630h-147zM592 1q25 66 56.5 128t70.5 123h-150v92h278v-84q-38 -59 -71 -124.5t-56 -134.5h-128z" />
    <glyph glyph-name="twosevenths" unicode="&#xf507;" horiz-adv-x="925" 
d="M58 356q0 20 9.5 37t24 31.5t32 27t34.5 23.5q23 14 41 28t18 28q0 22 -31 22q-34 0 -80 -29l-55 74q36 24 69 36t73 12q29 0 55 -6.5t45.5 -19.5t31 -33t11.5 -47q0 -25 -8 -43.5t-21.5 -33t-30.5 -26t-35 -22.5l-21.5 -13t-20.5 -14h139v-94h-280v62zM594 630h143
l-394 -630h-147zM616 1q25 66 56.5 128t70.5 123h-150v92h278v-84q-38 -59 -71 -124.5t-56 -134.5h-128z" />
    <glyph glyph-name="threesevenths" unicode="&#xf508;" horiz-adv-x="925" 
d="M104 410q21 -14 45 -22.5t47 -8.5q17 0 30 7t13 22q0 19 -14.5 24.5t-29.5 5.5q-11 0 -24 -1.5t-27 -5.5l-25 51l98 63h-129v92h254v-76l-72 -57q43 -7 64 -33.5t21 -67.5q0 -31 -13.5 -53.5t-36 -37t-51 -21.5t-57.5 -7q-38 0 -75.5 11.5t-72.5 32.5zM590 630h143
l-394 -630h-147zM622 1q25 66 56.5 128t70.5 123h-150v92h278v-84q-38 -59 -71 -124.5t-56 -134.5h-128z" />
    <glyph glyph-name="foursevenths" unicode="&#xf509;" horiz-adv-x="925" 
d="M50 438l149 199h126v-199h36v-86h-36v-58h-110v58h-165v86zM215 438v91l-70 -91h70zM594 630h143l-394 -630h-147zM616 1q25 66 56.5 128t70.5 123h-150v92h278v-84q-38 -59 -71 -124.5t-56 -134.5h-128z" />
    <glyph glyph-name="fivesevenths" unicode="&#xf50a;" horiz-adv-x="925" 
d="M108 410q22 -14 44 -22.5t45 -8.5q15 0 31 5t16 23q0 8 -5 13.5t-12.5 8.5t-16 4.5t-15.5 1.5q-27 0 -58 -11l-52 41l41 172h214v-89h-135l-8 -37q8 1 16.5 1.5t17.5 0.5q25 0 48.5 -5.5t41.5 -18t28.5 -32.5t10.5 -48q0 -32 -14.5 -55.5t-37 -39t-51 -23t-56.5 -7.5
q-38 0 -76 11.5t-72 32.5zM587 630h143l-394 -630h-147zM619 1q25 66 56.5 128t70.5 123h-150v92h278v-84q-38 -59 -71 -124.5t-56 -134.5h-128z" />
    <glyph glyph-name="sixsevenths" unicode="&#xf50b;" horiz-adv-x="925" 
d="M299 537q-9 5 -25 10t-38 5q-29 0 -45.5 -14t-23.5 -35q7 4 24.5 9t45.5 5q30 0 53 -9t38 -24t23 -34.5t8 -41.5q0 -24 -10 -46t-29 -39.5t-47.5 -28t-65.5 -10.5q-30 0 -58 9.5t-50.5 30t-36 52.5t-13.5 77t14.5 81t39.5 61t59.5 38t75.5 13q47 0 99 -23zM165 422
q1 -20 11 -34t32 -14q16 0 28.5 7.5t12.5 23.5q0 17 -11.5 23t-26.5 6q-12 0 -23.5 -3.5t-22.5 -8.5zM583 630h143l-394 -630h-147zM610 1q25 66 56.5 128t70.5 123h-150v92h278v-84q-38 -59 -71 -124.5t-56 -134.5h-128z" />
    <glyph glyph-name="oneninth" unicode="&#xf50c;" horiz-adv-x="925" 
d="M149 524q-17 -8 -33.5 -17t-33.5 -16l-43 86l122 60h107v-343h-119v230zM555 630h143l-394 -630h-147zM602 102q11 -6 30 -10.5t37 -4.5q35 0 50.5 13t20.5 38q-6 -5 -22.5 -10.5t-41.5 -5.5q-32 0 -56.5 9t-41 24t-24.5 34.5t-8 41.5q0 24 10 46t29 39t47.5 27t65.5 10
q30 0 58.5 -9t50.5 -29t35.5 -51.5t13.5 -76.5q0 -91 -48 -143.5t-142 -52.5q-29 0 -56 7.5t-45 16.5zM742 215q-2 20 -12 34.5t-32 14.5q-17 0 -28.5 -7.5t-11.5 -23.5q0 -17 12 -22.5t26 -5.5q23 0 46 10z" />
    <glyph glyph-name="twoninths" unicode="&#xf50d;" horiz-adv-x="925" 
d="M57 356q0 20 9.5 37t24 31.5t32 27t34.5 23.5q23 14 41 28t18 28q0 22 -31 22q-34 0 -80 -29l-55 74q36 24 69 36t73 12q29 0 55 -6.5t45.5 -19.5t31 -33t11.5 -47q0 -25 -8 -43.5t-21.5 -33t-30.5 -26t-35 -22.5l-21.5 -13t-20.5 -14h139v-94h-280v62zM596 630h143
l-394 -630h-147zM630 102q11 -6 30 -10.5t37 -4.5q35 0 50.5 13t20.5 38q-6 -5 -22.5 -10.5t-41.5 -5.5q-32 0 -56.5 9t-41 24t-24.5 34.5t-8 41.5q0 24 10 46t29 39t47.5 27t65.5 10q30 0 58.5 -9t50.5 -29t35.5 -51.5t13.5 -76.5q0 -91 -48 -143.5t-142 -52.5
q-29 0 -56 7.5t-45 16.5zM770 215q-2 20 -12 34.5t-32 14.5q-17 0 -28.5 -7.5t-11.5 -23.5q0 -17 12 -22.5t26 -5.5q23 0 46 10z" />
    <glyph glyph-name="fourninths" unicode="&#xf50e;" horiz-adv-x="925" 
d="M45 438l149 199h126v-199h36v-86h-36v-58h-110v58h-165v86zM210 438v91l-70 -91h70zM599 630h143l-394 -630h-147zM626 102q11 -6 30 -10.5t37 -4.5q35 0 50.5 13t20.5 38q-6 -5 -22.5 -10.5t-41.5 -5.5q-32 0 -56.5 9t-41 24t-24.5 34.5t-8 41.5q0 24 10 46t29 39
t47.5 27t65.5 10q30 0 58.5 -9t50.5 -29t35.5 -51.5t13.5 -76.5q0 -91 -48 -143.5t-142 -52.5q-29 0 -56 7.5t-45 16.5zM766 215q-2 20 -12 34.5t-32 14.5q-17 0 -28.5 -7.5t-11.5 -23.5q0 -17 12 -22.5t26 -5.5q23 0 46 10z" />
    <glyph glyph-name="fiveninths" unicode="&#xf50f;" horiz-adv-x="925" 
d="M110 410q22 -14 44 -22.5t45 -8.5q15 0 31 5t16 23q0 8 -5 13.5t-12.5 8.5t-16 4.5t-15.5 1.5q-27 0 -58 -11l-52 41l41 172h214v-89h-135l-8 -37q8 1 16.5 1.5t17.5 0.5q25 0 48.5 -5.5t41.5 -18t28.5 -32.5t10.5 -48q0 -32 -14.5 -55.5t-37 -39t-51 -23t-56.5 -7.5
q-38 0 -76 11.5t-72 32.5zM592 630h143l-394 -630h-147zM628 102q11 -6 30 -10.5t37 -4.5q35 0 50.5 13t20.5 38q-6 -5 -22.5 -10.5t-41.5 -5.5q-32 0 -56.5 9t-41 24t-24.5 34.5t-8 41.5q0 24 10 46t29 39t47.5 27t65.5 10q30 0 58.5 -9t50.5 -29t35.5 -51.5t13.5 -76.5
q0 -91 -48 -143.5t-142 -52.5q-29 0 -56 7.5t-45 16.5zM768 215q-2 20 -12 34.5t-32 14.5q-17 0 -28.5 -7.5t-11.5 -23.5q0 -17 12 -22.5t26 -5.5q23 0 46 10z" />
    <glyph glyph-name="sevenninths" unicode="&#xf510;" horiz-adv-x="925" 
d="M100 294q25 66 56.5 128t70.5 123h-150v92h278v-84q-38 -59 -71 -124.5t-56 -134.5h-128zM549 630h143l-394 -630h-147zM600 102q11 -6 30 -10.5t37 -4.5q35 0 50.5 13t20.5 38q-6 -5 -22.5 -10.5t-41.5 -5.5q-32 0 -56.5 9t-41 24t-24.5 34.5t-8 41.5q0 24 10 46t29 39
t47.5 27t65.5 10q30 0 58.5 -9t50.5 -29t35.5 -51.5t13.5 -76.5q0 -91 -48 -143.5t-142 -52.5q-29 0 -56 7.5t-45 16.5zM740 215q-2 20 -12 34.5t-32 14.5q-17 0 -28.5 -7.5t-11.5 -23.5q0 -17 12 -22.5t26 -5.5q23 0 46 10z" />
    <glyph glyph-name="eightninths" unicode="&#xf511;" horiz-adv-x="925" 
d="M99 475q-17 12 -27 30.5t-10 40.5q0 28 14 47t35 31t46 17t48 5t48 -5t46 -17t35 -31t14 -47q0 -22 -10 -40.5t-27 -30.5q21 -12 36.5 -33.5t15.5 -47.5q0 -32 -15.5 -53t-39 -33.5t-51 -18t-52.5 -5.5q-24 0 -52 5.5t-51.5 18t-39 33.5t-15.5 53q0 25 16 46.5t36 34.5z
M203 506q12 4 25.5 11.5t13.5 21.5t-12.5 20t-24.5 6t-24.5 -6t-12.5 -20t12 -21.5t23 -11.5zM206 439q-14 -5 -28.5 -16t-14.5 -26t13 -22t29 -7t29 7t13 22t-13.5 26t-27.5 16zM592 630h143l-394 -630h-147zM625 102q11 -6 30 -10.5t37 -4.5q35 0 50.5 13t20.5 38
q-6 -5 -22.5 -10.5t-41.5 -5.5q-32 0 -56.5 9t-41 24t-24.5 34.5t-8 41.5q0 24 10 46t29 39t47.5 27t65.5 10q30 0 58.5 -9t50.5 -29t35.5 -51.5t13.5 -76.5q0 -91 -48 -143.5t-142 -52.5q-29 0 -56 7.5t-45 16.5zM765 215q-2 20 -12 34.5t-32 14.5q-17 0 -28.5 -7.5
t-11.5 -23.5q0 -17 12 -22.5t26 -5.5q23 0 46 10z" />
    <glyph glyph-name="partialdiff" unicode="&#x2202;" horiz-adv-x="556" 
d="M88 601q41 24 86.5 35.5t93.5 11.5q65 0 113 -23t80 -63.5t47.5 -96t15.5 -120.5q0 -73 -19 -139t-56.5 -115.5t-93.5 -78.5t-130 -29q-45 0 -83 13.5t-66 39t-44 62t-16 82.5q0 49 17.5 92.5t49 76.5t74.5 52t93 19q29 0 56.5 -6t52.5 -20q-2 50 -32.5 80.5t-81.5 30.5
q-25 0 -49.5 -6.5t-47.5 -17.5zM350 269q-18 12 -39 17.5t-43 5.5q-42 0 -68 -25.5t-26 -67.5q0 -31 17.5 -49.5t49.5 -18.5q27 0 46 12.5t32 32.5t20 44.5t11 48.5z" />
    <glyph glyph-name="Delta" unicode="&#x2206;" horiz-adv-x="708" 
d="M30 138l237 529h174l237 -529v-138h-648v138zM489 155l-138 338l-134 -338h272z" />
    <glyph glyph-name="product" unicode="&#x220f;" horiz-adv-x="765" 
d="M122 510h-107v160h735v-160h-106v-634h-177v634h-168v-634h-177v634z" />
    <glyph glyph-name="summation" unicode="&#x2211;" horiz-adv-x="594" 
d="M36 25l173 255l-86.5 120l-86.5 121v149h523v-155h-315l86 -118.5l86 -117.5l-172 -247h315v-156h-523v149z" />
    <glyph glyph-name="uni2126" unicode="&#x2126;" horiz-adv-x="778" 
d="M35 152h123q-28 19 -49 44.5t-35 54.5t-21 60t-7 61q0 73 27.5 131.5t74.5 99t109.5 62.5t131.5 22t131.5 -22t110 -62.5t75 -99t27.5 -131.5q0 -30 -7.5 -61t-22 -60t-35.5 -54.5t-49 -44.5h124v-152h-301v153q27 12 47 32.5t33.5 46t20.5 55t7 58.5q0 36 -10.5 68
t-31 56t-50.5 37.5t-69 13.5t-68.5 -13.5t-50 -37.5t-31 -56t-10.5 -68q0 -29 6.5 -58.5t20 -55t33.5 -46t47 -32.5v-153h-301v152z" />
    <glyph glyph-name="minus" unicode="&#x2212;" horiz-adv-x="561" 
d="M81 382h399v-132h-399v132z" />
    <glyph glyph-name="uni2215" unicode="&#x2215;" horiz-adv-x="195" 
d="M225 630h143l-394 -630h-147z" />
    <glyph glyph-name="uni2219" unicode="&#x2219;" horiz-adv-x="258" 
d="M55 428h148v-136h-148v136z" />
    <glyph glyph-name="radical" unicode="&#x221a;" horiz-adv-x="643" 
d="M155 253h-89v163h191l87 -177l167 493h175l-252 -732h-150z" />
    <glyph glyph-name="infinity" unicode="&#x221e;" horiz-adv-x="716" 
d="M358 189q-20 -29 -58.5 -50.5t-83.5 -21.5q-84 0 -135 51.5t-51 145.5t51 145.5t135 51.5q45 0 83.5 -21.5t59.5 -50.5q20 29 58.5 50.5t84.5 21.5q40 0 74 -13.5t58.5 -38.5t38 -62t13.5 -83q0 -47 -13.5 -83.5t-38 -61.5t-59 -38.5t-75.5 -13.5q-45 0 -83 21.5
t-59 50.5zM410 314q5 -20 14.5 -35t21.5 -26t25 -16.5t25 -5.5q34 0 52.5 25.5t18.5 57.5t-18.5 57.5t-52.5 25.5q-12 0 -25 -5.5t-25 -16.5t-21.5 -26.5t-14.5 -34.5zM306 314q-5 19 -14.5 34.5t-21.5 26.5t-25 16.5t-25 5.5q-34 0 -52.5 -25.5t-18.5 -57.5t18.5 -57.5
t52.5 -25.5q12 0 25 5.5t25 16.5t21.5 26t14.5 35z" />
    <glyph glyph-name="integral" unicode="&#x222b;" horiz-adv-x="565" 
d="M195 488q0 37 11.5 72.5t37 63.5t65.5 44.5t96 16.5q62 0 100 -19t60 -40l-80 -102q-10 7 -26 17t-39 10q-27 0 -41.5 -17.5t-14.5 -40.5v-418q0 -38 -11.5 -73t-37 -63t-65.5 -44.5t-96 -16.5q-62 0 -100 19t-60 40l80 102q10 -7 26 -17t39 -10q27 0 41.5 17.5
t14.5 40.5v418z" />
    <glyph glyph-name="approxequal" unicode="&#x2248;" horiz-adv-x="561" 
d="M39 440q29 30 65 49t78 19q22 0 40.5 -7t36.5 -15t36.5 -15t39.5 -7q32 0 55.5 9.5t48.5 27.5l62 -104q-13 -14 -30.5 -26t-36 -22t-38 -15.5t-36.5 -5.5q-22 0 -43 7.5t-41 17t-39 17t-37 7.5q-32 0 -54.5 -11t-46.5 -29zM57 248q26 28 63 49t77 21q22 0 42 -7t39 -15.5
t38.5 -15.5t41.5 -7q30 0 53 9t48 27l63 -105q-13 -13 -30 -25.5t-36.5 -22t-39.5 -15t-39 -5.5q-22 0 -40.5 8t-36.5 17t-37 17t-40 8q-32 0 -56 -11.5t-48 -29.5z" />
    <glyph glyph-name="notequal" unicode="&#x2260;" horiz-adv-x="561" 
d="M137 143h-56v132h126l36 66h-162v132h232l55 102l87 -44l-31 -58h56v-132h-127l-35 -66h162v-132h-233l-55 -104l-87 44z" />
    <glyph glyph-name="lessequal" unicode="&#x2264;" horiz-adv-x="561" 
d="M81 132h399v-132h-399v132zM70 433l353 187l60 -119l-229 -114l237 -114l-68 -124l-353 187v97z" />
    <glyph glyph-name="greaterequal" unicode="&#x2265;" horiz-adv-x="561" 
d="M81 132h399v-132h-399v132zM70 273l237 114l-229 114l60 119l353 -187v-97l-353 -187z" />
    <glyph glyph-name="lozenge" unicode="&#x25ca;" horiz-adv-x="590" 
d="M27 336l99 167.5l99 167.5h140l99 -167.5l99 -167.5l-198 -336h-140l-99 168zM391 336l-97 173l-95 -173l95 -174z" />
    <glyph glyph-name="fi" unicode="&#xf001;" horiz-adv-x="605" 
d="M87 340h-72v130h72v6q0 42 13.5 76t32.5 57q34 41 88 58.5t114 17.5q57 0 110.5 -13t91.5 -36l-61 -113q-32 14 -64.5 23.5t-67.5 9.5q-18 0 -34 -3.5t-28 -12t-19 -22.5t-7 -35v-13h297v-470h-169v340h-128v-340h-169v340z" />
    <glyph glyph-name="fl" unicode="&#xf002;" horiz-adv-x="602" 
d="M87 340h-72v130h72v9q0 57 20.5 96.5t55.5 64t81 35t97 10.5q54 0 110 -12.5t102 -41.5v-631h-169v547q-11 5 -25 6.5t-26 1.5q-35 0 -56 -17t-21 -53v-15h79v-130h-79v-340h-169v340z" />
    <glyph glyph-name="zero.alt" unicode="&#xf800;" horiz-adv-x="575" 
d="M288 -16q-62 0 -109 24t-78.5 68t-47.5 105t-16 135t16 135t47.5 105t78.5 68t109 24q66 0 113.5 -24t77.5 -68t44.5 -105t14.5 -135t-14.5 -135t-44.5 -105t-77.5 -68t-113.5 -24zM288 138q24 0 39 14t24 38t12.5 56.5t3.5 69.5t-3.5 69.5t-12.5 56.5t-24 38t-39 14
t-39.5 -14t-24 -38t-12 -56.5t-3.5 -69.5t3.5 -69.5t12 -56.5t24 -38t39.5 -14z" />
    <glyph glyph-name="one.alt" unicode="&#xf801;" horiz-adv-x="472" 
d="M60 144h110v302l-89 -48l-72 128l189 104h135v-486h102v-144h-375v144z" />
    <glyph glyph-name="two.alt" unicode="&#xf802;" horiz-adv-x="528" 
d="M32 92q0 49 21 88t52 70.5t68 58l68 49.5t52 44.5t21 44.5q0 21 -18 38.5t-55 17.5q-20 0 -36.5 -7t-29.5 -17t-22 -21.5t-15 -20.5l-122 84q15 25 37.5 48t53 40.5t69.5 28t87 10.5q53 0 94 -16t68.5 -42.5t42 -60t14.5 -68.5q0 -43 -18 -77.5t-45.5 -63t-60 -51.5
l-60.5 -43.5t-47 -39t-20 -36.5h253v-150h-452v92z" />
    <glyph glyph-name="three.alt" unicode="&#xf803;" horiz-adv-x="544" 
d="M89 189q35 -30 67 -44.5t69 -14.5q19 0 36 5t30 15t21 25.5t8 36.5q0 14 -5.5 28t-16.5 25t-27 18t-37 7q-23 0 -41.5 -4.5t-25.5 -8.5l-38 62l160 148h-233v143h415v-116l-122 -132q66 -17 103.5 -66t37.5 -123q0 -50 -22 -89t-57.5 -65.5t-80.5 -40.5t-91 -14
q-72 0 -132.5 21.5t-105.5 61.5z" />
    <glyph glyph-name="four.alt" unicode="&#xf804;" horiz-adv-x="564" 
d="M26 232l269 398h167v-385h63v-135h-63v-110h-155v110h-281v122zM307 245v188l-128 -188h128z" />
    <glyph glyph-name="five.alt" unicode="&#xf805;" horiz-adv-x="509" 
d="M82 187q27 -25 57.5 -41t67.5 -16q49 0 72.5 25.5t23.5 56.5q0 16 -6 31t-18 27t-30 19.5t-41 7.5q-18 0 -43 -4.5t-46 -15.5l-72 53l47 300h353v-143h-241l-12 -80q7 2 27 4t33 2q47 0 86.5 -14.5t68 -40.5t44.5 -64t16 -84t-16 -87t-47.5 -72t-77 -49t-105.5 -18
q-77 0 -131.5 24.5t-97.5 64.5z" />
    <glyph glyph-name="six.alt" unicode="&#xf806;" horiz-adv-x="551" 
d="M432 481q-24 13 -49.5 18.5t-45.5 5.5q-18 0 -37.5 -6t-37 -19.5t-31.5 -35.5t-21 -54q22 15 52 23t56 8q49 0 87.5 -16t65 -43.5t40 -65.5t13.5 -81q0 -47 -16 -89.5t-46.5 -74t-74 -50t-98.5 -18.5q-53 0 -99 17.5t-79.5 56.5t-53 100t-19.5 148q0 70 19.5 132
t57.5 109t93.5 74.5t127.5 27.5q53 0 89 -12t63 -26zM205 260q1 -38 8.5 -63t19.5 -40t27 -21.5t30 -6.5q36 0 56.5 23.5t20.5 59.5q0 39 -23.5 59t-55.5 21q-27 0 -47 -9t-36 -23z" />
    <glyph glyph-name="seven.alt" unicode="&#xf807;" horiz-adv-x="496" 
d="M69 0q18 58 45 127t57.5 135.5t60.5 125.5t54 97h-269v145h441v-135q-41 -70 -72.5 -134t-57 -124.5t-46 -119l-39.5 -117.5h-174z" />
    <glyph glyph-name="eight.alt" unicode="&#xf808;" horiz-adv-x="590" 
d="M294 386q31 10 53 29.5t22 48.5q0 31 -21 49.5t-54 18.5t-54 -18.5t-21 -49.5q0 -29 22 -48.5t53 -29.5zM294 277q-16 -5 -32 -12t-28.5 -17.5t-20.5 -25t-8 -33.5q0 -18 7.5 -32t20 -23t28.5 -13.5t33 -4.5t33 4.5t28.5 13.5t20 23t7.5 32q0 19 -8 33.5t-21 25
t-28.5 17.5t-31.5 12zM141 346q-29 18 -51.5 52t-22.5 79q0 36 16 67t45.5 54.5t71.5 36.5t94 13t94 -13t72 -36.5t46.5 -54.5t16.5 -67q0 -45 -22.5 -79t-51.5 -52q47 -23 75 -62.5t28 -100.5q0 -34 -15.5 -69.5t-47.5 -64t-80.5 -47t-114.5 -18.5q-65 0 -113 17t-80 44.5
t-47.5 63t-15.5 72.5q0 61 29 101.5t74 63.5z" />
    <glyph glyph-name="nine.alt" unicode="&#xf809;" horiz-adv-x="545" 
d="M118 152q24 -14 51 -20t47 -6q60 0 88 28t36 84q-23 -14 -53 -21.5t-60 -7.5q-50 0 -87 17t-61.5 46t-37 66t-12.5 78q0 47 15.5 89.5t45 74t72 50t97.5 18.5q53 0 98.5 -18t79.5 -58t53 -105t19 -159q0 -59 -16 -117t-50.5 -104.5t-90.5 -75t-135 -28.5
q-53 0 -93.5 12.5t-66.5 27.5zM344 381q0 65 -23.5 93t-57.5 28q-36 0 -56.5 -23.5t-20.5 -59.5q0 -35 19.5 -56.5t51.5 -22.5q29 0 48.5 8.5t38.5 25.5v7z" />
    <glyph glyph-name="zero.sups" unicode="&#xf80a;" 
d="M178 374q-41 0 -72 14t-51 38t-30 57.5t-10 72.5t10 72t30 57t51 37.5t72 13.5t72 -13.5t51.5 -37.5t30.5 -57t10 -72t-10 -72.5t-30.5 -57.5t-51.5 -38t-72 -14zM178 469q15 0 24 9t13.5 22.5t6 28.5t1.5 27t-1.5 27t-6 28.5t-13.5 22.5t-24 9t-24 -9t-13.5 -22.5
t-6 -28.5t-1.5 -27t1.5 -27t6 -28.5t13.5 -22.5t24 -9z" />
    <glyph glyph-name="one.sups" unicode="&#xf80b;" 
d="M158 614q-17 -8 -33.5 -17t-33.5 -16l-43 86l122 60h107v-343h-119v230z" />
    <glyph glyph-name="two.sups" unicode="&#xf80c;" 
d="M39 446q0 20 9.5 37t24 31.5t32 27t34.5 23.5q23 14 41 28t18 28q0 22 -31 22q-34 0 -80 -29l-55 74q36 24 69 36t73 12q29 0 55 -6.5t45.5 -19.5t31 -33t11.5 -47q0 -25 -8 -43.5t-21.5 -33t-30.5 -26t-35 -22.5l-21.5 -13t-20.5 -14h139v-94h-280v62z" />
    <glyph glyph-name="three.sups" unicode="&#xf80d;" 
d="M69 500q21 -14 45 -22.5t47 -8.5q17 0 30 7t13 22q0 19 -14.5 24.5t-29.5 5.5q-11 0 -24 -1.5t-27 -5.5l-25 51l98 63h-129v92h254v-76l-72 -57q43 -7 64 -33.5t21 -67.5q0 -31 -13.5 -53.5t-36 -37t-51 -21.5t-57.5 -7q-38 0 -75.5 11.5t-72.5 32.5z" />
    <glyph glyph-name="four.sups" unicode="&#xf80e;" 
d="M21 528l149 199h126v-199h36v-86h-36v-58h-110v58h-165v86zM186 528v91l-70 -91h70z" />
    <glyph glyph-name="five.sups" unicode="&#xf80f;" 
d="M74 500q22 -14 44 -22.5t45 -8.5q15 0 31 5t16 23q0 8 -5 13.5t-12.5 8.5t-16 4.5t-15.5 1.5q-27 0 -58 -11l-52 41l41 172h214v-89h-135l-8 -37q8 1 16.5 1.5t17.5 0.5q25 0 48.5 -5.5t41.5 -18t28.5 -32.5t10.5 -48q0 -32 -14.5 -55.5t-37 -39t-51 -23t-56.5 -7.5
q-38 0 -76 11.5t-72 32.5z" />
    <glyph glyph-name="six.sups" unicode="&#xf810;" 
d="M276 627q-9 5 -25 10t-38 5q-29 0 -45.5 -14t-23.5 -35q7 4 24.5 9t45.5 5q30 0 53 -9t38 -24t23 -34.5t8 -41.5q0 -24 -10 -46t-29 -39.5t-47.5 -28t-65.5 -10.5q-30 0 -58 9.5t-50.5 30t-36 52.5t-13.5 77t14.5 81t39.5 61t59.5 38t75.5 13q47 0 99 -23zM142 512
q1 -20 11 -34t32 -14q16 0 28.5 7.5t12.5 23.5q0 17 -11.5 23t-26.5 6q-12 0 -23.5 -3.5t-22.5 -8.5z" />
    <glyph glyph-name="seven.sups" unicode="&#xf811;" 
d="M62 384q25 66 56.5 128t70.5 123h-150v92h278v-84q-38 -59 -71 -124.5t-56 -134.5h-128z" />
    <glyph glyph-name="eight.sups" unicode="&#xf812;" 
d="M72 565q-17 12 -27 30.5t-10 40.5q0 28 14 47t35 31t46 17t48 5t48 -5t46 -17t35 -31t14 -47q0 -22 -10 -40.5t-27 -30.5q21 -12 36.5 -33.5t15.5 -47.5q0 -32 -15.5 -53t-39 -33.5t-51 -18t-52.5 -5.5q-24 0 -52 5.5t-51.5 18t-39 33.5t-15.5 53q0 25 16 46.5t36 34.5z
M176 596q12 4 25.5 11.5t13.5 21.5t-12.5 20t-24.5 6t-24.5 -6t-12.5 -20t12 -21.5t23 -11.5zM179 529q-14 -5 -28.5 -16t-14.5 -26t13 -22t29 -7t29 7t13 22t-13.5 26t-27.5 16z" />
    <glyph glyph-name="nine.sups" unicode="&#xf813;" 
d="M77 485q11 -6 30 -10.5t37 -4.5q35 0 50.5 13t20.5 38q-6 -5 -22.5 -10.5t-41.5 -5.5q-32 0 -56.5 9t-41 24t-24.5 34.5t-8 41.5q0 24 10 46t29 39t47.5 27t65.5 10q30 0 58.5 -9t50.5 -29t35.5 -51.5t13.5 -76.5q0 -91 -48 -143.5t-142 -52.5q-29 0 -56 7.5t-45 16.5z
M217 598q-2 20 -12 34.5t-32 14.5q-17 0 -28.5 -7.5t-11.5 -23.5q0 -17 12 -22.5t26 -5.5q23 0 46 10z" />
    <glyph glyph-name="zero.sinf" unicode="&#xf814;" 
d="M178 -99q-41 0 -72 14t-51 38t-30 57.5t-10 72.5t10 72t30 57t51 37.5t72 13.5t72 -13.5t51.5 -37.5t30.5 -57t10 -72t-10 -72.5t-30.5 -57.5t-51.5 -38t-72 -14zM178 -4q15 0 24 9t13.5 22.5t6 28.5t1.5 27t-1.5 27t-6 28.5t-13.5 22.5t-24 9t-24 -9t-13.5 -22.5
t-6 -28.5t-1.5 -27t1.5 -27t6 -28.5t13.5 -22.5t24 -9z" />
    <glyph glyph-name="one.sinf" unicode="&#xf815;" 
d="M158 141q-17 -8 -33.5 -17t-33.5 -16l-43 86l122 60h107v-343h-119v230z" />
    <glyph glyph-name="two.sinf" unicode="&#xf816;" 
d="M39 -27q0 20 9.5 37t24 31.5t32 27t34.5 23.5q23 14 41 28t18 28q0 22 -31 22q-34 0 -80 -29l-55 74q36 24 69 36t73 12q29 0 55 -6.5t45.5 -19.5t31 -33t11.5 -47q0 -25 -8 -43.5t-21.5 -33t-30.5 -26t-35 -22.5l-21.5 -13t-20.5 -14h139v-94h-280v62z" />
    <glyph glyph-name="three.sinf" unicode="&#xf817;" 
d="M69 27q21 -14 45 -22.5t47 -8.5q17 0 30 7t13 22q0 19 -14.5 24.5t-29.5 5.5q-11 0 -24 -1.5t-27 -5.5l-25 51l98 63h-129v92h254v-76l-72 -57q43 -7 64 -33.5t21 -67.5q0 -31 -13.5 -53.5t-36 -37t-51 -21.5t-57.5 -7q-38 0 -75.5 11.5t-72.5 32.5z" />
    <glyph glyph-name="four.sinf" unicode="&#xf818;" 
d="M21 55l149 199h126v-199h36v-86h-36v-58h-110v58h-165v86zM186 55v91l-70 -91h70z" />
    <glyph glyph-name="five.sinf" unicode="&#xf819;" 
d="M74 27q22 -14 44 -22.5t45 -8.5q15 0 31 5t16 23q0 8 -5 13.5t-12.5 8.5t-16 4.5t-15.5 1.5q-27 0 -58 -11l-52 41l41 172h214v-89h-135l-8 -37q8 1 16.5 1.5t17.5 0.5q25 0 48.5 -5.5t41.5 -18t28.5 -32.5t10.5 -48q0 -32 -14.5 -55.5t-37 -39t-51 -23t-56.5 -7.5
q-38 0 -76 11.5t-72 32.5z" />
    <glyph glyph-name="six.sinf" unicode="&#xf81a;" 
d="M276 154q-9 5 -25 10t-38 5q-29 0 -45.5 -14t-23.5 -35q7 4 24.5 9t45.5 5q30 0 53 -9t38 -24t23 -34.5t8 -41.5q0 -24 -10 -46t-29 -39.5t-47.5 -28t-65.5 -10.5q-30 0 -58 9.5t-50.5 30t-36 52.5t-13.5 77t14.5 81t39.5 61t59.5 38t75.5 13q47 0 99 -23zM142 39
q1 -20 11 -34t32 -14q16 0 28.5 7.5t12.5 23.5q0 17 -11.5 23t-26.5 6q-12 0 -23.5 -3.5t-22.5 -8.5z" />
    <glyph glyph-name="seven.sinf" unicode="&#xf81b;" 
d="M62 -89q25 66 56.5 128t70.5 123h-150v92h278v-84q-38 -59 -71 -124.5t-56 -134.5h-128z" />
    <glyph glyph-name="eight.sinf" unicode="&#xf81c;" 
d="M72 92q-17 12 -27 30.5t-10 40.5q0 28 14 47t35 31t46 17t48 5t48 -5t46 -17t35 -31t14 -47q0 -22 -10 -40.5t-27 -30.5q21 -12 36.5 -33.5t15.5 -47.5q0 -32 -15.5 -53t-39 -33.5t-51 -18t-52.5 -5.5q-24 0 -52 5.5t-51.5 18t-39 33.5t-15.5 53q0 25 16 46.5t36 34.5z
M176 123q12 4 25.5 11.5t13.5 21.5t-12.5 20t-24.5 6t-24.5 -6t-12.5 -20t12 -21.5t23 -11.5zM179 56q-14 -5 -28.5 -16t-14.5 -26t13 -22t29 -7t29 7t13 22t-13.5 26t-27.5 16z" />
    <glyph glyph-name="nine.sinf" unicode="&#xf81d;" 
d="M77 12q11 -6 30 -10.5t37 -4.5q35 0 50.5 13t20.5 38q-6 -5 -22.5 -10.5t-41.5 -5.5q-32 0 -56.5 9t-41 24t-24.5 34.5t-8 41.5q0 24 10 46t29 39t47.5 27t65.5 10q30 0 58.5 -9t50.5 -29t35.5 -51.5t13.5 -76.5q0 -91 -48 -143.5t-142 -52.5q-29 0 -56 7.5t-45 16.5z
M217 125q-2 20 -12 34.5t-32 14.5q-17 0 -28.5 -7.5t-11.5 -23.5q0 -17 12 -22.5t26 -5.5q23 0 46 10z" />
    <glyph glyph-name="hungarumlaut.cap" horiz-adv-x="440" 
d="M276 873h162l-117 -156h-116zM73 873h162l-117 -156h-116z" />
    <glyph glyph-name="cedilla.cap" horiz-adv-x="440" 
d="M112 -141q36 -12 72 -12q7 0 16.5 0.5t17.5 2.5t14 7t6 14q0 8 -5.5 12t-13 6t-16.5 2.5t-15 0.5q-17 0 -34.5 -2t-34.5 -8l14 69q22 6 44 8t45 2q22 0 43.5 -4.5t38.5 -15t28 -28t11 -42.5q0 -28 -12.5 -47.5t-32.5 -32t-44.5 -18t-49.5 -5.5q-27 0 -54 3t-53 13z" />
    <glyph glyph-name="tilde.cap" horiz-adv-x="440" 
d="M9 809q25 27 58.5 45t71.5 18q19 0 36 -6.5t34 -15t34 -15t36 -6.5q26 0 49.5 10.5t44.5 27.5l58 -90q-25 -27 -58.5 -45t-71.5 -18q-19 0 -36 6.5t-33.5 15t-33.5 15t-36 6.5q-27 0 -50.5 -10.5t-43.5 -27.5z" />
    <glyph glyph-name="ogonek.cap" horiz-adv-x="440" 
d="M274 0l-15 -15.5t-17.5 -20.5t-14 -21.5t-5.5 -19.5q0 -11 7 -17t18 -6q14 0 26.5 4.5t23.5 12.5l33 -86q-26 -17 -56.5 -26t-61.5 -9q-21 0 -39.5 5t-32.5 15.5t-22 26.5t-8 39q0 35 19.5 64.5t42.5 53.5h102z" />
    <glyph glyph-name="ring.cap" horiz-adv-x="440" 
d="M78 818q0 29 11.5 54t31 43.5t45 29t54.5 10.5t54.5 -10.5t45 -29t31 -44t11.5 -54.5t-11.5 -54t-31 -43.5t-45 -29t-54.5 -10.5t-54.5 10.5t-45 29t-31 43.5t-11.5 55zM220 774q18 0 30 13t12 30q0 18 -12 31t-30 13t-30 -12.5t-12 -30.5t12 -31t30 -13z" />
    <glyph glyph-name="caron.cap" horiz-adv-x="440" 
d="M40 873h135l45 -68l46 68h134l-116 -156h-128z" />
    <glyph glyph-name="macron.cap" horiz-adv-x="440" 
d="M60 853h319v-116h-319v116z" />
    <glyph glyph-name="dieresis.cap" horiz-adv-x="440" 
d="M262 859h141v-128h-141v128zM37 859h141v-128h-141v128z" />
    <glyph glyph-name="dotaccent.cap" horiz-adv-x="440" 
d="M146 863h148v-136h-148v136z" />
    <glyph glyph-name="circumflex.cap" horiz-adv-x="440" 
d="M156 873h128l116 -156h-135l-45 68l-46 -68h-134z" />
    <glyph glyph-name="acute.cap" horiz-adv-x="440" 
d="M167 873h179l-124 -156h-128z" />
    <glyph glyph-name="grave.cap" horiz-adv-x="440" 
d="M94 873h179l73 -156h-128z" />
    <glyph glyph-name="breve.cap" horiz-adv-x="440" 
d="M173 863q1 -20 13 -33t33 -13q22 0 34 13t12 33h119q0 -36 -13.5 -63.5t-36 -46.5t-52 -29t-63.5 -10q-33 0 -63 10t-52.5 29t-35.5 46.5t-13 63.5h118z" />
    <glyph glyph-name="commaaccent.cap" horiz-adv-x="440" 
d="M161 -51h172l-99 -158h-126z" />
    <glyph glyph-name="caron.alt" horiz-adv-x="368" 
d="M109 667h136l-41 -169h-95v169z" />
    <glyph glyph-name="commaaccent" horiz-adv-x="440" 
d="M164 -51h159l-90 -142h-117z" />
    <glyph glyph-name="revcommaaccent" horiz-adv-x="440" 
d="M206 682h117l-48 -142h-159z" />
    <glyph glyph-name="Parenleft" horiz-adv-x="347" 
d="M150 -67q-8 14 -23.5 49.5t-31.5 88t-28 119.5t-12 143t12 142.5t28 119t31.5 88t23.5 49.5h172q-4 -7 -19 -42t-31.5 -89t-30 -123t-13.5 -145t13.5 -145.5t30 -123.5t31.5 -89t19 -42h-172z" />
    <glyph glyph-name="Parenright" horiz-adv-x="347" 
d="M25 -67q4 7 19 42t31.5 89t30 123.5t13.5 145.5t-13.5 145t-30 123t-31.5 89t-19 42h172q7 -14 23 -49.5t32 -88t28 -119t12 -142.5t-12 -143t-28 -119.5t-32 -88t-23 -49.5h-172z" />
    <glyph glyph-name="Hyphen" horiz-adv-x="450" 
d="M60 414h330v-162h-330v162z" />
    <glyph glyph-name="Slash" horiz-adv-x="471" 
d="M283 685h171l-263 -701h-174z" />
    <glyph glyph-name="At" horiz-adv-x="962" 
d="M122 -19q-9 10 -23.5 35.5t-28.5 63t-24 85t-10 101.5q0 105 37.5 183.5t100.5 131t146 78.5t174 26q116 0 198 -31.5t134 -86t76 -128t24 -158.5q0 -81 -19 -137t-50 -91.5t-70.5 -51.5t-80.5 -16q-27 0 -47.5 3.5t-36 10t-29 17.5t-26.5 26q-20 -23 -52.5 -40.5
t-90.5 -17.5q-28 0 -57 6.5t-53 22.5t-39 43.5t-15 69.5t17.5 73.5t47.5 52t70.5 30.5t86.5 10q20 0 29 -1l26 -3v24q0 15 -6.5 24.5t-17 15.5t-23.5 8t-26 2q-45 0 -76.5 -11.5t-52.5 -26.5l-66 96q30 24 83 44.5t136 20.5q98 0 153 -46t55 -142v-135q0 -36 9.5 -50.5
t30.5 -14.5q15 0 29 13.5t24 37.5t16 57.5t6 74.5q0 79 -23.5 136t-65.5 94t-100 54.5t-128 17.5q-61 0 -122 -16.5t-110 -54t-80 -98t-31 -147.5q0 -45 8.5 -83.5t20 -67.5t22 -48t14.5 -25zM537 204q-5 1 -13.5 2t-24.5 1q-42 0 -58.5 -17t-16.5 -40q0 -51 51 -51
q26 0 44 15.5t18 57.5v32z" />
    <glyph glyph-name="Bracketleft" horiz-adv-x="368" 
d="M70 732h268v-128h-119v-541h119v-130h-268v799z" />
    <glyph glyph-name="Backslash" horiz-adv-x="471" 
d="M454 -16h-174l-263 701h171z" />
    <glyph glyph-name="Bracketright" horiz-adv-x="368" 
d="M298 -67h-268v130h119v541h-119v128h268v-799z" />
    <glyph glyph-name="Braceleft" horiz-adv-x="317" 
d="M98 215q-2 31 -18.5 52t-54.5 21v90q38 0 54.5 21t18.5 52l14 160q4 44 15 73t34 48h141q-18 -18 -32 -51.5t-18 -78.5l-14 -175q-2 -18 -10.5 -33.5t-21 -27.5t-27 -20.5t-28.5 -12.5q14 -4 28.5 -13t27.5 -23t22 -33.5t11 -44.5l14 -175q2 -29 16 -61t32 -50h-141
q-23 19 -34 48.5t-15 73.5z" />
    <glyph glyph-name="Braceright" horiz-adv-x="317" 
d="M205 55q-4 -44 -15 -73.5t-34 -48.5h-141q18 18 32 50t16 61l14 175q2 25 11 44.5t22 33.5t27.5 23t28.5 13q-14 4 -28.5 12.5t-27 20.5t-21.5 27.5t-10 33.5l-14 175q-4 45 -18 78.5t-32 51.5h141q23 -19 34 -48t15 -73l14 -160q2 -31 18.5 -52t54.5 -21v-90
q-38 0 -54.5 -21t-18.5 -52z" />
    <glyph glyph-name="Guilsinglleft" horiz-adv-x="373" 
d="M48 334l105 199h168l-104 -199l104 -201h-168z" />
    <glyph glyph-name="Bullet" horiz-adv-x="441" 
d="M70 333q0 31 12 58.5t32 47.5t47.5 32t58.5 12t58.5 -12t48 -32t32.5 -47.5t12 -58.5t-12 -58.5t-32.5 -47.5t-48 -32t-58.5 -12t-58.5 12t-47.5 32t-32 47.5t-12 58.5z" />
    <glyph glyph-name="Endash" horiz-adv-x="500" 
d="M0 414h500v-162h-500v162z" />
    <glyph glyph-name="Emdash" horiz-adv-x="1000" 
d="M0 414h1000v-162h-1000v162z" />
    <glyph glyph-name="Guilsinglright" horiz-adv-x="373" 
d="M156 334l-104 199h168l105 -199l-105 -201h-168z" />
    <glyph glyph-name="Exclamdown" horiz-adv-x="305" 
d="M238 497h-171v170h171v-170zM245 0h-185l10 441h165z" />
    <glyph glyph-name="Guillemotleft" horiz-adv-x="619" 
d="M48 334l105 199h168l-104 -199l104 -201h-168zM294 334l105 199h168l-104 -199l104 -201h-168z" />
    <glyph glyph-name="Guillemotright" horiz-adv-x="619" 
d="M398 334l-104 199h168l105 -199l-105 -201h-168zM153 334l-104 199h168l105 -199l-105 -201h-168z" />
    <glyph glyph-name="Questiondown" horiz-adv-x="541" 
d="M374 437q0 -35 -6.5 -60.5t-17.5 -45t-24.5 -33t-27.5 -24.5l-25.5 -19t-22 -18.5t-15.5 -20t-6 -24.5q0 -16 7.5 -26.5t18.5 -16.5t25 -8.5t26 -2.5q35 0 68 17t59 43l98 -116q-45 -46 -105.5 -73.5t-138.5 -27.5q-45 0 -86 11t-73 35t-51 61t-19 90q0 29 6.5 51.5
t17.5 39.5t24.5 30.5t27.5 24.5q15 13 30.5 24.5t27.5 24t19.5 28.5t7.5 37v4h155v-5zM383 497h-171v170h171v-170z" />
    <glyph glyph-name="uni0400" unicode="&#x400;" horiz-adv-x="593" 
d="M60 667h480v-153h-303v-103h249v-144h-249v-114h324v-153h-501v667zM148 873h179l73 -156h-128z" />
    <glyph glyph-name="afii10023" unicode="&#x401;" horiz-adv-x="593" 
d="M60 667h480v-153h-303v-103h249v-144h-249v-114h324v-153h-501v667zM346 859h141v-128h-141v128zM121 859h141v-128h-141v128z" />
    <glyph glyph-name="afii10051" unicode="&#x402;" horiz-adv-x="777" 
d="M197 0v512h-177v155h565v-155h-211v-116q34 12 69 19t70 7q54 0 98 -15.5t74.5 -44t47 -68.5t16.5 -88q0 -57 -19.5 -97t-52 -66t-74.5 -38t-88 -12q-37 0 -71 6l15 140q6 -1 12.5 -1.5t12.5 -0.5q34 0 60 15t26 54q0 40 -27 55t-63 15q-29 0 -57.5 -6.5t-48.5 -15.5
v-254h-177z" />
    <glyph glyph-name="afii10052" unicode="&#x403;" horiz-adv-x="551" 
d="M60 667h471v-156h-294v-511h-177v667zM292 873h179l-124 -156h-128z" />
    <glyph glyph-name="afii10053" unicode="&#x404;" horiz-adv-x="693" 
d="M465 261h-248q17 -57 61 -87t108 -30q57 0 103.5 23t79.5 60l109 -113q-63 -70 -133.5 -100.5t-154.5 -30.5q-83 0 -149 26.5t-112 73.5t-70.5 111.5t-24.5 139.5q0 76 25 140.5t70.5 111.5t110.5 73t145 26q88 0 158 -31.5t124 -88.5l-108 -118q-34 37 -75.5 59
t-97.5 22q-65 0 -108.5 -30.5t-60.5 -86.5h248v-150z" />
    <glyph glyph-name="afii10054" unicode="&#x405;" horiz-adv-x="590" 
d="M112 211q28 -28 73 -51t99 -23q13 0 27 2.5t25 8.5t18 16t7 26q0 26 -26.5 43t-77.5 34l-37 12q-31 10 -62.5 26t-56.5 38.5t-40.5 53t-15.5 71.5q0 46 17 85.5t49.5 69t80.5 46t111 16.5q49 0 89 -9t70 -22t51 -28t32 -27l-90 -114q-35 26 -73 42.5t-78 16.5
q-13 0 -26 -3t-23.5 -9t-17 -15.5t-6.5 -23.5q0 -15 7.5 -26t20.5 -19t31.5 -14.5l39.5 -13.5l32 -10q34 -11 69 -25.5t63 -39t46 -61t18 -89.5q0 -46 -21.5 -85t-58 -67t-86 -43.5t-105.5 -15.5q-100 0 -167.5 26.5t-114.5 71.5z" />
    <glyph glyph-name="afii10055" unicode="&#x406;" horiz-adv-x="297" 
d="M60 667h177v-667h-177v667z" />
    <glyph glyph-name="afii10056" unicode="&#x407;" horiz-adv-x="297" 
d="M60 667h177v-667h-177v667zM191 859h141v-128h-141v128zM-34 859h141v-128h-141v128z" />
    <glyph glyph-name="afii10057" unicode="&#x408;" horiz-adv-x="540" 
d="M115 194q19 -22 46.5 -39t63.5 -17q46 0 65 24.5t19 67.5v437h177v-457q0 -54 -18.5 -96.5t-51.5 -72t-77.5 -44.5t-96.5 -15q-66 0 -128 25.5t-104 77.5z" />
    <glyph glyph-name="afii10058" unicode="&#x409;" horiz-adv-x="1008" 
d="M471 505h-118q-8 -137 -28.5 -233t-57.5 -157.5t-93 -89.5t-135 -28h-19v157q39 0 69 17.5t51.5 71.5t34.5 155t18 269h451v-212h94q57 0 101.5 -16t76 -46t48 -72.5t16.5 -94.5q0 -55 -17.5 -97.5t-50 -71t-78 -43t-101.5 -14.5h-262v505zM644 316v-176h73q45 0 67 24
t22 65q0 38 -23.5 62.5t-64.5 24.5h-74z" />
    <glyph glyph-name="afii10059" unicode="&#x40a;" horiz-adv-x="1033" 
d="M89 667h173v-226h230v226h173v-226h98q57 0 101.5 -15.5t76 -44.5t48 -70t16.5 -92q0 -54 -17.5 -94.5t-50 -68.5t-78 -42t-101.5 -14h-266v281h-230v-281h-173v667zM665 297v-162h77q45 0 67 22.5t22 59.5q0 35 -23.5 57.5t-64.5 22.5h-78z" />
    <glyph glyph-name="afii10060" unicode="&#x40b;" horiz-adv-x="794" 
d="M197 0v512h-177v155h565v-155h-211v-126q29 13 62.5 20t68.5 7q46 0 90 -14t78 -44.5t55 -78t21 -113.5v-163h-177v146q0 60 -29 88.5t-83 28.5q-26 0 -49 -5t-37 -12v-246h-177z" />
    <glyph glyph-name="afii10061" unicode="&#x40c;" horiz-adv-x="685" 
d="M237 0h-177v667h177v-244h30q38 0 60 17.5t40 55.5l83 171h195l-104 -206q-24 -48 -53.5 -73t-65.5 -40q45 -14 73.5 -41t51.5 -70l128 -237h-212l-92 184q-17 35 -36 56t-56 21h-42v-261zM333 873h179l-124 -156h-128z" />
    <glyph glyph-name="uni040D" unicode="&#x40d;" horiz-adv-x="712" 
d="M652 0h-175v393l-266 -393h-151v667h175v-382l256 382h161v-667zM185 873h179l73 -156h-128z" />
    <glyph glyph-name="afii10062" unicode="&#x40e;" horiz-adv-x="672" 
d="M472 667h187l-258 -522q-38 -78 -86 -120.5t-121 -42.5q-45 0 -85.5 15.5t-71.5 40.5l72 116q15 -12 33.5 -21t40.5 -9q20 0 37.5 10t36.5 40l-244 493h191l131 -315zM290 863q1 -20 13 -33t33 -13q22 0 34 13t12 33h119q0 -36 -13.5 -63.5t-36 -46.5t-52 -29t-63.5 -10
q-33 0 -63 10t-52.5 29t-35.5 46.5t-13 63.5h118z" />
    <glyph glyph-name="afii10145" unicode="&#x40f;" horiz-adv-x="707" 
d="M647 0h-215v-154h-156v154h-216v667h177v-510h233v510h177v-667z" />
    <glyph glyph-name="afii10017" unicode="&#x410;" horiz-adv-x="704" 
d="M255 667h203l236 -667h-191l-43 138h-223l-44 -138h-183zM424 267l-74 245l-77 -245h151z" />
    <glyph glyph-name="afii10018" unicode="&#x411;" horiz-adv-x="613" 
d="M61 667h464v-146h-291v-96h104q114 0 178 -57.5t64 -156.5q0 -51 -17.5 -90.5t-50 -66.5t-78 -40.5t-101.5 -13.5h-272v667zM234 286v-146h83q47 0 68 20t21 54q0 32 -22.5 52t-65.5 20h-84z" />
    <glyph glyph-name="afii10019" unicode="&#x412;" horiz-adv-x="633" 
d="M60 667h271q70 0 116 -15.5t73 -40t37.5 -56t10.5 -62.5q0 -29 -9.5 -52t-24 -40.5t-31.5 -29.5t-32 -17q19 -6 42 -18t43 -32t34 -48t14 -65q0 -100 -69.5 -145.5t-203.5 -45.5h-271v667zM310 399q31 0 55.5 15.5t24.5 53.5q0 21 -7 35.5t-18.5 22.5t-26 11.5t-28.5 3.5
h-77v-142h77zM323 126q15 0 33 2.5t33 10.5t25 24t10 43q0 25 -10 40.5t-25 23.5t-33 11t-33 3h-90v-158h90z" />
    <glyph glyph-name="afii10020" unicode="&#x413;" horiz-adv-x="551" 
d="M60 667h471v-156h-294v-511h-177v667z" />
    <glyph glyph-name="afii10021" unicode="&#x414;" horiz-adv-x="749" 
d="M658 667v-515h71v-306h-156v154h-407v-154h-151v306h66q28 43 48.5 94t35 113t24 138t15.5 170h454zM491 515h-137q-5 -48 -12 -96.5t-18 -95.5t-26 -90.5t-36 -80.5h229v363z" />
    <glyph glyph-name="afii10022" unicode="&#x415;" horiz-adv-x="593" 
d="M60 667h480v-153h-303v-103h249v-144h-249v-114h324v-153h-501v667z" />
    <glyph glyph-name="afii10024" unicode="&#x416;" horiz-adv-x="970" 
d="M571 0h-172v261h-38q-31 0 -47 -21t-30 -56l-77 -184h-197l112 239q24 52 50 75.5t55 33.5q-27 14 -52.5 40.5t-44.5 70.5l-92 208h192l69 -171q15 -38 34.5 -55.5t51.5 -17.5h14v244h172v-244h19q32 0 50 17.5t33 55.5l69 171h192l-92 -208q-19 -44 -45.5 -70.5
t-53.5 -40.5q29 -10 55 -33.5t50 -75.5l112 -239h-206l-76 184q-14 35 -29.5 56t-46.5 21h-31v-261z" />
    <glyph glyph-name="afii10025" unicode="&#x417;" horiz-adv-x="581" 
d="M177 415h99q37 0 61.5 12t24.5 44q0 29 -23 44.5t-69 15.5q-48 0 -80 -18.5t-58 -46.5l-104 99q24 31 54.5 53.5t64.5 37t69.5 21.5t69.5 7q51 0 95.5 -12.5t77.5 -36t52 -58.5t19 -80q0 -57 -27 -98.5t-75 -60.5q62 -17 93 -61.5t31 -99.5q0 -47 -20 -82.5t-56 -60.5
t-85.5 -37.5t-108.5 -12.5q-39 0 -77.5 7.5t-74 22.5t-66.5 37.5t-54 51.5l104 102q27 -27 64 -47.5t96 -20.5q50 0 78.5 16.5t28.5 52.5q0 37 -24.5 50t-58.5 13h-121v146z" />
    <glyph glyph-name="afii10026" unicode="&#x418;" horiz-adv-x="712" 
d="M652 0h-175v393l-266 -393h-151v667h175v-382l256 382h161v-667z" />
    <glyph glyph-name="afii10027" unicode="&#x419;" horiz-adv-x="712" 
d="M652 0h-175v393l-266 -393h-151v667h175v-382l256 382h161v-667zM311 863q1 -20 13 -33t33 -13q22 0 34 13t12 33h119q0 -36 -13.5 -63.5t-36 -46.5t-52 -29t-63.5 -10q-33 0 -63 10t-52.5 29t-35.5 46.5t-13 63.5h118z" />
    <glyph glyph-name="afii10028" unicode="&#x41a;" horiz-adv-x="685" 
d="M237 0h-177v667h177v-244h30q38 0 60 17.5t40 55.5l83 171h195l-104 -206q-24 -48 -53.5 -73t-65.5 -40q45 -14 73.5 -41t51.5 -70l128 -237h-212l-92 184q-17 35 -36 56t-56 21h-42v-261z" />
    <glyph glyph-name="afii10029" unicode="&#x41b;" horiz-adv-x="718" 
d="M658 667v-667h-177v505h-128q-8 -137 -26.5 -233t-54.5 -157.5t-92.5 -89.5t-140.5 -28h-19v157q39 0 69 17.5t51.5 71.5t34.5 155t18 269h465z" />
    <glyph glyph-name="afii10030" unicode="&#x41c;" horiz-adv-x="814" 
d="M77 667h169l162 -291l159 291h170l31 -667h-179l-16 391l-117 -228h-97l-130 228l-13 -391h-170z" />
    <glyph glyph-name="afii10031" unicode="&#x41d;" horiz-adv-x="720" 
d="M60 667h177v-244h246v244h177v-667h-177v261h-246v-261h-177v667z" />
    <glyph glyph-name="afii10032" unicode="&#x41e;" horiz-adv-x="762" 
d="M381 -16q-75 0 -138.5 26.5t-110 73t-72.5 111t-26 140.5t26 140.5t72.5 111t110 72.5t138.5 26t139 -26t110 -72.5t72 -111t26 -140.5t-26 -140.5t-72 -111t-110 -73t-139 -26.5zM381 150q39 0 69.5 14.5t51.5 39.5t32 59t11 72t-11 72t-32 59t-51.5 39.5t-69.5 14.5
t-69.5 -14.5t-51.5 -39.5t-32 -59t-11 -72t11 -72t32 -59t51.5 -39.5t69.5 -14.5z" />
    <glyph glyph-name="afii10033" unicode="&#x41f;" horiz-adv-x="715" 
d="M60 667h595v-667h-177v505h-241v-505h-177v667z" />
    <glyph glyph-name="afii10034" unicode="&#x420;" horiz-adv-x="598" 
d="M61 667h272q54 0 97.5 -14.5t74.5 -42t48 -69t17 -95.5q0 -51 -17.5 -92.5t-48 -71t-73 -45t-93.5 -15.5h-104v-222h-173v667zM318 361q36 0 57 23t21 59q0 38 -20 61t-59 23h-83v-166h84z" />
    <glyph glyph-name="afii10035" unicode="&#x421;" horiz-adv-x="683" 
d="M678 124q-113 -141 -297 -141q-77 0 -141 26t-109.5 72t-71 110t-25.5 141q0 76 25 140.5t71 112t110 74t141 26.5q87 0 161 -29t125 -101l-117 -118q-28 38 -67 61t-89 23q-42 0 -75 -14t-55.5 -39t-34.5 -58.5t-12 -72.5q0 -40 12.5 -74t35.5 -59t55.5 -39t72.5 -14
q58 0 94.5 20.5t71.5 64.5z" />
    <glyph glyph-name="afii10036" unicode="&#x422;" horiz-adv-x="627" 
d="M225 512h-205v155h587v-155h-203v-512h-179v512z" />
    <glyph glyph-name="afii10037" unicode="&#x423;" horiz-adv-x="672" 
d="M472 667h187l-258 -522q-38 -78 -86 -120.5t-121 -42.5q-45 0 -85.5 15.5t-71.5 40.5l72 116q15 -12 33.5 -21t40.5 -9q20 0 37.5 10t36.5 40l-244 493h191l131 -315z" />
    <glyph glyph-name="afii10038" unicode="&#x424;" horiz-adv-x="822" 
d="M331 702h160v-70q69 -6 124 -28.5t93.5 -60t59 -88.5t20.5 -115t-20.5 -115.5t-59 -89t-93.5 -60t-124 -28.5v-72h-160v72q-69 6 -124 28.5t-93.5 60t-59 89t-20.5 115.5t20.5 115t59 88.5t93.5 60t124 28.5v70zM202 340q0 -58 31 -95.5t98 -48.5v287
q-66 -11 -97.5 -48.5t-31.5 -94.5zM620 340q0 57 -31.5 94.5t-97.5 48.5v-287q66 11 97.5 48.5t31.5 95.5z" />
    <glyph glyph-name="afii10039" unicode="&#x425;" horiz-adv-x="677" 
d="M227 341l-227 326h218l111 -173l107 173h197l-207 -309l251 -358h-221l-133 205l-129 -205h-194z" />
    <glyph glyph-name="afii10040" unicode="&#x426;" horiz-adv-x="728" 
d="M637 162h71v-316h-156v154h-492v667h177v-505h223v505h177v-505z" />
    <glyph glyph-name="afii10041" unicode="&#x427;" horiz-adv-x="662" 
d="M602 667v-667h-177v240q-29 -13 -62.5 -20t-68.5 -7q-46 0 -90 14t-78 44.5t-55 78t-21 113.5v204h177v-187q0 -60 29 -88.5t83 -28.5q26 0 49 5t37 12v287h177z" />
    <glyph glyph-name="afii10042" unicode="&#x428;" horiz-adv-x="1037" 
d="M977 0h-917v667h177v-505h193v505h177v-505h193v505h177v-667z" />
    <glyph glyph-name="afii10043" unicode="&#x429;" horiz-adv-x="1054" 
d="M1034 162v-316h-156v154h-818v667h177v-505h186v505h177v-505h186v505h177v-505h71z" />
    <glyph glyph-name="afii10044" unicode="&#x42a;" horiz-adv-x="703" 
d="M334 667v-212h99q57 0 101.5 -16t76 -46t48 -72.5t16.5 -94.5q0 -55 -17.5 -97.5t-50 -71t-78 -43t-101.5 -14.5h-267v512h-141v155h314zM334 316v-176h78q45 0 67 24t22 65q0 38 -23.5 62.5t-64.5 24.5h-79z" />
    <glyph glyph-name="afii10045" unicode="&#x42b;" horiz-adv-x="887" 
d="M61 667h173v-212h89q57 0 101.5 -16t76 -46t48 -72.5t16.5 -94.5q0 -55 -17.5 -97.5t-50 -71t-78 -43t-101.5 -14.5h-257v667zM234 316v-176h68q45 0 67 24t22 65q0 38 -23.5 62.5t-64.5 24.5h-69zM649 667h177v-667h-177v667z" />
    <glyph glyph-name="afii10046" unicode="&#x42c;" horiz-adv-x="608" 
d="M61 667h173v-212h104q57 0 101.5 -16t76 -46t48 -72.5t16.5 -94.5q0 -55 -17.5 -97.5t-50 -71t-78 -43t-101.5 -14.5h-272v667zM234 316v-176h83q45 0 67 24t22 65q0 38 -23.5 62.5t-64.5 24.5h-84z" />
    <glyph glyph-name="afii10047" unicode="&#x42d;" horiz-adv-x="688" 
d="M223 411h247q-17 56 -60.5 86.5t-107.5 30.5q-56 0 -97.5 -22t-75.5 -59l-108 118q53 56 122 88t160 32q80 0 145 -26.5t110.5 -73t70.5 -110.5t25 -139q0 -77 -25.5 -141.5t-72.5 -111.5t-113 -73.5t-146 -26.5q-85 0 -156 31.5t-131 99.5l109 113q33 -36 79.5 -59.5
t104.5 -23.5q63 0 107 30t61 87h-248v150z" />
    <glyph glyph-name="afii10048" unicode="&#x42e;" horiz-adv-x="1030" 
d="M664 -16q-63 0 -118.5 20t-98.5 57t-72 87.5t-40 112.5h-98v-261h-177v667h177v-244h101q13 58 42.5 106.5t72 83t96 53.5t115.5 19q72 0 133 -26t105 -72.5t69 -111t25 -140.5t-25 -140.5t-69 -111t-105 -73t-133 -26.5zM658 150q37 0 66 14.5t48.5 39.5t30 59t10.5 72
t-10.5 72t-30 59t-48.5 39.5t-66 14.5q-36 0 -64.5 -14.5t-48 -39.5t-30 -59t-10.5 -72t10.5 -72t30 -59t48 -39.5t64.5 -14.5z" />
    <glyph glyph-name="afii10049" unicode="&#x42f;" horiz-adv-x="628" 
d="M568 0h-173v227h-24q-20 0 -33.5 -5t-24 -15.5t-20 -28l-21.5 -41.5l-69 -137h-185l94 175q23 42 43 62t43 30q-28 9 -53.5 24.5t-45.5 39.5t-32 56.5t-12 73.5q0 47 17 85t48 65t75 41.5t97 14.5h276v-667zM395 366v161h-85q-38 0 -59 -22t-21 -58q0 -38 22 -59.5
t57 -21.5h86z" />
    <glyph glyph-name="afii10065" unicode="&#x430;" horiz-adv-x="534" 
d="M328 0l-6 44q-32 -34 -64.5 -47t-80.5 -13q-23 0 -49 6.5t-48 23t-36 44t-14 70.5t18 76t49 55t72 33t86 11q23 0 36.5 -1t30.5 -3v9q0 18 -7.5 30t-19 18.5t-25 9t-26.5 2.5q-45 0 -79 -11.5t-55 -26.5l-64 97q30 24 84 44t138 20q49 0 89 -13t69 -38.5t45 -63.5t16 -88
v-288h-159zM322 208q-15 4 -46 4q-42 0 -62 -17t-20 -42q0 -54 56 -54q13 0 26 3.5t23 12.5t16.5 24t6.5 37v32z" />
    <glyph glyph-name="afii10066" unicode="&#x431;" horiz-adv-x="577" 
d="M502 537l-144 -20q-75 -11 -118.5 -50t-48.5 -111q27 35 67 54t90 19q46 0 83.5 -17t63 -46.5t39.5 -69.5t14 -86q0 -51 -18.5 -92.5t-51 -71.5t-77.5 -46t-98 -16q-55 0 -103 18.5t-84 57t-56.5 97.5t-20.5 140q0 78 21 140t60 107t95 72.5t126 36.5l141 18zM297 122
q38 0 60 25t22 63t-22 63t-60 25t-60 -25t-22 -63t22 -63t60 -25z" />
    <glyph glyph-name="afii10067" unicode="&#x432;" horiz-adv-x="532" 
d="M203 286h82q46 0 46 40q0 19 -11.5 30t-34.5 11h-82v-81zM49 0v476h285q78 0 116 -35.5t38 -87.5q0 -42 -21 -67.5t-47 -35.5q38 -11 65 -38.5t27 -80.5q0 -64 -45.5 -97.5t-135.5 -33.5h-282zM203 109h102q46 0 46 40q0 20 -11.5 31t-34.5 11h-102v-82z" />
    <glyph glyph-name="afii10068" unicode="&#x433;" horiz-adv-x="414" 
d="M394 334h-176v-334h-169v476h345v-142z" />
    <glyph glyph-name="afii10069" unicode="&#x434;" horiz-adv-x="620" 
d="M536 476v-346h64v-254h-149v124h-292v-124h-149v254h57q23 30 38 65.5t24.5 78.5t15 93t10.5 109h381zM374 130v216h-82q-7 -79 -20.5 -128.5t-36.5 -87.5h139z" />
    <glyph glyph-name="afii10070" unicode="&#x435;" horiz-adv-x="533" 
d="M303 110q46 0 81.5 11t55.5 23l53 -110q-12 -7 -30.5 -15.5t-43.5 -16t-56.5 -13t-67.5 -5.5q-64 0 -113.5 17.5t-83.5 50t-51.5 77.5t-17.5 100q0 50 15 97.5t45 84t75.5 59t106.5 22.5q51 0 94 -17t74.5 -50.5t49.5 -84.5t18 -120v-32h-319q9 -42 36.5 -60t78.5 -18z
M357 288q-1 12 -5 25.5t-13 25.5t-24 19.5t-38 7.5q-41 0 -61 -22t-28 -56h169z" />
    <glyph glyph-name="afii10072" unicode="&#x436;" horiz-adv-x="806" 
d="M485 0h-164v167h-33q-24 0 -35.5 -14.5t-20.5 -34.5l-54 -118h-173l73 145q20 41 41 64.5t52 34.5q-26 10 -43.5 28.5t-37.5 60.5l-65 143h162l52 -115q11 -26 22 -39t34 -13h26v167h164v-167h26q23 0 34 13t22 39l51 115h164l-65 -143q-20 -42 -38 -60.5t-44 -28.5
q32 -11 52.5 -34.5t40.5 -64.5l73 -145h-179l-54 118q-9 20 -20.5 34.5t-35.5 14.5h-27v-167z" />
    <glyph glyph-name="afii10073" unicode="&#x437;" horiz-adv-x="480" 
d="M140 299h97q22 0 35.5 7.5t13.5 24.5q0 37 -66 37q-46 0 -81 -15.5t-54 -29.5l-66 93q36 31 90.5 53.5t127.5 22.5q46 0 85 -10t67 -28.5t43.5 -45t15.5 -59.5q0 -36 -19 -65t-52 -43q42 -14 62.5 -45t20.5 -69q0 -35 -16.5 -62t-46 -45t-69 -27t-85.5 -9
q-77 0 -137.5 22t-95.5 54l64 98q23 -15 59.5 -32t89.5 -17q32 0 51.5 9t19.5 30q0 20 -14.5 27t-37.5 7h-102v117z" />
    <glyph glyph-name="afii10074" unicode="&#x438;" horiz-adv-x="584" 
d="M374 0v259l-189 -259h-136v476h161v-247l179 247h146v-477z" />
    <glyph glyph-name="afii10075" unicode="&#x439;" horiz-adv-x="584" 
d="M374 0v259l-189 -259h-136v476h161v-247l179 247h146v-477zM245 688q1 -19 12 -32.5t35 -13.5q23 0 34.5 13.5t12.5 32.5h116q0 -35 -13 -61.5t-35.5 -44.5t-52 -27t-62.5 -9t-62.5 9t-52 27t-35.5 44.5t-13 61.5h116z" />
    <glyph glyph-name="afii10076" unicode="&#x43a;" horiz-adv-x="564" 
d="M215 0h-166v476h166v-167h29q26 0 39.5 13t26.5 39l56 115h172l-72 -143q-20 -38 -42 -58.5t-51 -30.5q35 -11 59 -34.5t47 -64.5l80 -145h-189l-61 118q-11 20 -24 34.5t-40 14.5h-30v-167z" />
    <glyph glyph-name="afii10077" unicode="&#x43b;" horiz-adv-x="593" 
d="M544 476v-476h-169v334h-79q-8 -91 -26.5 -155t-49.5 -104.5t-73 -59t-96 -18.5q-8 0 -15.5 0.5t-15.5 1.5v146h7q28 0 50 14.5t37 52t24 101.5t11 163h395z" />
    <glyph glyph-name="afii10078" unicode="&#x43c;" horiz-adv-x="655" 
d="M283 100l-74 147l-11 -247h-153l23 476h153l105 -210l105 210h156l23 -476h-160l-11 248l-74 -148h-82z" />
    <glyph glyph-name="afii10079" unicode="&#x43d;" horiz-adv-x="583" 
d="M534 476v-476h-169v167h-147v-167h-169v476h169v-167h147v167h169z" />
    <glyph glyph-name="afii10080" unicode="&#x43e;" horiz-adv-x="560" 
d="M280 132q42 0 67 29.5t25 76.5t-25 76.5t-67 29.5t-67 -29.5t-25 -76.5t25 -76.5t67 -29.5zM29 238q0 53 18.5 99.5t51.5 81t79 54t102 19.5q55 0 101.5 -19.5t79.5 -54t51.5 -81t18.5 -99.5t-18.5 -99.5t-51.5 -81t-79.5 -54t-101.5 -19.5q-56 0 -102 19.5t-79 54
t-51.5 81t-18.5 99.5z" />
    <glyph glyph-name="afii10081" unicode="&#x43f;" horiz-adv-x="578" 
d="M529 476v-476h-169v334h-142v-334h-169v476h480z" />
    <glyph glyph-name="afii10082" unicode="&#x440;" horiz-adv-x="569" 
d="M49 476h162l7 -49q13 19 29.5 30.5t33 17.5t32.5 8t28 2q48 0 85 -19.5t62.5 -53t38.5 -77t13 -91.5q0 -59 -19 -107t-52 -81.5t-77.5 -51.5t-95.5 -18q-27 0 -47.5 4t-31.5 7v-197h-168v676zM218 134q11 -5 26 -7.5t28 -2.5q45 0 71.5 27t26.5 84q0 19 -3.5 38t-12.5 34
t-24 24.5t-37 9.5q-38 0 -56.5 -26.5t-18.5 -67.5v-113z" />
    <glyph glyph-name="afii10083" unicode="&#x441;" horiz-adv-x="483" 
d="M478 62q-26 -30 -75.5 -54t-116.5 -24q-54 0 -101 18.5t-81.5 51.5t-54.5 79.5t-20 102.5q0 55 19 101.5t53.5 81t82 54t104.5 19.5q64 0 112.5 -22.5t77.5 -55.5l-99 -113l-11 11.5t-17.5 14.5t-25 12t-32.5 5q-43 0 -68.5 -29t-25.5 -76q0 -48 26.5 -77.5t67.5 -29.5
q18 0 32.5 5.5t25.5 13t18 14.5l10 10z" />
    <glyph glyph-name="afii10084" unicode="&#x442;" horiz-adv-x="503" 
d="M483 476v-142h-147v-334h-169v334h-147v142h463z" />
    <glyph glyph-name="afii10085" unicode="&#x443;" horiz-adv-x="573" 
d="M81 -54q14 -10 32 -17t32 -7q23 0 38 8.5t26 37.5l14 38l-218 470h192l100 -276l95 276h176l-187 -469q-17 -44 -34.5 -83.5t-42.5 -69.5t-60 -48t-87 -18q-75 0 -139 43z" />
    <glyph glyph-name="afii10086" unicode="&#x444;" horiz-adv-x="745" 
d="M298 667h148v-182q67 -5 117.5 -25.5t84.5 -53t51 -75.5t17 -93t-17 -93t-51 -75.5t-84.5 -53t-117.5 -25.5v-191h-148v191q-67 5 -117.5 25.5t-84 53t-50.5 75.5t-17 93t17 93t50.5 75.5t84 53t117.5 25.5v182zM557 238q0 45 -25 75t-86 38v-226q61 8 86 37.5t25 75.5z
M188 238q0 -46 24.5 -75.5t85.5 -37.5v226q-61 -8 -85.5 -38t-24.5 -75z" />
    <glyph glyph-name="afii10087" unicode="&#x445;" horiz-adv-x="547" 
d="M177 236l-172 240h195l74 -116l75 116h181l-165 -231l177 -245h-195l-79 120l-79 -120h-181z" />
    <glyph glyph-name="afii10088" unicode="&#x446;" horiz-adv-x="600" 
d="M580 142v-266h-149v124h-382v476h169v-334h129v334h169v-334h64z" />
    <glyph glyph-name="afii10089" unicode="&#x447;" horiz-adv-x="551" 
d="M502 476v-476h-169v142q-23 -8 -49.5 -12.5t-49.5 -4.5q-36 0 -70.5 12t-62 36.5t-44.5 62t-17 88.5v152h169v-138q0 -42 20.5 -59t50.5 -17q14 0 28.5 3t24.5 8v203h169z" />
    <glyph glyph-name="afii10090" unicode="&#x448;" horiz-adv-x="857" 
d="M49 0v476h169v-334h126v334h169v-334h126v334h169v-476h-759z" />
    <glyph glyph-name="afii10091" unicode="&#x449;" horiz-adv-x="882" 
d="M862 142v-266h-149v124h-664v476h169v-334h121v334h169v-334h121v334h169v-334h64z" />
    <glyph glyph-name="afii10092" unicode="&#x44a;" horiz-adv-x="603" 
d="M306 476v-131h88q40 0 74 -11.5t58.5 -33.5t38 -54.5t13.5 -74.5q0 -46 -15.5 -78.5t-41.5 -53t-59.5 -30t-69.5 -9.5h-250v334h-122v142h286zM306 121h52q26 0 41.5 14t15.5 37q0 24 -15.5 38t-41.5 14h-52v-103z" />
    <glyph glyph-name="afii10093" unicode="&#x44b;" horiz-adv-x="764" 
d="M213 121h44q26 0 41.5 14t15.5 37q0 24 -15.5 38t-41.5 14h-44v-103zM213 476v-131h80q40 0 74 -11.5t58.5 -33.5t38 -54.5t13.5 -74.5q0 -46 -15.5 -78.5t-41.5 -53t-59.5 -30t-69.5 -9.5h-242v476h164zM546 476h169v-476h-169v476z" />
    <glyph glyph-name="afii10094" unicode="&#x44c;" horiz-adv-x="514" 
d="M213 121h56q26 0 41.5 14t15.5 37q0 24 -15.5 38t-41.5 14h-56v-103zM213 476v-131h92q40 0 74 -11.5t58.5 -33.5t38 -54.5t13.5 -74.5q0 -46 -15.5 -78.5t-41.5 -53t-59.5 -30t-69.5 -9.5h-254v476h164z" />
    <glyph glyph-name="afii10095" unicode="&#x44d;" horiz-adv-x="495" 
d="M156 298h152q-14 35 -43 51t-64 16q-42 0 -68 -16t-38 -28l-76 101q35 32 83 51t107 19t106.5 -19.5t81 -53t51.5 -79.5t18 -100t-18.5 -101t-52.5 -81.5t-82.5 -54t-107.5 -19.5q-61 0 -111 19.5t-79 50.5l75 102q17 -14 42 -29.5t67 -15.5q36 0 66 16t44 53h-153v118z
" />
    <glyph glyph-name="afii10096" unicode="&#x44e;" horiz-adv-x="796" 
d="M215 476v-167h78q10 40 30.5 73.5t50 58t68 38t83.5 13.5q54 0 98.5 -19.5t76.5 -54t49.5 -81t17.5 -99.5t-17.5 -99.5t-49.5 -81t-76.5 -54t-98.5 -19.5q-45 0 -83.5 13.5t-68 38t-50 58t-30.5 73.5h-78v-167h-169v476h169zM523 132q41 0 63 29.5t22 76.5t-22 76.5
t-63 29.5q-40 0 -62 -29.5t-22 -76.5t22 -76.5t62 -29.5z" />
    <glyph glyph-name="afii10097" unicode="&#x44f;" horiz-adv-x="528" 
d="M314 357h-54q-25 0 -39 -13.5t-14 -36.5t14 -36.5t39 -13.5h54v100zM314 0v142h-28q-20 0 -31 -10t-22 -33l-50 -99h-178l67 113q18 31 35 46.5t41 23.5q-20 7 -39 18.5t-34 29t-24.5 40t-9.5 50.5q0 39 15 68t40 48.5t57 29t65 9.5h261v-476h-165z" />
    <glyph glyph-name="uni0450" unicode="&#x450;" horiz-adv-x="533" 
d="M303 110q46 0 81.5 11t55.5 23l53 -110q-12 -7 -30.5 -15.5t-43.5 -16t-56.5 -13t-67.5 -5.5q-64 0 -113.5 17.5t-83.5 50t-51.5 77.5t-17.5 100q0 50 15 97.5t45 84t75.5 59t106.5 22.5q51 0 94 -17t74.5 -50.5t49.5 -84.5t18 -120v-32h-319q9 -42 36.5 -60t78.5 -18z
M357 288q-1 12 -5 25.5t-13 25.5t-24 19.5t-38 7.5q-41 0 -61 -22t-28 -56h169zM139 682h159l48 -142h-117z" />
    <glyph glyph-name="afii10071" unicode="&#x451;" horiz-adv-x="533" 
d="M303 110q46 0 81.5 11t55.5 23l53 -110q-12 -7 -30.5 -15.5t-43.5 -16t-56.5 -13t-67.5 -5.5q-64 0 -113.5 17.5t-83.5 50t-51.5 77.5t-17.5 100q0 50 15 97.5t45 84t75.5 59t106.5 22.5q51 0 94 -17t74.5 -50.5t49.5 -84.5t18 -120v-32h-319q9 -42 36.5 -60t78.5 -18z
M357 288q-1 12 -5 25.5t-13 25.5t-24 19.5t-38 7.5q-41 0 -61 -22t-28 -56h169zM303 677h131v-120h-131v120zM102 677h131v-120h-131v120z" />
    <glyph glyph-name="afii10099" unicode="&#x452;" horiz-adv-x="571" 
d="M49 522h-57v86h57v59h169v-59h150v-86h-150v-99q15 17 33 28t36.5 17t35.5 8t30 2q44 0 79 -19.5t59 -55.5t37 -86.5t13 -113.5q0 -113 -39.5 -216.5t-109.5 -188.5l-134 94q22 28 42.5 62.5t36.5 73t25 81t9 86.5q0 29 -4.5 53.5t-14.5 42.5t-25.5 28t-37.5 10
q-19 0 -32.5 -7t-22 -19t-12.5 -26.5t-4 -29.5v-247h-169v522z" />
    <glyph glyph-name="afii10100" unicode="&#x453;" horiz-adv-x="414" 
d="M394 334h-176v-334h-169v476h345v-142zM211 688h159l-90 -142h-117z" />
    <glyph glyph-name="afii10101" unicode="&#x454;" horiz-adv-x="495" 
d="M339 180h-154q14 -37 44.5 -53t67.5 -16q42 0 66.5 15.5t41.5 29.5l75 -102q-29 -31 -79 -50.5t-111 -19.5q-59 0 -107 19.5t-82.5 53t-53 80t-18.5 100.5q0 55 19 101.5t53.5 80.5t82 53.5t104.5 19.5t106 -19t82 -51l-76 -101q-12 12 -37.5 28t-67.5 16
q-36 0 -65.5 -16t-43.5 -51h153v-118z" />
    <glyph glyph-name="afii10102" unicode="&#x455;" horiz-adv-x="486" 
d="M87 156q12 -10 29 -18.5t35.5 -14.5t37 -9.5t32.5 -3.5q26 0 44.5 6.5t18.5 29.5q0 16 -21.5 25.5t-76.5 26.5q-31 10 -57 22.5t-45 30t-29.5 41t-10.5 53.5t14.5 56.5t41 47t64 32t82.5 11.5q58 0 104 -14t88 -41l-57 -105q-27 16 -56.5 28t-61.5 12q-52 0 -52 -29
q0 -12 9.5 -20t25.5 -13.5t37 -11t45 -13.5q36 -12 59 -27.5t36.5 -34t18.5 -40t5 -46.5q0 -43 -19.5 -72.5t-50.5 -47.5t-69.5 -25.5t-75.5 -7.5q-61 0 -120.5 16.5t-96.5 48.5z" />
    <glyph glyph-name="afii10103" unicode="&#x456;" horiz-adv-x="273" 
d="M45 673h183v-133h-183v133zM52 476h169v-476h-169v476z" />
    <glyph glyph-name="afii10104" unicode="&#x457;" horiz-adv-x="273" 
d="M52 482h169v-482h-169v482zM172 677h131v-120h-131v120zM-29 677h131v-120h-131v120z" />
    <glyph glyph-name="afii10105" unicode="&#x458;" horiz-adv-x="286" 
d="M58 673h183v-133h-183v133zM-64 -36q14 -8 29 -14t31 -6q44 0 56.5 23t12.5 62v447h169v-427q0 -54 -9 -99.5t-32.5 -79t-63.5 -52t-102 -18.5q-43 0 -84 12.5t-70 36.5z" />
    <glyph glyph-name="afii10106" unicode="&#x459;" horiz-adv-x="828" 
d="M534 476v-131h85q40 0 74 -12.5t58.5 -35.5t38 -55t13.5 -71q0 -46 -15.5 -78.5t-41.5 -53t-59.5 -30t-69.5 -9.5h-247v334h-74q-8 -91 -26.5 -155t-49.5 -104.5t-73 -59t-96 -18.5q-8 0 -15.5 0.5t-15.5 1.5v146h7q28 0 50 14.5t37 52t24 101.5t11 163h385zM534 121h49
q26 0 41.5 14t15.5 37q0 24 -15.5 38t-41.5 14h-49v-103z" />
    <glyph glyph-name="afii10107" unicode="&#x45a;" horiz-adv-x="807" 
d="M512 114h63q22 0 35.5 13t13.5 34q0 22 -13.5 35t-35.5 13h-63v-95zM512 476v-146h83q92 0 139.5 -44.5t47.5 -122.5q0 -41 -14.5 -71.5t-39.5 -51t-59.5 -30.5t-74.5 -10h-246v187h-135v-187h-164v476h164v-147h135v147h164z" />
    <glyph glyph-name="afii10108" unicode="&#x45b;" horiz-adv-x="567" 
d="M45 522h-57v86h57v59h169v-59h150v-86h-150v-99q14 17 32 28t37 17t36.5 8t30.5 2q37 0 69 -10.5t56 -33t37.5 -58t13.5 -84.5v-292h-169v248q0 38 -16.5 59.5t-48.5 21.5q-23 0 -38 -7t-24 -19t-12.5 -26.5t-3.5 -29.5v-247h-169v522z" />
    <glyph glyph-name="afii10109" unicode="&#x45c;" horiz-adv-x="564" 
d="M215 0h-166v476h166v-167h29q26 0 39.5 13t26.5 39l56 115h172l-72 -143q-20 -38 -42 -58.5t-51 -30.5q35 -11 59 -34.5t47 -64.5l80 -145h-189l-61 118q-11 20 -24 34.5t-40 14.5h-30v-167zM271 688h159l-90 -142h-117z" />
    <glyph glyph-name="uni045D" unicode="&#x45d;" horiz-adv-x="584" 
d="M374 0v259l-189 -259h-136v476h161v-247l179 247h146v-477zM159 688h159l48 -142h-117z" />
    <glyph glyph-name="afii10110" unicode="&#x45e;" horiz-adv-x="573" 
d="M81 -54q14 -10 32 -17t32 -7q23 0 38 8.5t26 37.5l14 38l-218 470h192l100 -276l95 276h176l-187 -469q-17 -44 -34.5 -83.5t-42.5 -69.5t-60 -48t-87 -18q-75 0 -139 43zM239 694q1 -19 12 -32.5t35 -13.5q23 0 34.5 13.5t12.5 32.5h116q0 -35 -13 -61.5t-35.5 -44.5
t-52 -27t-62.5 -9t-62.5 9t-52 27t-35.5 44.5t-13 61.5h116z" />
    <glyph glyph-name="afii10193" unicode="&#x45f;" horiz-adv-x="572" 
d="M49 0v476h169v-338h136v338h169v-476h-163v-124h-149v124h-162z" />
    <glyph glyph-name="afii10066.locl" horiz-adv-x="555" 
d="M29 209q0 66 33.5 115.5t92.5 77.5q-23 20 -37 49.5t-14 68.5q0 37 14 64.5t39 46t58 27.5t72 9h162v-126h-156q-14 0 -25.5 -7t-11.5 -22q0 -17 20 -29t64 -32q31 -14 64 -32t60 -45t44.5 -64t17.5 -88q0 -52 -19.5 -95t-53 -74t-79 -48t-97.5 -17q-49 0 -93.5 15
t-79 43.5t-55 69.5t-20.5 93zM260 344q-34 -22 -48 -52.5t-14 -63.5q0 -47 24 -71.5t56 -24.5t55 24.5t23 69.5q0 25 -8.5 44t-22 33t-30.5 23.5t-35 17.5z" />
    <glyph glyph-name="uni0462" unicode="&#x462;" horiz-adv-x="744" 
d="M370 492v-77h104q114 0 178 -56t64 -153q0 -50 -17.5 -88.5t-50 -64.5t-78 -39.5t-101.5 -13.5h-272v492h-177v145h177v80h173v-80h211v-145h-211zM370 276v-136h83q45 0 67 18.5t22 50.5q0 29 -23.5 48t-64.5 19h-84z" />
    <glyph glyph-name="uni0463" unicode="&#x463;" horiz-adv-x="607" 
d="M306 105h70q21 0 32 12t11 33q0 47 -43 47h-70v-92zM306 667v-191h147v-127h-147v-47h121q69 0 112 -40.5t43 -112.5q0 -38 -13 -66t-35 -46.5t-50.5 -27.5t-58.5 -9h-283v349h-122v127h122v191h164z" />
    <glyph glyph-name="uni0472" unicode="&#x472;" horiz-adv-x="762" 
d="M381 -16q-75 0 -138.5 26.5t-110 73t-72.5 111t-26 140.5t26 140.5t72.5 111t110 72.5t138.5 26t139 -26t110 -72.5t72 -111t26 -140.5t-26 -140.5t-72 -111t-110 -73t-139 -26.5zM381 130q73 0 118.5 41.5t59.5 105.5h-357q14 -64 60 -105.5t119 -41.5zM381 540
q-69 0 -114 -37.5t-62 -96.5h351q-17 59 -61.5 96.5t-113.5 37.5z" />
    <glyph glyph-name="uni0473" unicode="&#x473;" horiz-adv-x="560" 
d="M29 238q0 53 18.5 99.5t51.5 81t79 54t101 19.5q56 0 102.5 -19.5t79.5 -54t51.5 -81t18.5 -99.5t-18.5 -99.5t-51.5 -81t-79.5 -54t-102.5 -19.5q-55 0 -101 19.5t-79 54t-51.5 81t-18.5 99.5zM279 108q42 0 70.5 22.5t39.5 60.5h-219q11 -38 39 -60.5t70 -22.5z
M279 368q-40 0 -67.5 -21t-39.5 -56h216q-12 35 -40 56t-69 21z" />
    <glyph glyph-name="uni0474" unicode="&#x474;" horiz-adv-x="730" 
d="M10 667h193l148 -459l85 281q16 52 38.5 87t51 57t63 31.5t74.5 9.5q22 0 46 -3v-153h-13q-19 0 -35 -3t-29.5 -12.5t-24.5 -26.5t-20 -44l-148 -432h-187z" />
    <glyph glyph-name="uni0475" unicode="&#x475;" horiz-adv-x="585" 
d="M5 476h184l92 -275l45 129q15 45 35 74t44 46t51 24.5t57 7.5q12 0 25 -1t26 -3v-142q-6 1 -9 1h-8q-32 0 -49.5 -15t-31.5 -49l-108 -273h-155z" />
    <glyph glyph-name="uni048A" unicode="&#x48a;" horiz-adv-x="743" 
d="M723 162v-83q0 -93 -31.5 -161t-89.5 -126l-104 85q29 32 46.5 60.5t25.5 62.5h-93v393l-266 -393h-151v667h175v-382l256 382h161v-505h71zM311 863q1 -20 13 -33t33 -13q22 0 34 13t12 33h119q0 -36 -13.5 -63.5t-36 -46.5t-52.5 -29t-63 -10t-63 10t-52.5 29
t-35.5 46.5t-13 63.5h118z" />
    <glyph glyph-name="uni048B" unicode="&#x48b;" horiz-adv-x="619" 
d="M374 0v259l-189 -259h-136v476h161v-247l179 247h146v-334h64v-70q0 -78 -28 -135.5t-80 -106.5l-100 83q19 22 34 42t24 45h-75zM245 688q1 -19 12 -32.5t35 -13.5q23 0 34.5 13.5t12.5 32.5h116q0 -35 -13 -61.5t-35.5 -44.5t-52 -27t-62.5 -9t-62.5 9t-52 27
t-35.5 44.5t-13 61.5h116z" />
    <glyph glyph-name="uni048C" unicode="&#x48c;" horiz-adv-x="604" 
d="M395 603v-90h-165v-73h104q114 0 178 -59.5t64 -161.5q0 -54 -17.5 -94.5t-50 -68.5t-78 -42t-101.5 -14h-272v513h-57v90h57v64h173v-64h165zM230 301v-161h83q45 0 67 22t22 59q0 35 -23.5 57.5t-64.5 22.5h-84z" />
    <glyph glyph-name="uni048D" unicode="&#x48d;" horiz-adv-x="537" 
d="M236 365v-55h113q36 0 65.5 -10t51.5 -30t34 -49.5t12 -67.5q0 -41 -14 -70t-37 -47.5t-52.5 -27t-61.5 -8.5h-275v365h-57v86h57v48h164v-48h155v-86h-155zM236 110h71q20 0 31 12t11 33t-11 33t-31 12h-71v-90z" />
    <glyph glyph-name="uni048E" unicode="&#x48e;" horiz-adv-x="608" 
d="M61 667h282q54 0 97.5 -14.5t74.5 -42t48 -69t17 -95.5q0 -66 -29 -115t-83 -77l37 -64l-75 -43l-46 80q-17 -2 -34 -3.5t-35 -1.5h-81v-222h-173v667zM351 457l46 -80q20 23 20 62q0 43 -20 68t-59 25h-104v-181h78l-36 63z" />
    <glyph glyph-name="uni048F" unicode="&#x48f;" horiz-adv-x="569" 
d="M49 476h162l7 -49q13 19 29.5 30.5t33 17.5t31 8t24.5 2q49 0 87.5 -19.5t64 -52.5t39 -76t13.5 -89q0 -75 -27 -130t-73 -87l38 -66l-74 -43l-42 73q-35 -9 -71 -9q-22 0 -42.5 4t-31.5 7v-197h-168v676zM255 182l74 43l36 -63q7 14 11 32.5t4 42.5q0 18 -4.5 36.5
t-14 33.5t-24 24.5t-34.5 9.5q-45 0 -65 -28t-20 -70v-119q11 -5 27 -7.5t36 -2.5h12z" />
    <glyph glyph-name="afii10050" unicode="&#x490;" horiz-adv-x="561" 
d="M60 667h325v130h156v-286h-304v-511h-177v667z" />
    <glyph glyph-name="afii10098" unicode="&#x491;" horiz-adv-x="429" 
d="M409 570v-236h-191v-334h-169v476h211v94h149z" />
    <glyph glyph-name="uni0492" unicode="&#x492;" horiz-adv-x="551" 
d="M60 229h-60v90h60v348h471v-156h-294v-192h148v-90h-148v-229h-177v229z" />
    <glyph glyph-name="uni0493" unicode="&#x493;" horiz-adv-x="432" 
d="M412 334h-171v-105h100v-86h-100v-143h-169v143h-57v86h57v247h340v-142z" />
    <glyph glyph-name="uni0494" unicode="&#x494;" horiz-adv-x="665" 
d="M60 667h481v-156h-304v-134q27 12 56.5 19t63.5 7q57 0 107.5 -19.5t88.5 -58t60 -94t22 -127.5q0 -70 -21 -128t-58.5 -100t-88.5 -65t-112 -23q-54 0 -110 19l40 146q24 -7 47 -7q54 0 87 39.5t33 114.5q0 40 -10 69t-28 48t-42 27.5t-51 8.5q-23 0 -43.5 -5t-40.5 -13
v-235h-177v667z" />
    <glyph glyph-name="uni0495" unicode="&#x495;" horiz-adv-x="541" 
d="M449 334h-231v-76q18 6 38.5 9.5t44.5 3.5q49 0 90 -15.5t69.5 -45t44.5 -72.5t16 -98q0 -61 -18.5 -107.5t-50 -78.5t-73.5 -48.5t-88 -16.5q-50 0 -99 18l36 137q24 -9 45 -9q38 0 59 27.5t21 74.5q0 54 -25.5 78.5t-62.5 24.5q-11 0 -23 -2t-24 -5v-133h-169v476h400
v-142z" />
    <glyph glyph-name="uni0496" unicode="&#x496;" horiz-adv-x="970" 
d="M566 0h-172v261h-33q-31 0 -47 -21t-30 -56l-77 -184h-197l112 239q24 52 50 75.5t55 33.5q-27 14 -52.5 40.5t-44.5 70.5l-92 208h192l69 -171q15 -38 34.5 -55.5t51.5 -17.5h9v244h172v-244h14q32 0 50 17.5t33 55.5l69 171h192l-92 -208q-19 -44 -45.5 -70.5
t-53.5 -40.5q29 -10 55 -33.5t50 -75.5l36 -77h71v-316h-156v154h-45l-76 184q-14 35 -29.5 56t-46.5 21h-26v-261z" />
    <glyph glyph-name="uni0497" unicode="&#x497;" horiz-adv-x="821" 
d="M801 142v-266h-149v124h-38l-54 118q-9 20 -20.5 34.5t-35.5 14.5h-23v-167h-164v167h-29q-24 0 -35.5 -14.5t-20.5 -34.5l-54 -118h-173l73 145q20 41 41 64.5t52 34.5q-26 10 -44.5 28.5t-38.5 60.5l-65 143h166l52 -115q11 -26 21.5 -39t33.5 -13h21v167h164v-167h24
q23 0 33 13t21 39l51 115h164l-65 -143q-20 -42 -38 -60.5t-44 -28.5q32 -11 53 -35t42 -67h79z" />
    <glyph glyph-name="uni0498" unicode="&#x498;" horiz-adv-x="581" 
d="M177 415h99q37 0 61.5 12t24.5 44q0 29 -23 44.5t-69 15.5q-48 0 -80 -18.5t-58 -46.5l-104 99q24 31 54.5 53.5t64.5 37t69.5 21.5t69.5 7q51 0 95.5 -12.5t77.5 -36t52 -58.5t19 -80q0 -57 -27 -98.5t-75 -60.5q62 -17 93 -61.5t31 -99.5q0 -47 -20 -82.5t-56 -60.5
t-85.5 -37.5t-108.5 -12.5q-39 0 -77.5 7.5t-74 22.5t-66.5 37.5t-54 51.5l104 102q27 -27 64 -47.5t96 -20.5q50 0 78.5 16.5t28.5 52.5q0 37 -24.5 50t-58.5 13h-121v146zM185 -141q36 -12 72 -12q7 0 16.5 0.5t17.5 2.5t14 7t6 14q0 8 -5.5 12t-13 6t-16.5 2.5t-15 0.5
q-17 0 -34.5 -2t-34.5 -8l14 69q22 6 44 8t45 2q22 0 43.5 -4.5t38.5 -15t28 -28t11 -42.5q0 -28 -12.5 -47.5t-32.5 -32t-44.5 -18t-49.5 -5.5q-27 0 -54 3t-53 13z" />
    <glyph glyph-name="uni0499" unicode="&#x499;" horiz-adv-x="480" 
d="M140 299h97q22 0 35.5 7.5t13.5 24.5q0 37 -66 37q-46 0 -81 -15.5t-54 -29.5l-66 93q36 31 90.5 53.5t127.5 22.5q46 0 85 -10t67 -28.5t43.5 -45t15.5 -59.5q0 -36 -19 -65t-52 -43q42 -14 62.5 -45t20.5 -69q0 -35 -16.5 -62t-46 -45t-69 -27t-85.5 -9
q-77 0 -137.5 22t-95.5 54l64 98q23 -15 59.5 -32t89.5 -17q32 0 51.5 9t19.5 30q0 20 -14.5 27t-37.5 7h-102v117zM136 -139q17 -6 35 -10t36 -4q7 0 16.5 0.5t18 3.5t14.5 8.5t6 14.5t-5.5 14t-13.5 7t-17 2.5t-15 0.5q-36 0 -68 -13l14 69q43 12 88 12q22 0 43.5 -5
t38.5 -16t27.5 -28.5t10.5 -42.5q0 -28 -12.5 -48t-32 -33t-44.5 -19t-49 -6q-27 0 -53.5 4t-52.5 14z" />
    <glyph glyph-name="uni049A" unicode="&#x49a;" horiz-adv-x="688" 
d="M237 0h-177v667h177v-244h20q38 0 60 17.5t40 55.5l83 171h195l-104 -206q-24 -48 -53.5 -73t-65.5 -40q45 -14 73.5 -41t51.5 -70l40 -75h81v-316h-156v154h-49l-92 184q-17 35 -36 56t-56 21h-32v-261z" />
    <glyph glyph-name="uni049B" unicode="&#x49b;" horiz-adv-x="584" 
d="M215 0h-166v476h166v-167h29q26 0 39.5 13t26.5 39l56 115h172l-72 -143q-20 -38 -42 -58.5t-51 -30.5q35 -11 59.5 -35t47.5 -67h78v-266h-149v124h-39l-61 118q-11 20 -24 34.5t-40 14.5h-30v-167z" />
    <glyph glyph-name="uni049C" unicode="&#x49c;" horiz-adv-x="725" 
d="M285 523h91v-98q25 11 49 71l65 171h193l-91 -208q-19 -44 -45 -69.5t-66 -41.5q29 -10 58.5 -33t53.5 -76l109 -239h-207l-74 184q-11 28 -21.5 46.5t-23.5 26.5v-95h-91v99h-51v-261h-174v667h174v-244h51v100z" />
    <glyph glyph-name="uni049D" unicode="&#x49d;" horiz-adv-x="616" 
d="M256 391h76v-82q14 0 21 13t16 39l39 115h166l-54 -143q-8 -22 -17.5 -36.5t-20 -24.5t-22.5 -16.5t-25 -11.5q35 -11 57.5 -34t41.5 -65l66 -145h-181l-46 118q-8 19 -17 33t-24 16v-87h-76v87h-38v-167h-169v476h169v-167h38v82z" />
    <glyph glyph-name="uni049E" unicode="&#x49e;" horiz-adv-x="688" 
d="M237 0h-177v514h-60v90h60v63h177v-63h78v-90h-78v-101h30q38 0 60 18.5t40 57.5l83 178h195l-104 -212q-24 -50 -53.5 -75.5t-65.5 -41.5q45 -14 73.5 -40t51.5 -68l128 -230h-212l-92 177q-17 34 -36 54t-56 20h-42v-251z" />
    <glyph glyph-name="uni049F" unicode="&#x49f;" horiz-adv-x="577" 
d="M231 0h-169v356h-57v86h57v34h169v-34h49v-86h-49v-52h27q26 0 39 14t26 40l57 118h171l-74 -146q-22 -43 -43 -62t-50 -29q44 -12 69.5 -33.5t46.5 -63.5l72 -142h-186l-51 114q-10 22 -26 35t-48 13h-30v-162z" />
    <glyph glyph-name="uni04A0" unicode="&#x4a0;" horiz-adv-x="790" 
d="M339 0h-177v512h-142v155h319v-244h23q38 0 60 17.5t40 55.5l83 171h195l-104 -206q-24 -48 -53.5 -73t-65.5 -40q45 -14 73.5 -41t51.5 -70l128 -237h-212l-92 184q-17 35 -36 56t-56 21h-35v-261z" />
    <glyph glyph-name="uni04A1" unicode="&#x4a1;" horiz-adv-x="638" 
d="M293 0h-166v334h-117v142h283v-167h25q26 0 39.5 13t26.5 39l56 115h172l-72 -143q-20 -38 -42 -58.5t-51 -30.5q35 -11 59 -34.5t47 -64.5l80 -145h-189l-61 118q-11 20 -24 34.5t-40 14.5h-26v-167z" />
    <glyph glyph-name="uni04A2" unicode="&#x4a2;" horiz-adv-x="751" 
d="M70 667h177v-244h236v244h177v-505h71v-316h-156v154h-92v261h-236v-261h-177v667z" />
    <glyph glyph-name="uni04A3" unicode="&#x4a3;" horiz-adv-x="618" 
d="M534 476v-334h64v-266h-149v124h-84v167h-147v-167h-169v476h169v-167h147v167h169z" />
    <glyph glyph-name="uni04A4" unicode="&#x4a4;" horiz-adv-x="816" 
d="M65 667h177v-244h236v244h318v-155h-141v-512h-177v261h-236v-261h-177v667z" />
    <glyph glyph-name="uni04A5" unicode="&#x4a5;" horiz-adv-x="657" 
d="M647 476v-142h-117v-334h-169v167h-143v-167h-169v476h169v-167h143v167h286z" />
    <glyph glyph-name="uni04A6" unicode="&#x4a6;" horiz-adv-x="1087" 
d="M70 667h585v-270q27 12 56.5 19t63.5 7q57 0 108 -20.5t88.5 -60t59.5 -97t22 -131.5q0 -72 -21 -132t-58.5 -103t-88.5 -67t-112 -24q-54 0 -110 19l40 144q24 -7 46 -7q54 0 87.5 43t33.5 122q0 43 -10 74t-28 50.5t-42 28.5t-51 9q-22 0 -43 -5t-41 -13v-253h-177v505
h-231v-505h-177v667z" />
    <glyph glyph-name="uni04A7" unicode="&#x4a7;" horiz-adv-x="854" 
d="M516 476v-200q18 6 39.5 10.5t48.5 4.5q48 0 88.5 -16t70 -46.5t46 -76t16.5 -104.5q0 -62 -18.5 -110.5t-50 -81.5t-73.5 -50t-88 -17q-50 0 -99 18l36 135q24 -9 45 -9q38 0 59 28t21 82q0 60 -26.5 87.5t-68.5 27.5q-12 0 -23.5 -2t-22.5 -5v-151h-169v334h-129v-334
h-169v476h467z" />
    <glyph glyph-name="uni04A8" unicode="&#x4a8;" horiz-adv-x="789" 
d="M648 -17q-64 0 -128 25q-63 -24 -136 -24q-81 0 -146 26.5t-110 73t-69.5 109.5t-24.5 136q0 81 27 146.5t73 112t107.5 71.5t130.5 25q39 0 72 -6t68 -20l-47 -138q-20 8 -39.5 12.5t-42.5 4.5q-37 0 -70.5 -14t-58.5 -41.5t-39.5 -67t-14.5 -90.5q0 -42 12 -79.5
t35 -66t55.5 -46.5t73.5 -21q-29 36 -46 78t-17 90q0 45 16 83t44.5 65t66 42t81.5 15q40 0 77 -13.5t65 -39t44.5 -62.5t16.5 -85q0 -63 -27 -113.5t-71 -85.5q5 -1 10.5 -1h10.5q29 0 56 7t45 16l31 -94q-23 -11 -54.5 -20.5t-76.5 -9.5zM580 275q0 38 -15 61t-44 23
q-31 0 -47.5 -25.5t-16.5 -66.5q0 -37 13.5 -69t36.5 -56q32 20 52.5 53t20.5 80z" />
    <glyph glyph-name="uni04A9" unicode="&#x4a9;" horiz-adv-x="587" 
d="M347 353q-25 11 -53 11q-48 0 -80 -35.5t-32 -98.5q0 -54 27.5 -90.5t84.5 -44.5q-17 22 -26 47t-9 51q0 28 10.5 52.5t29.5 42.5t45 28t58 10q30 0 56.5 -9.5t46 -27t30.5 -42t11 -54.5q0 -38 -16.5 -68.5t-40.5 -55.5q5 -1 9 -1h9q12 0 27.5 2t29.5 5l17 -82
q-17 -5 -36 -7t-34 -2q-23 0 -48 5.5t-49 15.5q-54 -21 -114 -21q-61 0 -111 18t-85.5 51t-55 79.5t-19.5 103.5q0 61 21.5 108.5t57 80.5t80 50t90.5 17q25 0 52.5 -5t52.5 -15zM442 185q0 23 -10 37.5t-29 14.5q-20 0 -29.5 -15t-9.5 -37q0 -23 9 -41.5t25 -32.5
q20 11 32 29t12 45z" />
    <glyph glyph-name="uni04AA" unicode="&#x4aa;" horiz-adv-x="683" 
d="M678 124q-113 -141 -297 -141q-77 0 -141 26t-109.5 72t-71 110t-25.5 141q0 76 25 140.5t71 112t110 74t141 26.5q87 0 161 -29t125 -101l-117 -118q-28 38 -67 61t-89 23q-42 0 -75 -14t-55.5 -39t-34.5 -58.5t-12 -72.5q0 -40 12.5 -74t35.5 -59t55.5 -39t72.5 -14
q58 0 94.5 20.5t71.5 64.5zM272 -141q36 -12 72 -12q7 0 16.5 0.5t17.5 2.5t14 7t6 14q0 8 -5.5 12t-13 6t-16.5 2.5t-15 0.5q-17 0 -34.5 -2t-34.5 -8l14 69q22 6 44 8t45 2q22 0 43.5 -4.5t38.5 -15t28 -28t11 -42.5q0 -28 -12.5 -47.5t-32.5 -32t-44.5 -18t-49.5 -5.5
q-27 0 -54 3t-53 13z" />
    <glyph glyph-name="uni04AB" unicode="&#x4ab;" horiz-adv-x="483" 
d="M478 62q-26 -30 -75.5 -54t-116.5 -24q-54 0 -101 18.5t-81.5 51.5t-54.5 79.5t-20 102.5q0 55 19 101.5t53.5 81t82 54t104.5 19.5q64 0 112.5 -22.5t77.5 -55.5l-99 -113l-11 11.5t-17.5 14.5t-25 12t-32.5 5q-43 0 -68.5 -29t-25.5 -76q0 -48 26.5 -77.5t67.5 -29.5
q18 0 32.5 5.5t25.5 13t18 14.5l10 10zM183 -139q17 -6 35 -10t36 -4q7 0 16.5 0.5t18 3.5t14.5 8.5t6 14.5t-5.5 14t-13.5 7t-17 2.5t-15 0.5q-36 0 -68 -13l14 69q43 12 88 12q22 0 43.5 -5t38.5 -16t27.5 -28.5t10.5 -42.5q0 -28 -12.5 -48t-32 -33t-44.5 -19t-49 -6
q-27 0 -53.5 4t-52.5 14z" />
    <glyph glyph-name="uni04AC" unicode="&#x4ac;" horiz-adv-x="627" 
d="M225 512h-205v155h587v-155h-203v-350h71v-316h-156v154h-94v512z" />
    <glyph glyph-name="uni04AD" unicode="&#x4ad;" horiz-adv-x="483" 
d="M390 142v-266h-149v124h-84v334h-147v142h463v-142h-147v-192h64z" />
    <glyph glyph-name="uni04AE" unicode="&#x4ae;" horiz-adv-x="672" 
d="M247 266l-237 401h203l130 -238l122 238h197l-238 -400v-267h-177v266z" />
    <glyph glyph-name="uni04AF" unicode="&#x4af;" horiz-adv-x="563" 
d="M5 476h184l96 -285l89 285h184l-193 -446v-230h-168v219z" />
    <glyph glyph-name="uni04B0" unicode="&#x4b0;" horiz-adv-x="672" 
d="M558 273v-90h-138v-183h-169v183h-138v90h134l-237 394h203l130 -238l122 238h197l-239 -394h135z" />
    <glyph glyph-name="uni04B1" unicode="&#x4b1;" horiz-adv-x="563" 
d="M73 0v86h103l-171 390h184l96 -285l89 285h184l-177 -390h108v-86h-128v-200h-160v200h-128z" />
    <glyph glyph-name="uni04B2" unicode="&#x4b2;" horiz-adv-x="670" 
d="M227 341l-227 326h218l111 -173l107 173h197l-207 -309l138 -196h86v-316h-156v154h-38l-133 205l-129 -205h-194z" />
    <glyph glyph-name="uni04B3" unicode="&#x4b3;" horiz-adv-x="550" 
d="M177 236l-172 240h195l74 -116l75 116h181l-165 -231l74 -103h91v-266h-149v124h-34l-79 120l-79 -120h-181z" />
    <glyph glyph-name="uni04B4" unicode="&#x4b4;" horiz-adv-x="876" 
d="M198 512h-178v155h498v-155h-143v-350h233v505h177v-505h71v-316h-156v154h-502v512z" />
    <glyph glyph-name="uni04B5" unicode="&#x4b5;" horiz-adv-x="705" 
d="M388 476v-140h-85v-196h152v336h166v-336h64v-264h-149v124h-399v336h-117v140h368z" />
    <glyph glyph-name="uni04B6" unicode="&#x4b6;" horiz-adv-x="689" 
d="M597 667v-505h72v-316h-156v154h-93v240q-29 -13 -62 -20t-67 -7q-46 0 -89.5 14t-77 44.5t-54 78t-20.5 113.5v204h177v-187q0 -60 28 -88.5t81 -28.5q25 0 47.5 5t36.5 12v287h177z" />
    <glyph glyph-name="uni04B7" unicode="&#x4b7;" horiz-adv-x="584" 
d="M564 142v-266h-149v124h-84v142q-23 -8 -49.5 -12.5t-49.5 -4.5q-35 0 -69.5 12t-61.5 36.5t-44 62t-17 88.5v152h169v-138q0 -42 20 -59t50 -17q14 0 28 3t24 8v203h169v-334h64z" />
    <glyph glyph-name="uni04B8" unicode="&#x4b8;" horiz-adv-x="682" 
d="M386 126h-91v87q-49 1 -93.5 16.5t-78 46.5t-53.5 77.5t-20 109.5v204h177v-192q0 -48 16 -74.5t52 -36.5v113h91v-118q17 3 33 7t26 9v292h177v-667h-177v240q-15 -7 -30 -11.5t-29 -7.5v-95z" />
    <glyph glyph-name="uni04B9" unicode="&#x4b9;" horiz-adv-x="576" 
d="M246 361h76v-102q11 2 20.5 4t17.5 5v208h167v-476h-167v147q-9 -3 -18.5 -5.5t-19.5 -4.5v-77h-76v70q-38 1 -75 13t-66 37t-47 62t-18 87v147h166v-143q0 -27 10.5 -43.5t29.5 -24.5v96z" />
    <glyph glyph-name="uni04BA" unicode="&#x4ba;" horiz-adv-x="672" 
d="M60 0v667h177v-220q30 13 64.5 20t69.5 7q48 0 93 -14t80 -44.5t56.5 -78t21.5 -113.5v-224h-177v207q0 60 -30.5 88.5t-87.5 28.5q-26 0 -51 -5t-39 -12v-307h-177z" />
    <glyph glyph-name="uni04BB" unicode="&#x4bb;" horiz-adv-x="577" 
d="M49 667h169v-234q14 17 32 28t37 17t36.5 8t30.5 2q37 0 69 -10.5t56 -33t37.5 -58t13.5 -84.5v-302h-169v258q0 38 -16.5 59.5t-48.5 21.5q-23 0 -38 -7t-24 -19t-12.5 -26.5t-3.5 -29.5v-257h-169v667z" />
    <glyph glyph-name="uni04BC" unicode="&#x4bc;" horiz-adv-x="887" 
d="M557 130q34 0 61 7.5t48 19.5t37 26t27 28l103 -97q-21 -27 -49 -50.5t-63.5 -41t-78.5 -28t-94 -10.5q-73 0 -132.5 21t-103 59.5t-70.5 91.5t-35 117q-48 0 -84 14t-60 37.5t-36 54.5t-12 66q0 32 9.5 63.5t23.5 55.5l115 -42q-6 -12 -10.5 -27t-4.5 -31q0 -26 15 -44
t47 -18q10 58 36.5 109.5t67.5 90t96.5 61t125.5 22.5q66 0 124 -22t100.5 -68t67.5 -117t25 -168q0 -9 -0.5 -18t-0.5 -19h-465q12 -67 53.5 -105t116.5 -38zM672 402q-2 27 -11.5 51.5t-26 43.5t-41.5 30.5t-59 11.5q-32 0 -56.5 -10.5t-42.5 -29.5t-29.5 -44t-17.5 -53
h284z" />
    <glyph glyph-name="uni04BD" unicode="&#x4bd;" horiz-adv-x="655" 
d="M10 329q0 27 8 53t20 46l92 -36q-5 -11 -9 -23.5t-4 -26.5q0 -23 11.5 -38t37.5 -16q7 41 25.5 78t47 65t68.5 44.5t91 16.5q49 0 91.5 -17t73.5 -50.5t48.5 -84.5t17.5 -120v-32h-310q8 -42 35 -60t76 -18q44 0 78.5 11t53.5 23l53 -110q-12 -7 -30 -15.5t-43 -16
t-55 -13t-66 -5.5q-114 0 -179.5 55t-77.5 149q-38 1 -67 12.5t-48.5 31t-29 44.5t-9.5 53zM479 288q-1 12 -4.5 25.5t-12 25.5t-22.5 19.5t-36 7.5q-38 0 -57 -21.5t-26 -56.5h158z" />
    <glyph glyph-name="uni04BE" unicode="&#x4be;" horiz-adv-x="888" 
d="M462 -154v147q-109 23 -174.5 97.5t-79.5 182.5q-48 0 -84 14t-60 37.5t-36 54.5t-12 66q0 32 9.5 63.5t23.5 55.5l115 -42q-6 -12 -10.5 -27t-4.5 -31q0 -26 15 -44t47 -18q10 58 36.5 109.5t67.5 90t96.5 61t125.5 22.5q66 0 124 -22t100.5 -68t67.5 -117t25 -168
q0 -9 -0.5 -18t-0.5 -19h-466q12 -69 54 -107.5t117 -38.5q34 0 61 8t48 20t37 27t27 29l103 -97q-35 -44 -88.5 -78.5t-127.5 -45.5v-144h-156zM673 402q-2 27 -11.5 51.5t-26 43.5t-41.5 30.5t-59 11.5q-32 0 -56.5 -10.5t-42.5 -29.5t-29.5 -44t-17.5 -53h284z" />
    <glyph glyph-name="uni04BF" unicode="&#x4bf;" horiz-adv-x="658" 
d="M335 -124v118q-75 19 -118.5 69.5t-52.5 124.5q-38 1 -67 12.5t-48.5 31t-29 44.5t-9.5 53q0 27 8 53t20 46l92 -36q-5 -11 -9 -23.5t-4 -26.5q0 -23 11.5 -38t37.5 -16q7 41 25.5 78t47 65t68.5 44.5t91 16.5q49 0 91.5 -17t73.5 -50.5t48.5 -84.5t17.5 -120v-32h-310
q8 -43 35 -62t75 -19q45 0 79.5 12.5t53.5 24.5l53 -110q-18 -11 -51 -24t-80 -21v-113h-149zM479 288q-1 12 -4.5 25.5t-12 25.5t-22.5 19.5t-36 7.5q-38 0 -57 -21.5t-26 -56.5h158z" />
    <glyph glyph-name="uni04C0" unicode="&#x4c0;" horiz-adv-x="297" 
d="M60 667h177v-667h-177v667z" />
    <glyph glyph-name="uni04C1" unicode="&#x4c1;" horiz-adv-x="970" 
d="M571 0h-172v261h-38q-31 0 -47 -21t-30 -56l-77 -184h-197l112 239q24 52 50 75.5t55 33.5q-27 14 -52.5 40.5t-44.5 70.5l-92 208h192l69 -171q15 -38 34.5 -55.5t51.5 -17.5h14v244h172v-244h19q32 0 50 17.5t33 55.5l69 171h192l-92 -208q-19 -44 -45.5 -70.5
t-53.5 -40.5q29 -10 55 -33.5t50 -75.5l112 -239h-206l-76 184q-14 35 -29.5 56t-46.5 21h-31v-261zM435 863q1 -20 13 -33t33 -13q22 0 34 13t12 33h119q0 -36 -13.5 -63.5t-36 -46.5t-52 -29t-63.5 -10q-33 0 -63 10t-52.5 29t-35.5 46.5t-13 63.5h118z" />
    <glyph glyph-name="uni04C2" unicode="&#x4c2;" horiz-adv-x="806" 
d="M485 0h-164v167h-33q-24 0 -35.5 -14.5t-20.5 -34.5l-54 -118h-173l73 145q20 41 41 64.5t52 34.5q-26 10 -43.5 28.5t-37.5 60.5l-65 143h162l52 -115q11 -26 22 -39t34 -13h26v167h164v-167h26q23 0 34 13t22 39l51 115h164l-65 -143q-20 -42 -38 -60.5t-44 -28.5
q32 -11 52.5 -34.5t40.5 -64.5l73 -145h-179l-54 118q-9 20 -20.5 34.5t-35.5 14.5h-27v-167zM356 688q1 -19 12 -32.5t35 -13.5q23 0 34.5 13.5t12.5 32.5h116q0 -35 -13 -61.5t-35.5 -44.5t-52 -27t-62.5 -9t-62.5 9t-52 27t-35.5 44.5t-13 61.5h116z" />
    <glyph glyph-name="uni04C3" unicode="&#x4c3;" horiz-adv-x="670" 
d="M237 423h30q38 0 60 17.5t40 55.5l83 171h195l-92 -181q-18 -36 -41 -59t-59 -40q43 -9 78 -33t60.5 -61t39.5 -85t14 -106q0 -66 -21 -123t-58.5 -99.5t-88.5 -67t-112 -24.5q-54 0 -110 19l40 146q24 -7 47 -7q54 0 87 41t33 118q0 84 -41 120t-115 36h-69v-261h-177
v667h177v-244z" />
    <glyph glyph-name="uni04C4" unicode="&#x4c4;" horiz-adv-x="571" 
d="M215 0h-166v476h166v-167h29q26 0 39.5 13t26.5 39l56 115h172l-62 -123q-32 -62 -90 -79q77 -20 121 -78.5t44 -161.5q0 -59 -18.5 -105t-50 -77t-73.5 -47t-88 -16q-50 0 -99 18l36 134q24 -9 45 -9q38 0 59 31.5t21 85.5q0 62 -28.5 90t-82.5 28h-57v-167z" />
    <glyph glyph-name="uni04C5" unicode="&#x4c5;" horiz-adv-x="746" 
d="M655 667v-505h71v-83q0 -93 -31.5 -161t-89.5 -126l-104 85q29 32 46.5 60.5t25.5 62.5h-95v505h-125q-8 -137 -28.5 -233t-57.5 -157.5t-93 -89.5t-135 -28h-19v157q39 0 69 17.5t51.5 71.5t34.5 155t18 269h462z" />
    <glyph glyph-name="uni04C6" unicode="&#x4c6;" horiz-adv-x="626" 
d="M542 476v-334h64v-70q0 -78 -28 -135.5t-80 -106.5l-100 83q19 22 34 42t24 45h-83v334h-77q-8 -91 -26.5 -155t-49.5 -104.5t-73 -59t-96 -18.5q-8 0 -15.5 0.5t-15.5 1.5v146h7q28 0 50 14.5t37 52t24 101.5t11 163h393z" />
    <glyph glyph-name="uni04C7" unicode="&#x4c7;" horiz-adv-x="720" 
d="M60 667h177v-244h246v244h177v-642q0 -54 -10.5 -96.5t-34.5 -71.5t-63 -44t-96 -15q-38 0 -81.5 12t-69.5 30l63 114q14 -8 28 -13.5t29 -5.5q19 0 30.5 8t17.5 20.5t8 27t2 28.5v242h-246v-261h-177v667z" />
    <glyph glyph-name="uni04C8" unicode="&#x4c8;" horiz-adv-x="583" 
d="M534 476v-427q0 -53 -8.5 -98.5t-30.5 -79t-60 -52.5t-96 -19q-50 0 -87.5 13.5t-63.5 35.5l63 115q11 -7 25 -13.5t34 -6.5q32 0 43.5 20t11.5 53v150h-147v-167h-169v476h169v-167h147v167h169z" />
    <glyph glyph-name="uni04C9" unicode="&#x4c9;" horiz-adv-x="741" 
d="M60 667h177v-244h236v244h177v-505h71v-83q0 -93 -31.5 -161t-89.5 -126l-104 85q29 32 46.5 60.5t25.5 62.5h-95v261h-236v-261h-177v667z" />
    <glyph glyph-name="uni04CA" unicode="&#x4ca;" horiz-adv-x="618" 
d="M534 476v-334h64v-70q0 -78 -28 -135.5t-80 -106.5l-100 83q19 22 34 42t24 45h-83v167h-147v-167h-169v476h169v-167h147v167h169z" />
    <glyph glyph-name="uni04CB" unicode="&#x4cb;" horiz-adv-x="667" 
d="M607 667v-667h-92v-154h-156v286h71v113q-30 -13 -64 -20t-69 -7q-47 0 -91 14t-79 44.5t-56 78t-21 113.5v199h177v-182q0 -60 29.5 -88.5t85.5 -28.5q26 0 50 5t38 12v282h177z" />
    <glyph glyph-name="uni04CC" unicode="&#x4cc;" horiz-adv-x="546" 
d="M497 476v-476h-82v-124h-149v196h64v82q-23 -8 -49 -12.5t-49 -4.5q-35 0 -69.5 12t-61.5 36.5t-44 62t-17 88.5v140h166v-126q0 -42 20.5 -59t50.5 -17q14 0 28.5 3t24.5 8v191h167z" />
    <glyph glyph-name="uni04CD" unicode="&#x4cd;" horiz-adv-x="841" 
d="M77 667h168l158 -287l147 287h177l23 -505h71v-83q0 -93 -31.5 -161t-89.5 -126l-104 85q29 32 46.5 60.5t25.5 62.5h-89l-16 391l-113 -228h-95l-126 228l-13 -391h-170z" />
    <glyph glyph-name="uni04CE" unicode="&#x4ce;" horiz-adv-x="669" 
d="M274 100l-65 138l-10 -238h-154l23 476h150l96 -205l97 205h153l16 -334h69v-70q0 -78 -28 -135.5t-80 -106.5l-100 83q19 22 34 42t24 45h-73l-10 238l-65 -138h-77z" />
    <glyph glyph-name="uni04CF" unicode="&#x4cf;" horiz-adv-x="267" 
d="M49 667h169v-667h-169v667z" />
    <glyph glyph-name="uni04D0" unicode="&#x4d0;" horiz-adv-x="704" 
d="M255 667h203l236 -667h-191l-43 138h-223l-44 -138h-183zM424 267l-74 245l-77 -245h151zM304 863q1 -20 13 -33t33 -13q22 0 34 13t12 33h119q0 -36 -13.5 -63.5t-36 -46.5t-52 -29t-63.5 -10q-33 0 -63 10t-52.5 29t-35.5 46.5t-13 63.5h118z" />
    <glyph glyph-name="uni04D1" unicode="&#x4d1;" horiz-adv-x="534" 
d="M328 0l-6 44q-32 -34 -64.5 -47t-80.5 -13q-23 0 -49 6.5t-48 23t-36 44t-14 70.5t18 76t49 55t72 33t86 11q23 0 36.5 -1t30.5 -3v9q0 18 -7.5 30t-19 18.5t-25 9t-26.5 2.5q-45 0 -79 -11.5t-55 -26.5l-64 97q30 24 84 44t138 20q49 0 89 -13t69 -38.5t45 -63.5t16 -88
v-288h-159zM322 208q-15 4 -46 4q-42 0 -62 -17t-20 -42q0 -54 56 -54q13 0 26 3.5t23 12.5t16.5 24t6.5 37v32zM217 694q1 -19 12 -32.5t35 -13.5q23 0 34.5 13.5t12.5 32.5h116q0 -35 -13 -61.5t-35.5 -44.5t-52 -27t-62.5 -9t-62.5 9t-52 27t-35.5 44.5t-13 61.5h116z
" />
    <glyph glyph-name="uni04D2" unicode="&#x4d2;" horiz-adv-x="704" 
d="M255 667h203l236 -667h-191l-43 138h-223l-44 -138h-183zM424 267l-74 245l-77 -245h151zM394 859h141v-128h-141v128zM169 859h141v-128h-141v128z" />
    <glyph glyph-name="uni04D3" unicode="&#x4d3;" horiz-adv-x="534" 
d="M328 0l-6 44q-32 -34 -64.5 -47t-80.5 -13q-23 0 -49 6.5t-48 23t-36 44t-14 70.5t18 76t49 55t72 33t86 11q23 0 36.5 -1t30.5 -3v9q0 18 -7.5 30t-19 18.5t-25 9t-26.5 2.5q-45 0 -79 -11.5t-55 -26.5l-64 97q30 24 84 44t138 20q49 0 89 -13t69 -38.5t45 -63.5t16 -88
v-288h-159zM322 208q-15 4 -46 4q-42 0 -62 -17t-20 -42q0 -54 56 -54q13 0 26 3.5t23 12.5t16.5 24t6.5 37v32zM303 677h131v-120h-131v120zM102 677h131v-120h-131v120z" />
    <glyph glyph-name="uni04D4" unicode="&#x4d4;" horiz-adv-x="965" 
d="M367 667h545v-155h-275v-100h222v-146h-222v-110h296v-156h-462v151h-203l-75 -151h-193zM471 290v227h-19l-115 -227h134z" />
    <glyph glyph-name="uni04D5" unicode="&#x4d5;" horiz-adv-x="813" 
d="M39 427q32 25 84.5 44.5t131.5 19.5q51 0 87.5 -14t61.5 -39q28 26 65.5 40t94.5 14q48 0 89 -17t70.5 -50.5t46.5 -84.5t17 -120v-32h-318q1 -12 7 -26t19 -25.5t35 -19t56 -7.5q43 0 78.5 11t55.5 23l53 -110q-12 -7 -30.5 -15.5t-43.5 -16t-56 -13t-66 -5.5
q-66 0 -112 17.5t-76 51.5q-42 -38 -86.5 -53.5t-98.5 -15.5q-34 0 -66.5 7t-58 24t-41 45t-15.5 71q0 42 18 74t49 53.5t72 32t86 10.5q23 0 36.5 -1t30.5 -3v9q0 19 -7.5 31t-19 19t-25 9.5t-26.5 2.5q-45 0 -79 -11.5t-55 -26.5zM315 206q-15 4 -46 4q-42 0 -62 -17
t-20 -41q0 -53 56 -53q13 0 26 3.5t23 12t16.5 23t6.5 36.5v32zM637 288q0 14 -5 28t-15 25t-26 18t-37 7t-37 -7.5t-26.5 -19.5t-15.5 -25.5t-5 -25.5h167z" />
    </font>
</defs>
</svg>
