<?xml version="1.0" standalone="no"?>
<!DOCTYPE svg PUBLIC "-//W3C//DTD SVG 1.1//EN" "http://www.w3.org/Graphics/SVG/1.1/DTD/svg11.dtd" >
<svg>
<metadata>
Created by FontForge 20090622 at Mon Aug 31 22:48:33 2015
 By deploy user
Copyright 2013 Dalton Maag Ltd. Modification of this file requires prior written permission from Dalton Maag Ltd.
</metadata>
<defs>
<font id="Effra-Italic" horiz-adv-x="360" >
  <font-face 
    font-family="Effra"
    font-weight="400"
    font-style="italic"
    font-stretch="normal"
    units-per-em="1000"
    panose-1="2 11 6 3 2 2 3 9 2 4"
    ascent="798"
    descent="-202"
    x-height="465"
    cap-height="667"
    bbox="-174 -236 1177 917"
    underline-thickness="45"
    underline-position="-123"
    slope="-11"
    unicode-range="U+0008-U+FB04"
  />
<missing-glyph horiz-adv-x="500" 
d="M149 700h442l-136 -700h-442zM402 54l115 592h-317l-115 -592h317z" />
    <glyph glyph-name="f_f" unicode="ff" horiz-adv-x="609" 
d="M629 606q-39 0 -61.5 -25t-34.5 -86l-6 -30h127l-14 -72h-127l-76 -393h-87l76 393h-205l-76 -393h-87l76 393h-81l14 72h81l7 38q17 94 66.5 137.5t117.5 43.5q30 0 61 -12t54 -41l-53 -54q-13 14 -29 21.5t-39 7.5q-37 0 -58.5 -25t-33.5 -86l-6 -30h205l7 38
q17 94 67.5 137.5t120.5 43.5q30 0 62.5 -12t55.5 -41l-53 -54q-14 16 -31 22.5t-40 6.5z" />
    <glyph glyph-name="f_i" unicode="fi" horiz-adv-x="519" 
d="M410 393h-189l-76 -393h-87l76 393h-81l14 72h81l9 45q9 45 30 77.5t51 54t66.5 32t76.5 10.5q48 0 91 -17.5t71 -48.5l-57 -54q-26 23 -50.5 33t-59.5 10q-49 0 -85.5 -23t-48.5 -84l-7 -35h276l-90 -465h-87z" />
    <glyph glyph-name="f_l" unicode="fl" horiz-adv-x="515" 
d="M449 591q-13 7 -32.5 11.5t-48.5 4.5q-22 0 -42.5 -5t-37 -17.5t-28.5 -33t-18 -51.5l-7 -35h127l-14 -72h-127l-76 -393h-87l76 393h-81l14 72h81l9 45q9 45 30 77.5t50.5 54t64.5 32t71 10.5q94 0 171 -47l-123 -637h-86z" />
    <glyph glyph-name="f_f_i" unicode="ffi" horiz-adv-x="811" 
d="M702 393h-189l-76 -393h-87l76 393h-205l-76 -393h-87l76 393h-81l14 72h81l7 38q17 94 66.5 137.5t117.5 43.5q30 0 61 -12t54 -41l-53 -54q-13 14 -29 21.5t-39 7.5q-37 0 -58.5 -25t-33.5 -86l-6 -30h205l9 45q9 45 30 77.5t51 54t66.5 32t76.5 10.5q48 0 91 -17.5
t71 -48.5l-57 -54q-26 23 -50.5 33t-59.5 10q-49 0 -85.5 -23t-48.5 -84l-7 -35h276l-90 -465h-87z" />
    <glyph glyph-name="f_f_l" unicode="ffl" horiz-adv-x="807" 
d="M221 393l-76 -393h-87l76 393h-81l14 72h81l7 38q17 94 66.5 137.5t117.5 43.5q30 0 61 -12t54 -41l-53 -54q-13 14 -29 21.5t-39 7.5q-37 0 -58.5 -25t-33.5 -86l-6 -30h205l9 45q9 45 30 77.5t50.5 54t64.5 32t71 10.5q94 0 171 -47l-123 -637h-86l114 591
q-13 7 -32.5 11.5t-48.5 4.5q-22 0 -42.5 -5t-37 -17.5t-28.5 -33t-18 -51.5l-7 -35h127l-14 -72h-127l-76 -393h-87l76 393h-205z" />
    <glyph glyph-name=".notdef" horiz-adv-x="500" 
d="M149 700h442l-136 -700h-442zM402 54l115 592h-317l-115 -592h317z" />
    <glyph glyph-name=".null" horiz-adv-x="0" 
 />
    <glyph glyph-name=".null" horiz-adv-x="0" 
 />
    <glyph glyph-name=".null" horiz-adv-x="0" 
 />
    <glyph glyph-name="nonmarkingreturn" unicode="&#x9;" horiz-adv-x="166" 
 />
    <glyph glyph-name="nonmarkingreturn" unicode="&#xd;" horiz-adv-x="166" 
 />
    <glyph glyph-name="space" unicode=" " horiz-adv-x="166" 
 />
    <glyph glyph-name="exclam" unicode="!" horiz-adv-x="248" 
d="M169 667h96l-94 -475h-91zM55 109h108l-21 -109h-108z" />
    <glyph glyph-name="quotedbl" unicode="&#x22;" horiz-adv-x="342" 
d="M288 667h82l-43 -221h-82zM140 667h82l-43 -221h-82z" />
    <glyph glyph-name="numbersign" unicode="#" horiz-adv-x="697" 
d="M164 164h-115l11 72h133l60 153h-114l11 72h132l66 164h78l-65 -164h142l66 164h78l-65 -164h109l-11 -72h-128l-60 -153h109l-11 -72h-128l-64 -164h-78l64 164h-143l-64 -164h-78zM414 236l60 153h-143l-60 -153h143z" />
    <glyph glyph-name="dollar" unicode="$" horiz-adv-x="545" 
d="M202 -14q-52 6 -105.5 29.5t-90.5 72.5l57 54q36 -38 71 -56t83 -22l44 230q-30 12 -56 27.5t-45 35.5t-29.5 44.5t-10.5 55.5q0 33 12.5 65t38.5 57.5t65.5 42t92.5 18.5l17 89h59l-18 -91q30 -5 54.5 -15.5t42.5 -23t30.5 -25.5t19.5 -23l-59 -50q-23 27 -45.5 40.5
t-57.5 20.5l-40 -210q31 -14 58 -30t46 -36.5t30 -46.5t11 -58q0 -48 -17.5 -83.5t-47.5 -59.5t-69.5 -37t-82.5 -16l-16 -86h-59zM385 170q0 18 -3 32t-10.5 25.5t-21.5 21.5t-35 21l-39 -205q52 5 80.5 32t28.5 73zM208 468q0 -32 17.5 -53.5t52.5 -38.5l36 188
q-20 -2 -39 -7.5t-34 -16.5t-24 -28.5t-9 -43.5z" />
    <glyph glyph-name="percent" unicode="%" horiz-adv-x="856" 
d="M639 630h89l-481 -630h-89zM815 217q0 -50 -15.5 -91t-41.5 -71t-59 -46.5t-67 -16.5q-32 0 -55.5 11t-39 29.5t-23 43t-7.5 51.5q0 50 15.5 91.5t41.5 71.5t58.5 46.5t67.5 16.5q32 0 55.5 -11t39 -29.5t23 -43t7.5 -52.5zM583 130q0 -75 57 -75q18 0 35.5 12t31.5 33
t23 50.5t9 64.5q0 75 -57 75q-18 0 -35.5 -12t-31.5 -33t-23 -50.5t-9 -64.5zM385 511q0 -50 -15.5 -91t-41.5 -71t-59 -46.5t-67 -16.5q-32 0 -55.5 11t-39 29.5t-23 43t-7.5 51.5q0 50 15.5 91.5t41.5 71.5t58.5 46.5t67.5 16.5q32 0 55.5 -11t39 -29.5t23 -43t7.5 -52.5z
M153 424q0 -75 57 -75q18 0 35.5 12t31.5 33t23 50.5t9 64.5q0 75 -57 75q-18 0 -35.5 -12t-31.5 -33t-23 -50.5t-9 -64.5z" />
    <glyph glyph-name="ampersand" unicode="&#x26;" horiz-adv-x="612" 
d="M593 270l-120 -133l87 -137h-100l-48 75q-32 -29 -58.5 -47t-50 -27.5t-46 -13t-44.5 -3.5q-44 0 -77.5 13.5t-56 37t-34 53.5t-11.5 63q0 76 48.5 130.5t134.5 102.5q-41 67 -41 123q0 45 14.5 78t39 55t58.5 33t73 11q55 0 99 -29t64 -83l-66 -34q-22 43 -46.5 57
t-55.5 14q-37 0 -65.5 -21t-28.5 -67q0 -32 14 -61.5t32 -58.5l125 -199l104 118zM225 66q42 0 75 16t73 55l-118 187q-56 -30 -92.5 -67t-36.5 -90q0 -44 25.5 -72.5t73.5 -28.5z" />
    <glyph glyph-name="quotesingle" unicode="'" horiz-adv-x="194" 
d="M140 667h82l-43 -221h-82z" />
    <glyph glyph-name="parenleft" unicode="(" horiz-adv-x="278" 
d="M103 -93q-10 31 -22.5 93.5t-12.5 145.5q0 97 20.5 185.5t50 161t62.5 127.5t58 86h88q-38 -56 -72 -117.5t-59.5 -130.5t-40.5 -147t-15 -165q0 -34 2.5 -69t7 -66.5t10 -58.5t11.5 -45h-88z" />
    <glyph glyph-name="parenright" unicode=")" horiz-adv-x="278" 
d="M223 706q10 -31 22.5 -93.5t12.5 -145.5q0 -98 -20.5 -186t-50 -160.5t-62.5 -127.5t-58 -86h-88q38 55 72 117t59.5 131t40.5 147t15 165q0 34 -2.5 69t-7 66.5t-10 58.5t-11.5 45h88z" />
    <glyph glyph-name="asterisk" unicode="*" horiz-adv-x="481" 
d="M118 459l121 65l-121 64l35 61l117 -74l-6 139h71l-5 -139l116 74l35 -61l-121 -64l121 -65l-35 -61l-116 74l5 -138h-71l6 138l-117 -74z" />
    <glyph glyph-name="plus" unicode="+" horiz-adv-x="545" 
d="M106 359h158l31 158h77l-31 -158h156l-15 -76h-156l-30 -158h-77l30 158h-158z" />
    <glyph glyph-name="comma" unicode="," horiz-adv-x="244" 
d="M67 0h-35l21 111h108l-21 -110l-89 -118h-53z" />
    <glyph glyph-name="hyphen" unicode="-" horiz-adv-x="421" 
d="M97 322h281l-16 -84h-281z" />
    <glyph glyph-name="period" unicode="." horiz-adv-x="246" 
d="M54 112h109l-22 -112h-109z" />
    <glyph glyph-name="slash" unicode="/" horiz-adv-x="390" 
d="M375 685h90l-391 -701h-91z" />
    <glyph glyph-name="zero" unicode="0" horiz-adv-x="545" 
d="M356 648q94 0 139 -60.5t45 -163.5q0 -42 -7.5 -90.5t-23 -97t-40 -94t-58.5 -80t-77.5 -55.5t-97.5 -21q-94 0 -139 60t-45 163q0 42 7.5 91t23.5 97.5t40.5 94t58 80t77 55.5t97.5 21zM244 69q37 0 66.5 19t52.5 49.5t40 69t27.5 78.5t15.5 77.5t5 65.5q0 60 -27 99
t-76 39q-37 0 -67 -19t-53 -49.5t-39.5 -69.5t-27 -79t-15.5 -77.5t-5 -65.5q0 -60 27 -98.5t76 -38.5z" />
    <glyph glyph-name="one" unicode="1" horiz-adv-x="545" 
d="M126 78h111l91 458l-140 -71l-30 65l197 103h81l-110 -555h111l-15 -78h-311z" />
    <glyph glyph-name="two" unicode="2" horiz-adv-x="545" 
d="M49 59q7 37 25 70t44.5 62.5t59.5 56t69 52.5q40 29 73.5 51t57 42.5t36.5 42.5t13 52q0 32 -23 56t-67 24q-51 0 -84.5 -22.5t-59.5 -54.5l-62 45q14 19 34 39t47 36t61 26.5t75 10.5q43 0 75.5 -12t54.5 -32t33 -46.5t11 -56.5q0 -44 -14 -77t-38.5 -59.5t-57 -50
l-69.5 -48.5l-63.5 -43t-56.5 -41t-45 -45.5t-28 -57.5h296l-15 -79h-392z" />
    <glyph glyph-name="three" unicode="3" horiz-adv-x="545" 
d="M263 305q-11 0 -23 -1.5t-28 -6.5l-32 45l220 210h-245l16 78h352l-14 -70l-200 -190q41 -5 69.5 -21t46.5 -39.5t26 -51t8 -55.5q0 -48 -18.5 -88t-51.5 -69.5t-78 -46t-98 -16.5q-70 0 -114.5 22t-72.5 48l46 65q31 -24 63 -40t85 -16q31 0 58.5 10t48 28t32 43
t11.5 55q0 47 -26.5 77t-80.5 30z" />
    <glyph glyph-name="four" unicode="4" horiz-adv-x="545" 
d="M60 205l365 426h87l-85 -425h66l-14 -75h-66l-26 -131h-81l25 131h-286zM345 206l61 301l-257 -301h196z" />
    <glyph glyph-name="five" unicode="5" horiz-adv-x="545" 
d="M232 63q71 0 109 43t38 110q0 54 -28.5 79.5t-80.5 25.5q-34 0 -58 -7.5t-50 -19.5l-37 36l95 300h303l-15 -78h-232l-53 -174q20 7 39.5 10t45.5 3q39 0 69 -13.5t50.5 -37t31 -54.5t10.5 -65q0 -51 -17 -94.5t-48.5 -75.5t-77 -50t-101.5 -18q-69 0 -113 21.5t-72 47.5
l45 65q15 -12 30 -22t32.5 -17t38 -11t46.5 -4z" />
    <glyph glyph-name="six" unicode="6" horiz-adv-x="545" 
d="M506 534q-20 14 -45.5 23t-59.5 9q-44 0 -77.5 -16.5t-59 -45t-43 -65.5t-30.5 -79q27 20 59 31.5t73 11.5q37 0 68.5 -13t54.5 -36t35.5 -54t12.5 -66q0 -61 -18 -107.5t-48.5 -78.5t-72 -48.5t-88.5 -16.5q-50 0 -85.5 17.5t-59 46.5t-34.5 68t-11 83q0 49 8.5 101.5
t26.5 102t45 94.5t63 78.5t82.5 53t102.5 19.5q45 0 82.5 -13.5t63.5 -33.5zM174 281q-5 -19 -7.5 -40t-2.5 -44q0 -25 5.5 -49.5t18.5 -44t34.5 -31.5t53.5 -12q27 0 51 10t42 30t28.5 50t10.5 71q0 49 -25.5 78t-73.5 29q-46 0 -79 -13.5t-56 -33.5z" />
    <glyph glyph-name="seven" unicode="7" horiz-adv-x="545" 
d="M92 0q36 71 82 152.5l93 158.5l89.5 141t70.5 100h-294l15 79h387l-16 -82q-18 -23 -44.5 -62l-57.5 -86.5l-63.5 -101.5l-63.5 -107t-57.5 -103t-44.5 -89h-96z" />
    <glyph glyph-name="eight" unicode="8" horiz-adv-x="545" 
d="M292 305q-26 -6 -53 -17.5t-49 -28.5t-36 -41t-14 -57q0 -20 7 -38t21 -32t36 -22.5t51 -8.5q24 0 50 7t47 22t35 39.5t14 59.5q0 37 -29 69.5t-80 47.5zM321 380q21 5 43 14t40 23.5t29.5 34t11.5 45.5q0 16 -5.5 30.5t-17 26t-29 18.5t-41.5 7q-20 0 -41 -5.5
t-38 -17.5t-28 -32t-11 -49q0 -30 23.5 -56.5t63.5 -38.5zM394 341q13 -7 29.5 -19.5t31.5 -31.5t25 -44t10 -56q0 -37 -15 -73.5t-44.5 -66t-73.5 -47.5t-102 -18q-56 0 -95 14.5t-64 38t-36 52.5t-11 58q0 38 13 68.5t36.5 55.5t55 44t68.5 34q-11 7 -23.5 18t-23 26.5
t-17 35t-6.5 43.5q0 31 12.5 62.5t37.5 56.5t63 40.5t88 15.5q48 0 81 -12.5t54 -32.5t30.5 -45t9.5 -50q0 -62 -37.5 -101.5t-96.5 -65.5z" />
    <glyph glyph-name="nine" unicode="9" horiz-adv-x="545" 
d="M80 99q20 -14 50.5 -24t64.5 -10q41 0 73.5 16.5t58 45t43.5 65.5t29 79q-28 -20 -62 -32t-68 -12q-38 0 -69.5 12t-54.5 34.5t-35.5 54t-12.5 70.5q0 65 20.5 112t53.5 77.5t74 45t82 14.5q47 0 82.5 -16.5t59 -45t35.5 -66t12 -79.5q0 -77 -19.5 -157.5t-60 -147.5
t-102 -109.5t-144.5 -42.5q-45 0 -83 12.5t-64 32.5zM418 349q4 17 7 35.5t3 38.5q0 26 -4.5 52t-17 47t-34 34.5t-55.5 13.5q-21 0 -44.5 -7.5t-43.5 -25.5t-33 -47t-13 -71q0 -56 24 -86.5t77 -30.5q39 0 75 13.5t59 33.5z" />
    <glyph glyph-name="colon" unicode=":" horiz-adv-x="246" 
d="M123 467h109l-22 -112h-109zM54 112h109l-22 -112h-109z" />
    <glyph glyph-name="semicolon" unicode=";" horiz-adv-x="244" 
d="M67 0h-35l21 111h108l-21 -110l-89 -118h-53zM122 467h109l-22 -112h-109z" />
    <glyph glyph-name="less" unicode="&#x3c;" horiz-adv-x="545" 
d="M114 349l383 189l32 -65l-326 -156l259 -154l-42 -66l-317 194z" />
    <glyph glyph-name="equal" unicode="=" horiz-adv-x="545" 
d="M123 441h391l-15 -76h-391zM91 268h391l-15 -76h-391z" />
    <glyph glyph-name="greater" unicode="&#x3e;" horiz-adv-x="545" 
d="M481 291l-383 -189l-32 67l326 156l-259 154l42 64l317 -194z" />
    <glyph glyph-name="question" unicode="?" horiz-adv-x="486" 
d="M142 110h107l-21 -110h-107zM173 220q10 54 39 96t86 77q50 32 80 61t30 71q0 36 -24 57t-70 21q-39 0 -74.5 -14.5t-72.5 -55.5l-60 48q41 50 95.5 76.5t117.5 26.5q37 0 69.5 -9.5t56.5 -28t38 -45.5t14 -62t-9.5 -61.5t-26.5 -48.5t-41 -41t-54 -38q-22 -14 -40 -27
t-31.5 -27.5t-22.5 -33t-14 -43.5l-5 -27h-86z" />
    <glyph glyph-name="at" unicode="@" horiz-adv-x="912" 
d="M565 221q-14 2 -34.5 4.5t-58.5 2.5q-41 0 -69 -8.5t-44.5 -22.5t-23.5 -32.5t-7 -37.5q0 -37 19.5 -53t61.5 -16q23 0 47 9t44.5 24.5t35.5 37t20 45.5zM638 -16q-43 0 -70 18.5t-34 53.5q-35 -36 -74 -52.5t-82 -16.5q-26 0 -50.5 8t-43.5 24t-30.5 38.5t-11.5 51.5
q0 43 16 77.5t45.5 59t72 37.5t95.5 13q32 0 61 -2.5t46 -6.5l3 16q3 12 3 24q0 35 -23 57t-72 22q-51 0 -82.5 -15t-54.5 -30l-36 58q13 10 31 20.5t41.5 19.5t53 14.5t65.5 5.5q71 0 115 -38t44 -105q0 -21 -4 -40l-39 -198q-1 -4 -1 -12q0 -16 9.5 -22.5t25.5 -6.5
q30 0 58 20.5t50 57t35.5 87.5t13.5 113q0 61 -22.5 111t-62 86t-94.5 55.5t-120 19.5q-78 0 -148 -23t-123.5 -68t-84.5 -112t-31 -155q0 -25 3 -50.5t10.5 -53t21 -57t35.5 -62.5l-63 -36q-27 39 -44 74t-26 67.5t-12 61.5t-3 56q0 97 35.5 177t98.5 136.5t150 87.5
t191 31q80 0 148.5 -25.5t118 -71t77.5 -108t28 -136.5q0 -67 -16.5 -131t-49.5 -114t-81.5 -80.5t-111.5 -30.5z" />
    <glyph glyph-name="A" unicode="A" horiz-adv-x="615" 
d="M354 667h94l122 -667h-98l-30 187h-265l-102 -187h-100zM429 266l-48 297l-162 -297h210z" />
    <glyph glyph-name="B" unicode="B" horiz-adv-x="566" 
d="M167 667h208q43 0 75.5 -11.5t54.5 -31.5t33.5 -46t11.5 -56q0 -39 -12.5 -67t-31 -47.5t-41 -32t-43.5 -21.5q20 -5 39 -17t33.5 -29.5t23.5 -40.5t9 -51q0 -60 -23 -101.5t-61 -67t-89 -36.5t-106 -11h-210zM319 387q24 0 48.5 6.5t44.5 20.5t33 35.5t13 52.5
q0 25 -8.5 41.5t-23 26t-34 13t-42.5 3.5h-110l-38 -199h117zM275 82q34 0 63 7.5t50 23t33 39.5t12 58q0 29 -9.5 48t-26 30t-39 15.5t-48.5 4.5h-124l-43 -226h132z" />
    <glyph glyph-name="C" unicode="C" horiz-adv-x="643" 
d="M611 107q-49 -58 -115.5 -91t-147.5 -33q-65 0 -116.5 21.5t-88.5 60t-56.5 92t-19.5 118.5q0 80 28 154t78.5 130.5t120.5 90.5t153 34q87 0 143.5 -37.5t88.5 -101.5l-72 -46q-31 53 -69.5 76.5t-99.5 23.5t-111.5 -26t-86.5 -70t-55.5 -101t-19.5 -119q0 -45 12.5 -84
t36 -67.5t58.5 -45t80 -16.5q64 0 112.5 26.5t84.5 71.5z" />
    <glyph glyph-name="D" unicode="D" horiz-adv-x="690" 
d="M167 667h206q69 0 124.5 -18.5t94.5 -53.5t60 -84.5t21 -112.5q0 -88 -29 -161t-82.5 -125.5t-130 -82t-172.5 -29.5h-221zM273 86q67 0 122.5 21t95.5 60t61.5 94.5t21.5 124.5q0 91 -54.5 143t-169.5 52h-107l-97 -495h127z" />
    <glyph glyph-name="E" unicode="E" horiz-adv-x="530" 
d="M167 667h403l-16 -85h-312l-38 -195h235l-16 -84h-236l-42 -217h335l-16 -86h-426z" />
    <glyph glyph-name="F" unicode="F" horiz-adv-x="508" 
d="M167 667h402l-17 -86h-311l-39 -205h237l-16 -84h-238l-56 -292h-91z" />
    <glyph glyph-name="G" unicode="G" horiz-adv-x="672" 
d="M357 70q54 0 93 13t75 41l25 134h-137l16 81h225l-50 -262q-49 -47 -115 -70.5t-136 -23.5q-65 0 -117.5 21.5t-90 60t-58 92t-20.5 118.5q0 80 28.5 154t79.5 130.5t121.5 90.5t153.5 34q87 0 144.5 -37.5t89.5 -101.5l-72 -46q-31 53 -70.5 76.5t-100.5 23.5t-112 -26
t-87.5 -70t-56.5 -101t-20 -119q0 -46 12.5 -85t37 -67.5t60.5 -44.5t82 -16z" />
    <glyph glyph-name="H" unicode="H" horiz-adv-x="681" 
d="M167 667h92l-54 -280h351l54 280h92l-129 -667h-92l58 303h-351l-58 -303h-92z" />
    <glyph glyph-name="I" unicode="I" horiz-adv-x="238" 
d="M167 667h92l-129 -667h-92z" />
    <glyph glyph-name="J" unicode="J" horiz-adv-x="474" 
d="M54 130q32 -35 61.5 -48.5t64.5 -13.5q25 0 46.5 5.5t39 20t30 40t20.5 64.5l91 469h92l-94 -487q-11 -55 -32 -92.5t-50 -61t-64.5 -33.5t-74.5 -10q-60 0 -108 21.5t-80 64.5z" />
    <glyph glyph-name="K" unicode="K" horiz-adv-x="579" 
d="M167 667h91l-59 -303l327 303h110l-292 -276l185 -391h-103l-154 330l-96 -84l-47 -246h-91z" />
    <glyph glyph-name="L" unicode="L" horiz-adv-x="526" 
d="M167 667h92l-113 -584h333l-16 -83h-425z" />
    <glyph glyph-name="M" unicode="M" horiz-adv-x="756" 
d="M189 667h87l121 -350l267 350h90l-100 -667h-90l78 512l-243 -315h-45l-117 315l-120 -512h-87z" />
    <glyph glyph-name="N" unicode="N" horiz-adv-x="679" 
d="M167 667h93l247 -528l103 528h90l-129 -667h-92l-248 529l-103 -529h-90z" />
    <glyph glyph-name="O" unicode="O" horiz-adv-x="743" 
d="M165 281q0 -45 12.5 -83.5t37 -67t61.5 -44.5t85 -16q61 0 111.5 27.5t86.5 71.5t55.5 100t19.5 113q0 45 -11.5 84.5t-35 69t-60 46.5t-86.5 17q-65 0 -116.5 -28t-87 -73t-54 -102t-18.5 -115zM448 684q60 0 112 -19.5t90 -56t60 -88.5t22 -117q0 -82 -27 -158
t-76 -134t-118 -93t-152 -35q-66 0 -119.5 21t-92 58.5t-59.5 89t-21 112.5q0 84 27.5 160t77.5 134t120 92t156 34z" />
    <glyph glyph-name="P" unicode="P" horiz-adv-x="543" 
d="M167 667h197q53 0 90 -15.5t59.5 -40t32.5 -54.5t10 -59q0 -62 -21.5 -106.5t-58 -73.5t-84.5 -42.5t-101 -13.5h-112l-50 -262h-91zM306 342q72 0 113 37.5t41 108.5q0 45 -27.5 72.5t-81.5 27.5h-108l-48 -246h111z" />
    <glyph glyph-name="Q" unicode="Q" horiz-adv-x="743" 
d="M448 684q60 0 112 -19.5t90 -56t60 -88.5t22 -117q0 -103 -41.5 -193.5t-114.5 -150.5l57 -95l-67 -42l-57 95q-34 -16 -71 -25t-79 -9q-66 0 -119.5 21t-92 58.5t-59.5 89t-21 112.5q0 84 27.5 160t77.5 134t120 92t156 34zM165 281q0 -45 12.5 -83.5t37 -67t61.5 -44.5
t85 -16q55 0 103 23l-60 102l66 42l59 -100q50 46 77.5 111t27.5 134q0 45 -11.5 84.5t-35 69t-60 46.5t-86.5 17q-65 0 -116.5 -28t-87 -73t-54 -102t-18.5 -115z" />
    <glyph glyph-name="R" unicode="R" horiz-adv-x="560" 
d="M179 273l-52 -273h-89l129 667h199q53 0 90 -15t60 -38.5t33.5 -53t10.5 -58.5q0 -46 -12 -81.5t-33.5 -61.5t-51 -44t-63.5 -28l91 -287h-98l-81 273h-133zM240 588l-46 -235h115q72 0 113.5 32t41.5 107q0 45 -28.5 70.5t-82.5 25.5h-113z" />
    <glyph glyph-name="S" unicode="S" horiz-adv-x="559" 
d="M85 153q42 -46 83 -65.5t98 -19.5q61 0 102 32t41 89q0 23 -7 39.5t-22 29.5t-38 24t-54 24q-34 14 -64 31t-52 38t-35 48t-13 62q0 40 16.5 76.5t47 63.5t73.5 43t97 16q69 0 116 -26.5t80 -71.5l-65 -55q-23 29 -55 50t-82 21q-64 0 -98 -28.5t-34 -74.5q0 -23 7.5 -39
t22.5 -28.5t38 -23.5t53 -24q36 -15 65.5 -31.5t51.5 -38t34 -49.5t12 -66q0 -54 -19.5 -94.5t-53.5 -67.5t-78.5 -40.5t-94.5 -13.5q-29 0 -59.5 5t-61 18t-60 34.5t-55.5 54.5z" />
    <glyph glyph-name="T" unicode="T" horiz-adv-x="596" 
d="M330 585h-229l16 82h550l-16 -82h-228l-113 -585h-93z" />
    <glyph glyph-name="U" unicode="U" horiz-adv-x="646" 
d="M162 667h92l-76 -390q-4 -20 -6 -37.5t-2 -34.5q0 -62 31.5 -98t107.5 -36q45 0 77.5 12t55 36.5t36.5 61.5t24 86l78 400h92l-82 -423q-12 -60 -34 -108t-57 -82t-84 -52.5t-114 -18.5q-56 0 -98.5 15.5t-70.5 43.5t-42 66t-14 83q0 30 6 63z" />
    <glyph glyph-name="V" unicode="V" horiz-adv-x="609" 
d="M100 667h99l89 -547l299 547h102l-377 -667h-94z" />
    <glyph glyph-name="W" unicode="W" horiz-adv-x="843" 
d="M106 667h97l23 -538l235 518h92l38 -515l224 535h100l-299 -667h-98l-41 493l-230 -493h-97z" />
    <glyph glyph-name="X" unicode="X" horiz-adv-x="574" 
d="M264 350l-148 317h104l110 -248l199 248h107l-267 -324l160 -343h-106l-121 272l-220 -272h-108z" />
    <glyph glyph-name="Y" unicode="Y" horiz-adv-x="554" 
d="M248 297l-149 370h97l111 -287l223 287h104l-293 -369l-57 -298h-93z" />
    <glyph glyph-name="Z" unicode="Z" horiz-adv-x="616" 
d="M27 84l490 500h-374l16 83h492l-16 -85l-490 -499h399l-16 -83h-517z" />
    <glyph glyph-name="bracketleft" unicode="[" horiz-adv-x="302" 
d="M177 706h202l-16 -79h-114l-123 -639h114l-17 -81h-202z" />
    <glyph glyph-name="backslash" unicode="\" horiz-adv-x="390" 
d="M206 685l119 -701h-85l-117 701h83z" />
    <glyph glyph-name="bracketright" unicode="]" horiz-adv-x="302" 
d="M-13 -12h114l123 639h-114l16 79h204l-156 -799h-204z" />
    <glyph glyph-name="asciicircum" unicode="^" horiz-adv-x="527" 
d="M319 667h77l100 -359h-84l-70 268l-174 -268h-89z" />
    <glyph glyph-name="underscore" unicode="_" horiz-adv-x="500" 
d="M-55 -70h515l-10 -51h-515z" />
    <glyph glyph-name="grave" unicode="`" horiz-adv-x="429" 
d="M229 677h93l28 -136h-69z" />
    <glyph glyph-name="a" unicode="a" horiz-adv-x="479" 
d="M345 221q-14 2 -34.5 4.5t-58.5 2.5q-41 0 -69 -8.5t-44.5 -22.5t-23.5 -32.5t-7 -37.5q0 -37 19.5 -53t61.5 -16q23 0 47 9t44.5 24.5t35.5 37t20 45.5zM314 56q-35 -36 -74 -52.5t-82 -16.5q-27 0 -51.5 8.5t-43.5 24.5t-30 39t-11 52q0 43 16.5 77.5t46.5 58.5
t72 36.5t94 12.5q32 0 61 -2.5t46 -6.5l3 16q3 12 3 24q0 35 -23 57t-72 22q-51 0 -82.5 -15t-54.5 -30l-36 58q13 10 31 20.5t41.5 19.5t53 14.5t65.5 5.5q71 0 115 -38t44 -105q0 -21 -4 -40l-40 -204l-9.5 -50.5t-6.5 -41.5h-80z" />
    <glyph glyph-name="b" unicode="b" horiz-adv-x="529" 
d="M150 667h86l-49 -255q9 10 23 21.5t32.5 21t43 15.5t54.5 6q39 0 69 -15t50.5 -40t31 -57.5t10.5 -68.5q0 -69 -22 -126t-62 -97.5t-95 -63t-122 -22.5q-55 0 -102.5 11t-72.5 25zM120 75q28 -9 47.5 -10.5t46.5 -1.5q46 0 83 16.5t62 46t38.5 69t13.5 84.5q0 25 -5 47
t-16.5 38t-30 25.5t-45.5 9.5q-34 0 -61 -11.5t-47 -31t-32.5 -44t-17.5 -50.5z" />
    <glyph glyph-name="c" unicode="c" horiz-adv-x="475" 
d="M428 64q-32 -34 -77 -56t-109 -22q-45 0 -81.5 15t-61.5 41t-38.5 62t-13.5 77q0 66 20.5 120.5t56.5 94.5t85 62t106 22q118 0 165 -106l-65 -36q-18 32 -42.5 49t-69.5 17q-32 0 -62 -15t-53 -42t-37 -65.5t-14 -86.5q0 -58 32.5 -95.5t84.5 -37.5q42 0 70.5 15
t55.5 41z" />
    <glyph glyph-name="d" unicode="d" horiz-adv-x="532" 
d="M422 369q-25 18 -50 24.5t-59 6.5q-33 0 -64.5 -15.5t-57 -44.5t-41 -70.5t-15.5 -92.5q0 -52 23.5 -83.5t76.5 -31.5q34 0 61 14t46.5 35t31.5 45t16 44zM362 57q-7 -8 -20 -20t-32.5 -23.5t-44 -19.5t-54.5 -8q-33 0 -63.5 12t-53 34.5t-36 55.5t-13.5 75
q0 84 27.5 143t68 97t88 55.5t86.5 17.5q45 0 70 -7.5t52 -23.5l43 222h87l-110 -566l-10.5 -53.5t-8.5 -47.5h-84z" />
    <glyph glyph-name="e" unicode="e" horiz-adv-x="517" 
d="M306 480q49 0 83.5 -15.5t56.5 -42t32 -62t10 -75.5q0 -39 -9 -79h-345q-1 -5 -1 -9v-6q0 -55 30.5 -92.5t92.5 -37.5q45 0 77 14.5t64 45.5l49 -52q-33 -35 -82.5 -59t-113.5 -24q-50 0 -87.5 15t-63 41.5t-38.5 62.5t-13 78q0 61 19 115.5t53.5 94.5t81.5 63.5
t104 23.5zM405 272q0 5 0.5 9t0.5 9q0 51 -26 85.5t-80 34.5q-57 0 -97 -36.5t-58 -101.5h260z" />
    <glyph glyph-name="f" unicode="f" horiz-adv-x="317" 
d="M134 393h-81l14 72h81l7 38q17 94 67.5 137.5t120.5 43.5q30 0 62.5 -12t55.5 -41l-53 -54q-14 16 -31 22.5t-40 6.5q-39 0 -61.5 -25t-34.5 -86l-6 -30h127l-14 -72h-127l-76 -393h-87z" />
    <glyph glyph-name="g" unicode="g" horiz-adv-x="530" 
d="M432 -4q-20 -102 -80.5 -155t-163.5 -53q-42 0 -85 9t-85 38l40 71q34 -22 67 -31t71 -9q34 0 59 10t43 28.5t30 44t18 56.5l11 54q-5 -6 -17.5 -16.5t-30.5 -21t-42.5 -18t-53.5 -7.5q-76 0 -123 44.5t-47 123.5q0 67 21 124t59.5 99t92.5 65.5t121 23.5q55 0 104 -12
t76 -24zM421 388q-38 13 -96 13q-42 0 -77.5 -16.5t-61 -46t-39.5 -70t-14 -88.5t21.5 -78t77.5 -30q32 0 58 11t45 28.5t31 39.5t17 45z" />
    <glyph glyph-name="h" unicode="h" horiz-adv-x="521" 
d="M110 0h-86l129 667h84l-53 -272q38 42 77.5 61.5t92.5 19.5q60 0 97 -38t37 -102q0 -11 -1 -26t-4 -31l-54 -279h-86l52 272q5 25 5 42q0 40 -18 62t-59 22q-32 0 -60.5 -14t-50.5 -38.5t-37.5 -56.5t-22.5 -68z" />
    <glyph glyph-name="i" unicode="i" horiz-adv-x="213" 
d="M146 649h97l-20 -101h-97zM118 465h87l-90 -465h-87z" />
    <glyph glyph-name="j" unicode="j" horiz-adv-x="213" 
d="M-113 -101q17 -11 29 -16.5t30 -5.5q13 0 25 4.5t22 19t19 40.5t17 68l89 456h87l-95 -486q-8 -38 -18.5 -70.5t-28.5 -56.5t-44.5 -38t-65.5 -14q-29 0 -55 8.5t-46 25.5zM146 649h97l-20 -101h-97z" />
    <glyph glyph-name="k" unicode="k" horiz-adv-x="470" 
d="M154 667h86l-76 -393l224 191h105l-207 -179l135 -286h-93l-109 233l-75 -63l-33 -170h-86z" />
    <glyph glyph-name="l" unicode="l" horiz-adv-x="205" 
d="M154 667h86l-129 -667h-86z" />
    <glyph glyph-name="m" unicode="m" horiz-adv-x="816" 
d="M95 364l10.5 53.5t8.5 47.5h82l-11 -70q38 42 77 61.5t88 19.5q40 0 72 -23t46 -63q41 45 83.5 65.5t98.5 20.5q28 0 52.5 -10t42.5 -28t28 -44t10 -58q0 -11 -1 -26t-4 -31l-54 -279h-86l52 272q5 25 5 42q0 40 -19 62t-57 22q-53 0 -94.5 -33.5t-55.5 -102.5l-51 -262
h-86l52 272q5 25 5 42q0 40 -18 62t-52 22q-30 0 -57 -14.5t-49 -38.5t-37.5 -56.5t-22.5 -68.5l-42 -220h-86z" />
    <glyph glyph-name="n" unicode="n" horiz-adv-x="522" 
d="M95 364l10.5 53.5t8.5 47.5h82l-11 -70q38 42 77.5 61.5t92.5 19.5q60 0 97 -38t37 -102q0 -11 -1 -26t-4 -31l-54 -279h-86l52 272q5 25 5 42q0 40 -18 62t-59 22q-32 0 -60.5 -14.5t-50.5 -38.5t-37.5 -56.5t-22.5 -68.5l-42 -220h-86z" />
    <glyph glyph-name="o" unicode="o" horiz-adv-x="549" 
d="M318 480q46 0 83 -14t63.5 -40.5t41 -64t14.5 -83.5q0 -61 -20.5 -114.5t-56.5 -93t-86 -62t-110 -22.5q-45 0 -81.5 14.5t-63 41t-41 63.5t-14.5 82q0 59 21 112.5t58 93.5t86 63.5t106 23.5zM308 404q-32 0 -63 -15.5t-55.5 -42.5t-39.5 -64.5t-15 -80.5q0 -61 29 -100
t91 -39q33 0 64.5 15t56.5 41.5t40.5 64t15.5 82.5q0 65 -30 102t-94 37z" />
    <glyph glyph-name="p" unicode="p" horiz-adv-x="541" 
d="M95 364l10.5 53.5t8.5 47.5h82l-11 -70l22.5 23t33.5 26.5t47.5 22t64.5 9.5t66.5 -14.5t50.5 -39t32 -56t11 -65.5q0 -82 -25.5 -141.5t-65 -98t-88.5 -57t-96 -18.5q-39 0 -66 9t-58 28l-43 -223h-85zM130 101q21 -19 47 -29t60 -10q56 0 95.5 27.5t62.5 72.5
q11 23 19.5 54t8.5 65q0 55 -22 86.5t-72 31.5q-32 0 -61 -13t-52.5 -37t-40 -57t-23.5 -73z" />
    <glyph glyph-name="q" unicode="q" horiz-adv-x="530" 
d="M353 46q-5 -5 -16.5 -14.5t-29.5 -20t-42 -18t-53 -7.5q-38 0 -69 12.5t-53.5 36t-34.5 56t-12 71.5q0 68 21 125.5t59.5 99.5t92.5 65.5t121 23.5q55 0 104 -12t76 -24l-124 -640h-87zM421 388q-25 8 -47.5 10.5t-48.5 2.5q-41 0 -76 -16t-61 -45.5t-40.5 -70.5
t-14.5 -91q0 -24 5 -45t16.5 -37t30 -25t46.5 -9q32 0 58 11.5t45 29.5t31 40.5t17 45.5z" />
    <glyph glyph-name="r" unicode="r" horiz-adv-x="349" 
d="M96 370q6 29 10 50.5l8 44.5h82l-12 -74q10 11 24.5 25t33.5 26.5t42.5 21t53.5 8.5q17 0 30 -2.5t24 -6.5l-32 -84q-14 5 -23 6.5t-26 1.5q-29 0 -54.5 -12t-46 -32.5t-34 -47t-19.5 -55.5l-46 -240h-86z" />
    <glyph glyph-name="s" unicode="s" horiz-adv-x="441" 
d="M59 114q19 -15 36.5 -25t35 -16.5t36 -9t40.5 -2.5q44 0 68.5 17.5t24.5 48.5q0 14 -7 24t-18.5 18.5t-27 15.5l-32.5 14l-43 19.5t-42.5 26t-32.5 38t-13 55.5q0 36 14 62.5t38 44.5t57 26.5t72 8.5q18 0 39 -3.5t43 -12t42.5 -22t38.5 -32.5l-52 -51q-24 23 -55 35.5
t-63 12.5q-41 0 -63.5 -14.5t-22.5 -40.5q0 -13 4.5 -23t15.5 -19.5t30.5 -19t48.5 -21.5q23 -10 45 -21.5t39 -26.5t27 -34.5t10 -46.5q0 -74 -52 -114t-136 -40q-52 0 -101 15t-91 51z" />
    <glyph glyph-name="t" unicode="t" horiz-adv-x="369" 
d="M138 393h-80l14 72h81l29 152h86l-29 -152h131l-14 -72h-132l-45 -237q-4 -20 -4 -39q0 -55 47 -55q20 0 38.5 9t32.5 23l42 -52q-28 -26 -60 -40.5t-64 -14.5q-60 0 -92.5 27t-32.5 86q0 19 5 47z" />
    <glyph glyph-name="u" unicode="u" horiz-adv-x="517" 
d="M439 101l-10.5 -53.5t-8.5 -47.5h-82l11 70q-38 -42 -77 -61.5t-92 -19.5q-60 0 -96.5 38t-36.5 102q0 11 1 26t4 31l54 279h86l-52 -272q-5 -25 -5 -42q0 -40 17.5 -62t58.5 -22q32 0 60 14.5t50.5 38.5t37.5 56.5t22 68.5l42 220h86z" />
    <glyph glyph-name="v" unicode="v" horiz-adv-x="482" 
d="M51 465h97l67 -362l208 362h97l-281 -465h-86z" />
    <glyph glyph-name="w" unicode="w" horiz-adv-x="693" 
d="M56 465h92l31 -353l176 353h74l37 -356l165 356h96l-238 -465h-86l-40 323l-165 -323h-82z" />
    <glyph glyph-name="x" unicode="x" horiz-adv-x="468" 
d="M189 248l-116 217h98l80 -158l134 158h104l-201 -222l127 -243h-97l-91 182l-155 -182h-106z" />
    <glyph glyph-name="y" unicode="y" horiz-adv-x="482" 
d="M-15 -119q11 -8 23.5 -14t32.5 -6q15 0 27 6t24 20t25.5 36l31.5 54l17 30l-109 458h96l75 -351l195 351h97l-302 -517q-22 -37 -41.5 -66.5t-39.5 -50.5t-42.5 -32.5t-49.5 -11.5t-50 6.5t-43 25.5z" />
    <glyph glyph-name="z" unicode="z" horiz-adv-x="446" 
d="M20 71l314 322h-242l14 72h352l-14 -72l-319 -321h260l-14 -72h-364z" />
    <glyph glyph-name="braceleft" unicode="{" horiz-adv-x="277" 
d="M111 204q1 5 1 15q0 26 -15 44.5t-46 20.5l11 57q36 2 58 25.5t30 54.5l46 173q12 45 27.5 70t41.5 42h87q-20 -13 -39.5 -40t-27.5 -61l-49 -193q-11 -42 -35 -66.5t-54 -32.5q23 -8 36.5 -26.5t13.5 -50.5q0 -5 -0.5 -11t-1.5 -12l-26 -190q-1 -6 -1.5 -12t-0.5 -12
q0 -27 7.5 -52t19.5 -40h-85q-25 35 -25 88q0 18 3 39z" />
    <glyph glyph-name="bar" unicode="|" horiz-adv-x="224" 
d="M195 833h82l-193 -997h-82z" />
    <glyph glyph-name="braceright" unicode="}" horiz-adv-x="277" 
d="M213 409q-1 -5 -1 -15q0 -26 15 -44.5t46 -20.5l-11 -57q-36 -2 -58 -25.5t-30 -54.5l-46 -173q-12 -45 -27.5 -70t-41.5 -42h-87q20 13 39.5 40t27.5 61l49 193q11 42 35 66.5t54 32.5q-23 8 -36.5 26.5t-13.5 50.5q0 5 0.5 11t1.5 12l26 190q1 6 1.5 12t0.5 12
q0 27 -7.5 52t-19.5 40h85q25 -35 25 -88q0 -18 -3 -39z" />
    <glyph glyph-name="asciitilde" unicode="~" horiz-adv-x="459" 
d="M326 324q20 0 42 8t42 25l32 -49q-32 -30 -63.5 -46.5t-63.5 -16.5q-23 0 -40.5 7t-33 15t-32 15t-35.5 7q-20 0 -42 -8t-42 -25l-32 49q32 30 63.5 46.5t63.5 16.5q22 0 40 -7t33.5 -15t31.5 -15t36 -7z" />
    <glyph glyph-name="Euro" unicode="&#x20ac;" horiz-adv-x="545" 
d="M91 421h56q17 50 44.5 92t63 72t78.5 46.5t92 16.5q56 0 98 -23t71 -74l-61 -43q-24 35 -50.5 48t-66.5 13q-60 0 -106 -39.5t-72 -108.5h224l-20 -60h-221q-4 -21 -6.5 -43t-2.5 -45h221l-20 -60h-199q8 -69 39 -107.5t88 -38.5q42 0 70.5 14.5t55.5 40.5l47 -56
q-33 -35 -77 -56t-101 -21q-90 0 -147 56.5t-67 167.5h-80l20 60h59q1 23 3.5 45t6.5 43h-60z" />
    <glyph glyph-name="uni20BA" unicode="&#x20ba;" horiz-adv-x="545" 
d="M89 349l-22 55l114 48l35 183h84l-28 -144l142 61l22 -55l-177 -76l-16 -83l141 60l22 -55l-177 -76l-35 -184h9q90 0 151.5 44t89.5 143l77 -19q-20 -73 -53 -121t-77 -77t-98 -41t-116 -12h-83l44 228l-79 -33l-22 55l114 49l16 83z" />
    <glyph glyph-name="quotesinglbase" unicode="&#x201a;" horiz-adv-x="238" 
d="M72 112h97l-84 -197h-67z" />
    <glyph glyph-name="florin" unicode="&#x192;" horiz-adv-x="476" 
d="M199 -37q-42 -163 -172 -163q-37 0 -66.5 12.5t-52.5 40.5l52 59q15 -17 31.5 -24t35.5 -7q21 0 35 7.5t24 20.5t16.5 30.5t11.5 38.5l84 329h-89l14 74h94l26 100q21 81 68 122t114 41q74 0 119 -56l-55 -58q-15 20 -31 26t-36 6q-41 0 -62.5 -27.5t-31.5 -68.5l-22 -85
h103l-14 -74h-108z" />
    <glyph glyph-name="quotedblbase" unicode="&#x201e;" horiz-adv-x="401" 
d="M72 112h97l-84 -197h-67zM235 112h97l-84 -197h-67z" />
    <glyph glyph-name="ellipsis" unicode="&#x2026;" horiz-adv-x="738" 
d="M546 112h109l-22 -112h-109zM300 112h109l-22 -112h-109zM54 112h109l-22 -112h-109z" />
    <glyph glyph-name="dagger" unicode="&#x2020;" horiz-adv-x="495" 
d="M248 402h-146l14 72h146l37 193h85l-37 -193h147l-14 -72h-147l-102 -523h-85z" />
    <glyph glyph-name="daggerdbl" unicode="&#x2021;" horiz-adv-x="495" 
d="M183 72h-146l14 72h146l51 258h-146l14 72h146l37 193h85l-37 -193h147l-14 -72h-147l-51 -258h147l-14 -72h-147l-37 -193h-85z" />
    <glyph glyph-name="circumflex" unicode="&#x2c6;" horiz-adv-x="394" 
d="M261 676h81l68 -137h-79l-38 83l-76 -83h-79z" />
    <glyph glyph-name="perthousand" unicode="&#x2030;" horiz-adv-x="1218" 
d="M639 630h89l-481 -630h-89zM815 217q0 -50 -15.5 -91t-41.5 -71t-59 -46.5t-67 -16.5q-32 0 -55.5 11t-39 29.5t-23 43t-7.5 51.5q0 50 15.5 91.5t41.5 71.5t58.5 46.5t67.5 16.5q32 0 55.5 -11t39 -29.5t23 -43t7.5 -52.5zM583 130q0 -75 57 -75q18 0 35.5 12t31.5 33
t23 50.5t9 64.5q0 75 -57 75q-18 0 -35.5 -12t-31.5 -33t-23 -50.5t-9 -64.5zM1177 217q0 -50 -15.5 -91t-41.5 -71t-59 -46.5t-67 -16.5q-32 0 -55.5 11t-39 29.5t-23 43t-7.5 51.5q0 50 15.5 91.5t41.5 71.5t58.5 46.5t67.5 16.5q32 0 55.5 -11t39 -29.5t23 -43t7.5 -52.5
zM945 130q0 -75 57 -75q18 0 35.5 12t31.5 33t23 50.5t9 64.5q0 75 -57 75q-18 0 -35.5 -12t-31.5 -33t-23 -50.5t-9 -64.5zM385 511q0 -50 -15.5 -91t-41.5 -71t-59 -46.5t-67 -16.5q-32 0 -55.5 11t-39 29.5t-23 43t-7.5 51.5q0 50 15.5 91.5t41.5 71.5t58.5 46.5
t67.5 16.5q32 0 55.5 -11t39 -29.5t23 -43t7.5 -52.5zM153 424q0 -75 57 -75q18 0 35.5 12t31.5 33t23 50.5t9 64.5q0 75 -57 75q-18 0 -35.5 -12t-31.5 -33t-23 -50.5t-9 -64.5z" />
    <glyph glyph-name="Scaron" unicode="&#x160;" horiz-adv-x="559" 
d="M85 153q42 -46 83 -65.5t98 -19.5q61 0 102 32t41 89q0 23 -7 39.5t-22 29.5t-38 24t-54 24q-34 14 -64 31t-52 38t-35 48t-13 62q0 40 16.5 76.5t47 63.5t73.5 43t97 16q69 0 116 -26.5t80 -71.5l-65 -55q-23 29 -55 50t-82 21q-64 0 -98 -28.5t-34 -74.5q0 -23 7.5 -39
t22.5 -28.5t38 -23.5t53 -24q36 -15 65.5 -31.5t51.5 -38t34 -49.5t12 -66q0 -54 -19.5 -94.5t-53.5 -67.5t-78.5 -40.5t-94.5 -13.5q-29 0 -59.5 5t-61 18t-60 34.5t-55.5 54.5zM413 720h-84l-76 150h76l51 -92l88 92h85z" />
    <glyph glyph-name="guilsinglleft" unicode="&#x2039;" horiz-adv-x="312" 
d="M87 243l131 188h85l-130 -191l58 -195h-80z" />
    <glyph glyph-name="OE" unicode="&#x152;" horiz-adv-x="1056" 
d="M581 78q-43 -40 -99 -67.5t-123 -27.5q-66 0 -119.5 21t-92 58.5t-59.5 89t-21 112.5q0 84 27.5 160t77.5 134t120 92t156 34q81 0 135.5 -33t90.5 -90l21 106h401l-16 -85h-312l-38 -195h235l-16 -84h-235l-6 -27l-37 -190h335l-16 -86h-424zM165 281q0 -45 12.5 -83.5
t37 -67t61.5 -44.5t85 -16q61 0 111.5 27.5t86.5 71.5t55.5 100t19.5 113q0 45 -11.5 84.5t-35 69t-60 46.5t-86.5 17q-65 0 -116.5 -28t-87 -73t-54 -102t-18.5 -115z" />
    <glyph glyph-name="quoteleft" unicode="&#x2018;" horiz-adv-x="229" 
d="M196 666h67l-55 -198h-98z" />
    <glyph glyph-name="quoteright" unicode="&#x2019;" horiz-adv-x="229" 
d="M175 666h97l-85 -198h-67z" />
    <glyph glyph-name="quotedblleft" unicode="&#x201c;" horiz-adv-x="392" 
d="M359 666h67l-55 -198h-98zM196 666h67l-55 -198h-98z" />
    <glyph glyph-name="quotedblright" unicode="&#x201d;" horiz-adv-x="392" 
d="M338 666h97l-85 -198h-67zM175 666h97l-85 -198h-67z" />
    <glyph glyph-name="bullet" unicode="&#x2022;" horiz-adv-x="384" 
d="M99 325q0 25 10 47.5t26.5 39t39 26t47.5 9.5t47.5 -9.5t39 -26t26 -39t9.5 -47.5t-9.5 -47.5t-26 -39t-39 -26.5t-47.5 -10t-47.5 10t-39 26.5t-26.5 39t-10 47.5z" />
    <glyph glyph-name="endash" unicode="&#x2013;" horiz-adv-x="500" 
d="M26 323h500l-16 -86h-500z" />
    <glyph glyph-name="emdash" unicode="&#x2014;" horiz-adv-x="1000" 
d="M26 323h1000l-16 -86h-1000z" />
    <glyph glyph-name="tilde" unicode="&#x2dc;" horiz-adv-x="401" 
d="M340 545q-21 0 -35.5 7t-27.5 15t-26.5 15t-30.5 7q-25 0 -42.5 -10t-36.5 -25l-31 51q20 19 50 36.5t68 17.5q21 0 35.5 -7t27.5 -15t26.5 -15t30.5 -7q25 0 43.5 10.5t35.5 24.5l31 -51q-20 -19 -50 -36.5t-68 -17.5z" />
    <glyph glyph-name="trademark" unicode="&#x2122;" horiz-adv-x="852" 
d="M510 667h67l69 -192l149 192h71l-62 -383h-68l47 279l-141 -178h-28l-64 169l-60 -270h-63zM232 603h-130l13 64h333l-13 -64h-130l-61 -319h-73z" />
    <glyph glyph-name="scaron" unicode="&#x161;" horiz-adv-x="441" 
d="M59 114q19 -15 36.5 -25t35 -16.5t36 -9t40.5 -2.5q44 0 68.5 17.5t24.5 48.5q0 14 -7 24t-18.5 18.5t-27 15.5l-32.5 14l-43 19.5t-42.5 26t-32.5 38t-13 55.5q0 36 14 62.5t38 44.5t57 26.5t72 8.5q18 0 39 -3.5t43 -12t42.5 -22t38.5 -32.5l-52 -51q-24 23 -55 35.5
t-63 12.5q-41 0 -63.5 -14.5t-22.5 -40.5q0 -13 4.5 -23t15.5 -19.5t30.5 -19t48.5 -21.5q23 -10 45 -21.5t39 -26.5t27 -34.5t10 -46.5q0 -74 -52 -114t-136 -40q-52 0 -101 15t-91 51zM324 539h-81l-68 137h79l38 -83l76 83h79z" />
    <glyph glyph-name="guilsinglright" unicode="&#x203a;" horiz-adv-x="312" 
d="M244 233l-131 -188h-85l130 191l-58 195h80z" />
    <glyph glyph-name="oe" unicode="&#x153;" horiz-adv-x="894" 
d="M308 404q-32 0 -63 -15.5t-55.5 -42.5t-39.5 -64.5t-15 -80.5q0 -61 29 -100t91 -39q33 0 64.5 15t56.5 41.5t40.5 64t15.5 82.5q0 65 -30 102t-94 37zM47 187q0 59 21 112.5t58 93.5t86 63.5t106 23.5q63 0 103.5 -27t67.5 -77q42 51 86.5 77.5t107.5 26.5
q49 0 83.5 -15.5t56.5 -42t32 -62t10 -75.5q0 -39 -9 -79h-344q-2 -6 -2 -9v-6q0 -55 31 -92.5t91 -37.5q24 0 42.5 3t35 10.5t32 18.5t32.5 28l49 -52q-37 -40 -86.5 -61.5t-117.5 -21.5q-65 0 -105 27.5t-66 77.5q-38 -51 -91 -78t-110 -27q-45 0 -81.5 14.5t-63 41
t-41 63.5t-14.5 82zM782 272q0 5 0.5 9t0.5 9q0 51 -26 85.5t-80 34.5q-57 0 -97 -36.5t-58 -101.5h260z" />
    <glyph glyph-name="Ydieresis" unicode="&#x178;" horiz-adv-x="554" 
d="M248 297l-149 370h97l111 -287l223 287h104l-293 -369l-57 -298h-93zM435 844h97l-19 -98h-97zM248 844h96l-19 -98h-96z" />
    <glyph glyph-name="uni00A0" unicode="&#xa0;" horiz-adv-x="166" 
 />
    <glyph glyph-name="exclamdown" unicode="&#xa1;" horiz-adv-x="248" 
d="M108 -202h-96l94 475h91zM222 356h-108l21 109h108z" />
    <glyph glyph-name="cent" unicode="&#xa2;" horiz-adv-x="545" 
d="M476 145q-30 -32 -72 -54t-102 -24l-16 -86h-59l17 90q-70 14 -109.5 66.5t-39.5 124.5q0 62 18.5 114.5t51 91.5t77 63t97.5 29l17 89h59l-18 -91q92 -14 131 -103l-65 -36q-14 25 -32.5 41.5t-47.5 21.5l-66 -339q35 3 60.5 18t50.5 38zM185 276q0 -45 20 -78.5
t55 -47.5l64 332q-28 -6 -53.5 -23t-44.5 -43.5t-30 -62t-11 -77.5z" />
    <glyph glyph-name="sterling" unicode="&#xa3;" horiz-adv-x="545" 
d="M496 518q-20 28 -42 38t-54 10q-51 0 -81.5 -30.5t-43.5 -97.5l-15 -75h193l-14 -73h-193l-40 -206h286l-16 -84h-377l57 290h-71l14 73h71l18 89q11 55 32.5 93t51 60.5t64.5 32.5t73 10q101 0 153 -82z" />
    <glyph glyph-name="currency" unicode="&#xa4;" horiz-adv-x="545" 
d="M68 160l65 65q-16 23 -24.5 50.5t-8.5 58.5q0 59 33 109l-65 64l55 56l64 -65q24 17 52 27t60 10t59.5 -9.5t52.5 -26.5l64 64l55 -56l-65 -64q16 -24 25 -51.5t9 -57.5q0 -32 -9 -59t-25 -51l65 -64l-55 -56l-64 64q-50 -35 -112 -35q-34 0 -61 9t-51 27l-64 -65z
M172 334q0 -26 10 -49.5t27 -41t40.5 -28t49.5 -10.5t49.5 10.5t41 28t27.5 41t10 49.5t-10 49.5t-27.5 41t-41 28t-49.5 10.5t-49.5 -10.5t-40.5 -28t-27 -41t-10 -49.5z" />
    <glyph glyph-name="yen" unicode="&#xa5;" horiz-adv-x="545" 
d="M70 186h150l16 86h-150l12 61h116l-108 298h95l94 -281l200 281h102l-224 -298h114l-12 -61h-153l-16 -86h153l-12 -61h-153l-24 -125h-86l24 125h-150z" />
    <glyph glyph-name="brokenbar" unicode="&#xa6;" horiz-adv-x="224" 
d="M122 454l73 379h82l-74 -379h-81zM157 215l-73 -379h-82l73 379h82z" />
    <glyph glyph-name="section" unicode="&#xa7;" horiz-adv-x="444" 
d="M396 571q-21 20 -43.5 28.5t-48.5 8.5q-49 0 -77 -30t-28 -80q0 -18 5 -33.5t17 -33t32 -38t49 -47.5l122 -115l-57 -62l-135 122q-56 51 -87 95t-31 100q0 46 15 83t41 62.5t60.5 39t72.5 13.5q37 0 76 -12t71 -47zM77 -99q21 -20 43.5 -28.5t48.5 -8.5q49 0 77 30
t28 80q0 18 -5 33.5t-17 33t-32 38t-49 47.5l-122 115l57 62l135 -122q56 -51 87 -95t31 -100q0 -46 -15 -83t-41 -62.5t-60.5 -39t-72.5 -13.5q-37 0 -76 12t-71 47z" />
    <glyph glyph-name="dieresis" unicode="&#xa8;" horiz-adv-x="334" 
d="M305 651h89l-18 -91h-89zM140 651h91l-18 -91h-91z" />
    <glyph glyph-name="copyright" unicode="&#xa9;" horiz-adv-x="777" 
d="M415 -14q-73 0 -136.5 27t-110 74.5t-73.5 111t-27 136.5t27 136.5t73.5 110.5t110 74.5t137.5 27.5q73 0 136 -27.5t109.5 -74.5t73.5 -110.5t27 -136.5t-27 -136.5t-73.5 -111t-110 -74.5t-136.5 -27zM415 51q60 0 110 21.5t87 60t57.5 90t20.5 111.5t-20.5 111.5
t-57 90t-87 60.5t-109.5 22q-60 0 -110.5 -22t-87 -60.5t-57.5 -90t-21 -111.5t20.5 -111.5t57.5 -90t87 -60t110 -21.5zM572 226q-24 -35 -62.5 -58.5t-89.5 -23.5q-42 0 -77 14.5t-60 40t-38.5 60.5t-13.5 76q0 40 14 74.5t39.5 60t60 40t75.5 14.5q51 0 89.5 -23.5
t62.5 -58.5l-52 -37q-15 21 -39 37t-56 16q-54 0 -86.5 -34t-32.5 -90q0 -52 32.5 -87t86.5 -35q34 0 58 16.5t38 38.5z" />
    <glyph glyph-name="ordfeminine" unicode="&#xaa;" horiz-adv-x="366" 
d="M303 472q-9 2 -26.5 3.5t-34.5 1.5q-47 0 -66 -17t-19 -34q0 -19 9 -30t38 -11q15 0 30.5 4.5t29 13t23 20.5t12.5 28zM285 370q-18 -19 -47.5 -30.5t-53.5 -11.5q-43 0 -69 22t-26 66q0 25 12 45.5t32.5 35.5t49 23t61.5 8q21 0 39 -2t29 -4l1 8q0 3 0.5 6t0.5 6
q0 20 -12.5 32.5t-45.5 12.5t-56.5 -8.5t-38.5 -18.5l-27 48q17 12 51 26t83 14q51 0 81 -23.5t30 -68.5q0 -12 -3 -27l-27 -138l-5.5 -26.5t-4.5 -28.5h-59z" />
    <glyph glyph-name="guillemotleft" unicode="&#xab;" horiz-adv-x="482" 
d="M63 243l131 188h85l-130 -191l58 -195h-80zM232 243l131 188h85l-130 -191l58 -195h-80z" />
    <glyph glyph-name="logicalnot" unicode="&#xac;" horiz-adv-x="545" 
d="M106 360h391l-41 -213h-76l26 135h-315z" />
    <glyph glyph-name="uni00AD" unicode="&#xad;" horiz-adv-x="421" 
d="M97 322h281l-16 -84h-281z" />
    <glyph glyph-name="registered" unicode="&#xae;" horiz-adv-x="777" 
d="M415 -14q-73 0 -136.5 27t-110 74.5t-73.5 111t-27 136.5t27 136.5t73.5 110.5t110 74.5t137.5 27.5q73 0 136 -27.5t109.5 -74.5t73.5 -110.5t27 -136.5t-27 -136.5t-73.5 -111t-110 -74.5t-136.5 -27zM415 51q60 0 110 21.5t87 60t57.5 90t20.5 111.5t-20.5 111.5
t-57 90t-87 60.5t-109.5 22q-60 0 -110.5 -22t-87 -60.5t-57.5 -90t-21 -111.5t20.5 -111.5t57.5 -90t87 -60t110 -21.5zM294 513h136q33 0 56.5 -9.5t39 -24.5t22.5 -33.5t7 -36.5q0 -34 -17.5 -61.5t-52.5 -41.5l86 -146h-74l-79 137h-59v-137h-65v353zM427 349
q31 0 46 15.5t15 40.5q0 53 -65 53h-64v-109h68z" />
    <glyph glyph-name="macron" unicode="&#xaf;" horiz-adv-x="335" 
d="M146 637h240l-14 -72h-240z" />
    <glyph glyph-name="degree" unicode="&#xb0;" horiz-adv-x="319" 
d="M68 526q0 29 10.5 53.5t29 42.5t43 28t53.5 10t54 -10t43.5 -28t29 -42.5t10.5 -52.5q0 -29 -10.5 -53.5t-29 -42.5t-43.5 -28t-53 -10q-29 0 -54 10t-43.5 28t-29 42t-10.5 53zM205 452q32 0 52.5 21t20.5 54q0 31 -20.5 52t-53.5 21q-31 0 -51.5 -21t-20.5 -53
t20.5 -53t52.5 -21z" />
    <glyph glyph-name="plusminus" unicode="&#xb1;" horiz-adv-x="545" 
d="M106 359h158l31 158h77l-31 -158h156l-15 -76h-156l-30 -158h-77l30 158h-158zM52 77h391l-15 -76h-391z" />
    <glyph glyph-name="acute" unicode="&#xb4;" horiz-adv-x="385" 
d="M301 677h95l-98 -136h-71z" />
    <glyph glyph-name="mu" unicode="&#xb5;" horiz-adv-x="520" 
d="M111 465h86l-53 -273q-2 -12 -3.5 -23t-1.5 -21q0 -81 78 -81q32 0 60 14.5t50 39.5t37.5 58.5t22.5 71.5l41 214h86l-69 -356q-7 -33 -11.5 -58t-8.5 -51h-82l11 70q-10 -12 -25.5 -26t-35.5 -26t-44 -20t-51 -8q-29 0 -49 7t-38 26l-43 -223h-86z" />
    <glyph glyph-name="paragraph" unicode="&#xb6;" horiz-adv-x="493" 
d="M294 305q-44 0 -82 9t-66.5 28t-45 48.5t-16.5 69.5q0 54 23 93.5t62 64.5t89.5 37t105.5 12zM432 667h89l-153 -789h-89zM197 258q14 -5 30 -6.5t31 -1.5h25l-72 -372h-87z" />
    <glyph glyph-name="periodcentered" unicode="&#xb7;" horiz-adv-x="243" 
d="M115 380h109l-22 -112h-109z" />
    <glyph glyph-name="cedilla" unicode="&#xb8;" horiz-adv-x="540" 
d="M36 -156q15 -6 33.5 -10t36.5 -4q33 0 50 12t17 32q0 17 -12 23.5t-38 6.5q-17 0 -34 -3.5t-34 -9.5l17 55q16 5 35 9t50 4q40 0 64 -21.5t24 -53.5q0 -29 -11 -49.5t-29.5 -34t-43.5 -19.5t-53 -6q-42 0 -64 6.5t-27 8.5z" />
    <glyph glyph-name="ordmasculine" unicode="&#xba;" horiz-adv-x="376" 
d="M263 648q30 0 54.5 -9.5t42.5 -27t28 -42t10 -54.5q0 -41 -14.5 -75t-39 -59.5t-57 -39.5t-68.5 -14q-59 0 -96.5 37t-37.5 96q0 39 14.5 73t39 59.5t57 40.5t67.5 15zM254 585q-18 0 -35.5 -8t-31.5 -23t-22.5 -36t-8.5 -46q0 -37 18 -59.5t52 -22.5q19 0 37 8t32 22.5
t23 35.5t9 47q0 38 -18.5 60t-54.5 22z" />
    <glyph glyph-name="guillemotright" unicode="&#xbb;" horiz-adv-x="482" 
d="M389 233l-131 -188h-85l130 191l-58 195h80zM220 233l-131 -188h-85l130 191l-58 195h80z" />
    <glyph glyph-name="onequarter" unicode="&#xbc;" horiz-adv-x="892" 
d="M213 555l-91 -42l-22 55l137 69h65l-66 -341h-74zM633 630h89l-481 -630h-89zM529 124l211 218h73l-43 -218h41l-10 -57h-41l-13 -65h-66l13 65h-176zM704 124l28 140l-138 -140h110z" />
    <glyph glyph-name="onehalf" unicode="&#xbd;" horiz-adv-x="892" 
d="M213 555l-91 -42l-22 55l137 69h65l-66 -341h-74zM617 630h89l-481 -630h-89zM537 39q6 35 33 67t86 66q28 16 45 27.5t26.5 20.5t12.5 16.5t3 15.5q0 17 -12 26.5t-30 9.5q-26 0 -46 -10t-36 -27l-44 40q20 23 54 42t83 19q54 0 82.5 -25.5t28.5 -61.5q0 -21 -5.5 -37
t-17.5 -30t-32 -27.5t-48 -30.5l-60 -36.5t-44 -43.5h171l-13 -59h-244z" />
    <glyph glyph-name="threequarters" unicode="&#xbe;" horiz-adv-x="892" 
d="M146 477l111 100h-134l13 60h220l-12 -54l-98 -85q42 -11 59.5 -35.5t17.5 -54.5q0 -55 -41 -88.5t-110 -33.5q-42 0 -70 12.5t-48 28.5l34 51q20 -14 40.5 -23t48.5 -9q35 0 55.5 15.5t20.5 44.5q0 27 -16.5 38.5t-38.5 11.5q-9 0 -18.5 -1.5t-17.5 -4.5zM657 630h89
l-481 -630h-89zM529 124l211 218h73l-43 -218h41l-10 -57h-41l-13 -65h-66l13 65h-176zM704 124l28 140l-138 -140h110z" />
    <glyph glyph-name="questiondown" unicode="&#xbf;" horiz-adv-x="486" 
d="M374 355h-107l21 110h107zM343 245q-10 -54 -39 -96t-86 -77q-50 -32 -80 -61t-30 -71q0 -36 24 -57t70 -21q39 0 74 14.5t73 55.5l60 -48q-41 -50 -95.5 -76.5t-117.5 -26.5q-37 0 -69.5 9.5t-56.5 28t-38 45.5t-14 62t9.5 61.5t26.5 48.5t41 41t54 38q22 14 40 27
t31.5 27.5t22.5 32.5t14 44l5 27h86z" />
    <glyph glyph-name="Agrave" unicode="&#xc0;" horiz-adv-x="615" 
d="M354 667h94l122 -667h-98l-30 187h-265l-102 -187h-100zM429 266l-48 297l-162 -297h210zM315 870h105l41 -150h-76z" />
    <glyph glyph-name="Aacute" unicode="&#xc1;" horiz-adv-x="615" 
d="M354 667h94l122 -667h-98l-30 187h-265l-102 -187h-100zM429 266l-48 297l-162 -297h210zM446 870h110l-124 -150h-78z" />
    <glyph glyph-name="Acircumflex" unicode="&#xc2;" horiz-adv-x="615" 
d="M354 667h94l122 -667h-98l-30 187h-265l-102 -187h-100zM429 266l-48 297l-162 -297h210zM398 870h84l76 -150h-78l-51 92l-88 -92h-83z" />
    <glyph glyph-name="Atilde" unicode="&#xc3;" horiz-adv-x="615" 
d="M354 667h94l122 -667h-98l-30 187h-265l-102 -187h-100zM429 266l-48 297l-162 -297h210zM467 733q-22 0 -37.5 7t-29.5 16t-28 16t-32 7q-27 0 -45.5 -10t-38.5 -26l-33 54q22 20 53 39t72 19q22 0 37.5 -7t29.5 -16t28 -16t32 -7q29 0 47 10.5t37 25.5l33 -54
q-22 -20 -53 -39t-72 -19z" />
    <glyph glyph-name="Adieresis" unicode="&#xc4;" horiz-adv-x="615" 
d="M354 667h94l122 -667h-98l-30 187h-265l-102 -187h-100zM429 266l-48 297l-162 -297h210zM477 844h97l-19 -98h-97zM290 844h96l-19 -98h-96z" />
    <glyph glyph-name="Aring" unicode="&#xc5;" horiz-adv-x="615" 
d="M291 748q0 26 9.5 48t25.5 37.5t38 24.5t48 9q25 0 47.5 -8.5t38.5 -24.5t25.5 -37.5t9.5 -46.5q0 -41 -22.5 -71t-57.5 -42l117 -637h-98l-30 187h-265l-102 -187h-100l369 649q-24 16 -38.5 41.5t-14.5 57.5zM429 266l-48 297l-162 -297h210zM413 689q26 0 41.5 17
t15.5 44q0 26 -15.5 42t-42.5 16q-26 0 -41.5 -16.5t-15.5 -43.5q0 -26 15.5 -42.5t42.5 -16.5z" />
    <glyph glyph-name="AE" unicode="&#xc6;" horiz-adv-x="913" 
d="M456 181h-237l-142 -181h-99l521 667h454l-16 -85h-312l-38 -195h235l-16 -84h-236l-42 -217h335l-16 -86h-426zM471 259l63 324l-254 -324h191z" />
    <glyph glyph-name="Ccedilla" unicode="&#xc7;" horiz-adv-x="643" 
d="M611 107q-49 -58 -115.5 -91t-147.5 -33q-65 0 -116.5 21.5t-88.5 60t-56.5 92t-19.5 118.5q0 80 28 154t78.5 130.5t120.5 90.5t153 34q87 0 143.5 -37.5t88.5 -101.5l-72 -46q-31 53 -69.5 76.5t-99.5 23.5t-111.5 -26t-86.5 -70t-55.5 -101t-19.5 -119q0 -45 12.5 -84
t36 -67.5t58.5 -45t80 -16.5q64 0 112.5 26.5t84.5 71.5zM212 -156q15 -6 35.5 -10t38.5 -4q29 0 47 12t18 32q0 17 -13 23.5t-35 6.5q-35 0 -72 -13l17 55q16 5 37 9t52 4q40 0 65.5 -21.5t25.5 -53.5q0 -29 -12 -49.5t-31.5 -34t-44.5 -19.5t-52 -6q-42 0 -66 6.5t-29 8.5
z" />
    <glyph glyph-name="Egrave" unicode="&#xc8;" horiz-adv-x="530" 
d="M167 667h403l-16 -85h-312l-38 -195h235l-16 -84h-236l-42 -217h335l-16 -86h-426zM283 870h105l41 -150h-76z" />
    <glyph glyph-name="Eacute" unicode="&#xc9;" horiz-adv-x="530" 
d="M167 667h403l-16 -85h-312l-38 -195h235l-16 -84h-236l-42 -217h335l-16 -86h-426zM411 870h110l-124 -150h-78z" />
    <glyph glyph-name="Ecircumflex" unicode="&#xca;" horiz-adv-x="530" 
d="M167 667h403l-16 -85h-312l-38 -195h235l-16 -84h-236l-42 -217h335l-16 -86h-426zM365 870h84l76 -150h-78l-51 92l-88 -92h-83z" />
    <glyph glyph-name="Edieresis" unicode="&#xcb;" horiz-adv-x="530" 
d="M167 667h403l-16 -85h-312l-38 -195h235l-16 -84h-236l-42 -217h335l-16 -86h-426zM445 844h97l-19 -98h-97zM258 844h96l-19 -98h-96z" />
    <glyph glyph-name="Igrave" unicode="&#xcc;" horiz-adv-x="238" 
d="M167 667h92l-129 -667h-92zM129 870h105l41 -150h-76z" />
    <glyph glyph-name="Iacute" unicode="&#xcd;" horiz-adv-x="238" 
d="M167 667h92l-129 -667h-92zM259 870h110l-124 -150h-78z" />
    <glyph glyph-name="Icircumflex" unicode="&#xce;" horiz-adv-x="238" 
d="M167 667h92l-129 -667h-92zM209 870h84l76 -150h-78l-51 92l-88 -92h-83z" />
    <glyph glyph-name="Idieresis" unicode="&#xcf;" horiz-adv-x="238" 
d="M167 667h92l-129 -667h-92zM288 844h97l-19 -98h-97zM101 844h96l-19 -98h-96z" />
    <glyph glyph-name="Eth" unicode="&#xd0;" horiz-adv-x="700" 
d="M52 379h69l56 288h206q69 0 124.5 -18.5t94.5 -53.5t60 -84.5t21 -112.5q0 -88 -29 -161t-82.5 -125.5t-130 -82t-172.5 -29.5h-221l58 302h-69zM283 86q67 0 122.5 21t95.5 60t61.5 94.5t21.5 124.5q0 91 -54.5 143t-169.5 52h-107l-40 -202h161l-15 -77h-161l-42 -216
h127z" />
    <glyph glyph-name="Ntilde" unicode="&#xd1;" horiz-adv-x="679" 
d="M167 667h93l247 -528l103 528h90l-129 -667h-92l-248 529l-103 -529h-90zM500 733q-22 0 -37.5 7t-29.5 16t-28 16t-32 7q-27 0 -45.5 -10t-38.5 -26l-33 54q22 20 53 39t72 19q22 0 37.5 -7t29.5 -16t28 -16t32 -7q29 0 47 10.5t37 25.5l33 -54q-22 -20 -53 -39t-72 -19
z" />
    <glyph glyph-name="Ograve" unicode="&#xd2;" horiz-adv-x="743" 
d="M165 281q0 -45 12.5 -83.5t37 -67t61.5 -44.5t85 -16q61 0 111.5 27.5t86.5 71.5t55.5 100t19.5 113q0 45 -11.5 84.5t-35 69t-60 46.5t-86.5 17q-65 0 -116.5 -28t-87 -73t-54 -102t-18.5 -115zM448 684q60 0 112 -19.5t90 -56t60 -88.5t22 -117q0 -82 -27 -158
t-76 -134t-118 -93t-152 -35q-66 0 -119.5 21t-92 58.5t-59.5 89t-21 112.5q0 84 27.5 160t77.5 134t120 92t156 34zM387 870h105l41 -150h-76z" />
    <glyph glyph-name="Oacute" unicode="&#xd3;" horiz-adv-x="743" 
d="M165 281q0 -45 12.5 -83.5t37 -67t61.5 -44.5t85 -16q61 0 111.5 27.5t86.5 71.5t55.5 100t19.5 113q0 45 -11.5 84.5t-35 69t-60 46.5t-86.5 17q-65 0 -116.5 -28t-87 -73t-54 -102t-18.5 -115zM448 684q60 0 112 -19.5t90 -56t60 -88.5t22 -117q0 -82 -27 -158
t-76 -134t-118 -93t-152 -35q-66 0 -119.5 21t-92 58.5t-59.5 89t-21 112.5q0 84 27.5 160t77.5 134t120 92t156 34zM492 870h110l-124 -150h-78z" />
    <glyph glyph-name="Ocircumflex" unicode="&#xd4;" horiz-adv-x="743" 
d="M165 281q0 -45 12.5 -83.5t37 -67t61.5 -44.5t85 -16q61 0 111.5 27.5t86.5 71.5t55.5 100t19.5 113q0 45 -11.5 84.5t-35 69t-60 46.5t-86.5 17q-65 0 -116.5 -28t-87 -73t-54 -102t-18.5 -115zM448 684q60 0 112 -19.5t90 -56t60 -88.5t22 -117q0 -82 -27 -158
t-76 -134t-118 -93t-152 -35q-66 0 -119.5 21t-92 58.5t-59.5 89t-21 112.5q0 84 27.5 160t77.5 134t120 92t156 34zM440 870h84l76 -150h-78l-51 92l-88 -92h-83z" />
    <glyph glyph-name="Otilde" unicode="&#xd5;" horiz-adv-x="743" 
d="M165 281q0 -45 12.5 -83.5t37 -67t61.5 -44.5t85 -16q61 0 111.5 27.5t86.5 71.5t55.5 100t19.5 113q0 45 -11.5 84.5t-35 69t-60 46.5t-86.5 17q-65 0 -116.5 -28t-87 -73t-54 -102t-18.5 -115zM448 684q60 0 112 -19.5t90 -56t60 -88.5t22 -117q0 -82 -27 -158
t-76 -134t-118 -93t-152 -35q-66 0 -119.5 21t-92 58.5t-59.5 89t-21 112.5q0 84 27.5 160t77.5 134t120 92t156 34zM527 733q-22 0 -37.5 7t-29.5 16t-28 16t-32 7q-27 0 -45.5 -10t-38.5 -26l-33 54q22 20 53 39t72 19q22 0 37.5 -7t29.5 -16t28 -16t32 -7q29 0 47 10.5
t37 25.5l33 -54q-22 -20 -53 -39t-72 -19z" />
    <glyph glyph-name="Odieresis" unicode="&#xd6;" horiz-adv-x="743" 
d="M165 281q0 -45 12.5 -83.5t37 -67t61.5 -44.5t85 -16q61 0 111.5 27.5t86.5 71.5t55.5 100t19.5 113q0 45 -11.5 84.5t-35 69t-60 46.5t-86.5 17q-65 0 -116.5 -28t-87 -73t-54 -102t-18.5 -115zM448 684q60 0 112 -19.5t90 -56t60 -88.5t22 -117q0 -82 -27 -158
t-76 -134t-118 -93t-152 -35q-66 0 -119.5 21t-92 58.5t-59.5 89t-21 112.5q0 84 27.5 160t77.5 134t120 92t156 34zM515 844h97l-19 -98h-97zM328 844h96l-19 -98h-96z" />
    <glyph glyph-name="multiply" unicode="&#xd7;" horiz-adv-x="545" 
d="M157 444l60 48l91 -119l139 122l46 -52l-142 -125l90 -120l-60 -48l-91 119l-139 -122l-46 52l142 125z" />
    <glyph glyph-name="Oslash" unicode="&#xd8;" horiz-adv-x="743" 
d="M128 83q-29 36 -45 81.5t-16 99.5q0 84 27.5 160t77.5 134t120 92t156 34q93 0 164 -46l77 88l55 -46l-78 -89q31 -36 48.5 -83.5t17.5 -104.5q0 -82 -27 -158t-76 -134t-118 -93t-152 -35q-53 0 -97.5 13.5t-80.5 37.5l-81 -93l-55 46zM634 382q0 38 -8 72t-25 62
l-358 -411q23 -17 52.5 -26t65.5 -9q61 0 111.5 27.5t86.5 71.5t55.5 100t19.5 113zM165 281q0 -70 29 -122l358 409q-45 31 -111 31q-65 0 -116.5 -28t-87 -73t-54 -102t-18.5 -115z" />
    <glyph glyph-name="Ugrave" unicode="&#xd9;" horiz-adv-x="646" 
d="M162 667h92l-76 -390q-4 -20 -6 -37.5t-2 -34.5q0 -62 31.5 -98t107.5 -36q45 0 77.5 12t55 36.5t36.5 61.5t24 86l78 400h92l-82 -423q-12 -60 -34 -108t-57 -82t-84 -52.5t-114 -18.5q-56 0 -98.5 15.5t-70.5 43.5t-42 66t-14 83q0 30 6 63zM331 870h105l41 -150h-76z
" />
    <glyph glyph-name="Uacute" unicode="&#xda;" horiz-adv-x="646" 
d="M162 667h92l-76 -390q-4 -20 -6 -37.5t-2 -34.5q0 -62 31.5 -98t107.5 -36q45 0 77.5 12t55 36.5t36.5 61.5t24 86l78 400h92l-82 -423q-12 -60 -34 -108t-57 -82t-84 -52.5t-114 -18.5q-56 0 -98.5 15.5t-70.5 43.5t-42 66t-14 83q0 30 6 63zM453 870h110l-124 -150h-78
z" />
    <glyph glyph-name="Ucircumflex" unicode="&#xdb;" horiz-adv-x="646" 
d="M162 667h92l-76 -390q-4 -20 -6 -37.5t-2 -34.5q0 -62 31.5 -98t107.5 -36q45 0 77.5 12t55 36.5t36.5 61.5t24 86l78 400h92l-82 -423q-12 -60 -34 -108t-57 -82t-84 -52.5t-114 -18.5q-56 0 -98.5 15.5t-70.5 43.5t-42 66t-14 83q0 30 6 63zM410 870h84l76 -150h-78
l-51 92l-88 -92h-83z" />
    <glyph glyph-name="Udieresis" unicode="&#xdc;" horiz-adv-x="646" 
d="M162 667h92l-76 -390q-4 -20 -6 -37.5t-2 -34.5q0 -62 31.5 -98t107.5 -36q45 0 77.5 12t55 36.5t36.5 61.5t24 86l78 400h92l-82 -423q-12 -60 -34 -108t-57 -82t-84 -52.5t-114 -18.5q-56 0 -98.5 15.5t-70.5 43.5t-42 66t-14 83q0 30 6 63zM490 844h97l-19 -98h-97z
M303 844h96l-19 -98h-96z" />
    <glyph glyph-name="Yacute" unicode="&#xdd;" horiz-adv-x="554" 
d="M248 297l-149 370h97l111 -287l223 287h104l-293 -369l-57 -298h-93zM408 870h110l-124 -150h-78z" />
    <glyph glyph-name="Thorn" unicode="&#xde;" horiz-adv-x="543" 
d="M348 545q53 0 90 -15.5t59.5 -40t32.5 -54.5t10 -59q0 -62 -21.5 -106.5t-58 -73.5t-84.5 -42.5t-101 -13.5h-112l-27 -140h-88l129 667h88l-24 -122h107zM290 222q72 0 112 35t40 106q0 45 -27.5 72.5t-81.5 27.5h-108l-46 -241h111z" />
    <glyph glyph-name="germandbls" unicode="&#xdf;" horiz-adv-x="553" 
d="M429 127q0 17 -7.5 29.5t-19.5 22t-27 16.5l-31 14q-36 15 -59.5 36.5t-23.5 66.5q0 23 8 42.5t20.5 36t28.5 31.5l31 29q23 21 41 42t18 50q0 28 -21.5 46t-60.5 18q-57 0 -84.5 -35t-40.5 -102l-91 -470h-85l92 475q21 108 74.5 158t147.5 50q31 0 59.5 -9.5t49.5 -26
t33.5 -39.5t12.5 -49q0 -28 -6.5 -48.5t-17 -36.5t-24 -29t-28.5 -26l-49 -45t-22 -47q0 -11 3.5 -19t12 -14.5t23.5 -14t38 -17.5q54 -23 73.5 -56.5t19.5 -70.5q0 -30 -12 -57.5t-34 -47.5t-53.5 -32t-71.5 -12q-45 0 -84.5 9t-81.5 41l47 64q18 -14 34 -22t30.5 -12
t27.5 -4.5t25 -0.5q42 0 63.5 18.5t21.5 47.5z" />
    <glyph glyph-name="agrave" unicode="&#xe0;" horiz-adv-x="479" 
d="M345 221q-14 2 -34.5 4.5t-58.5 2.5q-41 0 -69 -8.5t-44.5 -22.5t-23.5 -32.5t-7 -37.5q0 -37 19.5 -53t61.5 -16q23 0 47 9t44.5 24.5t35.5 37t20 45.5zM314 56q-35 -36 -74 -52.5t-82 -16.5q-27 0 -51.5 8.5t-43.5 24.5t-30 39t-11 52q0 43 16.5 77.5t46.5 58.5
t72 36.5t94 12.5q32 0 61 -2.5t46 -6.5l3 16q3 12 3 24q0 35 -23 57t-72 22q-51 0 -82.5 -15t-54.5 -30l-36 58q13 10 31 20.5t41.5 19.5t53 14.5t65.5 5.5q71 0 115 -38t44 -105q0 -21 -4 -40l-40 -204l-9.5 -50.5t-6.5 -41.5h-80zM218 677h93l28 -136h-69z" />
    <glyph glyph-name="aacute" unicode="&#xe1;" horiz-adv-x="479" 
d="M345 221q-14 2 -34.5 4.5t-58.5 2.5q-41 0 -69 -8.5t-44.5 -22.5t-23.5 -32.5t-7 -37.5q0 -37 19.5 -53t61.5 -16q23 0 47 9t44.5 24.5t35.5 37t20 45.5zM314 56q-35 -36 -74 -52.5t-82 -16.5q-27 0 -51.5 8.5t-43.5 24.5t-30 39t-11 52q0 43 16.5 77.5t46.5 58.5
t72 36.5t94 12.5q32 0 61 -2.5t46 -6.5l3 16q3 12 3 24q0 35 -23 57t-72 22q-51 0 -82.5 -15t-54.5 -30l-36 58q13 10 31 20.5t41.5 19.5t53 14.5t65.5 5.5q71 0 115 -38t44 -105q0 -21 -4 -40l-40 -204l-9.5 -50.5t-6.5 -41.5h-80zM327 677h95l-98 -136h-71z" />
    <glyph glyph-name="acircumflex" unicode="&#xe2;" horiz-adv-x="479" 
d="M345 221q-14 2 -34.5 4.5t-58.5 2.5q-41 0 -69 -8.5t-44.5 -22.5t-23.5 -32.5t-7 -37.5q0 -37 19.5 -53t61.5 -16q23 0 47 9t44.5 24.5t35.5 37t20 45.5zM314 56q-35 -36 -74 -52.5t-82 -16.5q-27 0 -51.5 8.5t-43.5 24.5t-30 39t-11 52q0 43 16.5 77.5t46.5 58.5
t72 36.5t94 12.5q32 0 61 -2.5t46 -6.5l3 16q3 12 3 24q0 35 -23 57t-72 22q-51 0 -82.5 -15t-54.5 -30l-36 58q13 10 31 20.5t41.5 19.5t53 14.5t65.5 5.5q71 0 115 -38t44 -105q0 -21 -4 -40l-40 -204l-9.5 -50.5t-6.5 -41.5h-80zM275 676h81l68 -137h-79l-38 83l-76 -83
h-79z" />
    <glyph glyph-name="atilde" unicode="&#xe3;" horiz-adv-x="479" 
d="M345 221q-14 2 -34.5 4.5t-58.5 2.5q-41 0 -69 -8.5t-44.5 -22.5t-23.5 -32.5t-7 -37.5q0 -37 19.5 -53t61.5 -16q23 0 47 9t44.5 24.5t35.5 37t20 45.5zM314 56q-35 -36 -74 -52.5t-82 -16.5q-27 0 -51.5 8.5t-43.5 24.5t-30 39t-11 52q0 43 16.5 77.5t46.5 58.5
t72 36.5t94 12.5q32 0 61 -2.5t46 -6.5l3 16q3 12 3 24q0 35 -23 57t-72 22q-51 0 -82.5 -15t-54.5 -30l-36 58q13 10 31 20.5t41.5 19.5t53 14.5t65.5 5.5q71 0 115 -38t44 -105q0 -21 -4 -40l-40 -204l-9.5 -50.5t-6.5 -41.5h-80zM355 545q-21 0 -35.5 7t-27.5 15
t-26.5 15t-30.5 7q-25 0 -42.5 -10t-36.5 -25l-31 51q20 19 50 36.5t68 17.5q21 0 35.5 -7t27.5 -15t26.5 -15t30.5 -7q25 0 43.5 10.5t35.5 24.5l31 -51q-20 -19 -50 -36.5t-68 -17.5z" />
    <glyph glyph-name="adieresis" unicode="&#xe4;" horiz-adv-x="479" 
d="M345 221q-14 2 -34.5 4.5t-58.5 2.5q-41 0 -69 -8.5t-44.5 -22.5t-23.5 -32.5t-7 -37.5q0 -37 19.5 -53t61.5 -16q23 0 47 9t44.5 24.5t35.5 37t20 45.5zM314 56q-35 -36 -74 -52.5t-82 -16.5q-27 0 -51.5 8.5t-43.5 24.5t-30 39t-11 52q0 43 16.5 77.5t46.5 58.5
t72 36.5t94 12.5q32 0 61 -2.5t46 -6.5l3 16q3 12 3 24q0 35 -23 57t-72 22q-51 0 -82.5 -15t-54.5 -30l-36 58q13 10 31 20.5t41.5 19.5t53 14.5t65.5 5.5q71 0 115 -38t44 -105q0 -21 -4 -40l-40 -204l-9.5 -50.5t-6.5 -41.5h-80zM353 651h89l-18 -91h-89zM188 651h91
l-18 -91h-91z" />
    <glyph glyph-name="aring" unicode="&#xe5;" horiz-adv-x="479" 
d="M345 221q-14 2 -34.5 4.5t-58.5 2.5q-41 0 -69 -8.5t-44.5 -22.5t-23.5 -32.5t-7 -37.5q0 -37 19.5 -53t61.5 -16q23 0 47 9t44.5 24.5t35.5 37t20 45.5zM314 56q-35 -36 -74 -52.5t-82 -16.5q-27 0 -51.5 8.5t-43.5 24.5t-30 39t-11 52q0 43 16.5 77.5t46.5 58.5
t72 36.5t94 12.5q32 0 61 -2.5t46 -6.5l3 16q3 12 3 24q0 35 -23 57t-72 22q-51 0 -82.5 -15t-54.5 -30l-36 58q13 10 31 20.5t41.5 19.5t53 14.5t65.5 5.5q71 0 115 -38t44 -105q0 -21 -4 -40l-40 -204l-9.5 -50.5t-6.5 -41.5h-80zM208 641q0 23 8.5 42.5t23 34t34 22.5
t42.5 8q22 0 42 -8t34.5 -22t23 -33.5t8.5 -42.5t-8.5 -43t-23 -34t-34 -22t-41.5 -8t-42 8t-35 22t-23.5 33.5t-8.5 42.5zM316 588q21 0 36 15t15 38t-15 37.5t-36 14.5t-35.5 -14.5t-14.5 -37.5t14.5 -38t35.5 -15z" />
    <glyph glyph-name="ae" unicode="&#xe6;" horiz-adv-x="804" 
d="M357 83q-33 -40 -79.5 -68t-117.5 -28q-30 0 -57 8.5t-46.5 24t-31 39t-11.5 53.5q0 41 16 73t45.5 54.5t71.5 34.5t94 12q32 0 61 -2.5t46 -6.5l5 26q3 12 3 24q0 35 -23 57t-72 22q-51 0 -82.5 -15t-54.5 -30l-36 58q13 10 31 20.5t41.5 19.5t53 14.5t65.5 5.5
q51 0 86 -20.5t54 -55.5q34 34 75.5 55.5t98.5 21.5q49 0 83.5 -15.5t56.5 -42t32 -62t10 -75.5q0 -39 -9 -79h-345q-1 -5 -1 -9v-6q0 -55 31 -92.5t91 -37.5q24 0 42.5 3t35 10.5t32 18.5t32.5 28l49 -52q-37 -40 -86.5 -61.5t-117.5 -21.5q-51 0 -95.5 21t-76.5 76z
M335 211q-14 2 -34.5 4.5t-58.5 2.5q-41 0 -68.5 -8t-44 -20.5t-23 -29t-6.5 -33.5q0 -37 20 -53t61 -16q23 0 47.5 9t45 24.5t35 37t19.5 45.5zM692 272q0 5 0.5 9t0.5 9q0 51 -26 85.5t-80 34.5q-57 0 -97 -36.5t-58 -101.5h260z" />
    <glyph glyph-name="ccedilla" unicode="&#xe7;" horiz-adv-x="475" 
d="M428 64q-32 -34 -77 -56t-109 -22q-45 0 -81.5 15t-61.5 41t-38.5 62t-13.5 77q0 66 20.5 120.5t56.5 94.5t85 62t106 22q118 0 165 -106l-65 -36q-18 32 -42.5 49t-69.5 17q-32 0 -62 -15t-53 -42t-37 -65.5t-14 -86.5q0 -58 32.5 -95.5t84.5 -37.5q42 0 70.5 15
t55.5 41zM108 -156q15 -6 33.5 -10t36.5 -4q33 0 50 12t17 32q0 17 -12 23.5t-38 6.5q-17 0 -34 -3.5t-34 -9.5l17 55q16 5 35 9t50 4q40 0 64 -21.5t24 -53.5q0 -29 -11 -49.5t-29.5 -34t-43.5 -19.5t-53 -6q-42 0 -64 6.5t-27 8.5z" />
    <glyph glyph-name="egrave" unicode="&#xe8;" horiz-adv-x="517" 
d="M306 480q49 0 83.5 -15.5t56.5 -42t32 -62t10 -75.5q0 -39 -9 -79h-345q-1 -5 -1 -9v-6q0 -55 30.5 -92.5t92.5 -37.5q45 0 77 14.5t64 45.5l49 -52q-33 -35 -82.5 -59t-113.5 -24q-50 0 -87.5 15t-63 41.5t-38.5 62.5t-13 78q0 61 19 115.5t53.5 94.5t81.5 63.5
t104 23.5zM405 272q0 5 0.5 9t0.5 9q0 51 -26 85.5t-80 34.5q-57 0 -97 -36.5t-58 -101.5h260zM251 677h93l28 -136h-69z" />
    <glyph glyph-name="eacute" unicode="&#xe9;" horiz-adv-x="517" 
d="M306 480q49 0 83.5 -15.5t56.5 -42t32 -62t10 -75.5q0 -39 -9 -79h-345q-1 -5 -1 -9v-6q0 -55 30.5 -92.5t92.5 -37.5q45 0 77 14.5t64 45.5l49 -52q-33 -35 -82.5 -59t-113.5 -24q-50 0 -87.5 15t-63 41.5t-38.5 62.5t-13 78q0 61 19 115.5t53.5 94.5t81.5 63.5
t104 23.5zM405 272q0 5 0.5 9t0.5 9q0 51 -26 85.5t-80 34.5q-57 0 -97 -36.5t-58 -101.5h260zM349 677h95l-98 -136h-71z" />
    <glyph glyph-name="ecircumflex" unicode="&#xea;" horiz-adv-x="517" 
d="M306 480q49 0 83.5 -15.5t56.5 -42t32 -62t10 -75.5q0 -39 -9 -79h-345q-1 -5 -1 -9v-6q0 -55 30.5 -92.5t92.5 -37.5q45 0 77 14.5t64 45.5l49 -52q-33 -35 -82.5 -59t-113.5 -24q-50 0 -87.5 15t-63 41.5t-38.5 62.5t-13 78q0 61 19 115.5t53.5 94.5t81.5 63.5
t104 23.5zM405 272q0 5 0.5 9t0.5 9q0 51 -26 85.5t-80 34.5q-57 0 -97 -36.5t-58 -101.5h260zM297 676h81l68 -137h-79l-38 83l-76 -83h-79z" />
    <glyph glyph-name="edieresis" unicode="&#xeb;" horiz-adv-x="517" 
d="M306 480q49 0 83.5 -15.5t56.5 -42t32 -62t10 -75.5q0 -39 -9 -79h-345q-1 -5 -1 -9v-6q0 -55 30.5 -92.5t92.5 -37.5q45 0 77 14.5t64 45.5l49 -52q-33 -35 -82.5 -59t-113.5 -24q-50 0 -87.5 15t-63 41.5t-38.5 62.5t-13 78q0 61 19 115.5t53.5 94.5t81.5 63.5
t104 23.5zM405 272q0 5 0.5 9t0.5 9q0 51 -26 85.5t-80 34.5q-57 0 -97 -36.5t-58 -101.5h260zM375 651h89l-18 -91h-89zM210 651h91l-18 -91h-91z" />
    <glyph glyph-name="igrave" unicode="&#xec;" horiz-adv-x="213" 
d="M118 465h87l-90 -465h-87zM97 677h93l28 -136h-69z" />
    <glyph glyph-name="iacute" unicode="&#xed;" horiz-adv-x="213" 
d="M118 465h87l-90 -465h-87zM205 677h95l-98 -136h-71z" />
    <glyph glyph-name="icircumflex" unicode="&#xee;" horiz-adv-x="213" 
d="M118 465h87l-90 -465h-87zM155 676h81l68 -137h-79l-38 83l-76 -83h-79z" />
    <glyph glyph-name="idieresis" unicode="&#xef;" horiz-adv-x="213" 
d="M118 465h87l-90 -465h-87zM228 651h89l-18 -91h-89zM63 651h91l-18 -91h-91z" />
    <glyph glyph-name="eth" unicode="&#xf0;" horiz-adv-x="523" 
d="M368 624q39 -25 65 -57.5t41.5 -69.5t22 -76.5t6.5 -78.5q0 -66 -18 -130t-53 -114.5t-86.5 -81t-118.5 -30.5q-46 0 -82 14.5t-60.5 41t-37.5 63.5t-13 82q0 53 18.5 101t52 84.5t80.5 58t105 21.5q30 0 59.5 -8t58.5 -22q-20 94 -93 143l-61 -70l-43 35l53 61
q-36 13 -80 18l17 69q33 -4 61.5 -11t53.5 -17l63 71l43 -35zM412 336q-28 21 -61.5 30.5t-65.5 9.5q-37 0 -67 -14t-51.5 -37.5t-33 -55.5t-11.5 -68q0 -30 6 -55.5t19.5 -44t35 -29t52.5 -10.5q29 0 59.5 15.5t56 48.5t42.5 85t19 125z" />
    <glyph glyph-name="ntilde" unicode="&#xf1;" horiz-adv-x="522" 
d="M95 364l10.5 53.5t8.5 47.5h82l-11 -70q38 42 77.5 61.5t92.5 19.5q60 0 97 -38t37 -102q0 -11 -1 -26t-4 -31l-54 -279h-86l52 272q5 25 5 42q0 40 -18 62t-59 22q-32 0 -60.5 -14.5t-50.5 -38.5t-37.5 -56.5t-22.5 -68.5l-42 -220h-86zM400 545q-21 0 -35.5 7t-27.5 15
t-26.5 15t-30.5 7q-25 0 -42.5 -10t-36.5 -25l-31 51q20 19 50 36.5t68 17.5q21 0 35.5 -7t27.5 -15t26.5 -15t30.5 -7q25 0 43.5 10.5t35.5 24.5l31 -51q-20 -19 -50 -36.5t-68 -17.5z" />
    <glyph glyph-name="ograve" unicode="&#xf2;" horiz-adv-x="549" 
d="M318 480q46 0 83 -14t63.5 -40.5t41 -64t14.5 -83.5q0 -61 -20.5 -114.5t-56.5 -93t-86 -62t-110 -22.5q-45 0 -81.5 14.5t-63 41t-41 63.5t-14.5 82q0 59 21 112.5t58 93.5t86 63.5t106 23.5zM308 404q-32 0 -63 -15.5t-55.5 -42.5t-39.5 -64.5t-15 -80.5q0 -61 29 -100
t91 -39q33 0 64.5 15t56.5 41.5t40.5 64t15.5 82.5q0 65 -30 102t-94 37zM262 677h93l28 -136h-69z" />
    <glyph glyph-name="oacute" unicode="&#xf3;" horiz-adv-x="549" 
d="M318 480q46 0 83 -14t63.5 -40.5t41 -64t14.5 -83.5q0 -61 -20.5 -114.5t-56.5 -93t-86 -62t-110 -22.5q-45 0 -81.5 14.5t-63 41t-41 63.5t-14.5 82q0 59 21 112.5t58 93.5t86 63.5t106 23.5zM308 404q-32 0 -63 -15.5t-55.5 -42.5t-39.5 -64.5t-15 -80.5q0 -61 29 -100
t91 -39q33 0 64.5 15t56.5 41.5t40.5 64t15.5 82.5q0 65 -30 102t-94 37zM370 677h95l-98 -136h-71z" />
    <glyph glyph-name="ocircumflex" unicode="&#xf4;" horiz-adv-x="549" 
d="M318 480q46 0 83 -14t63.5 -40.5t41 -64t14.5 -83.5q0 -61 -20.5 -114.5t-56.5 -93t-86 -62t-110 -22.5q-45 0 -81.5 14.5t-63 41t-41 63.5t-14.5 82q0 59 21 112.5t58 93.5t86 63.5t106 23.5zM308 404q-32 0 -63 -15.5t-55.5 -42.5t-39.5 -64.5t-15 -80.5q0 -61 29 -100
t91 -39q33 0 64.5 15t56.5 41.5t40.5 64t15.5 82.5q0 65 -30 102t-94 37zM314 676h81l68 -137h-79l-38 83l-76 -83h-79z" />
    <glyph glyph-name="otilde" unicode="&#xf5;" horiz-adv-x="549" 
d="M318 480q46 0 83 -14t63.5 -40.5t41 -64t14.5 -83.5q0 -61 -20.5 -114.5t-56.5 -93t-86 -62t-110 -22.5q-45 0 -81.5 14.5t-63 41t-41 63.5t-14.5 82q0 59 21 112.5t58 93.5t86 63.5t106 23.5zM308 404q-32 0 -63 -15.5t-55.5 -42.5t-39.5 -64.5t-15 -80.5q0 -61 29 -100
t91 -39q33 0 64.5 15t56.5 41.5t40.5 64t15.5 82.5q0 65 -30 102t-94 37zM399 545q-21 0 -35.5 7t-27.5 15t-26.5 15t-30.5 7q-25 0 -42.5 -10t-36.5 -25l-31 51q20 19 50 36.5t68 17.5q21 0 35.5 -7t27.5 -15t26.5 -15t30.5 -7q25 0 43.5 10.5t35.5 24.5l31 -51
q-20 -19 -50 -36.5t-68 -17.5z" />
    <glyph glyph-name="odieresis" unicode="&#xf6;" horiz-adv-x="549" 
d="M318 480q46 0 83 -14t63.5 -40.5t41 -64t14.5 -83.5q0 -61 -20.5 -114.5t-56.5 -93t-86 -62t-110 -22.5q-45 0 -81.5 14.5t-63 41t-41 63.5t-14.5 82q0 59 21 112.5t58 93.5t86 63.5t106 23.5zM308 404q-32 0 -63 -15.5t-55.5 -42.5t-39.5 -64.5t-15 -80.5q0 -61 29 -100
t91 -39q33 0 64.5 15t56.5 41.5t40.5 64t15.5 82.5q0 65 -30 102t-94 37zM390 651h89l-18 -91h-89zM225 651h91l-18 -91h-91z" />
    <glyph glyph-name="divide" unicode="&#xf7;" horiz-adv-x="545" 
d="M230 209h85l-16 -85h-85zM290 518h85l-16 -84h-85zM106 359h391l-15 -76h-391z" />
    <glyph glyph-name="oslash" unicode="&#xf8;" horiz-adv-x="549" 
d="M318 480q67 0 115 -30l61 71l46 -37l-63 -73q20 -26 31.5 -59t11.5 -74q0 -61 -20.5 -114.5t-56.5 -93t-86 -62t-110 -22.5q-32 0 -61 8t-52 22l-59 -69l-46 37l61 71q-43 52 -43 132q0 59 21 112.5t58 93.5t86 63.5t106 23.5zM308 404q-32 0 -63 -15.5t-55.5 -42.5
t-39.5 -64.5t-15 -80.5q0 -46 15 -77l228 263q-29 17 -70 17zM432 265q0 45 -15 77l-228 -263q26 -17 66 -17q33 0 64.5 15t56.5 41.5t40.5 64t15.5 82.5z" />
    <glyph glyph-name="ugrave" unicode="&#xf9;" horiz-adv-x="517" 
d="M439 101l-10.5 -53.5t-8.5 -47.5h-82l11 70q-38 -42 -77 -61.5t-92 -19.5q-60 0 -96.5 38t-36.5 102q0 11 1 26t4 31l54 279h86l-52 -272q-5 -25 -5 -42q0 -40 17.5 -62t58.5 -22q32 0 60 14.5t50.5 38.5t37.5 56.5t22 68.5l42 220h86zM234 677h93l28 -136h-69z" />
    <glyph glyph-name="uacute" unicode="&#xfa;" horiz-adv-x="517" 
d="M439 101l-10.5 -53.5t-8.5 -47.5h-82l11 70q-38 -42 -77 -61.5t-92 -19.5q-60 0 -96.5 38t-36.5 102q0 11 1 26t4 31l54 279h86l-52 -272q-5 -25 -5 -42q0 -40 17.5 -62t58.5 -22q32 0 60 14.5t50.5 38.5t37.5 56.5t22 68.5l42 220h86zM343 677h95l-98 -136h-71z" />
    <glyph glyph-name="ucircumflex" unicode="&#xfb;" horiz-adv-x="517" 
d="M439 101l-10.5 -53.5t-8.5 -47.5h-82l11 70q-38 -42 -77 -61.5t-92 -19.5q-60 0 -96.5 38t-36.5 102q0 11 1 26t4 31l54 279h86l-52 -272q-5 -25 -5 -42q0 -40 17.5 -62t58.5 -22q32 0 60 14.5t50.5 38.5t37.5 56.5t22 68.5l42 220h86zM302 676h81l68 -137h-79l-38 83
l-76 -83h-79z" />
    <glyph glyph-name="udieresis" unicode="&#xfc;" horiz-adv-x="517" 
d="M439 101l-10.5 -53.5t-8.5 -47.5h-82l11 70q-38 -42 -77 -61.5t-92 -19.5q-60 0 -96.5 38t-36.5 102q0 11 1 26t4 31l54 279h86l-52 -272q-5 -25 -5 -42q0 -40 17.5 -62t58.5 -22q32 0 60 14.5t50.5 38.5t37.5 56.5t22 68.5l42 220h86zM375 651h89l-18 -91h-89zM210 651
h91l-18 -91h-91z" />
    <glyph glyph-name="yacute" unicode="&#xfd;" horiz-adv-x="482" 
d="M-15 -119q11 -8 23.5 -14t32.5 -6q15 0 27 6t24 20t25.5 36l31.5 54l17 30l-109 458h96l75 -351l195 351h97l-302 -517q-22 -37 -41.5 -66.5t-39.5 -50.5t-42.5 -32.5t-49.5 -11.5t-50 6.5t-43 25.5zM319 677h95l-98 -136h-71z" />
    <glyph glyph-name="thorn" unicode="&#xfe;" horiz-adv-x="541" 
d="M237 62q56 0 95.5 27.5t62.5 72.5q11 23 19.5 54t8.5 65q0 55 -21.5 86.5t-72.5 31.5q-32 0 -61 -13t-52.5 -37t-40 -57t-23.5 -73l-22 -118q21 -19 47 -29t60 -10zM238 -14q-39 0 -66 9t-58 28l-43 -223h-85l168 868h84l-53 -273l22.5 23t33.5 26.5t47.5 22t64.5 9.5
t66.5 -14.5t50.5 -39t32 -56t11 -65.5q0 -82 -25.5 -141.5t-65 -98t-88.5 -57t-96 -18.5z" />
    <glyph glyph-name="ydieresis" unicode="&#xff;" horiz-adv-x="482" 
d="M-15 -119q11 -8 23.5 -14t32.5 -6q15 0 27 6t24 20t25.5 36l31.5 54l17 30l-109 458h96l75 -351l195 351h97l-302 -517q-22 -37 -41.5 -66.5t-39.5 -50.5t-42.5 -32.5t-49.5 -11.5t-50 6.5t-43 25.5zM351 651h89l-18 -91h-89zM186 651h91l-18 -91h-91z" />
    <glyph glyph-name="Amacron" unicode="&#x100;" horiz-adv-x="615" 
d="M354 667h94l122 -667h-98l-30 187h-265l-102 -187h-100zM429 266l-48 297l-162 -297h210zM272 832h303l-14 -75h-303z" />
    <glyph glyph-name="amacron" unicode="&#x101;" horiz-adv-x="479" 
d="M345 221q-14 2 -34.5 4.5t-58.5 2.5q-41 0 -69 -8.5t-44.5 -22.5t-23.5 -32.5t-7 -37.5q0 -37 19.5 -53t61.5 -16q23 0 47 9t44.5 24.5t35.5 37t20 45.5zM314 56q-35 -36 -74 -52.5t-82 -16.5q-27 0 -51.5 8.5t-43.5 24.5t-30 39t-11 52q0 43 16.5 77.5t46.5 58.5
t72 36.5t94 12.5q32 0 61 -2.5t46 -6.5l3 16q3 12 3 24q0 35 -23 57t-72 22q-51 0 -82.5 -15t-54.5 -30l-36 58q13 10 31 20.5t41.5 19.5t53 14.5t65.5 5.5q71 0 115 -38t44 -105q0 -21 -4 -40l-40 -204l-9.5 -50.5t-6.5 -41.5h-80zM189 637h240l-14 -72h-240z" />
    <glyph glyph-name="Abreve" unicode="&#x102;" horiz-adv-x="615" 
d="M354 667h94l122 -667h-98l-30 187h-265l-102 -187h-100zM429 266l-48 297l-162 -297h210zM361 854q-1 -4 -1 -7.5v-6.5q0 -24 13.5 -38.5t42.5 -14.5q36 0 56.5 20t27.5 47h74q-5 -25 -18 -48.5t-33.5 -42t-48.5 -30t-63 -11.5q-62 0 -92.5 30t-30.5 77q0 6 0.5 12
t1.5 13h71z" />
    <glyph glyph-name="abreve" unicode="&#x103;" horiz-adv-x="479" 
d="M345 221q-14 2 -34.5 4.5t-58.5 2.5q-41 0 -69 -8.5t-44.5 -22.5t-23.5 -32.5t-7 -37.5q0 -37 19.5 -53t61.5 -16q23 0 47 9t44.5 24.5t35.5 37t20 45.5zM314 56q-35 -36 -74 -52.5t-82 -16.5q-27 0 -51.5 8.5t-43.5 24.5t-30 39t-11 52q0 43 16.5 77.5t46.5 58.5
t72 36.5t94 12.5q32 0 61 -2.5t46 -6.5l3 16q3 12 3 24q0 35 -23 57t-72 22q-51 0 -82.5 -15t-54.5 -30l-36 58q13 10 31 20.5t41.5 19.5t53 14.5t65.5 5.5q71 0 115 -38t44 -105q0 -21 -4 -40l-40 -204l-9.5 -50.5t-6.5 -41.5h-80zM250 669q-1 -4 -1 -7.5v-6.5
q0 -53 53 -53q34 0 53 20.5t26 46.5h69q-5 -24 -17 -47t-31.5 -41t-45.5 -29t-59 -11q-57 0 -86 29t-29 74v12t2 13h66z" />
    <glyph glyph-name="Aogonek" unicode="&#x104;" horiz-adv-x="615" 
d="M472 0l-30 187h-265l-102 -187h-100l379 667h94l122 -667q-30 -26 -53.5 -53.5t-23.5 -47.5q0 -11 5.5 -18t18.5 -7q18 0 32.5 5.5t25.5 12.5l21 -58q-26 -17 -54.5 -26t-56.5 -9q-37 0 -59 17t-22 50q0 35 25 67t66 67h-23zM429 266l-48 297l-162 -297h210z" />
    <glyph glyph-name="aogonek" unicode="&#x105;" horiz-adv-x="479" 
d="M314 56q-35 -36 -74 -52.5t-82 -16.5q-27 0 -51.5 8.5t-43.5 24.5t-30 39t-11 52q0 43 16.5 77.5t46.5 58.5t72 36.5t94 12.5q32 0 61 -2.5t46 -6.5l3 16q3 12 3 24q0 35 -23 57t-72 22q-51 0 -82.5 -15t-54.5 -30l-36 58q13 10 31 20.5t41.5 19.5t53 14.5t65.5 5.5
q71 0 115 -38t44 -105q0 -21 -4 -40l-40 -204l-9.5 -50.5t-6.5 -41.5q-30 -26 -53.5 -53.5t-23.5 -47.5q0 -11 5.5 -17.5t18.5 -6.5q18 0 33 6t26 13l21 -57q-52 -32 -107 -32q-36 0 -57.5 16.5t-21.5 48.5q0 34 24.5 64.5t64.5 65.5h-10zM345 221q-14 2 -34.5 4.5
t-58.5 2.5q-41 0 -69 -8.5t-44.5 -22.5t-23.5 -32.5t-7 -37.5q0 -37 19.5 -53t61.5 -16q23 0 47 9t44.5 24.5t35.5 37t20 45.5z" />
    <glyph glyph-name="Cacute" unicode="&#x106;" horiz-adv-x="643" 
d="M611 107q-49 -58 -115.5 -91t-147.5 -33q-65 0 -116.5 21.5t-88.5 60t-56.5 92t-19.5 118.5q0 80 28 154t78.5 130.5t120.5 90.5t153 34q87 0 143.5 -37.5t88.5 -101.5l-72 -46q-31 53 -69.5 76.5t-99.5 23.5t-111.5 -26t-86.5 -70t-55.5 -101t-19.5 -119q0 -45 12.5 -84
t36 -67.5t58.5 -45t80 -16.5q64 0 112.5 26.5t84.5 71.5zM492 870h110l-124 -150h-78z" />
    <glyph glyph-name="cacute" unicode="&#x107;" horiz-adv-x="475" 
d="M428 64q-32 -34 -77 -56t-109 -22q-45 0 -81.5 15t-61.5 41t-38.5 62t-13.5 77q0 66 20.5 120.5t56.5 94.5t85 62t106 22q118 0 165 -106l-65 -36q-18 32 -42.5 49t-69.5 17q-32 0 -62 -15t-53 -42t-37 -65.5t-14 -86.5q0 -58 32.5 -95.5t84.5 -37.5q42 0 70.5 15
t55.5 41zM354 677h95l-98 -136h-71z" />
    <glyph glyph-name="Ccircumflex" unicode="&#x108;" horiz-adv-x="643" 
d="M611 107q-49 -58 -115.5 -91t-147.5 -33q-65 0 -116.5 21.5t-88.5 60t-56.5 92t-19.5 118.5q0 80 28 154t78.5 130.5t120.5 90.5t153 34q87 0 143.5 -37.5t88.5 -101.5l-72 -46q-31 53 -69.5 76.5t-99.5 23.5t-111.5 -26t-86.5 -70t-55.5 -101t-19.5 -119q0 -45 12.5 -84
t36 -67.5t58.5 -45t80 -16.5q64 0 112.5 26.5t84.5 71.5zM440 870h84l76 -150h-78l-51 92l-88 -92h-83z" />
    <glyph glyph-name="ccircumflex" unicode="&#x109;" horiz-adv-x="475" 
d="M428 64q-32 -34 -77 -56t-109 -22q-45 0 -81.5 15t-61.5 41t-38.5 62t-13.5 77q0 66 20.5 120.5t56.5 94.5t85 62t106 22q118 0 165 -106l-65 -36q-18 32 -42.5 49t-69.5 17q-32 0 -62 -15t-53 -42t-37 -65.5t-14 -86.5q0 -58 32.5 -95.5t84.5 -37.5q42 0 70.5 15
t55.5 41zM311 676h81l68 -137h-79l-38 83l-76 -83h-79z" />
    <glyph glyph-name="Cdotaccent" unicode="&#x10a;" horiz-adv-x="643" 
d="M611 107q-49 -58 -115.5 -91t-147.5 -33q-65 0 -116.5 21.5t-88.5 60t-56.5 92t-19.5 118.5q0 80 28 154t78.5 130.5t120.5 90.5t153 34q87 0 143.5 -37.5t88.5 -101.5l-72 -46q-31 53 -69.5 76.5t-99.5 23.5t-111.5 -26t-86.5 -70t-55.5 -101t-19.5 -119q0 -45 12.5 -84
t36 -67.5t58.5 -45t80 -16.5q64 0 112.5 26.5t84.5 71.5zM418 847h103l-20 -103h-103z" />
    <glyph glyph-name="cdotaccent" unicode="&#x10b;" horiz-adv-x="475" 
d="M428 64q-32 -34 -77 -56t-109 -22q-45 0 -81.5 15t-61.5 41t-38.5 62t-13.5 77q0 66 20.5 120.5t56.5 94.5t85 62t106 22q118 0 165 -106l-65 -36q-18 32 -42.5 49t-69.5 17q-32 0 -62 -15t-53 -42t-37 -65.5t-14 -86.5q0 -58 32.5 -95.5t84.5 -37.5q42 0 70.5 15
t55.5 41zM296 654h96l-19 -97h-96z" />
    <glyph glyph-name="Ccaron" unicode="&#x10c;" horiz-adv-x="643" 
d="M611 107q-49 -58 -115.5 -91t-147.5 -33q-65 0 -116.5 21.5t-88.5 60t-56.5 92t-19.5 118.5q0 80 28 154t78.5 130.5t120.5 90.5t153 34q87 0 143.5 -37.5t88.5 -101.5l-72 -46q-31 53 -69.5 76.5t-99.5 23.5t-111.5 -26t-86.5 -70t-55.5 -101t-19.5 -119q0 -45 12.5 -84
t36 -67.5t58.5 -45t80 -16.5q64 0 112.5 26.5t84.5 71.5zM493 720h-84l-76 150h76l51 -92l88 92h85z" />
    <glyph glyph-name="ccaron" unicode="&#x10d;" horiz-adv-x="475" 
d="M428 64q-32 -34 -77 -56t-109 -22q-45 0 -81.5 15t-61.5 41t-38.5 62t-13.5 77q0 66 20.5 120.5t56.5 94.5t85 62t106 22q118 0 165 -106l-65 -36q-18 32 -42.5 49t-69.5 17q-32 0 -62 -15t-53 -42t-37 -65.5t-14 -86.5q0 -58 32.5 -95.5t84.5 -37.5q42 0 70.5 15
t55.5 41zM367 539h-81l-68 137h79l38 -83l76 83h79z" />
    <glyph glyph-name="Dcaron" unicode="&#x10e;" horiz-adv-x="690" 
d="M167 667h206q69 0 124.5 -18.5t94.5 -53.5t60 -84.5t21 -112.5q0 -88 -29 -161t-82.5 -125.5t-130 -82t-172.5 -29.5h-221zM273 86q67 0 122.5 21t95.5 60t61.5 94.5t21.5 124.5q0 91 -54.5 143t-169.5 52h-107l-97 -495h127zM427 720h-84l-76 150h76l51 -92l88 92h85z
" />
    <glyph glyph-name="dcaron" unicode="&#x10f;" horiz-adv-x="620" 
d="M422 369q-25 18 -50 24.5t-59 6.5q-33 0 -64.5 -15.5t-57 -44.5t-41 -70.5t-15.5 -92.5q0 -52 23.5 -83.5t76.5 -31.5q34 0 61 14t46.5 35t31.5 45t16 44zM362 57q-7 -8 -20 -20t-32.5 -23.5t-44 -19.5t-54.5 -8q-33 0 -63.5 12t-53 34.5t-36 55.5t-13.5 75
q0 84 27.5 143t68 97t88 55.5t86.5 17.5q45 0 70 -7.5t52 -23.5l43 222h87l-110 -566l-10.5 -53.5t-8.5 -47.5h-84zM638 667h82l-57 -173h-58z" />
    <glyph glyph-name="Dcroat" unicode="&#x110;" horiz-adv-x="700" 
d="M52 379h69l56 288h206q69 0 124.5 -18.5t94.5 -53.5t60 -84.5t21 -112.5q0 -88 -29 -161t-82.5 -125.5t-130 -82t-172.5 -29.5h-221l58 302h-69zM283 86q67 0 122.5 21t95.5 60t61.5 94.5t21.5 124.5q0 91 -54.5 143t-169.5 52h-107l-40 -202h161l-15 -77h-161l-42 -216
h127z" />
    <glyph glyph-name="dcroat" unicode="&#x111;" horiz-adv-x="537" 
d="M287 592h179l14 75h87l-15 -75h64l-12 -62h-64l-83 -429l-10.5 -53.5t-8.5 -47.5h-84l8 57q-7 -8 -20 -20t-32.5 -23.5t-44 -19.5t-54.5 -8q-33 0 -63.5 12t-53 34.5t-36 55.5t-13.5 75q0 84 27 141t67.5 92.5t87.5 51t86 15.5q45 0 70 -7.5t52 -23.5l19 98h-179z
M420 356q-25 18 -50 24.5t-59 6.5q-33 0 -64.5 -13.5t-56 -40t-40 -66t-15.5 -90.5q0 -52 23.5 -83.5t76.5 -31.5q34 0 61 14t46.5 35t31.5 45t16 44z" />
    <glyph glyph-name="Emacron" unicode="&#x112;" horiz-adv-x="530" 
d="M167 667h403l-16 -85h-312l-38 -195h235l-16 -84h-236l-42 -217h335l-16 -86h-426zM240 832h303l-14 -75h-303z" />
    <glyph glyph-name="emacron" unicode="&#x113;" horiz-adv-x="517" 
d="M306 480q49 0 83.5 -15.5t56.5 -42t32 -62t10 -75.5q0 -39 -9 -79h-345q-1 -5 -1 -9v-6q0 -55 30.5 -92.5t92.5 -37.5q45 0 77 14.5t64 45.5l49 -52q-33 -35 -82.5 -59t-113.5 -24q-50 0 -87.5 15t-63 41.5t-38.5 62.5t-13 78q0 61 19 115.5t53.5 94.5t81.5 63.5
t104 23.5zM405 272q0 5 0.5 9t0.5 9q0 51 -26 85.5t-80 34.5q-57 0 -97 -36.5t-58 -101.5h260zM210 637h240l-14 -72h-240z" />
    <glyph glyph-name="Ebreve" unicode="&#x114;" horiz-adv-x="530" 
d="M167 667h403l-16 -85h-312l-38 -195h235l-16 -84h-236l-42 -217h335l-16 -86h-426zM330 854q-1 -4 -1 -7.5v-6.5q0 -24 13.5 -38.5t42.5 -14.5q36 0 56.5 20t27.5 47h74q-5 -25 -18 -48.5t-33.5 -42t-48.5 -30t-63 -11.5q-62 0 -92.5 30t-30.5 77q0 6 0.5 12t1.5 13h71z
" />
    <glyph glyph-name="ebreve" unicode="&#x115;" horiz-adv-x="517" 
d="M306 480q49 0 83.5 -15.5t56.5 -42t32 -62t10 -75.5q0 -39 -9 -79h-345q-1 -5 -1 -9v-6q0 -55 30.5 -92.5t92.5 -37.5q45 0 77 14.5t64 45.5l49 -52q-33 -35 -82.5 -59t-113.5 -24q-50 0 -87.5 15t-63 41.5t-38.5 62.5t-13 78q0 61 19 115.5t53.5 94.5t81.5 63.5
t104 23.5zM405 272q0 5 0.5 9t0.5 9q0 51 -26 85.5t-80 34.5q-57 0 -97 -36.5t-58 -101.5h260zM273 669q-1 -4 -1 -7.5v-6.5q0 -53 53 -53q34 0 53 20.5t26 46.5h69q-5 -24 -17 -47t-31.5 -41t-45.5 -29t-59 -11q-57 0 -86 29t-29 74v12t2 13h66z" />
    <glyph glyph-name="Edotaccent" unicode="&#x116;" horiz-adv-x="530" 
d="M167 667h403l-16 -85h-312l-38 -195h235l-16 -84h-236l-42 -217h335l-16 -86h-426zM352 847h103l-20 -103h-103z" />
    <glyph glyph-name="edotaccent" unicode="&#x117;" horiz-adv-x="517" 
d="M306 480q49 0 83.5 -15.5t56.5 -42t32 -62t10 -75.5q0 -39 -9 -79h-345q-1 -5 -1 -9v-6q0 -55 30.5 -92.5t92.5 -37.5q45 0 77 14.5t64 45.5l49 -52q-33 -35 -82.5 -59t-113.5 -24q-50 0 -87.5 15t-63 41.5t-38.5 62.5t-13 78q0 61 19 115.5t53.5 94.5t81.5 63.5
t104 23.5zM405 272q0 5 0.5 9t0.5 9q0 51 -26 85.5t-80 34.5q-57 0 -97 -36.5t-58 -101.5h260zM280 654h96l-19 -97h-96z" />
    <glyph glyph-name="Eogonek" unicode="&#x118;" horiz-adv-x="530" 
d="M167 667h403l-16 -85h-312l-38 -195h235l-16 -84h-236l-42 -217h335l-16 -86h-49q-30 -26 -53.5 -53.5t-23.5 -47.5q0 -11 5.5 -18t18.5 -7q18 0 32.5 5.5t25.5 12.5l21 -58q-26 -17 -54.5 -26t-56.5 -9q-37 0 -59 17t-22 50q0 35 25 67t66 67h-302z" />
    <glyph glyph-name="eogonek" unicode="&#x119;" horiz-adv-x="517" 
d="M306 480q49 0 83.5 -15.5t56.5 -42t32 -62t10 -75.5q0 -39 -9 -79h-345q-1 -5 -1 -9v-6q0 -55 30.5 -92.5t92.5 -37.5q45 0 77 14.5t64 45.5l49 -52q-17 -17 -36 -31.5t-46 -28.5q-13 -7 -30.5 -19t-33.5 -27t-27 -31.5t-11 -32.5q0 -11 5.5 -17.5t18.5 -6.5q18 0 33 6
t26 13l21 -57q-52 -32 -107 -32q-36 0 -57.5 16.5t-21.5 48.5q0 31 21 58.5t52 57.5q-51 0 -89 15t-64 41.5t-39 62.5t-13 78q0 61 19 115.5t53.5 94.5t81.5 63.5t104 23.5zM405 272q0 5 0.5 9t0.5 9q0 51 -26 85.5t-80 34.5q-57 0 -97 -36.5t-58 -101.5h260z" />
    <glyph glyph-name="Ecaron" unicode="&#x11a;" horiz-adv-x="530" 
d="M167 667h403l-16 -85h-312l-38 -195h235l-16 -84h-236l-42 -217h335l-16 -86h-426zM415 720h-84l-76 150h76l51 -92l88 92h85z" />
    <glyph glyph-name="ecaron" unicode="&#x11b;" horiz-adv-x="517" 
d="M306 480q49 0 83.5 -15.5t56.5 -42t32 -62t10 -75.5q0 -39 -9 -79h-345q-1 -5 -1 -9v-6q0 -55 30.5 -92.5t92.5 -37.5q45 0 77 14.5t64 45.5l49 -52q-33 -35 -82.5 -59t-113.5 -24q-50 0 -87.5 15t-63 41.5t-38.5 62.5t-13 78q0 61 19 115.5t53.5 94.5t81.5 63.5
t104 23.5zM405 272q0 5 0.5 9t0.5 9q0 51 -26 85.5t-80 34.5q-57 0 -97 -36.5t-58 -101.5h260zM376 539h-81l-68 137h79l38 -83l76 83h79z" />
    <glyph glyph-name="Gcircumflex" unicode="&#x11c;" horiz-adv-x="672" 
d="M357 70q54 0 93 13t75 41l25 134h-137l16 81h225l-50 -262q-49 -47 -115 -70.5t-136 -23.5q-65 0 -117.5 21.5t-90 60t-58 92t-20.5 118.5q0 80 28.5 154t79.5 130.5t121.5 90.5t153.5 34q87 0 144.5 -37.5t89.5 -101.5l-72 -46q-31 53 -70.5 76.5t-100.5 23.5t-112 -26
t-87.5 -70t-56.5 -101t-20 -119q0 -46 12.5 -85t37 -67.5t60.5 -44.5t82 -16zM438 870h84l76 -150h-78l-51 92l-88 -92h-83z" />
    <glyph glyph-name="gcircumflex" unicode="&#x11d;" horiz-adv-x="530" 
d="M432 -4q-20 -102 -80.5 -155t-163.5 -53q-42 0 -85 9t-85 38l40 71q34 -22 67 -31t71 -9q34 0 59 10t43 28.5t30 44t18 56.5l11 54q-5 -6 -17.5 -16.5t-30.5 -21t-42.5 -18t-53.5 -7.5q-76 0 -123 44.5t-47 123.5q0 67 21 124t59.5 99t92.5 65.5t121 23.5q55 0 104 -12
t76 -24zM421 388q-38 13 -96 13q-42 0 -77.5 -16.5t-61 -46t-39.5 -70t-14 -88.5t21.5 -78t77.5 -30q32 0 58 11t45 28.5t31 39.5t17 45zM336 676h81l68 -137h-79l-38 83l-76 -83h-79z" />
    <glyph glyph-name="Gbreve" unicode="&#x11e;" horiz-adv-x="672" 
d="M357 70q54 0 93 13t75 41l25 134h-137l16 81h225l-50 -262q-49 -47 -115 -70.5t-136 -23.5q-65 0 -117.5 21.5t-90 60t-58 92t-20.5 118.5q0 80 28.5 154t79.5 130.5t121.5 90.5t153.5 34q87 0 144.5 -37.5t89.5 -101.5l-72 -46q-31 53 -70.5 76.5t-100.5 23.5t-112 -26
t-87.5 -70t-56.5 -101t-20 -119q0 -46 12.5 -85t37 -67.5t60.5 -44.5t82 -16zM406 854q-1 -4 -1 -7.5v-6.5q0 -24 13.5 -38.5t42.5 -14.5q36 0 56.5 20t27.5 47h74q-5 -25 -18 -48.5t-33.5 -42t-48.5 -30t-63 -11.5q-62 0 -92.5 30t-30.5 77q0 6 0.5 12t1.5 13h71z" />
    <glyph glyph-name="gbreve" unicode="&#x11f;" horiz-adv-x="530" 
d="M432 -4q-20 -102 -80.5 -155t-163.5 -53q-42 0 -85 9t-85 38l40 71q34 -22 67 -31t71 -9q34 0 59 10t43 28.5t30 44t18 56.5l11 54q-5 -6 -17.5 -16.5t-30.5 -21t-42.5 -18t-53.5 -7.5q-76 0 -123 44.5t-47 123.5q0 67 21 124t59.5 99t92.5 65.5t121 23.5q55 0 104 -12
t76 -24zM421 388q-38 13 -96 13q-42 0 -77.5 -16.5t-61 -46t-39.5 -70t-14 -88.5t21.5 -78t77.5 -30q32 0 58 11t45 28.5t31 39.5t17 45zM309 669q-1 -4 -1 -7.5v-6.5q0 -53 53 -53q34 0 53 20.5t26 46.5h69q-5 -24 -17 -47t-31.5 -41t-45.5 -29t-59 -11q-57 0 -86 29
t-29 74v12t2 13h66z" />
    <glyph glyph-name="Gdotaccent" unicode="&#x120;" horiz-adv-x="672" 
d="M357 70q54 0 93 13t75 41l25 134h-137l16 81h225l-50 -262q-49 -47 -115 -70.5t-136 -23.5q-65 0 -117.5 21.5t-90 60t-58 92t-20.5 118.5q0 80 28.5 154t79.5 130.5t121.5 90.5t153.5 34q87 0 144.5 -37.5t89.5 -101.5l-72 -46q-31 53 -70.5 76.5t-100.5 23.5t-112 -26
t-87.5 -70t-56.5 -101t-20 -119q0 -46 12.5 -85t37 -67.5t60.5 -44.5t82 -16zM421 847h103l-20 -103h-103z" />
    <glyph glyph-name="gdotaccent" unicode="&#x121;" horiz-adv-x="530" 
d="M432 -4q-20 -102 -80.5 -155t-163.5 -53q-42 0 -85 9t-85 38l40 71q34 -22 67 -31t71 -9q34 0 59 10t43 28.5t30 44t18 56.5l11 54q-5 -6 -17.5 -16.5t-30.5 -21t-42.5 -18t-53.5 -7.5q-76 0 -123 44.5t-47 123.5q0 67 21 124t59.5 99t92.5 65.5t121 23.5q55 0 104 -12
t76 -24zM421 388q-38 13 -96 13q-42 0 -77.5 -16.5t-61 -46t-39.5 -70t-14 -88.5t21.5 -78t77.5 -30q32 0 58 11t45 28.5t31 39.5t17 45zM319 654h96l-19 -97h-96z" />
    <glyph glyph-name="Gcommaaccent" unicode="&#x122;" horiz-adv-x="672" 
d="M357 70q54 0 93 13t75 41l25 134h-137l16 81h225l-50 -262q-49 -47 -115 -70.5t-136 -23.5q-65 0 -117.5 21.5t-90 60t-58 92t-20.5 118.5q0 80 28.5 154t79.5 130.5t121.5 90.5t153.5 34q87 0 144.5 -37.5t89.5 -101.5l-72 -46q-31 53 -70.5 76.5t-100.5 23.5t-112 -26
t-87.5 -70t-56.5 -101t-20 -119q0 -46 12.5 -85t37 -67.5t60.5 -44.5t82 -16zM300 -56h103l-109 -150h-77z" />
    <glyph glyph-name="gcommaaccent" unicode="&#x123;" horiz-adv-x="530" 
d="M432 -4q-20 -102 -80.5 -155t-163.5 -53q-42 0 -85 9t-85 38l40 71q34 -22 67 -31t71 -9q34 0 59 10t43 28.5t30 44t18 56.5l11 54q-5 -6 -17.5 -16.5t-30.5 -21t-42.5 -18t-53.5 -7.5q-76 0 -123 44.5t-47 123.5q0 67 21 124t59.5 99t92.5 65.5t121 23.5q55 0 104 -12
t76 -24zM421 388q-38 13 -96 13q-42 0 -77.5 -16.5t-61 -46t-39.5 -70t-14 -88.5t21.5 -78t77.5 -30q32 0 58 11t45 28.5t31 39.5t17 45zM389 541h-95l98 136h71z" />
    <glyph glyph-name="Hcircumflex" unicode="&#x124;" horiz-adv-x="681" 
d="M167 667h92l-54 -280h351l54 280h92l-129 -667h-92l58 303h-351l-58 -303h-92zM425 870h84l76 -150h-78l-51 92l-88 -92h-83z" />
    <glyph glyph-name="hcircumflex" unicode="&#x125;" horiz-adv-x="521" 
d="M110 0h-86l129 667h84l-53 -272q38 42 77.5 61.5t92.5 19.5q60 0 97 -38t37 -102q0 -11 -1 -26t-4 -31l-54 -279h-86l52 272q5 25 5 42q0 40 -18 62t-59 22q-32 0 -60.5 -14t-50.5 -38.5t-37.5 -56.5t-22.5 -68zM301 870h84l76 -150h-78l-51 92l-88 -92h-83z" />
    <glyph glyph-name="Hbar" unicode="&#x126;" horiz-adv-x="681" 
d="M82 561h64l21 106h92l-21 -106h351l21 106h92l-21 -106h76l-14 -68h-75l-95 -493h-92l58 303h-351l-58 -303h-92l95 493h-65zM556 387l20 106h-351l-20 -106h351z" />
    <glyph glyph-name="hbar" unicode="&#x127;" horiz-adv-x="521" 
d="M74 592h64l15 75h84l-15 -75h181l-12 -62h-181l-28 -147q38 42 77.5 61.5t92.5 19.5q60 0 97 -38t37 -102q0 -11 -1 -26t-4 -31l-52 -267h-86l50 260q5 25 5 42q0 40 -18 62t-59 22q-32 0 -60.5 -14t-50.5 -38.5t-37.5 -56.5t-22.5 -68l-40 -209h-86l102 530h-64z" />
    <glyph glyph-name="Itilde" unicode="&#x128;" horiz-adv-x="238" 
d="M167 667h92l-129 -667h-92zM291 733q-22 0 -37.5 7t-29.5 16t-28 16t-32 7q-27 0 -45.5 -10t-38.5 -26l-33 54q22 20 53 39t72 19q22 0 37.5 -7t29.5 -16t28 -16t32 -7q29 0 47 10.5t37 25.5l33 -54q-22 -20 -53 -39t-72 -19z" />
    <glyph glyph-name="itilde" unicode="&#x129;" horiz-adv-x="213" 
d="M118 465h87l-90 -465h-87zM225 545q-21 0 -35.5 7t-27.5 15t-26.5 15t-30.5 7q-25 0 -42.5 -10t-36.5 -25l-31 51q20 19 50 36.5t68 17.5q21 0 35.5 -7t27.5 -15t26.5 -15t30.5 -7q25 0 43.5 10.5t35.5 24.5l31 -51q-20 -19 -50 -36.5t-68 -17.5z" />
    <glyph glyph-name="Imacron" unicode="&#x12a;" horiz-adv-x="238" 
d="M167 667h92l-129 -667h-92zM84 832h303l-14 -75h-303z" />
    <glyph glyph-name="imacron" unicode="&#x12b;" horiz-adv-x="213" 
d="M118 465h87l-90 -465h-87zM66 637h240l-14 -72h-240z" />
    <glyph glyph-name="Ibreve" unicode="&#x12c;" horiz-adv-x="238" 
d="M167 667h92l-129 -667h-92zM169 854q-1 -4 -1 -7.5v-6.5q0 -24 13.5 -38.5t42.5 -14.5q36 0 56.5 20t27.5 47h74q-5 -25 -18 -48.5t-33.5 -42t-48.5 -30t-63 -11.5q-62 0 -92.5 30t-30.5 77q0 6 0.5 12t1.5 13h71z" />
    <glyph glyph-name="ibreve" unicode="&#x12d;" horiz-adv-x="213" 
d="M118 465h87l-90 -465h-87zM128 669q-1 -4 -1 -7.5v-6.5q0 -53 53 -53q34 0 53 20.5t26 46.5h69q-5 -24 -17 -47t-31.5 -41t-45.5 -29t-59 -11q-57 0 -86 29t-29 74v12t2 13h66z" />
    <glyph glyph-name="Iogonek" unicode="&#x12e;" horiz-adv-x="238" 
d="M167 667h92l-129 -667q-30 -26 -53.5 -53.5t-23.5 -47.5q0 -11 5.5 -18t18.5 -7q18 0 32.5 5.5t25.5 12.5l21 -58q-26 -17 -54.5 -26t-56.5 -9q-37 0 -59 17t-22 50q0 35 25 67t66 67h-17z" />
    <glyph glyph-name="iogonek" unicode="&#x12f;" horiz-adv-x="213" 
d="M118 465h87l-90 -465q-30 -26 -53.5 -53.5t-23.5 -47.5q0 -11 5.5 -17.5t18.5 -6.5q18 0 33 6t26 13l21 -57q-52 -32 -107 -32q-36 0 -57.5 16.5t-21.5 48.5q0 34 24.5 64.5t64.5 65.5h-17zM146 649h97l-20 -101h-97z" />
    <glyph glyph-name="Idotaccent" unicode="&#x130;" horiz-adv-x="238" 
d="M167 667h92l-129 -667h-92zM192 847h103l-20 -103h-103z" />
    <glyph glyph-name="dotlessi" unicode="&#x131;" horiz-adv-x="213" 
d="M118 465h87l-90 -465h-87z" />
    <glyph glyph-name="i.locl" horiz-adv-x="213" 
d="M146 649h97l-20 -101h-97zM118 465h87l-90 -465h-87z" />
    <glyph glyph-name="IJ" unicode="&#x132;" horiz-adv-x="712" 
d="M167 667h92l-129 -667h-92zM292 130q32 -35 61.5 -48.5t64.5 -13.5q25 0 46.5 5.5t39 20t30 40t20.5 64.5l91 469h92l-94 -487q-11 -55 -32 -92.5t-50 -61t-64.5 -33.5t-74.5 -10q-60 0 -108 21.5t-80 64.5z" />
    <glyph glyph-name="ij" unicode="&#x133;" horiz-adv-x="426" 
d="M146 649h97l-20 -101h-97zM118 465h87l-90 -465h-87zM100 -101q17 -11 29 -16.5t30 -5.5q13 0 25 4.5t22 19t19 40.5t17 68l89 456h87l-95 -486q-8 -38 -18.5 -70.5t-28.5 -56.5t-44.5 -38t-65.5 -14q-29 0 -55 8.5t-46 25.5zM359 649h97l-20 -101h-97z" />
    <glyph glyph-name="Jcircumflex" unicode="&#x134;" horiz-adv-x="474" 
d="M54 130q32 -35 61.5 -48.5t64.5 -13.5q25 0 46.5 5.5t39 20t30 40t20.5 64.5l91 469h92l-94 -487q-11 -55 -32 -92.5t-50 -61t-64.5 -33.5t-74.5 -10q-60 0 -108 21.5t-80 64.5zM442 870h84l76 -150h-78l-51 92l-88 -92h-83z" />
    <glyph glyph-name="jcircumflex" unicode="&#x135;" horiz-adv-x="213" 
d="M-113 -101q17 -11 29 -16.5t30 -5.5q13 0 25 4.5t22 19t19 40.5t17 68l89 456h87l-95 -486q-8 -38 -18.5 -70.5t-28.5 -56.5t-44.5 -38t-65.5 -14q-29 0 -55 8.5t-46 25.5zM171 676h81l68 -137h-79l-38 83l-76 -83h-79z" />
    <glyph glyph-name="Kcommaaccent" unicode="&#x136;" horiz-adv-x="579" 
d="M167 667h91l-59 -303l327 303h110l-292 -276l185 -391h-103l-154 330l-96 -84l-47 -246h-91zM214 -56h103l-109 -150h-77z" />
    <glyph glyph-name="kcommaaccent" unicode="&#x137;" horiz-adv-x="470" 
d="M154 667h86l-76 -393l224 191h105l-207 -179l135 -286h-93l-109 233l-75 -63l-33 -170h-86zM159 -56h95l-101 -141h-71z" />
    <glyph glyph-name="kgreenlandic" unicode="&#x138;" horiz-adv-x="476" 
d="M115 465h85l-38 -196l233 196h104l-216 -182l148 -283h-96l-119 226l-75 -64l-31 -162h-85z" />
    <glyph glyph-name="Lacute" unicode="&#x139;" horiz-adv-x="526" 
d="M167 667h92l-113 -584h333l-16 -83h-425zM274 870h110l-124 -150h-78z" />
    <glyph glyph-name="lacute" unicode="&#x13a;" horiz-adv-x="205" 
d="M154 667h86l-129 -667h-86zM252 870h110l-124 -150h-78z" />
    <glyph glyph-name="Lcommaaccent" unicode="&#x13b;" horiz-adv-x="526" 
d="M167 667h92l-113 -584h333l-16 -83h-425zM209 -56h103l-109 -150h-77z" />
    <glyph glyph-name="lcommaaccent" unicode="&#x13c;" horiz-adv-x="205" 
d="M154 667h86l-129 -667h-86zM13 -56h95l-101 -141h-71z" />
    <glyph glyph-name="Lcaron" unicode="&#x13d;" horiz-adv-x="526" 
d="M374 667h85l-59 -180h-60zM167 667h92l-113 -584h333l-16 -83h-425z" />
    <glyph glyph-name="lcaron" unicode="&#x13e;" horiz-adv-x="275" 
d="M154 667h86l-129 -667h-86zM301 667h82l-57 -173h-58z" />
    <glyph glyph-name="Ldot" unicode="&#x13f;" horiz-adv-x="526" 
d="M167 667h92l-113 -584h333l-16 -83h-425zM368 413h103l-20 -103h-103z" />
    <glyph glyph-name="ldot" unicode="&#x140;" horiz-adv-x="333" 
d="M154 667h86l-129 -667h-86zM262 397h96l-19 -97h-96z" />
    <glyph glyph-name="Lslash" unicode="&#x141;" horiz-adv-x="526" 
d="M24 300l81 48l62 319h92l-50 -258l163 96l-17 -85l-163 -96l-46 -241h333l-16 -83h-425l51 263l-82 -48z" />
    <glyph glyph-name="lslash" unicode="&#x142;" horiz-adv-x="245" 
d="M44 324l72 42l58 301h86l-49 -252l71 41l-15 -78l-71 -42l-65 -336h-86l55 287l-71 -41z" />
    <glyph glyph-name="Nacute" unicode="&#x143;" horiz-adv-x="679" 
d="M167 667h93l247 -528l103 528h90l-129 -667h-92l-248 529l-103 -529h-90zM486 870h110l-124 -150h-78z" />
    <glyph glyph-name="nacute" unicode="&#x144;" horiz-adv-x="522" 
d="M95 364l10.5 53.5t8.5 47.5h82l-11 -70q38 42 77.5 61.5t92.5 19.5q60 0 97 -38t37 -102q0 -11 -1 -26t-4 -31l-54 -279h-86l52 272q5 25 5 42q0 40 -18 62t-59 22q-32 0 -60.5 -14.5t-50.5 -38.5t-37.5 -56.5t-22.5 -68.5l-42 -220h-86zM368 677h95l-98 -136h-71z" />
    <glyph glyph-name="Ncommaaccent" unicode="&#x145;" horiz-adv-x="679" 
d="M167 667h93l247 -528l103 528h90l-129 -667h-92l-248 529l-103 -529h-90zM253 -56h103l-109 -150h-77z" />
    <glyph glyph-name="ncommaaccent" unicode="&#x146;" horiz-adv-x="522" 
d="M95 364l10.5 53.5t8.5 47.5h82l-11 -70q38 42 77.5 61.5t92.5 19.5q60 0 97 -38t37 -102q0 -11 -1 -26t-4 -31l-54 -279h-86l52 272q5 25 5 42q0 40 -18 62t-59 22q-32 0 -60.5 -14.5t-50.5 -38.5t-37.5 -56.5t-22.5 -68.5l-42 -220h-86zM180 -56h95l-101 -141h-71z" />
    <glyph glyph-name="Ncaron" unicode="&#x147;" horiz-adv-x="679" 
d="M167 667h93l247 -528l103 528h90l-129 -667h-92l-248 529l-103 -529h-90zM472 720h-84l-76 150h76l51 -92l88 92h85z" />
    <glyph glyph-name="ncaron" unicode="&#x148;" horiz-adv-x="522" 
d="M95 364l10.5 53.5t8.5 47.5h82l-11 -70q38 42 77.5 61.5t92.5 19.5q60 0 97 -38t37 -102q0 -11 -1 -26t-4 -31l-54 -279h-86l52 272q5 25 5 42q0 40 -18 62t-59 22q-32 0 -60.5 -14.5t-50.5 -38.5t-37.5 -56.5t-22.5 -68.5l-42 -220h-86zM381 539h-81l-68 137h79l38 -83
l76 83h79z" />
    <glyph glyph-name="napostrophe" unicode="&#x149;" horiz-adv-x="522" 
d="M95 364l10.5 53.5t8.5 47.5h82l-11 -70q38 42 77.5 61.5t92.5 19.5q60 0 97 -38t37 -102q0 -11 -1 -26t-4 -31l-54 -279h-86l52 272q5 25 5 42q0 40 -18 62t-59 22q-32 0 -60.5 -14.5t-50.5 -38.5t-37.5 -56.5t-22.5 -68.5l-42 -220h-86zM120 676h88l-58 -136h-65z" />
    <glyph glyph-name="Eng" unicode="&#x14a;" horiz-adv-x="679" 
d="M167 667h93l247 -528l103 528h90l-132 -680q-8 -40 -20 -74t-31.5 -59t-49.5 -39.5t-73 -14.5q-40 0 -65.5 11t-41.5 25l37 69q11 -9 28.5 -16.5t37.5 -7.5q14 0 27 3.5t24.5 14.5t21 32t15.5 56l2 11l-249 531l-103 -529h-90z" />
    <glyph glyph-name="eng" unicode="&#x14b;" horiz-adv-x="522" 
d="M426 -21q-7 -38 -17.5 -70.5t-28.5 -56.5t-44.5 -38t-65.5 -14q-29 0 -55 8.5t-46 25.5l35 65q17 -11 29 -16.5t30 -5.5q13 0 25 4.5t22 19t19 40.5t17 68l50 263q5 25 5 42q0 40 -18 62t-59 22q-32 0 -60.5 -14.5t-50.5 -38.5t-37.5 -56.5t-22.5 -68.5l-42 -220h-86
l70 364l10.5 53.5t8.5 47.5h82l-11 -70q38 42 77.5 61.5t92.5 19.5q60 0 97 -38t37 -102q0 -11 -1 -26t-4 -31z" />
    <glyph glyph-name="Omacron" unicode="&#x14c;" horiz-adv-x="743" 
d="M165 281q0 -45 12.5 -83.5t37 -67t61.5 -44.5t85 -16q61 0 111.5 27.5t86.5 71.5t55.5 100t19.5 113q0 45 -11.5 84.5t-35 69t-60 46.5t-86.5 17q-65 0 -116.5 -28t-87 -73t-54 -102t-18.5 -115zM448 684q60 0 112 -19.5t90 -56t60 -88.5t22 -117q0 -82 -27 -158
t-76 -134t-118 -93t-152 -35q-66 0 -119.5 21t-92 58.5t-59.5 89t-21 112.5q0 84 27.5 160t77.5 134t120 92t156 34zM316 832h303l-14 -75h-303z" />
    <glyph glyph-name="omacron" unicode="&#x14d;" horiz-adv-x="549" 
d="M318 480q46 0 83 -14t63.5 -40.5t41 -64t14.5 -83.5q0 -61 -20.5 -114.5t-56.5 -93t-86 -62t-110 -22.5q-45 0 -81.5 14.5t-63 41t-41 63.5t-14.5 82q0 59 21 112.5t58 93.5t86 63.5t106 23.5zM308 404q-32 0 -63 -15.5t-55.5 -42.5t-39.5 -64.5t-15 -80.5q0 -61 29 -100
t91 -39q33 0 64.5 15t56.5 41.5t40.5 64t15.5 82.5q0 65 -30 102t-94 37zM223 637h240l-14 -72h-240z" />
    <glyph glyph-name="Obreve" unicode="&#x14e;" horiz-adv-x="743" 
d="M165 281q0 -45 12.5 -83.5t37 -67t61.5 -44.5t85 -16q61 0 111.5 27.5t86.5 71.5t55.5 100t19.5 113q0 45 -11.5 84.5t-35 69t-60 46.5t-86.5 17q-65 0 -116.5 -28t-87 -73t-54 -102t-18.5 -115zM448 684q60 0 112 -19.5t90 -56t60 -88.5t22 -117q0 -82 -27 -158
t-76 -134t-118 -93t-152 -35q-66 0 -119.5 21t-92 58.5t-59.5 89t-21 112.5q0 84 27.5 160t77.5 134t120 92t156 34zM424 854q-1 -4 -1 -7.5v-6.5q0 -24 13.5 -38.5t42.5 -14.5q36 0 56.5 20t27.5 47h74q-5 -25 -18 -48.5t-33.5 -42t-48.5 -30t-63 -11.5q-62 0 -92.5 30
t-30.5 77q0 6 0.5 12t1.5 13h71z" />
    <glyph glyph-name="obreve" unicode="&#x14f;" horiz-adv-x="549" 
d="M318 480q46 0 83 -14t63.5 -40.5t41 -64t14.5 -83.5q0 -61 -20.5 -114.5t-56.5 -93t-86 -62t-110 -22.5q-45 0 -81.5 14.5t-63 41t-41 63.5t-14.5 82q0 59 21 112.5t58 93.5t86 63.5t106 23.5zM308 404q-32 0 -63 -15.5t-55.5 -42.5t-39.5 -64.5t-15 -80.5q0 -61 29 -100
t91 -39q33 0 64.5 15t56.5 41.5t40.5 64t15.5 82.5q0 65 -30 102t-94 37zM281 669q-1 -4 -1 -7.5v-6.5q0 -53 53 -53q34 0 53 20.5t26 46.5h69q-5 -24 -17 -47t-31.5 -41t-45.5 -29t-59 -11q-57 0 -86 29t-29 74v12t2 13h66z" />
    <glyph glyph-name="Ohungarumlaut" unicode="&#x150;" horiz-adv-x="743" 
d="M165 281q0 -45 12.5 -83.5t37 -67t61.5 -44.5t85 -16q61 0 111.5 27.5t86.5 71.5t55.5 100t19.5 113q0 45 -11.5 84.5t-35 69t-60 46.5t-86.5 17q-65 0 -116.5 -28t-87 -73t-54 -102t-18.5 -115zM448 684q60 0 112 -19.5t90 -56t60 -88.5t22 -117q0 -82 -27 -158
t-76 -134t-118 -93t-152 -35q-66 0 -119.5 21t-92 58.5t-59.5 89t-21 112.5q0 84 27.5 160t77.5 134t120 92t156 34zM418 870h107l-126 -150h-73zM589 870h107l-126 -150h-73z" />
    <glyph glyph-name="ohungarumlaut" unicode="&#x151;" horiz-adv-x="549" 
d="M318 480q46 0 83 -14t63.5 -40.5t41 -64t14.5 -83.5q0 -61 -20.5 -114.5t-56.5 -93t-86 -62t-110 -22.5q-45 0 -81.5 14.5t-63 41t-41 63.5t-14.5 82q0 59 21 112.5t58 93.5t86 63.5t106 23.5zM308 404q-32 0 -63 -15.5t-55.5 -42.5t-39.5 -64.5t-15 -80.5q0 -61 29 -100
t91 -39q33 0 64.5 15t56.5 41.5t40.5 64t15.5 82.5q0 65 -30 102t-94 37zM297 677h91l-98 -136h-67zM442 677h91l-98 -136h-67z" />
    <glyph glyph-name="Racute" unicode="&#x154;" horiz-adv-x="560" 
d="M179 273l-52 -273h-89l129 667h199q53 0 90 -15t60 -38.5t33.5 -53t10.5 -58.5q0 -46 -12 -81.5t-33.5 -61.5t-51 -44t-63.5 -28l91 -287h-98l-81 273h-133zM240 588l-46 -235h115q72 0 113.5 32t41.5 107q0 45 -28.5 70.5t-82.5 25.5h-113zM390 870h110l-124 -150h-78z
" />
    <glyph glyph-name="racute" unicode="&#x155;" horiz-adv-x="349" 
d="M96 370q6 29 10 50.5l8 44.5h82l-12 -74q10 11 24.5 25t33.5 26.5t42.5 21t53.5 8.5q17 0 30 -2.5t24 -6.5l-32 -84q-14 5 -23 6.5t-26 1.5q-29 0 -54.5 -12t-46 -32.5t-34 -47t-19.5 -55.5l-46 -240h-86zM282 677h95l-98 -136h-71z" />
    <glyph glyph-name="Rcommaaccent" unicode="&#x156;" horiz-adv-x="560" 
d="M179 273l-52 -273h-89l129 667h199q53 0 90 -15t60 -38.5t33.5 -53t10.5 -58.5q0 -46 -12 -81.5t-33.5 -61.5t-51 -44t-63.5 -28l91 -287h-98l-81 273h-133zM240 588l-46 -235h115q72 0 113.5 32t41.5 107q0 45 -28.5 70.5t-82.5 25.5h-113zM201 -56h103l-109 -150h-77z
" />
    <glyph glyph-name="rcommaaccent" unicode="&#x157;" horiz-adv-x="349" 
d="M96 370q6 29 10 50.5l8 44.5h82l-12 -74q10 11 24.5 25t33.5 26.5t42.5 21t53.5 8.5q17 0 30 -2.5t24 -6.5l-32 -84q-14 5 -23 6.5t-26 1.5q-29 0 -54.5 -12t-46 -32.5t-34 -47t-19.5 -55.5l-46 -240h-86zM14 -56h95l-101 -141h-71z" />
    <glyph glyph-name="Rcaron" unicode="&#x158;" horiz-adv-x="560" 
d="M179 273l-52 -273h-89l129 667h199q53 0 90 -15t60 -38.5t33.5 -53t10.5 -58.5q0 -46 -12 -81.5t-33.5 -61.5t-51 -44t-63.5 -28l91 -287h-98l-81 273h-133zM240 588l-46 -235h115q72 0 113.5 32t41.5 107q0 45 -28.5 70.5t-82.5 25.5h-113zM391 720h-84l-76 150h76
l51 -92l88 92h85z" />
    <glyph glyph-name="rcaron" unicode="&#x159;" horiz-adv-x="349" 
d="M96 370q6 29 10 50.5l8 44.5h82l-12 -74q10 11 24.5 25t33.5 26.5t42.5 21t53.5 8.5q17 0 30 -2.5t24 -6.5l-32 -84q-14 5 -23 6.5t-26 1.5q-29 0 -54.5 -12t-46 -32.5t-34 -47t-19.5 -55.5l-46 -240h-86zM286 539h-81l-68 137h79l38 -83l76 83h79z" />
    <glyph glyph-name="Sacute" unicode="&#x15a;" horiz-adv-x="559" 
d="M85 153q42 -46 83 -65.5t98 -19.5q61 0 102 32t41 89q0 23 -7 39.5t-22 29.5t-38 24t-54 24q-34 14 -64 31t-52 38t-35 48t-13 62q0 40 16.5 76.5t47 63.5t73.5 43t97 16q69 0 116 -26.5t80 -71.5l-65 -55q-23 29 -55 50t-82 21q-64 0 -98 -28.5t-34 -74.5q0 -23 7.5 -39
t22.5 -28.5t38 -23.5t53 -24q36 -15 65.5 -31.5t51.5 -38t34 -49.5t12 -66q0 -54 -19.5 -94.5t-53.5 -67.5t-78.5 -40.5t-94.5 -13.5q-29 0 -59.5 5t-61 18t-60 34.5t-55.5 54.5zM408 870h110l-124 -150h-78z" />
    <glyph glyph-name="sacute" unicode="&#x15b;" horiz-adv-x="441" 
d="M59 114q19 -15 36.5 -25t35 -16.5t36 -9t40.5 -2.5q44 0 68.5 17.5t24.5 48.5q0 14 -7 24t-18.5 18.5t-27 15.5l-32.5 14l-43 19.5t-42.5 26t-32.5 38t-13 55.5q0 36 14 62.5t38 44.5t57 26.5t72 8.5q18 0 39 -3.5t43 -12t42.5 -22t38.5 -32.5l-52 -51q-24 23 -55 35.5
t-63 12.5q-41 0 -63.5 -14.5t-22.5 -40.5q0 -13 4.5 -23t15.5 -19.5t30.5 -19t48.5 -21.5q23 -10 45 -21.5t39 -26.5t27 -34.5t10 -46.5q0 -74 -52 -114t-136 -40q-52 0 -101 15t-91 51zM307 677h95l-98 -136h-71z" />
    <glyph glyph-name="Scircumflex" unicode="&#x15c;" horiz-adv-x="559" 
d="M85 153q42 -46 83 -65.5t98 -19.5q61 0 102 32t41 89q0 23 -7 39.5t-22 29.5t-38 24t-54 24q-34 14 -64 31t-52 38t-35 48t-13 62q0 40 16.5 76.5t47 63.5t73.5 43t97 16q69 0 116 -26.5t80 -71.5l-65 -55q-23 29 -55 50t-82 21q-64 0 -98 -28.5t-34 -74.5q0 -23 7.5 -39
t22.5 -28.5t38 -23.5t53 -24q36 -15 65.5 -31.5t51.5 -38t34 -49.5t12 -66q0 -54 -19.5 -94.5t-53.5 -67.5t-78.5 -40.5t-94.5 -13.5q-29 0 -59.5 5t-61 18t-60 34.5t-55.5 54.5zM359 870h84l76 -150h-78l-51 92l-88 -92h-83z" />
    <glyph glyph-name="scircumflex" unicode="&#x15d;" horiz-adv-x="441" 
d="M59 114q19 -15 36.5 -25t35 -16.5t36 -9t40.5 -2.5q44 0 68.5 17.5t24.5 48.5q0 14 -7 24t-18.5 18.5t-27 15.5l-32.5 14l-43 19.5t-42.5 26t-32.5 38t-13 55.5q0 36 14 62.5t38 44.5t57 26.5t72 8.5q18 0 39 -3.5t43 -12t42.5 -22t38.5 -32.5l-52 -51q-24 23 -55 35.5
t-63 12.5q-41 0 -63.5 -14.5t-22.5 -40.5q0 -13 4.5 -23t15.5 -19.5t30.5 -19t48.5 -21.5q23 -10 45 -21.5t39 -26.5t27 -34.5t10 -46.5q0 -74 -52 -114t-136 -40q-52 0 -101 15t-91 51zM271 676h81l68 -137h-79l-38 83l-76 -83h-79z" />
    <glyph glyph-name="Scedilla" unicode="&#x15e;" horiz-adv-x="559" 
d="M85 153q42 -46 83 -65.5t98 -19.5q61 0 102 32t41 89q0 23 -7 39.5t-22 29.5t-38 24t-54 24q-34 14 -64 31t-52 38t-35 48t-13 62q0 40 16.5 76.5t47 63.5t73.5 43t97 16q69 0 116 -26.5t80 -71.5l-65 -55q-23 29 -55 50t-82 21q-64 0 -98 -28.5t-34 -74.5q0 -23 7.5 -39
t22.5 -28.5t38 -23.5t53 -24q36 -15 65.5 -31.5t51.5 -38t34 -49.5t12 -66q0 -54 -19.5 -94.5t-53.5 -67.5t-78.5 -40.5t-94.5 -13.5q-29 0 -59.5 5t-61 18t-60 34.5t-55.5 54.5zM116 -156q15 -6 35.5 -10t38.5 -4q29 0 47 12t18 32q0 17 -13 23.5t-35 6.5q-35 0 -72 -13
l17 55q16 5 37 9t52 4q40 0 65.5 -21.5t25.5 -53.5q0 -29 -12 -49.5t-31.5 -34t-44.5 -19.5t-52 -6q-42 0 -66 6.5t-29 8.5z" />
    <glyph glyph-name="scedilla" unicode="&#x15f;" horiz-adv-x="441" 
d="M59 114q19 -15 36.5 -25t35 -16.5t36 -9t40.5 -2.5q44 0 68.5 17.5t24.5 48.5q0 14 -7 24t-18.5 18.5t-27 15.5l-32.5 14l-43 19.5t-42.5 26t-32.5 38t-13 55.5q0 36 14 62.5t38 44.5t57 26.5t72 8.5q18 0 39 -3.5t43 -12t42.5 -22t38.5 -32.5l-52 -51q-24 23 -55 35.5
t-63 12.5q-41 0 -63.5 -14.5t-22.5 -40.5q0 -13 4.5 -23t15.5 -19.5t30.5 -19t48.5 -21.5q23 -10 45 -21.5t39 -26.5t27 -34.5t10 -46.5q0 -74 -52 -114t-136 -40q-52 0 -101 15t-91 51zM65 -156q15 -6 33.5 -10t36.5 -4q33 0 50 12t17 32q0 17 -12 23.5t-38 6.5
q-17 0 -34 -3.5t-34 -9.5l17 55q16 5 35 9t50 4q40 0 64 -21.5t24 -53.5q0 -29 -11 -49.5t-29.5 -34t-43.5 -19.5t-53 -6q-42 0 -64 6.5t-27 8.5z" />
    <glyph glyph-name="uni0162" unicode="&#x162;" horiz-adv-x="596" 
d="M330 585h-229l16 82h550l-16 -82h-228l-113 -585h-93zM134 -156q15 -6 35.5 -10t38.5 -4q29 0 47 12t18 32q0 17 -13 23.5t-35 6.5q-35 0 -72 -13l17 55q16 5 37 9t52 4q40 0 65.5 -21.5t25.5 -53.5q0 -29 -12 -49.5t-31.5 -34t-44.5 -19.5t-52 -6q-42 0 -66 6.5t-29 8.5
z" />
    <glyph glyph-name="uni0163" unicode="&#x163;" horiz-adv-x="369" 
d="M138 393h-80l14 72h81l29 152h86l-29 -152h131l-14 -72h-132l-45 -237q-4 -20 -4 -39q0 -55 47 -55q20 0 38.5 9t32.5 23l42 -52q-28 -26 -60 -40.5t-64 -14.5q-60 0 -92.5 27t-32.5 86q0 19 5 47zM58 -156q15 -6 33.5 -10t36.5 -4q33 0 50 12t17 32q0 17 -12 23.5
t-38 6.5q-17 0 -34 -3.5t-34 -9.5l17 55q16 5 35 9t50 4q40 0 64 -21.5t24 -53.5q0 -29 -11 -49.5t-29.5 -34t-43.5 -19.5t-53 -6q-42 0 -64 6.5t-27 8.5z" />
    <glyph glyph-name="Tcaron" unicode="&#x164;" horiz-adv-x="596" 
d="M330 585h-229l16 82h550l-16 -82h-228l-113 -585h-93zM441 720h-84l-76 150h76l51 -92l88 92h85z" />
    <glyph glyph-name="tcaron" unicode="&#x165;" horiz-adv-x="369" 
d="M382 667h82l-57 -153h-58zM138 393h-80l14 72h81l29 152h86l-29 -152h131l-14 -72h-132l-45 -237q-4 -20 -4 -39q0 -55 47 -55q20 0 38.5 9t32.5 23l42 -52q-28 -26 -60 -40.5t-64 -14.5q-60 0 -92.5 27t-32.5 86q0 19 5 47z" />
    <glyph glyph-name="Tbar" unicode="&#x166;" horiz-adv-x="596" 
d="M156 359h130l44 226h-229l16 82h550l-16 -82h-228l-44 -226h129l-15 -77h-129l-54 -282h-93l54 282h-130z" />
    <glyph glyph-name="tbar" unicode="&#x167;" horiz-adv-x="369" 
d="M116 279l22 114h-80l14 72h81l29 152h86l-29 -152h131l-14 -72h-132l-22 -114h132l-13 -68h-132l-10 -55q-4 -20 -4 -39q0 -55 47 -55q20 0 38.5 9t32.5 23l42 -52q-28 -26 -60 -40.5t-64 -14.5q-60 0 -92.5 27t-32.5 86q0 19 5 47l12 64h-80l13 68h80z" />
    <glyph glyph-name="Utilde" unicode="&#x168;" horiz-adv-x="646" 
d="M162 667h92l-76 -390q-4 -20 -6 -37.5t-2 -34.5q0 -62 31.5 -98t107.5 -36q45 0 77.5 12t55 36.5t36.5 61.5t24 86l78 400h92l-82 -423q-12 -60 -34 -108t-57 -82t-84 -52.5t-114 -18.5q-56 0 -98.5 15.5t-70.5 43.5t-42 66t-14 83q0 30 6 63zM485 733q-22 0 -37.5 7
t-29.5 16t-28 16t-32 7q-27 0 -45.5 -10t-38.5 -26l-33 54q22 20 53 39t72 19q22 0 37.5 -7t29.5 -16t28 -16t32 -7q29 0 47 10.5t37 25.5l33 -54q-22 -20 -53 -39t-72 -19z" />
    <glyph glyph-name="utilde" unicode="&#x169;" horiz-adv-x="517" 
d="M439 101l-10.5 -53.5t-8.5 -47.5h-82l11 70q-38 -42 -77 -61.5t-92 -19.5q-60 0 -96.5 38t-36.5 102q0 11 1 26t4 31l54 279h86l-52 -272q-5 -25 -5 -42q0 -40 17.5 -62t58.5 -22q32 0 60 14.5t50.5 38.5t37.5 56.5t22 68.5l42 220h86zM374 545q-21 0 -35.5 7t-27.5 15
t-26.5 15t-30.5 7q-25 0 -42.5 -10t-36.5 -25l-31 51q20 19 50 36.5t68 17.5q21 0 35.5 -7t27.5 -15t26.5 -15t30.5 -7q25 0 43.5 10.5t35.5 24.5l31 -51q-20 -19 -50 -36.5t-68 -17.5z" />
    <glyph glyph-name="Umacron" unicode="&#x16a;" horiz-adv-x="646" 
d="M162 667h92l-76 -390q-4 -20 -6 -37.5t-2 -34.5q0 -62 31.5 -98t107.5 -36q45 0 77.5 12t55 36.5t36.5 61.5t24 86l78 400h92l-82 -423q-12 -60 -34 -108t-57 -82t-84 -52.5t-114 -18.5q-56 0 -98.5 15.5t-70.5 43.5t-42 66t-14 83q0 30 6 63zM289 832h303l-14 -75h-303z
" />
    <glyph glyph-name="umacron" unicode="&#x16b;" horiz-adv-x="517" 
d="M439 101l-10.5 -53.5t-8.5 -47.5h-82l11 70q-38 -42 -77 -61.5t-92 -19.5q-60 0 -96.5 38t-36.5 102q0 11 1 26t4 31l54 279h86l-52 -272q-5 -25 -5 -42q0 -40 17.5 -62t58.5 -22q32 0 60 14.5t50.5 38.5t37.5 56.5t22 68.5l42 220h86zM213 637h240l-14 -72h-240z" />
    <glyph glyph-name="Ubreve" unicode="&#x16c;" horiz-adv-x="646" 
d="M162 667h92l-76 -390q-4 -20 -6 -37.5t-2 -34.5q0 -62 31.5 -98t107.5 -36q45 0 77.5 12t55 36.5t36.5 61.5t24 86l78 400h92l-82 -423q-12 -60 -34 -108t-57 -82t-84 -52.5t-114 -18.5q-56 0 -98.5 15.5t-70.5 43.5t-42 66t-14 83q0 30 6 63zM365 854q-1 -4 -1 -7.5
v-6.5q0 -24 13.5 -38.5t42.5 -14.5q36 0 56.5 20t27.5 47h74q-5 -25 -18 -48.5t-33.5 -42t-48.5 -30t-63 -11.5q-62 0 -92.5 30t-30.5 77q0 6 0.5 12t1.5 13h71z" />
    <glyph glyph-name="ubreve" unicode="&#x16d;" horiz-adv-x="517" 
d="M439 101l-10.5 -53.5t-8.5 -47.5h-82l11 70q-38 -42 -77 -61.5t-92 -19.5q-60 0 -96.5 38t-36.5 102q0 11 1 26t4 31l54 279h86l-52 -272q-5 -25 -5 -42q0 -40 17.5 -62t58.5 -22q32 0 60 14.5t50.5 38.5t37.5 56.5t22 68.5l42 220h86zM266 669q-1 -4 -1 -7.5v-6.5
q0 -53 53 -53q34 0 53 20.5t26 46.5h69q-5 -24 -17 -47t-31.5 -41t-45.5 -29t-59 -11q-57 0 -86 29t-29 74v12t2 13h66z" />
    <glyph glyph-name="Uring" unicode="&#x16e;" horiz-adv-x="646" 
d="M162 667h92l-76 -390q-4 -20 -6 -37.5t-2 -34.5q0 -62 31.5 -98t107.5 -36q45 0 77.5 12t55 36.5t36.5 61.5t24 86l78 400h92l-82 -423q-12 -60 -34 -108t-57 -82t-84 -52.5t-114 -18.5q-56 0 -98.5 15.5t-70.5 43.5t-42 66t-14 83q0 30 6 63zM296 798q0 26 9.5 48
t25.5 37.5t38 24.5t48 9q25 0 47.5 -8.5t38.5 -24.5t25.5 -37.5t9.5 -46.5q0 -26 -9.5 -48t-25.5 -38t-38 -25t-47 -9q-26 0 -48 9t-38.5 24.5t-26 37t-9.5 47.5zM418 739q26 0 41.5 17t15.5 44q0 26 -15.5 42t-42.5 16q-26 0 -41.5 -16.5t-15.5 -43.5q0 -26 15.5 -42.5
t42.5 -16.5z" />
    <glyph glyph-name="uring" unicode="&#x16f;" horiz-adv-x="517" 
d="M439 101l-10.5 -53.5t-8.5 -47.5h-82l11 70q-38 -42 -77 -61.5t-92 -19.5q-60 0 -96.5 38t-36.5 102q0 11 1 26t4 31l54 279h86l-52 -272q-5 -25 -5 -42q0 -40 17.5 -62t58.5 -22q32 0 60 14.5t50.5 38.5t37.5 56.5t22 68.5l42 220h86zM208 641q0 23 8.5 42.5t23 34
t34 22.5t42.5 8q22 0 42 -8t34.5 -22t23 -33.5t8.5 -42.5t-8.5 -43t-23 -34t-34 -22t-41.5 -8t-42 8t-35 22t-23.5 33.5t-8.5 42.5zM316 588q21 0 36 15t15 38t-15 37.5t-36 14.5t-35.5 -14.5t-14.5 -37.5t14.5 -38t35.5 -15z" />
    <glyph glyph-name="Uhungarumlaut" unicode="&#x170;" horiz-adv-x="646" 
d="M162 667h92l-76 -390q-4 -20 -6 -37.5t-2 -34.5q0 -62 31.5 -98t107.5 -36q45 0 77.5 12t55 36.5t36.5 61.5t24 86l78 400h92l-82 -423q-12 -60 -34 -108t-57 -82t-84 -52.5t-114 -18.5q-56 0 -98.5 15.5t-70.5 43.5t-42 66t-14 83q0 30 6 63zM385 870h107l-126 -150h-73
zM556 870h107l-126 -150h-73z" />
    <glyph glyph-name="uhungarumlaut" unicode="&#x171;" horiz-adv-x="517" 
d="M439 101l-10.5 -53.5t-8.5 -47.5h-82l11 70q-38 -42 -77 -61.5t-92 -19.5q-60 0 -96.5 38t-36.5 102q0 11 1 26t4 31l54 279h86l-52 -272q-5 -25 -5 -42q0 -40 17.5 -62t58.5 -22q32 0 60 14.5t50.5 38.5t37.5 56.5t22 68.5l42 220h86zM274 677h91l-98 -136h-67zM419 677
h91l-98 -136h-67z" />
    <glyph glyph-name="Uogonek" unicode="&#x172;" horiz-adv-x="646" 
d="M162 667h92l-76 -390q-4 -20 -6 -37.5t-2 -34.5q0 -62 31.5 -98t107.5 -36q45 0 77.5 12t55 36.5t36.5 61.5t24 86l78 400h92l-82 -423q-14 -72 -42.5 -125.5t-76.5 -87.5l-41.5 -28t-45 -33t-36.5 -35t-15 -36q0 -11 5.5 -18t18.5 -7q18 0 32.5 5.5t25.5 12.5l21 -58
q-26 -17 -54.5 -26t-56.5 -9q-37 0 -59 17t-22 50q0 31 19.5 59t52.5 58h-15q-56 0 -98.5 15.5t-70.5 43.5t-42 66t-14 83q0 30 6 63z" />
    <glyph glyph-name="uogonek" unicode="&#x173;" horiz-adv-x="517" 
d="M338 0l11 70q-38 -42 -77 -61.5t-92 -19.5q-60 0 -96.5 38t-36.5 102q0 11 1 26t4 31l54 279h86l-52 -272q-5 -25 -5 -42q0 -40 17.5 -62t58.5 -22q32 0 60 14.5t50.5 38.5t37.5 56.5t22 68.5l42 220h86l-70 -364l-10.5 -53.5t-8.5 -47.5q-30 -26 -53.5 -53.5
t-23.5 -47.5q0 -11 5.5 -17.5t18.5 -6.5q18 0 33 6t26 13l21 -57q-52 -32 -107 -32q-36 0 -57.5 16.5t-21.5 48.5q0 34 24.5 64.5t64.5 65.5h-12z" />
    <glyph glyph-name="Wcircumflex" unicode="&#x174;" horiz-adv-x="843" 
d="M106 667h97l23 -538l235 518h92l38 -515l224 535h100l-299 -667h-98l-41 493l-230 -493h-97zM499 870h84l76 -150h-78l-51 92l-88 -92h-83z" />
    <glyph glyph-name="wcircumflex" unicode="&#x175;" horiz-adv-x="693" 
d="M56 465h92l31 -353l176 353h74l37 -356l165 356h96l-238 -465h-86l-40 323l-165 -323h-82zM379 676h81l68 -137h-79l-38 83l-76 -83h-79z" />
    <glyph glyph-name="Ycircumflex" unicode="&#x176;" horiz-adv-x="554" 
d="M248 297l-149 370h97l111 -287l223 287h104l-293 -369l-57 -298h-93zM355 870h84l76 -150h-78l-51 92l-88 -92h-83z" />
    <glyph glyph-name="ycircumflex" unicode="&#x177;" horiz-adv-x="482" 
d="M-15 -119q11 -8 23.5 -14t32.5 -6q15 0 27 6t24 20t25.5 36l31.5 54l17 30l-109 458h96l75 -351l195 351h97l-302 -517q-22 -37 -41.5 -66.5t-39.5 -50.5t-42.5 -32.5t-49.5 -11.5t-50 6.5t-43 25.5zM276 676h81l68 -137h-79l-38 83l-76 -83h-79z" />
    <glyph glyph-name="Zacute" unicode="&#x179;" horiz-adv-x="616" 
d="M27 84l490 500h-374l16 83h492l-16 -85l-490 -499h399l-16 -83h-517zM440 870h110l-124 -150h-78z" />
    <glyph glyph-name="zacute" unicode="&#x17a;" horiz-adv-x="446" 
d="M20 71l314 322h-242l14 72h352l-14 -72l-319 -321h260l-14 -72h-364zM311 677h95l-98 -136h-71z" />
    <glyph glyph-name="Zdotaccent" unicode="&#x17b;" horiz-adv-x="616" 
d="M27 84l490 500h-374l16 83h492l-16 -85l-490 -499h399l-16 -83h-517zM380 847h103l-20 -103h-103z" />
    <glyph glyph-name="zdotaccent" unicode="&#x17c;" horiz-adv-x="446" 
d="M20 71l314 322h-242l14 72h352l-14 -72l-319 -321h260l-14 -72h-364zM261 654h96l-19 -97h-96z" />
    <glyph glyph-name="Zcaron" unicode="&#x17d;" horiz-adv-x="616" 
d="M27 84l490 500h-374l16 83h492l-16 -85l-490 -499h399l-16 -83h-517zM445 720h-84l-76 150h76l51 -92l88 92h85z" />
    <glyph glyph-name="zcaron" unicode="&#x17e;" horiz-adv-x="446" 
d="M20 71l314 322h-242l14 72h352l-14 -72l-319 -321h260l-14 -72h-364zM323 539h-81l-68 137h79l38 -83l76 83h79z" />
    <glyph glyph-name="longs" unicode="&#x17f;" horiz-adv-x="236" 
d="M122 503q18 95 68 138t120 43q30 0 64 -12t57 -41l-53 -54q-26 29 -74 29q-39 0 -61.5 -25t-34.5 -86l-96 -495h-87z" />
    <glyph glyph-name="Scommaaccent" unicode="&#x218;" horiz-adv-x="559" 
d="M85 153q42 -46 83 -65.5t98 -19.5q61 0 102 32t41 89q0 23 -7 39.5t-22 29.5t-38 24t-54 24q-34 14 -64 31t-52 38t-35 48t-13 62q0 40 16.5 76.5t47 63.5t73.5 43t97 16q69 0 116 -26.5t80 -71.5l-65 -55q-23 29 -55 50t-82 21q-64 0 -98 -28.5t-34 -74.5q0 -23 7.5 -39
t22.5 -28.5t38 -23.5t53 -24q36 -15 65.5 -31.5t51.5 -38t34 -49.5t12 -66q0 -54 -19.5 -94.5t-53.5 -67.5t-78.5 -40.5t-94.5 -13.5q-29 0 -59.5 5t-61 18t-60 34.5t-55.5 54.5zM191 -56h103l-109 -150h-77z" />
    <glyph glyph-name="scommaaccent" unicode="&#x219;" horiz-adv-x="441" 
d="M59 114q19 -15 36.5 -25t35 -16.5t36 -9t40.5 -2.5q44 0 68.5 17.5t24.5 48.5q0 14 -7 24t-18.5 18.5t-27 15.5l-32.5 14l-43 19.5t-42.5 26t-32.5 38t-13 55.5q0 36 14 62.5t38 44.5t57 26.5t72 8.5q18 0 39 -3.5t43 -12t42.5 -22t38.5 -32.5l-52 -51q-24 23 -55 35.5
t-63 12.5q-41 0 -63.5 -14.5t-22.5 -40.5q0 -13 4.5 -23t15.5 -19.5t30.5 -19t48.5 -21.5q23 -10 45 -21.5t39 -26.5t27 -34.5t10 -46.5q0 -74 -52 -114t-136 -40q-52 0 -101 15t-91 51zM155 -56h95l-101 -141h-71z" />
    <glyph glyph-name="uni021A" unicode="&#x21a;" horiz-adv-x="596" 
d="M330 585h-229l16 82h550l-16 -82h-228l-113 -585h-93zM205 -56h103l-109 -150h-77z" />
    <glyph glyph-name="uni021B" unicode="&#x21b;" horiz-adv-x="369" 
d="M114 393h-80l14 72h81l29 152h86l-29 -152h131l-14 -72h-132l-45 -237q-4 -20 -4 -39q0 -55 47 -55q20 0 38.5 9t32.5 23l42 -52q-28 -26 -60 -40.5t-64 -14.5q-60 0 -92.5 27t-32.5 86q0 19 5 47zM130 -56h95l-101 -141h-71z" />
    <glyph glyph-name="dotlessj" unicode="&#x237;" horiz-adv-x="213" 
d="M-113 -101q17 -11 29 -16.5t30 -5.5q13 0 25 4.5t22 19t19 40.5t17 68l89 456h87l-95 -486q-8 -38 -18.5 -70.5t-28.5 -56.5t-44.5 -38t-65.5 -14q-29 0 -55 8.5t-46 25.5z" />
    <glyph glyph-name="apostrophe" unicode="&#x2bc;" horiz-adv-x="199" 
d="M174 676h88l-58 -136h-65z" />
    <glyph glyph-name="caron" unicode="&#x2c7;" horiz-adv-x="394" 
d="M315 539h-81l-68 137h79l38 -83l76 83h79z" />
    <glyph glyph-name="uni02C9" unicode="&#x2c9;" horiz-adv-x="334" 
d="M138 637h240l-14 -72h-240z" />
    <glyph glyph-name="breve" unicode="&#x2d8;" horiz-adv-x="400" 
d="M247 669q-1 -4 -1 -7.5v-6.5q0 -53 53 -53q34 0 53 20.5t26 46.5h69q-5 -24 -17 -47t-31.5 -41t-45.5 -29t-59 -11q-57 0 -86 29t-29 74v12t2 13h66z" />
    <glyph glyph-name="dotaccent" unicode="&#x2d9;" horiz-adv-x="282" 
d="M195 654h96l-19 -97h-96z" />
    <glyph glyph-name="ring" unicode="&#x2da;" horiz-adv-x="316" 
d="M137 641q0 23 8.5 42.5t23 34t34 22.5t42.5 8q22 0 42 -8t34.5 -22t23 -33.5t8.5 -42.5t-8.5 -43t-23 -34t-34 -22t-41.5 -8t-42 8t-35 22t-23.5 33.5t-8.5 42.5zM245 588q21 0 36 15t15 38t-15 37.5t-36 14.5t-35.5 -14.5t-14.5 -37.5t14.5 -38t35.5 -15z" />
    <glyph glyph-name="ogonek" unicode="&#x2db;" horiz-adv-x="305" 
d="M171 0q-30 -26 -53.5 -53.5t-23.5 -47.5q0 -11 5.5 -17.5t18.5 -6.5q18 0 33 6t26 13l21 -57q-52 -32 -107 -32q-36 0 -57.5 16.5t-21.5 48.5q0 34 24.5 64.5t64.5 65.5h70z" />
    <glyph glyph-name="hungarumlaut" unicode="&#x2dd;" horiz-adv-x="392" 
d="M200 677h91l-98 -136h-67zM345 677h91l-98 -136h-67z" />
    <glyph glyph-name="uni20B9" unicode="&#x20b9;" horiz-adv-x="545" 
d="M547 470l-23 -70h-66q-7 -33 -24 -63.5t-47 -53.5t-74 -36.5t-104 -13.5l238 -233h-116l-248 243l11 57h110q64 0 108 25.5t59 74.5h-258l13 70h250q-12 93 -131 93h-101l14 70h420l-23 -70h-135q15 -15 25.5 -39.5t14.5 -53.5h87z" />
    <glyph glyph-name="Wgrave" unicode="&#x1e80;" horiz-adv-x="843" 
d="M106 667h97l23 -538l235 518h92l38 -515l224 535h100l-299 -667h-98l-41 493l-230 -493h-97zM407 870h105l41 -150h-76z" />
    <glyph glyph-name="wgrave" unicode="&#x1e81;" horiz-adv-x="693" 
d="M56 465h92l31 -353l176 353h74l37 -356l165 356h96l-238 -465h-86l-40 323l-165 -323h-82zM313 677h93l28 -136h-69z" />
    <glyph glyph-name="Wacute" unicode="&#x1e82;" horiz-adv-x="843" 
d="M106 667h97l23 -538l235 518h92l38 -515l224 535h100l-299 -667h-98l-41 493l-230 -493h-97zM564 870h110l-124 -150h-78z" />
    <glyph glyph-name="wacute" unicode="&#x1e83;" horiz-adv-x="693" 
d="M56 465h92l31 -353l176 353h74l37 -356l165 356h96l-238 -465h-86l-40 323l-165 -323h-82zM430 677h95l-98 -136h-71z" />
    <glyph glyph-name="Wdieresis" unicode="&#x1e84;" horiz-adv-x="843" 
d="M106 667h97l23 -538l235 518h92l38 -515l224 535h100l-299 -667h-98l-41 493l-230 -493h-97zM577 844h97l-19 -98h-97zM390 844h96l-19 -98h-96z" />
    <glyph glyph-name="wdieresis" unicode="&#x1e85;" horiz-adv-x="693" 
d="M56 465h92l31 -353l176 353h74l37 -356l165 356h96l-238 -465h-86l-40 323l-165 -323h-82zM454 651h89l-18 -91h-89zM289 651h91l-18 -91h-91z" />
    <glyph glyph-name="Ygrave" unicode="&#x1ef2;" horiz-adv-x="554" 
d="M248 297l-149 370h97l111 -287l223 287h104l-293 -369l-57 -298h-93zM263 870h105l41 -150h-76z" />
    <glyph glyph-name="ygrave" unicode="&#x1ef3;" horiz-adv-x="482" 
d="M-15 -119q11 -8 23.5 -14t32.5 -6q15 0 27 6t24 20t25.5 36l31.5 54l17 30l-109 458h96l75 -351l195 351h97l-302 -517q-22 -37 -41.5 -66.5t-39.5 -50.5t-42.5 -32.5t-49.5 -11.5t-50 6.5t-43 25.5zM206 677h93l28 -136h-69z" />
    <glyph glyph-name="fraction" unicode="&#x2044;" horiz-adv-x="155" 
d="M307 630h89l-481 -630h-89z" />
    <glyph glyph-name="zerosuperior" unicode="&#x2070;" 
d="M379 511q0 -50 -15.5 -91t-41.5 -71t-59 -46.5t-67 -16.5q-32 0 -55.5 11t-39 29.5t-23 43t-7.5 51.5q0 50 15.5 91.5t41.5 71.5t58.5 46.5t67.5 16.5q32 0 55.5 -11t39 -29.5t23 -43t7.5 -52.5zM147 424q0 -75 57 -75q18 0 35.5 12t31.5 33t23 50.5t9 64.5q0 75 -57 75
q-18 0 -35.5 -12t-31.5 -33t-23 -50.5t-9 -64.5z" />
    <glyph glyph-name="onesuperior" unicode="&#xb9;" 
d="M237 555l-91 -42l-22 55l137 69h65l-66 -341h-74z" />
    <glyph glyph-name="twosuperior" unicode="&#xb2;" 
d="M67 334q6 35 33 67t86 66q28 16 45 27.5t26.5 20.5t12.5 16.5t3 15.5q0 17 -12 26.5t-30 9.5q-26 0 -46 -10t-36 -27l-44 40q20 23 54 42t83 19q54 0 82.5 -25.5t28.5 -61.5q0 -21 -5.5 -37t-17.5 -30t-32 -27.5t-48 -30.5l-60 -36.5t-44 -43.5h171l-13 -59h-244z" />
    <glyph glyph-name="threesuperior" unicode="&#xb3;" 
d="M150 477l111 100h-134l13 60h220l-12 -54l-98 -85q42 -11 59.5 -35.5t17.5 -54.5q0 -55 -41 -88.5t-110 -33.5q-42 0 -70 12.5t-48 28.5l34 51q20 -14 40.5 -23t48.5 -9q35 0 55.5 15.5t20.5 44.5q0 27 -16.5 38.5t-38.5 11.5q-9 0 -18.5 -1.5t-17.5 -4.5z" />
    <glyph glyph-name="foursuperior" unicode="&#x2074;" 
d="M79 419l211 218h73l-43 -218h41l-10 -57h-41l-13 -65h-66l13 65h-176zM254 419l28 140l-138 -140h110z" />
    <glyph glyph-name="fivesuperior" unicode="&#x2075;" 
d="M189 343q35 0 54.5 19.5t19.5 48.5q0 23 -14.5 35t-38.5 12q-17 0 -31.5 -4t-31.5 -12l-31 26l61 169h182l-13 -60h-127l-24 -71q9 2 18.5 3t16.5 1q50 0 77 -28.5t27 -67.5q0 -57 -40.5 -93.5t-109.5 -36.5q-41 0 -68 12t-47 29l33 50q20 -15 40 -23.5t47 -8.5z" />
    <glyph glyph-name="sixsuperior" unicode="&#x2076;" 
d="M327 565q-14 10 -29.5 16t-33.5 6q-42 0 -65 -25t-36 -60q14 7 32.5 12t36.5 5q49 0 78.5 -28t29.5 -69q0 -33 -11 -58.5t-30.5 -43t-45 -26t-54.5 -8.5q-30 0 -53 9.5t-38 26t-22.5 38.5t-7.5 46q0 39 10 81.5t32.5 78t58.5 58.5t89 23q26 0 50 -8.5t44 -23.5zM220 464
q-45 0 -70 -18q-3 -10 -4 -21t-1 -20q0 -23 13 -42.5t45 -19.5q27 0 48.5 16.5t21.5 54.5q0 23 -15 36.5t-38 13.5z" />
    <glyph glyph-name="sevensuperior" unicode="&#x2077;" 
d="M104 296q19 36 43 75.5l48.5 77l48 71l41.5 57.5h-174l12 60h252l-12 -63q-16 -18 -40 -51.5l-50.5 -73t-50.5 -80t-40 -73.5h-78z" />
    <glyph glyph-name="eightsuperior" unicode="&#x2078;" 
d="M273 398q0 33 -55 54q-14 -3 -28 -8.5t-25 -13.5t-18.5 -19t-7.5 -26q0 -17 13 -31t45 -14q29 0 52.5 13t23.5 45zM192 550q0 -27 43 -48q10 2 22 7t21.5 12t16 17t6.5 22q0 16 -11.5 27t-37.5 11q-22 0 -41 -10t-19 -38zM364 566q0 -29 -16 -49t-55 -40
q32 -22 39.5 -40.5t7.5 -37.5q0 -20 -8.5 -40.5t-26 -36.5t-44.5 -26t-64 -10q-35 0 -59 8.5t-38.5 21.5t-21 29.5t-6.5 32.5q0 38 28 63.5t67 42.5q-13 10 -26 26.5t-13 38.5q0 19 7.5 37t23.5 31.5t39 21.5t55 8q31 0 52.5 -7.5t34.5 -19t18.5 -26t5.5 -28.5z" />
    <glyph glyph-name="ninesuperior" unicode="&#x2079;" 
d="M102 369q14 -10 36 -16.5t40 -6.5q42 0 63.5 25t29.5 60q-14 -7 -32.5 -12t-36.5 -5q-49 0 -78.5 28t-29.5 69q0 33 11 58.5t30.5 43t45 26t54.5 8.5q32 0 55 -10.5t37.5 -27.5t21 -40t6.5 -47q0 -38 -8.5 -80t-29.5 -76.5t-56 -57t-87 -22.5q-26 0 -52.5 7t-46.5 22z
M214 469q44 0 70 18q3 10 4 21t1 20q0 23 -13 42.5t-45 19.5q-27 0 -48.5 -16.5t-21.5 -54.5q0 -23 15 -36.5t38 -13.5z" />
    <glyph glyph-name="zeroinferior" unicode="&#x2080;" 
d="M330 216q0 -50 -15.5 -91t-41.5 -71t-59 -46.5t-67 -16.5q-32 0 -55.5 11t-39 29.5t-23 43t-7.5 51.5q0 50 15.5 91.5t41.5 71.5t58.5 46.5t67.5 16.5q32 0 55.5 -11t39 -29.5t23 -43t7.5 -52.5zM98 129q0 -75 57 -75q18 0 35.5 12t31.5 33t23 50.5t9 64.5q0 75 -57 75
q-18 0 -35.5 -12t-31.5 -33t-23 -50.5t-9 -64.5z" />
    <glyph glyph-name="oneinferior" unicode="&#x2081;" 
d="M187 260l-91 -42l-22 55l137 69h65l-66 -341h-74z" />
    <glyph glyph-name="twoinferior" unicode="&#x2082;" 
d="M30 39q6 35 33 67t86 66q28 16 45 27.5t26.5 20.5t12.5 16.5t3 15.5q0 17 -12 26.5t-30 9.5q-26 0 -46 -10t-36 -27l-44 40q20 23 54 42t83 19q54 0 82.5 -25.5t28.5 -61.5q0 -21 -5.5 -37t-17.5 -30t-32 -27.5t-48 -30.5l-60 -36.5t-44 -43.5h171l-13 -59h-244z" />
    <glyph glyph-name="threeinferior" unicode="&#x2083;" 
d="M106 182l111 100h-134l13 60h220l-12 -54l-98 -85q42 -11 59.5 -35.5t17.5 -54.5q0 -55 -41 -88.5t-110 -33.5q-42 0 -70 12.5t-48 28.5l34 51q20 -14 40.5 -23t48.5 -9q35 0 55.5 15.5t20.5 44.5q0 27 -16.5 38.5t-38.5 11.5q-9 0 -18.5 -1.5t-17.5 -4.5z" />
    <glyph glyph-name="fourinferior" unicode="&#x2084;" 
d="M13 124l211 218h73l-43 -218h41l-10 -57h-41l-13 -65h-66l13 65h-176zM188 124l28 140l-138 -140h110z" />
    <glyph glyph-name="fiveinferior" unicode="&#x2085;" 
d="M142 48q35 0 54.5 19.5t19.5 48.5q0 23 -14.5 35t-38.5 12q-17 0 -31.5 -4t-31.5 -12l-31 26l61 169h182l-13 -60h-127l-24 -71q9 2 18.5 3t16.5 1q50 0 77 -28.5t27 -67.5q0 -57 -40.5 -93.5t-109.5 -36.5q-41 0 -68 12t-47 29l33 50q20 -15 40 -23.5t47 -8.5z" />
    <glyph glyph-name="sixinferior" unicode="&#x2086;" 
d="M283 270q-14 10 -29.5 16t-33.5 6q-42 0 -65 -25t-36 -60q14 7 32.5 12t36.5 5q49 0 78.5 -28t29.5 -69q0 -33 -11 -58.5t-30.5 -43t-45 -26t-54.5 -8.5q-30 0 -53 9.5t-38 26t-22.5 38.5t-7.5 46q0 39 10 81.5t32.5 78t58.5 58.5t89 23q26 0 50 -8.5t44 -23.5zM176 169
q-45 0 -70 -18q-3 -10 -4 -21t-1 -20q0 -23 13 -42.5t45 -19.5q27 0 48.5 16.5t21.5 54.5q0 23 -15 36.5t-38 13.5z" />
    <glyph glyph-name="seveninferior" unicode="&#x2087;" 
d="M59 1q19 36 43 75.5l48.5 77l48 71l41.5 57.5h-174l12 60h252l-12 -63q-16 -18 -40 -51.5l-50.5 -73t-50.5 -80t-40 -73.5h-78z" />
    <glyph glyph-name="eightinferior" unicode="&#x2088;" 
d="M229 103q0 33 -55 54q-14 -3 -28 -8.5t-25 -13.5t-18.5 -19t-7.5 -26q0 -17 13 -31t45 -14q29 0 52.5 13t23.5 45zM148 255q0 -27 43 -48q10 2 22 7t21.5 12t16 17t6.5 22q0 16 -11.5 27t-37.5 11q-22 0 -41 -10t-19 -38zM320 271q0 -29 -16 -49t-55 -40
q32 -22 39.5 -40.5t7.5 -37.5q0 -20 -8.5 -40.5t-26 -36.5t-44.5 -26t-64 -10q-35 0 -59 8.5t-38.5 21.5t-21 29.5t-6.5 32.5q0 38 28 63.5t67 42.5q-13 10 -26 26.5t-13 38.5q0 19 7.5 37t23.5 31.5t39 21.5t55 8q31 0 52.5 -7.5t34.5 -19t18.5 -26t5.5 -28.5z" />
    <glyph glyph-name="nineinferior" unicode="&#x2089;" 
d="M64 74q14 -10 36 -16.5t40 -6.5q42 0 63.5 25t29.5 60q-14 -7 -32.5 -12t-36.5 -5q-49 0 -78.5 28t-29.5 69q0 33 11 58.5t30.5 43t45 26t54.5 8.5q32 0 55 -10.5t37.5 -27.5t21 -40t6.5 -47q0 -38 -8.5 -80t-29.5 -76.5t-56 -57t-87 -22.5q-26 0 -52.5 7t-46.5 22z
M176 174q44 0 70 18q3 10 4 21t1 20q0 23 -13 42.5t-45 19.5q-27 0 -48.5 -16.5t-21.5 -54.5q0 -23 15 -36.5t38 -13.5z" />
    <glyph glyph-name="afii61289" unicode="&#x2113;" horiz-adv-x="470" 
d="M145 437q0 71 9.5 119.5t28 78t45 42.5t61.5 13q51 0 84 -37.5t33 -106.5q0 -91 -48 -172.5t-136 -163.5v-20q0 -41 6 -66.5t16.5 -39.5t25 -19.5t31.5 -5.5q32 0 61.5 16.5t45.5 39.5l40 -38q-27 -40 -65.5 -63t-90.5 -23q-70 0 -108 39.5t-38 127.5q-13 -10 -24.5 -18
l-24.5 -17q-5 11 -11.5 22l-13.5 22q19 13 37 27.5l36 30.5v212zM222 289q54 60 85.5 123.5t31.5 132.5q0 48 -16 67.5t-38 19.5q-26 0 -44.5 -33t-18.5 -109v-201z" />
    <glyph glyph-name="estimated" unicode="&#x212e;" horiz-adv-x="891" 
d="M222 138q0 -13 9 -22q48 -51 110 -79t135 -28q79 0 145 32.5t114 86.5h57q-26 -32 -60.5 -57.5t-75.5 -43.5t-87 -28t-94 -10q-83 0 -156 28.5t-127 77t-85.5 114t-31.5 140.5t31.5 140.5t85.5 114.5t127 77.5t156 28.5t156.5 -28.5t128 -77.5t86 -114.5t31.5 -140.5v-10
h-650q-5 0 -5 -4v-197zM725 358q4 0 4 7v197q0 13 -9 24q-48 48 -110 75t-134 27q-71 0 -134 -29t-110 -77q-5 -4 -7.5 -10.5t-2.5 -13.5v-193q0 -7 5 -7h498z" />
    <glyph glyph-name="onethird" unicode="&#x2153;" horiz-adv-x="892" 
d="M213 555l-91 -42l-22 55l137 69h65l-66 -341h-74zM619 630h89l-481 -630h-89zM620 182l111 100h-134l13 60h220l-12 -54l-98 -85q42 -11 59.5 -35.5t17.5 -54.5q0 -55 -41 -88.5t-110 -33.5q-42 0 -70 12.5t-48 28.5l34 51q20 -14 40.5 -23t48.5 -9q35 0 55.5 15.5
t20.5 44.5q0 27 -16.5 38.5t-38.5 11.5q-9 0 -18.5 -1.5t-17.5 -4.5z" />
    <glyph glyph-name="twothirds" unicode="&#x2154;" horiz-adv-x="892" 
d="M72 334q6 35 33 67t86 66q28 16 45 27.5t26.5 20.5t12.5 16.5t3 15.5q0 17 -12 26.5t-30 9.5q-26 0 -46 -10t-36 -27l-44 40q20 23 54 42t83 19q54 0 82.5 -25.5t28.5 -61.5q0 -21 -5.5 -37t-17.5 -30t-32 -27.5t-48 -30.5l-60 -36.5t-44 -43.5h171l-13 -59h-244z
M646 630h89l-481 -630h-89zM620 182l111 100h-134l13 60h220l-12 -54l-98 -85q42 -11 59.5 -35.5t17.5 -54.5q0 -55 -41 -88.5t-110 -33.5q-42 0 -70 12.5t-48 28.5l34 51q20 -14 40.5 -23t48.5 -9q35 0 55.5 15.5t20.5 44.5q0 27 -16.5 38.5t-38.5 11.5q-9 0 -18.5 -1.5
t-17.5 -4.5z" />
    <glyph glyph-name="oneeighth" unicode="&#x215b;" horiz-adv-x="892" 
d="M213 555l-91 -42l-22 55l137 69h65l-66 -341h-74zM629 630h89l-481 -630h-89zM743 103q0 33 -55 54q-14 -3 -28 -8.5t-25 -13.5t-18.5 -19t-7.5 -26q0 -17 13 -31t45 -14q29 0 52.5 13t23.5 45zM662 255q0 -27 43 -48q10 2 22 7t21.5 12t16 17t6.5 22q0 16 -11.5 27
t-37.5 11q-22 0 -41 -10t-19 -38zM834 271q0 -29 -16 -49t-55 -40q32 -22 39.5 -40.5t7.5 -37.5q0 -20 -8.5 -40.5t-26 -36.5t-44.5 -26t-64 -10q-35 0 -59 8.5t-38.5 21.5t-21 29.5t-6.5 32.5q0 38 28 63.5t67 42.5q-13 10 -26 26.5t-13 38.5q0 19 7.5 37t23.5 31.5
t39 21.5t55 8q31 0 52.5 -7.5t34.5 -19t18.5 -26t5.5 -28.5z" />
    <glyph glyph-name="threeeighths" unicode="&#x215c;" horiz-adv-x="892" 
d="M146 477l111 100h-134l13 60h220l-12 -54l-98 -85q42 -11 59.5 -35.5t17.5 -54.5q0 -55 -41 -88.5t-110 -33.5q-42 0 -70 12.5t-48 28.5l34 51q20 -14 40.5 -23t48.5 -9q35 0 55.5 15.5t20.5 44.5q0 27 -16.5 38.5t-38.5 11.5q-9 0 -18.5 -1.5t-17.5 -4.5zM642 630h89
l-481 -630h-89zM743 103q0 33 -55 54q-14 -3 -28 -8.5t-25 -13.5t-18.5 -19t-7.5 -26q0 -17 13 -31t45 -14q29 0 52.5 13t23.5 45zM662 255q0 -27 43 -48q10 2 22 7t21.5 12t16 17t6.5 22q0 16 -11.5 27t-37.5 11q-22 0 -41 -10t-19 -38zM834 271q0 -29 -16 -49t-55 -40
q32 -22 39.5 -40.5t7.5 -37.5q0 -20 -8.5 -40.5t-26 -36.5t-44.5 -26t-64 -10q-35 0 -59 8.5t-38.5 21.5t-21 29.5t-6.5 32.5q0 38 28 63.5t67 42.5q-13 10 -26 26.5t-13 38.5q0 19 7.5 37t23.5 31.5t39 21.5t55 8q31 0 52.5 -7.5t34.5 -19t18.5 -26t5.5 -28.5z" />
    <glyph glyph-name="fiveeighths" unicode="&#x215d;" horiz-adv-x="892" 
d="M185 343q35 0 54.5 19.5t19.5 48.5q0 23 -14.5 35t-38.5 12q-17 0 -31.5 -4t-31.5 -12l-31 26l61 169h182l-13 -60h-127l-24 -71q9 2 18.5 3t16.5 1q50 0 77 -28.5t27 -67.5q0 -57 -40.5 -93.5t-109.5 -36.5q-41 0 -68 12t-47 29l33 50q20 -15 40 -23.5t47 -8.5zM648 630
h89l-481 -630h-89zM743 103q0 33 -55 54q-14 -3 -28 -8.5t-25 -13.5t-18.5 -19t-7.5 -26q0 -17 13 -31t45 -14q29 0 52.5 13t23.5 45zM662 255q0 -27 43 -48q10 2 22 7t21.5 12t16 17t6.5 22q0 16 -11.5 27t-37.5 11q-22 0 -41 -10t-19 -38zM834 271q0 -29 -16 -49t-55 -40
q32 -22 39.5 -40.5t7.5 -37.5q0 -20 -8.5 -40.5t-26 -36.5t-44.5 -26t-64 -10q-35 0 -59 8.5t-38.5 21.5t-21 29.5t-6.5 32.5q0 38 28 63.5t67 42.5q-13 10 -26 26.5t-13 38.5q0 19 7.5 37t23.5 31.5t39 21.5t55 8q31 0 52.5 -7.5t34.5 -19t18.5 -26t5.5 -28.5z" />
    <glyph glyph-name="seveneighths" unicode="&#x215e;" horiz-adv-x="892" 
d="M100 296q19 36 43 75.5l48.5 77l48 71l41.5 57.5h-174l12 60h252l-12 -63q-16 -18 -40 -51.5l-50.5 -73t-50.5 -80t-40 -73.5h-78zM615 630h89l-481 -630h-89zM743 103q0 33 -55 54q-14 -3 -28 -8.5t-25 -13.5t-18.5 -19t-7.5 -26q0 -17 13 -31t45 -14q29 0 52.5 13
t23.5 45zM662 255q0 -27 43 -48q10 2 22 7t21.5 12t16 17t6.5 22q0 16 -11.5 27t-37.5 11q-22 0 -41 -10t-19 -38zM834 271q0 -29 -16 -49t-55 -40q32 -22 39.5 -40.5t7.5 -37.5q0 -20 -8.5 -40.5t-26 -36.5t-44.5 -26t-64 -10q-35 0 -59 8.5t-38.5 21.5t-21 29.5t-6.5 32.5
q0 38 28 63.5t67 42.5q-13 10 -26 26.5t-13 38.5q0 19 7.5 37t23.5 31.5t39 21.5t55 8q31 0 52.5 -7.5t34.5 -19t18.5 -26t5.5 -28.5z" />
    <glyph glyph-name="onefifth" unicode="&#x2155;" horiz-adv-x="892" 
d="M213 555l-91 -42l-22 55l137 69h65l-66 -341h-74zM631 630h89l-481 -630h-89zM659 48q35 0 54.5 19.5t19.5 48.5q0 23 -14.5 35t-38.5 12q-17 0 -31.5 -4t-31.5 -12l-31 26l61 169h182l-13 -60h-127l-24 -71q9 2 18.5 3t16.5 1q50 0 77 -28.5t27 -67.5q0 -57 -40.5 -93.5
t-109.5 -36.5q-41 0 -68 12t-47 29l33 50q20 -15 40 -23.5t47 -8.5z" />
    <glyph glyph-name="twofifths" unicode="&#x2156;" horiz-adv-x="892" 
d="M72 334q6 35 33 67t86 66q28 16 45 27.5t26.5 20.5t12.5 16.5t3 15.5q0 17 -12 26.5t-30 9.5q-26 0 -46 -10t-36 -27l-44 40q20 23 54 42t83 19q54 0 82.5 -25.5t28.5 -61.5q0 -21 -5.5 -37t-17.5 -30t-32 -27.5t-48 -30.5l-60 -36.5t-44 -43.5h171l-13 -59h-244z
M652 630h89l-481 -630h-89zM659 48q35 0 54.5 19.5t19.5 48.5q0 23 -14.5 35t-38.5 12q-17 0 -31.5 -4t-31.5 -12l-31 26l61 169h182l-13 -60h-127l-24 -71q9 2 18.5 3t16.5 1q50 0 77 -28.5t27 -67.5q0 -57 -40.5 -93.5t-109.5 -36.5q-41 0 -68 12t-47 29l33 50
q20 -15 40 -23.5t47 -8.5z" />
    <glyph glyph-name="threefifths" unicode="&#x2157;" horiz-adv-x="892" 
d="M146 477l111 100h-134l13 60h220l-12 -54l-98 -85q42 -11 59.5 -35.5t17.5 -54.5q0 -55 -41 -88.5t-110 -33.5q-42 0 -70 12.5t-48 28.5l34 51q20 -14 40.5 -23t48.5 -9q35 0 55.5 15.5t20.5 44.5q0 27 -16.5 38.5t-38.5 11.5q-9 0 -18.5 -1.5t-17.5 -4.5zM646 630h89
l-481 -630h-89zM659 48q35 0 54.5 19.5t19.5 48.5q0 23 -14.5 35t-38.5 12q-17 0 -31.5 -4t-31.5 -12l-31 26l61 169h182l-13 -60h-127l-24 -71q9 2 18.5 3t16.5 1q50 0 77 -28.5t27 -67.5q0 -57 -40.5 -93.5t-109.5 -36.5q-41 0 -68 12t-47 29l33 50q20 -15 40 -23.5
t47 -8.5z" />
    <glyph glyph-name="fourfifths" unicode="&#x2158;" horiz-adv-x="892" 
d="M75 419l211 218h73l-43 -218h41l-10 -57h-41l-13 -65h-66l13 65h-176zM250 419l28 140l-138 -140h110zM667 630h89l-481 -630h-89zM659 48q35 0 54.5 19.5t19.5 48.5q0 23 -14.5 35t-38.5 12q-17 0 -31.5 -4t-31.5 -12l-31 26l61 169h182l-13 -60h-127l-24 -71
q9 2 18.5 3t16.5 1q50 0 77 -28.5t27 -67.5q0 -57 -40.5 -93.5t-109.5 -36.5q-41 0 -68 12t-47 29l33 50q20 -15 40 -23.5t47 -8.5z" />
    <glyph glyph-name="onesixth" unicode="&#x2159;" horiz-adv-x="892" 
d="M213 555l-91 -42l-22 55l137 69h65l-66 -341h-74zM630 630h89l-481 -630h-89zM797 270q-14 10 -29.5 16t-33.5 6q-42 0 -65 -25t-36 -60q14 7 32.5 12t36.5 5q49 0 78.5 -28t29.5 -69q0 -33 -11 -58.5t-30.5 -43t-45 -26t-54.5 -8.5q-30 0 -53 9.5t-38 26t-22.5 38.5
t-7.5 46q0 39 10 81.5t32.5 78t58.5 58.5t89 23q26 0 50 -8.5t44 -23.5zM690 169q-45 0 -70 -18q-3 -10 -4 -21t-1 -20q0 -23 13 -42.5t45 -19.5q27 0 48.5 16.5t21.5 54.5q0 23 -15 36.5t-38 13.5z" />
    <glyph glyph-name="fivesixths" unicode="&#x215a;" horiz-adv-x="892" 
d="M185 343q35 0 54.5 19.5t19.5 48.5q0 23 -14.5 35t-38.5 12q-17 0 -31.5 -4t-31.5 -12l-31 26l61 169h182l-13 -60h-127l-24 -71q9 2 18.5 3t16.5 1q50 0 77 -28.5t27 -67.5q0 -57 -40.5 -93.5t-109.5 -36.5q-41 0 -68 12t-47 29l33 50q20 -15 40 -23.5t47 -8.5zM646 630
h89l-481 -630h-89zM797 270q-14 10 -29.5 16t-33.5 6q-42 0 -65 -25t-36 -60q14 7 32.5 12t36.5 5q49 0 78.5 -28t29.5 -69q0 -33 -11 -58.5t-30.5 -43t-45 -26t-54.5 -8.5q-30 0 -53 9.5t-38 26t-22.5 38.5t-7.5 46q0 39 10 81.5t32.5 78t58.5 58.5t89 23q26 0 50 -8.5
t44 -23.5zM690 169q-45 0 -70 -18q-3 -10 -4 -21t-1 -20q0 -23 13 -42.5t45 -19.5q27 0 48.5 16.5t21.5 54.5q0 23 -15 36.5t-38 13.5z" />
    <glyph glyph-name="oneseventh" unicode="&#xf506;" horiz-adv-x="892" 
d="M213 555l-91 -42l-22 55l137 69h65l-66 -341h-74zM616 630h89l-481 -630h-89zM574 1q19 36 43 75.5l48.5 77l48 71l41.5 57.5h-174l12 60h252l-12 -63q-16 -18 -40 -51.5l-50.5 -73t-50.5 -80t-40 -73.5h-78z" />
    <glyph glyph-name="twosevenths" unicode="&#xf507;" horiz-adv-x="892" 
d="M72 334q6 35 33 67t86 66q28 16 45 27.5t26.5 20.5t12.5 16.5t3 15.5q0 17 -12 26.5t-30 9.5q-26 0 -46 -10t-36 -27l-44 40q20 23 54 42t83 19q54 0 82.5 -25.5t28.5 -61.5q0 -21 -5.5 -37t-17.5 -30t-32 -27.5t-48 -30.5l-60 -36.5t-44 -43.5h171l-13 -59h-244z
M639 630h89l-481 -630h-89zM574 1q19 36 43 75.5l48.5 77l48 71l41.5 57.5h-174l12 60h252l-12 -63q-16 -18 -40 -51.5l-50.5 -73t-50.5 -80t-40 -73.5h-78z" />
    <glyph glyph-name="threesevenths" unicode="&#xf508;" horiz-adv-x="892" 
d="M146 477l111 100h-134l13 60h220l-12 -54l-98 -85q42 -11 59.5 -35.5t17.5 -54.5q0 -55 -41 -88.5t-110 -33.5q-42 0 -70 12.5t-48 28.5l34 51q20 -14 40.5 -23t48.5 -9q35 0 55.5 15.5t20.5 44.5q0 27 -16.5 38.5t-38.5 11.5q-9 0 -18.5 -1.5t-17.5 -4.5zM624 630h89
l-481 -630h-89zM574 1q19 36 43 75.5l48.5 77l48 71l41.5 57.5h-174l12 60h252l-12 -63q-16 -18 -40 -51.5l-50.5 -73t-50.5 -80t-40 -73.5h-78z" />
    <glyph glyph-name="foursevenths" unicode="&#xf509;" horiz-adv-x="892" 
d="M75 419l211 218h73l-43 -218h41l-10 -57h-41l-13 -65h-66l13 65h-176zM250 419l28 140l-138 -140h110zM637 630h89l-481 -630h-89zM574 1q19 36 43 75.5l48.5 77l48 71l41.5 57.5h-174l12 60h252l-12 -63q-16 -18 -40 -51.5l-50.5 -73t-50.5 -80t-40 -73.5h-78z" />
    <glyph glyph-name="fivesevenths" unicode="&#xf50a;" horiz-adv-x="892" 
d="M185 343q35 0 54.5 19.5t19.5 48.5q0 23 -14.5 35t-38.5 12q-17 0 -31.5 -4t-31.5 -12l-31 26l61 169h182l-13 -60h-127l-24 -71q9 2 18.5 3t16.5 1q50 0 77 -28.5t27 -67.5q0 -57 -40.5 -93.5t-109.5 -36.5q-41 0 -68 12t-47 29l33 50q20 -15 40 -23.5t47 -8.5zM627 630
h89l-481 -630h-89zM574 1q19 36 43 75.5l48.5 77l48 71l41.5 57.5h-174l12 60h252l-12 -63q-16 -18 -40 -51.5l-50.5 -73t-50.5 -80t-40 -73.5h-78z" />
    <glyph glyph-name="sixsevenths" unicode="&#xf50b;" horiz-adv-x="892" 
d="M323 565q-14 10 -29.5 16t-33.5 6q-42 0 -65 -25t-36 -60q14 7 32.5 12t36.5 5q49 0 78.5 -28t29.5 -69q0 -33 -11 -58.5t-30.5 -43t-45 -26t-54.5 -8.5q-30 0 -53 9.5t-38 26t-22.5 38.5t-7.5 46q0 39 10 81.5t32.5 78t58.5 58.5t89 23q26 0 50 -8.5t44 -23.5zM216 464
q-45 0 -70 -18q-3 -10 -4 -21t-1 -20q0 -23 13 -42.5t45 -19.5q27 0 48.5 16.5t21.5 54.5q0 23 -15 36.5t-38 13.5zM634 630h89l-481 -630h-89zM574 1q19 36 43 75.5l48.5 77l48 71l41.5 57.5h-174l12 60h252l-12 -63q-16 -18 -40 -51.5l-50.5 -73t-50.5 -80t-40 -73.5h-78z
" />
    <glyph glyph-name="oneninth" unicode="&#xf50c;" horiz-adv-x="892" 
d="M213 555l-91 -42l-22 55l137 69h65l-66 -341h-74zM625 630h89l-481 -630h-89zM572 74q14 -10 36 -16.5t40 -6.5q42 0 63.5 25t29.5 60q-14 -7 -32.5 -12t-36.5 -5q-49 0 -78.5 28t-29.5 69q0 33 11 58.5t30.5 43t45 26t54.5 8.5q32 0 55 -10.5t37.5 -27.5t21 -40t6.5 -47
q0 -38 -8.5 -80t-29.5 -76.5t-56 -57t-87 -22.5q-26 0 -52.5 7t-46.5 22zM684 174q44 0 70 18q3 10 4 21t1 20q0 23 -13 42.5t-45 19.5q-27 0 -48.5 -16.5t-21.5 -54.5q0 -23 15 -36.5t38 -13.5z" />
    <glyph glyph-name="twoninths" unicode="&#xf50d;" horiz-adv-x="892" 
d="M72 334q6 35 33 67t86 66q28 16 45 27.5t26.5 20.5t12.5 16.5t3 15.5q0 17 -12 26.5t-30 9.5q-26 0 -46 -10t-36 -27l-44 40q20 23 54 42t83 19q54 0 82.5 -25.5t28.5 -61.5q0 -21 -5.5 -37t-17.5 -30t-32 -27.5t-48 -30.5l-60 -36.5t-44 -43.5h171l-13 -59h-244z
M641 630h89l-481 -630h-89zM572 74q14 -10 36 -16.5t40 -6.5q42 0 63.5 25t29.5 60q-14 -7 -32.5 -12t-36.5 -5q-49 0 -78.5 28t-29.5 69q0 33 11 58.5t30.5 43t45 26t54.5 8.5q32 0 55 -10.5t37.5 -27.5t21 -40t6.5 -47q0 -38 -8.5 -80t-29.5 -76.5t-56 -57t-87 -22.5
q-26 0 -52.5 7t-46.5 22zM684 174q44 0 70 18q3 10 4 21t1 20q0 23 -13 42.5t-45 19.5q-27 0 -48.5 -16.5t-21.5 -54.5q0 -23 15 -36.5t38 -13.5z" />
    <glyph glyph-name="fourninths" unicode="&#xf50e;" horiz-adv-x="892" 
d="M75 419l211 218h73l-43 -218h41l-10 -57h-41l-13 -65h-66l13 65h-176zM250 419l28 140l-138 -140h110zM655 630h89l-481 -630h-89zM572 74q14 -10 36 -16.5t40 -6.5q42 0 63.5 25t29.5 60q-14 -7 -32.5 -12t-36.5 -5q-49 0 -78.5 28t-29.5 69q0 33 11 58.5t30.5 43t45 26
t54.5 8.5q32 0 55 -10.5t37.5 -27.5t21 -40t6.5 -47q0 -38 -8.5 -80t-29.5 -76.5t-56 -57t-87 -22.5q-26 0 -52.5 7t-46.5 22zM684 174q44 0 70 18q3 10 4 21t1 20q0 23 -13 42.5t-45 19.5q-27 0 -48.5 -16.5t-21.5 -54.5q0 -23 15 -36.5t38 -13.5z" />
    <glyph glyph-name="fiveninths" unicode="&#xf50f;" horiz-adv-x="892" 
d="M185 343q35 0 54.5 19.5t19.5 48.5q0 23 -14.5 35t-38.5 12q-17 0 -31.5 -4t-31.5 -12l-31 26l61 169h182l-13 -60h-127l-24 -71q9 2 18.5 3t16.5 1q50 0 77 -28.5t27 -67.5q0 -57 -40.5 -93.5t-109.5 -36.5q-41 0 -68 12t-47 29l33 50q20 -15 40 -23.5t47 -8.5zM647 630
h89l-481 -630h-89zM572 74q14 -10 36 -16.5t40 -6.5q42 0 63.5 25t29.5 60q-14 -7 -32.5 -12t-36.5 -5q-49 0 -78.5 28t-29.5 69q0 33 11 58.5t30.5 43t45 26t54.5 8.5q32 0 55 -10.5t37.5 -27.5t21 -40t6.5 -47q0 -38 -8.5 -80t-29.5 -76.5t-56 -57t-87 -22.5
q-26 0 -52.5 7t-46.5 22zM684 174q44 0 70 18q3 10 4 21t1 20q0 23 -13 42.5t-45 19.5q-27 0 -48.5 -16.5t-21.5 -54.5q0 -23 15 -36.5t38 -13.5z" />
    <glyph glyph-name="sevenninths" unicode="&#xf510;" horiz-adv-x="892" 
d="M100 296q19 36 43 75.5l48.5 77l48 71l41.5 57.5h-174l12 60h252l-12 -63q-16 -18 -40 -51.5l-50.5 -73t-50.5 -80t-40 -73.5h-78zM612 630h89l-481 -630h-89zM572 74q14 -10 36 -16.5t40 -6.5q42 0 63.5 25t29.5 60q-14 -7 -32.5 -12t-36.5 -5q-49 0 -78.5 28t-29.5 69
q0 33 11 58.5t30.5 43t45 26t54.5 8.5q32 0 55 -10.5t37.5 -27.5t21 -40t6.5 -47q0 -38 -8.5 -80t-29.5 -76.5t-56 -57t-87 -22.5q-26 0 -52.5 7t-46.5 22zM684 174q44 0 70 18q3 10 4 21t1 20q0 23 -13 42.5t-45 19.5q-27 0 -48.5 -16.5t-21.5 -54.5q0 -23 15 -36.5
t38 -13.5z" />
    <glyph glyph-name="eightninths" unicode="&#xf511;" horiz-adv-x="892" 
d="M269 398q0 33 -55 54q-14 -3 -28 -8.5t-25 -13.5t-18.5 -19t-7.5 -26q0 -17 13 -31t45 -14q29 0 52.5 13t23.5 45zM188 550q0 -27 43 -48q10 2 22 7t21.5 12t16 17t6.5 22q0 16 -11.5 27t-37.5 11q-22 0 -41 -10t-19 -38zM360 566q0 -29 -16 -49t-55 -40
q32 -22 39.5 -40.5t7.5 -37.5q0 -20 -8.5 -40.5t-26 -36.5t-44.5 -26t-64 -10q-35 0 -59 8.5t-38.5 21.5t-21 29.5t-6.5 32.5q0 38 28 63.5t67 42.5q-13 10 -26 26.5t-13 38.5q0 19 7.5 37t23.5 31.5t39 21.5t55 8q31 0 52.5 -7.5t34.5 -19t18.5 -26t5.5 -28.5zM645 630h89
l-481 -630h-89zM572 74q14 -10 36 -16.5t40 -6.5q42 0 63.5 25t29.5 60q-14 -7 -32.5 -12t-36.5 -5q-49 0 -78.5 28t-29.5 69q0 33 11 58.5t30.5 43t45 26t54.5 8.5q32 0 55 -10.5t37.5 -27.5t21 -40t6.5 -47q0 -38 -8.5 -80t-29.5 -76.5t-56 -57t-87 -22.5q-26 0 -52.5 7
t-46.5 22zM684 174q44 0 70 18q3 10 4 21t1 20q0 23 -13 42.5t-45 19.5q-27 0 -48.5 -16.5t-21.5 -54.5q0 -23 15 -36.5t38 -13.5z" />
    <glyph glyph-name="partialdiff" unicode="&#x2202;" horiz-adv-x="536" 
d="M166 610q37 24 80 37.5t89 13.5q55 0 92 -18t59.5 -47.5t32 -67t9.5 -76.5q0 -48 -8 -101t-25 -105.5t-43.5 -100t-63.5 -83.5t-84.5 -57.5t-106.5 -21.5q-48 0 -81.5 14t-54.5 37t-30.5 52.5t-9.5 61.5q0 52 19 99.5t52.5 83t79.5 56.5t99 21q38 0 79.5 -11.5
t77.5 -39.5q11 39 11 81q0 27 -6 53t-19 45.5t-34.5 31.5t-52.5 12q-33 0 -66.5 -10t-63.5 -28zM402 271q-18 18 -51.5 36t-87.5 18q-39 0 -68 -15.5t-47.5 -38.5t-28 -50.5t-9.5 -51.5q0 -21 4.5 -40t15 -33.5t29 -23.5t45.5 -9q33 0 63.5 13.5t56.5 40t46 65t32 89.5z" />
    <glyph glyph-name="Delta" unicode="&#x2206;" horiz-adv-x="618" 
d="M450 667l120 -584l-15 -83h-561l16 83l346 584h94zM108 84h367l-92 475z" />
    <glyph glyph-name="product" unicode="&#x220f;" horiz-adv-x="695" 
d="M197 583h-105l17 84h659l-17 -84h-105l-136 -704h-91l136 704h-267l-136 -704h-91z" />
    <glyph glyph-name="summation" unicode="&#x2211;" horiz-adv-x="535" 
d="M-1 -36l272 324l-147 297l16 82h451l-17 -84h-351l147 -307l-267 -312h353l-17 -85h-457z" />
    <glyph glyph-name="uni2126" unicode="&#x2126;" horiz-adv-x="774" 
d="M428 0l16 82q45 22 83 52.5t65.5 69t42.5 84.5t15 99q0 45 -11.5 83.5t-36.5 67.5t-63 45.5t-92 16.5q-63 0 -112.5 -22.5t-83.5 -61t-52 -89t-18 -106.5q0 -74 31.5 -131t94.5 -108l-15 -82h-269l16 82h151q-62 54 -84.5 113.5t-22.5 119.5q0 73 27 140t76 118t117.5 81
t151.5 30q63 0 116.5 -18.5t93 -55t61.5 -90.5t22 -125q0 -109 -49.5 -186.5t-128.5 -126.5h143l-16 -82h-269z" />
    <glyph glyph-name="minus" unicode="&#x2212;" horiz-adv-x="545" 
d="M106 359h391l-15 -76h-391z" />
    <glyph glyph-name="uni2215" unicode="&#x2215;" horiz-adv-x="155" 
d="M307 630h89l-481 -630h-89z" />
    <glyph glyph-name="uni2219" unicode="&#x2219;" horiz-adv-x="230" 
d="M110 406h96l-18 -97h-96z" />
    <glyph glyph-name="radical" unicode="&#x221a;" horiz-adv-x="551" 
d="M118 295h-70l16 83h127l70 -276l302 630h90l-353 -732h-102z" />
    <glyph glyph-name="infinity" unicode="&#x221e;" horiz-adv-x="656" 
d="M329 221q-24 -32 -63.5 -57t-88.5 -25q-29 0 -52 10.5t-39.5 29.5t-25.5 45.5t-9 57.5q0 48 16 87.5t42.5 67t61 43t72.5 15.5q48 0 77 -22.5t46 -59.5q24 32 63.5 57t88.5 25q28 0 51.5 -10.5t40 -29.5t25.5 -45.5t9 -57.5q0 -48 -16 -87.5t-42.5 -67t-61.5 -43
t-72 -15.5q-48 0 -77 22.5t-46 59.5zM381 317q0 -45 21.5 -73.5t55.5 -28.5q25 0 44.5 12t33 30.5t21 41.5t7.5 45q0 31 -16 53t-50 22t-66.5 -28.5t-50.5 -73.5zM314 317q0 45 -21.5 73.5t-55.5 28.5q-25 0 -44.5 -12t-33 -31t-21 -41.5t-7.5 -44.5q0 -31 16 -53t50 -22
t66.5 28.5t50.5 73.5z" />
    <glyph glyph-name="integral" unicode="&#x222b;" horiz-adv-x="519" 
d="M273 59q-18 -95 -63.5 -138t-114.5 -43q-30 0 -64 12t-57 41l53 54q26 -29 74 -29q37 0 56.5 25t30.5 86l83 436q18 95 67.5 138t120.5 43q30 0 64 -12t57 -41l-53 -54q-26 29 -74 29q-39 0 -61.5 -25t-34.5 -86z" />
    <glyph glyph-name="approxequal" unicode="&#x2248;" horiz-adv-x="523" 
d="M348 249q20 0 42 8t42 25l32 -49q-32 -30 -63.5 -46.5t-63.5 -16.5q-23 0 -40.5 7t-33 15t-32 15t-35.5 7q-20 0 -42 -8t-42 -25l-32 49q32 30 63.5 46.5t63.5 16.5q22 0 40 -7t33.5 -15t31.5 -15t36 -7zM382 428q20 0 42 8t42 25l32 -49q-32 -30 -63.5 -46.5
t-63.5 -16.5q-23 0 -40.5 7t-33 15t-32 15t-35.5 7q-20 0 -42 -8t-42 -25l-32 49q32 30 63.5 46.5t63.5 16.5q22 0 40 -7t33.5 -15t31.5 -15t36 -7z" />
    <glyph glyph-name="notequal" unicode="&#x2260;" horiz-adv-x="545" 
d="M123 441h231l88 113l48 -37l-60 -76h84l-15 -76h-128l-76 -98h186l-16 -76h-229l-86 -110l-48 37l57 73h-85l16 76h128l77 98h-187z" />
    <glyph glyph-name="lessequal" unicode="&#x2264;" horiz-adv-x="545" 
d="M110 389l383 189l32 -65l-326 -156l259 -154l-42 -66l-317 194zM47 77h391l-15 -76h-391z" />
    <glyph glyph-name="greaterequal" unicode="&#x2265;" horiz-adv-x="545" 
d="M483 331l-383 -189l-32 67l326 156l-259 154l42 64l317 -194zM52 77h391l-15 -76h-391z" />
    <glyph glyph-name="lozenge" unicode="&#x25ca;" horiz-adv-x="553" 
d="M55 333l259 334h96l128 -334l-257 -333h-96zM442 333l-96 258l-198 -258l97 -258z" />
    <glyph glyph-name="fi" unicode="&#xf001;" horiz-adv-x="519" 
d="M410 393h-189l-76 -393h-87l76 393h-81l14 72h81l9 45q9 45 30 77.5t51 54t66.5 32t76.5 10.5q48 0 91 -17.5t71 -48.5l-57 -54q-26 23 -50.5 33t-59.5 10q-49 0 -85.5 -23t-48.5 -84l-7 -35h276l-90 -465h-87z" />
    <glyph glyph-name="fl" unicode="&#xf002;" horiz-adv-x="515" 
d="M449 591q-13 7 -32.5 11.5t-48.5 4.5q-22 0 -42.5 -5t-37 -17.5t-28.5 -33t-18 -51.5l-7 -35h127l-14 -72h-127l-76 -393h-87l76 393h-81l14 72h81l9 45q9 45 30 77.5t50.5 54t64.5 32t71 10.5q94 0 171 -47l-123 -637h-86z" />
    <glyph glyph-name="zero.alt" unicode="&#xf800;" horiz-adv-x="546" 
d="M360 648q94 0 139 -60.5t45 -163.5q0 -42 -7.5 -90.5t-23 -97t-40 -94t-58.5 -80t-77.5 -55.5t-97.5 -21q-94 0 -139 60t-45 163q0 42 7.5 91t23.5 97.5t40.5 94t58 80t77 55.5t97.5 21zM248 69q37 0 66.5 19t52.5 49.5t40 69t27.5 78.5t15.5 77.5t5 65.5q0 60 -27 99
t-76 39q-37 0 -67 -19t-53 -49.5t-39.5 -69.5t-27 -79t-15.5 -77.5t-5 -65.5q0 -60 27 -98.5t76 -38.5z" />
    <glyph glyph-name="one.alt" unicode="&#xf801;" horiz-adv-x="412" 
d="M59 78h111l91 458l-140 -71l-30 65l197 103h81l-110 -555h111l-15 -78h-311z" />
    <glyph glyph-name="two.alt" unicode="&#xf802;" horiz-adv-x="480" 
d="M21 59q7 37 25 70t44.5 62.5t59.5 56t69 52.5q40 29 73.5 51t57 42.5t36.5 42.5t13 52q0 32 -23 56t-67 24q-51 0 -84.5 -22.5t-59.5 -54.5l-62 45q14 19 34 39t47 36t61 26.5t75 10.5q43 0 75.5 -12t54.5 -32t33 -46.5t11 -56.5q0 -44 -14 -77t-38.5 -59.5t-57 -50
l-69.5 -48.5l-63.5 -43t-56.5 -41t-45 -45.5t-28 -57.5h296l-15 -79h-392z" />
    <glyph glyph-name="three.alt" unicode="&#xf803;" horiz-adv-x="487" 
d="M229 305q-11 0 -23 -1.5t-28 -6.5l-32 45l220 210h-245l16 78h352l-14 -70l-200 -190q41 -5 69.5 -21t46.5 -39.5t26 -51t8 -55.5q0 -48 -18.5 -88t-51.5 -69.5t-78 -46t-98 -16.5q-70 0 -114.5 22t-72.5 48l46 65q31 -24 63 -40t85 -16q31 0 58.5 10t48 28t32 43
t11.5 55q0 47 -26.5 77t-80.5 30z" />
    <glyph glyph-name="four.alt" unicode="&#xf804;" horiz-adv-x="506" 
d="M43 205l365 426h87l-85 -425h66l-14 -75h-66l-26 -131h-81l25 131h-286zM328 206l61 301l-257 -301h196z" />
    <glyph glyph-name="five.alt" unicode="&#xf805;" horiz-adv-x="491" 
d="M202 63q71 0 109 43t38 110q0 54 -28.5 79.5t-80.5 25.5q-34 0 -58 -7.5t-50 -19.5l-37 36l95 300h303l-15 -78h-232l-53 -174q20 7 39.5 10t45.5 3q39 0 69 -13.5t50.5 -37t31 -54.5t10.5 -65q0 -51 -17 -94.5t-48.5 -75.5t-77 -50t-101.5 -18q-69 0 -113 21.5t-72 47.5
l45 65q15 -12 30 -22t32.5 -17t38 -11t46.5 -4z" />
    <glyph glyph-name="six.alt" unicode="&#xf806;" horiz-adv-x="516" 
d="M493 534q-20 14 -45.5 23t-59.5 9q-44 0 -77.5 -16.5t-59 -45t-43 -65.5t-30.5 -79q27 20 59 31.5t73 11.5q37 0 68.5 -13t54.5 -36t35.5 -54t12.5 -66q0 -61 -18 -107.5t-48.5 -78.5t-72 -48.5t-88.5 -16.5q-50 0 -85.5 17.5t-59 46.5t-34.5 68t-11 83q0 49 8.5 101.5
t26.5 102t45 94.5t63 78.5t82.5 53t102.5 19.5q45 0 82.5 -13.5t63.5 -33.5zM161 281q-5 -19 -7.5 -40t-2.5 -44q0 -25 5.5 -49.5t18.5 -44t34.5 -31.5t53.5 -12q27 0 51 10t42 30t28.5 50t10.5 71q0 49 -25.5 78t-73.5 29q-46 0 -79 -13.5t-56 -33.5z" />
    <glyph glyph-name="seven.alt" unicode="&#xf807;" horiz-adv-x="448" 
d="M52 0q36 71 82 152.5l93 158.5l89.5 141t70.5 100h-294l15 79h387l-16 -82q-18 -23 -44.5 -62l-57.5 -86.5l-63.5 -101.5l-63.5 -107t-57.5 -103t-44.5 -89h-96z" />
    <glyph glyph-name="eight.alt" unicode="&#xf808;" horiz-adv-x="532" 
d="M292 305q-26 -6 -53 -17.5t-49 -28.5t-36 -41t-14 -57q0 -20 7 -38t21 -32t36 -22.5t51 -8.5q24 0 50 7t47 22t35 39.5t14 59.5q0 37 -29 69.5t-80 47.5zM321 380q21 5 43 14t40 23.5t29.5 34t11.5 45.5q0 16 -5.5 30.5t-17 26t-29 18.5t-41.5 7q-20 0 -41 -5.5
t-38 -17.5t-28 -32t-11 -49q0 -30 23.5 -56.5t63.5 -38.5zM394 341q13 -7 29.5 -19.5t31.5 -31.5t25 -44t10 -56q0 -37 -15 -73.5t-44.5 -66t-73.5 -47.5t-102 -18q-56 0 -95 14.5t-64 38t-36 52.5t-11 58q0 38 13 68.5t36.5 55.5t55 44t68.5 34q-11 7 -23.5 18t-23 26.5
t-17 35t-6.5 43.5q0 31 12.5 62.5t37.5 56.5t63 40.5t88 15.5q48 0 81 -12.5t54 -32.5t30.5 -45t9.5 -50q0 -62 -37.5 -101.5t-96.5 -65.5z" />
    <glyph glyph-name="nine.alt" unicode="&#xf809;" horiz-adv-x="518" 
d="M71 99q20 -14 50.5 -24t64.5 -10q41 0 73.5 16.5t58 45t43.5 65.5t29 79q-28 -20 -62 -32t-68 -12q-38 0 -69.5 12t-54.5 34.5t-35.5 54t-12.5 70.5q0 65 20.5 112t53.5 77.5t74 45t82 14.5q47 0 82.5 -16.5t59 -45t35.5 -66t12 -79.5q0 -77 -19.5 -157.5t-60 -147.5
t-102 -109.5t-144.5 -42.5q-45 0 -83 12.5t-64 32.5zM409 349q4 17 7 35.5t3 38.5q0 26 -4.5 52t-17 47t-34 34.5t-55.5 13.5q-21 0 -44.5 -7.5t-43.5 -25.5t-33 -47t-13 -71q0 -56 24 -86.5t77 -30.5q39 0 75 13.5t59 33.5z" />
    <glyph glyph-name="zero.sups" unicode="&#xf80a;" 
d="M375 601q0 -50 -15.5 -91t-41.5 -71t-59 -46.5t-67 -16.5q-32 0 -55.5 11t-39 29.5t-23 43t-7.5 51.5q0 50 15.5 91.5t41.5 71.5t58.5 46.5t67.5 16.5q32 0 55.5 -11t39 -29.5t23 -43t7.5 -52.5zM143 514q0 -75 57 -75q18 0 35.5 12t31.5 33t23 50.5t9 64.5q0 75 -57 75
q-18 0 -35.5 -12t-31.5 -33t-23 -50.5t-9 -64.5z" />
    <glyph glyph-name="one.sups" unicode="&#xf80b;" 
d="M233 645l-91 -42l-22 55l137 69h65l-66 -341h-74z" />
    <glyph glyph-name="two.sups" unicode="&#xf80c;" 
d="M72 424q6 35 33 67t86 66q28 16 45 27.5t26.5 20.5t12.5 16.5t3 15.5q0 17 -12 26.5t-30 9.5q-26 0 -46 -10t-36 -27l-44 40q20 23 54 42t83 19q54 0 82.5 -25.5t28.5 -61.5q0 -21 -5.5 -37t-17.5 -30t-32 -27.5t-48 -30.5l-60 -36.5t-44 -43.5h171l-13 -59h-244z" />
    <glyph glyph-name="three.sups" unicode="&#xf80d;" 
d="M155 567l111 100h-134l13 60h220l-12 -54l-98 -85q42 -11 59.5 -35.5t17.5 -54.5q0 -55 -41 -88.5t-110 -33.5q-42 0 -70 12.5t-48 28.5l34 51q20 -14 40.5 -23t48.5 -9q35 0 55.5 15.5t20.5 44.5q0 27 -16.5 38.5t-38.5 11.5q-9 0 -18.5 -1.5t-17.5 -4.5z" />
    <glyph glyph-name="four.sups" unicode="&#xf80e;" 
d="M75 509l211 218h73l-43 -218h41l-10 -57h-41l-13 -65h-66l13 65h-176zM250 509l28 140l-138 -140h110z" />
    <glyph glyph-name="five.sups" unicode="&#xf80f;" 
d="M185 433q35 0 54.5 19.5t19.5 48.5q0 23 -14.5 35t-38.5 12q-17 0 -31.5 -4t-31.5 -12l-31 26l61 169h182l-13 -60h-127l-24 -71q9 2 18.5 3t16.5 1q50 0 77 -28.5t27 -67.5q0 -57 -40.5 -93.5t-109.5 -36.5q-41 0 -68 12t-47 29l33 50q20 -15 40 -23.5t47 -8.5z" />
    <glyph glyph-name="six.sups" unicode="&#xf810;" 
d="M323 655q-14 10 -29.5 16t-33.5 6q-42 0 -65 -25t-36 -60q14 7 32.5 12t36.5 5q49 0 78.5 -28t29.5 -69q0 -33 -11 -58.5t-30.5 -43t-45 -26t-54.5 -8.5q-30 0 -53 9.5t-38 26t-22.5 38.5t-7.5 46q0 39 10 81.5t32.5 78t58.5 58.5t89 23q26 0 50 -8.5t44 -23.5zM216 554
q-45 0 -70 -18q-3 -10 -4 -21t-1 -20q0 -23 13 -42.5t45 -19.5q27 0 48.5 16.5t21.5 54.5q0 23 -15 36.5t-38 13.5z" />
    <glyph glyph-name="seven.sups" unicode="&#xf811;" 
d="M100 386q19 36 43 75.5l48.5 77l48 71l41.5 57.5h-174l12 60h252l-12 -63q-16 -18 -40 -51.5l-50.5 -73t-50.5 -80t-40 -73.5h-78z" />
    <glyph glyph-name="eight.sups" unicode="&#xf812;" 
d="M278 488q0 33 -55 54q-14 -3 -28 -8.5t-25 -13.5t-18.5 -19t-7.5 -26q0 -17 13 -31t45 -14q29 0 52.5 13t23.5 45zM197 640q0 -27 43 -48q10 2 22 7t21.5 12t16 17t6.5 22q0 16 -11.5 27t-37.5 11q-22 0 -41 -10t-19 -38zM369 656q0 -29 -16 -49t-55 -40
q32 -22 39.5 -40.5t7.5 -37.5q0 -20 -8.5 -40.5t-26 -36.5t-44.5 -26t-64 -10q-35 0 -59 8.5t-38.5 21.5t-21 29.5t-6.5 32.5q0 38 28 63.5t67 42.5q-13 10 -26 26.5t-13 38.5q0 19 7.5 37t23.5 31.5t39 21.5t55 8q31 0 52.5 -7.5t34.5 -19t18.5 -26t5.5 -28.5z" />
    <glyph glyph-name="nine.sups" unicode="&#xf813;" 
d="M107 459q14 -10 36 -16.5t40 -6.5q42 0 63.5 25t29.5 60q-14 -7 -32.5 -12t-36.5 -5q-49 0 -78.5 28t-29.5 69q0 33 11 58.5t30.5 43t45 26t54.5 8.5q32 0 55 -10.5t37.5 -27.5t21 -40t6.5 -47q0 -38 -8.5 -80t-29.5 -76.5t-56 -57t-87 -22.5q-26 0 -52.5 7t-46.5 22z
M219 559q44 0 70 18q3 10 4 21t1 20q0 23 -13 42.5t-45 19.5q-27 0 -48.5 -16.5t-21.5 -54.5q0 -23 15 -36.5t38 -13.5z" />
    <glyph glyph-name="zero.sinf" unicode="&#xf814;" 
d="M310 126q0 -50 -15.5 -91t-41.5 -71t-59 -46.5t-67 -16.5q-32 0 -55.5 11t-39 29.5t-23 43t-7.5 51.5q0 50 15.5 91.5t41.5 71.5t58.5 46.5t67.5 16.5q32 0 55.5 -11t39 -29.5t23 -43t7.5 -52.5zM78 39q0 -75 57 -75q18 0 35.5 12t31.5 33t23 50.5t9 64.5q0 75 -57 75
q-18 0 -35.5 -12t-31.5 -33t-23 -50.5t-9 -64.5z" />
    <glyph glyph-name="one.sinf" unicode="&#xf815;" 
d="M167 170l-91 -42l-22 55l137 69h65l-66 -341h-74z" />
    <glyph glyph-name="two.sinf" unicode="&#xf816;" 
d="M10 -51q6 35 33 67t86 66q28 16 45 27.5t26.5 20.5t12.5 16.5t3 15.5q0 17 -12 26.5t-30 9.5q-26 0 -46 -10t-36 -27l-44 40q20 23 54 42t83 19q54 0 82.5 -25.5t28.5 -61.5q0 -21 -5.5 -37t-17.5 -30t-32 -27.5t-48 -30.5l-60 -36.5t-44 -43.5h171l-13 -59h-244z" />
    <glyph glyph-name="three.sinf" unicode="&#xf817;" 
d="M86 92l111 100h-134l13 60h220l-12 -54l-98 -85q42 -11 59.5 -35.5t17.5 -54.5q0 -55 -41 -88.5t-110 -33.5q-42 0 -70 12.5t-48 28.5l34 51q20 -14 40.5 -23t48.5 -9q35 0 55.5 15.5t20.5 44.5q0 27 -16.5 38.5t-38.5 11.5q-9 0 -18.5 -1.5t-17.5 -4.5z" />
    <glyph glyph-name="four.sinf" unicode="&#xf818;" 
d="M-17 34l211 218h73l-43 -218h41l-10 -57h-41l-13 -65h-66l13 65h-176zM158 34l28 140l-138 -140h110z" />
    <glyph glyph-name="five.sinf" unicode="&#xf819;" 
d="M122 -42q35 0 54.5 19.5t19.5 48.5q0 23 -14.5 35t-38.5 12q-17 0 -31.5 -4t-31.5 -12l-31 26l61 169h182l-13 -60h-127l-24 -71q9 2 18.5 3t16.5 1q50 0 77 -28.5t27 -67.5q0 -57 -40.5 -93.5t-109.5 -36.5q-41 0 -68 12t-47 29l33 50q20 -15 40 -23.5t47 -8.5z" />
    <glyph glyph-name="six.sinf" unicode="&#xf81a;" 
d="M263 180q-14 10 -29.5 16t-33.5 6q-42 0 -65 -25t-36 -60q14 7 32.5 12t36.5 5q49 0 78.5 -28t29.5 -69q0 -33 -11 -58.5t-30.5 -43t-45 -26t-54.5 -8.5q-30 0 -53 9.5t-38 26t-22.5 38.5t-7.5 46q0 39 10 81.5t32.5 78t58.5 58.5t89 23q26 0 50 -8.5t44 -23.5zM156 79
q-45 0 -70 -18q-3 -10 -4 -21t-1 -20q0 -23 13 -42.5t45 -19.5q27 0 48.5 16.5t21.5 54.5q0 23 -15 36.5t-38 13.5z" />
    <glyph glyph-name="seven.sinf" unicode="&#xf81b;" 
d="M39 -89q19 36 43 75.5l48.5 77l48 71l41.5 57.5h-174l12 60h252l-12 -63q-16 -18 -40 -51.5l-50.5 -73t-50.5 -80t-40 -73.5h-78z" />
    <glyph glyph-name="eight.sinf" unicode="&#xf81c;" 
d="M209 13q0 33 -55 54q-14 -3 -28 -8.5t-25 -13.5t-18.5 -19t-7.5 -26q0 -17 13 -31t45 -14q29 0 52.5 13t23.5 45zM128 165q0 -27 43 -48q10 2 22 7t21.5 12t16 17t6.5 22q0 16 -11.5 27t-37.5 11q-22 0 -41 -10t-19 -38zM300 181q0 -29 -16 -49t-55 -40
q32 -22 39.5 -40.5t7.5 -37.5q0 -20 -8.5 -40.5t-26 -36.5t-44.5 -26t-64 -10q-35 0 -59 8.5t-38.5 21.5t-21 29.5t-6.5 32.5q0 38 28 63.5t67 42.5q-13 10 -26 26.5t-13 38.5q0 19 7.5 37t23.5 31.5t39 21.5t55 8q31 0 52.5 -7.5t34.5 -19t18.5 -26t5.5 -28.5z" />
    <glyph glyph-name="nine.sinf" unicode="&#xf81d;" 
d="M44 -16q14 -10 36 -16.5t40 -6.5q42 0 63.5 25t29.5 60q-14 -7 -32.5 -12t-36.5 -5q-49 0 -78.5 28t-29.5 69q0 33 11 58.5t30.5 43t45 26t54.5 8.5q32 0 55 -10.5t37.5 -27.5t21 -40t6.5 -47q0 -38 -8.5 -80t-29.5 -76.5t-56 -57t-87 -22.5q-26 0 -52.5 7t-46.5 22z
M156 84q44 0 70 18q3 10 4 21t1 20q0 23 -13 42.5t-45 19.5q-27 0 -48.5 -16.5t-21.5 -54.5q0 -23 15 -36.5t38 -13.5z" />
    <glyph glyph-name="hungarumlaut.cap" horiz-adv-x="440" 
d="M252 870h107l-126 -150h-73zM423 870h107l-126 -150h-73z" />
    <glyph glyph-name="cedilla.cap" horiz-adv-x="540" 
d="M29 -156q15 -6 35.5 -10t38.5 -4q29 0 47 12t18 32q0 17 -13 23.5t-35 6.5q-35 0 -72 -13l17 55q16 5 37 9t52 4q40 0 65.5 -21.5t25.5 -53.5q0 -29 -12 -49.5t-31.5 -34t-44.5 -19.5t-52 -6q-42 0 -66 6.5t-29 8.5z" />
    <glyph glyph-name="tilde.cap" horiz-adv-x="439" 
d="M408 733q-22 0 -37.5 7t-29.5 16t-28 16t-32 7q-27 0 -45.5 -10t-38.5 -26l-33 54q22 20 53 39t72 19q22 0 37.5 -7t29.5 -16t28 -16t32 -7q29 0 47 10.5t37 25.5l33 -54q-22 -20 -53 -39t-72 -19z" />
    <glyph glyph-name="ogonek.cap" horiz-adv-x="305" 
d="M179 0q-30 -26 -53.5 -53.5t-23.5 -47.5q0 -11 5.5 -18t18.5 -7q18 0 32.5 5.5t25.5 12.5l21 -58q-26 -17 -54.5 -26t-56.5 -9q-37 0 -59 17t-22 50q0 35 25 67t66 67h75z" />
    <glyph glyph-name="ring.cap" horiz-adv-x="300" 
d="M158 798q0 26 9.5 48t25.5 37.5t38 24.5t48 9q25 0 47.5 -8.5t38.5 -24.5t25.5 -37.5t9.5 -46.5q0 -26 -9.5 -48t-25.5 -38t-38 -25t-47 -9q-26 0 -48 9t-38.5 24.5t-26 37t-9.5 47.5zM280 739q26 0 41.5 17t15.5 44q0 26 -15.5 42t-42.5 16q-26 0 -41.5 -16.5
t-15.5 -43.5q0 -26 15.5 -42.5t42.5 -16.5z" />
    <glyph glyph-name="caron.cap" horiz-adv-x="382" 
d="M341 720h-84l-76 150h76l51 -92l88 92h85z" />
    <glyph glyph-name="macron.cap" horiz-adv-x="339" 
d="M154 832h303l-14 -75h-303z" />
    <glyph glyph-name="dieresis.cap" horiz-adv-x="307" 
d="M338 844h97l-19 -98h-97zM151 844h96l-19 -98h-96z" />
    <glyph glyph-name="dotaccent.cap" horiz-adv-x="180" 
d="M177 847h103l-20 -103h-103z" />
    <glyph glyph-name="circumflex.cap" horiz-adv-x="382" 
d="M294 870h84l76 -150h-78l-51 92l-88 -92h-83z" />
    <glyph glyph-name="acute.cap" horiz-adv-x="260" 
d="M250 870h110l-124 -150h-78z" />
    <glyph glyph-name="grave.cap" horiz-adv-x="260" 
d="M188 870h105l41 -150h-76z" />
    <glyph glyph-name="breve.cap" horiz-adv-x="369" 
d="M254 854q-1 -4 -1 -7.5v-6.5q0 -24 13.5 -38.5t42.5 -14.5q36 0 56.5 20t27.5 47h74q-5 -25 -18 -48.5t-33.5 -42t-48.5 -30t-63 -11.5q-62 0 -92.5 30t-30.5 77q0 6 0.5 12t1.5 13h71z" />
    <glyph glyph-name="commaaccent.cap" horiz-adv-x="243" 
d="M56 -56h103l-109 -150h-77z" />
    <glyph glyph-name="caron.alt" horiz-adv-x="357" 
d="M226 667h82l-57 -173h-58z" />
    <glyph glyph-name="commaaccent" horiz-adv-x="385" 
d="M23 -56h95l-101 -141h-71z" />
    <glyph glyph-name="revcommaaccent" horiz-adv-x="172" 
d="M189 541h-95l98 136h71z" />
    <glyph glyph-name="Parenleft" horiz-adv-x="278" 
d="M108 -67q-10 31 -22.5 93.5t-12.5 145.5q0 97 20.5 185.5t50 161t62.5 127.5t58 86h88q-38 -56 -72 -117.5t-59.5 -130.5t-40.5 -147t-15 -165q0 -34 2.5 -69t7 -66.5t10 -58.5t11.5 -45h-88z" />
    <glyph glyph-name="Parenright" horiz-adv-x="278" 
d="M228 732q10 -31 22.5 -93.5t12.5 -145.5q0 -98 -20.5 -186t-50 -160.5t-62.5 -127.5t-58 -86h-88q38 55 72 117t59.5 131t40.5 147t15 165q0 34 -2.5 69t-7 66.5t-10 58.5t-11.5 45h88z" />
    <glyph glyph-name="Hyphen" horiz-adv-x="421" 
d="M107 375h281l-16 -84h-281z" />
    <glyph glyph-name="Slash" horiz-adv-x="390" 
d="M375 685h90l-391 -701h-91z" />
    <glyph glyph-name="At" horiz-adv-x="912" 
d="M565 221q-14 2 -34.5 4.5t-58.5 2.5q-41 0 -69 -8.5t-44.5 -22.5t-23.5 -32.5t-7 -37.5q0 -37 19.5 -53t61.5 -16q23 0 47 9t44.5 24.5t35.5 37t20 45.5zM638 -16q-43 0 -70 18.5t-34 53.5q-35 -36 -74 -52.5t-82 -16.5q-26 0 -50.5 8t-43.5 24t-30.5 38.5t-11.5 51.5
q0 43 16 77.5t45.5 59t72 37.5t95.5 13q32 0 61 -2.5t46 -6.5l3 16q3 12 3 24q0 35 -23 57t-72 22q-51 0 -82.5 -15t-54.5 -30l-36 58q13 10 31 20.5t41.5 19.5t53 14.5t65.5 5.5q71 0 115 -38t44 -105q0 -21 -4 -40l-39 -198q-1 -4 -1 -12q0 -16 9.5 -22.5t25.5 -6.5
q30 0 58 20.5t50 57t35.5 87.5t13.5 113q0 61 -22.5 111t-62 86t-94.5 55.5t-120 19.5q-78 0 -148 -23t-123.5 -68t-84.5 -112t-31 -155q0 -25 3 -50.5t10.5 -53t21 -57t35.5 -62.5l-63 -36q-27 39 -44 74t-26 67.5t-12 61.5t-3 56q0 97 35.5 177t98.5 136.5t150 87.5
t191 31q80 0 148.5 -25.5t118 -71t77.5 -108t28 -136.5q0 -67 -16.5 -131t-49.5 -114t-81.5 -80.5t-111.5 -30.5z" />
    <glyph glyph-name="Bracketleft" horiz-adv-x="302" 
d="M182 732h202l-16 -79h-114l-123 -639h114l-17 -81h-202z" />
    <glyph glyph-name="Backslash" horiz-adv-x="390" 
d="M206 685l119 -701h-85l-117 701h83z" />
    <glyph glyph-name="Bracketright" horiz-adv-x="302" 
d="M-8 14h114l123 639h-114l16 79h204l-156 -799h-204z" />
    <glyph glyph-name="Braceleft" horiz-adv-x="277" 
d="M116 230q1 5 1 15q0 26 -15 44.5t-46 20.5l11 57q36 2 58 25.5t30 54.5l46 173q12 45 27.5 70t41.5 42h87q-20 -13 -39.5 -40t-27.5 -61l-49 -193q-11 -42 -35 -66.5t-54 -32.5q23 -8 36.5 -26.5t13.5 -50.5q0 -5 -0.5 -11t-1.5 -12l-26 -190q-1 -6 -1.5 -12t-0.5 -12
q0 -27 7.5 -52t19.5 -40h-85q-25 35 -25 88q0 18 3 39z" />
    <glyph glyph-name="Braceright" horiz-adv-x="277" 
d="M218 435q-1 -5 -1 -15q0 -26 15 -44.5t46 -20.5l-11 -57q-36 -2 -58 -25.5t-30 -54.5l-46 -173q-12 -45 -27.5 -70t-41.5 -42h-87q20 13 39.5 40t27.5 61l49 193q11 42 35 66.5t54 32.5q-23 8 -36.5 26.5t-13.5 50.5q0 5 0.5 11t1.5 12l26 190q1 6 1.5 12t0.5 12
q0 27 -7.5 52t-19.5 40h85q25 -35 25 -88q0 -18 -3 -39z" />
    <glyph glyph-name="Guilsinglleft" horiz-adv-x="312" 
d="M105 338l131 188h85l-130 -191l58 -195h-80z" />
    <glyph glyph-name="Bullet" horiz-adv-x="384" 
d="M100 333q0 25 10 47.5t26.5 39t39 26t47.5 9.5t47.5 -9.5t39 -26t26 -39t9.5 -47.5t-9.5 -47.5t-26 -39t-39 -26.5t-47.5 -10t-47.5 10t-39 26.5t-26.5 39t-10 47.5z" />
    <glyph glyph-name="Endash" horiz-adv-x="500" 
d="M36 376h500l-16 -86h-500z" />
    <glyph glyph-name="Emdash" horiz-adv-x="1000" 
d="M36 376h1000l-16 -86h-1000z" />
    <glyph glyph-name="Guilsinglright" horiz-adv-x="312" 
d="M262 328l-131 -188h-85l130 191l-58 195h80z" />
    <glyph glyph-name="Exclamdown" horiz-adv-x="248" 
d="M147 0h-96l94 475h91zM261 558h-108l21 109h108z" />
    <glyph glyph-name="Guillemotleft" horiz-adv-x="482" 
d="M81 338l131 188h85l-130 -191l58 -195h-80zM250 338l131 188h85l-130 -191l58 -195h-80z" />
    <glyph glyph-name="Guillemotright" horiz-adv-x="482" 
d="M407 328l-131 -188h-85l130 191l-58 195h80zM238 328l-131 -188h-85l130 191l-58 195h80z" />
    <glyph glyph-name="Questiondown" horiz-adv-x="487" 
d="M404 557h-107l21 110h107zM373 447q-10 -54 -39 -96t-86 -77q-50 -32 -80 -61t-30 -71q0 -36 24 -57t70 -21q39 0 74 14.5t73 55.5l60 -48q-41 -50 -95.5 -76.5t-117.5 -26.5q-37 0 -69.5 9.5t-56.5 28t-38 45.5t-14 62t9.5 61.5t26.5 48.5t41 41t54 38q22 14 40 27
t31.5 27.5t22.5 32.5t14 44l5 27h86z" />
    <glyph glyph-name="uni0400" unicode="&#x400;" horiz-adv-x="538" 
d="M167 667h403l-16 -85h-312l-38 -195h235l-16 -84h-236l-42 -217h335l-16 -86h-426zM291 870h105l41 -150h-76z" />
    <glyph glyph-name="afii10023" unicode="&#x401;" horiz-adv-x="538" 
d="M167 667h403l-16 -85h-312l-38 -195h235l-16 -84h-236l-42 -217h335l-16 -86h-426zM440 844h97l-19 -98h-97zM253 844h96l-19 -98h-96z" />
    <glyph glyph-name="afii10051" unicode="&#x402;" horiz-adv-x="747" 
d="M195 0l113 583h-207l16 84h543l-16 -84h-244l-37 -189q32 14 65.5 21.5t68.5 7.5q42 0 80 -12t67.5 -36t46.5 -61t17 -87q0 -56 -21.5 -100t-58 -74t-84 -45.5t-98.5 -15.5q-31 0 -62 6l19 78q19 -4 42 -4q32 0 62.5 9t54 27.5t38 46.5t14.5 65q0 32 -11 55.5t-30 38.5
t-44.5 22.5t-53.5 7.5q-35 0 -68 -9.5t-59 -21.5l-61 -313h-92z" />
    <glyph glyph-name="afii10052" unicode="&#x403;" horiz-adv-x="496" 
d="M167 667h400l-15 -84h-309l-112 -583h-93zM420 870h110l-124 -150h-78z" />
    <glyph glyph-name="afii10053" unicode="&#x404;" horiz-adv-x="654" 
d="M605 491q-56 109 -176 109q-50 0 -92 -17.5t-74.5 -47t-55 -68t-33.5 -81.5h332l-17 -83h-326q0 -51 12 -94.5t35.5 -74.5t59 -48.5t82.5 -17.5q63 0 112.5 29t87.5 75l59 -61q-22 -26 -50 -49.5t-61 -40.5t-72 -27t-82 -10q-60 0 -111 20t-88 58t-58 93.5t-21 126.5
q0 81 27 154t76 128t116 87.5t147 32.5q88 0 152.5 -39.5t94.5 -111.5z" />
    <glyph glyph-name="afii10054" unicode="&#x405;" horiz-adv-x="559" 
d="M85 153q42 -46 83 -65.5t98 -19.5q61 0 102 32t41 89q0 23 -7 39.5t-22 29.5t-38 24t-54 24q-34 14 -64 31t-52 38t-35 48t-13 62q0 40 16.5 76.5t47 63.5t73.5 43t97 16q69 0 116 -26.5t80 -71.5l-65 -55q-23 29 -55 50t-82 21q-64 0 -98 -28.5t-34 -74.5q0 -23 7.5 -39
t22.5 -28.5t38 -23.5t53 -24q36 -15 65.5 -31.5t51.5 -38t34 -49.5t12 -66q0 -54 -19.5 -94.5t-53.5 -67.5t-78.5 -40.5t-94.5 -13.5q-29 0 -59.5 5t-61 18t-60 34.5t-55.5 54.5z" />
    <glyph glyph-name="afii10055" unicode="&#x406;" horiz-adv-x="238" 
d="M167 667h92l-129 -667h-92z" />
    <glyph glyph-name="afii10056" unicode="&#x407;" horiz-adv-x="238" 
d="M167 667h92l-129 -667h-92zM290 844h97l-19 -98h-97zM103 844h96l-19 -98h-96z" />
    <glyph glyph-name="afii10057" unicode="&#x408;" horiz-adv-x="474" 
d="M54 130q32 -35 61.5 -48.5t64.5 -13.5q25 0 46.5 5.5t39 20t30 40t20.5 64.5l91 469h92l-94 -487q-11 -55 -32 -92.5t-50 -61t-64.5 -33.5t-74.5 -10q-60 0 -108 21.5t-80 64.5z" />
    <glyph glyph-name="afii10058" unicode="&#x409;" horiz-adv-x="989" 
d="M588 583h-206q-33 -156 -68.5 -267.5t-78 -182.5t-93.5 -104t-115 -33q-19 0 -38 3l16 84q4 0 7.5 -0.5t7.5 -0.5q41 0 78.5 25.5t73.5 91t71 179t71 289.5h381l-48 -246h100q97 0 150 -50t53 -138q0 -50 -18 -92.5t-52.5 -74t-85 -49t-114.5 -17.5h-205zM581 80h106
q76 0 122 39.5t46 108.5q0 55 -30.5 84.5t-90.5 29.5h-102z" />
    <glyph glyph-name="afii10059" unicode="&#x40a;" horiz-adv-x="962" 
d="M167 667h91l-51 -262h322l51 262h91l-50 -262h106q94 0 145 -48t51 -133q0 -48 -17.5 -89t-50.5 -71t-81.5 -47t-110.5 -17h-212l62 321h-322l-62 -321h-91zM557 80h115q71 0 114 36.5t43 101.5q0 52 -28.5 79.5t-84.5 27.5h-111z" />
    <glyph glyph-name="afii10060" unicode="&#x40b;" horiz-adv-x="751" 
d="M286 0h-92l113 583h-206l16 84h543l-16 -84h-245l-38 -194q30 14 65.5 22t69.5 8q96 0 145 -52t49 -137q0 -30 -6 -63l-31 -167h-92l32 169q5 28 5 48q0 53 -29.5 85.5t-99.5 32.5q-33 0 -67 -8.5t-57 -22.5z" />
    <glyph glyph-name="afii10061" unicode="&#x40c;" horiz-adv-x="586" 
d="M130 0h-92l129 667h92l-54 -278h56q38 0 63.5 16t49.5 48l163 214h107l-181 -236q-27 -36 -50.5 -54.5t-53.5 -29.5q29 -11 47.5 -32.5t33.5 -58.5l101 -256h-103l-86 224q-15 41 -37 60t-61 19h-65zM441 870h110l-124 -150h-78z" />
    <glyph glyph-name="uni040D" unicode="&#x40d;" horiz-adv-x="679" 
d="M571 0h-91l100 519l-456 -519h-86l129 667h91l-100 -517l453 517h89zM349 870h105l41 -150h-76z" />
    <glyph glyph-name="afii10062" unicode="&#x40e;" horiz-adv-x="581" 
d="M253 178l-149 489h96l113 -395l251 395h101l-346 -529q-25 -38 -47.5 -67t-45.5 -48.5t-48.5 -29.5t-55.5 -10q-34 0 -61.5 11.5t-47.5 28.5l43 68q14 -11 32 -19.5t39 -8.5q26 0 50.5 18t49.5 57zM344 854q-1 -4 -1 -7.5v-6.5q0 -24 13.5 -38.5t42.5 -14.5q36 0 56.5 20
t27.5 47h74q-5 -25 -18 -48.5t-33.5 -42t-48.5 -30t-63 -11.5q-62 0 -92.5 30t-30.5 77q0 6 0.5 12t1.5 13h71z" />
    <glyph glyph-name="afii10145" unicode="&#x40f;" horiz-adv-x="667" 
d="M559 0h-218l-29 -154h-84l29 154h-219l129 667h92l-112 -582h336l113 582h92z" />
    <glyph glyph-name="afii10017" unicode="&#x410;" horiz-adv-x="625" 
d="M354 667h94l122 -667h-98l-30 187h-265l-102 -187h-100zM429 266l-48 297l-162 -297h210z" />
    <glyph glyph-name="afii10018" unicode="&#x411;" horiz-adv-x="564" 
d="M167 667h383l-16 -81h-292l-34 -179h122q94 0 145 -48.5t51 -133.5q0 -48 -17.5 -89t-51 -71.5t-82 -47.5t-110.5 -17h-227zM193 328l-49 -248h128q72 0 115.5 37t43.5 103q0 52 -29 80t-86 28h-123z" />
    <glyph glyph-name="afii10019" unicode="&#x412;" horiz-adv-x="560" 
d="M167 667h208q43 0 75.5 -11.5t54.5 -31.5t33.5 -46t11.5 -56q0 -39 -12.5 -67t-31 -47.5t-41 -32t-43.5 -21.5q20 -5 39 -17t33.5 -29.5t23.5 -40.5t9 -51q0 -60 -23 -101.5t-61 -67t-89 -36.5t-106 -11h-210zM319 387q24 0 48.5 6.5t44.5 20.5t33 35.5t13 52.5
q0 25 -8.5 41.5t-23 26t-34 13t-42.5 3.5h-110l-38 -199h117zM275 82q34 0 63 7.5t50 23t33 39.5t12 58q0 29 -9.5 48t-26 30t-39 15.5t-48.5 4.5h-124l-43 -226h132z" />
    <glyph glyph-name="afii10020" unicode="&#x413;" horiz-adv-x="496" 
d="M167 667h400l-15 -84h-309l-112 -583h-93z" />
    <glyph glyph-name="afii10021" unicode="&#x414;" horiz-adv-x="693" 
d="M710 667l-113 -583h50l-46 -238h-84l30 154h-470l-30 -154h-84l45 238h47q57 64 97.5 127.5t71.5 133.5t55 148.5t47 173.5h384zM606 583h-216q-22 -86 -45.5 -157t-51 -131.5t-60 -112t-71.5 -98.5h345z" />
    <glyph glyph-name="afii10022" unicode="&#x415;" horiz-adv-x="538" 
d="M167 667h403l-16 -85h-312l-38 -195h235l-16 -84h-236l-42 -217h335l-16 -86h-426z" />
    <glyph glyph-name="afii10024" unicode="&#x416;" horiz-adv-x="840" 
d="M431 0h-89l59 303h-61q-29 0 -54.5 -18.5t-52.5 -60.5l-148 -224h-105l173 256q29 43 53 63t53 29q-22 11 -38 34t-27 61l-60 224h93l54 -207q19 -72 78 -72h57l55 279h89l-55 -279h53q33 0 57 17.5t47 54.5l135 207h101l-159 -242q-38 -57 -91 -77q25 -10 42 -31.5
t28 -60.5l75 -256h-100l-60 224q-11 41 -30 60t-51 19h-62z" />
    <glyph glyph-name="afii10025" unicode="&#x417;" horiz-adv-x="548" 
d="M216 387h98q25 0 50.5 7.5t46.5 22.5t34 38t13 53q0 48 -32.5 72t-81.5 24q-54 0 -94 -26t-74 -61l-55 58q17 20 40.5 39.5t53 35t64.5 25t74 9.5q45 0 81.5 -12.5t61.5 -35t38.5 -52.5t13.5 -66q0 -64 -40 -111t-104 -64q18 -5 36.5 -16t33.5 -29t24.5 -43t9.5 -58
q0 -47 -19.5 -86t-53.5 -67.5t-78.5 -44t-95.5 -15.5q-44 0 -81.5 11t-67.5 29t-51.5 40.5t-34.5 45.5l68 52q9 -16 24.5 -33t37 -31t48.5 -23t60 -9t60.5 9.5t47.5 27t31.5 42t11.5 54.5q0 28 -10 48t-25.5 32.5t-35.5 18.5t-40 6h-104z" />
    <glyph glyph-name="afii10026" unicode="&#x418;" horiz-adv-x="679" 
d="M571 0h-91l100 519l-456 -519h-86l129 667h91l-100 -517l453 517h89z" />
    <glyph glyph-name="afii10027" unicode="&#x419;" horiz-adv-x="679" 
d="M571 0h-91l100 519l-456 -519h-86l129 667h91l-100 -517l453 517h89zM402 854q-1 -4 -1 -7.5v-6.5q0 -24 13.5 -38.5t42.5 -14.5q36 0 56.5 20t27.5 47h74q-5 -25 -18 -48.5t-33.5 -42t-48.5 -30t-63 -11.5q-62 0 -92.5 30t-30.5 77q0 6 0.5 12t1.5 13h71z" />
    <glyph glyph-name="afii10028" unicode="&#x41a;" horiz-adv-x="586" 
d="M130 0h-92l129 667h92l-54 -278h56q38 0 63.5 16t49.5 48l163 214h107l-181 -236q-27 -36 -50.5 -54.5t-53.5 -29.5q29 -11 47.5 -32.5t33.5 -58.5l101 -256h-103l-86 224q-15 41 -37 60t-61 19h-65z" />
    <glyph glyph-name="afii10029" unicode="&#x41b;" horiz-adv-x="688" 
d="M580 0h-92l113 583h-219q-33 -156 -68.5 -267.5t-78 -182.5t-93.5 -104t-115 -33q-19 0 -38 3l16 84q4 0 7.5 -0.5t7.5 -0.5q41 0 78.5 25.5t73.5 91t71 179t71 289.5h395z" />
    <glyph glyph-name="afii10030" unicode="&#x41c;" horiz-adv-x="756" 
d="M189 667h87l121 -350l267 350h90l-100 -667h-90l78 512l-243 -315h-45l-117 315l-120 -512h-87z" />
    <glyph glyph-name="afii10031" unicode="&#x41d;" horiz-adv-x="681" 
d="M167 667h92l-54 -280h351l54 280h92l-129 -667h-92l58 303h-351l-58 -303h-92z" />
    <glyph glyph-name="afii10032" unicode="&#x41e;" horiz-adv-x="743" 
d="M165 281q0 -45 12.5 -83.5t37 -67t61.5 -44.5t85 -16q61 0 111.5 27.5t86.5 71.5t55.5 100t19.5 113q0 45 -11.5 84.5t-35 69t-60 46.5t-86.5 17q-65 0 -116.5 -28t-87 -73t-54 -102t-18.5 -115zM448 684q60 0 112 -19.5t90 -56t60 -88.5t22 -117q0 -82 -27 -158
t-76 -134t-118 -93t-152 -35q-66 0 -119.5 21t-92 58.5t-59.5 89t-21 112.5q0 84 27.5 160t77.5 134t120 92t156 34z" />
    <glyph glyph-name="afii10033" unicode="&#x41f;" horiz-adv-x="672" 
d="M167 667h526l-129 -667h-92l113 583h-342l-112 -583h-93z" />
    <glyph glyph-name="afii10034" unicode="&#x420;" horiz-adv-x="543" 
d="M167 667h197q53 0 90 -15.5t59.5 -40t32.5 -54.5t10 -59q0 -62 -21.5 -106.5t-58 -73.5t-84.5 -42.5t-101 -13.5h-112l-50 -262h-91zM306 342q72 0 113 37.5t41 108.5q0 45 -27.5 72.5t-81.5 27.5h-108l-48 -246h111z" />
    <glyph glyph-name="afii10035" unicode="&#x421;" horiz-adv-x="653" 
d="M612 107q-49 -58 -115.5 -91t-147.5 -33q-65 0 -116.5 21.5t-88.5 60t-56.5 92t-19.5 118.5q0 80 28 154t78.5 130.5t120.5 90.5t153 34q87 0 143.5 -37.5t88.5 -101.5l-72 -46q-31 53 -69.5 76.5t-99.5 23.5t-111.5 -26t-86.5 -70t-55.5 -101t-19.5 -119q0 -45 12.5 -84
t36 -67.5t58.5 -45t80 -16.5q64 0 112.5 26.5t84.5 71.5z" />
    <glyph glyph-name="afii10036" unicode="&#x422;" horiz-adv-x="596" 
d="M330 585h-229l16 82h550l-16 -82h-228l-113 -585h-93z" />
    <glyph glyph-name="afii10037" unicode="&#x423;" horiz-adv-x="581" 
d="M253 178l-149 489h96l113 -395l251 395h101l-346 -529q-25 -38 -47.5 -67t-45.5 -48.5t-48.5 -29.5t-55.5 -10q-34 0 -61.5 11.5t-47.5 28.5l43 68q14 -11 32 -19.5t39 -8.5q26 0 50.5 18t49.5 57z" />
    <glyph glyph-name="afii10038" unicode="&#x424;" horiz-adv-x="766" 
d="M299 -35l16 85q-58 7 -103 28t-76 54t-47.5 76.5t-16.5 94.5q0 67 26.5 125t73.5 101.5t112 70t143 29.5l15 76h85l-16 -79q58 -6 103 -27t76 -54t47.5 -76.5t16.5 -94.5q0 -67 -26.5 -125t-73.5 -102t-112 -70.5t-143 -29.5l-16 -82h-84zM162 312q0 -74 42 -123.5
t127 -58.5l81 421q-57 -4 -103.5 -23.5t-79 -51.5t-50 -74t-17.5 -90zM664 365q0 73 -42 123t-126 59l-82 -421q57 4 103.5 23.5t79 51.5t50 74t17.5 90z" />
    <glyph glyph-name="afii10039" unicode="&#x425;" horiz-adv-x="586" 
d="M264 350l-148 317h104l110 -248l199 248h107l-267 -324l160 -343h-106l-121 272l-220 -272h-108z" />
    <glyph glyph-name="afii10040" unicode="&#x426;" horiz-adv-x="667" 
d="M571 85h54l-46 -239h-84l29 154h-486l129 667h92l-112 -582h332l113 582h92z" />
    <glyph glyph-name="afii10041" unicode="&#x427;" horiz-adv-x="596" 
d="M525 667h92l-129 -667h-92l55 286q-30 -13 -65 -21t-73 -8q-94 0 -143 52t-49 137q0 30 6 63l30 158h92l-31 -160q-2 -13 -3.5 -24.5t-1.5 -23.5q0 -52 30 -85t99 -33q35 0 69 8.5t57 22.5z" />
    <glyph glyph-name="afii10042" unicode="&#x428;" horiz-adv-x="1004" 
d="M896 0h-858l129 667h92l-113 -582h291l113 582h92l-113 -582h291l113 582h92z" />
    <glyph glyph-name="afii10043" unicode="&#x429;" horiz-adv-x="1002" 
d="M960 85l-46 -239h-84l29 154h-821l129 667h92l-113 -582h288l113 582h92l-113 -582h288l113 582h92l-113 -582h54z" />
    <glyph glyph-name="afii10044" unicode="&#x42a;" horiz-adv-x="653" 
d="M257 583h-148l16 84h239l-48 -246h105q97 0 150 -50t53 -138q0 -50 -18 -92.5t-52.5 -74t-85 -49t-114.5 -17.5h-210zM250 80h111q76 0 122 39.5t46 108.5q0 55 -30.5 84.5t-90.5 29.5h-107z" />
    <glyph glyph-name="afii10045" unicode="&#x42b;" horiz-adv-x="761" 
d="M690 667h92l-129 -667h-92zM167 667h91l-48 -246h99q97 0 150 -50t53 -138q0 -50 -18 -92.5t-52.5 -74t-85 -49t-114.5 -17.5h-204zM144 80h105q76 0 122 39.5t46 108.5q0 55 -30.5 84.5t-90.5 29.5h-101z" />
    <glyph glyph-name="afii10046" unicode="&#x42c;" horiz-adv-x="561" 
d="M172 667h91l-48 -246h114q97 0 150 -50t53 -138q0 -50 -18 -92.5t-52.5 -74t-85 -49t-114.5 -17.5h-219zM149 80h120q76 0 122 39.5t46 108.5q0 55 -30.5 84.5t-90.5 29.5h-116z" />
    <glyph glyph-name="afii10047" unicode="&#x42d;" horiz-adv-x="649" 
d="M280 68q52 0 94.5 18.5t75.5 51t54.5 75t31.5 90.5h-331l17 83h322q-1 40 -11 78.5t-32 68.5t-56.5 48.5t-83.5 18.5q-65 0 -115.5 -30t-87.5 -75l-60 58q45 57 113 94t154 37q59 0 109 -20t87 -58t57.5 -93.5t20.5 -126.5q0 -81 -27 -154t-75 -128t-115 -87.5
t-147 -32.5q-88 0 -153.5 40t-95.5 111l76 42q29 -56 73.5 -82.5t104.5 -26.5z" />
    <glyph glyph-name="afii10048" unicode="&#x42e;" horiz-adv-x="992" 
d="M708 684q59 0 109 -20t86.5 -57.5t57 -92t20.5 -123.5q0 -80 -27 -153.5t-75 -130t-115 -90.5t-147 -34q-61 0 -111.5 20.5t-86.5 58t-56 91t-20 118.5q0 12 0.5 19t1.5 13h-156l-59 -303h-92l129 667h92l-54 -280h152q16 62 48 116t77.5 94.5t102.5 63.5t123 23z
M436 285q0 -46 11.5 -85.5t35 -68t57.5 -44.5t79 -16q58 0 106.5 26t83.5 69.5t54.5 100t19.5 118.5q0 45 -11 84t-33.5 67.5t-57 45t-80.5 16.5q-59 0 -107.5 -26.5t-83.5 -70t-54.5 -100t-19.5 -116.5z" />
    <glyph glyph-name="afii10049" unicode="&#x42f;" horiz-adv-x="564" 
d="M434 346l47 241h-128q-31 0 -57.5 -8.5t-46 -25t-30.5 -40.5t-11 -55q0 -49 30 -80.5t93 -31.5h103zM585 667l-129 -667h-89l52 267h-66q-20 0 -35 -4.5t-28.5 -14.5t-26.5 -26t-28 -38l-129 -184h-102l149 210q22 32 41 50t43 29q-26 7 -48 21.5t-38.5 35.5t-26 47.5
t-9.5 58.5q0 49 18 89t50.5 68t76.5 43t97 15h228z" />
    <glyph glyph-name="afii10065" unicode="&#x430;" horiz-adv-x="489" 
d="M316 0l8 56q-35 -36 -74 -52.5t-79 -16.5q-28 0 -53.5 8t-44.5 24.5t-30 41.5t-11 59q0 38 15 71t44.5 57t73.5 38t102 14q26 0 55.5 -2.5t46.5 -6.5l4 22q1 6 1.5 11t0.5 11q0 38 -26.5 57.5t-72.5 19.5q-48 0 -81.5 -16.5t-51.5 -28.5l-36 58q12 10 30.5 20.5t42 19.5
t51.5 14.5t59 5.5q45 0 76.5 -12t51.5 -32.5t29 -47t9 -54.5q0 -8 -1 -17.5t-3 -21.5l-40 -207l-9.5 -51t-6.5 -42h-80zM356 225q-14 2 -35.5 4.5t-48.5 2.5q-45 0 -74.5 -8t-47.5 -22t-25 -33t-7 -40q0 -34 17 -52.5t58 -18.5q27 0 52 8.5t46 24.5t36 39.5t21 54.5z" />
    <glyph glyph-name="afii10066" unicode="&#x431;" horiz-adv-x="561" 
d="M556 595l-122 -12q-57 -6 -99 -20.5t-72.5 -40t-52 -62t-37.5 -85.5q75 74 173 74q40 0 73.5 -13.5t57.5 -38.5t37.5 -61.5t13.5 -81.5q0 -51 -18 -99.5t-51.5 -86t-81.5 -60t-108 -22.5q-55 0 -94 18t-63.5 48.5t-36 71.5t-11.5 87q0 57 15 114q20 79 49 137t70 98
t97 63t130 31l122 13zM272 59q38 0 69 16t53 42t34 60.5t12 71.5q0 60 -31.5 93.5t-87.5 33.5q-38 0 -69.5 -15t-54.5 -40.5t-36 -58.5t-13 -70q0 -27 7.5 -51t22.5 -42t38.5 -29t55.5 -11z" />
    <glyph glyph-name="afii10067" unicode="&#x432;" horiz-adv-x="493" 
d="M159 273h130q39 0 67.5 18.5t28.5 57.5q0 55 -68 55h-133zM25 0l91 471h222q36 0 61 -9t41 -24t23.5 -35t7.5 -42q0 -46 -28 -77t-70 -42q32 -8 54.5 -33t22.5 -70q0 -34 -14 -60t-38 -43.5t-57.5 -26.5t-72.5 -9h-243zM119 67h146q19 0 37 4t32.5 13t23 24t8.5 37
q0 36 -24.5 50t-62.5 14h-133z" />
    <glyph glyph-name="afii10068" unicode="&#x433;" horiz-adv-x="401" 
d="M412 394h-225l-76 -394h-86l91 471h311z" />
    <glyph glyph-name="afii10069" unicode="&#x434;" horiz-adv-x="565" 
d="M543 471l-77 -397h50l-39 -198h-79l24 124h-364l-24 -124h-79l39 198h48q36 37 63.5 82t49 96t38 106.5t30.5 112.5h320zM382 74l63 323h-163q-28 -112 -62.5 -189t-77.5 -134h240z" />
    <glyph glyph-name="afii10070" unicode="&#x435;" horiz-adv-x="517" 
d="M133 212v-10q0 -68 30.5 -104.5t96.5 -36.5q41 0 73 14.5t64 45.5l49 -52q-33 -35 -82 -59t-115 -24q-99 0 -150 56.5t-51 150.5q0 58 19 111.5t53.5 93.5t83 64t106.5 24q48 0 82 -15.5t55 -42.5t31 -62t10 -74q0 -40 -9 -80h-346zM405 278q1 5 1 10.5v10.5
q0 50 -26 83.5t-80 33.5q-55 0 -97.5 -38t-59.5 -100h262z" />
    <glyph glyph-name="afii10072" unicode="&#x436;" horiz-adv-x="697" 
d="M270 0l39 202h-45q-26 0 -42.5 -12.5t-38.5 -42.5l-113 -147h-95l132 171q23 29 40.5 45.5t42.5 24.5q-24 13 -37.5 34t-22.5 48l-51 148h81l49 -135q10 -29 24 -44.5t43 -15.5h47l38 195h83l-38 -195h50q27 0 45.5 16t42.5 48l98 131h86l-123 -166q-17 -23 -35.5 -40
t-41.5 -25q22 -9 34.5 -27t23.5 -44l65 -169h-89l-58 154q-8 23 -20.5 35.5t-42.5 12.5h-49l-39 -202h-83z" />
    <glyph glyph-name="afii10073" unicode="&#x437;" horiz-adv-x="444" 
d="M146 276h79q51 0 86.5 18t35.5 58q0 29 -22 46t-66 17q-48 0 -82.5 -18t-65.5 -44l-42 55q37 35 88 56.5t112 21.5q77 0 120 -34t43 -88q0 -47 -30.5 -79.5t-75.5 -45.5q34 -11 55 -37.5t21 -68.5q0 -37 -16.5 -64.5t-44 -45.5t-64.5 -27t-78 -9q-66 0 -117.5 21.5
t-80.5 58.5l48 52q25 -28 63 -44t88 -16q23 0 44 4t37.5 13t26.5 24t10 37q0 37 -27.5 52.5t-75.5 15.5h-83z" />
    <glyph glyph-name="afii10074" unicode="&#x438;" horiz-adv-x="533" 
d="M355 0l68 351l-320 -351h-78l91 471h83l-67 -347l317 347h80l-91 -471h-83z" />
    <glyph glyph-name="afii10075" unicode="&#x439;" horiz-adv-x="533" 
d="M355 0l68 351l-320 -351h-78l91 471h83l-67 -347l317 347h80l-91 -471h-83zM290 662v-8q0 -26 14 -40t42 -14q61 0 79 62h63q-9 -52 -49 -85.5t-99 -33.5q-54 0 -83.5 27.5t-29.5 69.5q0 5 0.5 11t1.5 11h61z" />
    <glyph glyph-name="afii10076" unicode="&#x43a;" horiz-adv-x="483" 
d="M25 0l91 471h86l-38 -194h57q31 0 51.5 17t44.5 46l105 131h92l-124 -156q-23 -28 -42 -45t-48 -27q24 -8 38.5 -27t26.5 -48l73 -168h-95l-66 154q-9 21 -20.5 35t-41.5 14h-65l-39 -203h-86z" />
    <glyph glyph-name="afii10077" unicode="&#x43b;" horiz-adv-x="562" 
d="M558 471l-91 -471h-86l76 394h-163q-26 -107 -52 -182t-57 -122.5t-69.5 -69.5t-89.5 -22h-15.5t-15.5 2l15 77h8q37 0 65.5 22t52.5 69t46 122t48 181h328z" />
    <glyph glyph-name="afii10078" unicode="&#x43c;" horiz-adv-x="604" 
d="M267 129l-87 219l-82 -348h-81l113 471h77l99 -251l201 251h81l-72 -471h-84l55 348l-175 -219h-45z" />
    <glyph glyph-name="afii10079" unicode="&#x43d;" horiz-adv-x="536" 
d="M532 471l-91 -471h-86l39 202h-244l-39 -202h-86l91 471h86l-37 -193h244l37 193h86z" />
    <glyph glyph-name="afii10080" unicode="&#x43e;" horiz-adv-x="549" 
d="M323 486q44 0 80 -14t62 -41t40.5 -66t14.5 -88q0 -59 -20.5 -112t-56.5 -92.5t-85.5 -63t-108.5 -23.5q-45 0 -82.5 14.5t-64 41t-41 65t-14.5 86.5q0 58 21 111.5t58.5 93.5t87.5 64t109 24zM315 410q-36 0 -68.5 -16t-57.5 -43.5t-39.5 -65.5t-14.5 -83
q0 -61 29 -100.5t88 -39.5q34 0 66.5 15t58 42.5t40.5 65.5t15 85q0 66 -30.5 103t-86.5 37z" />
    <glyph glyph-name="afii10081" unicode="&#x43f;" horiz-adv-x="536" 
d="M532 471l-91 -471h-86l76 394h-244l-76 -394h-86l91 471h416z" />
    <glyph glyph-name="afii10082" unicode="&#x440;" horiz-adv-x="541" 
d="M-14 -200l110 570l10.5 53.5t8.5 47.5h82l-11 -70q7 9 21 23.5t35 28t48 23.5t60 10q35 0 65 -12t51.5 -36.5t34 -61.5t12.5 -86q0 -66 -22 -122t-60 -96.5t-89 -63t-108 -22.5q-35 0 -62 9t-58 28l-43 -223h-85zM130 101q21 -19 47 -29t58 -10q43 0 78 17.5t59.5 48
t37.5 71.5t13 88q0 57 -21.5 89.5t-72.5 32.5q-32 0 -61 -13.5t-52 -37.5t-39.5 -58t-23.5 -75z" />
    <glyph glyph-name="afii10083" unicode="&#x441;" horiz-adv-x="476" 
d="M428 64q-32 -34 -77 -56t-105 -22q-94 0 -146.5 55.5t-52.5 152.5q0 60 20.5 113.5t56.5 93t85 62.5t106 23q120 0 166 -106l-67 -37q-15 31 -39.5 49t-65.5 18q-39 0 -70.5 -17t-54 -45.5t-35 -66t-12.5 -78.5q0 -68 33 -104.5t89 -36.5q35 0 65 15t56 41z" />
    <glyph glyph-name="afii10084" unicode="&#x442;" horiz-adv-x="472" 
d="M498 471l-15 -77h-163l-76 -394h-86l76 394h-163l15 77h412z" />
    <glyph glyph-name="afii10085" unicode="&#x443;" horiz-adv-x="483" 
d="M-7 -119q12 -9 27 -14.5t29 -5.5q15 0 27.5 6.5t24.5 20.5t25 36l31 53l17 30l-108 464h96l74 -357l196 357h97l-314 -542q-20 -34 -37.5 -60.5t-36.5 -44.5t-41.5 -27.5t-51.5 -9.5q-24 0 -48.5 9t-39.5 23z" />
    <glyph glyph-name="afii10086" unicode="&#x444;" horiz-adv-x="686" 
d="M396 667h80l-37 -189q51 -5 91 -22t68 -45t43 -64.5t15 -80.5q0 -53 -21 -101t-61.5 -85.5t-98.5 -61t-131 -27.5l-37 -191h-80l38 194q-51 5 -91 22t-68 45t-43 64.5t-15 80.5q0 52 21 100.5t61.5 86t98 61t131.5 27.5zM573 258q0 60 -36.5 100.5t-111.5 47.5l-67 -343
q49 4 89 20.5t68 42.5t43 59.5t15 72.5zM131 214q0 -60 36.5 -100.5t111.5 -47.5l67 343q-50 -4 -89.5 -20.5t-67.5 -42.5t-43 -59.5t-15 -72.5z" />
    <glyph glyph-name="afii10087" unicode="&#x445;" horiz-adv-x="469" 
d="M199 251l-115 220h98l79 -161l135 161h104l-202 -225l127 -246h-97l-91 185l-155 -185h-106z" />
    <glyph glyph-name="afii10088" unicode="&#x446;" horiz-adv-x="547" 
d="M499 77l-39 -201h-79l24 124h-380l91 471h86l-76 -394h237l76 394h86l-76 -394h50z" />
    <glyph glyph-name="afii10089" unicode="&#x447;" horiz-adv-x="497" 
d="M493 471l-91 -471h-86l36 188q-23 -11 -50 -18t-54 -7q-37 0 -68 10t-53.5 29.5t-35 47t-12.5 63.5q0 11 1.5 21.5t3.5 22.5l22 114h86l-22 -114q-3 -17 -3 -30q0 -40 24.5 -65.5t81.5 -25.5q26 0 50.5 7.5t42.5 17.5l41 210h86z" />
    <glyph glyph-name="afii10090" unicode="&#x448;" horiz-adv-x="800" 
d="M25 0l91 471h86l-76 -394h211l76 394h86l-76 -394h211l76 394h86l-91 -471h-680z" />
    <glyph glyph-name="afii10091" unicode="&#x449;" horiz-adv-x="815" 
d="M767 77l-39 -201h-79l24 124h-648l91 471h86l-76 -394h209l76 394h86l-76 -394h210l76 394h86l-76 -394h50z" />
    <glyph glyph-name="afii10092" unicode="&#x44a;" horiz-adv-x="565" 
d="M294 471l-30 -157h112q68 0 110.5 -37t42.5 -105q0 -38 -14.5 -70t-40 -54.5t-61 -35t-77.5 -12.5h-217l76 394h-124l15 77h208zM217 70h125q42 0 71.5 26.5t29.5 71.5q0 32 -19.5 54t-63.5 22h-110z" />
    <glyph glyph-name="afii10093" unicode="&#x44b;" horiz-adv-x="662" 
d="M572 471h86l-91 -471h-86zM123 70h124q42 0 71.5 26.5t29.5 71.5q0 32 -19.5 54t-63.5 22h-109zM200 471l-30 -157h111q68 0 110.5 -37t42.5 -105q0 -38 -14.5 -70t-40 -54.5t-61 -35t-77.5 -12.5h-216l91 471h84z" />
    <glyph glyph-name="afii10094" unicode="&#x44c;" horiz-adv-x="478" 
d="M123 70h132q42 0 71.5 26.5t29.5 71.5q0 32 -19.5 54t-63.5 22h-117zM200 471l-30 -157h119q68 0 110.5 -37t42.5 -105q0 -38 -14.5 -70t-40 -54.5t-61 -35t-77.5 -12.5h-224l91 471h84z" />
    <glyph glyph-name="afii10095" unicode="&#x44d;" horiz-adv-x="478" 
d="M193 59q33 0 59.5 11t47.5 30.5t35.5 45.5t22.5 56h-208l15 73h203q-1 72 -35.5 105.5t-85.5 33.5q-41 0 -74.5 -18t-59.5 -44l-45 55q35 35 83 57t106 22q43 0 79 -13.5t61.5 -40t40 -65.5t14.5 -90q0 -58 -19 -111t-53 -93t-82.5 -63.5t-106.5 -23.5q-35 0 -63.5 8.5
t-51 23t-39 33t-26.5 39.5l63 38q17 -31 46.5 -50t72.5 -19z" />
    <glyph glyph-name="afii10096" unicode="&#x44e;" horiz-adv-x="751" 
d="M458 -14q-44 0 -79.5 14.5t-61 41.5t-39.5 65.5t-14 86.5v8h-113l-39 -202h-87l92 471h86l-37 -193h109q12 43 35.5 81t56 66.5t73.5 44.5t88 16q44 0 79.5 -14.5t61 -41.5t39.5 -65.5t14 -86.5q0 -57 -19.5 -110t-54.5 -93.5t-83.5 -64.5t-106.5 -24zM519 409
q-36 0 -67.5 -16.5t-54 -44.5t-35.5 -65.5t-13 -79.5q0 -64 30 -102t85 -38q36 0 67 16.5t54 44.5t36 65.5t13 80.5q0 63 -29 101t-86 38z" />
    <glyph glyph-name="afii10097" unicode="&#x44f;" horiz-adv-x="490" 
d="M389 402h-118q-47 0 -75 -24t-28 -66q0 -34 19 -52t54 -18h117zM311 0l34 175h-80q-27 0 -44.5 -11.5t-39.5 -42.5l-86 -121h-96l103 138q18 24 32 38t35 22q-33 10 -60 38.5t-27 81.5q0 35 13.5 63.5t39 48.5t60.5 30.5t79 10.5h212l-91 -471h-84z" />
    <glyph glyph-name="uni0450" unicode="&#x450;" horiz-adv-x="517" 
d="M133 212v-10q0 -68 30.5 -104.5t96.5 -36.5q41 0 73 14.5t64 45.5l49 -52q-33 -35 -82 -59t-115 -24q-99 0 -150 56.5t-51 150.5q0 58 19 111.5t53.5 93.5t83 64t106.5 24q48 0 82 -15.5t55 -42.5t31 -62t10 -74q0 -40 -9 -80h-346zM405 278q1 5 1 10.5v10.5
q0 50 -26 83.5t-80 33.5q-55 0 -97.5 -38t-59.5 -100h262zM244 681h93l28 -136h-69z" />
    <glyph glyph-name="afii10071" unicode="&#x451;" horiz-adv-x="517" 
d="M133 212v-10q0 -68 30.5 -104.5t96.5 -36.5q41 0 73 14.5t64 45.5l49 -52q-33 -35 -82 -59t-115 -24q-99 0 -150 56.5t-51 150.5q0 58 19 111.5t53.5 93.5t83 64t106.5 24q48 0 82 -15.5t55 -42.5t31 -62t10 -74q0 -40 -9 -80h-346zM405 278q1 5 1 10.5v10.5
q0 50 -26 83.5t-80 33.5q-55 0 -97.5 -38t-59.5 -100h262zM374 657h89l-18 -91h-89zM209 657h91l-18 -91h-91z" />
    <glyph glyph-name="afii10099" unicode="&#x452;" horiz-adv-x="520" 
d="M128 533h-65l12 62h65l14 72h84l-14 -72h180l-12 -62h-180l-28 -144q15 16 32 30.5t36.5 25.5t42 18t49.5 7q39 0 67 -15t46 -41.5t26.5 -63t8.5 -79.5q0 -63 -17 -127.5t-47 -126.5t-72 -119t-92 -103l-60 57q42 39 78 88t63 102.5t42.5 110t15.5 111.5q0 62 -21 95
t-68 33q-31 0 -58 -14.5t-48 -39.5t-35.5 -58.5t-21.5 -71.5l-40 -208h-86z" />
    <glyph glyph-name="afii10100" unicode="&#x453;" horiz-adv-x="401" 
d="M412 394h-225l-76 -394h-86l91 471h311zM324 679h95l-98 -136h-71z" />
    <glyph glyph-name="afii10101" unicode="&#x454;" horiz-adv-x="482" 
d="M313 413q-31 0 -58 -11t-48.5 -29.5t-38 -44t-25.5 -53.5h207l-14 -73h-205q0 -31 8.5 -57.5t25.5 -45.5t41 -30t56 -11q35 0 69.5 15t60.5 43l43 -56q-36 -37 -83.5 -55.5t-100.5 -18.5q-47 0 -84.5 15t-64 42t-41 66t-14.5 87q0 57 20.5 109.5t56.5 92.5t85 64t106 24
q34 0 62.5 -8.5t50 -23t36.5 -33t23 -39.5l-65 -38q-17 34 -43.5 51.5t-65.5 17.5z" />
    <glyph glyph-name="afii10102" unicode="&#x455;" horiz-adv-x="441" 
d="M59 114q33 -26 66.5 -39.5t75.5 -13.5q51 0 75 18t24 47q0 25 -20 40.5t-65 35.5q-31 14 -55.5 27.5t-41 29.5t-25.5 36.5t-9 48.5q0 36 14.5 62.5t38.5 44.5t55.5 26.5t66.5 8.5q46 0 89.5 -16t79.5 -54l-52 -54q-24 23 -54 37t-68 14t-60 -14.5t-22 -43.5
q0 -14 5.5 -24t17.5 -19t30.5 -18.5t45.5 -21.5q25 -11 47 -22.5t38.5 -26.5t26 -35.5t9.5 -50.5q0 -70 -52.5 -110.5t-139.5 -40.5q-48 0 -97 15t-91 51z" />
    <glyph glyph-name="afii10103" unicode="&#x456;" horiz-adv-x="207" 
d="M144 655h97l-20 -101h-97zM116 471h87l-91 -471h-87z" />
    <glyph glyph-name="afii10104" unicode="&#x457;" horiz-adv-x="207" 
d="M230 657h89l-18 -91h-89zM65 657h91l-18 -91h-91zM116 471h87l-91 -471h-87z" />
    <glyph glyph-name="afii10105" unicode="&#x458;" horiz-adv-x="206" 
d="M-116 -101q12 -9 28.5 -15.5t33.5 -6.5q12 0 23 4t20 15.5t17 31t14 49.5l96 494h87l-103 -525q-6 -29 -16.5 -55.5t-27.5 -46.5t-42.5 -32t-59.5 -12t-61.5 10.5t-43.5 23.5zM144 655h97l-20 -101h-97z" />
    <glyph glyph-name="afii10106" unicode="&#x459;" horiz-adv-x="822" 
d="M552 471l-30 -157h111q68 0 110.5 -37t42.5 -105q0 -38 -14.5 -70t-40 -54.5t-61 -35t-77.5 -12.5h-216l76 394h-159q-26 -107 -52 -182t-57 -122.5t-69.5 -69.5t-89.5 -22h-15.5t-15.5 2l15 77h8q37 0 65.5 22t52.5 69t46 122t48 181h322zM475 70h124q42 0 71.5 26.5
t29.5 71.5q0 32 -19.5 54t-63.5 22h-109z" />
    <glyph glyph-name="afii10107" unicode="&#x45a;" horiz-adv-x="795" 
d="M392 222h-240l-43 -222h-84l91 471h84l-33 -173h239l34 173h84l-33 -173h123q64 0 104.5 -35t40.5 -100q0 -36 -13.5 -66t-38 -51.5t-58 -33.5t-73.5 -12h-227zM446 69h138q38 0 64.5 23.5t26.5 64.5q0 29 -18 48.5t-57 19.5h-124z" />
    <glyph glyph-name="afii10108" unicode="&#x45b;" horiz-adv-x="522" 
d="M75 595h65l14 72h84l-14 -72h180l-12 -62h-180l-28 -144q35 38 74 59.5t90 21.5q68 0 104 -38t36 -104q0 -9 -1 -24t-4 -31l-53 -273h-86l51 266l3.5 23t1.5 21q0 37 -17.5 59.5t-59.5 22.5q-33 0 -61 -14.5t-50.5 -39t-37.5 -56.5t-22 -67l-41 -215h-86l103 533h-65z
" />
    <glyph glyph-name="afii10109" unicode="&#x45c;" horiz-adv-x="483" 
d="M25 0l91 471h86l-38 -194h57q31 0 51.5 17t44.5 46l105 131h92l-124 -156q-23 -28 -42 -45t-48 -27q24 -8 38.5 -27t26.5 -48l73 -168h-95l-66 154q-9 21 -20.5 35t-41.5 14h-65l-39 -203h-86zM356 683h95l-98 -136h-71z" />
    <glyph glyph-name="uni045D" unicode="&#x45d;" horiz-adv-x="533" 
d="M355 0l68 351l-320 -351h-78l91 471h83l-67 -347l317 347h80l-91 -471h-83zM250 683h93l28 -136h-69z" />
    <glyph glyph-name="afii10110" unicode="&#x45e;" horiz-adv-x="483" 
d="M-7 -119q12 -9 27 -14.5t29 -5.5q15 0 27.5 6.5t24.5 20.5t25 36l31 53l17 30l-108 464h96l74 -357l196 357h97l-314 -542q-20 -34 -37.5 -60.5t-36.5 -44.5t-41.5 -27.5t-51.5 -9.5q-24 0 -48.5 9t-39.5 23zM250 664v-8q0 -26 14 -40t42 -14q61 0 79 62h63
q-9 -52 -49 -85.5t-99 -33.5q-54 0 -83.5 27.5t-29.5 69.5q0 5 0.5 11t1.5 11h61z" />
    <glyph glyph-name="afii10193" unicode="&#x45f;" horiz-adv-x="530" 
d="M25 0l91 471h86l-76 -394h238l76 394h86l-91 -471h-165l-24 -124h-79l24 124h-166z" />
    <glyph glyph-name="afii10066.locl" horiz-adv-x="550" 
d="M44 187q0 49 17 89t46.5 71.5t68 54t80.5 35.5q-25 20 -42 45t-17 61q0 59 46.5 91.5t124.5 32.5h155l-13 -70h-155q-41 0 -60 -14.5t-19 -36.5t17.5 -39t44.5 -34l57.5 -36.5t57.5 -45.5t44.5 -62t17.5 -86q0 -52 -20 -98.5t-55 -82t-82 -56t-102 -20.5
q-43 0 -81.5 13.5t-67.5 39t-46 63t-17 85.5zM426 238q0 31 -9.5 54.5t-25 42.5t-36.5 34.5t-44 30.5q-38 -11 -70 -30.5t-56 -46t-37.5 -59t-13.5 -70.5q0 -33 10 -57.5t27.5 -41t40.5 -25t50 -8.5q36 0 66 14t51.5 38t34 56t12.5 68z" />
    <glyph glyph-name="afii10068.locl.ita" horiz-adv-x="212" 
d="M121 471h87l-91 -471h-87zM76 643h240l-14 -72h-240z" />
    <glyph glyph-name="afii10069.locl.ita" horiz-adv-x="528" 
d="M433 -4q-22 -108 -83.5 -158t-165.5 -50q-54 0 -96.5 14.5t-68.5 32.5l40 71q26 -17 60.5 -28.5t71.5 -11.5q69 0 105.5 35t50.5 104l11 55q-5 -6 -17 -17t-30.5 -21.5t-43.5 -18t-58 -7.5q-72 0 -118.5 45t-46.5 139q0 60 20.5 114.5t59 96t93.5 66.5t124 25
q26 0 52 -3.5t49.5 -8.5t43 -11.5t33.5 -12.5zM423 394q-21 8 -47 10.5t-43 2.5q-49 0 -86 -18t-62 -49t-38 -71t-13 -84q0 -26 4.5 -46.5t16 -35.5t30 -23t46.5 -8q33 0 59.5 11t46 28.5t31 39.5t16.5 45z" />
    <glyph glyph-name="afii10081.locl.ita" horiz-adv-x="523" 
d="M519 471l-71 -370l-10.5 -53.5t-8.5 -47.5h-82l11 70q-38 -42 -77 -61.5t-92 -19.5q-60 0 -96.5 38t-36.5 102q0 11 1 26t4 31l55 285h86l-53 -278q-5 -28 -5 -42q0 -40 17 -62t59 -22q32 0 60 14.5t50 38.5t37.5 56.5t22.5 68.5l43 226h86zM149 643h404l-14 -72h-404z
" />
    <glyph glyph-name="afii10084.locl.ita" horiz-adv-x="819" 
d="M815 471l-71 -370l-10.5 -53.5t-8.5 -47.5h-82l11 70q-38 -42 -77 -61.5t-88 -19.5q-40 0 -72 23t-46 63q-42 -45 -83.5 -65.5t-98.5 -20.5q-29 0 -53 10t-42 28t-28 44t-10 58q0 11 1 26t4 31l55 285h86l-53 -278q-5 -28 -5 -42q0 -40 19 -62t57 -22q54 0 95 33.5
t55 102.5l52 268h86l-53 -278q-5 -28 -5 -42q0 -40 18 -62t52 -22q30 0 57 14.5t49 38.5t37.5 56.5t22.5 68.5l43 226h86zM149 643h700l-14 -72h-700z" />
    <glyph glyph-name="uni0462" unicode="&#x462;" horiz-adv-x="696" 
d="M318 711h91l-19 -96h231l-15 -79h-231l-26 -133h124q93 0 143.5 -47.5t50.5 -132.5q0 -48 -17 -88.5t-50 -70.5t-81 -47t-110 -17h-229l104 536h-190l16 79h189zM333 324l-47 -244h130q71 0 113.5 36.5t42.5 101.5q0 51 -28.5 78.5t-83.5 27.5h-127z" />
    <glyph glyph-name="uni0463" unicode="&#x463;" horiz-adv-x="588" 
d="M279 294h129q64 0 104 -35t40 -98q0 -36 -13.5 -65.5t-37.5 -50.5t-57.5 -33t-72.5 -12h-234l77 400h-141l14 71h141l38 196h85l-38 -196h170l-14 -71h-170zM235 67h138q39 0 66 24.5t27 66.5q0 29 -18 49.5t-58 20.5h-124z" />
    <glyph glyph-name="uni0472" unicode="&#x472;" horiz-adv-x="743" 
d="M448 684q60 0 112.5 -19t90.5 -55.5t60 -91t22 -124.5q0 -78 -27 -152t-76.5 -131.5t-119 -92.5t-154.5 -35q-62 0 -114.5 19.5t-91 57t-60.5 92t-22 123.5q0 77 27.5 150.5t77.5 131t120 92.5t155 35zM161 304v-21q0 -47 13 -86.5t38 -68t62 -45t85 -16.5q53 0 97.5 19
t79.5 51.5t59 75.5t35 91h-469zM640 380v5q0 44 -12 83.5t-36 69t-61.5 47t-88.5 17.5q-53 0 -96.5 -18t-77.5 -48.5t-57.5 -71t-36.5 -84.5h466z" />
    <glyph glyph-name="uni0473" unicode="&#x473;" horiz-adv-x="549" 
d="M323 486q44 0 80 -14t62 -41t40.5 -66t14.5 -88q0 -59 -20.5 -112t-56.5 -92.5t-85.5 -63t-108.5 -23.5q-45 0 -82.5 14.5t-64 41t-41 65t-14.5 86.5q0 58 21 111.5t58.5 93.5t87.5 64t109 24zM250 59q29 0 57 10t52 29t42 46t28 61h-300q0 -66 30.5 -106t90.5 -40z
M316 413q-30 0 -58.5 -10.5t-51.5 -29.5t-41 -45.5t-27 -58.5h300q0 69 -32 106.5t-90 37.5z" />
    <glyph glyph-name="uni0474" unicode="&#x474;" horiz-adv-x="684" 
d="M104 667h99l89 -547l229 425q35 65 79.5 97t106.5 32q20 0 48 -5l-15 -82q-7 1 -13.5 1.5t-13.5 0.5q-36 0 -63 -18t-50 -60l-284 -511h-94z" />
    <glyph glyph-name="uni0475" unicode="&#x475;" horiz-adv-x="542" 
d="M65 471h97l66 -367l153 272q28 50 63 75t86 25q17 0 38 -3l-15 -76q-6 1 -11.5 1.5t-10.5 0.5q-24 0 -42 -12.5t-37 -44.5l-200 -342h-86z" />
    <glyph glyph-name="uni048A" unicode="&#x48a;" horiz-adv-x="677" 
d="M474 0l100 519l-450 -519h-86l129 667h91l-100 -517l447 517h89l-113 -583h54l-6 -30q-16 -82 -52.5 -139.5t-96.5 -95.5l-45 59q35 26 61 55.5t40 66.5h-62zM399 854q-1 -4 -1 -7.5v-6.5q0 -24 13.5 -38.5t42.5 -14.5q36 0 56.5 20t27.5 47h74q-5 -25 -18 -48.5
t-33.5 -42t-48.5 -30t-63 -11.5q-63 0 -93 29.5t-30 77.5q0 6 0.5 12t1.5 13h71z" />
    <glyph glyph-name="uni048B" unicode="&#x48b;" horiz-adv-x="551" 
d="M355 0l68 351l-320 -351h-78l91 471h83l-67 -347l317 347h80l-76 -394h50l-5 -26q-13 -72 -46 -119t-82 -80l-45 54q27 20 48 43t34 51h-52zM290 662v-8q0 -26 14 -40t42 -14q61 0 79 62h63q-9 -52 -49 -85.5t-99 -33.5q-54 0 -83.5 27.5t-29.5 69.5q0 5 0.5 11t1.5 11
h61z" />
    <glyph glyph-name="uni048C" unicode="&#x48c;" horiz-adv-x="564" 
d="M177 667h91l-17 -89h162l-14 -71h-162l-18 -95h118q95 0 146.5 -49t51.5 -134q0 -50 -17.5 -91.5t-51.5 -72.5t-83 -48t-113 -17h-222l98 507h-69l14 71h69zM203 333l-49 -253h123q75 0 119.5 38t44.5 105q0 53 -30 81.5t-88 28.5h-120z" />
    <glyph glyph-name="uni048D" unicode="&#x48d;" horiz-adv-x="488" 
d="M214 487l-12 -64h163l-12 -58h-163l-14 -71h132q64 0 104 -35t40 -98q0 -36 -13.5 -65.5t-37.5 -50.5t-57.5 -33t-72.5 -12h-236l71 365h-64l12 58h64l12 64h84zM132 67h139q39 0 66 24t27 66q0 30 -18 50t-58 20h-125z" />
    <glyph glyph-name="uni048E" unicode="&#x48e;" horiz-adv-x="545" 
d="M167 667h199q51 0 87.5 -14t60 -38.5t34 -57.5t10.5 -70q0 -78 -40 -128.5t-103 -75.5l31 -83l-57 -20l-32 87q-16 -2 -31.5 -3.5t-32.5 -1.5h-113l-51 -262h-91zM194 338h116h10.5t10.5 1l-34 95l57 20l36 -100q35 17 54.5 49.5t19.5 77.5q0 107 -109 107h-113z" />
    <glyph glyph-name="uni048F" unicode="&#x48f;" horiz-adv-x="541" 
d="M-14 -200l110 570q7 34 9.5 49t4 22t2 11.5t3.5 18.5h82l-11 -70q7 9 21 23.5t35 28t48 23.5t60 10q35 0 65 -12t51.5 -36.5t34 -61.5t12.5 -86q0 -91 -39.5 -160t-103.5 -107l27 -74l-56 -19l-25 69q-20 -6 -40.5 -9.5t-41.5 -3.5q-35 0 -62 9t-58 28l-43 -223h-85z
M130 98q21 -19 47 -29t58 -10q30 0 57 9l-40 113l56 19l36 -103q38 31 58.5 80.5t20.5 109.5q0 57 -21.5 89.5t-72.5 32.5q-32 0 -61 -13.5t-52 -37.5t-39.5 -58t-23.5 -75z" />
    <glyph glyph-name="afii10050" unicode="&#x490;" horiz-adv-x="502" 
d="M167 667h323l27 134h84l-43 -218h-315l-112 -583h-93z" />
    <glyph glyph-name="afii10098" unicode="&#x491;" horiz-adv-x="408" 
d="M419 394h-232l-76 -394h-86l91 471h240l19 102h79z" />
    <glyph glyph-name="uni0492" unicode="&#x492;" horiz-adv-x="506" 
d="M99 265h-68l15 77h68l63 325h400l-15 -84h-309l-46 -241h161l-15 -77h-161l-51 -265h-93z" />
    <glyph glyph-name="uni0493" unicode="&#x493;" horiz-adv-x="415" 
d="M426 394h-225l-30 -153h129l-11 -62h-130l-34 -179h-86l34 179h-64l12 62h64l45 230h311z" />
    <glyph glyph-name="uni0494" unicode="&#x494;" horiz-adv-x="616" 
d="M38 0l129 667h410l-16 -84h-318l-36 -188q29 12 60 19.5t65 7.5q49 0 92 -17t75 -50t50 -82.5t18 -114.5q0 -82 -28.5 -150t-75.5 -116.5t-109.5 -75.5t-129.5 -27q-24 0 -49.5 3.5t-50.5 11.5l27 83q17 -5 35.5 -8.5t35.5 -3.5q49 0 94 20t79.5 56.5t55 87.5t20.5 113
q0 52 -14.5 88.5t-37.5 58.5t-52.5 32t-60.5 10q-30 0 -59.5 -8t-55.5 -20l-60 -313h-93z" />
    <glyph glyph-name="uni0495" unicode="&#x495;" horiz-adv-x="497" 
d="M446 394h-259l-25 -130q46 20 96 20q40 0 75.5 -14t61 -40.5t40.5 -65t15 -88.5q0 -60 -21.5 -110.5t-58 -87.5t-85 -57.5t-102.5 -20.5q-44 0 -84 13l26 72q14 -3 27.5 -5t28.5 -2q40 0 73.5 15.5t58 42t38 62t13.5 75.5q0 36 -10.5 62.5t-28.5 43.5t-41.5 25t-48.5 8
q-46 0 -87 -22l-37 -190h-86l90 471h346z" />
    <glyph glyph-name="uni0496" unicode="&#x496;" horiz-adv-x="880" 
d="M428 0h-89l59 303h-58q-29 0 -54.5 -18.5t-52.5 -60.5l-148 -224h-105l173 256q29 43 53 63t53 29q-22 11 -38 34t-27 61l-60 224h93l54 -207q19 -72 78 -72h54l55 279h89l-55 -279h50q33 0 57 17.5t47 54.5l135 207h101l-159 -242q-38 -57 -91 -77q25 -10 42 -31.5
t28 -60.5l51 -172h62l-46 -238h-85l32 154h-39l-60 224q-11 41 -30 60t-51 19h-59z" />
    <glyph glyph-name="uni0497" unicode="&#x497;" horiz-adv-x="715" 
d="M267 0l39 202h-42q-26 0 -42.5 -12.5t-38.5 -42.5l-113 -147h-95l132 171q23 29 40.5 45.5t42.5 24.5q-24 13 -37.5 34t-22.5 48l-51 148h81l49 -135q10 -29 24 -44.5t43 -15.5h44l38 195h83l-38 -195h47q27 0 45.5 16t42.5 48l98 131h86l-123 -166q-17 -23 -35.5 -40
t-41.5 -25q22 -9 34.5 -27t23.5 -44l35 -92h62l-39 -201h-79l24 124h-27l-58 154q-8 23 -20.5 35.5t-42.5 12.5h-46l-39 -202h-83z" />
    <glyph glyph-name="uni0498" unicode="&#x498;" horiz-adv-x="548" 
d="M216 387h98q25 0 50.5 7.5t46.5 22.5t34 38t13 53q0 48 -32.5 72t-81.5 24q-54 0 -94 -26t-74 -61l-55 58q17 20 40.5 39.5t53 35t64.5 25t74 9.5q45 0 81.5 -12.5t61.5 -35t38.5 -52.5t13.5 -66q0 -64 -40 -111t-104 -64q18 -5 36.5 -16t33.5 -29t24.5 -43t9.5 -58
q0 -47 -19.5 -86t-53.5 -67.5t-78.5 -44t-95.5 -15.5q-44 0 -81.5 11t-67.5 29t-51.5 40.5t-34.5 45.5l68 52q9 -16 24.5 -33t37 -31t48.5 -23t60 -9t60.5 9.5t47.5 27t31.5 42t11.5 54.5q0 28 -10 48t-25.5 32.5t-35.5 18.5t-40 6h-104zM132 -167q15 -6 35.5 -10t38.5 -4
q29 0 47 12t18 32q0 17 -13 23.5t-35 6.5q-35 0 -72 -13l17 55q16 5 37 9t52 4q40 0 65.5 -21.5t25.5 -53.5q0 -29 -12 -49.5t-31.5 -34t-44.5 -19.5t-52 -6q-42 0 -66 6.5t-29 8.5z" />
    <glyph glyph-name="uni0499" unicode="&#x499;" horiz-adv-x="444" 
d="M146 276h79q51 0 86.5 18t35.5 58q0 29 -22 46t-66 17q-48 0 -82.5 -18t-65.5 -44l-42 55q37 35 88 56.5t112 21.5q77 0 120 -34t43 -88q0 -47 -30.5 -79.5t-75.5 -45.5q34 -11 55 -37.5t21 -68.5q0 -37 -16.5 -64.5t-44 -45.5t-64.5 -27t-78 -9q-66 0 -117.5 21.5
t-80.5 58.5l48 52q25 -28 63 -44t88 -16q23 0 44 4t37.5 13t26.5 24t10 37q0 37 -27.5 52.5t-75.5 15.5h-83zM73 -164q15 -6 33.5 -10t36.5 -4q33 0 50 12t17 32q0 17 -12 23.5t-38 6.5q-17 0 -34 -3.5t-34 -9.5l17 55q16 5 35 9t50 4q40 0 64 -21.5t24 -53.5
q0 -29 -11 -49.5t-29.5 -34t-43.5 -19.5t-53 -6q-42 0 -64 6.5t-27 8.5z" />
    <glyph glyph-name="uni049A" unicode="&#x49a;" horiz-adv-x="621" 
d="M130 0h-92l129 667h92l-54 -278h53q38 0 63.5 16t49.5 48l163 214h107l-181 -236q-27 -36 -50.5 -54.5t-53.5 -29.5q29 -11 47.5 -32.5t33.5 -58.5l68 -172h60l-45 -238h-84l29 154h-30l-86 224q-15 41 -37 60t-61 19h-62z" />
    <glyph glyph-name="uni049B" unicode="&#x49b;" horiz-adv-x="504" 
d="M25 0l91 471h86l-38 -194h57q31 0 51.5 17t44.5 46l105 131h92l-124 -156q-23 -28 -42 -45t-48 -27q24 -8 38.5 -27t26.5 -48l39 -91h62l-39 -201h-79l24 124h-29l-66 154q-9 21 -20.5 35t-41.5 14h-65l-39 -203h-86z" />
    <glyph glyph-name="uni049C" unicode="&#x49c;" horiz-adv-x="606" 
d="M130 0h-92l129 667h92l-54 -278h57l24 120h58l-24 -117q20 5 38 17.5t41 43.5l158 214h107l-176 -236q-26 -35 -48.5 -54t-51.5 -30q28 -11 45.5 -32.5t31.5 -58.5l96 -256h-103l-81 224q-14 38 -31 54.5t-44 21.5l-23 -125h-58l25 128h-57z" />
    <glyph glyph-name="uni049D" unicode="&#x49d;" horiz-adv-x="514" 
d="M25 0l91 471h86l-38 -194h53l19 100h54l-19 -99q20 3 35 17t40 45l105 131h94l-124 -156q-21 -27 -42.5 -45t-48.5 -28q23 -8 36.5 -26t24.5 -43l75 -173h-95l-66 154q-11 25 -20.5 35.5t-28.5 12.5l-19 -103h-55l20 104h-52l-39 -203h-86z" />
    <glyph glyph-name="uni049E" unicode="&#x49e;" horiz-adv-x="591" 
d="M135 0h-92l99 513h-70l15 77h70l15 77h92l-15 -77h79l-14 -77h-80l-25 -127h57q38 0 63.5 16.5t49.5 48.5l163 216h107l-181 -238q-28 -36 -51 -55t-53 -30q29 -11 48 -32.5t33 -57.5l101 -254h-103l-86 222q-15 40 -37 59t-61 19h-66z" />
    <glyph glyph-name="uni049F" unicode="&#x49f;" horiz-adv-x="493" 
d="M51 415h64l11 56h86l-11 -56h60l-11 -58h-60l-16 -83h57q31 0 51.5 17t44.5 47l105 133h92l-124 -158q-23 -29 -42 -46t-48 -27q24 -8 38.5 -27t26.5 -47l73 -166h-95l-66 152q-9 20 -20.5 34t-41.5 14h-65l-39 -200h-86l69 357h-64z" />
    <glyph glyph-name="uni04A0" unicode="&#x4a0;" horiz-adv-x="675" 
d="M229 0h-92l113 583h-149l16 84h241l-54 -278h46q38 0 63.5 16t49.5 48l163 214h107l-181 -236q-27 -36 -50.5 -54.5t-53.5 -29.5q29 -11 47.5 -32.5t33.5 -58.5l101 -256h-103l-86 224q-15 41 -37 60t-61 19h-55z" />
    <glyph glyph-name="uni04A1" unicode="&#x4a1;" horiz-adv-x="568" 
d="M115 0l76 394h-120l16 77h205l-38 -194h52q31 0 51.5 17t44.5 46l105 131h92l-124 -156q-23 -28 -42 -45t-48 -27q24 -8 38.5 -27t26.5 -48l73 -168h-95l-66 154q-9 21 -20.5 35t-41.5 14h-60l-39 -203h-86z" />
    <glyph glyph-name="uni04A2" unicode="&#x4a2;" horiz-adv-x="675" 
d="M167 667h92l-54 -280h341l54 280h92l-112 -581h54l-46 -240h-84l29 154h-62l58 303h-341l-58 -303h-92z" />
    <glyph glyph-name="uni04A3" unicode="&#x4a3;" horiz-adv-x="554" 
d="M532 471l-76 -394h50l-39 -201h-79l24 124h-57l39 202h-244l-39 -202h-86l91 471h86l-37 -193h244l37 193h86z" />
    <glyph glyph-name="uni04A4" unicode="&#x4a4;" horiz-adv-x="758" 
d="M167 667h92l-54 -280h331l54 280h239l-16 -84h-147l-113 -583h-92l58 303h-331l-58 -303h-92z" />
    <glyph glyph-name="uni04A5" unicode="&#x4a5;" horiz-adv-x="620" 
d="M646 471l-14 -77h-120l-76 -394h-86l39 202h-239l-39 -202h-86l91 471h86l-37 -193h239l37 193h205z" />
    <glyph glyph-name="uni04A6" unicode="&#x4a6;" horiz-adv-x="1034" 
d="M167 667h514l-49 -252q60 24 117 24q50 0 93 -17.5t75 -52t50 -85t18 -116.5q0 -82 -28 -151.5t-75 -120t-110 -79t-132 -28.5q-51 0 -102 15l28 81q36 -10 70 -10q52 0 98 22t80.5 60.5t54.5 91.5t20 115q0 51 -13.5 87.5t-36 60.5t-53 35t-63.5 11q-52 0 -107 -25
l-64 -333h-92l113 583h-330l-112 -583h-93z" />
    <glyph glyph-name="uni04A7" unicode="&#x4a7;" horiz-adv-x="820" 
d="M523 471l-38 -195q46 21 98 21q40 0 75 -14t60.5 -41t40.5 -67t15 -91q0 -62 -21.5 -114t-58.5 -90t-85.5 -59t-103.5 -21q-44 0 -83 13l24 72q15 -3 28.5 -5t28.5 -2q40 0 73.5 16t58 43.5t38.5 64.5t14 79q0 37 -10.5 64.5t-28.5 45t-41 26t-48 8.5q-47 0 -88 -22
l-39 -203h-86l76 394h-235l-76 -394h-86l91 471h407z" />
    <glyph glyph-name="uni04A8" unicode="&#x4a8;" horiz-adv-x="738" 
d="M718 325q0 -42 -12.5 -82t-34.5 -76t-52.5 -66.5t-66.5 -53.5q8 -1 16 -1.5t16 -0.5q26 0 50 5.5t47 13.5l16 -58q-24 -11 -53.5 -17t-61.5 -6q-31 0 -58 5.5t-50 15.5q-55 -20 -115 -20t-113 21t-92.5 61t-62.5 96.5t-23 127.5q0 84 31.5 155.5t84 124.5t120.5 83
t141 30q33 0 66 -6t65 -20l-30 -76q-26 11 -51.5 15.5t-51.5 4.5q-56 0 -107.5 -23t-90.5 -64t-62.5 -97.5t-23.5 -124.5q0 -51 14 -94t41.5 -74t68 -48.5t92.5 -17.5h11t11 1q-38 42 -56.5 97t-18.5 111q0 52 17.5 97.5t47.5 79t70 52.5t86 19q38 0 70 -13.5t55.5 -38.5
t36.5 -60t13 -78zM402 254q0 -57 19 -102.5t57 -73.5q39 16 68.5 43.5t49.5 60t30 68.5t10 70q0 58 -27 90t-72 32q-29 0 -54 -14t-43 -39t-28 -59.5t-10 -75.5z" />
    <glyph glyph-name="uni04A9" unicode="&#x4a9;" horiz-adv-x="550" 
d="M504 -2q-33 -12 -74 -12q-43 0 -80 14q-20 -6 -41.5 -10t-44.5 -4q-47 0 -87 16t-69 45t-45 69.5t-16 89.5q0 58 21.5 109t59 89t86.5 60t105 22q46 0 91 -16l-23 -66q-32 12 -64 12q-38 0 -73 -16t-61.5 -43.5t-42.5 -65.5t-16 -82q0 -33 9 -61.5t27.5 -50.5t46 -34.5
t63.5 -12.5h7q-23 25 -35 57t-12 70q0 34 11.5 64.5t32 54t48.5 37t62 13.5q56 0 90.5 -35.5t34.5 -94.5q0 -53 -29 -100t-77 -79q5 -1 10 -1h10q29 0 64 11zM303 174q0 -35 12 -63t33 -46q45 19 72.5 58t27.5 88q0 38 -17 57t-44 19q-38 0 -61 -32.5t-23 -80.5z" />
    <glyph glyph-name="uni04AA" unicode="&#x4aa;" horiz-adv-x="653" 
d="M612 107q-49 -58 -115.5 -91t-147.5 -33q-65 0 -116.5 21.5t-88.5 60t-56.5 92t-19.5 118.5q0 80 28 154t78.5 130.5t120.5 90.5t153 34q87 0 143.5 -37.5t88.5 -101.5l-72 -46q-31 53 -69.5 76.5t-99.5 23.5t-111.5 -26t-86.5 -70t-55.5 -101t-19.5 -119q0 -45 12.5 -84
t36 -67.5t58.5 -45t80 -16.5q64 0 112.5 26.5t84.5 71.5zM215 -167q15 -6 35.5 -10t38.5 -4q29 0 47 12t18 32q0 17 -13 23.5t-35 6.5q-35 0 -72 -13l17 55q16 5 37 9t52 4q40 0 65.5 -21.5t25.5 -53.5q0 -29 -12 -49.5t-31.5 -34t-44.5 -19.5t-52 -6q-42 0 -66 6.5t-29 8.5
z" />
    <glyph glyph-name="uni04AB" unicode="&#x4ab;" horiz-adv-x="476" 
d="M428 64q-32 -34 -77 -56t-105 -22q-94 0 -146.5 55.5t-52.5 152.5q0 60 20.5 113.5t56.5 93t85 62.5t106 23q120 0 166 -106l-67 -37q-15 31 -39.5 49t-65.5 18q-39 0 -70.5 -17t-54 -45.5t-35 -66t-12.5 -78.5q0 -68 33 -104.5t89 -36.5q35 0 65 15t56 41zM111 -164
q15 -6 33.5 -10t36.5 -4q33 0 50 12t17 32q0 17 -12 23.5t-38 6.5q-17 0 -34 -3.5t-34 -9.5l17 55q16 5 35 9t50 4q40 0 64 -21.5t24 -53.5q0 -29 -11 -49.5t-29.5 -34t-43.5 -19.5t-53 -6q-42 0 -64 6.5t-27 8.5z" />
    <glyph glyph-name="uni04AC" unicode="&#x4ac;" horiz-adv-x="596" 
d="M330 585h-229l16 82h550l-16 -82h-228l-97 -499h54l-46 -240h-84l29 154h-62z" />
    <glyph glyph-name="uni04AD" unicode="&#x4ad;" horiz-adv-x="472" 
d="M498 471l-15 -77h-163l-61 -317h50l-39 -201h-79l24 124h-57l76 394h-163l15 77h412z" />
    <glyph glyph-name="uni04AE" unicode="&#x4ae;" horiz-adv-x="555" 
d="M253 297l-149 370h97l111 -287l223 287h104l-293 -369l-57 -298h-93z" />
    <glyph glyph-name="uni04AF" unicode="&#x4af;" horiz-adv-x="488" 
d="M65 471h97l66 -368l209 368h97l-280 -461l-41 -210h-85l40 209z" />
    <glyph glyph-name="uni04B0" unicode="&#x4b0;" horiz-adv-x="567" 
d="M251 224h-147l14 74h146l-148 369h97l111 -287l223 287h104l-293 -369h146l-14 -74h-146l-43 -224h-93z" />
    <glyph glyph-name="uni04B1" unicode="&#x4b1;" horiz-adv-x="486" 
d="M162 62l-95 409h97l66 -368l209 368h97l-252 -409h104l-12 -62h-122l-39 -200h-85l38 200h-122l12 62h104z" />
    <glyph glyph-name="uni04B2" unicode="&#x4b2;" horiz-adv-x="613" 
d="M264 350l-148 317h104l110 -248l199 248h107l-267 -324l121 -259h68l-46 -238h-84l29 154h-34l-121 272l-220 -272h-108z" />
    <glyph glyph-name="uni04B3" unicode="&#x4b3;" horiz-adv-x="492" 
d="M189 251l-115 220h98l79 -161l135 161h104l-202 -225l87 -169h69l-39 -201h-79l24 124h-32l-91 185l-155 -185h-106z" />
    <glyph glyph-name="uni04B4" unicode="&#x4b4;" horiz-adv-x="819" 
d="M295 583h-190l16 84h464l-16 -84h-182l-97 -499h341l113 583h92l-113 -583h54l-46 -238h-84l30 154h-495z" />
    <glyph glyph-name="uni04B5" unicode="&#x4b5;" horiz-adv-x="664" 
d="M436 471l-14 -77h-128l-61 -317h247l76 394h86l-76 -394h50l-39 -201h-79l24 124h-390l76 394h-137l16 77h349z" />
    <glyph glyph-name="uni04B6" unicode="&#x4b6;" horiz-adv-x="595" 
d="M520 667h92l-113 -582h54l-45 -239h-84l29 154h-62l55 286q-29 -13 -63.5 -21t-71.5 -8q-94 0 -142 52t-48 137q0 30 6 63l30 158h92l-31 -160q-2 -13 -3.5 -24.5t-1.5 -23.5q0 -52 29.5 -85t97.5 -33q35 0 67.5 8.5t55.5 22.5z" />
    </font>
</defs>
</svg>
