<?xml version="1.0" standalone="no"?>
<!DOCTYPE svg PUBLIC "-//W3C//DTD SVG 1.1//EN" "http://www.w3.org/Graphics/SVG/1.1/DTD/svg11.dtd" >
<svg>
<metadata>
Created by FontForge 20090622 at Mon Aug 31 22:49:29 2015
 By deploy user
Copyright 2013 Dalton Maag Ltd. Modification of this file requires prior written permission from Dalton Maag Ltd.
</metadata>
<defs>
<font id="Effra-MediumItalic" horiz-adv-x="360" >
  <font-face 
    font-family="Effra Medium"
    font-weight="500"
    font-style="italic"
    font-stretch="normal"
    units-per-em="1000"
    panose-1="2 11 7 3 2 2 3 9 2 4"
    ascent="798"
    descent="-202"
    x-height="469"
    cap-height="667"
    bbox="-166 -250 1190 930"
    underline-thickness="45"
    underline-position="-123"
    slope="-11"
    unicode-range="U+0008-U+FB04"
  />
<missing-glyph horiz-adv-x="500" 
d="M135 700h442l-136 -700h-442zM388 52l115 596h-317l-115 -596h317z" />
    <glyph glyph-name="f_f" unicode="ff" horiz-adv-x="621" 
d="M422 375h-176l-72 -375h-114l72 375h-77l18 94h78l7 39q16 93 65 135t120 42q37 0 64.5 -9t56.5 -37l-61 -75q-14 13 -26.5 17t-31.5 4q-24 0 -44 -17t-30 -65l-7 -34h177l5 29q32 187 196 187q34 0 67.5 -12.5t60.5 -41.5l-62 -74q-14 13 -29.5 20.5t-36.5 7.5
q-33 0 -53 -22t-30 -70l-5 -24h115l-18 -94h-115l-72 -375h-114z" />
    <glyph glyph-name="f_i" unicode="fi" horiz-adv-x="540" 
d="M408 375h-162l-72 -375h-114l72 375h-77l18 94h78l6 35q8 46 29 80t51.5 56.5t70 33.5t84.5 11q48 0 95.5 -16t80.5 -45l-65 -77q-26 20 -52 29.5t-62 9.5q-42 0 -75 -18.5t-44 -69.5l-6 -29h275l-91 -469h-113z" />
    <glyph glyph-name="f_l" unicode="fl" horiz-adv-x="541" 
d="M455 0h-113l111 574q-15 8 -36 10t-36 2q-39 0 -70 -18.5t-41 -69.5l-6 -29h115l-18 -94h-115l-72 -375h-114l72 375h-77l18 94h78l7 35q18 91 80.5 136t149.5 45q51 0 98 -11.5t92 -38.5z" />
    <glyph glyph-name="f_f_i" unicode="ffi" horiz-adv-x="830" 
d="M158 508q16 93 65 135t120 42q37 0 64.5 -9t56.5 -37l-61 -75q-14 13 -26.5 17t-31.5 4q-24 0 -44 -17t-30 -65l-7 -34h177l6 35q8 46 29 80t51.5 56.5t70 33.5t84.5 11q48 0 95.5 -16t80.5 -45l-65 -77q-26 20 -52 29.5t-62 9.5q-42 0 -75 -18.5t-44 -69.5l-6 -29h275
l-91 -469h-113l73 375h-162l-72 -375h-114l72 375h-176l-72 -375h-114l72 375h-77l18 94h78z" />
    <glyph glyph-name="f_f_l" unicode="ffl" horiz-adv-x="831" 
d="M158 508q16 93 65 135t120 42q37 0 64.5 -9t56.5 -37l-61 -75q-14 13 -26.5 17t-31.5 4q-24 0 -44 -17t-30 -65l-7 -34h177l7 35q18 91 80.5 136t149.5 45q51 0 98 -11.5t92 -39.5l-123 -634h-113l111 574q-15 8 -36 10t-36 2q-39 0 -70 -18.5t-41 -69.5l-6 -29h115
l-18 -94h-115l-72 -375h-114l72 375h-176l-72 -375h-114l72 375h-77l18 94h78z" />
    <glyph glyph-name=".notdef" horiz-adv-x="500" 
d="M135 700h442l-136 -700h-442zM388 52l115 596h-317l-115 -596h317z" />
    <glyph glyph-name=".null" horiz-adv-x="0" 
 />
    <glyph glyph-name=".null" horiz-adv-x="0" 
 />
    <glyph glyph-name=".null" horiz-adv-x="0" 
 />
    <glyph glyph-name="nonmarkingreturn" unicode="&#x9;" horiz-adv-x="166" 
 />
    <glyph glyph-name="nonmarkingreturn" unicode="&#xd;" horiz-adv-x="166" 
 />
    <glyph glyph-name="space" unicode=" " horiz-adv-x="166" 
 />
    <glyph glyph-name="exclam" unicode="!" horiz-adv-x="268" 
d="M171 667h125l-91 -458h-121zM62 138h137l-26 -138h-137z" />
    <glyph glyph-name="quotedbl" unicode="&#x22;" horiz-adv-x="383" 
d="M136 667h107l-45 -232h-107zM310 667h107l-45 -232h-107z" />
    <glyph glyph-name="numbersign" unicode="#" horiz-adv-x="692" 
d="M145 152h-89l18 91h108l57 144h-91l18 91h110l60 151h102l-60 -151h118l60 151h102l-60 -151h94l-18 -91h-113l-57 -144h96l-18 -91h-115l-60 -152h-102l60 152h-118l-60 -152h-102zM402 243l57 144h-118l-57 -144h118z" />
    <glyph glyph-name="dollar" unicode="$" horiz-adv-x="545" 
d="M85 158q30 -32 61 -49.5t69 -22.5l38 195q-31 12 -57.5 28.5t-46 37t-30.5 45.5t-11 54q0 39 15.5 73t44 60t67.5 42t87 18l18 90h72l-19 -96q45 -8 81 -30t62 -55l-73 -66q-38 44 -88 56l-35 -181q69 -27 108 -68.5t39 -99.5q0 -49 -18 -86.5t-48 -63.5t-70 -40t-84 -16
l-17 -89h-72l18 92q-51 7 -98.5 29t-85.5 67zM372 177q0 25 -12 42.5t-41 33.5l-32 -166q42 8 63.5 32t21.5 58zM219 462q0 -45 55 -75l30 154q-43 -6 -64 -27t-21 -52z" />
    <glyph glyph-name="percent" unicode="%" horiz-adv-x="868" 
d="M641 630h110l-483 -630h-111zM400 511q0 -50 -15.5 -91.5t-41.5 -71.5t-59 -46.5t-69 -16.5q-33 0 -57.5 11t-40.5 29.5t-24 43t-8 52.5q0 50 16 91.5t42 71.5t59.5 46.5t68.5 16.5q33 0 57 -11t40 -29.5t24 -43t8 -52.5zM177 424q0 -32 12.5 -47t34.5 -15q15 0 30 10
t27 29t19.5 46.5t7.5 61.5q0 31 -12.5 46t-34.5 15q-15 0 -30 -10t-27 -28.5t-19.5 -46t-7.5 -61.5zM829 217q0 -50 -15.5 -91.5t-41.5 -71.5t-59 -46.5t-69 -16.5q-33 0 -57.5 11t-40.5 29.5t-24 43t-8 52.5q0 50 16 91.5t42 71.5t59.5 46.5t68.5 16.5q33 0 57 -11
t40 -29.5t24 -43t8 -52.5zM606 130q0 -32 12.5 -47t34.5 -15q15 0 30 10t27 29t19.5 46.5t7.5 61.5q0 31 -12.5 46t-34.5 15q-15 0 -30 -10t-27 -28.5t-19.5 -46t-7.5 -61.5z" />
    <glyph glyph-name="ampersand" unicode="&#x26;" horiz-adv-x="624" 
d="M613 260l-122 -123l86 -137h-128l-40 62q-29 -24 -53.5 -39t-47 -24t-44.5 -12t-46 -3q-46 0 -81 14.5t-58.5 38.5t-35.5 55.5t-12 65.5q0 72 42.5 128.5t130.5 104.5q-19 32 -26.5 58.5t-7.5 52.5q0 42 13.5 75.5t39 57.5t61 37t79.5 13q55 0 100.5 -28.5t69.5 -92.5
l-89 -46q-20 41 -41 53.5t-43 12.5q-31 0 -54 -19t-23 -57q0 -24 12 -47.5t27 -47.5l116 -190l104 108zM238 94q30 0 60 13.5t58 39.5l-101 161q-45 -23 -74.5 -53.5t-29.5 -76.5q0 -37 22.5 -60.5t64.5 -23.5z" />
    <glyph glyph-name="quotesingle" unicode="'" horiz-adv-x="209" 
d="M136 667h107l-45 -232h-107z" />
    <glyph glyph-name="parenleft" unicode="(" horiz-adv-x="302" 
d="M110 -93q-8 26 -21.5 87t-13.5 146q0 101 22 192.5t52 166t62 128t53 79.5h114q-39 -57 -73 -121.5t-58.5 -135t-39 -148t-14.5 -161.5q0 -39 3 -75.5t7 -67.5t8.5 -54t8.5 -36h-110z" />
    <glyph glyph-name="parenright" unicode=")" horiz-adv-x="302" 
d="M249 706q8 -26 21.5 -87t13.5 -146q0 -101 -22 -192.5t-52 -166t-62 -128.5t-53 -79h-114q39 57 73 121.5t58.5 135t39 148t14.5 161.5q0 39 -3 75.5t-7 67t-8.5 54t-8.5 36.5h110z" />
    <glyph glyph-name="asterisk" unicode="*" horiz-adv-x="476" 
d="M114 467l107 57l-107 57l45 76l103 -64l-5 121h88l-4 -121l101 64l45 -76l-105 -57l105 -57l-45 -76l-101 64l4 -121h-88l5 121l-103 -64z" />
    <glyph glyph-name="plus" unicode="+" horiz-adv-x="545" 
d="M118 370h143l28 148h96l-28 -148h143l-20 -96h-143l-28 -148h-96l28 148h-143z" />
    <glyph glyph-name="comma" unicode="," horiz-adv-x="260" 
d="M86 0h-49l27 137h137l-27 -135l-109 -145h-68z" />
    <glyph glyph-name="hyphen" unicode="-" horiz-adv-x="426" 
d="M105 334h293l-22 -110h-293z" />
    <glyph glyph-name="period" unicode="." horiz-adv-x="260" 
d="M63 136h138l-26 -136h-138z" />
    <glyph glyph-name="slash" unicode="/" horiz-adv-x="417" 
d="M383 685h110l-390 -701h-112z" />
    <glyph glyph-name="zero" unicode="0" horiz-adv-x="545" 
d="M356 648q96 0 145 -61.5t49 -164.5q0 -42 -7 -90.5t-22.5 -97t-40 -93.5t-59 -79.5t-79.5 -55.5t-101 -21q-94 0 -143 61.5t-49 163.5q0 41 7.5 89t23 97t39.5 94.5t58 80.5t78.5 56t100.5 21zM254 96q47 0 80.5 34.5t55.5 84.5t32 105.5t10 96.5q0 57 -22.5 89t-64.5 32
q-31 0 -56.5 -16t-45.5 -43t-34 -61t-23 -69.5t-13.5 -70.5t-4.5 -62q0 -57 22 -88.5t64 -31.5z" />
    <glyph glyph-name="one" unicode="1" horiz-adv-x="545" 
d="M131 102h104l77 397l-121 -63l-43 85l204 109h99l-103 -528h100l-19 -102h-318z" />
    <glyph glyph-name="two" unicode="2" horiz-adv-x="545" 
d="M45 68q14 79 65.5 135.5t126.5 106.5l64 42.5t50 37t32.5 38.5t11.5 46q0 37 -22 54t-55 17q-36 0 -68.5 -20.5t-56.5 -55.5l-80 61q17 22 38 43.5t48.5 38t62 26.5t78.5 10q45 0 78.5 -12.5t56 -34t34 -49.5t11.5 -58q0 -41 -11 -72.5t-32 -57.5t-51 -49t-68 -48
l-56.5 -36.5t-50.5 -36.5t-41 -40.5t-27 -47.5h263l-20 -106h-393z" />
    <glyph glyph-name="three" unicode="3" horiz-adv-x="545" 
d="M260 299q-16 0 -28.5 -2t-28.5 -7l-33 52l201 184h-232l20 103h374l-18 -89l-181 -167q36 -6 62 -22.5t43.5 -39t26 -50.5t8.5 -56q0 -48 -18 -89t-51 -70.5t-79 -46.5t-101 -17q-74 0 -123 23t-84 55l63 85q31 -30 64 -45.5t81 -15.5q28 0 51.5 9t40.5 25t26.5 37.5
t9.5 47.5q0 40 -23 68t-71 28z" />
    <glyph glyph-name="four" unicode="4" horiz-adv-x="545" 
d="M56 215l353 415h118l-81 -410h63l-19 -97h-63l-24 -123h-107l23 123h-282zM338 220l51 256l-218 -256h167z" />
    <glyph glyph-name="five" unicode="5" horiz-adv-x="545" 
d="M235 85q60 0 93.5 37t33.5 97q0 48 -27 70t-72 22q-29 0 -51.5 -7t-45.5 -18l-46 43l97 301h318l-21 -109h-231l-40 -126q18 5 35 7.5t38 2.5q40 0 71 -15t52 -40t31.5 -58t10.5 -69q0 -52 -17.5 -96t-49.5 -76t-77.5 -50t-102.5 -18q-73 0 -119.5 21t-80.5 53l62 82
q32 -29 63 -41.5t76 -12.5z" />
    <glyph glyph-name="six" unicode="6" horiz-adv-x="545" 
d="M504 510q-23 17 -46.5 26t-56.5 9q-35 0 -64.5 -14.5t-53 -38.5t-40.5 -55.5t-26 -66.5q26 17 53 27.5t69 10.5q39 0 70.5 -13.5t53.5 -37t34 -55.5t12 -68q0 -62 -18.5 -109t-50 -78.5t-73.5 -48t-90 -16.5q-53 0 -90.5 18.5t-62 49t-36 71t-11.5 85.5q0 49 8.5 100.5
t26.5 100.5t45 93t63.5 77t83 52t103.5 19q49 0 88 -14.5t68 -37.5zM195 269q-5 -17 -6.5 -32.5t-1.5 -34.5q0 -21 5 -42t17 -38t31 -27.5t46 -10.5q22 0 43 8.5t36.5 25.5t25 42.5t9.5 60.5q0 42 -24 65.5t-66 23.5q-39 0 -67 -12t-48 -29z" />
    <glyph glyph-name="seven" unicode="7" horiz-adv-x="545" 
d="M87 0q33 65 76 141l87 148.5l85 134.5t70 99h-282l21 107h405l-20 -103q-38 -50 -82 -116l-87.5 -137.5t-82.5 -143t-67 -130.5h-123z" />
    <glyph glyph-name="eight" unicode="8" horiz-adv-x="545" 
d="M303 298q-23 -6 -46.5 -16.5t-42.5 -26t-31 -37.5t-12 -50q0 -33 25.5 -60.5t73.5 -27.5q23 0 45 6t39.5 19.5t28 34t10.5 50.5q0 31 -21 61t-69 47zM334 386q19 4 38 12t34 20t24.5 29.5t9.5 40.5q0 32 -21 51.5t-63 19.5q-18 0 -36 -4.5t-32.5 -15t-23.5 -28t-9 -42.5
q0 -24 21 -46.5t58 -36.5zM426 342q15 -10 30.5 -24.5t28 -33t20 -42.5t7.5 -53q0 -37 -15.5 -73.5t-46 -66t-77 -47.5t-108.5 -18q-59 0 -100 15.5t-67 40t-38 55t-12 60.5q0 37 13 67.5t35 55t52 43.5t64 34q-26 21 -45 47.5t-19 68.5q0 33 13.5 64.5t40.5 56.5t66.5 40.5
t92.5 15.5q52 0 88 -13.5t58.5 -34.5t32.5 -47t10 -51q0 -60 -30.5 -96t-93.5 -64z" />
    <glyph glyph-name="nine" unicode="9" horiz-adv-x="545" 
d="M95 124q49 -37 117 -37q34 0 61.5 13t48.5 36t35.5 54t23.5 67q-29 -18 -56 -26t-59 -8q-37 0 -68.5 13.5t-54 37t-35.5 55t-13 67.5q0 63 20 110.5t52.5 79t74.5 47t86 15.5q51 0 88.5 -18t62 -48t36.5 -69.5t12 -83.5q0 -49 -8 -101t-25 -101.5t-43 -93.5t-61.5 -77
t-81.5 -52.5t-103 -19.5q-51 0 -90 13t-70 37zM409 363q4 14 6.5 27.5t2.5 32.5q0 22 -4.5 44.5t-16 40.5t-30.5 29t-48 11q-19 0 -40 -7t-38 -22.5t-28.5 -41t-11.5 -61.5q0 -94 93 -94q35 0 64.5 11.5t50.5 29.5z" />
    <glyph glyph-name="colon" unicode=":" horiz-adv-x="260" 
d="M63 136h138l-26 -136h-138zM128 469h138l-26 -136h-138z" />
    <glyph glyph-name="semicolon" unicode=";" horiz-adv-x="260" 
d="M86 0h-49l27 137h137l-27 -135l-109 -145h-68zM128 469h138l-26 -136h-138z" />
    <glyph glyph-name="less" unicode="&#x3c;" horiz-adv-x="545" 
d="M114 357l368 187l37 -81l-289 -143l228 -151l-53 -77l-305 193z" />
    <glyph glyph-name="equal" unicode="=" horiz-adv-x="545" 
d="M134 452h382l-19 -96h-382zM102 286h382l-19 -96h-382z" />
    <glyph glyph-name="greater" unicode="&#x3e;" horiz-adv-x="545" 
d="M484 282l-368 -187l-37 83l291 145l-230 149l53 75l305 -193z" />
    <glyph glyph-name="question" unicode="?" horiz-adv-x="501" 
d="M181 237q8 50 39 91t76 71l38.5 26t29.5 24.5t19 26.5t7 32q0 32 -20 50.5t-58 18.5t-72 -16t-66 -51l-74 71q93 104 227 104q39 0 73 -10t59.5 -30t40.5 -49.5t15 -67.5q0 -59 -29 -98.5t-78 -73.5l-40 -28.5t-34 -28.5t-25.5 -32.5t-14.5 -40.5l-3 -17h-115zM152 138
h137l-26 -138h-137z" />
    <glyph glyph-name="at" unicode="@" horiz-adv-x="929" 
d="M564 213q-12 2 -28.5 4t-44.5 2q-35 0 -59.5 -7t-39.5 -19t-22 -27.5t-7 -32.5q0 -29 18.5 -42.5t53.5 -13.5q19 0 38.5 6.5t36.5 18.5t29 30t17 41zM654 119q-1 -5 -1.5 -8t-0.5 -6q0 -17 9 -21.5t20 -4.5q37 0 63.5 27t43.5 66t24.5 83.5t7.5 80.5q0 59 -21 106.5
t-59.5 81t-92 51.5t-117.5 18q-84 0 -153 -22.5t-119 -66t-77.5 -106t-27.5 -143.5q0 -51 16 -109t53 -116l-81 -46q-52 77 -68.5 143t-16.5 125q0 93 34 172t97 137.5t152.5 91.5t200.5 33q82 0 151.5 -26t120 -72.5t79 -109.5t28.5 -137q0 -68 -17.5 -132t-52 -114
t-84.5 -80.5t-115 -30.5q-47 0 -70 13.5t-34 46.5q-32 -33 -72.5 -45.5t-79.5 -12.5q-64 0 -102.5 33.5t-38.5 93.5q0 42 16.5 77t47 60t73.5 39t96 14q29 0 52 -2t42 -4q3 12 3 23q0 32 -25 50.5t-62 18.5q-48 0 -77.5 -13t-54.5 -28l-44 74q30 22 80.5 42.5t120.5 20.5
q76 0 123 -41.5t47 -116.5q0 -17 -5 -45z" />
    <glyph glyph-name="A" unicode="A" horiz-adv-x="639" 
d="M352 667h133l112 -667h-129l-24 170h-244l-88 -170h-132zM431 272l-37 270l-141 -270h178z" />
    <glyph glyph-name="B" unicode="B" horiz-adv-x="577" 
d="M166 667h220q48 0 82.5 -13.5t57 -35t33 -48.5t10.5 -55q0 -36 -9.5 -62t-26 -45.5t-39 -33t-49.5 -22.5q18 -5 37 -16.5t34.5 -28.5t25.5 -40.5t10 -51.5q0 -59 -22 -100t-61 -66.5t-91.5 -37t-113.5 -11.5h-227zM330 400q21 0 42 4.5t38 15.5t27.5 29t10.5 45
q0 39 -24.5 54t-66.5 15h-94l-31 -163h98zM292 105q28 0 52.5 6t42.5 19t28.5 34t10.5 50q0 48 -27.5 65.5t-75.5 17.5h-112l-37 -192h118z" />
    <glyph glyph-name="C" unicode="C" horiz-adv-x="652" 
d="M632 111q-52 -60 -119 -94.5t-155 -34.5q-65 0 -118 21.5t-91 60.5t-59 93.5t-21 120.5q0 81 28 154.5t78.5 130t120.5 89.5t154 33q97 0 158 -41.5t93 -113.5l-102 -58q-27 49 -61 74.5t-97 25.5q-55 0 -100 -24t-77 -63t-49.5 -90t-17.5 -105q0 -39 11.5 -74t33 -61
t53 -41t72.5 -15q60 0 104 25t80 70z" />
    <glyph glyph-name="D" unicode="D" horiz-adv-x="689" 
d="M166 667h216q67 0 122 -18.5t95 -53.5t62 -85.5t22 -113.5q0 -87 -28.5 -160t-81 -125.5t-127.5 -81.5t-169 -29h-240zM295 111q58 0 106 20t81.5 56t52 85.5t18.5 108.5q0 81 -46 128t-143 47h-99l-86 -445h116z" />
    <glyph glyph-name="E" unicode="E" horiz-adv-x="540" 
d="M166 667h415l-22 -110h-294l-31 -159h217l-21 -110h-217l-34 -176h317l-22 -112h-437z" />
    <glyph glyph-name="F" unicode="F" horiz-adv-x="511" 
d="M166 667h414l-21 -110h-293l-34 -175h219l-22 -110h-219l-52 -272h-121z" />
    <glyph glyph-name="G" unicode="G" horiz-adv-x="684" 
d="M622 78q-53 -43 -115.5 -69.5t-148.5 -26.5q-65 0 -118 21.5t-91 60.5t-59 93.5t-21 120.5q0 81 28 154.5t78.5 130t120.5 89.5t154 33q97 0 157.5 -41.5t92.5 -113.5l-101 -57q-28 51 -63.5 75t-94.5 24q-55 0 -100 -24t-77 -63t-49.5 -90t-17.5 -105q0 -39 11.5 -74
t33 -61t53 -41t72.5 -15q24 0 44 2t38 6.5t34.5 13t34.5 22.5l20 105h-113l20 104h230z" />
    <glyph glyph-name="H" unicode="H" horiz-adv-x="680" 
d="M166 667h121l-51 -269h303l51 269h121l-129 -667h-121l55 288h-303l-55 -288h-121z" />
    <glyph glyph-name="I" unicode="I" horiz-adv-x="256" 
d="M167 667h121l-130 -667h-121z" />
    <glyph glyph-name="J" unicode="J" horiz-adv-x="492" 
d="M77 155q29 -32 57 -44.5t61 -12.5q24 0 43 5t34 18t25.5 35t16.5 55l89 456h121l-93 -479q-21 -109 -79.5 -157.5t-148.5 -48.5q-64 0 -114.5 22t-88.5 70z" />
    <glyph glyph-name="K" unicode="K" horiz-adv-x="607" 
d="M166 667h121l-54 -279l290 279h145l-279 -274l174 -393h-136l-136 312l-89 -83l-44 -229h-121z" />
    <glyph glyph-name="L" unicode="L" horiz-adv-x="531" 
d="M166 667h121l-108 -555h317l-21 -112h-438z" />
    <glyph glyph-name="M" unicode="M" horiz-adv-x="756" 
d="M185 667h113l109 -319l245 319h114l-99 -667h-118l72 466l-213 -276h-58l-101 273l-110 -463h-113z" />
    <glyph glyph-name="N" unicode="N" horiz-adv-x="674" 
d="M166 667h110l219 -472l92 472h118l-129 -667h-104l-224 479l-93 -479h-118z" />
    <glyph glyph-name="O" unicode="O" horiz-adv-x="743" 
d="M197 288q0 -39 11 -73.5t33 -60t54.5 -40.5t75.5 -15q54 0 99 24.5t76.5 64t49 89.5t17.5 101q0 39 -10.5 74.5t-31.5 62t-53.5 42t-75.5 15.5q-57 0 -102.5 -25t-77 -65.5t-48.5 -91t-17 -102.5zM452 685q61 0 114 -20.5t92 -58t61.5 -90.5t22.5 -117q0 -83 -27.5 -158
t-77.5 -133t-119.5 -92t-154.5 -34q-64 0 -118 21.5t-93 59.5t-61 91t-22 115q0 83 27.5 158.5t77.5 132.5t121 91t157 34z" />
    <glyph glyph-name="P" unicode="P" horiz-adv-x="541" 
d="M167 667h194q47 0 84 -15.5t63 -40.5t39.5 -57.5t13.5 -65.5q0 -63 -22 -108.5t-59.5 -75t-86 -44t-102.5 -14.5h-88l-48 -246h-118zM302 353q60 0 96 31t36 93q0 40 -24 62.5t-70 22.5h-77l-41 -209h80z" />
    <glyph glyph-name="Q" unicode="Q" horiz-adv-x="743" 
d="M452 685q61 0 114 -20.5t92 -58t61.5 -90.5t22.5 -117q0 -101 -40 -189.5t-112 -147.5l56 -92l-82 -47l-54 90q-70 -31 -147 -31q-64 0 -118 21.5t-93 59.5t-61 91t-22 115q0 83 27.5 158.5t77.5 132.5t121 91t157 34zM528 166q40 41 62.5 97t22.5 115q0 39 -10.5 74.5
t-31.5 62t-53.5 42t-75.5 15.5q-57 0 -102.5 -25t-77 -65.5t-48.5 -91t-17 -102.5q0 -39 11 -73.5t33 -60t54.5 -40.5t75.5 -15q42 0 78 15l-59 100l81 47z" />
    <glyph glyph-name="R" unicode="R" horiz-adv-x="562" 
d="M205 264l-52 -264h-116l129 667h206q48 0 84.5 -15t60.5 -39.5t36 -56t12 -65.5q0 -44 -12 -79.5t-32.5 -62.5t-47.5 -45.5t-58 -29.5l93 -274h-131l-82 264h-90zM262 561l-38 -195h83q59 0 96 27t37 89q0 38 -24.5 58.5t-70.5 20.5h-83z" />
    <glyph glyph-name="S" unicode="S" horiz-adv-x="564" 
d="M97 174q39 -42 79.5 -61t94.5 -19t86.5 26.5t32.5 69.5q0 19 -5.5 33t-19 26t-35 23t-53.5 24q-36 14 -65.5 31t-50.5 39t-32.5 51t-11.5 68q0 43 17.5 80t50 63.5t77.5 41.5t100 15q72 0 124.5 -25t89.5 -73l-82 -74q-27 32 -60 49t-75 17q-54 0 -84.5 -23t-30.5 -60
q0 -19 6 -33t20 -26t36.5 -23t54.5 -24q79 -32 120.5 -75t41.5 -112q0 -55 -20 -96.5t-54.5 -69t-81 -41.5t-99.5 -14q-67 0 -134.5 24t-118.5 83z" />
    <glyph glyph-name="T" unicode="T" horiz-adv-x="598" 
d="M314 558h-218l22 109h556l-22 -109h-217l-108 -558h-121z" />
    <glyph glyph-name="U" unicode="U" horiz-adv-x="652" 
d="M161 667h121l-76 -390q-3 -17 -5 -31.5t-2 -28.5q0 -115 124 -115q39 0 66 10.5t46 31.5t31 51.5t20 71.5l78 400h120l-82 -420q-26 -137 -98.5 -200.5t-193.5 -63.5q-57 0 -101 16t-73.5 44t-45 67t-15.5 86q0 28 6 60z" />
    <glyph glyph-name="V" unicode="V" horiz-adv-x="633" 
d="M106 667h130l75 -518l272 518h134l-370 -667h-129z" />
    <glyph glyph-name="W" unicode="W" horiz-adv-x="866" 
d="M108 667h125l14 -505l217 486h116l31 -484l202 503h131l-295 -667h-132l-32 464l-210 -464h-131z" />
    <glyph glyph-name="X" unicode="X" horiz-adv-x="607" 
d="M264 350l-148 317h137l99 -225l178 225h138l-262 -323l165 -344h-141l-112 249l-197 -249h-142z" />
    <glyph glyph-name="Y" unicode="Y" horiz-adv-x="582" 
d="M250 286l-149 381h132l97 -270l202 270h139l-300 -380l-55 -287h-121z" />
    <glyph glyph-name="Z" unicode="Z" horiz-adv-x="610" 
d="M29 106l455 452h-351l21 109h503l-20 -106l-451 -452h371l-22 -109h-526z" />
    <glyph glyph-name="bracketleft" unicode="[" horiz-adv-x="325" 
d="M182 706h225l-21 -103h-112l-114 -591h112l-21 -105h-225z" />
    <glyph glyph-name="backslash" unicode="\" horiz-adv-x="417" 
d="M133 685h104l118 -701h-106z" />
    <glyph glyph-name="bracketright" unicode="]" horiz-adv-x="325" 
d="M-1 12h111l114 591h-111l21 103h225l-156 -799h-225z" />
    <glyph glyph-name="asciicircum" unicode="^" horiz-adv-x="536" 
d="M321 667h106l96 -359h-111l-58 245l-155 -245h-114z" />
    <glyph glyph-name="underscore" unicode="_" horiz-adv-x="500" 
d="M-37 -65h495l-11 -55h-495z" />
    <glyph glyph-name="grave" unicode="`" horiz-adv-x="427" 
d="M248 682h115l18 -142h-85z" />
    <glyph glyph-name="a" unicode="a" horiz-adv-x="487" 
d="M335 213q-12 2 -28.5 4t-44.5 2q-35 0 -59.5 -7t-39.5 -19t-22 -27.5t-7 -32.5q0 -29 18.5 -42.5t53.5 -13.5q19 0 38.5 6.5t36.5 18.5t29 30t17 41zM303 46q-32 -33 -68 -46.5t-75 -13.5q-27 0 -52 9t-43.5 25.5t-29.5 41t-11 55.5q0 42 16.5 76.5t47 58.5t73.5 37.5
t96 13.5q29 0 52 -1.5t42 -3.5q3 12 3 23q0 32 -25 50t-62 18q-48 0 -77.5 -13t-54.5 -28l-44 74q30 22 80.5 42.5t120.5 20.5q76 0 123 -41.5t47 -116.5q0 -17 -5 -45l-54 -282h-107z" />
    <glyph glyph-name="b" unicode="b" horiz-adv-x="534" 
d="M154 667h112l-45 -231q17 12 32 20t31 13.5t33 7.5t39 2q36 0 65.5 -14.5t50.5 -39.5t32.5 -59.5t11.5 -73.5q0 -71 -23 -128t-63 -97t-94 -61.5t-116 -21.5q-57 0 -106 11t-85 29zM155 96q22 -8 38.5 -10t37.5 -2q40 0 71.5 14.5t53 40t33 60.5t11.5 75q0 45 -20.5 74.5
t-65.5 29.5q-27 0 -48.5 -10t-38 -27t-27 -38.5t-14.5 -45.5z" />
    <glyph glyph-name="c" unicode="c" horiz-adv-x="484" 
d="M442 65q-35 -35 -81 -58t-114 -23q-45 0 -82 15t-63.5 42t-40.5 64t-14 81q0 63 21 117.5t57.5 95t87 63.5t109.5 23q66 0 108.5 -29t66.5 -86l-92 -49q-14 27 -34.5 45t-60.5 18q-28 0 -54.5 -13.5t-47.5 -37.5t-33.5 -57.5t-12.5 -74.5q0 -51 28.5 -83t75.5 -32
q36 0 63 15.5t50 38.5z" />
    <glyph glyph-name="d" unicode="d" horiz-adv-x="538" 
d="M410 357q-16 11 -37.5 16.5t-50.5 5.5q-32 0 -61.5 -13t-52 -38t-35.5 -60t-13 -79q0 -45 24 -75t69 -30q27 0 49 12t38 30t26.5 39.5t14.5 41.5zM350 46q-25 -25 -58.5 -42.5t-80.5 -17.5q-33 0 -63 12.5t-53 36t-36.5 57.5t-13.5 78q0 80 26 138.5t66.5 96.5t89.5 56
t94 18q37 0 61.5 -7t46.5 -18l41 213h112l-129 -667h-109z" />
    <glyph glyph-name="e" unicode="e" horiz-adv-x="519" 
d="M309 482q49 0 84.5 -16t59 -43t34.5 -63t11 -75q0 -22 -3 -42.5t-8 -43.5h-325v-6q0 -51 30.5 -80.5t82.5 -29.5q40 0 71 13.5t61 37.5l57 -79q-38 -32 -87 -51.5t-115 -19.5q-47 0 -86.5 14t-68 40t-44.5 64.5t-16 87.5q0 63 19.5 116.5t54.5 92.5t83 61t105 22z
M389 282q1 5 1 8v7q0 48 -26 69.5t-64 21.5q-46 0 -80.5 -27t-48.5 -79h218z" />
    <glyph glyph-name="f" unicode="f" horiz-adv-x="331" 
d="M132 375h-77l18 94h78l5 29q32 187 196 187q34 0 67.5 -12.5t60.5 -41.5l-62 -74q-14 13 -29.5 20.5t-36.5 7.5q-33 0 -53 -22t-30 -70l-5 -24h115l-18 -94h-115l-72 -375h-114z" />
    <glyph glyph-name="g" unicode="g" horiz-adv-x="536" 
d="M449 11q-23 -115 -85 -169t-171 -54q-45 0 -90.5 10.5t-85.5 39.5l49 88q32 -21 64 -30.5t68 -9.5q60 0 93 33t45 93l7 34q-17 -15 -50 -30.5t-84 -15.5q-40 0 -70.5 13.5t-51.5 37.5t-31.5 56t-10.5 69q0 64 22 119.5t61 96.5t93.5 64t120.5 23q54 0 105 -13t85 -29z
M405 367q-32 12 -77 12q-39 0 -70.5 -14t-53 -38.5t-33 -59.5t-11.5 -77t20.5 -66t68.5 -24q26 0 47 9t37 24t26 35t15 42z" />
    <glyph glyph-name="h" unicode="h" horiz-adv-x="528" 
d="M320 379q-27 0 -49.5 -11t-39.5 -29.5t-29 -44t-18 -55.5l-46 -239h-113l129 667h111l-48 -246q21 16 39 27.5t36.5 18t38.5 9.5t45 3q27 0 50 -9.5t40.5 -27.5t27.5 -44t10 -59q0 -11 -1 -25t-4 -29l-55 -285h-113l52 270q2 10 3 19.5t1 17.5q0 29 -10 46q-15 26 -57 26
z" />
    <glyph glyph-name="i" unicode="i" horiz-adv-x="230" 
d="M151 667h121l-24 -123h-121zM116 469h113l-91 -469h-113z" />
    <glyph glyph-name="j" unicode="j" horiz-adv-x="240" 
d="M-106 -79q17 -11 31.5 -16.5t31.5 -5.5q14 0 25.5 5t21.5 17.5t18 34.5t15 57l89 456h113l-90 -466q-9 -45 -21.5 -82t-33 -64t-51 -42t-75.5 -15q-74 0 -121 38zM161 667h121l-24 -123h-121z" />
    <glyph glyph-name="k" unicode="k" horiz-adv-x="494" 
d="M155 667h112l-70 -363l194 165h134l-206 -180l131 -289h-125l-95 219l-59 -48l-33 -171h-112z" />
    <glyph glyph-name="l" unicode="l" horiz-adv-x="224" 
d="M154 667h113l-129 -667h-113z" />
    <glyph glyph-name="m" unicode="m" horiz-adv-x="818" 
d="M672 270q5 23 5 43q0 26 -12.5 46t-49.5 20q-48 0 -83.5 -33t-49.5 -102l-47 -244h-113l52 270q5 23 5 43q0 26 -12.5 46t-49.5 20q-27 0 -49 -11t-38.5 -29.5t-28 -44t-17.5 -55.5l-46 -239h-113l91 469h108l-8 -53q21 18 38 30.5t35 19.5t37.5 10t44.5 3q35 0 64 -18
t45 -51q19 17 37 30t38.5 21.5t44.5 13t56 4.5q28 0 53 -9.5t44 -27.5t29.5 -44t10.5 -59q0 -11 -1 -25t-4 -29l-55 -285h-113z" />
    <glyph glyph-name="n" unicode="n" horiz-adv-x="528" 
d="M116 469h108l-8 -53q21 18 38.5 30.5t36 19.5t38.5 10t45 3t48.5 -9.5t41.5 -27.5t29 -44t11 -59q0 -11 -1 -25t-4 -29l-55 -285h-113l52 270q2 10 3 19.5t1 17.5q0 29 -10 46q-15 26 -57 26q-27 0 -49.5 -11t-39.5 -29.5t-29 -44t-18 -55.5l-46 -239h-113z" />
    <glyph glyph-name="o" unicode="o" horiz-adv-x="547" 
d="M323 485q47 0 85 -14.5t64.5 -41t41 -64.5t14.5 -86q0 -62 -20.5 -115.5t-57 -93.5t-87.5 -63t-111 -23q-46 0 -84 15t-65 42t-41.5 65.5t-14.5 85.5q0 61 21.5 114t59 93t88 63t107.5 23zM308 385q-27 0 -53.5 -13.5t-47 -37.5t-33.5 -56t-13 -69q0 -53 25.5 -89
t78.5 -36q27 0 53.5 13t47.5 36.5t34 56t13 72.5q0 57 -25.5 90t-79.5 33z" />
    <glyph glyph-name="p" unicode="p" horiz-adv-x="546" 
d="M116 469h111l-8 -53q26 22 62 42t87 20q35 0 64.5 -14.5t50.5 -39.5t33 -58.5t12 -71.5q0 -82 -26.5 -140.5t-67 -96t-90.5 -55.5t-96 -18q-30 0 -55 5.5t-53 20.5l-40 -210h-114zM161 113q17 -13 38 -20.5t46 -7.5q40 0 71 16t52.5 42.5t32.5 61t11 71.5
q0 46 -22.5 73.5t-64.5 27.5q-51 0 -90 -39.5t-51 -103.5z" />
    <glyph glyph-name="q" unicode="q" horiz-adv-x="539" 
d="M343 31q-17 -14 -50 -30.5t-84 -16.5q-35 0 -65.5 13.5t-52.5 38.5t-34.5 59t-12.5 75q0 71 22.5 128t62.5 97.5t95 62t120 21.5q54 0 105.5 -13t85.5 -29l-124 -637h-113zM408 368q-20 7 -40 9t-40 2q-35 0 -66 -13.5t-53.5 -38.5t-35.5 -59.5t-13 -77.5q0 -44 21 -74.5
t68 -30.5q53 0 83 31.5t41 76.5z" />
    <glyph glyph-name="r" unicode="r" horiz-adv-x="364" 
d="M116 469h108l-9 -61q24 26 57.5 48t83.5 22q32 0 59 -11l-40 -110q-14 6 -24.5 8.5t-26.5 2.5q-27 0 -50.5 -11t-42 -30t-31 -44.5t-18.5 -54.5l-44 -228h-113z" />
    <glyph glyph-name="s" unicode="s" horiz-adv-x="444" 
d="M63 132q36 -28 68 -39.5t75 -11.5q37 0 57 13.5t20 37.5t-22 36.5t-64 30.5q-20 9 -41 20.5t-38 27.5t-27.5 37.5t-10.5 50.5q0 37 15 65.5t40.5 47t60 28t72.5 9.5q43 0 88.5 -17t84.5 -55l-64 -68q-25 23 -54 34t-59 11q-35 0 -52 -12t-17 -32q0 -12 3.5 -20t14 -15.5
t29.5 -17t49 -22.5q48 -21 79.5 -51t31.5 -78q0 -39 -14.5 -68.5t-40.5 -49.5t-61.5 -30t-76.5 -10q-57 0 -107.5 16t-95.5 53z" />
    <glyph glyph-name="t" unicode="t" horiz-adv-x="382" 
d="M130 375h-77l19 94h77l29 152h113l-30 -152h122l-19 -94h-121l-41 -212q-3 -15 -3 -30q0 -49 45 -49q20 0 36.5 7.5t31.5 20.5l50 -72q-32 -28 -68 -41.5t-73 -13.5q-71 0 -104 31.5t-33 95.5q0 11 1.5 24t3.5 28z" />
    <glyph glyph-name="u" unicode="u" horiz-adv-x="524" 
d="M232 90q27 0 49 11t39.5 29.5t29 44t17.5 55.5l46 239h113l-91 -469h-108l8 53q-21 -18 -38.5 -30.5t-35.5 -19.5t-38 -10t-45 -3q-27 0 -50.5 9t-41 27t-27.5 44t-10 60q0 11 1 25t4 29l55 285h113l-52 -270q-4 -20 -4 -39q0 -33 14 -51.5t52 -18.5z" />
    <glyph glyph-name="v" unicode="v" horiz-adv-x="502" 
d="M53 469h127l54 -336l180 336h130l-280 -469h-111z" />
    <glyph glyph-name="w" unicode="w" horiz-adv-x="718" 
d="M56 469h118l26 -326l158 326h95l34 -326l147 326h125l-242 -469h-109l-36 289l-148 -289h-106z" />
    <glyph glyph-name="x" unicode="x" horiz-adv-x="491" 
d="M189 246l-117 223h128l71 -144l118 144h134l-201 -227l124 -242h-128l-79 161l-132 -161h-135z" />
    <glyph glyph-name="y" unicode="y" horiz-adv-x="508" 
d="M-2 -93q14 -11 27 -16.5t31 -5.5q28 0 47 22t47 72l16 29l-112 461h129l64 -321l171 321h131l-290 -498q-23 -40 -45 -73.5t-45.5 -58t-49.5 -38t-58 -13.5t-57.5 6.5t-52.5 29.5z" />
    <glyph glyph-name="z" unicode="z" horiz-adv-x="453" 
d="M24 85l292 289h-226l19 95h375l-17 -86l-292 -289h240l-18 -94h-389z" />
    <glyph glyph-name="braceleft" unicode="{" horiz-adv-x="290" 
d="M103 199q1 5 1 15q0 26 -12.5 42t-44.5 16l14 70q36 0 56 21t28 52l46 170q12 45 28.5 73.5t42.5 47.5h119q-21 -18 -40.5 -49.5t-27.5 -60.5l-53 -195q-10 -36 -33 -61t-52 -33q23 -8 35.5 -28t12.5 -50v-7q0 -3 -1 -9l-23 -195q-1 -5 -1 -10v-9q0 -26 7 -51.5t18 -40.5
h-117q-26 26 -26 80q0 19 3 42z" />
    <glyph glyph-name="bar" unicode="|" horiz-adv-x="245" 
d="M201 833h105l-193 -997h-105z" />
    <glyph glyph-name="braceright" unicode="}" horiz-adv-x="290" 
d="M247 414q-1 -4 -1 -8v-8q0 -25 12.5 -41t44.5 -16l-14 -70q-36 0 -56 -21t-28 -52l-46 -170q-12 -45 -28.5 -73.5t-42.5 -47.5h-119q21 18 40.5 49.5t27.5 60.5l53 195q10 36 33 61t52 33q-23 8 -35.5 28t-12.5 50v7q0 4 1 9l23 195q1 5 1 9v10q0 26 -7 51.5t-18 40.5
h117q26 -27 26 -81q0 -19 -3 -41z" />
    <glyph glyph-name="asciitilde" unicode="~" horiz-adv-x="472" 
d="M334 335q46 0 87 39l43 -75q-65 -68 -134 -68q-22 0 -39.5 7t-34 15t-33 15t-35.5 7q-44 0 -86 -39l-44 75q65 67 134 67q22 0 39.5 -6.5t34 -15t32.5 -15t36 -6.5z" />
    <glyph glyph-name="Euro" unicode="&#x20ac;" horiz-adv-x="545" 
d="M40 206l23 73h58q1 20 3.5 40t6.5 40h-62l22 74h60q16 46 42 85.5t60.5 68.5t78 45.5t94.5 16.5q59 0 101 -20.5t78 -75.5l-85 -62q-20 27 -42.5 39.5t-63.5 12.5q-51 0 -85 -30.5t-56 -79.5h192l-23 -74h-192q-7 -39 -9 -80h196l-23 -73h-169q8 -49 33.5 -79.5
t76.5 -30.5q38 0 63.5 12.5t51.5 37.5l63 -76q-76 -79 -191 -79q-53 0 -92 16.5t-65.5 46t-41.5 68.5t-20 84h-83z" />
    <glyph glyph-name="uni20BA" unicode="&#x20ba;" horiz-adv-x="545" 
d="M60 191l-28 66l110 47l15 78l-70 -30l-28 66l114 48l32 164h112l-22 -112l114 49l28 -66l-158 -67l-15 -78l118 50l28 -66l-163 -69l-31 -164h8q72 0 124.5 42.5t82.5 136.5l102 -28q-21 -74 -54 -123.5t-77 -79.5t-98 -42.5t-117 -12.5h-104l42 219z" />
    <glyph glyph-name="quotesinglbase" unicode="&#x201a;" horiz-adv-x="263" 
d="M105 -72h-87l59 211h127z" />
    <glyph glyph-name="florin" unicode="&#x192;" horiz-adv-x="545" 
d="M249 -24q-24 -94 -70.5 -135t-118.5 -41q-42 0 -74.5 13t-62.5 43l66 77q16 -17 31.5 -22.5t33.5 -5.5q35 0 52.5 24t28.5 66l77 300h-81l18 96h87l21 78q25 94 73.5 135t121.5 41q42 0 75 -13.5t62 -43.5l-68 -76q-16 19 -31 23.5t-34 4.5q-35 0 -54.5 -23.5
t-30.5 -65.5l-16 -60h106l-18 -96h-112z" />
    <glyph glyph-name="quotedblbase" unicode="&#x201e;" horiz-adv-x="448" 
d="M105 -72h-87l59 211h127zM290 -72h-87l59 211h127z" />
    <glyph glyph-name="ellipsis" unicode="&#x2026;" horiz-adv-x="762" 
d="M63 136h138l-26 -136h-138zM313 136h138l-26 -136h-138zM564 136h138l-26 -136h-138z" />
    <glyph glyph-name="dagger" unicode="&#x2020;" horiz-adv-x="512" 
d="M245 384h-143l19 94h143l36 189h110l-36 -189h143l-19 -94h-143l-98 -505h-110z" />
    <glyph glyph-name="daggerdbl" unicode="&#x2021;" horiz-adv-x="512" 
d="M184 68h-144l18 94h144l43 222h-144l19 94h144l36 189h110l-36 -189h143l-19 -94h-143l-43 -222h143l-18 -94h-143l-37 -189h-110z" />
    <glyph glyph-name="circumflex" unicode="&#x2c6;" horiz-adv-x="406" 
d="M260 682h100l70 -142h-99l-33 75l-67 -75h-98z" />
    <glyph glyph-name="perthousand" unicode="&#x2030;" horiz-adv-x="1228" 
d="M631 630h110l-483 -630h-111zM400 511q0 -50 -15.5 -91.5t-41.5 -71.5t-59 -46.5t-69 -16.5q-33 0 -57.5 11t-40.5 29.5t-24 43t-8 52.5q0 50 16 91.5t42 71.5t59.5 46.5t68.5 16.5q33 0 57 -11t40 -29.5t24 -43t8 -52.5zM177 424q0 -32 12.5 -47t34.5 -15q15 0 30 10
t27 29t19.5 46.5t7.5 61.5q0 31 -12.5 46t-34.5 15q-15 0 -30 -10t-27 -28.5t-19.5 -46t-7.5 -61.5zM829 217q0 -50 -15.5 -91.5t-41.5 -71.5t-59 -46.5t-69 -16.5q-33 0 -57.5 11t-40.5 29.5t-24 43t-8 52.5q0 50 16 91.5t42 71.5t59.5 46.5t68.5 16.5q33 0 57 -11
t40 -29.5t24 -43t8 -52.5zM606 130q0 -32 12.5 -47t34.5 -15q15 0 30 10t27 29t19.5 46.5t7.5 61.5q0 31 -12.5 46t-34.5 15q-15 0 -30 -10t-27 -28.5t-19.5 -46t-7.5 -61.5zM1190 217q0 -50 -15.5 -91.5t-41.5 -71.5t-59 -46.5t-69 -16.5q-33 0 -57.5 11t-40.5 29.5t-24 43
t-8 52.5q0 50 16 91.5t42 71.5t59.5 46.5t68.5 16.5q33 0 57 -11t40 -29.5t24 -43t8 -52.5zM967 130q0 -32 12.5 -47t34.5 -15q15 0 30 10t27 29t19.5 46.5t7.5 61.5q0 31 -12.5 46t-34.5 15q-15 0 -30 -10t-27 -28.5t-19.5 -46t-7.5 -61.5z" />
    <glyph glyph-name="Scaron" unicode="&#x160;" horiz-adv-x="564" 
d="M97 174q39 -42 79.5 -61t94.5 -19t86.5 26.5t32.5 69.5q0 19 -5.5 33t-19 26t-35 23t-53.5 24q-36 14 -65.5 31t-50.5 39t-32.5 51t-11.5 68q0 43 17.5 80t50 63.5t77.5 41.5t100 15q72 0 124.5 -25t89.5 -73l-82 -74q-27 32 -60 49t-75 17q-54 0 -84.5 -23t-30.5 -60
q0 -19 6 -33t20 -26t36.5 -23t54.5 -24q79 -32 120.5 -75t41.5 -112q0 -55 -20 -96.5t-54.5 -69t-81 -41.5t-99.5 -14q-67 0 -134.5 24t-118.5 83zM428 717h-101l-78 156h97l42 -84l75 84h105z" />
    <glyph glyph-name="guilsinglleft" unicode="&#x2039;" horiz-adv-x="332" 
d="M88 245l135 190h113l-136 -194l58 -194h-109z" />
    <glyph glyph-name="OE" unicode="&#x152;" horiz-adv-x="1045" 
d="M561 72q-40 -38 -92 -64t-129 -26q-50 0 -99 20.5t-87 58.5t-61.5 90.5t-23.5 117.5q0 83 28 158.5t77.5 132.5t118 91t149.5 34q78 0 130 -30.5t86 -78.5l18 91h410l-22 -110h-294l-31 -159h217l-21 -110h-217l-34 -176h317l-22 -112h-432zM197 288q0 -39 11 -73.5
t33 -60t54.5 -40.5t75.5 -15q54 0 99 24.5t76.5 64t49 89.5t17.5 101q0 39 -10.5 74.5t-31.5 62t-53.5 42t-75.5 15.5q-57 0 -102.5 -25t-77 -65.5t-48.5 -91t-17 -102.5z" />
    <glyph glyph-name="quoteleft" unicode="&#x2018;" horiz-adv-x="252" 
d="M208 666h89l-60 -211h-127z" />
    <glyph glyph-name="quoteright" unicode="&#x2019;" horiz-adv-x="252" 
d="M203 455h-89l60 211h127z" />
    <glyph glyph-name="quotedblleft" unicode="&#x201c;" horiz-adv-x="437" 
d="M208 666h89l-60 -211h-127zM393 666h89l-60 -211h-127z" />
    <glyph glyph-name="quotedblright" unicode="&#x201d;" horiz-adv-x="437" 
d="M203 455h-89l60 211h127zM388 455h-89l60 211h127z" />
    <glyph glyph-name="bullet" unicode="&#x2022;" horiz-adv-x="401" 
d="M120 343q0 28 10.5 52t28.5 42t42.5 28.5t51.5 10.5q28 0 52.5 -10.5t42.5 -28.5t28.5 -42t10.5 -52t-10.5 -52.5t-28.5 -42.5t-42.5 -28.5t-52.5 -10.5q-27 0 -51.5 10.5t-42.5 28.5t-28.5 42.5t-10.5 52.5z" />
    <glyph glyph-name="endash" unicode="&#x2013;" horiz-adv-x="500" 
d="M30 335h500l-22 -110h-500z" />
    <glyph glyph-name="emdash" unicode="&#x2014;" horiz-adv-x="1000" 
d="M30 335h1000l-22 -110h-1000z" />
    <glyph glyph-name="tilde" unicode="&#x2dc;" horiz-adv-x="411" 
d="M350 539q-21 0 -36 6.5t-28.5 14.5t-27 14.5t-30.5 6.5q-26 0 -45 -7.5t-39 -23.5l-39 67q23 22 55.5 38t72.5 16q21 0 36 -6.5t28.5 -14t27 -14t30.5 -6.5q27 0 45 8.5t37 24.5l40 -67q-22 -20 -53.5 -38.5t-73.5 -18.5z" />
    <glyph glyph-name="trademark" unicode="&#x2122;" horiz-adv-x="856" 
d="M510 667h83l63 -178l136 178h86l-59 -383h-86l40 248l-116 -151h-43l-54 146l-55 -243h-82zM225 586h-124l16 81h338l-15 -81h-124l-58 -302h-92z" />
    <glyph glyph-name="scaron" unicode="&#x161;" horiz-adv-x="444" 
d="M63 132q36 -28 68 -39.5t75 -11.5q37 0 57 13.5t20 37.5t-22 36.5t-64 30.5q-20 9 -41 20.5t-38 27.5t-27.5 37.5t-10.5 50.5q0 37 15 65.5t40.5 47t60 28t72.5 9.5q43 0 88.5 -17t84.5 -55l-64 -68q-25 23 -54 34t-59 11q-35 0 -52 -12t-17 -32q0 -12 3.5 -20t14 -15.5
t29.5 -17t49 -22.5q48 -21 79.5 -51t31.5 -78q0 -39 -14.5 -68.5t-40.5 -49.5t-61.5 -30t-76.5 -10q-57 0 -107.5 16t-95.5 53zM337 540h-100l-70 142h97l32 -77l68 77h101z" />
    <glyph glyph-name="guilsinglright" unicode="&#x203a;" horiz-adv-x="332" 
d="M275 237l-135 -190h-113l136 194l-58 194h109z" />
    <glyph glyph-name="oe" unicode="&#x153;" horiz-adv-x="882" 
d="M672 482q49 0 84.5 -16t59 -43t34.5 -63t11 -75q0 -22 -3 -42.5t-8 -43.5h-325v-6q0 -51 30.5 -80.5t82.5 -29.5q40 0 71 13.5t61 37.5l57 -79q-38 -32 -87.5 -51.5t-114.5 -19.5q-66 0 -110 25.5t-70 65.5q-35 -41 -82 -66t-111 -25q-46 0 -84 15t-65 42t-41.5 65.5
t-14.5 85.5q0 61 21.5 114t59 93t88 63t107.5 23q60 0 96.5 -23t63.5 -68q38 42 82 65t107 23zM308 385q-27 0 -53.5 -13.5t-47 -37.5t-33.5 -56t-13 -69q0 -53 25.5 -89t78.5 -36q27 0 53.5 13t47.5 36.5t34 56t13 72.5q0 57 -25.5 90t-79.5 33zM752 282q1 5 1 8v7
q0 48 -26 69.5t-64 21.5q-46 0 -80.5 -27t-48.5 -79h218z" />
    <glyph glyph-name="Ydieresis" unicode="&#x178;" horiz-adv-x="582" 
d="M250 286l-149 381h132l97 -270l202 270h139l-300 -380l-55 -287h-121zM449 852h118l-23 -114h-118zM244 852h118l-23 -114h-118z" />
    <glyph glyph-name="uni00A0" unicode="&#xa0;" horiz-adv-x="166" 
 />
    <glyph glyph-name="exclamdown" unicode="&#xa1;" horiz-adv-x="268" 
d="M133 -200h-125l91 458h121zM242 329h-137l26 138h137z" />
    <glyph glyph-name="cent" unicode="&#xa2;" horiz-adv-x="545" 
d="M490 145q-32 -32 -73 -54.5t-100 -26.5l-16 -83h-76l17 89q-69 16 -108 69t-39 127q0 58 18 109t50.5 90t76.5 64t97 31l18 89h75l-18 -91q92 -16 132 -112l-89 -47q-13 22 -26.5 36.5t-35.5 21.5l-56 -289q27 5 48.5 18.5t41.5 33.5zM210 281q0 -36 14 -62.5t39 -40.5
l54 275q-45 -15 -76 -60t-31 -112z" />
    <glyph glyph-name="sterling" unicode="&#xa3;" horiz-adv-x="545" 
d="M483 490q-19 27 -38.5 38t-49.5 11q-45 0 -71 -25.5t-37 -82.5l-13 -67h183l-17 -94h-184l-31 -160h269l-21 -110h-391l53 270h-68l17 94h69l17 86q11 54 33 92t52.5 61.5t67.5 34t78 10.5q60 0 101 -24t70 -72z" />
    <glyph glyph-name="currency" unicode="&#xa4;" horiz-adv-x="545" 
d="M120 229q-27 45 -27 100q0 53 27 100l-61 62l67 67l61 -61q23 14 49.5 22.5t55.5 8.5t55.5 -8.5t49.5 -22.5l61 61l67 -67l-62 -62q28 -47 28 -100q0 -29 -7 -53t-21 -47l62 -62l-67 -67l-61 60q-48 -30 -105 -30q-59 0 -105 30l-61 -60l-67 67zM186 329q0 -22 8.5 -41
t23 -33.5t33.5 -23t41 -8.5t41 8.5t33.5 23t23 33.5t8.5 41t-8.5 41t-23 33.5t-33.5 23t-41 8.5t-41 -8.5t-33.5 -23t-23 -33.5t-8.5 -41z" />
    <glyph glyph-name="yen" unicode="&#xa5;" horiz-adv-x="545" 
d="M72 189h136l15 78h-137l14 73h99l-100 291h125l77 -266l177 266h131l-215 -291h98l-14 -73h-138l-15 -78h138l-14 -73h-138l-22 -116h-117l22 116h-136z" />
    <glyph glyph-name="brokenbar" unicode="&#xa6;" horiz-adv-x="245" 
d="M187 215l-74 -379h-105l74 379h105zM128 454l73 379h105l-73 -379h-105z" />
    <glyph glyph-name="section" unicode="&#xa7;" horiz-adv-x="455" 
d="M401 539q-21 21 -40.5 30.5t-42.5 9.5q-38 0 -62.5 -23t-24.5 -62q0 -14 3 -26.5t11 -25.5t22 -27.5t36 -33.5l136 -118l-74 -85l-150 125q-52 44 -76.5 85t-24.5 92q0 44 14.5 81.5t41.5 65t64.5 43t84.5 15.5q45 0 84 -16.5t73 -55.5zM87 -67q21 -21 40.5 -30.5
t42.5 -9.5q38 0 62.5 23t24.5 62q0 14 -3 26.5t-11 25.5t-22 27.5t-36 33.5l-136 118l74 85l150 -125q52 -44 76.5 -85t24.5 -92q0 -44 -14.5 -81.5t-41.5 -65t-65 -43t-84 -15.5q-45 0 -84 16.5t-73 55.5z" />
    <glyph glyph-name="dieresis" unicode="&#xa8;" horiz-adv-x="371" 
d="M322 665h110l-21 -107h-110zM144 665h111l-21 -107h-111z" />
    <glyph glyph-name="copyright" unicode="&#xa9;" horiz-adv-x="775" 
d="M418 -14q-73 0 -136.5 27t-110 74.5t-73.5 111t-27 136.5t27 136.5t73.5 110.5t110 74.5t137.5 27.5q73 0 136 -27.5t109.5 -74.5t73.5 -110.5t27 -136.5t-27 -136.5t-74 -111t-110 -74.5t-136 -27zM418 58q58 0 107 21t84.5 58.5t55.5 87.5t20 109q0 58 -20 108.5
t-55.5 88t-84.5 59t-106 21.5q-58 0 -107 -21.5t-85 -59t-56.5 -88t-20.5 -108.5q0 -59 20 -109t56 -87.5t85 -58.5t107 -21zM577 228q-25 -35 -64 -59.5t-91 -24.5q-42 0 -77 14.5t-60 40.5t-39 61t-14 76q0 40 14 74.5t39.5 60t60.5 40.5t76 15q52 0 91 -24.5t64 -59.5
l-62 -46q-14 20 -36 36t-52 16q-49 0 -77.5 -31t-28.5 -82q0 -48 28.5 -79t77.5 -31q32 0 54.5 16t34.5 36z" />
    <glyph glyph-name="ordfeminine" unicode="&#xaa;" horiz-adv-x="370" 
d="M278 352q-20 -20 -47 -29t-51 -9q-43 0 -68.5 23.5t-25.5 68.5q0 53 44 84t113 31q34 0 62 -5l1 6q1 3 1 6v6q0 42 -56 42q-31 0 -53 -7t-38 -18l-31 56q20 14 55.5 27.5t83.5 13.5q55 0 88 -25.5t33 -77.5q0 -16 -3 -31l-26 -134l-6 -28.5t-5 -28.5h-76zM294 456
q-8 2 -22 3t-28 1q-40 0 -56.5 -13t-16.5 -30q0 -18 8.5 -26.5t32.5 -8.5q12 0 24.5 3.5t23.5 11t19.5 19t11.5 26.5z" />
    <glyph glyph-name="guillemotleft" unicode="&#xab;" horiz-adv-x="529" 
d="M88 245l135 190h113l-136 -194l58 -194h-109zM285 245l135 190h113l-136 -194l58 -194h-109z" />
    <glyph glyph-name="logicalnot" unicode="&#xac;" horiz-adv-x="545" 
d="M115 370h382l-48 -244h-96l28 146h-286z" />
    <glyph glyph-name="uni00AD" unicode="&#xad;" horiz-adv-x="426" 
d="M105 334h293l-22 -110h-293z" />
    <glyph glyph-name="registered" unicode="&#xae;" horiz-adv-x="775" 
d="M418 -14q-73 0 -136.5 27t-110 74.5t-73.5 111t-27 136.5t27 136.5t73.5 110.5t110 74.5t137.5 27.5q73 0 136 -27.5t109.5 -74.5t73.5 -110.5t27 -136.5t-27 -136.5t-74 -111t-110 -74.5t-136 -27zM418 58q58 0 107 21t84.5 58.5t55.5 87.5t20 109q0 58 -20 108.5
t-55.5 88t-84.5 59t-106 21.5q-58 0 -107 -21.5t-85 -59t-56.5 -88t-20.5 -108.5q0 -59 20 -109t56 -87.5t85 -58.5t107 -21zM289 512h141q36 0 60.5 -9.5t39.5 -24.5t22 -33.5t7 -36.5q0 -31 -16.5 -57.5t-48.5 -41.5l82 -143h-87l-74 131h-48v-131h-78v346zM427 360
q28 0 40 11.5t12 32.5q0 41 -54 41h-58v-85h60z" />
    <glyph glyph-name="macron" unicode="&#xaf;" horiz-adv-x="371" 
d="M117 647h251l-18 -89h-251z" />
    <glyph glyph-name="degree" unicode="&#xb0;" horiz-adv-x="339" 
d="M98 530q0 30 11 55t30 43.5t44.5 29t54.5 10.5t54.5 -10.5t44.5 -29t30 -43.5t11 -54q0 -30 -11 -55t-30 -43t-44.5 -28.5t-54.5 -10.5t-54.5 10.5t-44.5 28.5t-30 43t-11 54zM238 467q29 0 45.5 18t16.5 46q0 27 -16.5 45t-45.5 18q-27 0 -44 -18t-17 -46q0 -27 17 -45
t44 -18z" />
    <glyph glyph-name="plusminus" unicode="&#xb1;" horiz-adv-x="545" 
d="M118 370h143l28 148h96l-28 -148h143l-20 -96h-143l-28 -148h-96l28 148h-143zM64 97h382l-19 -96h-382z" />
    <glyph glyph-name="acute" unicode="&#xb4;" horiz-adv-x="401" 
d="M286 682h119l-103 -142h-89z" />
    <glyph glyph-name="mu" unicode="&#xb5;" horiz-adv-x="524" 
d="M529 469l-91 -469h-108l7 48q-20 -20 -52 -39t-81 -19q-17 0 -36 6.5t-31 18.5l-42 -215h-113l130 669h113l-52 -270q-4 -20 -4 -39q0 -33 14 -51.5t52 -18.5q27 0 49 11t39.5 29.5t29 44t17.5 55.5l46 239h113z" />
    <glyph glyph-name="paragraph" unicode="&#xb6;" horiz-adv-x="520" 
d="M442 667h117l-153 -789h-117zM189 255q18 -6 43.5 -8t45.5 -2h25l-71 -367h-115zM314 299h-17q-97 0 -152.5 38.5t-55.5 119.5q0 54 21.5 94t59 65.5t88.5 38t109 12.5h18z" />
    <glyph glyph-name="periodcentered" unicode="&#xb7;" horiz-adv-x="259" 
d="M115 391h138l-26 -136h-138z" />
    <glyph glyph-name="cedilla" unicode="&#xb8;" horiz-adv-x="492" 
d="M49 -149q16 -6 32.5 -10t34.5 -4q60 0 60 38q0 15 -13 21t-32 6q-32 0 -69 -13l20 62q18 6 39.5 9.5t48.5 3.5q39 0 66.5 -21.5t27.5 -56.5q0 -31 -12.5 -53t-32.5 -36t-46 -20.5t-53 -6.5q-35 0 -57.5 5t-35.5 10z" />
    <glyph glyph-name="ordmasculine" unicode="&#xba;" horiz-adv-x="389" 
d="M274 648q30 0 56 -10t44.5 -28.5t29.5 -44t11 -56.5q0 -42 -15 -77.5t-40.5 -62t-60 -41t-73.5 -14.5q-29 0 -54.5 10t-44.5 28t-30 43.5t-11 57.5q0 41 15.5 76.5t41 62t59.5 41.5t72 15zM262 568q-17 0 -32.5 -7.5t-28 -21t-20 -32.5t-7.5 -41q0 -32 16.5 -52t46.5 -20
q17 0 33 7t29 20.5t20.5 32t7.5 41.5q0 33 -16.5 53t-48.5 20z" />
    <glyph glyph-name="guillemotright" unicode="&#xbb;" horiz-adv-x="529" 
d="M472 237l-135 -190h-113l136 194l-58 194h109zM275 237l-135 -190h-113l136 194l-58 194h109z" />
    <glyph glyph-name="onequarter" unicode="&#xbc;" horiz-adv-x="925" 
d="M205 538l-77 -36l-30 68l136 67h81l-66 -342h-91zM663 630h110l-483 -630h-111zM586 131l199 212h93l-41 -212h38l-12 -69h-39l-12 -61h-80l12 61h-171zM757 131l24 124l-119 -124h95z" />
    <glyph glyph-name="onehalf" unicode="&#xbd;" horiz-adv-x="925" 
d="M205 538l-77 -36l-30 68l136 67h81l-66 -342h-91zM623 630h110l-483 -630h-111zM580 48q4 21 11.5 36.5t20.5 29t32.5 27t47.5 30.5q45 27 63.5 42t18.5 31q0 14 -9.5 21t-25.5 7q-24 0 -41 -8t-40 -25l-48 55q24 24 62.5 41.5t86.5 17.5q54 0 82 -24.5t28 -66.5
q0 -44 -26 -71.5t-74 -55.5l-46.5 -27.5t-39.5 -28.5h156l-16 -78h-252z" />
    <glyph glyph-name="threequarters" unicode="&#xbe;" horiz-adv-x="925" 
d="M147 478l101 83h-125l15 76h228l-13 -61l-95 -78q42 -11 59 -34t17 -56q0 -55 -40.5 -89t-109.5 -34q-43 0 -74.5 12t-53.5 30l41 66q22 -16 43 -24.5t45 -8.5q30 0 47 14.5t17 35.5t-14.5 30.5t-32.5 9.5q-21 0 -36 -7zM677 630h110l-483 -630h-111zM586 131l199 212h93
l-41 -212h38l-12 -69h-39l-12 -61h-80l12 61h-171zM757 131l24 124l-119 -124h95z" />
    <glyph glyph-name="questiondown" unicode="&#xbf;" horiz-adv-x="501" 
d="M370 230q-8 -50 -39 -91t-76 -71l-38.5 -26t-29.5 -24.5t-19 -26.5t-7 -32q0 -32 20 -50.5t58 -18.5t72 16t66 51l74 -71q-93 -104 -227 -104q-39 0 -73 10t-59.5 30t-40.5 49.5t-15 67.5q0 59 29 98.5t78 73.5l40 28.5t34 28.5t25.5 32.5t14.5 40.5l3 17h115zM399 329
h-137l26 138h137z" />
    <glyph glyph-name="Agrave" unicode="&#xc0;" horiz-adv-x="639" 
d="M352 667h133l112 -667h-129l-24 170h-244l-88 -170h-132zM431 272l-37 270l-141 -270h178zM309 873h132l45 -156h-96z" />
    <glyph glyph-name="Aacute" unicode="&#xc1;" horiz-adv-x="639" 
d="M352 667h133l112 -667h-129l-24 170h-244l-88 -170h-132zM431 272l-37 270l-141 -270h178zM456 873h136l-135 -156h-97z" />
    <glyph glyph-name="Acircumflex" unicode="&#xc2;" horiz-adv-x="639" 
d="M352 667h133l112 -667h-129l-24 170h-244l-88 -170h-132zM431 272l-37 270l-141 -270h178zM399 873h101l78 -156h-99l-42 84l-75 -84h-103z" />
    <glyph glyph-name="Atilde" unicode="&#xc3;" horiz-adv-x="639" 
d="M352 667h133l112 -667h-129l-24 170h-244l-88 -170h-132zM431 272l-37 270l-141 -270h178zM491 821q28 0 46.5 9.5t38.5 26.5l40 -72q-24 -24 -56 -42.5t-74 -18.5q-21 0 -37 6.5t-30 15t-27.5 15t-31.5 6.5q-28 0 -46.5 -9.5t-38.5 -26.5l-40 72q24 24 56 42.5t74 18.5
q21 0 36.5 -6.5t29.5 -15t28 -15t32 -6.5z" />
    <glyph glyph-name="Adieresis" unicode="&#xc4;" horiz-adv-x="639" 
d="M352 667h133l112 -667h-129l-24 170h-244l-88 -170h-132zM431 272l-37 270l-141 -270h178zM491 852h118l-23 -114h-118zM286 852h118l-23 -114h-118z" />
    <glyph glyph-name="Aring" unicode="&#xc5;" horiz-adv-x="639" 
d="M296 755q0 27 10 50.5t27.5 40t41 26t50.5 9.5t50 -9.5t40.5 -26t27.5 -39.5t10 -50q0 -38 -18 -66.5t-47 -44.5l109 -645h-129l-24 170h-244l-88 -170h-132l365 655q-23 17 -36 42.5t-13 57.5zM431 272l-37 270l-141 -270h178zM425 701q24 0 38 15.5t14 39.5t-14 38.5
t-38 14.5t-38 -15t-14 -39t14 -39t38 -15z" />
    <glyph glyph-name="AE" unicode="&#xc6;" horiz-adv-x="930" 
d="M460 171h-221l-127 -171h-135l508 667h486l-22 -110h-294l-31 -159h217l-21 -110h-217l-34 -176h317l-22 -112h-437zM309 270h170l55 285h-8z" />
    <glyph glyph-name="Ccedilla" unicode="&#xc7;" horiz-adv-x="652" 
d="M632 111q-52 -60 -119 -94.5t-155 -34.5q-65 0 -118 21.5t-91 60.5t-59 93.5t-21 120.5q0 81 28 154.5t78.5 130t120.5 89.5t154 33q97 0 158 -41.5t93 -113.5l-102 -58q-27 49 -61 74.5t-97 25.5q-55 0 -100 -24t-77 -63t-49.5 -90t-17.5 -105q0 -39 11.5 -74t33 -61
t53 -41t72.5 -15q60 0 104 25t80 70zM221 -149q34 -13 69 -13q59 0 59 35q0 15 -12.5 19.5t-31.5 4.5q-37 0 -71 -12l20 64q18 6 40.5 10.5t49.5 4.5q44 0 72.5 -20t28.5 -60q0 -31 -13 -52.5t-34.5 -35.5t-48.5 -20.5t-55 -6.5q-35 0 -58.5 5t-36.5 10z" />
    <glyph glyph-name="Egrave" unicode="&#xc8;" horiz-adv-x="540" 
d="M166 667h415l-22 -110h-294l-31 -159h217l-21 -110h-217l-34 -176h317l-22 -112h-437zM276 873h132l45 -156h-96z" />
    <glyph glyph-name="Eacute" unicode="&#xc9;" horiz-adv-x="540" 
d="M166 667h415l-22 -110h-294l-31 -159h217l-21 -110h-217l-34 -176h317l-22 -112h-437zM412 873h136l-135 -156h-97z" />
    <glyph glyph-name="Ecircumflex" unicode="&#xca;" horiz-adv-x="540" 
d="M166 667h415l-22 -110h-294l-31 -159h217l-21 -110h-217l-34 -176h317l-22 -112h-437zM357 873h101l78 -156h-99l-42 84l-75 -84h-103z" />
    <glyph glyph-name="Edieresis" unicode="&#xcb;" horiz-adv-x="540" 
d="M166 667h415l-22 -110h-294l-31 -159h217l-21 -110h-217l-34 -176h317l-22 -112h-437zM448 852h118l-23 -114h-118zM243 852h118l-23 -114h-118z" />
    <glyph glyph-name="Igrave" unicode="&#xcc;" horiz-adv-x="256" 
d="M167 667h121l-130 -667h-121zM124 873h132l45 -156h-96z" />
    <glyph glyph-name="Iacute" unicode="&#xcd;" horiz-adv-x="256" 
d="M167 667h121l-130 -667h-121zM263 873h136l-135 -156h-97z" />
    <glyph glyph-name="Icircumflex" unicode="&#xce;" horiz-adv-x="256" 
d="M167 667h121l-130 -667h-121zM211 873h101l78 -156h-99l-42 84l-75 -84h-103z" />
    <glyph glyph-name="Idieresis" unicode="&#xcf;" horiz-adv-x="256" 
d="M167 667h121l-130 -667h-121zM300 852h118l-23 -114h-118zM95 852h118l-23 -114h-118z" />
    <glyph glyph-name="Eth" unicode="&#xd0;" horiz-adv-x="702" 
d="M105 288h-64l20 100h64l54 279h216q67 0 122 -18.5t95 -53.5t62 -85.5t22 -113.5q0 -87 -28.5 -160t-81 -125.5t-127.5 -81.5t-169 -29h-240zM308 111q58 0 106 20t81.5 56t52 85.5t18.5 108.5q0 81 -46 128t-143 47h-99l-33 -168h150l-20 -100h-149l-34 -177h116z" />
    <glyph glyph-name="Ntilde" unicode="&#xd1;" horiz-adv-x="674" 
d="M166 667h110l219 -472l92 472h118l-129 -667h-104l-224 479l-93 -479h-118zM501 821q28 0 46.5 9.5t38.5 26.5l40 -72q-24 -24 -56 -42.5t-74 -18.5q-21 0 -37 6.5t-30 15t-27.5 15t-31.5 6.5q-28 0 -46.5 -9.5t-38.5 -26.5l-40 72q24 24 56 42.5t74 18.5q21 0 36.5 -6.5
t29.5 -15t28 -15t32 -6.5z" />
    <glyph glyph-name="Ograve" unicode="&#xd2;" horiz-adv-x="743" 
d="M197 288q0 -39 11 -73.5t33 -60t54.5 -40.5t75.5 -15q54 0 99 24.5t76.5 64t49 89.5t17.5 101q0 39 -10.5 74.5t-31.5 62t-53.5 42t-75.5 15.5q-57 0 -102.5 -25t-77 -65.5t-48.5 -91t-17 -102.5zM452 685q61 0 114 -20.5t92 -58t61.5 -90.5t22.5 -117q0 -83 -27.5 -158
t-77.5 -133t-119.5 -92t-154.5 -34q-64 0 -118 21.5t-93 59.5t-61 91t-22 115q0 83 27.5 158.5t77.5 132.5t121 91t157 34zM367 873h132l45 -156h-96z" />
    <glyph glyph-name="Oacute" unicode="&#xd3;" horiz-adv-x="743" 
d="M197 288q0 -39 11 -73.5t33 -60t54.5 -40.5t75.5 -15q54 0 99 24.5t76.5 64t49 89.5t17.5 101q0 39 -10.5 74.5t-31.5 62t-53.5 42t-75.5 15.5q-57 0 -102.5 -25t-77 -65.5t-48.5 -91t-17 -102.5zM452 685q61 0 114 -20.5t92 -58t61.5 -90.5t22.5 -117q0 -83 -27.5 -158
t-77.5 -133t-119.5 -92t-154.5 -34q-64 0 -118 21.5t-93 59.5t-61 91t-22 115q0 83 27.5 158.5t77.5 132.5t121 91t157 34zM493 873h136l-135 -156h-97z" />
    <glyph glyph-name="Ocircumflex" unicode="&#xd4;" horiz-adv-x="743" 
d="M197 288q0 -39 11 -73.5t33 -60t54.5 -40.5t75.5 -15q54 0 99 24.5t76.5 64t49 89.5t17.5 101q0 39 -10.5 74.5t-31.5 62t-53.5 42t-75.5 15.5q-57 0 -102.5 -25t-77 -65.5t-48.5 -91t-17 -102.5zM452 685q61 0 114 -20.5t92 -58t61.5 -90.5t22.5 -117q0 -83 -27.5 -158
t-77.5 -133t-119.5 -92t-154.5 -34q-64 0 -118 21.5t-93 59.5t-61 91t-22 115q0 83 27.5 158.5t77.5 132.5t121 91t157 34zM442 873h101l78 -156h-99l-42 84l-75 -84h-103z" />
    <glyph glyph-name="Otilde" unicode="&#xd5;" horiz-adv-x="743" 
d="M197 288q0 -39 11 -73.5t33 -60t54.5 -40.5t75.5 -15q54 0 99 24.5t76.5 64t49 89.5t17.5 101q0 39 -10.5 74.5t-31.5 62t-53.5 42t-75.5 15.5q-57 0 -102.5 -25t-77 -65.5t-48.5 -91t-17 -102.5zM452 685q61 0 114 -20.5t92 -58t61.5 -90.5t22.5 -117q0 -83 -27.5 -158
t-77.5 -133t-119.5 -92t-154.5 -34q-64 0 -118 21.5t-93 59.5t-61 91t-22 115q0 83 27.5 158.5t77.5 132.5t121 91t157 34zM541 821q28 0 46.5 9.5t38.5 26.5l40 -72q-24 -24 -56 -42.5t-74 -18.5q-21 0 -37 6.5t-30 15t-27.5 15t-31.5 6.5q-28 0 -46.5 -9.5t-38.5 -26.5
l-40 72q24 24 56 42.5t74 18.5q21 0 36.5 -6.5t29.5 -15t28 -15t32 -6.5z" />
    <glyph glyph-name="Odieresis" unicode="&#xd6;" horiz-adv-x="743" 
d="M197 288q0 -39 11 -73.5t33 -60t54.5 -40.5t75.5 -15q54 0 99 24.5t76.5 64t49 89.5t17.5 101q0 39 -10.5 74.5t-31.5 62t-53.5 42t-75.5 15.5q-57 0 -102.5 -25t-77 -65.5t-48.5 -91t-17 -102.5zM452 685q61 0 114 -20.5t92 -58t61.5 -90.5t22.5 -117q0 -83 -27.5 -158
t-77.5 -133t-119.5 -92t-154.5 -34q-64 0 -118 21.5t-93 59.5t-61 91t-22 115q0 83 27.5 158.5t77.5 132.5t121 91t157 34zM529 852h118l-23 -114h-118zM324 852h118l-23 -114h-118z" />
    <glyph glyph-name="multiply" unicode="&#xd7;" horiz-adv-x="545" 
d="M353 319l86 -116l-77 -61l-87 113l-133 -115l-57 66l137 120l-87 117l77 61l87 -114l134 115l56 -67z" />
    <glyph glyph-name="Oslash" unicode="&#xd8;" horiz-adv-x="743" 
d="M452 685q46 0 88 -12t77 -35l74 86l61 -49l-76 -88q31 -37 48.5 -84t17.5 -104q0 -83 -27.5 -158t-77.5 -133t-119.5 -92t-154.5 -34q-48 0 -90.5 12t-77.5 35l-78 -90l-61 49l80 92q-32 38 -49.5 85.5t-17.5 103.5q0 83 27.5 158.5t77.5 132.5t121 91t157 34zM197 288
q0 -30 6 -57t19 -50l315 364q-19 13 -42.5 20t-52.5 7q-57 0 -102.5 -25t-77 -65.5t-48.5 -91t-17 -102.5zM613 378q0 61 -24 108l-313 -363q20 -11 43.5 -17.5t51.5 -6.5q54 0 99 24.5t76.5 64t49 89.5t17.5 101z" />
    <glyph glyph-name="Ugrave" unicode="&#xd9;" horiz-adv-x="652" 
d="M161 667h121l-76 -390q-3 -17 -5 -31.5t-2 -28.5q0 -115 124 -115q39 0 66 10.5t46 31.5t31 51.5t20 71.5l78 400h120l-82 -420q-26 -137 -98.5 -200.5t-193.5 -63.5q-57 0 -101 16t-73.5 44t-45 67t-15.5 86q0 28 6 60zM316 873h132l45 -156h-96z" />
    <glyph glyph-name="Uacute" unicode="&#xda;" horiz-adv-x="652" 
d="M161 667h121l-76 -390q-3 -17 -5 -31.5t-2 -28.5q0 -115 124 -115q39 0 66 10.5t46 31.5t31 51.5t20 71.5l78 400h120l-82 -420q-26 -137 -98.5 -200.5t-193.5 -63.5q-57 0 -101 16t-73.5 44t-45 67t-15.5 86q0 28 6 60zM456 873h136l-135 -156h-97z" />
    <glyph glyph-name="Ucircumflex" unicode="&#xdb;" horiz-adv-x="652" 
d="M161 667h121l-76 -390q-3 -17 -5 -31.5t-2 -28.5q0 -115 124 -115q39 0 66 10.5t46 31.5t31 51.5t20 71.5l78 400h120l-82 -420q-26 -137 -98.5 -200.5t-193.5 -63.5q-57 0 -101 16t-73.5 44t-45 67t-15.5 86q0 28 6 60zM408 873h101l78 -156h-99l-42 84l-75 -84h-103z
" />
    <glyph glyph-name="Udieresis" unicode="&#xdc;" horiz-adv-x="652" 
d="M161 667h121l-76 -390q-3 -17 -5 -31.5t-2 -28.5q0 -115 124 -115q39 0 66 10.5t46 31.5t31 51.5t20 71.5l78 400h120l-82 -420q-26 -137 -98.5 -200.5t-193.5 -63.5q-57 0 -101 16t-73.5 44t-45 67t-15.5 86q0 28 6 60zM496 852h118l-23 -114h-118zM291 852h118
l-23 -114h-118z" />
    <glyph glyph-name="Yacute" unicode="&#xdd;" horiz-adv-x="582" 
d="M250 286l-149 381h132l97 -270l202 270h139l-300 -380l-55 -287h-121zM417 873h136l-135 -156h-97z" />
    <glyph glyph-name="Thorn" unicode="&#xde;" horiz-adv-x="557" 
d="M352 553q49 0 85 -15t60 -40.5t36 -58t12 -66.5q0 -63 -22 -108t-59 -74t-85.5 -43t-102.5 -14h-87l-26 -134h-116l129 667h116l-22 -114h82zM287 239q60 0 95 28t35 92q0 40 -24 64.5t-70 24.5h-74l-40 -209h78z" />
    <glyph glyph-name="germandbls" unicode="&#xdf;" horiz-adv-x="579" 
d="M432 141q0 13 -6 23t-16 17.5t-23 14l-26 13.5q-37 20 -57.5 41.5t-20.5 59.5q0 42 23 72.5t55 61.5q21 20 36.5 40t15.5 44q0 31 -20 44t-49 13q-54 0 -79.5 -32t-36.5 -89l-90 -464h-113l90 463q11 56 30 97.5t48.5 69t70.5 41t96 13.5q36 0 66.5 -10t53.5 -28.5
t36 -44.5t13 -58q0 -47 -20 -76t-45 -52q-27 -26 -47.5 -44t-20.5 -41q0 -10 4 -17.5t12 -14.5t21.5 -15l33.5 -19q48 -27 64 -56.5t16 -63.5q0 -36 -13.5 -64.5t-38.5 -48.5t-59 -31t-74 -11q-45 0 -86 9.5t-79 38.5l58 84q31 -23 54.5 -28.5t49.5 -5.5q73 0 73 54z" />
    <glyph glyph-name="agrave" unicode="&#xe0;" horiz-adv-x="487" 
d="M335 213q-12 2 -28.5 4t-44.5 2q-35 0 -59.5 -7t-39.5 -19t-22 -27.5t-7 -32.5q0 -29 18.5 -42.5t53.5 -13.5q19 0 38.5 6.5t36.5 18.5t29 30t17 41zM303 46q-32 -33 -68 -46.5t-75 -13.5q-27 0 -52 9t-43.5 25.5t-29.5 41t-11 55.5q0 42 16.5 76.5t47 58.5t73.5 37.5
t96 13.5q29 0 52 -1.5t42 -3.5q3 12 3 23q0 32 -25 50t-62 18q-48 0 -77.5 -13t-54.5 -28l-44 74q30 22 80.5 42.5t120.5 20.5q76 0 123 -41.5t47 -116.5q0 -17 -5 -45l-54 -282h-107zM229 682h115l18 -142h-85z" />
    <glyph glyph-name="aacute" unicode="&#xe1;" horiz-adv-x="487" 
d="M335 213q-12 2 -28.5 4t-44.5 2q-35 0 -59.5 -7t-39.5 -19t-22 -27.5t-7 -32.5q0 -29 18.5 -42.5t53.5 -13.5q19 0 38.5 6.5t36.5 18.5t29 30t17 41zM303 46q-32 -33 -68 -46.5t-75 -13.5q-27 0 -52 9t-43.5 25.5t-29.5 41t-11 55.5q0 42 16.5 76.5t47 58.5t73.5 37.5
t96 13.5q29 0 52 -1.5t42 -3.5q3 12 3 23q0 32 -25 50t-62 18q-48 0 -77.5 -13t-54.5 -28l-44 74q30 22 80.5 42.5t120.5 20.5q76 0 123 -41.5t47 -116.5q0 -17 -5 -45l-54 -282h-107zM327 682h119l-103 -142h-89z" />
    <glyph glyph-name="acircumflex" unicode="&#xe2;" horiz-adv-x="487" 
d="M335 213q-12 2 -28.5 4t-44.5 2q-35 0 -59.5 -7t-39.5 -19t-22 -27.5t-7 -32.5q0 -29 18.5 -42.5t53.5 -13.5q19 0 38.5 6.5t36.5 18.5t29 30t17 41zM303 46q-32 -33 -68 -46.5t-75 -13.5q-27 0 -52 9t-43.5 25.5t-29.5 41t-11 55.5q0 42 16.5 76.5t47 58.5t73.5 37.5
t96 13.5q29 0 52 -1.5t42 -3.5q3 12 3 23q0 32 -25 50t-62 18q-48 0 -77.5 -13t-54.5 -28l-44 74q30 22 80.5 42.5t120.5 20.5q76 0 123 -41.5t47 -116.5q0 -17 -5 -45l-54 -282h-107zM276 682h100l70 -142h-99l-33 75l-67 -75h-98z" />
    <glyph glyph-name="atilde" unicode="&#xe3;" horiz-adv-x="487" 
d="M335 213q-12 2 -28.5 4t-44.5 2q-35 0 -59.5 -7t-39.5 -19t-22 -27.5t-7 -32.5q0 -29 18.5 -42.5t53.5 -13.5q19 0 38.5 6.5t36.5 18.5t29 30t17 41zM303 46q-32 -33 -68 -46.5t-75 -13.5q-27 0 -52 9t-43.5 25.5t-29.5 41t-11 55.5q0 42 16.5 76.5t47 58.5t73.5 37.5
t96 13.5q29 0 52 -1.5t42 -3.5q3 12 3 23q0 32 -25 50t-62 18q-48 0 -77.5 -13t-54.5 -28l-44 74q30 22 80.5 42.5t120.5 20.5q76 0 123 -41.5t47 -116.5q0 -17 -5 -45l-54 -282h-107zM367 539q-21 0 -36 6.5t-28.5 14.5t-27 14.5t-30.5 6.5q-26 0 -45 -7.5t-39 -23.5
l-39 67q23 22 55.5 38t72.5 16q21 0 36 -6.5t28.5 -14t27 -14t30.5 -6.5q27 0 45 8.5t37 24.5l40 -67q-22 -20 -53.5 -38.5t-73.5 -18.5z" />
    <glyph glyph-name="adieresis" unicode="&#xe4;" horiz-adv-x="487" 
d="M335 213q-12 2 -28.5 4t-44.5 2q-35 0 -59.5 -7t-39.5 -19t-22 -27.5t-7 -32.5q0 -29 18.5 -42.5t53.5 -13.5q19 0 38.5 6.5t36.5 18.5t29 30t17 41zM303 46q-32 -33 -68 -46.5t-75 -13.5q-27 0 -52 9t-43.5 25.5t-29.5 41t-11 55.5q0 42 16.5 76.5t47 58.5t73.5 37.5
t96 13.5q29 0 52 -1.5t42 -3.5q3 12 3 23q0 32 -25 50t-62 18q-48 0 -77.5 -13t-54.5 -28l-44 74q30 22 80.5 42.5t120.5 20.5q76 0 123 -41.5t47 -116.5q0 -17 -5 -45l-54 -282h-107zM358 665h110l-21 -107h-110zM180 665h111l-21 -107h-111z" />
    <glyph glyph-name="aring" unicode="&#xe5;" horiz-adv-x="487" 
d="M335 213q-12 2 -28.5 4t-44.5 2q-35 0 -59.5 -7t-39.5 -19t-22 -27.5t-7 -32.5q0 -29 18.5 -42.5t53.5 -13.5q19 0 38.5 6.5t36.5 18.5t29 30t17 41zM303 46q-32 -33 -68 -46.5t-75 -13.5q-27 0 -52 9t-43.5 25.5t-29.5 41t-11 55.5q0 42 16.5 76.5t47 58.5t73.5 37.5
t96 13.5q29 0 52 -1.5t42 -3.5q3 12 3 23q0 32 -25 50t-62 18q-48 0 -77.5 -13t-54.5 -28l-44 74q30 22 80.5 42.5t120.5 20.5q76 0 123 -41.5t47 -116.5q0 -17 -5 -45l-54 -282h-107zM197 644q0 24 9 44.5t24.5 35.5t36 23.5t44.5 8.5t44.5 -8.5t36.5 -23t25 -35t9 -44.5
t-9 -44.5t-24.5 -35.5t-36.5 -23.5t-44 -8.5q-24 0 -44.5 8.5t-36.5 23t-25 35t-9 44.5zM311 599q19 0 31.5 13t12.5 32t-12.5 32t-31.5 13q-18 0 -30.5 -12.5t-12.5 -32.5q0 -19 12.5 -32t30.5 -13z" />
    <glyph glyph-name="ae" unicode="&#xe6;" horiz-adv-x="807" 
d="M597 482q49 0 84.5 -16t59 -43t34.5 -63t11 -75q0 -22 -3 -42.5t-8 -43.5h-325v-6q0 -51 30.5 -80.5t82.5 -29.5q40 0 71 13.5t61 37.5l57 -79q-38 -32 -87.5 -51.5t-114.5 -19.5q-68 0 -111.5 19t-74.5 64q-17 -18 -36 -33t-42 -26t-52 -17t-67 -6q-62 0 -102.5 34.5
t-40.5 97.5q0 42 16.5 76.5t47 58.5t73.5 37.5t96 13.5q29 0 52 -1.5t42 -3.5q3 12 3 23q0 32 -25 50t-62 18q-48 0 -77.5 -13t-54.5 -28l-44 74q30 22 80.5 42.5t120.5 20.5q47 0 83 -16t58 -46q33 28 74.5 43.5t89.5 15.5zM335 213q-12 2 -28.5 4t-44.5 2q-35 0 -59.5 -7
t-39.5 -19t-22 -27.5t-7 -32.5q0 -29 18.5 -42.5t53.5 -13.5q19 0 38.5 6.5t36.5 18.5t29 30t17 41zM677 282q1 5 1 8v7q0 48 -26 69.5t-64 21.5q-46 0 -80.5 -27t-48.5 -79h218z" />
    <glyph glyph-name="ccedilla" unicode="&#xe7;" horiz-adv-x="484" 
d="M442 65q-35 -35 -81 -58t-114 -23q-45 0 -82 15t-63.5 42t-40.5 64t-14 81q0 63 21 117.5t57.5 95t87 63.5t109.5 23q66 0 108.5 -29t66.5 -86l-92 -49q-14 27 -34.5 45t-60.5 18q-28 0 -54.5 -13.5t-47.5 -37.5t-33.5 -57.5t-12.5 -74.5q0 -51 28.5 -83t75.5 -32
q36 0 63 15.5t50 38.5zM117 -149q16 -6 32.5 -10t34.5 -4q60 0 60 38q0 15 -13 21t-32 6q-32 0 -69 -13l20 62q18 6 39.5 9.5t48.5 3.5q39 0 66.5 -21.5t27.5 -56.5q0 -31 -12.5 -53t-32.5 -36t-46 -20.5t-53 -6.5q-35 0 -57.5 5t-35.5 10z" />
    <glyph glyph-name="egrave" unicode="&#xe8;" horiz-adv-x="519" 
d="M309 482q49 0 84.5 -16t59 -43t34.5 -63t11 -75q0 -22 -3 -42.5t-8 -43.5h-325v-6q0 -51 30.5 -80.5t82.5 -29.5q40 0 71 13.5t61 37.5l57 -79q-38 -32 -87 -51.5t-115 -19.5q-47 0 -86.5 14t-68 40t-44.5 64.5t-16 87.5q0 63 19.5 116.5t54.5 92.5t83 61t105 22z
M389 282q1 5 1 8v7q0 48 -26 69.5t-64 21.5q-46 0 -80.5 -27t-48.5 -79h218zM248 682h115l18 -142h-85z" />
    <glyph glyph-name="eacute" unicode="&#xe9;" horiz-adv-x="519" 
d="M309 482q49 0 84.5 -16t59 -43t34.5 -63t11 -75q0 -22 -3 -42.5t-8 -43.5h-325v-6q0 -51 30.5 -80.5t82.5 -29.5q40 0 71 13.5t61 37.5l57 -79q-38 -32 -87 -51.5t-115 -19.5q-47 0 -86.5 14t-68 40t-44.5 64.5t-16 87.5q0 63 19.5 116.5t54.5 92.5t83 61t105 22z
M389 282q1 5 1 8v7q0 48 -26 69.5t-64 21.5q-46 0 -80.5 -27t-48.5 -79h218zM338 682h119l-103 -142h-89z" />
    <glyph glyph-name="ecircumflex" unicode="&#xea;" horiz-adv-x="519" 
d="M309 482q49 0 84.5 -16t59 -43t34.5 -63t11 -75q0 -22 -3 -42.5t-8 -43.5h-325v-6q0 -51 30.5 -80.5t82.5 -29.5q40 0 71 13.5t61 37.5l57 -79q-38 -32 -87 -51.5t-115 -19.5q-47 0 -86.5 14t-68 40t-44.5 64.5t-16 87.5q0 63 19.5 116.5t54.5 92.5t83 61t105 22z
M389 282q1 5 1 8v7q0 48 -26 69.5t-64 21.5q-46 0 -80.5 -27t-48.5 -79h218zM291 682h100l70 -142h-99l-33 75l-67 -75h-98z" />
    <glyph glyph-name="edieresis" unicode="&#xeb;" horiz-adv-x="519" 
d="M309 482q49 0 84.5 -16t59 -43t34.5 -63t11 -75q0 -22 -3 -42.5t-8 -43.5h-325v-6q0 -51 30.5 -80.5t82.5 -29.5q40 0 71 13.5t61 37.5l57 -79q-38 -32 -87 -51.5t-115 -19.5q-47 0 -86.5 14t-68 40t-44.5 64.5t-16 87.5q0 63 19.5 116.5t54.5 92.5t83 61t105 22z
M389 282q1 5 1 8v7q0 48 -26 69.5t-64 21.5q-46 0 -80.5 -27t-48.5 -79h218zM374 665h110l-21 -107h-110zM196 665h111l-21 -107h-111z" />
    <glyph glyph-name="igrave" unicode="&#xec;" horiz-adv-x="230" 
d="M116 469h113l-91 -469h-113zM102 682h115l18 -142h-85z" />
    <glyph glyph-name="iacute" unicode="&#xed;" horiz-adv-x="230" 
d="M116 469h113l-91 -469h-113zM196 682h119l-103 -142h-89z" />
    <glyph glyph-name="icircumflex" unicode="&#xee;" horiz-adv-x="230" 
d="M116 469h113l-91 -469h-113zM159 682h100l70 -142h-99l-33 75l-67 -75h-98z" />
    <glyph glyph-name="idieresis" unicode="&#xef;" horiz-adv-x="230" 
d="M116 469h113l-91 -469h-113zM239 665h110l-21 -107h-110zM61 665h111l-21 -107h-111z" />
    <glyph glyph-name="eth" unicode="&#xf0;" horiz-adv-x="531" 
d="M383 626q40 -25 66.5 -57.5t42.5 -69.5t22 -76.5t6 -78.5q0 -76 -20 -142t-56.5 -114.5t-89 -76t-117.5 -27.5q-46 0 -83 15.5t-63 42.5t-40 63.5t-14 78.5q0 57 18 106t52 85.5t82 57.5t107 21q31 0 56 -5.5t52 -19.5q-10 42 -33 69.5t-56 49.5l-56 -65l-50 40l47 55
q-17 6 -35.5 10t-37.5 6l26 87q32 -4 60 -10t53 -16l58 65l50 -40zM402 326q-26 20 -49.5 26t-57.5 6q-31 0 -57 -11.5t-45 -32t-30 -48t-11 -60.5q0 -49 22 -83.5t72 -34.5q28 0 55.5 14t49 43t35.5 74t16 107z" />
    <glyph glyph-name="ntilde" unicode="&#xf1;" horiz-adv-x="528" 
d="M116 469h108l-8 -53q21 18 38.5 30.5t36 19.5t38.5 10t45 3t48.5 -9.5t41.5 -27.5t29 -44t11 -59q0 -11 -1 -25t-4 -29l-55 -285h-113l52 270q2 10 3 19.5t1 17.5q0 29 -10 46q-15 26 -57 26q-27 0 -49.5 -11t-39.5 -29.5t-29 -44t-18 -55.5l-46 -239h-113zM398 539
q-21 0 -36 6.5t-28.5 14.5t-27 14.5t-30.5 6.5q-26 0 -45 -7.5t-39 -23.5l-39 67q23 22 55.5 38t72.5 16q21 0 36 -6.5t28.5 -14t27 -14t30.5 -6.5q27 0 45 8.5t37 24.5l40 -67q-22 -20 -53.5 -38.5t-73.5 -18.5z" />
    <glyph glyph-name="ograve" unicode="&#xf2;" horiz-adv-x="547" 
d="M323 485q47 0 85 -14.5t64.5 -41t41 -64.5t14.5 -86q0 -62 -20.5 -115.5t-57 -93.5t-87.5 -63t-111 -23q-46 0 -84 15t-65 42t-41.5 65.5t-14.5 85.5q0 61 21.5 114t59 93t88 63t107.5 23zM308 385q-27 0 -53.5 -13.5t-47 -37.5t-33.5 -56t-13 -69q0 -53 25.5 -89
t78.5 -36q27 0 53.5 13t47.5 36.5t34 56t13 72.5q0 57 -25.5 90t-79.5 33zM270 682h115l18 -142h-85z" />
    <glyph glyph-name="oacute" unicode="&#xf3;" horiz-adv-x="547" 
d="M323 485q47 0 85 -14.5t64.5 -41t41 -64.5t14.5 -86q0 -62 -20.5 -115.5t-57 -93.5t-87.5 -63t-111 -23q-46 0 -84 15t-65 42t-41.5 65.5t-14.5 85.5q0 61 21.5 114t59 93t88 63t107.5 23zM308 385q-27 0 -53.5 -13.5t-47 -37.5t-33.5 -56t-13 -69q0 -53 25.5 -89
t78.5 -36q27 0 53.5 13t47.5 36.5t34 56t13 72.5q0 57 -25.5 90t-79.5 33zM360 682h119l-103 -142h-89z" />
    <glyph glyph-name="ocircumflex" unicode="&#xf4;" horiz-adv-x="547" 
d="M323 485q47 0 85 -14.5t64.5 -41t41 -64.5t14.5 -86q0 -62 -20.5 -115.5t-57 -93.5t-87.5 -63t-111 -23q-46 0 -84 15t-65 42t-41.5 65.5t-14.5 85.5q0 61 21.5 114t59 93t88 63t107.5 23zM308 385q-27 0 -53.5 -13.5t-47 -37.5t-33.5 -56t-13 -69q0 -53 25.5 -89
t78.5 -36q27 0 53.5 13t47.5 36.5t34 56t13 72.5q0 57 -25.5 90t-79.5 33zM311 682h100l70 -142h-99l-33 75l-67 -75h-98z" />
    <glyph glyph-name="otilde" unicode="&#xf5;" horiz-adv-x="547" 
d="M323 485q47 0 85 -14.5t64.5 -41t41 -64.5t14.5 -86q0 -62 -20.5 -115.5t-57 -93.5t-87.5 -63t-111 -23q-46 0 -84 15t-65 42t-41.5 65.5t-14.5 85.5q0 61 21.5 114t59 93t88 63t107.5 23zM308 385q-27 0 -53.5 -13.5t-47 -37.5t-33.5 -56t-13 -69q0 -53 25.5 -89
t78.5 -36q27 0 53.5 13t47.5 36.5t34 56t13 72.5q0 57 -25.5 90t-79.5 33zM403 539q-21 0 -36 6.5t-28.5 14.5t-27 14.5t-30.5 6.5q-26 0 -45 -7.5t-39 -23.5l-39 67q23 22 55.5 38t72.5 16q21 0 36 -6.5t28.5 -14t27 -14t30.5 -6.5q27 0 45 8.5t37 24.5l40 -67
q-22 -20 -53.5 -38.5t-73.5 -18.5z" />
    <glyph glyph-name="odieresis" unicode="&#xf6;" horiz-adv-x="547" 
d="M323 485q47 0 85 -14.5t64.5 -41t41 -64.5t14.5 -86q0 -62 -20.5 -115.5t-57 -93.5t-87.5 -63t-111 -23q-46 0 -84 15t-65 42t-41.5 65.5t-14.5 85.5q0 61 21.5 114t59 93t88 63t107.5 23zM308 385q-27 0 -53.5 -13.5t-47 -37.5t-33.5 -56t-13 -69q0 -53 25.5 -89
t78.5 -36q27 0 53.5 13t47.5 36.5t34 56t13 72.5q0 57 -25.5 90t-79.5 33zM393 665h110l-21 -107h-110zM215 665h111l-21 -107h-111z" />
    <glyph glyph-name="divide" unicode="&#xf7;" horiz-adv-x="545" 
d="M117 370h382l-20 -96h-382zM226 212h102l-19 -98h-102zM288 530h102l-20 -98h-102z" />
    <glyph glyph-name="oslash" unicode="&#xf8;" horiz-adv-x="547" 
d="M323 485q67 0 114 -29l55 64l49 -40l-56 -65q20 -26 31.5 -60t11.5 -76q0 -62 -20.5 -115.5t-57 -93.5t-87.5 -63t-111 -23q-33 0 -62 7.5t-52 21.5l-57 -66l-49 40l59 68q-21 26 -32.5 60.5t-11.5 76.5q0 61 21.5 114t59 93t88 63t107.5 23zM308 385q-27 0 -53.5 -13.5
t-47 -37.5t-33.5 -56t-13 -69q0 -35 10 -61l193 223q-23 14 -56 14zM413 262q0 33 -9 59l-194 -224q22 -13 55 -13q27 0 53.5 13t47.5 36.5t34 56t13 72.5z" />
    <glyph glyph-name="ugrave" unicode="&#xf9;" horiz-adv-x="524" 
d="M232 90q27 0 49 11t39.5 29.5t29 44t17.5 55.5l46 239h113l-91 -469h-108l8 53q-21 -18 -38.5 -30.5t-35.5 -19.5t-38 -10t-45 -3q-27 0 -50.5 9t-41 27t-27.5 44t-10 60q0 11 1 25t4 29l55 285h113l-52 -270q-4 -20 -4 -39q0 -33 14 -51.5t52 -18.5zM247 682h115
l18 -142h-85z" />
    <glyph glyph-name="uacute" unicode="&#xfa;" horiz-adv-x="524" 
d="M232 90q27 0 49 11t39.5 29.5t29 44t17.5 55.5l46 239h113l-91 -469h-108l8 53q-21 -18 -38.5 -30.5t-35.5 -19.5t-38 -10t-45 -3q-27 0 -50.5 9t-41 27t-27.5 44t-10 60q0 11 1 25t4 29l55 285h113l-52 -270q-4 -20 -4 -39q0 -33 14 -51.5t52 -18.5zM343 682h119
l-103 -142h-89z" />
    <glyph glyph-name="ucircumflex" unicode="&#xfb;" horiz-adv-x="524" 
d="M232 90q27 0 49 11t39.5 29.5t29 44t17.5 55.5l46 239h113l-91 -469h-108l8 53q-21 -18 -38.5 -30.5t-35.5 -19.5t-38 -10t-45 -3q-27 0 -50.5 9t-41 27t-27.5 44t-10 60q0 11 1 25t4 29l55 285h113l-52 -270q-4 -20 -4 -39q0 -33 14 -51.5t52 -18.5zM294 682h100
l70 -142h-99l-33 75l-67 -75h-98z" />
    <glyph glyph-name="udieresis" unicode="&#xfc;" horiz-adv-x="524" 
d="M232 90q27 0 49 11t39.5 29.5t29 44t17.5 55.5l46 239h113l-91 -469h-108l8 53q-21 -18 -38.5 -30.5t-35.5 -19.5t-38 -10t-45 -3q-27 0 -50.5 9t-41 27t-27.5 44t-10 60q0 11 1 25t4 29l55 285h113l-52 -270q-4 -20 -4 -39q0 -33 14 -51.5t52 -18.5zM379 665h110
l-21 -107h-110zM201 665h111l-21 -107h-111z" />
    <glyph glyph-name="yacute" unicode="&#xfd;" horiz-adv-x="508" 
d="M-2 -93q14 -11 27 -16.5t31 -5.5q28 0 47 22t47 72l16 29l-112 461h129l64 -321l171 321h131l-290 -498q-23 -40 -45 -73.5t-45.5 -58t-49.5 -38t-58 -13.5t-57.5 6.5t-52.5 29.5zM326 682h119l-103 -142h-89z" />
    <glyph glyph-name="thorn" unicode="&#xfe;" horiz-adv-x="546" 
d="M247 -16q-30 0 -54.5 6t-52.5 21l-41 -211h-113l169 867h112l-47 -246q27 22 61.5 39.5t85.5 17.5q35 0 64.5 -14.5t51 -39.5t33.5 -58.5t12 -71.5q0 -80 -25 -138t-65.5 -96.5t-90.5 -57t-100 -18.5zM161 113q17 -13 38 -20.5t46 -7.5q40 0 71 16t52.5 42.5t32.5 61
t11 71.5q0 46 -22.5 73.5t-64.5 27.5q-51 0 -90 -39.5t-51 -103.5z" />
    <glyph glyph-name="ydieresis" unicode="&#xff;" horiz-adv-x="508" 
d="M-2 -93q14 -11 27 -16.5t31 -5.5q28 0 47 22t47 72l16 29l-112 461h129l64 -321l171 321h131l-290 -498q-23 -40 -45 -73.5t-45.5 -58t-49.5 -38t-58 -13.5t-57.5 6.5t-52.5 29.5zM361 665h110l-21 -107h-110zM183 665h111l-21 -107h-111z" />
    <glyph glyph-name="Amacron" unicode="&#x100;" horiz-adv-x="639" 
d="M352 667h133l112 -667h-129l-24 170h-244l-88 -170h-132zM431 272l-37 270l-141 -270h178zM293 842h302l-19 -94h-302z" />
    <glyph glyph-name="amacron" unicode="&#x101;" horiz-adv-x="487" 
d="M335 213q-12 2 -28.5 4t-44.5 2q-35 0 -59.5 -7t-39.5 -19t-22 -27.5t-7 -32.5q0 -29 18.5 -42.5t53.5 -13.5q19 0 38.5 6.5t36.5 18.5t29 30t17 41zM303 46q-32 -33 -68 -46.5t-75 -13.5q-27 0 -52 9t-43.5 25.5t-29.5 41t-11 55.5q0 42 16.5 76.5t47 58.5t73.5 37.5
t96 13.5q29 0 52 -1.5t42 -3.5q3 12 3 23q0 32 -25 50t-62 18q-48 0 -77.5 -13t-54.5 -28l-44 74q30 22 80.5 42.5t120.5 20.5q76 0 123 -41.5t47 -116.5q0 -17 -5 -45l-54 -282h-107zM192 647h251l-18 -89h-251z" />
    <glyph glyph-name="Abreve" unicode="&#x102;" horiz-adv-x="639" 
d="M352 667h133l112 -667h-129l-24 170h-244l-88 -170h-132zM431 272l-37 270l-141 -270h178zM386 863q-1 -3 -1 -7v-7q0 -23 13 -38t38 -15q33 0 50 19t23 48h91q-5 -32 -19 -59t-35.5 -47t-50.5 -31.5t-64 -11.5q-64 0 -100.5 29.5t-36.5 89.5q0 8 0.5 14.5t1.5 15.5h90z
" />
    <glyph glyph-name="abreve" unicode="&#x103;" horiz-adv-x="487" 
d="M335 213q-12 2 -28.5 4t-44.5 2q-35 0 -59.5 -7t-39.5 -19t-22 -27.5t-7 -32.5q0 -29 18.5 -42.5t53.5 -13.5q19 0 38.5 6.5t36.5 18.5t29 30t17 41zM303 46q-32 -33 -68 -46.5t-75 -13.5q-27 0 -52 9t-43.5 25.5t-29.5 41t-11 55.5q0 42 16.5 76.5t47 58.5t73.5 37.5
t96 13.5q29 0 52 -1.5t42 -3.5q3 12 3 23q0 32 -25 50t-62 18q-48 0 -77.5 -13t-54.5 -28l-44 74q30 22 80.5 42.5t120.5 20.5q76 0 123 -41.5t47 -116.5q0 -17 -5 -45l-54 -282h-107zM269 682q-1 -5 -1 -9v-5q0 -23 12.5 -37.5t39.5 -14.5q30 0 47 20t23 46h90
q-13 -61 -55.5 -101.5t-112.5 -40.5q-60 0 -95.5 30.5t-35.5 81.5q0 15 3 30h85z" />
    <glyph glyph-name="Aogonek" unicode="&#x104;" horiz-adv-x="639" 
d="M468 0l-24 170h-244l-88 -170h-132l372 667h133l112 -667q-26 -24 -45.5 -46t-19.5 -41q0 -20 24 -20q17 0 27 5.5t21 12.5l25 -77q-26 -15 -55 -25.5t-63 -10.5q-42 0 -65 20t-23 55q0 31 23 62.5t62 64.5h-40zM431 272l-37 270l-141 -270h178z" />
    <glyph glyph-name="aogonek" unicode="&#x105;" horiz-adv-x="487" 
d="M303 46q-32 -33 -68 -46.5t-75 -13.5q-27 0 -52 9t-43.5 25.5t-29.5 41t-11 55.5q0 42 16.5 76.5t47 58.5t73.5 37.5t96 13.5q29 0 52 -1.5t42 -3.5q3 12 3 23q0 32 -25 50t-62 18q-48 0 -77.5 -13t-54.5 -28l-44 74q30 22 80.5 42.5t120.5 20.5q76 0 123 -41.5
t47 -116.5q0 -17 -5 -45l-54 -282q-25 -23 -46 -46.5t-21 -41.5q0 -20 23 -20q16 0 27.5 5.5t21.5 11.5l23 -71q-24 -14 -52 -24t-60 -10q-40 0 -62 18t-22 51q0 29 21.5 62t59.5 65h-20zM335 213q-12 2 -28.5 4t-44.5 2q-35 0 -59.5 -7t-39.5 -19t-22 -27.5t-7 -32.5
q0 -29 18.5 -42.5t53.5 -13.5q19 0 38.5 6.5t36.5 18.5t29 30t17 41z" />
    <glyph glyph-name="Cacute" unicode="&#x106;" horiz-adv-x="652" 
d="M632 111q-52 -60 -119 -94.5t-155 -34.5q-65 0 -118 21.5t-91 60.5t-59 93.5t-21 120.5q0 81 28 154.5t78.5 130t120.5 89.5t154 33q97 0 158 -41.5t93 -113.5l-102 -58q-27 49 -61 74.5t-97 25.5q-55 0 -100 -24t-77 -63t-49.5 -90t-17.5 -105q0 -39 11.5 -74t33 -61
t53 -41t72.5 -15q60 0 104 25t80 70zM491 873h136l-135 -156h-97z" />
    <glyph glyph-name="cacute" unicode="&#x107;" horiz-adv-x="484" 
d="M442 65q-35 -35 -81 -58t-114 -23q-45 0 -82 15t-63.5 42t-40.5 64t-14 81q0 63 21 117.5t57.5 95t87 63.5t109.5 23q66 0 108.5 -29t66.5 -86l-92 -49q-14 27 -34.5 45t-60.5 18q-28 0 -54.5 -13.5t-47.5 -37.5t-33.5 -57.5t-12.5 -74.5q0 -51 28.5 -83t75.5 -32
q36 0 63 15.5t50 38.5zM349 682h119l-103 -142h-89z" />
    <glyph glyph-name="Ccircumflex" unicode="&#x108;" horiz-adv-x="652" 
d="M632 111q-52 -60 -119 -94.5t-155 -34.5q-65 0 -118 21.5t-91 60.5t-59 93.5t-21 120.5q0 81 28 154.5t78.5 130t120.5 89.5t154 33q97 0 158 -41.5t93 -113.5l-102 -58q-27 49 -61 74.5t-97 25.5q-55 0 -100 -24t-77 -63t-49.5 -90t-17.5 -105q0 -39 11.5 -74t33 -61
t53 -41t72.5 -15q60 0 104 25t80 70zM440 873h101l78 -156h-99l-42 84l-75 -84h-103z" />
    <glyph glyph-name="ccircumflex" unicode="&#x109;" horiz-adv-x="484" 
d="M442 65q-35 -35 -81 -58t-114 -23q-45 0 -82 15t-63.5 42t-40.5 64t-14 81q0 63 21 117.5t57.5 95t87 63.5t109.5 23q66 0 108.5 -29t66.5 -86l-92 -49q-14 27 -34.5 45t-60.5 18q-28 0 -54.5 -13.5t-47.5 -37.5t-33.5 -57.5t-12.5 -74.5q0 -51 28.5 -83t75.5 -32
q36 0 63 15.5t50 38.5zM307 682h100l70 -142h-99l-33 75l-67 -75h-98z" />
    <glyph glyph-name="Cdotaccent" unicode="&#x10a;" horiz-adv-x="652" 
d="M632 111q-52 -60 -119 -94.5t-155 -34.5q-65 0 -118 21.5t-91 60.5t-59 93.5t-21 120.5q0 81 28 154.5t78.5 130t120.5 89.5t154 33q97 0 158 -41.5t93 -113.5l-102 -58q-27 49 -61 74.5t-97 25.5q-55 0 -100 -24t-77 -63t-49.5 -90t-17.5 -105q0 -39 11.5 -74t33 -61
t53 -41t72.5 -15q60 0 104 25t80 70zM417 856h124l-24 -121h-124z" />
    <glyph glyph-name="cdotaccent" unicode="&#x10b;" horiz-adv-x="484" 
d="M442 65q-35 -35 -81 -58t-114 -23q-45 0 -82 15t-63.5 42t-40.5 64t-14 81q0 63 21 117.5t57.5 95t87 63.5t109.5 23q66 0 108.5 -29t66.5 -86l-92 -49q-14 27 -34.5 45t-60.5 18q-28 0 -54.5 -13.5t-47.5 -37.5t-33.5 -57.5t-12.5 -74.5q0 -51 28.5 -83t75.5 -32
q36 0 63 15.5t50 38.5zM287 669h118l-23 -115h-118z" />
    <glyph glyph-name="Ccaron" unicode="&#x10c;" horiz-adv-x="652" 
d="M632 111q-52 -60 -119 -94.5t-155 -34.5q-65 0 -118 21.5t-91 60.5t-59 93.5t-21 120.5q0 81 28 154.5t78.5 130t120.5 89.5t154 33q97 0 158 -41.5t93 -113.5l-102 -58q-27 49 -61 74.5t-97 25.5q-55 0 -100 -24t-77 -63t-49.5 -90t-17.5 -105q0 -39 11.5 -74t33 -61
t53 -41t72.5 -15q60 0 104 25t80 70zM508 717h-101l-78 156h97l42 -84l75 84h105z" />
    <glyph glyph-name="ccaron" unicode="&#x10d;" horiz-adv-x="484" 
d="M442 65q-35 -35 -81 -58t-114 -23q-45 0 -82 15t-63.5 42t-40.5 64t-14 81q0 63 21 117.5t57.5 95t87 63.5t109.5 23q66 0 108.5 -29t66.5 -86l-92 -49q-14 27 -34.5 45t-60.5 18q-28 0 -54.5 -13.5t-47.5 -37.5t-33.5 -57.5t-12.5 -74.5q0 -51 28.5 -83t75.5 -32
q36 0 63 15.5t50 38.5zM378 540h-100l-70 142h97l32 -77l68 77h101z" />
    <glyph glyph-name="Dcaron" unicode="&#x10e;" horiz-adv-x="689" 
d="M166 667h216q67 0 122 -18.5t95 -53.5t62 -85.5t22 -113.5q0 -87 -28.5 -160t-81 -125.5t-127.5 -81.5t-169 -29h-240zM295 111q58 0 106 20t81.5 56t52 85.5t18.5 108.5q0 81 -46 128t-143 47h-99l-86 -445h116zM433 717h-101l-78 156h97l42 -84l75 84h105z" />
    <glyph glyph-name="dcaron" unicode="&#x10f;" horiz-adv-x="636" 
d="M410 357q-16 11 -37.5 16.5t-50.5 5.5q-32 0 -61.5 -13t-52 -38t-35.5 -60t-13 -79q0 -45 24 -75t69 -30q27 0 49 12t38 30t26.5 39.5t14.5 41.5zM350 46q-25 -25 -58.5 -42.5t-80.5 -17.5q-33 0 -63 12.5t-53 36t-36.5 57.5t-13.5 78q0 80 26 138.5t66.5 96.5t89.5 56
t94 18q37 0 61.5 -7t46.5 -18l41 213h112l-129 -667h-109zM639 667h102l-63 -169h-72z" />
    <glyph glyph-name="Dcroat" unicode="&#x110;" horiz-adv-x="702" 
d="M105 288h-64l20 100h64l54 279h216q67 0 122 -18.5t95 -53.5t62 -85.5t22 -113.5q0 -87 -28.5 -160t-81 -125.5t-127.5 -81.5t-169 -29h-240zM308 111q58 0 106 20t81.5 56t52 85.5t18.5 108.5q0 81 -46 128t-143 47h-99l-33 -168h150l-20 -100h-149l-34 -177h116z" />
    <glyph glyph-name="dcroat" unicode="&#x111;" horiz-adv-x="538" 
d="M554 523l-101 -523h-109l6 46q-25 -25 -58.5 -42.5t-80.5 -17.5q-33 0 -63 12t-53 35t-36.5 56.5t-13.5 75.5q0 78 25.5 133.5t65.5 91t88 52t93 16.5q37 0 61.5 -7t46.5 -18l17 90h-164l15 77h164l13 67h112l-13 -67h54l-15 -77h-54zM406 336q-16 11 -37.5 16.5
t-50.5 5.5q-32 0 -61 -11.5t-50.5 -34t-34 -54.5t-12.5 -74q0 -43 24 -71.5t69 -28.5q27 0 49 12t38 30t26.5 39.5t14.5 41.5z" />
    <glyph glyph-name="Emacron" unicode="&#x112;" horiz-adv-x="540" 
d="M166 667h415l-22 -110h-294l-31 -159h217l-21 -110h-217l-34 -176h317l-22 -112h-437zM252 842h302l-19 -94h-302z" />
    <glyph glyph-name="emacron" unicode="&#x113;" horiz-adv-x="519" 
d="M309 482q49 0 84.5 -16t59 -43t34.5 -63t11 -75q0 -22 -3 -42.5t-8 -43.5h-325v-6q0 -51 30.5 -80.5t82.5 -29.5q40 0 71 13.5t61 37.5l57 -79q-38 -32 -87 -51.5t-115 -19.5q-47 0 -86.5 14t-68 40t-44.5 64.5t-16 87.5q0 63 19.5 116.5t54.5 92.5t83 61t105 22z
M389 282q1 5 1 8v7q0 48 -26 69.5t-64 21.5q-46 0 -80.5 -27t-48.5 -79h218zM203 647h251l-18 -89h-251z" />
    <glyph glyph-name="Ebreve" unicode="&#x114;" horiz-adv-x="540" 
d="M166 667h415l-22 -110h-294l-31 -159h217l-21 -110h-217l-34 -176h317l-22 -112h-437zM332 863q-1 -3 -1 -7v-7q0 -23 13 -38t38 -15q33 0 50 19t23 48h91q-5 -32 -19 -59t-35.5 -47t-50.5 -31.5t-64 -11.5q-64 0 -100.5 29.5t-36.5 89.5q0 8 0.5 14.5t1.5 15.5h90z" />
    <glyph glyph-name="ebreve" unicode="&#x115;" horiz-adv-x="519" 
d="M309 482q49 0 84.5 -16t59 -43t34.5 -63t11 -75q0 -22 -3 -42.5t-8 -43.5h-325v-6q0 -51 30.5 -80.5t82.5 -29.5q40 0 71 13.5t61 37.5l57 -79q-38 -32 -87 -51.5t-115 -19.5q-47 0 -86.5 14t-68 40t-44.5 64.5t-16 87.5q0 63 19.5 116.5t54.5 92.5t83 61t105 22z
M389 282q1 5 1 8v7q0 48 -26 69.5t-64 21.5q-46 0 -80.5 -27t-48.5 -79h218zM287 682q-1 -5 -1 -9v-5q0 -23 12.5 -37.5t39.5 -14.5q30 0 47 20t23 46h90q-13 -61 -55.5 -101.5t-112.5 -40.5q-60 0 -95.5 30.5t-35.5 81.5q0 15 3 30h85z" />
    <glyph glyph-name="Edotaccent" unicode="&#x116;" horiz-adv-x="540" 
d="M166 667h415l-22 -110h-294l-31 -159h217l-21 -110h-217l-34 -176h317l-22 -112h-437zM348 856h124l-24 -121h-124z" />
    <glyph glyph-name="edotaccent" unicode="&#x117;" horiz-adv-x="519" 
d="M309 482q49 0 84.5 -16t59 -43t34.5 -63t11 -75q0 -22 -3 -42.5t-8 -43.5h-325v-6q0 -51 30.5 -80.5t82.5 -29.5q40 0 71 13.5t61 37.5l57 -79q-38 -32 -87 -51.5t-115 -19.5q-47 0 -86.5 14t-68 40t-44.5 64.5t-16 87.5q0 63 19.5 116.5t54.5 92.5t83 61t105 22z
M389 282q1 5 1 8v7q0 48 -26 69.5t-64 21.5q-46 0 -80.5 -27t-48.5 -79h218zM286 669h118l-23 -115h-118z" />
    <glyph glyph-name="Eogonek" unicode="&#x118;" horiz-adv-x="540" 
d="M166 667h415l-22 -110h-294l-31 -159h217l-21 -110h-217l-34 -176h317l-22 -112h-47q-26 -24 -45.5 -46t-19.5 -41q0 -20 24 -20q17 0 27 5.5t21 12.5l25 -77q-26 -15 -55 -25.5t-63 -10.5q-42 0 -65 20t-23 55q0 31 23 62.5t62 64.5h-301z" />
    <glyph glyph-name="eogonek" unicode="&#x119;" horiz-adv-x="519" 
d="M309 482q49 0 84.5 -16t59 -43t34.5 -63t11 -75q0 -22 -3 -42.5t-8 -43.5h-325v-6q0 -51 30.5 -80.5t82.5 -29.5q40 0 71 13.5t61 37.5l57 -79q-42 -36 -94 -54q-25 -23 -46.5 -47t-21.5 -42q0 -20 23 -20q16 0 27.5 5.5t21.5 11.5l23 -71q-24 -14 -52 -24t-60 -10
q-40 0 -62 18t-22 51q0 26 17 54.5t46 56.5q-48 0 -88 14t-68.5 40t-44.5 64.5t-16 87.5q0 63 19.5 116.5t54.5 92.5t83 61t105 22zM389 282q1 5 1 8v7q0 48 -26 69.5t-64 21.5q-46 0 -80.5 -27t-48.5 -79h218z" />
    <glyph glyph-name="Ecaron" unicode="&#x11a;" horiz-adv-x="540" 
d="M166 667h415l-22 -110h-294l-31 -159h217l-21 -110h-217l-34 -176h317l-22 -112h-437zM431 717h-101l-78 156h97l42 -84l75 84h105z" />
    <glyph glyph-name="ecaron" unicode="&#x11b;" horiz-adv-x="519" 
d="M309 482q49 0 84.5 -16t59 -43t34.5 -63t11 -75q0 -22 -3 -42.5t-8 -43.5h-325v-6q0 -51 30.5 -80.5t82.5 -29.5q40 0 71 13.5t61 37.5l57 -79q-38 -32 -87 -51.5t-115 -19.5q-47 0 -86.5 14t-68 40t-44.5 64.5t-16 87.5q0 63 19.5 116.5t54.5 92.5t83 61t105 22z
M389 282q1 5 1 8v7q0 48 -26 69.5t-64 21.5q-46 0 -80.5 -27t-48.5 -79h218zM376 540h-100l-70 142h97l32 -77l68 77h101z" />
    <glyph glyph-name="Gcircumflex" unicode="&#x11c;" horiz-adv-x="684" 
d="M622 78q-53 -43 -115.5 -69.5t-148.5 -26.5q-65 0 -118 21.5t-91 60.5t-59 93.5t-21 120.5q0 81 28 154.5t78.5 130t120.5 89.5t154 33q97 0 157.5 -41.5t92.5 -113.5l-101 -57q-28 51 -63.5 75t-94.5 24q-55 0 -100 -24t-77 -63t-49.5 -90t-17.5 -105q0 -39 11.5 -74
t33 -61t53 -41t72.5 -15q24 0 44 2t38 6.5t34.5 13t34.5 22.5l20 105h-113l20 104h230zM433 873h101l78 -156h-99l-42 84l-75 -84h-103z" />
    <glyph glyph-name="gcircumflex" unicode="&#x11d;" horiz-adv-x="536" 
d="M449 11q-23 -115 -85 -169t-171 -54q-45 0 -90.5 10.5t-85.5 39.5l49 88q32 -21 64 -30.5t68 -9.5q60 0 93 33t45 93l7 34q-17 -15 -50 -30.5t-84 -15.5q-40 0 -70.5 13.5t-51.5 37.5t-31.5 56t-10.5 69q0 64 22 119.5t61 96.5t93.5 64t120.5 23q54 0 105 -13t85 -29z
M405 367q-32 12 -77 12q-39 0 -70.5 -14t-53 -38.5t-33 -59.5t-11.5 -77t20.5 -66t68.5 -24q26 0 47 9t37 24t26 35t15 42zM329 682h100l70 -142h-99l-33 75l-67 -75h-98z" />
    <glyph glyph-name="Gbreve" unicode="&#x11e;" horiz-adv-x="684" 
d="M622 78q-53 -43 -115.5 -69.5t-148.5 -26.5q-65 0 -118 21.5t-91 60.5t-59 93.5t-21 120.5q0 81 28 154.5t78.5 130t120.5 89.5t154 33q97 0 157.5 -41.5t92.5 -113.5l-101 -57q-28 51 -63.5 75t-94.5 24q-55 0 -100 -24t-77 -63t-49.5 -90t-17.5 -105q0 -39 11.5 -74
t33 -61t53 -41t72.5 -15q24 0 44 2t38 6.5t34.5 13t34.5 22.5l20 105h-113l20 104h230zM417 863q-1 -3 -1 -7v-7q0 -23 13 -38t38 -15q33 0 50 19t23 48h91q-5 -32 -19 -59t-35.5 -47t-50.5 -31.5t-64 -11.5q-64 0 -100.5 29.5t-36.5 89.5q0 8 0.5 14.5t1.5 15.5h90z" />
    <glyph glyph-name="gbreve" unicode="&#x11f;" horiz-adv-x="536" 
d="M449 11q-23 -115 -85 -169t-171 -54q-45 0 -90.5 10.5t-85.5 39.5l49 88q32 -21 64 -30.5t68 -9.5q60 0 93 33t45 93l7 34q-17 -15 -50 -30.5t-84 -15.5q-40 0 -70.5 13.5t-51.5 37.5t-31.5 56t-10.5 69q0 64 22 119.5t61 96.5t93.5 64t120.5 23q54 0 105 -13t85 -29z
M405 367q-32 12 -77 12q-39 0 -70.5 -14t-53 -38.5t-33 -59.5t-11.5 -77t20.5 -66t68.5 -24q26 0 47 9t37 24t26 35t15 42zM326 682q-1 -5 -1 -9v-5q0 -23 12.5 -37.5t39.5 -14.5q30 0 47 20t23 46h90q-13 -61 -55.5 -101.5t-112.5 -40.5q-60 0 -95.5 30.5t-35.5 81.5
q0 15 3 30h85z" />
    <glyph glyph-name="Gdotaccent" unicode="&#x120;" horiz-adv-x="684" 
d="M622 78q-53 -43 -115.5 -69.5t-148.5 -26.5q-65 0 -118 21.5t-91 60.5t-59 93.5t-21 120.5q0 81 28 154.5t78.5 130t120.5 89.5t154 33q97 0 157.5 -41.5t92.5 -113.5l-101 -57q-28 51 -63.5 75t-94.5 24q-55 0 -100 -24t-77 -63t-49.5 -90t-17.5 -105q0 -39 11.5 -74
t33 -61t53 -41t72.5 -15q24 0 44 2t38 6.5t34.5 13t34.5 22.5l20 105h-113l20 104h230zM415 856h124l-24 -121h-124z" />
    <glyph glyph-name="gdotaccent" unicode="&#x121;" horiz-adv-x="536" 
d="M449 11q-23 -115 -85 -169t-171 -54q-45 0 -90.5 10.5t-85.5 39.5l49 88q32 -21 64 -30.5t68 -9.5q60 0 93 33t45 93l7 34q-17 -15 -50 -30.5t-84 -15.5q-40 0 -70.5 13.5t-51.5 37.5t-31.5 56t-10.5 69q0 64 22 119.5t61 96.5t93.5 64t120.5 23q54 0 105 -13t85 -29z
M405 367q-32 12 -77 12q-39 0 -70.5 -14t-53 -38.5t-33 -59.5t-11.5 -77t20.5 -66t68.5 -24q26 0 47 9t37 24t26 35t15 42zM321 669h118l-23 -115h-118z" />
    <glyph glyph-name="Gcommaaccent" unicode="&#x122;" horiz-adv-x="684" 
d="M622 78q-53 -43 -115.5 -69.5t-148.5 -26.5q-65 0 -118 21.5t-91 60.5t-59 93.5t-21 120.5q0 81 28 154.5t78.5 130t120.5 89.5t154 33q97 0 157.5 -41.5t92.5 -113.5l-101 -57q-28 51 -63.5 75t-94.5 24q-55 0 -100 -24t-77 -63t-49.5 -90t-17.5 -105q0 -39 11.5 -74
t33 -61t53 -41t72.5 -15q24 0 44 2t38 6.5t34.5 13t34.5 22.5l20 105h-113l20 104h230zM292 -51h129l-117 -158h-95z" />
    <glyph glyph-name="gcommaaccent" unicode="&#x123;" horiz-adv-x="536" 
d="M449 11q-23 -115 -85 -169t-171 -54q-45 0 -90.5 10.5t-85.5 39.5l49 88q32 -21 64 -30.5t68 -9.5q60 0 93 33t45 93l7 34q-17 -15 -50 -30.5t-84 -15.5q-40 0 -70.5 13.5t-51.5 37.5t-31.5 56t-10.5 69q0 64 22 119.5t61 96.5t93.5 64t120.5 23q54 0 105 -13t85 -29z
M405 367q-32 12 -77 12q-39 0 -70.5 -14t-53 -38.5t-33 -59.5t-11.5 -77t20.5 -66t68.5 -24q26 0 47 9t37 24t26 35t15 42zM402 540h-120l103 142h89z" />
    <glyph glyph-name="Hcircumflex" unicode="&#x124;" horiz-adv-x="680" 
d="M166 667h121l-51 -269h303l51 269h121l-129 -667h-121l55 288h-303l-55 -288h-121zM420 873h101l78 -156h-99l-42 84l-75 -84h-103z" />
    <glyph glyph-name="hcircumflex" unicode="&#x125;" horiz-adv-x="528" 
d="M320 379q-27 0 -49.5 -11t-39.5 -29.5t-29 -44t-18 -55.5l-46 -239h-113l129 667h111l-48 -246q21 16 39 27.5t36.5 18t38.5 9.5t45 3q27 0 50 -9.5t40.5 -27.5t27.5 -44t10 -59q0 -11 -1 -25t-4 -29l-55 -285h-113l52 270q2 10 3 19.5t1 17.5q0 29 -10 46q-15 26 -57 26
zM293 873h101l78 -156h-99l-42 84l-75 -84h-103z" />
    <glyph glyph-name="Hbar" unicode="&#x126;" horiz-adv-x="700" 
d="M141 488h-66l16 86h67l18 93h121l-18 -93h303l18 93h121l-18 -93h82l-16 -86h-83l-94 -488h-121l55 288h-303l-55 -288h-121zM549 398l17 90h-303l-17 -90h303z" />
    <glyph glyph-name="hbar" unicode="&#x127;" horiz-adv-x="528" 
d="M236 523l-23 -122q21 16 39 27.5t36.5 18t38.5 9.5t45 3q27 0 50 -9.5t40.5 -27.5t27.5 -44t10 -59q0 -11 -1 -25t-4 -29l-51 -265h-113l48 250q2 10 3 19.5t1 17.5q0 33 -15.5 52.5t-51.5 19.5q-27 0 -49.5 -11t-39.5 -29.5t-29 -44t-18 -55.5l-42 -219h-113l101 523
h-54l15 77h54l13 67h111l-13 -67h165l-15 -77h-166z" />
    <glyph glyph-name="Itilde" unicode="&#x128;" horiz-adv-x="256" 
d="M167 667h121l-130 -667h-121zM307 821q28 0 46.5 9.5t38.5 26.5l40 -72q-24 -24 -56 -42.5t-74 -18.5q-21 0 -37 6.5t-30 15t-27.5 15t-31.5 6.5q-28 0 -46.5 -9.5t-38.5 -26.5l-40 72q24 24 56 42.5t74 18.5q21 0 36.5 -6.5t29.5 -15t28 -15t32 -6.5z" />
    <glyph glyph-name="itilde" unicode="&#x129;" horiz-adv-x="230" 
d="M116 469h113l-91 -469h-113zM239 539q-21 0 -36 6.5t-28.5 14.5t-27 14.5t-30.5 6.5q-26 0 -45 -7.5t-39 -23.5l-39 67q23 22 55.5 38t72.5 16q21 0 36 -6.5t28.5 -14t27 -14t30.5 -6.5q27 0 45 8.5t37 24.5l40 -67q-22 -20 -53.5 -38.5t-73.5 -18.5z" />
    <glyph glyph-name="Imacron" unicode="&#x12a;" horiz-adv-x="256" 
d="M167 667h121l-130 -667h-121zM105 842h302l-19 -94h-302z" />
    <glyph glyph-name="imacron" unicode="&#x12b;" horiz-adv-x="230" 
d="M116 469h113l-91 -469h-113zM76 647h251l-18 -89h-251z" />
    <glyph glyph-name="Ibreve" unicode="&#x12c;" horiz-adv-x="256" 
d="M167 667h121l-130 -667h-121zM199 863q-1 -3 -1 -7v-7q0 -23 13 -38t38 -15q33 0 50 19t23 48h91q-5 -32 -19 -59t-35.5 -47t-50.5 -31.5t-64 -11.5q-64 0 -100.5 29.5t-36.5 89.5q0 8 0.5 14.5t1.5 15.5h90z" />
    <glyph glyph-name="ibreve" unicode="&#x12d;" horiz-adv-x="230" 
d="M116 469h113l-91 -469h-113zM151 682q-1 -5 -1 -9v-5q0 -23 12.5 -37.5t39.5 -14.5q30 0 47 20t23 46h90q-13 -61 -55.5 -101.5t-112.5 -40.5q-60 0 -95.5 30.5t-35.5 81.5q0 15 3 30h85z" />
    <glyph glyph-name="Iogonek" unicode="&#x12e;" horiz-adv-x="256" 
d="M167 667h121l-130 -667q-26 -24 -45.5 -46t-19.5 -41q0 -20 24 -20q17 0 27 5.5t21 12.5l25 -77q-26 -15 -55 -25.5t-63 -10.5q-42 0 -65 20t-23 55q0 31 23 62.5t62 64.5h-32z" />
    <glyph glyph-name="iogonek" unicode="&#x12f;" horiz-adv-x="230" 
d="M116 469h113l-91 -469q-25 -23 -46 -46.5t-21 -41.5q0 -20 23 -20q16 0 27.5 5.5t21.5 11.5l23 -71q-24 -14 -52 -24t-60 -10q-40 0 -62 18t-22 51q0 29 21.5 62t59.5 65h-26zM151 667h121l-24 -123h-121z" />
    <glyph glyph-name="Idotaccent" unicode="&#x130;" horiz-adv-x="256" 
d="M167 667h121l-130 -667h-121zM201 856h124l-24 -121h-124z" />
    <glyph glyph-name="dotlessi" unicode="&#x131;" horiz-adv-x="230" 
d="M116 469h113l-91 -469h-113z" />
    <glyph glyph-name="i.locl" horiz-adv-x="230" 
d="M151 667h121l-24 -123h-121zM116 469h113l-91 -469h-113z" />
    <glyph glyph-name="IJ" unicode="&#x132;" horiz-adv-x="748" 
d="M167 667h121l-130 -667h-121zM333 155q29 -32 57 -44.5t61 -12.5q24 0 43 5t34 18t25.5 35t16.5 55l89 456h121l-93 -479q-21 -109 -79.5 -157.5t-148.5 -48.5q-64 0 -114.5 22t-88.5 70z" />
    <glyph glyph-name="ij" unicode="&#x133;" horiz-adv-x="470" 
d="M151 667h121l-24 -123h-121zM116 469h113l-91 -469h-113zM124 -79q17 -11 31.5 -16.5t31.5 -5.5q14 0 25.5 5t21.5 17.5t18 34.5t15 57l89 456h113l-90 -466q-9 -45 -21.5 -82t-33 -64t-51 -42t-75.5 -15q-74 0 -121 38zM391 667h121l-24 -123h-121z" />
    <glyph glyph-name="Jcircumflex" unicode="&#x134;" horiz-adv-x="492" 
d="M77 155q29 -32 57 -44.5t61 -12.5q24 0 43 5t34 18t25.5 35t16.5 55l89 456h121l-93 -479q-21 -109 -79.5 -157.5t-148.5 -48.5q-64 0 -114.5 22t-88.5 70zM450 873h101l78 -156h-99l-42 84l-75 -84h-103z" />
    <glyph glyph-name="jcircumflex" unicode="&#x135;" horiz-adv-x="240" 
d="M-106 -79q17 -11 31.5 -16.5t31.5 -5.5q14 0 25.5 5t21.5 17.5t18 34.5t15 57l89 456h113l-90 -466q-9 -45 -21.5 -82t-33 -64t-51 -42t-75.5 -15q-74 0 -121 38zM179 682h100l70 -142h-99l-33 75l-67 -75h-98z" />
    <glyph glyph-name="Kcommaaccent" unicode="&#x136;" horiz-adv-x="607" 
d="M166 667h121l-54 -279l290 279h145l-279 -274l174 -393h-136l-136 312l-89 -83l-44 -229h-121zM218 -51h129l-117 -158h-95z" />
    <glyph glyph-name="kcommaaccent" unicode="&#x137;" horiz-adv-x="494" 
d="M155 667h112l-70 -363l194 165h134l-206 -180l131 -289h-125l-95 219l-59 -48l-33 -171h-112zM160 -51h119l-105 -142h-88z" />
    <glyph glyph-name="kgreenlandic" unicode="&#x138;" horiz-adv-x="494" 
d="M117 469h113l-35 -174l196 174h134l-204 -186l136 -283h-125l-101 211l-61 -51l-31 -160h-113z" />
    <glyph glyph-name="Lacute" unicode="&#x139;" horiz-adv-x="531" 
d="M166 667h121l-108 -555h317l-21 -112h-438zM278 873h136l-135 -156h-97z" />
    <glyph glyph-name="lacute" unicode="&#x13a;" horiz-adv-x="224" 
d="M154 667h113l-129 -667h-113zM256 873h136l-135 -156h-97z" />
    <glyph glyph-name="Lcommaaccent" unicode="&#x13b;" horiz-adv-x="531" 
d="M166 667h121l-108 -555h317l-21 -112h-438zM196 -51h129l-117 -158h-95z" />
    <glyph glyph-name="lcommaaccent" unicode="&#x13c;" horiz-adv-x="224" 
d="M154 667h113l-129 -667h-113zM13 -51h119l-105 -142h-88z" />
    <glyph glyph-name="Lcaron" unicode="&#x13d;" horiz-adv-x="531" 
d="M166 667h121l-108 -555h317l-21 -112h-438zM413 667h109l-67 -182h-77z" />
    <glyph glyph-name="lcaron" unicode="&#x13e;" horiz-adv-x="326" 
d="M154 667h113l-129 -667h-113zM323 667h102l-63 -169h-72z" />
    <glyph glyph-name="Ldot" unicode="&#x13f;" horiz-adv-x="531" 
d="M166 667h121l-108 -555h317l-21 -112h-438zM402 438h124l-24 -121h-124z" />
    <glyph glyph-name="ldot" unicode="&#x140;" horiz-adv-x="396" 
d="M154 667h113l-129 -667h-113zM308 410h118l-23 -115h-118z" />
    <glyph glyph-name="Lslash" unicode="&#x141;" horiz-adv-x="536" 
d="M91 253l-73 -42l22 107l71 42l60 307h121l-44 -227l155 91l-21 -108l-155 -91l-43 -220h317l-21 -112h-438z" />
    <glyph glyph-name="lslash" unicode="&#x142;" horiz-adv-x="244" 
d="M86 264l-60 -36l19 98l60 36l59 305h113l-44 -229l60 36l-20 -98l-59 -36l-66 -340h-113z" />
    <glyph glyph-name="Nacute" unicode="&#x143;" horiz-adv-x="674" 
d="M166 667h110l219 -472l92 472h118l-129 -667h-104l-224 479l-93 -479h-118zM476 873h136l-135 -156h-97z" />
    <glyph glyph-name="nacute" unicode="&#x144;" horiz-adv-x="528" 
d="M116 469h108l-8 -53q21 18 38.5 30.5t36 19.5t38.5 10t45 3t48.5 -9.5t41.5 -27.5t29 -44t11 -59q0 -11 -1 -25t-4 -29l-55 -285h-113l52 270q2 10 3 19.5t1 17.5q0 29 -10 46q-15 26 -57 26q-27 0 -49.5 -11t-39.5 -29.5t-29 -44t-18 -55.5l-46 -239h-113zM354 682h119
l-103 -142h-89z" />
    <glyph glyph-name="Ncommaaccent" unicode="&#x145;" horiz-adv-x="674" 
d="M166 667h110l219 -472l92 472h118l-129 -667h-104l-224 479l-93 -479h-118zM249 -51h129l-117 -158h-95z" />
    <glyph glyph-name="ncommaaccent" unicode="&#x146;" horiz-adv-x="528" 
d="M116 469h108l-8 -53q21 18 38.5 30.5t36 19.5t38.5 10t45 3t48.5 -9.5t41.5 -27.5t29 -44t11 -59q0 -11 -1 -25t-4 -29l-55 -285h-113l52 270q2 10 3 19.5t1 17.5q0 29 -10 46q-15 26 -57 26q-27 0 -49.5 -11t-39.5 -29.5t-29 -44t-18 -55.5l-46 -239h-113zM168 -51h119
l-105 -142h-88z" />
    <glyph glyph-name="Ncaron" unicode="&#x147;" horiz-adv-x="674" 
d="M166 667h110l219 -472l92 472h118l-129 -667h-104l-224 479l-93 -479h-118zM481 717h-101l-78 156h97l42 -84l75 84h105z" />
    <glyph glyph-name="ncaron" unicode="&#x148;" horiz-adv-x="528" 
d="M116 469h108l-8 -53q21 18 38.5 30.5t36 19.5t38.5 10t45 3t48.5 -9.5t41.5 -27.5t29 -44t11 -59q0 -11 -1 -25t-4 -29l-55 -285h-113l52 270q2 10 3 19.5t1 17.5q0 29 -10 46q-15 26 -57 26q-27 0 -49.5 -11t-39.5 -29.5t-29 -44t-18 -55.5l-46 -239h-113zM385 540h-100
l-70 142h97l32 -77l68 77h101z" />
    <glyph glyph-name="napostrophe" unicode="&#x149;" horiz-adv-x="528" 
d="M116 469h108l-8 -53q21 18 38.5 30.5t36 19.5t38.5 10t45 3t48.5 -9.5t41.5 -27.5t29 -44t11 -59q0 -11 -1 -25t-4 -29l-55 -285h-113l52 270q2 10 3 19.5t1 17.5q0 29 -10 46q-15 26 -57 26q-27 0 -49.5 -11t-39.5 -29.5t-29 -44t-18 -55.5l-46 -239h-113zM115 682h105
l-63 -142h-78z" />
    <glyph glyph-name="Eng" unicode="&#x14a;" horiz-adv-x="674" 
d="M166 667h110l219 -472l92 472h118l-126 -652q-9 -47 -22.5 -86.5t-35 -68t-54 -44.5t-79.5 -16q-79 0 -128 40l49 87q18 -12 33.5 -17.5t33.5 -5.5q13 0 25 4t22 15t18.5 29.5t14.5 47.5l5 23l-213 456l-93 -479h-118z" />
    <glyph glyph-name="eng" unicode="&#x14b;" horiz-adv-x="528" 
d="M320 379q-27 0 -49.5 -11t-39.5 -29.5t-29 -44t-18 -55.5l-46 -239h-113l91 469h108l-8 -53q21 18 38.5 30.5t36 19.5t38.5 10t45 3t48.5 -9.5t41.5 -27.5t29 -44t11 -59q0 -11 -1 -25t-4 -29l-54 -281q-9 -45 -21.5 -82.5t-33 -64.5t-51 -42t-75.5 -15q-74 0 -121 38
l47 83q17 -11 31.5 -16.5t31.5 -5.5q14 0 25.5 4.5t21.5 17t18 34t15 56.5l50 259q2 10 3 19.5t1 17.5q0 29 -10 46q-15 26 -57 26z" />
    <glyph glyph-name="Omacron" unicode="&#x14c;" horiz-adv-x="743" 
d="M197 288q0 -39 11 -73.5t33 -60t54.5 -40.5t75.5 -15q54 0 99 24.5t76.5 64t49 89.5t17.5 101q0 39 -10.5 74.5t-31.5 62t-53.5 42t-75.5 15.5q-57 0 -102.5 -25t-77 -65.5t-48.5 -91t-17 -102.5zM452 685q61 0 114 -20.5t92 -58t61.5 -90.5t22.5 -117q0 -83 -27.5 -158
t-77.5 -133t-119.5 -92t-154.5 -34q-64 0 -118 21.5t-93 59.5t-61 91t-22 115q0 83 27.5 158.5t77.5 132.5t121 91t157 34zM329 842h302l-19 -94h-302z" />
    <glyph glyph-name="omacron" unicode="&#x14d;" horiz-adv-x="547" 
d="M323 485q47 0 85 -14.5t64.5 -41t41 -64.5t14.5 -86q0 -62 -20.5 -115.5t-57 -93.5t-87.5 -63t-111 -23q-46 0 -84 15t-65 42t-41.5 65.5t-14.5 85.5q0 61 21.5 114t59 93t88 63t107.5 23zM308 385q-27 0 -53.5 -13.5t-47 -37.5t-33.5 -56t-13 -69q0 -53 25.5 -89
t78.5 -36q27 0 53.5 13t47.5 36.5t34 56t13 72.5q0 57 -25.5 90t-79.5 33zM222 647h251l-18 -89h-251z" />
    <glyph glyph-name="Obreve" unicode="&#x14e;" horiz-adv-x="743" 
d="M197 288q0 -39 11 -73.5t33 -60t54.5 -40.5t75.5 -15q54 0 99 24.5t76.5 64t49 89.5t17.5 101q0 39 -10.5 74.5t-31.5 62t-53.5 42t-75.5 15.5q-57 0 -102.5 -25t-77 -65.5t-48.5 -91t-17 -102.5zM452 685q61 0 114 -20.5t92 -58t61.5 -90.5t22.5 -117q0 -83 -27.5 -158
t-77.5 -133t-119.5 -92t-154.5 -34q-64 0 -118 21.5t-93 59.5t-61 91t-22 115q0 83 27.5 158.5t77.5 132.5t121 91t157 34zM436 863q-1 -3 -1 -7v-7q0 -23 13 -38t38 -15q33 0 50 19t23 48h91q-5 -32 -19 -59t-35.5 -47t-50.5 -31.5t-64 -11.5q-64 0 -100.5 29.5t-36.5 89.5
q0 8 0.5 14.5t1.5 15.5h90z" />
    <glyph glyph-name="obreve" unicode="&#x14f;" horiz-adv-x="547" 
d="M323 485q47 0 85 -14.5t64.5 -41t41 -64.5t14.5 -86q0 -62 -20.5 -115.5t-57 -93.5t-87.5 -63t-111 -23q-46 0 -84 15t-65 42t-41.5 65.5t-14.5 85.5q0 61 21.5 114t59 93t88 63t107.5 23zM308 385q-27 0 -53.5 -13.5t-47 -37.5t-33.5 -56t-13 -69q0 -53 25.5 -89
t78.5 -36q27 0 53.5 13t47.5 36.5t34 56t13 72.5q0 57 -25.5 90t-79.5 33zM297 682q-1 -5 -1 -9v-5q0 -23 12.5 -37.5t39.5 -14.5q30 0 47 20t23 46h90q-13 -61 -55.5 -101.5t-112.5 -40.5q-60 0 -95.5 30.5t-35.5 81.5q0 15 3 30h85z" />
    <glyph glyph-name="Ohungarumlaut" unicode="&#x150;" horiz-adv-x="743" 
d="M197 288q0 -39 11 -73.5t33 -60t54.5 -40.5t75.5 -15q54 0 99 24.5t76.5 64t49 89.5t17.5 101q0 39 -10.5 74.5t-31.5 62t-53.5 42t-75.5 15.5q-57 0 -102.5 -25t-77 -65.5t-48.5 -91t-17 -102.5zM452 685q61 0 114 -20.5t92 -58t61.5 -90.5t22.5 -117q0 -83 -27.5 -158
t-77.5 -133t-119.5 -92t-154.5 -34q-64 0 -118 21.5t-93 59.5t-61 91t-22 115q0 83 27.5 158.5t77.5 132.5t121 91t157 34zM412 873h127l-133 -156h-89zM593 873h127l-133 -156h-89z" />
    <glyph glyph-name="ohungarumlaut" unicode="&#x151;" horiz-adv-x="547" 
d="M323 485q47 0 85 -14.5t64.5 -41t41 -64.5t14.5 -86q0 -62 -20.5 -115.5t-57 -93.5t-87.5 -63t-111 -23q-46 0 -84 15t-65 42t-41.5 65.5t-14.5 85.5q0 61 21.5 114t59 93t88 63t107.5 23zM308 385q-27 0 -53.5 -13.5t-47 -37.5t-33.5 -56t-13 -69q0 -53 25.5 -89
t78.5 -36q27 0 53.5 13t47.5 36.5t34 56t13 72.5q0 57 -25.5 90t-79.5 33zM285 682h110l-100 -142h-82zM442 682h110l-100 -142h-82z" />
    <glyph glyph-name="Racute" unicode="&#x154;" horiz-adv-x="562" 
d="M205 264l-52 -264h-116l129 667h206q48 0 84.5 -15t60.5 -39.5t36 -56t12 -65.5q0 -44 -12 -79.5t-32.5 -62.5t-47.5 -45.5t-58 -29.5l93 -274h-131l-82 264h-90zM262 561l-38 -195h83q59 0 96 27t37 89q0 38 -24.5 58.5t-70.5 20.5h-83zM376 873h136l-135 -156h-97z" />
    <glyph glyph-name="racute" unicode="&#x155;" horiz-adv-x="364" 
d="M116 469h108l-9 -61q24 26 57.5 48t83.5 22q32 0 59 -11l-40 -110q-14 6 -24.5 8.5t-26.5 2.5q-27 0 -50.5 -11t-42 -30t-31 -44.5t-18.5 -54.5l-44 -228h-113zM280 682h119l-103 -142h-89z" />
    <glyph glyph-name="Rcommaaccent" unicode="&#x156;" horiz-adv-x="562" 
d="M205 264l-52 -264h-116l129 667h206q48 0 84.5 -15t60.5 -39.5t36 -56t12 -65.5q0 -44 -12 -79.5t-32.5 -62.5t-47.5 -45.5t-58 -29.5l93 -274h-131l-82 264h-90zM262 561l-38 -195h83q59 0 96 27t37 89q0 38 -24.5 58.5t-70.5 20.5h-83zM199 -51h129l-117 -158h-95z" />
    <glyph glyph-name="rcommaaccent" unicode="&#x157;" horiz-adv-x="364" 
d="M116 469h108l-9 -61q24 26 57.5 48t83.5 22q32 0 59 -11l-40 -110q-14 6 -24.5 8.5t-26.5 2.5q-27 0 -50.5 -11t-42 -30t-31 -44.5t-18.5 -54.5l-44 -228h-113zM15 -51h119l-105 -142h-88z" />
    <glyph glyph-name="Rcaron" unicode="&#x158;" horiz-adv-x="562" 
d="M205 264l-52 -264h-116l129 667h206q48 0 84.5 -15t60.5 -39.5t36 -56t12 -65.5q0 -44 -12 -79.5t-32.5 -62.5t-47.5 -45.5t-58 -29.5l93 -274h-131l-82 264h-90zM262 561l-38 -195h83q59 0 96 27t37 89q0 38 -24.5 58.5t-70.5 20.5h-83zM395 717h-101l-78 156h97l42 -84
l75 84h105z" />
    <glyph glyph-name="rcaron" unicode="&#x159;" horiz-adv-x="364" 
d="M116 469h108l-9 -61q24 26 57.5 48t83.5 22q32 0 59 -11l-40 -110q-14 6 -24.5 8.5t-26.5 2.5q-27 0 -50.5 -11t-42 -30t-31 -44.5t-18.5 -54.5l-44 -228h-113zM308 540h-100l-70 142h97l32 -77l68 77h101z" />
    <glyph glyph-name="Sacute" unicode="&#x15a;" horiz-adv-x="564" 
d="M97 174q39 -42 79.5 -61t94.5 -19t86.5 26.5t32.5 69.5q0 19 -5.5 33t-19 26t-35 23t-53.5 24q-36 14 -65.5 31t-50.5 39t-32.5 51t-11.5 68q0 43 17.5 80t50 63.5t77.5 41.5t100 15q72 0 124.5 -25t89.5 -73l-82 -74q-27 32 -60 49t-75 17q-54 0 -84.5 -23t-30.5 -60
q0 -19 6 -33t20 -26t36.5 -23t54.5 -24q79 -32 120.5 -75t41.5 -112q0 -55 -20 -96.5t-54.5 -69t-81 -41.5t-99.5 -14q-67 0 -134.5 24t-118.5 83zM404 873h136l-135 -156h-97z" />
    <glyph glyph-name="sacute" unicode="&#x15b;" horiz-adv-x="444" 
d="M63 132q36 -28 68 -39.5t75 -11.5q37 0 57 13.5t20 37.5t-22 36.5t-64 30.5q-20 9 -41 20.5t-38 27.5t-27.5 37.5t-10.5 50.5q0 37 15 65.5t40.5 47t60 28t72.5 9.5q43 0 88.5 -17t84.5 -55l-64 -68q-25 23 -54 34t-59 11q-35 0 -52 -12t-17 -32q0 -12 3.5 -20t14 -15.5
t29.5 -17t49 -22.5q48 -21 79.5 -51t31.5 -78q0 -39 -14.5 -68.5t-40.5 -49.5t-61.5 -30t-76.5 -10q-57 0 -107.5 16t-95.5 53zM301 682h119l-103 -142h-89z" />
    <glyph glyph-name="Scircumflex" unicode="&#x15c;" horiz-adv-x="564" 
d="M97 174q39 -42 79.5 -61t94.5 -19t86.5 26.5t32.5 69.5q0 19 -5.5 33t-19 26t-35 23t-53.5 24q-36 14 -65.5 31t-50.5 39t-32.5 51t-11.5 68q0 43 17.5 80t50 63.5t77.5 41.5t100 15q72 0 124.5 -25t89.5 -73l-82 -74q-27 32 -60 49t-75 17q-54 0 -84.5 -23t-30.5 -60
q0 -19 6 -33t20 -26t36.5 -23t54.5 -24q79 -32 120.5 -75t41.5 -112q0 -55 -20 -96.5t-54.5 -69t-81 -41.5t-99.5 -14q-67 0 -134.5 24t-118.5 83zM357 873h101l78 -156h-99l-42 84l-75 -84h-103z" />
    <glyph glyph-name="scircumflex" unicode="&#x15d;" horiz-adv-x="444" 
d="M63 132q36 -28 68 -39.5t75 -11.5q37 0 57 13.5t20 37.5t-22 36.5t-64 30.5q-20 9 -41 20.5t-38 27.5t-27.5 37.5t-10.5 50.5q0 37 15 65.5t40.5 47t60 28t72.5 9.5q43 0 88.5 -17t84.5 -55l-64 -68q-25 23 -54 34t-59 11q-35 0 -52 -12t-17 -32q0 -12 3.5 -20t14 -15.5
t29.5 -17t49 -22.5q48 -21 79.5 -51t31.5 -78q0 -39 -14.5 -68.5t-40.5 -49.5t-61.5 -30t-76.5 -10q-57 0 -107.5 16t-95.5 53zM268 682h100l70 -142h-99l-33 75l-67 -75h-98z" />
    <glyph glyph-name="Scedilla" unicode="&#x15e;" horiz-adv-x="564" 
d="M97 174q39 -42 79.5 -61t94.5 -19t86.5 26.5t32.5 69.5q0 19 -5.5 33t-19 26t-35 23t-53.5 24q-36 14 -65.5 31t-50.5 39t-32.5 51t-11.5 68q0 43 17.5 80t50 63.5t77.5 41.5t100 15q72 0 124.5 -25t89.5 -73l-82 -74q-27 32 -60 49t-75 17q-54 0 -84.5 -23t-30.5 -60
q0 -19 6 -33t20 -26t36.5 -23t54.5 -24q79 -32 120.5 -75t41.5 -112q0 -55 -20 -96.5t-54.5 -69t-81 -41.5t-99.5 -14q-67 0 -134.5 24t-118.5 83zM126 -149q34 -13 69 -13q59 0 59 35q0 15 -12.5 19.5t-31.5 4.5q-37 0 -71 -12l20 64q18 6 40.5 10.5t49.5 4.5
q44 0 72.5 -20t28.5 -60q0 -31 -13 -52.5t-34.5 -35.5t-48.5 -20.5t-55 -6.5q-35 0 -58.5 5t-36.5 10z" />
    <glyph glyph-name="scedilla" unicode="&#x15f;" horiz-adv-x="444" 
d="M63 132q36 -28 68 -39.5t75 -11.5q37 0 57 13.5t20 37.5t-22 36.5t-64 30.5q-20 9 -41 20.5t-38 27.5t-27.5 37.5t-10.5 50.5q0 37 15 65.5t40.5 47t60 28t72.5 9.5q43 0 88.5 -17t84.5 -55l-64 -68q-25 23 -54 34t-59 11q-35 0 -52 -12t-17 -32q0 -12 3.5 -20t14 -15.5
t29.5 -17t49 -22.5q48 -21 79.5 -51t31.5 -78q0 -39 -14.5 -68.5t-40.5 -49.5t-61.5 -30t-76.5 -10q-57 0 -107.5 16t-95.5 53zM66 -149q16 -6 32.5 -10t34.5 -4q60 0 60 38q0 15 -13 21t-32 6q-32 0 -69 -13l20 62q18 6 39.5 9.5t48.5 3.5q39 0 66.5 -21.5t27.5 -56.5
q0 -31 -12.5 -53t-32.5 -36t-46 -20.5t-53 -6.5q-35 0 -57.5 5t-35.5 10z" />
    <glyph glyph-name="uni0162" unicode="&#x162;" horiz-adv-x="598" 
d="M314 558h-218l22 109h556l-22 -109h-217l-108 -558h-121zM135 -149q34 -13 69 -13q59 0 59 35q0 15 -12.5 19.5t-31.5 4.5q-37 0 -71 -12l20 64q18 6 40.5 10.5t49.5 4.5q44 0 72.5 -20t28.5 -60q0 -31 -13 -52.5t-34.5 -35.5t-48.5 -20.5t-55 -6.5q-35 0 -58.5 5
t-36.5 10z" />
    <glyph glyph-name="uni0163" unicode="&#x163;" horiz-adv-x="382" 
d="M130 375h-77l19 94h77l29 152h113l-30 -152h122l-19 -94h-121l-41 -212q-3 -15 -3 -30q0 -49 45 -49q20 0 36.5 7.5t31.5 20.5l50 -72q-32 -28 -68 -41.5t-73 -13.5q-71 0 -104 31.5t-33 95.5q0 11 1.5 24t3.5 28zM67 -158q16 -6 32.5 -10t34.5 -4q60 0 60 38
q0 15 -13 21t-32 6q-32 0 -69 -13l20 62q18 6 39.5 9.5t48.5 3.5q39 0 66.5 -21.5t27.5 -56.5q0 -31 -12.5 -53t-32.5 -36t-46 -20.5t-53 -6.5q-35 0 -57.5 5t-35.5 10z" />
    <glyph glyph-name="Tcaron" unicode="&#x164;" horiz-adv-x="598" 
d="M314 558h-218l22 109h556l-22 -109h-217l-108 -558h-121zM447 717h-101l-78 156h97l42 -84l75 84h105z" />
    <glyph glyph-name="tcaron" unicode="&#x165;" horiz-adv-x="382" 
d="M394 667h102l-63 -151h-72zM130 375h-77l19 94h77l29 152h113l-30 -152h122l-19 -94h-121l-41 -212q-3 -15 -3 -30q0 -49 45 -49q20 0 36.5 7.5t31.5 20.5l50 -72q-32 -28 -68 -41.5t-73 -13.5q-71 0 -104 31.5t-33 95.5q0 11 1.5 24t3.5 28z" />
    <glyph glyph-name="Tbar" unicode="&#x166;" horiz-adv-x="598" 
d="M255 256h-128l20 102h128l39 200h-218l22 109h556l-22 -109h-217l-39 -200h129l-20 -102h-129l-49 -256h-121z" />
    <glyph glyph-name="tbar" unicode="&#x167;" horiz-adv-x="382" 
d="M37 281h74l19 94h-77l19 94h77l29 152h113l-30 -152h122l-19 -94h-121l-18 -94h124l-15 -75h-124l-8 -43q-3 -15 -3 -30q0 -49 45 -49q20 0 36.5 7.5t31.5 20.5l50 -72q-32 -28 -68 -41.5t-73 -13.5q-71 0 -104 31.5t-33 95.5q0 11 1.5 24t3.5 28l8 42h-75z" />
    <glyph glyph-name="Utilde" unicode="&#x168;" horiz-adv-x="652" 
d="M161 667h121l-76 -390q-3 -17 -5 -31.5t-2 -28.5q0 -115 124 -115q39 0 66 10.5t46 31.5t31 51.5t20 71.5l78 400h120l-82 -420q-26 -137 -98.5 -200.5t-193.5 -63.5q-57 0 -101 16t-73.5 44t-45 67t-15.5 86q0 28 6 60zM500 821q28 0 46.5 9.5t38.5 26.5l40 -72
q-24 -24 -56 -42.5t-74 -18.5q-21 0 -37 6.5t-30 15t-27.5 15t-31.5 6.5q-28 0 -46.5 -9.5t-38.5 -26.5l-40 72q24 24 56 42.5t74 18.5q21 0 36.5 -6.5t29.5 -15t28 -15t32 -6.5z" />
    <glyph glyph-name="utilde" unicode="&#x169;" horiz-adv-x="524" 
d="M232 90q27 0 49 11t39.5 29.5t29 44t17.5 55.5l46 239h113l-91 -469h-108l8 53q-21 -18 -38.5 -30.5t-35.5 -19.5t-38 -10t-45 -3q-27 0 -50.5 9t-41 27t-27.5 44t-10 60q0 11 1 25t4 29l55 285h113l-52 -270q-4 -20 -4 -39q0 -33 14 -51.5t52 -18.5zM382 539
q-21 0 -36 6.5t-28.5 14.5t-27 14.5t-30.5 6.5q-26 0 -45 -7.5t-39 -23.5l-39 67q23 22 55.5 38t72.5 16q21 0 36 -6.5t28.5 -14t27 -14t30.5 -6.5q27 0 45 8.5t37 24.5l40 -67q-22 -20 -53.5 -38.5t-73.5 -18.5z" />
    <glyph glyph-name="Umacron" unicode="&#x16a;" horiz-adv-x="652" 
d="M161 667h121l-76 -390q-3 -17 -5 -31.5t-2 -28.5q0 -115 124 -115q39 0 66 10.5t46 31.5t31 51.5t20 71.5l78 400h120l-82 -420q-26 -137 -98.5 -200.5t-193.5 -63.5q-57 0 -101 16t-73.5 44t-45 67t-15.5 86q0 28 6 60zM297 842h302l-19 -94h-302z" />
    <glyph glyph-name="umacron" unicode="&#x16b;" horiz-adv-x="524" 
d="M232 90q27 0 49 11t39.5 29.5t29 44t17.5 55.5l46 239h113l-91 -469h-108l8 53q-21 -18 -38.5 -30.5t-35.5 -19.5t-38 -10t-45 -3q-27 0 -50.5 9t-41 27t-27.5 44t-10 60q0 11 1 25t4 29l55 285h113l-52 -270q-4 -20 -4 -39q0 -33 14 -51.5t52 -18.5zM220 647h251
l-18 -89h-251z" />
    <glyph glyph-name="Ubreve" unicode="&#x16c;" horiz-adv-x="652" 
d="M161 667h121l-76 -390q-3 -17 -5 -31.5t-2 -28.5q0 -115 124 -115q39 0 66 10.5t46 31.5t31 51.5t20 71.5l78 400h120l-82 -420q-26 -137 -98.5 -200.5t-193.5 -63.5q-57 0 -101 16t-73.5 44t-45 67t-15.5 86q0 28 6 60zM384 863q-1 -3 -1 -7v-7q0 -23 13 -38t38 -15
q33 0 50 19t23 48h91q-5 -32 -19 -59t-35.5 -47t-50.5 -31.5t-64 -11.5q-64 0 -100.5 29.5t-36.5 89.5q0 8 0.5 14.5t1.5 15.5h90z" />
    <glyph glyph-name="ubreve" unicode="&#x16d;" horiz-adv-x="524" 
d="M232 90q27 0 49 11t39.5 29.5t29 44t17.5 55.5l46 239h113l-91 -469h-108l8 53q-21 -18 -38.5 -30.5t-35.5 -19.5t-38 -10t-45 -3q-27 0 -50.5 9t-41 27t-27.5 44t-10 60q0 11 1 25t4 29l55 285h113l-52 -270q-4 -20 -4 -39q0 -33 14 -51.5t52 -18.5zM284 682
q-1 -5 -1 -9v-5q0 -23 12.5 -37.5t39.5 -14.5q30 0 47 20t23 46h90q-13 -61 -55.5 -101.5t-112.5 -40.5q-60 0 -95.5 30.5t-35.5 81.5q0 15 3 30h85z" />
    <glyph glyph-name="Uring" unicode="&#x16e;" horiz-adv-x="652" 
d="M161 667h121l-76 -390q-3 -17 -5 -31.5t-2 -28.5q0 -115 124 -115q39 0 66 10.5t46 31.5t31 51.5t20 71.5l78 400h120l-82 -420q-26 -137 -98.5 -200.5t-193.5 -63.5q-57 0 -101 16t-73.5 44t-45 67t-15.5 86q0 28 6 60zM300 804q0 27 10 50.5t27.5 40t41 26t50.5 9.5
t50 -9.5t40.5 -26t27.5 -39.5t10 -50t-10 -50.5t-27.5 -40t-40.5 -26t-50 -9.5t-50.5 9.5t-41 26t-27.5 39.5t-10 50zM429 750q24 0 38 15.5t14 39.5t-14 38.5t-38 14.5t-38 -15t-14 -39t14 -39t38 -15z" />
    <glyph glyph-name="uring" unicode="&#x16f;" horiz-adv-x="524" 
d="M232 90q27 0 49 11t39.5 29.5t29 44t17.5 55.5l46 239h113l-91 -469h-108l8 53q-21 -18 -38.5 -30.5t-35.5 -19.5t-38 -10t-45 -3q-27 0 -50.5 9t-41 27t-27.5 44t-10 60q0 11 1 25t4 29l55 285h113l-52 -270q-4 -20 -4 -39q0 -33 14 -51.5t52 -18.5zM208 644
q0 24 9 44.5t24.5 35.5t36 23.5t44.5 8.5t44.5 -8.5t36.5 -23t25 -35t9 -44.5t-9 -44.5t-24.5 -35.5t-36.5 -23.5t-44 -8.5q-24 0 -44.5 8.5t-36.5 23t-25 35t-9 44.5zM322 599q19 0 31.5 13t12.5 32t-12.5 32t-31.5 13q-18 0 -30.5 -12.5t-12.5 -32.5q0 -19 12.5 -32
t30.5 -13z" />
    <glyph glyph-name="Uhungarumlaut" unicode="&#x170;" horiz-adv-x="652" 
d="M161 667h121l-76 -390q-3 -17 -5 -31.5t-2 -28.5q0 -115 124 -115q39 0 66 10.5t46 31.5t31 51.5t20 71.5l78 400h120l-82 -420q-26 -137 -98.5 -200.5t-193.5 -63.5q-57 0 -101 16t-73.5 44t-45 67t-15.5 86q0 28 6 60zM378 873h127l-133 -156h-89zM559 873h127
l-133 -156h-89z" />
    <glyph glyph-name="uhungarumlaut" unicode="&#x171;" horiz-adv-x="524" 
d="M232 90q27 0 49 11t39.5 29.5t29 44t17.5 55.5l46 239h113l-91 -469h-108l8 53q-21 -18 -38.5 -30.5t-35.5 -19.5t-38 -10t-45 -3q-27 0 -50.5 9t-41 27t-27.5 44t-10 60q0 11 1 25t4 29l55 285h113l-52 -270q-4 -20 -4 -39q0 -33 14 -51.5t52 -18.5zM264 682h110
l-100 -142h-82zM421 682h110l-100 -142h-82z" />
    <glyph glyph-name="Uogonek" unicode="&#x172;" horiz-adv-x="652" 
d="M161 667h121l-76 -390q-3 -17 -5 -31.5t-2 -28.5q0 -115 124 -115q39 0 66 10.5t46 31.5t31 51.5t20 71.5l78 400h120l-82 -420q-10 -51 -24.5 -89t-35 -67t-47.5 -51t-61 -40q-16 -8 -30 -19t-24.5 -23t-17 -24t-6.5 -21q0 -20 24 -20q15 0 27 5.5t21 12.5l25 -77
q-26 -15 -55 -25.5t-63 -10.5q-42 0 -65 20t-23 55q0 27 17 53t48 57q-58 0 -102.5 16t-74.5 44t-45 67t-15 86q0 28 6 60z" />
    <glyph glyph-name="uogonek" unicode="&#x173;" horiz-adv-x="524" 
d="M327 0l8 53q-21 -18 -38.5 -30.5t-35.5 -19.5t-38 -10t-45 -3q-27 0 -50.5 9t-41 27t-27.5 44t-10 60q0 11 1 25t4 29l55 285h113l-52 -270q-4 -20 -4 -39q0 -33 14 -51.5t52 -18.5q27 0 49 11t39.5 29.5t29 44t17.5 55.5l46 239h113l-91 -469q-25 -23 -46 -46.5
t-21 -41.5q0 -20 23 -20q16 0 27.5 5.5t21.5 11.5l23 -71q-24 -14 -52 -24t-60 -10q-40 0 -62 18t-22 51q0 29 21.5 62t59.5 65h-21z" />
    <glyph glyph-name="Wcircumflex" unicode="&#x174;" horiz-adv-x="866" 
d="M108 667h125l14 -505l217 486h116l31 -484l202 503h131l-295 -667h-132l-32 464l-210 -464h-131zM505 873h101l78 -156h-99l-42 84l-75 -84h-103z" />
    <glyph glyph-name="wcircumflex" unicode="&#x175;" horiz-adv-x="718" 
d="M56 469h118l26 -326l158 326h95l34 -326l147 326h125l-242 -469h-109l-36 289l-148 -289h-106zM386 682h100l70 -142h-99l-33 75l-67 -75h-98z" />
    <glyph glyph-name="Ycircumflex" unicode="&#x176;" horiz-adv-x="582" 
d="M250 286l-149 381h132l97 -270l202 270h139l-300 -380l-55 -287h-121zM359 873h101l78 -156h-99l-42 84l-75 -84h-103z" />
    <glyph glyph-name="ycircumflex" unicode="&#x177;" horiz-adv-x="508" 
d="M-2 -93q14 -11 27 -16.5t31 -5.5q28 0 47 22t47 72l16 29l-112 461h129l64 -321l171 321h131l-290 -498q-23 -40 -45 -73.5t-45.5 -58t-49.5 -38t-58 -13.5t-57.5 6.5t-52.5 29.5zM282 682h100l70 -142h-99l-33 75l-67 -75h-98z" />
    <glyph glyph-name="Zacute" unicode="&#x179;" horiz-adv-x="610" 
d="M29 106l455 452h-351l21 109h503l-20 -106l-451 -452h371l-22 -109h-526zM431 873h136l-135 -156h-97z" />
    <glyph glyph-name="zacute" unicode="&#x17a;" horiz-adv-x="453" 
d="M24 85l292 289h-226l19 95h375l-17 -86l-292 -289h240l-18 -94h-389zM318 682h119l-103 -142h-89z" />
    <glyph glyph-name="Zdotaccent" unicode="&#x17b;" horiz-adv-x="610" 
d="M29 106l455 452h-351l21 109h503l-20 -106l-451 -452h371l-22 -109h-526zM362 856h124l-24 -121h-124z" />
    <glyph glyph-name="zdotaccent" unicode="&#x17c;" horiz-adv-x="453" 
d="M24 85l292 289h-226l19 95h375l-17 -86l-292 -289h240l-18 -94h-389zM270 669h118l-23 -115h-118z" />
    <glyph glyph-name="Zcaron" unicode="&#x17d;" horiz-adv-x="610" 
d="M29 106l455 452h-351l21 109h503l-20 -106l-451 -452h371l-22 -109h-526zM455 717h-101l-78 156h97l42 -84l75 84h105z" />
    <glyph glyph-name="zcaron" unicode="&#x17e;" horiz-adv-x="453" 
d="M24 85l292 289h-226l19 95h375l-17 -86l-292 -289h240l-18 -94h-389zM352 540h-100l-70 142h97l32 -77l68 77h101z" />
    <glyph glyph-name="longs" unicode="&#x17f;" horiz-adv-x="225" 
d="M122 498q18 93 65.5 140t130.5 47q34 0 67.5 -12.5t60.5 -41.5l-62 -74q-14 13 -29.5 20.5t-36.5 7.5q-33 0 -53 -22t-30 -70l-95 -493h-114z" />
    <glyph glyph-name="Scommaaccent" unicode="&#x218;" horiz-adv-x="564" 
d="M97 174q39 -42 79.5 -61t94.5 -19t86.5 26.5t32.5 69.5q0 19 -5.5 33t-19 26t-35 23t-53.5 24q-36 14 -65.5 31t-50.5 39t-32.5 51t-11.5 68q0 43 17.5 80t50 63.5t77.5 41.5t100 15q72 0 124.5 -25t89.5 -73l-82 -74q-27 32 -60 49t-75 17q-54 0 -84.5 -23t-30.5 -60
q0 -19 6 -33t20 -26t36.5 -23t54.5 -24q79 -32 120.5 -75t41.5 -112q0 -55 -20 -96.5t-54.5 -69t-81 -41.5t-99.5 -14q-67 0 -134.5 24t-118.5 83zM190 -51h129l-117 -158h-95z" />
    <glyph glyph-name="scommaaccent" unicode="&#x219;" horiz-adv-x="444" 
d="M63 132q36 -28 68 -39.5t75 -11.5q37 0 57 13.5t20 37.5t-22 36.5t-64 30.5q-20 9 -41 20.5t-38 27.5t-27.5 37.5t-10.5 50.5q0 37 15 65.5t40.5 47t60 28t72.5 9.5q43 0 88.5 -17t84.5 -55l-64 -68q-25 23 -54 34t-59 11q-35 0 -52 -12t-17 -32q0 -12 3.5 -20t14 -15.5
t29.5 -17t49 -22.5q48 -21 79.5 -51t31.5 -78q0 -39 -14.5 -68.5t-40.5 -49.5t-61.5 -30t-76.5 -10q-57 0 -107.5 16t-95.5 53zM143 -51h119l-105 -142h-88z" />
    <glyph glyph-name="uni021A" unicode="&#x21a;" horiz-adv-x="598" 
d="M314 558h-218l22 109h556l-22 -109h-217l-108 -558h-121zM197 -51h129l-117 -158h-95z" />
    <glyph glyph-name="uni021B" unicode="&#x21b;" horiz-adv-x="382" 
d="M130 375h-77l19 94h77l29 152h113l-30 -152h122l-19 -94h-121l-41 -212q-3 -15 -3 -30q0 -49 45 -49q20 0 36.5 7.5t31.5 20.5l50 -72q-32 -28 -68 -41.5t-73 -13.5q-71 0 -104 31.5t-33 95.5q0 11 1.5 24t3.5 28zM151 -51h119l-105 -142h-88z" />
    <glyph glyph-name="dotlessj" unicode="&#x237;" horiz-adv-x="240" 
d="M-106 -79q17 -11 31.5 -16.5t31.5 -5.5q14 0 25.5 5t21.5 17.5t18 34.5t15 57l89 456h113l-90 -466q-9 -45 -21.5 -82t-33 -64t-51 -42t-75.5 -15q-74 0 -121 38z" />
    <glyph glyph-name="apostrophe" unicode="&#x2bc;" horiz-adv-x="161" 
d="M151 682h105l-63 -142h-78z" />
    <glyph glyph-name="caron" unicode="&#x2c7;" horiz-adv-x="406" 
d="M332 540h-100l-70 142h97l32 -77l68 77h101z" />
    <glyph glyph-name="uni02C9" unicode="&#x2c9;" horiz-adv-x="371" 
d="M142 647h251l-18 -89h-251z" />
    <glyph glyph-name="breve" unicode="&#x2d8;" horiz-adv-x="410" 
d="M263 682q-1 -5 -1 -9v-5q0 -23 12.5 -37.5t39.5 -14.5q30 0 47 20t23 46h90q-13 -61 -55.5 -101.5t-112.5 -40.5q-60 0 -95.5 30.5t-35.5 81.5q0 15 3 30h85z" />
    <glyph glyph-name="dotaccent" unicode="&#x2d9;" horiz-adv-x="341" 
d="M170 669h118l-23 -115h-118z" />
    <glyph glyph-name="ring" unicode="&#x2da;" horiz-adv-x="361" 
d="M158 644q0 24 9 44.5t24.5 35.5t36 23.5t44.5 8.5t44.5 -8.5t36.5 -23t25 -35t9 -44.5t-9 -44.5t-24.5 -35.5t-36.5 -23.5t-44 -8.5q-24 0 -44.5 8.5t-36.5 23t-25 35t-9 44.5zM272 599q19 0 31.5 13t12.5 32t-12.5 32t-31.5 13q-18 0 -30.5 -12.5t-12.5 -32.5
q0 -19 12.5 -32t30.5 -13z" />
    <glyph glyph-name="ogonek" unicode="&#x2db;" horiz-adv-x="354" 
d="M199 0q-25 -23 -46 -46.5t-21 -41.5q0 -20 23 -20q16 0 27.5 5.5t21.5 11.5l23 -71q-24 -14 -52 -24t-60 -10q-40 0 -62 18t-22 51q0 29 21.5 62t59.5 65h87z" />
    <glyph glyph-name="hungarumlaut" unicode="&#x2dd;" horiz-adv-x="405" 
d="M194 682h110l-100 -142h-82zM351 682h110l-100 -142h-82z" />
    <glyph glyph-name="uni20B9" unicode="&#x20b9;" horiz-adv-x="545" 
d="M524 382h-63q-7 -31 -23 -59t-42.5 -50.5t-64 -37t-86.5 -18.5l210 -217h-148l-225 231l13 67h96q59 0 99.5 21.5t57.5 62.5h-237l17 85h229q-7 40 -36.5 60.5t-85.5 20.5h-91l16 85h423l-27 -85h-124q24 -30 32 -81h87z" />
    <glyph glyph-name="Wgrave" unicode="&#x1e80;" horiz-adv-x="866" 
d="M108 667h125l14 -505l217 486h116l31 -484l202 503h131l-295 -667h-132l-32 464l-210 -464h-131zM408 873h132l45 -156h-96z" />
    <glyph glyph-name="wgrave" unicode="&#x1e81;" horiz-adv-x="718" 
d="M56 469h118l26 -326l158 326h95l34 -326l147 326h125l-242 -469h-109l-36 289l-148 -289h-106zM327 682h115l18 -142h-85z" />
    <glyph glyph-name="Wacute" unicode="&#x1e82;" horiz-adv-x="866" 
d="M108 667h125l14 -505l217 486h116l31 -484l202 503h131l-295 -667h-132l-32 464l-210 -464h-131zM564 873h136l-135 -156h-97z" />
    <glyph glyph-name="wacute" unicode="&#x1e83;" horiz-adv-x="718" 
d="M56 469h118l26 -326l158 326h95l34 -326l147 326h125l-242 -469h-109l-36 289l-148 -289h-106zM430 682h119l-103 -142h-89z" />
    <glyph glyph-name="Wdieresis" unicode="&#x1e84;" horiz-adv-x="866" 
d="M108 667h125l14 -505l217 486h116l31 -484l202 503h131l-295 -667h-132l-32 464l-210 -464h-131zM594 852h118l-23 -114h-118zM389 852h118l-23 -114h-118z" />
    <glyph glyph-name="wdieresis" unicode="&#x1e85;" horiz-adv-x="718" 
d="M56 469h118l26 -326l158 326h95l34 -326l147 326h125l-242 -469h-109l-36 289l-148 -289h-106zM466 665h110l-21 -107h-110zM288 665h111l-21 -107h-111z" />
    <glyph glyph-name="Ygrave" unicode="&#x1ef2;" horiz-adv-x="582" 
d="M250 286l-149 381h132l97 -270l202 270h139l-300 -380l-55 -287h-121zM268 873h132l45 -156h-96z" />
    <glyph glyph-name="ygrave" unicode="&#x1ef3;" horiz-adv-x="508" 
d="M-2 -93q14 -11 27 -16.5t31 -5.5q28 0 47 22t47 72l16 29l-112 461h129l64 -321l171 321h131l-290 -498q-23 -40 -45 -73.5t-45.5 -58t-49.5 -38t-58 -13.5t-57.5 6.5t-52.5 29.5zM221 682h115l18 -142h-85z" />
    <glyph glyph-name="fraction" unicode="&#x2044;" horiz-adv-x="206" 
d="M318 630h110l-483 -630h-111z" />
    <glyph glyph-name="zerosuperior" unicode="&#x2070;" 
d="M387 511q0 -50 -15.5 -91.5t-41.5 -71.5t-59 -46.5t-69 -16.5q-33 0 -57.5 11t-40.5 29.5t-24 43t-8 52.5q0 50 16 91.5t42 71.5t59.5 46.5t68.5 16.5q33 0 57 -11t40 -29.5t24 -43t8 -52.5zM164 424q0 -32 12.5 -47t34.5 -15q15 0 30 10t27 29t19.5 46.5t7.5 61.5
q0 31 -12.5 46t-34.5 15q-15 0 -30 -10t-27 -28.5t-19.5 -46t-7.5 -61.5z" />
    <glyph glyph-name="onesuperior" unicode="&#xb9;" 
d="M229 538l-77 -36l-30 68l136 67h81l-66 -342h-91z" />
    <glyph glyph-name="twosuperior" unicode="&#xb2;" 
d="M76 342q4 21 11.5 36.5t20.5 29t32.5 27t47.5 30.5q45 27 63.5 42t18.5 31q0 14 -9.5 21t-25.5 7q-24 0 -41 -8t-40 -25l-48 55q24 24 62.5 41.5t86.5 17.5q54 0 82 -24.5t28 -66.5q0 -44 -26 -71.5t-74 -55.5l-46.5 -27.5t-39.5 -28.5h156l-16 -78h-252z" />
    <glyph glyph-name="threesuperior" unicode="&#xb3;" 
d="M151 478l101 83h-125l15 76h228l-13 -61l-95 -78q42 -11 59 -34t17 -56q0 -55 -40.5 -89t-109.5 -34q-43 0 -74.5 12t-53.5 30l41 66q22 -16 43 -24.5t45 -8.5q30 0 47 14.5t17 35.5t-14.5 30.5t-32.5 9.5q-21 0 -36 -7z" />
    <glyph glyph-name="foursuperior" unicode="&#x2074;" 
d="M82 425l199 212h93l-41 -212h38l-12 -69h-39l-12 -61h-80l12 61h-171zM253 425l24 124l-119 -124h95z" />
    <glyph glyph-name="fivesuperior" unicode="&#x2075;" 
d="M195 356q30 0 47 14.5t17 39.5q0 37 -49 37q-30 0 -57 -13l-37 32l62 171h192l-17 -76h-127l-19 -54q8 2 17 2.5t14 0.5q51 0 79 -26.5t28 -68.5q0 -58 -40.5 -95.5t-112.5 -37.5q-42 0 -71.5 12.5t-53.5 32.5l44 61q22 -16 41.5 -24t42.5 -8z" />
    <glyph glyph-name="sixsuperior" unicode="&#x2076;" 
d="M334 551q-28 21 -62 21q-38 0 -58.5 -21.5t-31.5 -51.5q15 7 32 11.5t36 4.5q48 0 76.5 -26.5t28.5 -68.5q0 -33 -11.5 -58.5t-31.5 -42.5t-46.5 -25.5t-55.5 -8.5q-33 0 -57 10.5t-39.5 28.5t-23 41.5t-7.5 49.5q0 38 11 79t34.5 75t60 56t88.5 22q57 0 101 -34z
M227 450q-34 0 -60 -18q-2 -7 -2.5 -11.5t-0.5 -11.5q0 -21 12 -37t38 -16q22 0 40.5 13.5t18.5 43.5q0 20 -12.5 28.5t-33.5 8.5z" />
    <glyph glyph-name="sevensuperior" unicode="&#x2077;" 
d="M99 295q38 71 85 141t87 124h-162l16 77h260l-13 -72q-19 -23 -43 -55.5t-48 -69t-46.5 -74.5t-38.5 -71h-97z" />
    <glyph glyph-name="eightsuperior" unicode="&#x2078;" 
d="M273 402q0 14 -11.5 24t-32.5 20q-25 -6 -46.5 -18.5t-21.5 -37.5q0 -13 11 -24.5t37 -11.5q24 0 44 11t20 37zM204 544q0 -13 9 -22t26 -17q20 5 37.5 15.5t17.5 32.5q0 12 -8.5 21.5t-30.5 9.5q-20 0 -35.5 -9t-15.5 -31zM378 563q0 -29 -14.5 -48.5t-50.5 -39.5
q29 -20 35.5 -38.5t6.5 -36.5q0 -21 -9.5 -42t-28.5 -37t-47.5 -26t-65.5 -10q-36 0 -61 8.5t-40.5 22t-22.5 30.5t-7 34q0 37 26 62t64 42q-13 11 -24 26.5t-11 36.5q0 42 33 71t99 29q32 0 54.5 -8t36.5 -20t20.5 -27t6.5 -29z" />
    <glyph glyph-name="ninesuperior" unicode="&#x2079;" 
d="M108 381q17 -12 37 -16.5t39 -4.5q38 0 57.5 22t25.5 51q-15 -7 -31.5 -11t-36.5 -4q-48 0 -76.5 27t-28.5 70q0 33 12 57.5t32 41t46 25t54 8.5q33 0 56.5 -11t39 -30t22.5 -43t7 -50q0 -38 -9 -78.5t-30 -73.5t-56.5 -54.5t-88.5 -21.5q-61 0 -104 31zM220 483
q34 0 60 18q2 7 2.5 11.5t0.5 11.5q0 21 -12 37t-38 16q-10 0 -20.5 -3t-19 -9t-14 -16.5t-5.5 -25.5q0 -20 12.5 -30t33.5 -10z" />
    <glyph glyph-name="zeroinferior" unicode="&#x2080;" 
d="M331 217q0 -50 -15.5 -91.5t-41.5 -71.5t-59 -46.5t-69 -16.5q-33 0 -57.5 11t-40.5 29.5t-24 43t-8 52.5q0 50 16 91.5t42 71.5t59.5 46.5t68.5 16.5q33 0 57 -11t40 -29.5t24 -43t8 -52.5zM108 130q0 -32 12.5 -47t34.5 -15q15 0 30 10t27 29t19.5 46.5t7.5 61.5
q0 31 -12.5 46t-34.5 15q-15 0 -30 -10t-27 -28.5t-19.5 -46t-7.5 -61.5z" />
    <glyph glyph-name="oneinferior" unicode="&#x2081;" 
d="M178 244l-77 -36l-30 68l136 67h81l-66 -342h-91z" />
    <glyph glyph-name="twoinferior" unicode="&#x2082;" 
d="M33 48q4 21 11.5 36.5t20.5 29t32.5 27t47.5 30.5q45 27 63.5 42t18.5 31q0 14 -9.5 21t-25.5 7q-24 0 -41 -8t-40 -25l-48 55q24 24 62.5 41.5t86.5 17.5q54 0 82 -24.5t28 -66.5q0 -44 -26 -71.5t-74 -55.5l-46.5 -27.5t-39.5 -28.5h156l-16 -78h-252z" />
    <glyph glyph-name="threeinferior" unicode="&#x2083;" 
d="M100 184l101 83h-125l15 76h228l-13 -61l-95 -78q42 -11 59 -34t17 -56q0 -55 -40.5 -89t-109.5 -34q-43 0 -74.5 12t-53.5 30l41 66q22 -16 43 -24.5t45 -8.5q30 0 47 14.5t17 35.5t-14.5 30.5t-32.5 9.5q-21 0 -36 -7z" />
    <glyph glyph-name="fourinferior" unicode="&#x2084;" 
d="M26 131l199 212h93l-41 -212h38l-12 -69h-39l-12 -61h-80l12 61h-171zM197 131l24 124l-119 -124h95z" />
    <glyph glyph-name="fiveinferior" unicode="&#x2085;" 
d="M147 62q30 0 47 14.5t17 39.5q0 37 -49 37q-30 0 -57 -13l-37 32l62 171h192l-17 -76h-127l-19 -54q8 2 17 2.5t14 0.5q51 0 79 -26.5t28 -68.5q0 -58 -40.5 -95.5t-112.5 -37.5q-42 0 -71.5 12.5t-53.5 32.5l44 61q22 -16 41.5 -24t42.5 -8z" />
    <glyph glyph-name="sixinferior" unicode="&#x2086;" 
d="M288 257q-28 21 -62 21q-38 0 -58.5 -21.5t-31.5 -51.5q15 7 32 11.5t36 4.5q48 0 76.5 -26.5t28.5 -68.5q0 -33 -11.5 -58.5t-31.5 -42.5t-46.5 -25.5t-55.5 -8.5q-33 0 -57 10.5t-39.5 28.5t-23 41.5t-7.5 49.5q0 38 11 79t34.5 75t60 56t88.5 22q57 0 101 -34z
M181 156q-34 0 -60 -18q-2 -7 -2.5 -11.5t-0.5 -11.5q0 -21 12 -37t38 -16q22 0 40.5 13.5t18.5 43.5q0 20 -12.5 28.5t-33.5 8.5z" />
    <glyph glyph-name="seveninferior" unicode="&#x2087;" 
d="M50 1q38 71 85 141t87 124h-162l16 77h260l-13 -72q-19 -23 -43 -55.5t-48 -69t-46.5 -74.5t-38.5 -71h-97z" />
    <glyph glyph-name="eightinferior" unicode="&#x2088;" 
d="M217 108q0 14 -11.5 24t-32.5 20q-25 -6 -46.5 -18.5t-21.5 -37.5q0 -13 11 -24.5t37 -11.5q24 0 44 11t20 37zM148 250q0 -13 9 -22t26 -17q20 5 37.5 15.5t17.5 32.5q0 12 -8.5 21.5t-30.5 9.5q-20 0 -35.5 -9t-15.5 -31zM322 269q0 -29 -14.5 -48.5t-50.5 -39.5
q29 -20 35.5 -38.5t6.5 -36.5q0 -21 -9.5 -42t-28.5 -37t-47.5 -26t-65.5 -10q-36 0 -61 8.5t-40.5 22t-22.5 30.5t-7 34q0 37 26 62t64 42q-13 11 -24 26.5t-11 36.5q0 42 33 71t99 29q32 0 54.5 -8t36.5 -20t20.5 -27t6.5 -29z" />
    <glyph glyph-name="nineinferior" unicode="&#x2089;" 
d="M64 87q17 -12 37 -16.5t39 -4.5q38 0 57.5 22t25.5 51q-15 -7 -31.5 -11t-36.5 -4q-48 0 -76.5 27t-28.5 70q0 33 12 57.5t32 41t46 25t54 8.5q33 0 56.5 -11t39 -30t22.5 -43t7 -50q0 -38 -9 -78.5t-30 -73.5t-56.5 -54.5t-88.5 -21.5q-61 0 -104 31zM176 189
q34 0 60 18q2 7 2.5 11.5t0.5 11.5q0 21 -12 37t-38 16q-10 0 -20.5 -3t-19 -9t-14 -16.5t-5.5 -25.5q0 -20 12.5 -30t33.5 -10z" />
    <glyph glyph-name="afii61289" unicode="&#x2113;" horiz-adv-x="468" 
d="M138 437q0 71 9.5 119.5t28 78t45 42.5t61.5 13q51 0 84 -37.5t33 -106.5q0 -91 -48 -172.5t-136 -163.5v-20q0 -41 6 -66.5t16.5 -39.5t25 -19.5t31.5 -5.5q32 0 61.5 16.5t45.5 39.5l40 -38q-27 -40 -65.5 -63t-90.5 -23q-70 0 -108 39.5t-38 127.5q-13 -10 -24.5 -18
l-24.5 -17q-5 11 -11.5 22l-13.5 22q19 13 37 27.5l36 30.5v212zM215 289q54 60 85.5 123.5t31.5 132.5q0 48 -16 67.5t-38 19.5q-26 0 -44.5 -33t-18.5 -109v-201z" />
    <glyph glyph-name="estimated" unicode="&#x212e;" horiz-adv-x="889" 
d="M214 138q0 -13 9 -22q48 -51 110 -79t135 -28q79 0 145 32.5t114 86.5h57q-26 -32 -60.5 -57.5t-75.5 -43.5t-87 -28t-94 -10q-83 0 -156 28.5t-127 77t-85.5 114t-31.5 140.5t31.5 140.5t85.5 114.5t127 77.5t156 28.5t156.5 -28.5t128 -77.5t86 -114.5t31.5 -140.5v-10
h-650q-5 0 -5 -4v-197zM717 358q4 0 4 7v197q0 13 -9 24q-48 48 -110 75t-134 27t-134 -29t-110 -77q-5 -4 -7.5 -10.5t-2.5 -13.5v-193q0 -7 5 -7h498z" />
    <glyph glyph-name="onethird" unicode="&#x2153;" horiz-adv-x="925" 
d="M205 538l-77 -36l-30 68l136 67h81l-66 -342h-91zM628 630h110l-483 -630h-111zM655 184l101 83h-125l15 76h228l-13 -61l-95 -78q42 -11 59 -34t17 -56q0 -55 -40.5 -89t-109.5 -34q-43 0 -74.5 12t-53.5 30l41 66q22 -16 43 -24.5t45 -8.5q30 0 47 14.5t17 35.5
t-14.5 30.5t-32.5 9.5q-21 0 -36 -7z" />
    <glyph glyph-name="twothirds" unicode="&#x2154;" horiz-adv-x="925" 
d="M81 342q4 21 11.5 36.5t20.5 29t32.5 27t47.5 30.5q45 27 63.5 42t18.5 31q0 14 -9.5 21t-25.5 7q-24 0 -41 -8t-40 -25l-48 55q24 24 62.5 41.5t86.5 17.5q54 0 82 -24.5t28 -66.5q0 -44 -26 -71.5t-74 -55.5l-46.5 -27.5t-39.5 -28.5h156l-16 -78h-252zM659 630h110
l-483 -630h-111zM655 184l101 83h-125l15 76h228l-13 -61l-95 -78q42 -11 59 -34t17 -56q0 -55 -40.5 -89t-109.5 -34q-43 0 -74.5 12t-53.5 30l41 66q22 -16 43 -24.5t45 -8.5q30 0 47 14.5t17 35.5t-14.5 30.5t-32.5 9.5q-21 0 -36 -7z" />
    <glyph glyph-name="oneeighth" unicode="&#x215b;" horiz-adv-x="925" 
d="M205 538l-77 -36l-30 68l136 67h81l-66 -342h-91zM641 630h110l-483 -630h-111zM777 108q0 14 -11.5 24t-32.5 20q-25 -6 -46.5 -18.5t-21.5 -37.5q0 -13 11 -24.5t37 -11.5q24 0 44 11t20 37zM708 250q0 -13 9 -22t26 -17q20 5 37.5 15.5t17.5 32.5q0 12 -8.5 21.5
t-30.5 9.5q-20 0 -35.5 -9t-15.5 -31zM882 269q0 -29 -14.5 -48.5t-50.5 -39.5q29 -20 35.5 -38.5t6.5 -36.5q0 -21 -9.5 -42t-28.5 -37t-47.5 -26t-65.5 -10q-36 0 -61 8.5t-40.5 22t-22.5 30.5t-7 34q0 37 26 62t64 42q-13 11 -24 26.5t-11 36.5q0 42 33 71t99 29
q32 0 54.5 -8t36.5 -20t20.5 -27t6.5 -29z" />
    <glyph glyph-name="threeeighths" unicode="&#x215c;" horiz-adv-x="925" 
d="M147 478l101 83h-125l15 76h228l-13 -61l-95 -78q42 -11 59 -34t17 -56q0 -55 -40.5 -89t-109.5 -34q-43 0 -74.5 12t-53.5 30l41 66q22 -16 43 -24.5t45 -8.5q30 0 47 14.5t17 35.5t-14.5 30.5t-32.5 9.5q-21 0 -36 -7zM657 630h110l-483 -630h-111zM777 108
q0 14 -11.5 24t-32.5 20q-25 -6 -46.5 -18.5t-21.5 -37.5q0 -13 11 -24.5t37 -11.5q24 0 44 11t20 37zM708 250q0 -13 9 -22t26 -17q20 5 37.5 15.5t17.5 32.5q0 12 -8.5 21.5t-30.5 9.5q-20 0 -35.5 -9t-15.5 -31zM882 269q0 -29 -14.5 -48.5t-50.5 -39.5
q29 -20 35.5 -38.5t6.5 -36.5q0 -21 -9.5 -42t-28.5 -37t-47.5 -26t-65.5 -10q-36 0 -61 8.5t-40.5 22t-22.5 30.5t-7 34q0 37 26 62t64 42q-13 11 -24 26.5t-11 36.5q0 42 33 71t99 29q32 0 54.5 -8t36.5 -20t20.5 -27t6.5 -29z" />
    <glyph glyph-name="fiveeighths" unicode="&#x215d;" horiz-adv-x="925" 
d="M200 356q30 0 47 14.5t17 39.5q0 37 -49 37q-30 0 -57 -13l-37 32l62 171h192l-17 -76h-127l-19 -54q8 2 17 2.5t14 0.5q51 0 79 -26.5t28 -68.5q0 -58 -40.5 -95.5t-112.5 -37.5q-42 0 -71.5 12.5t-53.5 32.5l44 61q22 -16 41.5 -24t42.5 -8zM664 630h110l-483 -630
h-111zM777 108q0 14 -11.5 24t-32.5 20q-25 -6 -46.5 -18.5t-21.5 -37.5q0 -13 11 -24.5t37 -11.5q24 0 44 11t20 37zM708 250q0 -13 9 -22t26 -17q20 5 37.5 15.5t17.5 32.5q0 12 -8.5 21.5t-30.5 9.5q-20 0 -35.5 -9t-15.5 -31zM882 269q0 -29 -14.5 -48.5t-50.5 -39.5
q29 -20 35.5 -38.5t6.5 -36.5q0 -21 -9.5 -42t-28.5 -37t-47.5 -26t-65.5 -10q-36 0 -61 8.5t-40.5 22t-22.5 30.5t-7 34q0 37 26 62t64 42q-13 11 -24 26.5t-11 36.5q0 42 33 71t99 29q32 0 54.5 -8t36.5 -20t20.5 -27t6.5 -29z" />
    <glyph glyph-name="seveneighths" unicode="&#x215e;" horiz-adv-x="925" 
d="M95 295q38 71 85 141t87 124h-162l16 77h260l-13 -72q-19 -23 -43 -55.5t-48 -69t-46.5 -74.5t-38.5 -71h-97zM637 630h110l-483 -630h-111zM777 108q0 14 -11.5 24t-32.5 20q-25 -6 -46.5 -18.5t-21.5 -37.5q0 -13 11 -24.5t37 -11.5q24 0 44 11t20 37zM708 250
q0 -13 9 -22t26 -17q20 5 37.5 15.5t17.5 32.5q0 12 -8.5 21.5t-30.5 9.5q-20 0 -35.5 -9t-15.5 -31zM882 269q0 -29 -14.5 -48.5t-50.5 -39.5q29 -20 35.5 -38.5t6.5 -36.5q0 -21 -9.5 -42t-28.5 -37t-47.5 -26t-65.5 -10q-36 0 -61 8.5t-40.5 22t-22.5 30.5t-7 34
q0 37 26 62t64 42q-13 11 -24 26.5t-11 36.5q0 42 33 71t99 29q32 0 54.5 -8t36.5 -20t20.5 -27t6.5 -29z" />
    <glyph glyph-name="onefifth" unicode="&#x2155;" horiz-adv-x="925" 
d="M205 538l-77 -36l-30 68l136 67h81l-66 -342h-91zM648 630h110l-483 -630h-111zM699 62q30 0 47 14.5t17 39.5q0 37 -49 37q-30 0 -57 -13l-37 32l62 171h192l-17 -76h-127l-19 -54q8 2 17 2.5t14 0.5q51 0 79 -26.5t28 -68.5q0 -58 -40.5 -95.5t-112.5 -37.5
q-42 0 -71.5 12.5t-53.5 32.5l44 61q22 -16 41.5 -24t42.5 -8z" />
    <glyph glyph-name="twofifths" unicode="&#x2156;" horiz-adv-x="925" 
d="M81 342q4 21 11.5 36.5t20.5 29t32.5 27t47.5 30.5q45 27 63.5 42t18.5 31q0 14 -9.5 21t-25.5 7q-24 0 -41 -8t-40 -25l-48 55q24 24 62.5 41.5t86.5 17.5q54 0 82 -24.5t28 -66.5q0 -44 -26 -71.5t-74 -55.5l-46.5 -27.5t-39.5 -28.5h156l-16 -78h-252zM673 630h110
l-483 -630h-111zM699 62q30 0 47 14.5t17 39.5q0 37 -49 37q-30 0 -57 -13l-37 32l62 171h192l-17 -76h-127l-19 -54q8 2 17 2.5t14 0.5q51 0 79 -26.5t28 -68.5q0 -58 -40.5 -95.5t-112.5 -37.5q-42 0 -71.5 12.5t-53.5 32.5l44 61q22 -16 41.5 -24t42.5 -8z" />
    <glyph glyph-name="threefifths" unicode="&#x2157;" horiz-adv-x="925" 
d="M147 478l101 83h-125l15 76h228l-13 -61l-95 -78q42 -11 59 -34t17 -56q0 -55 -40.5 -89t-109.5 -34q-43 0 -74.5 12t-53.5 30l41 66q22 -16 43 -24.5t45 -8.5q30 0 47 14.5t17 35.5t-14.5 30.5t-32.5 9.5q-21 0 -36 -7zM653 630h110l-483 -630h-111zM699 62
q30 0 47 14.5t17 39.5q0 37 -49 37q-30 0 -57 -13l-37 32l62 171h192l-17 -76h-127l-19 -54q8 2 17 2.5t14 0.5q51 0 79 -26.5t28 -68.5q0 -58 -40.5 -95.5t-112.5 -37.5q-42 0 -71.5 12.5t-53.5 32.5l44 61q22 -16 41.5 -24t42.5 -8z" />
    <glyph glyph-name="fourfifths" unicode="&#x2158;" horiz-adv-x="925" 
d="M87 425l199 212h93l-41 -212h38l-12 -69h-39l-12 -61h-80l12 61h-171zM258 425l24 124l-119 -124h95zM677 630h110l-483 -630h-111zM699 62q30 0 47 14.5t17 39.5q0 37 -49 37q-30 0 -57 -13l-37 32l62 171h192l-17 -76h-127l-19 -54q8 2 17 2.5t14 0.5q51 0 79 -26.5
t28 -68.5q0 -58 -40.5 -95.5t-112.5 -37.5q-42 0 -71.5 12.5t-53.5 32.5l44 61q22 -16 41.5 -24t42.5 -8z" />
    <glyph glyph-name="onesixth" unicode="&#x2159;" horiz-adv-x="925" 
d="M205 538l-77 -36l-30 68l136 67h81l-66 -342h-91zM643 630h110l-483 -630h-111zM838 257q-28 21 -62 21q-38 0 -58.5 -21.5t-31.5 -51.5q15 7 32 11.5t36 4.5q48 0 76.5 -26.5t28.5 -68.5q0 -33 -11.5 -58.5t-31.5 -42.5t-46.5 -25.5t-55.5 -8.5q-33 0 -57 10.5
t-39.5 28.5t-23 41.5t-7.5 49.5q0 38 11 79t34.5 75t60 56t88.5 22q57 0 101 -34zM731 156q-34 0 -60 -18q-2 -7 -2.5 -11.5t-0.5 -11.5q0 -21 12 -37t38 -16q22 0 40.5 13.5t18.5 43.5q0 20 -12.5 28.5t-33.5 8.5z" />
    <glyph glyph-name="fivesixths" unicode="&#x215a;" horiz-adv-x="925" 
d="M200 356q30 0 47 14.5t17 39.5q0 37 -49 37q-30 0 -57 -13l-37 32l62 171h192l-17 -76h-127l-19 -54q8 2 17 2.5t14 0.5q51 0 79 -26.5t28 -68.5q0 -58 -40.5 -95.5t-112.5 -37.5q-42 0 -71.5 12.5t-53.5 32.5l44 61q22 -16 41.5 -24t42.5 -8zM659 630h110l-483 -630
h-111zM838 257q-28 21 -62 21q-38 0 -58.5 -21.5t-31.5 -51.5q15 7 32 11.5t36 4.5q48 0 76.5 -26.5t28.5 -68.5q0 -33 -11.5 -58.5t-31.5 -42.5t-46.5 -25.5t-55.5 -8.5q-33 0 -57 10.5t-39.5 28.5t-23 41.5t-7.5 49.5q0 38 11 79t34.5 75t60 56t88.5 22q57 0 101 -34z
M731 156q-34 0 -60 -18q-2 -7 -2.5 -11.5t-0.5 -11.5q0 -21 12 -37t38 -16q22 0 40.5 13.5t18.5 43.5q0 20 -12.5 28.5t-33.5 8.5z" />
    <glyph glyph-name="oneseventh" unicode="&#xf506;" horiz-adv-x="925" 
d="M205 538l-77 -36l-30 68l136 67h81l-66 -342h-91zM621 630h110l-483 -630h-111zM603 1q38 71 85 141t87 124h-162l16 77h260l-13 -72q-19 -23 -43 -55.5t-48 -69t-46.5 -74.5t-38.5 -71h-97z" />
    <glyph glyph-name="twosevenths" unicode="&#xf507;" horiz-adv-x="925" 
d="M81 342q4 21 11.5 36.5t20.5 29t32.5 27t47.5 30.5q45 27 63.5 42t18.5 31q0 14 -9.5 21t-25.5 7q-24 0 -41 -8t-40 -25l-48 55q24 24 62.5 41.5t86.5 17.5q54 0 82 -24.5t28 -66.5q0 -44 -26 -71.5t-74 -55.5l-46.5 -27.5t-39.5 -28.5h156l-16 -78h-252zM649 630h110
l-483 -630h-111zM603 1q38 71 85 141t87 124h-162l16 77h260l-13 -72q-19 -23 -43 -55.5t-48 -69t-46.5 -74.5t-38.5 -71h-97z" />
    <glyph glyph-name="threesevenths" unicode="&#xf508;" horiz-adv-x="925" 
d="M147 478l101 83h-125l15 76h228l-13 -61l-95 -78q42 -11 59 -34t17 -56q0 -55 -40.5 -89t-109.5 -34q-43 0 -74.5 12t-53.5 30l41 66q22 -16 43 -24.5t45 -8.5q30 0 47 14.5t17 35.5t-14.5 30.5t-32.5 9.5q-21 0 -36 -7zM629 630h110l-483 -630h-111zM603 1q38 71 85 141
t87 124h-162l16 77h260l-13 -72q-19 -23 -43 -55.5t-48 -69t-46.5 -74.5t-38.5 -71h-97z" />
    <glyph glyph-name="foursevenths" unicode="&#xf509;" horiz-adv-x="925" 
d="M87 425l199 212h93l-41 -212h38l-12 -69h-39l-12 -61h-80l12 61h-171zM258 425l24 124l-119 -124h95zM651 630h110l-483 -630h-111zM603 1q38 71 85 141t87 124h-162l16 77h260l-13 -72q-19 -23 -43 -55.5t-48 -69t-46.5 -74.5t-38.5 -71h-97z" />
    <glyph glyph-name="fivesevenths" unicode="&#xf50a;" horiz-adv-x="925" 
d="M200 356q30 0 47 14.5t17 39.5q0 37 -49 37q-30 0 -57 -13l-37 32l62 171h192l-17 -76h-127l-19 -54q8 2 17 2.5t14 0.5q51 0 79 -26.5t28 -68.5q0 -58 -40.5 -95.5t-112.5 -37.5q-42 0 -71.5 12.5t-53.5 32.5l44 61q22 -16 41.5 -24t42.5 -8zM641 630h110l-483 -630
h-111zM603 1q38 71 85 141t87 124h-162l16 77h260l-13 -72q-19 -23 -43 -55.5t-48 -69t-46.5 -74.5t-38.5 -71h-97z" />
    <glyph glyph-name="sixsevenths" unicode="&#xf50b;" horiz-adv-x="925" 
d="M330 551q-28 21 -62 21q-38 0 -58.5 -21.5t-31.5 -51.5q15 7 32 11.5t36 4.5q48 0 76.5 -26.5t28.5 -68.5q0 -33 -11.5 -58.5t-31.5 -42.5t-46.5 -25.5t-55.5 -8.5q-33 0 -57 10.5t-39.5 28.5t-23 41.5t-7.5 49.5q0 38 11 79t34.5 75t60 56t88.5 22q57 0 101 -34z
M223 450q-34 0 -60 -18q-2 -7 -2.5 -11.5t-0.5 -11.5q0 -21 12 -37t38 -16q22 0 40.5 13.5t18.5 43.5q0 20 -12.5 28.5t-33.5 8.5zM638 630h110l-483 -630h-111zM603 1q38 71 85 141t87 124h-162l16 77h260l-13 -72q-19 -23 -43 -55.5t-48 -69t-46.5 -74.5t-38.5 -71h-97z
" />
    <glyph glyph-name="oneninth" unicode="&#xf50c;" horiz-adv-x="925" 
d="M205 538l-77 -36l-30 68l136 67h81l-66 -342h-91zM631 630h110l-483 -630h-111zM612 87q17 -12 37 -16.5t39 -4.5q38 0 57.5 22t25.5 51q-15 -7 -31.5 -11t-36.5 -4q-48 0 -76.5 27t-28.5 70q0 33 12 57.5t32 41t46 25t54 8.5q33 0 56.5 -11t39 -30t22.5 -43t7 -50
q0 -38 -9 -78.5t-30 -73.5t-56.5 -54.5t-88.5 -21.5q-61 0 -104 31zM724 189q34 0 60 18q2 7 2.5 11.5t0.5 11.5q0 21 -12 37t-38 16q-10 0 -20.5 -3t-19 -9t-14 -16.5t-5.5 -25.5q0 -20 12.5 -30t33.5 -10z" />
    <glyph glyph-name="twoninths" unicode="&#xf50d;" horiz-adv-x="925" 
d="M81 342q4 21 11.5 36.5t20.5 29t32.5 27t47.5 30.5q45 27 63.5 42t18.5 31q0 14 -9.5 21t-25.5 7q-24 0 -41 -8t-40 -25l-48 55q24 24 62.5 41.5t86.5 17.5q54 0 82 -24.5t28 -66.5q0 -44 -26 -71.5t-74 -55.5l-46.5 -27.5t-39.5 -28.5h156l-16 -78h-252zM655 630h110
l-483 -630h-111zM612 87q17 -12 37 -16.5t39 -4.5q38 0 57.5 22t25.5 51q-15 -7 -31.5 -11t-36.5 -4q-48 0 -76.5 27t-28.5 70q0 33 12 57.5t32 41t46 25t54 8.5q33 0 56.5 -11t39 -30t22.5 -43t7 -50q0 -38 -9 -78.5t-30 -73.5t-56.5 -54.5t-88.5 -21.5q-61 0 -104 31z
M724 189q34 0 60 18q2 7 2.5 11.5t0.5 11.5q0 21 -12 37t-38 16q-10 0 -20.5 -3t-19 -9t-14 -16.5t-5.5 -25.5q0 -20 12.5 -30t33.5 -10z" />
    <glyph glyph-name="fourninths" unicode="&#xf50e;" horiz-adv-x="925" 
d="M87 425l199 212h93l-41 -212h38l-12 -69h-39l-12 -61h-80l12 61h-171zM258 425l24 124l-119 -124h95zM664 630h110l-483 -630h-111zM612 87q17 -12 37 -16.5t39 -4.5q38 0 57.5 22t25.5 51q-15 -7 -31.5 -11t-36.5 -4q-48 0 -76.5 27t-28.5 70q0 33 12 57.5t32 41t46 25
t54 8.5q33 0 56.5 -11t39 -30t22.5 -43t7 -50q0 -38 -9 -78.5t-30 -73.5t-56.5 -54.5t-88.5 -21.5q-61 0 -104 31zM724 189q34 0 60 18q2 7 2.5 11.5t0.5 11.5q0 21 -12 37t-38 16q-10 0 -20.5 -3t-19 -9t-14 -16.5t-5.5 -25.5q0 -20 12.5 -30t33.5 -10z" />
    <glyph glyph-name="fiveninths" unicode="&#xf50f;" horiz-adv-x="925" 
d="M200 356q30 0 47 14.5t17 39.5q0 37 -49 37q-30 0 -57 -13l-37 32l62 171h192l-17 -76h-127l-19 -54q8 2 17 2.5t14 0.5q51 0 79 -26.5t28 -68.5q0 -58 -40.5 -95.5t-112.5 -37.5q-42 0 -71.5 12.5t-53.5 32.5l44 61q22 -16 41.5 -24t42.5 -8zM653 630h110l-483 -630
h-111zM612 87q17 -12 37 -16.5t39 -4.5q38 0 57.5 22t25.5 51q-15 -7 -31.5 -11t-36.5 -4q-48 0 -76.5 27t-28.5 70q0 33 12 57.5t32 41t46 25t54 8.5q33 0 56.5 -11t39 -30t22.5 -43t7 -50q0 -38 -9 -78.5t-30 -73.5t-56.5 -54.5t-88.5 -21.5q-61 0 -104 31zM724 189
q34 0 60 18q2 7 2.5 11.5t0.5 11.5q0 21 -12 37t-38 16q-10 0 -20.5 -3t-19 -9t-14 -16.5t-5.5 -25.5q0 -20 12.5 -30t33.5 -10z" />
    <glyph glyph-name="sevenninths" unicode="&#xf510;" horiz-adv-x="925" 
d="M95 295q38 71 85 141t87 124h-162l16 77h260l-13 -72q-19 -23 -43 -55.5t-48 -69t-46.5 -74.5t-38.5 -71h-97zM612 630h110l-483 -630h-111zM612 87q17 -12 37 -16.5t39 -4.5q38 0 57.5 22t25.5 51q-15 -7 -31.5 -11t-36.5 -4q-48 0 -76.5 27t-28.5 70q0 33 12 57.5
t32 41t46 25t54 8.5q33 0 56.5 -11t39 -30t22.5 -43t7 -50q0 -38 -9 -78.5t-30 -73.5t-56.5 -54.5t-88.5 -21.5q-61 0 -104 31zM724 189q34 0 60 18q2 7 2.5 11.5t0.5 11.5q0 21 -12 37t-38 16q-10 0 -20.5 -3t-19 -9t-14 -16.5t-5.5 -25.5q0 -20 12.5 -30t33.5 -10z" />
    <glyph glyph-name="eightninths" unicode="&#xf511;" horiz-adv-x="925" 
d="M278 402q0 14 -11.5 24t-32.5 20q-25 -6 -46.5 -18.5t-21.5 -37.5q0 -13 11 -24.5t37 -11.5q24 0 44 11t20 37zM209 544q0 -13 9 -22t26 -17q20 5 37.5 15.5t17.5 32.5q0 12 -8.5 21.5t-30.5 9.5q-20 0 -35.5 -9t-15.5 -31zM383 563q0 -29 -14.5 -48.5t-50.5 -39.5
q29 -20 35.5 -38.5t6.5 -36.5q0 -21 -9.5 -42t-28.5 -37t-47.5 -26t-65.5 -10q-36 0 -61 8.5t-40.5 22t-22.5 30.5t-7 34q0 37 26 62t64 42q-13 11 -24 26.5t-11 36.5q0 42 33 71t99 29q32 0 54.5 -8t36.5 -20t20.5 -27t6.5 -29zM660 630h110l-483 -630h-111zM612 87
q17 -12 37 -16.5t39 -4.5q38 0 57.5 22t25.5 51q-15 -7 -31.5 -11t-36.5 -4q-48 0 -76.5 27t-28.5 70q0 33 12 57.5t32 41t46 25t54 8.5q33 0 56.5 -11t39 -30t22.5 -43t7 -50q0 -38 -9 -78.5t-30 -73.5t-56.5 -54.5t-88.5 -21.5q-61 0 -104 31zM724 189q34 0 60 18
q2 7 2.5 11.5t0.5 11.5q0 21 -12 37t-38 16q-10 0 -20.5 -3t-19 -9t-14 -16.5t-5.5 -25.5q0 -20 12.5 -30t33.5 -10z" />
    <glyph glyph-name="partialdiff" unicode="&#x2202;" horiz-adv-x="544" 
d="M160 596q39 25 84.5 38.5t93.5 13.5q51 0 89.5 -15.5t65 -43t39.5 -66.5t13 -86t-7.5 -99t-24 -102.5t-42 -96.5t-61.5 -81t-83.5 -55.5t-107.5 -20.5q-52 0 -88 15t-58 40t-31.5 57t-9.5 65q0 53 19.5 98.5t53.5 79.5t80 53t98 19q37 0 70 -6.5t67 -29.5q7 29 7 58
q0 51 -24.5 81t-76.5 30q-31 0 -63.5 -9.5t-59.5 -25.5zM393 268q-18 16 -43.5 26t-67.5 10q-32 0 -56.5 -10.5t-41.5 -28.5t-26 -41t-9 -47q0 -37 18.5 -65.5t59.5 -28.5q62 0 102.5 43.5t63.5 141.5z" />
    <glyph glyph-name="Delta" unicode="&#x2206;" horiz-adv-x="637" 
d="M20 108l338 559h122l121 -559l-20 -108h-581zM477 111l-85 426l-244 -426h329z" />
    <glyph glyph-name="product" unicode="&#x220f;" horiz-adv-x="712" 
d="M190 558h-106l20 109h674l-21 -109h-104l-132 -680h-120l132 680h-223l-132 -680h-120z" />
    <glyph glyph-name="summation" unicode="&#x2211;" horiz-adv-x="550" 
d="M-2 -10l248 295l-135 272l21 110h473l-23 -109h-337l136 -285l-240 -283h333l-23 -111h-475z" />
    <glyph glyph-name="uni2126" unicode="&#x2126;" horiz-adv-x="764" 
d="M421 0l20 103q40 19 73.5 48t57.5 66t37.5 79.5t13.5 87.5q0 37 -10 71.5t-31.5 60.5t-54.5 41.5t-79 15.5q-55 0 -98 -21.5t-73 -57t-45.5 -81t-15.5 -94.5q0 -61 25 -117t77 -99l-19 -103h-285l20 104h155q-52 50 -74.5 106.5t-22.5 116.5q0 70 27 135t75.5 114.5
t116.5 79t149 29.5q66 0 120 -20.5t92.5 -58t59.5 -90t21 -117.5q0 -85 -38 -160t-122 -135h117l-20 -104h-269z" />
    <glyph glyph-name="minus" unicode="&#x2212;" horiz-adv-x="545" 
d="M117 370h382l-19 -96h-382z" />
    <glyph glyph-name="uni2215" unicode="&#x2215;" horiz-adv-x="206" 
d="M318 630h110l-483 -630h-111z" />
    <glyph glyph-name="uni2219" unicode="&#x2219;" horiz-adv-x="238" 
d="M120 412h118l-23 -115h-118z" />
    <glyph glyph-name="radical" unicode="&#x221a;" horiz-adv-x="579" 
d="M143 281h-76l22 109h148l58 -248l288 590h118l-361 -732h-119z" />
    <glyph glyph-name="infinity" unicode="&#x221e;" horiz-adv-x="678" 
d="M343 211q-26 -34 -66 -57t-85 -23q-29 0 -53.5 10t-43.5 29.5t-29.5 47t-10.5 62.5q0 51 17 92t44.5 69.5t64 43.5t75.5 15q45 0 75.5 -21t51.5 -59q26 35 65.5 58t85.5 23q28 0 53 -10.5t44 -29.5t29.5 -47t10.5 -62q0 -52 -17 -93t-44.5 -69.5t-64 -43.5t-75.5 -15
q-45 0 -75.5 21t-51.5 59zM410 316q0 -38 19 -61.5t46 -23.5q21 0 38 10t29 25.5t18 34.5t6 37q0 26 -14.5 45t-43.5 19q-27 0 -54 -24t-44 -62zM316 315q0 38 -19 62t-46 24q-21 0 -38 -10t-29 -26t-18 -35t-6 -37q0 -26 14 -44.5t43 -18.5q28 0 55 24t44 61z" />
    <glyph glyph-name="integral" unicode="&#x222b;" horiz-adv-x="500" 
d="M287 75q-20 -103 -66 -150t-127 -47q-39 0 -72.5 12t-62.5 42l64 74q30 -27 66 -27q34 0 52.5 23.5t28.5 74.5l78 411q20 103 70.5 149.5t128.5 46.5q39 0 72.5 -12t62.5 -42l-65 -73q-14 13 -29.5 19.5t-35.5 6.5q-35 0 -55.5 -23.5t-30.5 -74.5z" />
    <glyph glyph-name="approxequal" unicode="&#x2248;" horiz-adv-x="530" 
d="M372 443q46 0 87 39l43 -75q-65 -68 -134 -68q-22 0 -39.5 7t-34 15t-33 15t-35.5 7q-44 0 -86 -39l-44 75q65 67 134 67q22 0 39.5 -6.5t34 -15t32.5 -15t36 -6.5zM349 262q46 0 87 39l43 -75q-65 -68 -134 -68q-22 0 -39.5 7t-34 15t-33 15t-35.5 7q-44 0 -86 -39
l-44 75q65 67 134 67q22 0 39.5 -6.5t34 -15t32.5 -15t36 -6.5z" />
    <glyph glyph-name="notequal" unicode="&#x2260;" horiz-adv-x="545" 
d="M101 285h127l52 71h-165l19 96h217l83 113l63 -36l-57 -77h76l-19 -96h-128l-52 -71h166l-19 -96h-217l-87 -118l-62 36l60 82h-76z" />
    <glyph glyph-name="lessequal" unicode="&#x2264;" horiz-adv-x="545" 
d="M117 396l368 187l37 -81l-289 -143l228 -151l-53 -77l-305 193zM59 97h382l-19 -96h-382z" />
    <glyph glyph-name="greaterequal" unicode="&#x2265;" horiz-adv-x="545" 
d="M467 325l-368 -187l-37 83l291 145l-230 149l53 75l305 -193zM40 97h382l-19 -96h-382z" />
    <glyph glyph-name="lozenge" unicode="&#x25ca;" horiz-adv-x="559" 
d="M58 334l257 335h112l127 -335l-256 -334h-112zM435 334l-85 233l-176 -233l85 -233z" />
    <glyph glyph-name="fi" unicode="&#xf001;" horiz-adv-x="540" 
d="M408 375h-162l-72 -375h-114l72 375h-77l18 94h78l6 35q8 46 29 80t51.5 56.5t70 33.5t84.5 11q48 0 95.5 -16t80.5 -45l-65 -77q-26 20 -52 29.5t-62 9.5q-42 0 -75 -18.5t-44 -69.5l-6 -29h275l-91 -469h-113z" />
    <glyph glyph-name="fl" unicode="&#xf002;" horiz-adv-x="541" 
d="M455 0h-113l111 574q-15 8 -36 10t-36 2q-39 0 -70 -18.5t-41 -69.5l-6 -29h115l-18 -94h-115l-72 -375h-114l72 375h-77l18 94h78l7 35q18 91 80.5 136t149.5 45q51 0 98 -11.5t92 -38.5z" />
    <glyph glyph-name="zero.alt" unicode="&#xf800;" horiz-adv-x="553" 
d="M362 648q96 0 145 -61.5t49 -164.5q0 -42 -7 -90.5t-22.5 -97t-40 -93.5t-59 -79.5t-79.5 -55.5t-101 -21q-94 0 -143 61.5t-49 163.5q0 41 7.5 89t23 97t39.5 94.5t58 80.5t78.5 56t100.5 21zM260 96q47 0 80.5 34.5t55.5 84.5t32 105.5t10 96.5q0 57 -22.5 89t-64.5 32
q-31 0 -56.5 -16t-45.5 -43t-34 -61t-23 -69.5t-13.5 -70.5t-4.5 -62q0 -57 22 -88.5t64 -31.5z" />
    <glyph glyph-name="one.alt" unicode="&#xf801;" horiz-adv-x="434" 
d="M73 102h104l77 397l-121 -63l-43 85l204 109h99l-103 -528h100l-19 -102h-318z" />
    <glyph glyph-name="two.alt" unicode="&#xf802;" horiz-adv-x="496" 
d="M18 68q14 79 65.5 135.5t126.5 106.5l64 42.5t50 37t32.5 38.5t11.5 46q0 37 -22 54t-55 17q-36 0 -68.5 -20.5t-56.5 -55.5l-80 61q17 22 38 43.5t48.5 38t62 26.5t78.5 10q45 0 78.5 -12.5t56 -34t34 -49.5t11.5 -58q0 -41 -11 -72.5t-32 -57.5t-51 -49t-68 -48
l-56.5 -36.5t-50.5 -36.5t-41 -40.5t-27 -47.5h263l-20 -106h-393z" />
    <glyph glyph-name="three.alt" unicode="&#xf803;" horiz-adv-x="507" 
d="M240 299q-16 0 -28.5 -2t-28.5 -7l-33 52l201 184h-232l20 103h374l-18 -89l-181 -167q36 -6 62 -22.5t43.5 -39t26 -50.5t8.5 -56q0 -48 -18 -89t-51 -70.5t-79 -46.5t-101 -17q-74 0 -123 23t-84 55l63 85q31 -30 64 -45.5t81 -15.5q28 0 51.5 9t40.5 25t26.5 37.5
t9.5 47.5q0 40 -23 68t-71 28z" />
    <glyph glyph-name="four.alt" unicode="&#xf804;" horiz-adv-x="526" 
d="M46 215l353 415h118l-81 -410h63l-19 -97h-63l-24 -123h-107l23 123h-282zM328 220l51 256l-218 -256h167z" />
    <glyph glyph-name="five.alt" unicode="&#xf805;" horiz-adv-x="495" 
d="M207 85q60 0 93.5 37t33.5 97q0 48 -27 70t-72 22q-29 0 -51.5 -7t-45.5 -18l-46 43l97 301h318l-21 -109h-231l-40 -126q18 5 35 7.5t38 2.5q40 0 71 -15t52 -40t31.5 -58t10.5 -69q0 -52 -17.5 -96t-49.5 -76t-77.5 -50t-102.5 -18q-73 0 -119.5 21t-80.5 53l62 82
q32 -29 63 -41.5t76 -12.5z" />
    <glyph glyph-name="six.alt" unicode="&#xf806;" horiz-adv-x="526" 
d="M492 510q-23 17 -46.5 26t-56.5 9q-35 0 -64.5 -14.5t-53 -38.5t-40.5 -55.5t-26 -66.5q26 17 53 27.5t69 10.5q39 0 70.5 -13.5t53.5 -37t34 -55.5t12 -68q0 -62 -18.5 -109t-50 -78.5t-73.5 -48t-90 -16.5q-53 0 -90.5 18.5t-62 49t-36 71t-11.5 85.5q0 49 8.5 100.5
t26.5 100.5t45 93t63.5 77t83 52t103.5 19q49 0 88 -14.5t68 -37.5zM183 269q-5 -17 -6.5 -32.5t-1.5 -34.5q0 -21 5 -42t17 -38t31 -27.5t46 -10.5q22 0 43 8.5t36.5 25.5t25 42.5t9.5 60.5q0 42 -24 65.5t-66 23.5q-39 0 -67 -12t-48 -29z" />
    <glyph glyph-name="seven.alt" unicode="&#xf807;" horiz-adv-x="465" 
d="M54 0q33 65 76 141l87 148.5l85 134.5t70 99h-282l21 107h405l-20 -103q-38 -50 -82 -116l-87.5 -137.5t-82.5 -143t-67 -130.5h-123z" />
    <glyph glyph-name="eight.alt" unicode="&#xf808;" horiz-adv-x="551" 
d="M302 298q-23 -6 -46.5 -16.5t-42.5 -26t-31 -37.5t-12 -50q0 -33 25.5 -60.5t73.5 -27.5q23 0 45 6t39.5 19.5t28 34t10.5 50.5q0 31 -21 61t-69 47zM333 386q19 4 38 12t34 20t24.5 29.5t9.5 40.5q0 32 -21 51.5t-63 19.5q-18 0 -36 -4.5t-32.5 -15t-23.5 -28t-9 -42.5
q0 -24 21 -46.5t58 -36.5zM425 342q15 -10 30.5 -24.5t28 -33t20 -42.5t7.5 -53q0 -37 -15.5 -73.5t-46 -66t-77 -47.5t-108.5 -18q-59 0 -100 15.5t-67 40t-38 55t-12 60.5q0 37 13 67.5t35 55t52 43.5t64 34q-26 21 -45 47.5t-19 68.5q0 33 13.5 64.5t40.5 56.5t66.5 40.5
t92.5 15.5q52 0 88 -13.5t58.5 -34.5t32.5 -47t10 -51q0 -60 -30.5 -96t-93.5 -64z" />
    <glyph glyph-name="nine.alt" unicode="&#xf809;" horiz-adv-x="525" 
d="M83 124q49 -37 117 -37q34 0 61.5 13t48.5 36t35.5 54t23.5 67q-29 -18 -56 -26t-59 -8q-37 0 -68.5 13.5t-54 37t-35.5 55t-13 67.5q0 63 20 110.5t52.5 79t74.5 47t86 15.5q51 0 88.5 -18t62 -48t36.5 -69.5t12 -83.5q0 -49 -8 -101t-25 -101.5t-43 -93.5t-61.5 -77
t-81.5 -52.5t-103 -19.5q-51 0 -90 13t-70 37zM397 363q4 14 6.5 27.5t2.5 32.5q0 22 -4.5 44.5t-16 40.5t-30.5 29t-48 11q-19 0 -40 -7t-38 -22.5t-28.5 -41t-11.5 -61.5q0 -94 93 -94q35 0 64.5 11.5t50.5 29.5z" />
    <glyph glyph-name="zero.sups" unicode="&#xf80a;" 
d="M389 601q0 -50 -15.5 -91.5t-41.5 -71.5t-59 -46.5t-69 -16.5q-33 0 -57.5 11t-40.5 29.5t-24 43t-8 52.5q0 50 16 91.5t42 71.5t59.5 46.5t68.5 16.5q33 0 57 -11t40 -29.5t24 -43t8 -52.5zM166 514q0 -32 12.5 -47t34.5 -15q15 0 30 10t27 29t19.5 46.5t7.5 61.5
q0 31 -12.5 46t-34.5 15q-15 0 -30 -10t-27 -28.5t-19.5 -46t-7.5 -61.5z" />
    <glyph glyph-name="one.sups" unicode="&#xf80b;" 
d="M222 628l-77 -36l-30 68l136 67h81l-66 -342h-91z" />
    <glyph glyph-name="two.sups" unicode="&#xf80c;" 
d="M96 432q4 21 11.5 36.5t20.5 29t32.5 27t47.5 30.5q45 27 63.5 42t18.5 31q0 14 -9.5 21t-25.5 7q-24 0 -41 -8t-40 -25l-48 55q24 24 62.5 41.5t86.5 17.5q54 0 82 -24.5t28 -66.5q0 -44 -26 -71.5t-74 -55.5l-46.5 -27.5t-39.5 -28.5h156l-16 -78h-252z" />
    <glyph glyph-name="three.sups" unicode="&#xf80d;" 
d="M163 568l101 83h-125l15 76h228l-13 -61l-95 -78q42 -11 59 -34t17 -56q0 -55 -40.5 -89t-109.5 -34q-43 0 -74.5 12t-53.5 30l41 66q22 -16 43 -24.5t45 -8.5q30 0 47 14.5t17 35.5t-14.5 30.5t-32.5 9.5q-21 0 -36 -7z" />
    <glyph glyph-name="four.sups" unicode="&#xf80e;" 
d="M85 515l199 212h93l-41 -212h38l-12 -69h-39l-12 -61h-80l12 61h-171zM256 515l24 124l-119 -124h95z" />
    <glyph glyph-name="five.sups" unicode="&#xf80f;" 
d="M197 446q30 0 47 14.5t17 39.5q0 37 -49 37q-30 0 -57 -13l-37 32l62 171h192l-17 -76h-127l-19 -54q8 2 17 2.5t14 0.5q51 0 79 -26.5t28 -68.5q0 -58 -40.5 -95.5t-112.5 -37.5q-42 0 -71.5 12.5t-53.5 32.5l44 61q22 -16 41.5 -24t42.5 -8z" />
    <glyph glyph-name="six.sups" unicode="&#xf810;" 
d="M336 641q-28 21 -62 21q-38 0 -58.5 -21.5t-31.5 -51.5q15 7 32 11.5t36 4.5q48 0 76.5 -26.5t28.5 -68.5q0 -33 -11.5 -58.5t-31.5 -42.5t-46.5 -25.5t-55.5 -8.5q-33 0 -57 10.5t-39.5 28.5t-23 41.5t-7.5 49.5q0 38 11 79t34.5 75t60 56t88.5 22q57 0 101 -34z
M229 540q-34 0 -60 -18q-2 -7 -2.5 -11.5t-0.5 -11.5q0 -21 12 -37t38 -16q22 0 40.5 13.5t18.5 43.5q0 20 -12.5 28.5t-33.5 8.5z" />
    <glyph glyph-name="seven.sups" unicode="&#xf811;" 
d="M111 385q38 71 85 141t87 124h-162l16 77h260l-13 -72q-19 -23 -43 -55.5t-48 -69t-46.5 -74.5t-38.5 -71h-97z" />
    <glyph glyph-name="eight.sups" unicode="&#xf812;" 
d="M279 492q0 14 -11.5 24t-32.5 20q-25 -6 -46.5 -18.5t-21.5 -37.5q0 -13 11 -24.5t37 -11.5q24 0 44 11t20 37zM210 634q0 -13 9 -22t26 -17q20 5 37.5 15.5t17.5 32.5q0 12 -8.5 21.5t-30.5 9.5q-20 0 -35.5 -9t-15.5 -31zM384 653q0 -29 -14.5 -48.5t-50.5 -39.5
q29 -20 35.5 -38.5t6.5 -36.5q0 -21 -9.5 -42t-28.5 -37t-47.5 -26t-65.5 -10q-36 0 -61 8.5t-40.5 22t-22.5 30.5t-7 34q0 37 26 62t64 42q-13 11 -24 26.5t-11 36.5q0 42 33 71t99 29q32 0 54.5 -8t36.5 -20t20.5 -27t6.5 -29z" />
    <glyph glyph-name="nine.sups" unicode="&#xf813;" 
d="M125 471q17 -12 37 -16.5t39 -4.5q38 0 57.5 22t25.5 51q-15 -7 -31.5 -11t-36.5 -4q-48 0 -76.5 27t-28.5 70q0 33 12 57.5t32 41t46 25t54 8.5q33 0 56.5 -11t39 -30t22.5 -43t7 -50q0 -38 -9 -78.5t-30 -73.5t-56.5 -54.5t-88.5 -21.5q-61 0 -104 31zM237 573
q34 0 60 18q2 7 2.5 11.5t0.5 11.5q0 21 -12 37t-38 16q-10 0 -20.5 -3t-19 -9t-14 -16.5t-5.5 -25.5q0 -20 12.5 -30t33.5 -10z" />
    <glyph glyph-name="zero.sinf" unicode="&#xf814;" 
d="M319 127q0 -50 -15.5 -91.5t-41.5 -71.5t-59 -46.5t-69 -16.5q-33 0 -57.5 11t-40.5 29.5t-24 43t-8 52.5q0 50 16 91.5t42 71.5t59.5 46.5t68.5 16.5q33 0 57 -11t40 -29.5t24 -43t8 -52.5zM96 40q0 -32 12.5 -47t34.5 -15q15 0 30 10t27 29t19.5 46.5t7.5 61.5
q0 31 -12.5 46t-34.5 15q-15 0 -30 -10t-27 -28.5t-19.5 -46t-7.5 -61.5z" />
    <glyph glyph-name="one.sinf" unicode="&#xf815;" 
d="M171 154l-77 -36l-30 68l136 67h81l-66 -342h-91z" />
    <glyph glyph-name="two.sinf" unicode="&#xf816;" 
d="M23 -42q4 21 11.5 36.5t20.5 29t32.5 27t47.5 30.5q45 27 63.5 42t18.5 31q0 14 -9.5 21t-25.5 7q-24 0 -41 -8t-40 -25l-48 55q24 24 62.5 41.5t86.5 17.5q54 0 82 -24.5t28 -66.5q0 -44 -26 -71.5t-74 -55.5l-46.5 -27.5t-39.5 -28.5h156l-16 -78h-252z" />
    <glyph glyph-name="three.sinf" unicode="&#xf817;" 
d="M91 94l101 83h-125l15 76h228l-13 -61l-95 -78q42 -11 59 -34t17 -56q0 -55 -40.5 -89t-109.5 -34q-43 0 -74.5 12t-53.5 30l41 66q22 -16 43 -24.5t45 -8.5q30 0 47 14.5t17 35.5t-14.5 30.5t-32.5 9.5q-21 0 -36 -7z" />
    <glyph glyph-name="four.sinf" unicode="&#xf818;" 
d="M-12 41l199 212h93l-41 -212h38l-12 -69h-39l-12 -61h-80l12 61h-171zM159 41l24 124l-119 -124h95z" />
    <glyph glyph-name="five.sinf" unicode="&#xf819;" 
d="M116 -28q30 0 47 14.5t17 39.5q0 37 -49 37q-30 0 -57 -13l-37 32l62 171h192l-17 -76h-127l-19 -54q8 2 17 2.5t14 0.5q51 0 79 -26.5t28 -68.5q0 -58 -40.5 -95.5t-112.5 -37.5q-42 0 -71.5 12.5t-53.5 32.5l44 61q22 -16 41.5 -24t42.5 -8z" />
    <glyph glyph-name="six.sinf" unicode="&#xf81a;" 
d="M264 167q-28 21 -62 21q-38 0 -58.5 -21.5t-31.5 -51.5q15 7 32 11.5t36 4.5q48 0 76.5 -26.5t28.5 -68.5q0 -33 -11.5 -58.5t-31.5 -42.5t-46.5 -25.5t-55.5 -8.5q-33 0 -57 10.5t-39.5 28.5t-23 41.5t-7.5 49.5q0 38 11 79t34.5 75t60 56t88.5 22q57 0 101 -34zM157 66
q-34 0 -60 -18q-2 -7 -2.5 -11.5t-0.5 -11.5q0 -21 12 -37t38 -16q22 0 40.5 13.5t18.5 43.5q0 20 -12.5 28.5t-33.5 8.5z" />
    <glyph glyph-name="seven.sinf" unicode="&#xf81b;" 
d="M36 -89q38 71 85 141t87 124h-162l16 77h260l-13 -72q-19 -23 -43 -55.5t-48 -69t-46.5 -74.5t-38.5 -71h-97z" />
    <glyph glyph-name="eight.sinf" unicode="&#xf81c;" 
d="M200 18q0 14 -11.5 24t-32.5 20q-25 -6 -46.5 -18.5t-21.5 -37.5q0 -13 11 -24.5t37 -11.5q24 0 44 11t20 37zM131 160q0 -13 9 -22t26 -17q20 5 37.5 15.5t17.5 32.5q0 12 -8.5 21.5t-30.5 9.5q-20 0 -35.5 -9t-15.5 -31zM305 179q0 -29 -14.5 -48.5t-50.5 -39.5
q29 -20 35.5 -38.5t6.5 -36.5q0 -21 -9.5 -42t-28.5 -37t-47.5 -26t-65.5 -10q-36 0 -61 8.5t-40.5 22t-22.5 30.5t-7 34q0 37 26 62t64 42q-13 11 -24 26.5t-11 36.5q0 42 33 71t99 29q32 0 54.5 -8t36.5 -20t20.5 -27t6.5 -29z" />
    <glyph glyph-name="nine.sinf" unicode="&#xf81d;" 
d="M47 -3q17 -12 37 -16.5t39 -4.5q38 0 57.5 22t25.5 51q-15 -7 -31.5 -11t-36.5 -4q-48 0 -76.5 27t-28.5 70q0 33 12 57.5t32 41t46 25t54 8.5q33 0 56.5 -11t39 -30t22.5 -43t7 -50q0 -38 -9 -78.5t-30 -73.5t-56.5 -54.5t-88.5 -21.5q-61 0 -104 31zM159 99q34 0 60 18
q2 7 2.5 11.5t0.5 11.5q0 21 -12 37t-38 16q-10 0 -20.5 -3t-19 -9t-14 -16.5t-5.5 -25.5q0 -20 12.5 -30t33.5 -10z" />
    <glyph glyph-name="hungarumlaut.cap" horiz-adv-x="433" 
d="M237 873h127l-133 -156h-89zM418 873h127l-133 -156h-89z" />
    <glyph glyph-name="cedilla.cap" horiz-adv-x="492" 
d="M43 -149q34 -13 69 -13q59 0 59 35q0 15 -12.5 19.5t-31.5 4.5q-37 0 -71 -12l20 64q18 6 40.5 10.5t49.5 4.5q44 0 72.5 -20t28.5 -60q0 -31 -13 -52.5t-34.5 -35.5t-48.5 -20.5t-55 -6.5q-35 0 -58.5 5t-36.5 10z" />
    <glyph glyph-name="tilde.cap" horiz-adv-x="433" 
d="M412 821q28 0 46.5 9.5t38.5 26.5l40 -72q-24 -24 -56 -42.5t-74 -18.5q-21 0 -37 6.5t-30 15t-27.5 15t-31.5 6.5q-28 0 -46.5 -9.5t-38.5 -26.5l-40 72q24 24 56 42.5t74 18.5q21 0 36.5 -6.5t29.5 -15t28 -15t32 -6.5z" />
    <glyph glyph-name="ogonek.cap" horiz-adv-x="354" 
d="M203 0q-26 -24 -45.5 -46t-19.5 -41q0 -20 24 -20q17 0 27.5 5.5t20.5 12.5l25 -77q-26 -15 -55 -25.5t-63 -10.5q-42 0 -65 20t-23 55q0 31 23 62.5t62 64.5h89z" />
    <glyph glyph-name="ring.cap" horiz-adv-x="351" 
d="M178 804q0 27 10 50.5t27.5 40t41 26t50.5 9.5t50 -9.5t40.5 -26t27.5 -39.5t10 -50t-10 -50.5t-27.5 -40t-40.5 -26t-50 -9.5t-50.5 9.5t-41 26t-27.5 39.5t-10 50zM307 750q24 0 38 15.5t14 39.5t-14 38.5t-38 14.5t-38 -15t-14 -39t14 -39t38 -15z" />
    <glyph glyph-name="caron.cap" horiz-adv-x="399" 
d="M361 717h-101l-78 156h97l42 -84l75 84h105z" />
    <glyph glyph-name="macron.cap" horiz-adv-x="374" 
d="M175 842h302l-19 -94h-302z" />
    <glyph glyph-name="dieresis.cap" horiz-adv-x="356" 
d="M363 852h118l-23 -114h-118zM158 852h118l-23 -114h-118z" />
    <glyph glyph-name="dotaccent.cap" horiz-adv-x="281" 
d="M218 856h124l-24 -121h-124z" />
    <glyph glyph-name="circumflex.cap" horiz-adv-x="399" 
d="M294 873h101l78 -156h-99l-42 84l-75 -84h-103z" />
    <glyph glyph-name="acute.cap" horiz-adv-x="328" 
d="M273 873h136l-135 -156h-97z" />
    <glyph glyph-name="grave.cap" horiz-adv-x="328" 
d="M206 873h132l45 -156h-96z" />
    <glyph glyph-name="breve.cap" horiz-adv-x="392" 
d="M274 863q-1 -3 -1 -7v-7q0 -23 13 -38t38 -15q33 0 50 19t23 48h91q-5 -32 -19 -59t-35.5 -47t-50.5 -31.5t-64 -11.5q-64 0 -100.5 29.5t-36.5 89.5q0 8 0.5 14.5t1.5 15.5h90z" />
    <glyph glyph-name="commaaccent.cap" horiz-adv-x="318" 
d="M83 -51h129l-117 -158h-95z" />
    <glyph glyph-name="caron.alt" horiz-adv-x="356" 
d="M219 667h102l-63 -169h-72z" />
    <glyph glyph-name="commaaccent" horiz-adv-x="401" 
d="M64 -51h119l-105 -142h-88z" />
    <glyph glyph-name="revcommaaccent" horiz-adv-x="277" 
d="M255 540h-120l103 142h89z" />
    <glyph glyph-name="Parenleft" horiz-adv-x="302" 
d="M115 -67q-8 26 -21.5 87t-13.5 146q0 101 22 192.5t52 166t62 128t53 79.5h114q-39 -57 -73 -121.5t-58.5 -135t-39 -148t-14.5 -161.5q0 -39 3 -75.5t7 -67.5t8.5 -54t8.5 -36h-110z" />
    <glyph glyph-name="Parenright" horiz-adv-x="302" 
d="M254 732q8 -26 21.5 -87t13.5 -146q0 -101 -22 -192.5t-52 -166t-62 -128.5t-53 -79h-114q39 57 73 121.5t58.5 135t39 148t14.5 161.5q0 39 -3 75.5t-7 67t-8.5 54t-8.5 36.5h110z" />
    <glyph glyph-name="Hyphen" horiz-adv-x="426" 
d="M115 388h293l-22 -110h-293z" />
    <glyph glyph-name="Slash" horiz-adv-x="417" 
d="M383 685h110l-390 -701h-112z" />
    <glyph glyph-name="At" horiz-adv-x="929" 
d="M564 213q-12 2 -28.5 4t-44.5 2q-35 0 -59.5 -7t-39.5 -19t-22 -27.5t-7 -32.5q0 -29 18.5 -42.5t53.5 -13.5q19 0 38.5 6.5t36.5 18.5t29 30t17 41zM654 119q-1 -5 -1.5 -8t-0.5 -6q0 -17 9 -21.5t20 -4.5q37 0 63.5 27t43.5 66t24.5 83.5t7.5 80.5q0 59 -21 106.5
t-59.5 81t-92 51.5t-117.5 18q-84 0 -153 -22.5t-119 -66t-77.5 -106t-27.5 -143.5q0 -51 16 -109t53 -116l-81 -46q-52 77 -68.5 143t-16.5 125q0 93 34 172t97 137.5t152.5 91.5t200.5 33q82 0 151.5 -26t120 -72.5t79 -109.5t28.5 -137q0 -68 -17.5 -132t-52 -114
t-84.5 -80.5t-115 -30.5q-47 0 -70 13.5t-34 46.5q-32 -33 -72.5 -45.5t-79.5 -12.5q-64 0 -102.5 33.5t-38.5 93.5q0 42 16.5 77t47 60t73.5 39t96 14q29 0 52 -2t42 -4q3 12 3 23q0 32 -25 50.5t-62 18.5q-48 0 -77.5 -13t-54.5 -28l-44 74q30 22 80.5 42.5t120.5 20.5
q76 0 123 -41.5t47 -116.5q0 -17 -5 -45z" />
    <glyph glyph-name="Bracketleft" horiz-adv-x="325" 
d="M187 732h225l-21 -103h-112l-114 -591h112l-21 -105h-225z" />
    <glyph glyph-name="Backslash" horiz-adv-x="417" 
d="M133 685h104l118 -701h-106z" />
    <glyph glyph-name="Bracketright" horiz-adv-x="325" 
d="M4 38h111l114 591h-111l21 103h225l-156 -799h-225z" />
    <glyph glyph-name="Braceleft" horiz-adv-x="290" 
d="M108 225q1 5 1 15q0 26 -12.5 42t-44.5 16l14 70q36 0 56 21t28 52l46 170q12 45 28.5 73.5t42.5 47.5h119q-21 -18 -40.5 -49.5t-27.5 -60.5l-53 -195q-10 -36 -33 -61t-52 -33q23 -8 35.5 -28t12.5 -50v-7q0 -3 -1 -9l-23 -195q-1 -5 -1 -10v-9q0 -26 7 -51.5t18 -40.5
h-117q-26 26 -26 80q0 19 3 42z" />
    <glyph glyph-name="Braceright" horiz-adv-x="290" 
d="M252 440q-1 -4 -1 -8v-8q0 -25 12.5 -41t44.5 -16l-14 -70q-36 0 -56 -21t-28 -52l-46 -170q-12 -45 -28.5 -73.5t-42.5 -47.5h-119q21 18 40.5 49.5t27.5 60.5l53 195q10 36 33 61t52 33q-23 8 -35.5 28t-12.5 50v7q0 4 1 9l23 195q1 5 1 9v10q0 26 -7 51.5t-18 40.5
h117q26 -27 26 -81q0 -19 -3 -41z" />
    <glyph glyph-name="Guilsinglleft" horiz-adv-x="332" 
d="M105 337l135 190h113l-136 -194l58 -194h-109z" />
    <glyph glyph-name="Bullet" horiz-adv-x="401" 
d="M120 335q0 28 10.5 52t28.5 42t42.5 28.5t51.5 10.5q28 0 52.5 -10.5t42.5 -28.5t28.5 -42t10.5 -52t-10.5 -52.5t-28.5 -42.5t-42.5 -28.5t-52.5 -10.5q-27 0 -51.5 10.5t-42.5 28.5t-28.5 42.5t-10.5 52.5z" />
    <glyph glyph-name="Endash" horiz-adv-x="500" 
d="M40 388h500l-22 -110h-500z" />
    <glyph glyph-name="Emdash" horiz-adv-x="1000" 
d="M40 388h1000l-22 -110h-1000z" />
    <glyph glyph-name="Guilsinglright" horiz-adv-x="332" 
d="M292 329l-135 -190h-113l136 194l-58 194h109z" />
    <glyph glyph-name="Exclamdown" horiz-adv-x="268" 
d="M171 0h-125l91 458h121zM280 529h-137l26 138h137z" />
    <glyph glyph-name="Guillemotleft" horiz-adv-x="529" 
d="M105 337l135 190h113l-136 -194l58 -194h-109zM302 337l135 190h113l-136 -194l58 -194h-109z" />
    <glyph glyph-name="Guillemotright" horiz-adv-x="529" 
d="M489 329l-135 -190h-113l136 194l-58 194h109zM292 329l-135 -190h-113l136 194l-58 194h109z" />
    <glyph glyph-name="Questiondown" horiz-adv-x="501" 
d="M389 430q-8 -50 -39 -91t-76 -71l-38.5 -26t-29.5 -24.5t-19 -26.5t-7 -32q0 -32 20 -50.5t58 -18.5t72 16t66 51l74 -71q-93 -104 -227 -104q-39 0 -73 10t-59.5 30t-40.5 49.5t-15 67.5q0 59 29 98.5t78 73.5l40 28.5t34 28.5t25.5 32.5t14.5 40.5l3 17h115zM418 529
h-137l26 138h137z" />
    <glyph glyph-name="uni0400" unicode="&#x400;" horiz-adv-x="540" 
d="M166 667h415l-22 -110h-294l-31 -159h217l-21 -110h-217l-34 -176h317l-22 -112h-437zM281 873h132l45 -156h-96z" />
    <glyph glyph-name="afii10023" unicode="&#x401;" horiz-adv-x="540" 
d="M166 667h415l-22 -110h-294l-31 -159h217l-21 -110h-217l-34 -176h317l-22 -112h-437zM448 852h118l-23 -114h-118zM243 852h118l-23 -114h-118z" />
    <glyph glyph-name="afii10051" unicode="&#x402;" horiz-adv-x="725" 
d="M180 0l108 557h-192l21 110h542l-21 -110h-229l-31 -162q28 11 57.5 16t58.5 5q41 0 79 -11.5t67 -35t46.5 -60t17.5 -86.5q0 -56 -21.5 -99.5t-57.5 -72.5t-82 -44t-95 -15q-31 0 -59 6l23 100q16 -3 33 -3q27 0 51 7.5t43 22.5t30 37.5t11 51.5q0 27 -10 46t-26.5 31
t-37.5 17t-44 5q-27 0 -54 -6t-50 -15l-57 -292h-121z" />
    <glyph glyph-name="afii10052" unicode="&#x403;" horiz-adv-x="492" 
d="M166 667h402l-21 -110h-281l-108 -557h-121zM423 873h136l-135 -156h-97z" />
    <glyph glyph-name="afii10053" unicode="&#x404;" horiz-adv-x="654" 
d="M599 468q-26 53 -66 80t-100 27q-44 0 -80 -14t-64.5 -38t-48.5 -56.5t-32 -69.5h299l-22 -109h-293q1 -42 12 -77.5t32.5 -61.5t53 -40.5t73.5 -14.5q60 0 107 28.5t84 72.5l75 -81q-22 -26 -50.5 -49.5t-63 -41.5t-75 -28.5t-86.5 -10.5q-62 0 -114 20t-90 58t-59.5 94
t-21.5 127q0 81 27.5 154t77 128t118 87.5t149.5 32.5q94 0 161 -43t96 -118z" />
    <glyph glyph-name="afii10054" unicode="&#x405;" horiz-adv-x="564" 
d="M97 174q39 -42 79.5 -61t94.5 -19t86.5 26.5t32.5 69.5q0 19 -5.5 33t-19 26t-35 23t-53.5 24q-36 14 -65.5 31t-50.5 39t-32.5 51t-11.5 68q0 43 17.5 80t50 63.5t77.5 41.5t100 15q72 0 124.5 -25t89.5 -73l-82 -74q-27 32 -60 49t-75 17q-54 0 -84.5 -23t-30.5 -60
q0 -19 6 -33t20 -26t36.5 -23t54.5 -24q79 -32 120.5 -75t41.5 -112q0 -55 -20 -96.5t-54.5 -69t-81 -41.5t-99.5 -14q-67 0 -134.5 24t-118.5 83z" />
    <glyph glyph-name="afii10055" unicode="&#x406;" horiz-adv-x="256" 
d="M167 667h121l-130 -667h-121z" />
    <glyph glyph-name="afii10056" unicode="&#x407;" horiz-adv-x="256" 
d="M167 667h121l-130 -667h-121zM306 852h118l-23 -114h-118zM101 852h118l-23 -114h-118z" />
    <glyph glyph-name="afii10057" unicode="&#x408;" horiz-adv-x="492" 
d="M77 155q29 -32 57 -44.5t61 -12.5q24 0 43 5t34 18t25.5 35t16.5 55l89 456h121l-93 -479q-21 -109 -79.5 -157.5t-148.5 -48.5q-64 0 -114.5 22t-88.5 70z" />
    <glyph glyph-name="afii10058" unicode="&#x409;" horiz-adv-x="968" 
d="M578 557h-169q-29 -138 -63 -243t-76.5 -176t-96 -107.5t-121.5 -36.5q-13 0 -26 1t-27 4l21 111q5 -1 10.5 -1.5t10.5 -0.5q40 0 75.5 26.5t68.5 90.5t65 172t66 270h402l-45 -233h62q48 0 87.5 -13t67.5 -38t43.5 -62t15.5 -84q0 -54 -19 -98t-54.5 -74.5t-86 -47.5
t-112.5 -17h-206zM653 332l-44 -230h76q66 0 103.5 35.5t37.5 92.5q0 48 -27 75t-80 27h-66z" />
    <glyph glyph-name="afii10059" unicode="&#x40a;" horiz-adv-x="936" 
d="M166 667h118l-48 -249h286l48 249h118l-48 -249h71q46 0 84 -12.5t65 -36.5t42 -59.5t15 -81.5q0 -52 -18.5 -94t-52.5 -72t-82.5 -46t-108.5 -16h-214l60 308h-286l-60 -308h-118zM578 102h85q61 0 96 32.5t35 86.5q0 45 -25 70t-74 25h-75z" />
    <glyph glyph-name="afii10060" unicode="&#x40b;" horiz-adv-x="741" 
d="M301 0h-121l108 557h-192l21 110h542l-21 -110h-229l-31 -162q27 9 56.5 14.5t59.5 5.5q42 0 77.5 -11.5t62 -34.5t41.5 -58t15 -82q0 -18 -2 -33.5t-5 -32.5l-33 -163h-121l32 164q2 13 3.5 24t1.5 22q0 53 -30 75t-81 22q-27 0 -52.5 -5.5t-45.5 -15.5z" />
    <glyph glyph-name="afii10061" unicode="&#x40c;" horiz-adv-x="619" 
d="M158 0h-121l129 667h121l-51 -266h44q38 0 62.5 17t49.5 51l144 198h139l-165 -225q-16 -21 -29.5 -36.5t-27 -26.5t-28 -18.5t-31.5 -13.5q32 -12 52 -35.5t35 -62.5l94 -249h-135l-75 209q-7 19 -14.5 34t-18.5 25t-26 15t-36 5h-56zM457 873h136l-135 -156h-97z" />
    <glyph glyph-name="uni040D" unicode="&#x40d;" horiz-adv-x="675" 
d="M576 0h-120l91 470l-402 -470h-108l129 667h120l-89 -463l395 463h113zM337 873h132l45 -156h-96z" />
    <glyph glyph-name="afii10062" unicode="&#x40e;" horiz-adv-x="602" 
d="M559 667h132l-344 -531q-27 -41 -52 -70t-50.5 -47.5t-53 -27t-58.5 -8.5q-37 0 -67 11.5t-51 28.5l54 90q14 -11 32.5 -18.5t38.5 -7.5q30 0 55 20.5t57 69.5l-143 490h125l98 -365zM364 863q-1 -3 -1 -7v-7q0 -23 13 -38t38 -15q33 0 50 19t23 48h91q-5 -32 -19 -59
t-35.5 -47t-50.5 -31.5t-64 -11.5q-64 0 -100.5 29.5t-36.5 89.5q0 8 0.5 14.5t1.5 15.5h90z" />
    <glyph glyph-name="afii10145" unicode="&#x40f;" horiz-adv-x="672" 
d="M573 0h-213l-29 -154h-109l29 154h-214l129 667h122l-109 -557h294l108 557h121z" />
    <glyph glyph-name="afii10017" unicode="&#x410;" horiz-adv-x="639" 
d="M352 667h133l112 -667h-129l-24 170h-244l-88 -170h-132zM431 272l-37 270l-141 -270h178z" />
    <glyph glyph-name="afii10018" unicode="&#x411;" horiz-adv-x="553" 
d="M166 667h389l-20 -105h-271l-28 -148h89q46 0 83.5 -12.5t64.5 -36.5t41.5 -59t14.5 -80q0 -51 -18.5 -93t-52 -71.5t-81.5 -45.5t-107 -16h-233zM216 312l-41 -210h102q60 0 94.5 32t34.5 85q0 43 -25 68t-73 25h-92z" />
    <glyph glyph-name="afii10019" unicode="&#x412;" horiz-adv-x="577" 
d="M166 667h220q48 0 82.5 -13.5t57 -35t33 -48.5t10.5 -55q0 -36 -9.5 -62t-26 -45.5t-39 -33t-49.5 -22.5q18 -5 37 -16.5t34.5 -28.5t25.5 -40.5t10 -51.5q0 -59 -22 -100t-61 -66.5t-91.5 -37t-113.5 -11.5h-227zM330 400q21 0 42 4.5t38 15.5t27.5 29t10.5 45
q0 39 -24.5 54t-66.5 15h-94l-31 -163h98zM292 105q28 0 52.5 6t42.5 19t28.5 34t10.5 50q0 48 -27.5 65.5t-75.5 17.5h-112l-37 -192h118z" />
    <glyph glyph-name="afii10020" unicode="&#x413;" horiz-adv-x="492" 
d="M166 667h402l-21 -110h-281l-108 -557h-121z" />
    <glyph glyph-name="afii10021" unicode="&#x414;" horiz-adv-x="707" 
d="M721 667l-109 -560h59l-50 -261h-109l30 154h-440l-30 -154h-109l50 261h52q49 58 86.5 118t67.5 127.5t54 145t45 169.5h403zM585 560h-185q-19 -74 -40 -137t-45.5 -118.5t-54 -104t-65.5 -93.5h301z" />
    <glyph glyph-name="afii10022" unicode="&#x415;" horiz-adv-x="540" 
d="M166 667h415l-22 -110h-294l-31 -159h217l-21 -110h-217l-34 -176h317l-22 -112h-437z" />
    <glyph glyph-name="afii10024" unicode="&#x416;" horiz-adv-x="877" 
d="M466 0h-118l56 289h-48q-29 0 -52.5 -20.5t-48.5 -59.5l-134 -209h-139l166 250q31 46 57 67.5t55 30.5q-23 12 -40.5 37.5t-29.5 73.5l-53 208h124l47 -194q9 -37 26 -55.5t47 -18.5h44l52 268h118l-52 -268h37q31 0 54.5 18.5t46.5 55.5l122 194h133l-152 -237
q-21 -32 -45 -52t-51 -30q25 -11 44 -34t30 -64l70 -250h-133l-52 209q-10 38 -26 59t-51 21h-48z" />
    <glyph glyph-name="afii10025" unicode="&#x417;" horiz-adv-x="531" 
d="M212 398h94q21 0 42.5 5.5t39 17t29 29.5t11.5 44q0 42 -29 62.5t-74 20.5q-50 0 -88.5 -22.5t-66.5 -53.5l-65 75q49 54 112 81.5t129 27.5q45 0 82 -13t63.5 -35.5t40.5 -54t14 -68.5q0 -63 -38.5 -108t-100.5 -65q18 -5 36 -16t32 -29t22.5 -42.5t8.5 -55.5
q0 -47 -19.5 -86t-54 -67.5t-80.5 -44.5t-98 -16q-42 0 -78.5 10t-67.5 26.5t-55 39t-40 48.5l80 71q10 -15 26 -31t37 -28.5t46 -20.5t55 -8q57 0 92.5 30t35.5 81q0 23 -7.5 40t-20 27.5t-29 15.5t-33.5 5h-105z" />
    <glyph glyph-name="afii10026" unicode="&#x418;" horiz-adv-x="675" 
d="M576 0h-120l91 470l-402 -470h-108l129 667h120l-89 -463l395 463h113z" />
    <glyph glyph-name="afii10027" unicode="&#x419;" horiz-adv-x="675" 
d="M576 0h-120l91 470l-402 -470h-108l129 667h120l-89 -463l395 463h113zM417 863q-1 -3 -1 -7v-7q0 -23 13 -38t38 -15q33 0 50 19t23 48h91q-5 -32 -19 -59t-35.5 -47t-50.5 -31.5t-64 -11.5q-64 0 -100.5 29.5t-36.5 89.5q0 8 0.5 14.5t1.5 15.5h90z" />
    <glyph glyph-name="afii10028" unicode="&#x41a;" horiz-adv-x="619" 
d="M158 0h-121l129 667h121l-51 -266h44q38 0 62.5 17t49.5 51l144 198h139l-165 -225q-16 -21 -29.5 -36.5t-27 -26.5t-28 -18.5t-31.5 -13.5q32 -12 52 -35.5t35 -62.5l94 -249h-135l-75 209q-7 19 -14.5 34t-18.5 25t-26 15t-36 5h-56z" />
    <glyph glyph-name="afii10029" unicode="&#x41b;" horiz-adv-x="702" 
d="M603 0h-121l109 557h-182q-29 -138 -63 -243t-76.5 -176t-96 -107.5t-121.5 -36.5q-13 0 -26 1t-27 4l21 111q5 -1 10.5 -1.5t10.5 -0.5q40 0 75.5 26.5t68.5 90.5t65 172t66 270h417z" />
    <glyph glyph-name="afii10030" unicode="&#x41c;" horiz-adv-x="756" 
d="M185 667h113l109 -319l245 319h114l-99 -667h-118l72 466l-213 -276h-58l-101 273l-110 -463h-113z" />
    <glyph glyph-name="afii10031" unicode="&#x41d;" horiz-adv-x="680" 
d="M166 667h121l-51 -269h303l51 269h121l-129 -667h-121l55 288h-303l-55 -288h-121z" />
    <glyph glyph-name="afii10032" unicode="&#x41e;" horiz-adv-x="743" 
d="M197 288q0 -39 11 -73.5t33 -60t54.5 -40.5t75.5 -15q54 0 99 24.5t76.5 64t49 89.5t17.5 101q0 39 -10.5 74.5t-31.5 62t-53.5 42t-75.5 15.5q-57 0 -102.5 -25t-77 -65.5t-48.5 -91t-17 -102.5zM452 685q61 0 114 -20.5t92 -58t61.5 -90.5t22.5 -117q0 -83 -27.5 -158
t-77.5 -133t-119.5 -92t-154.5 -34q-64 0 -118 21.5t-93 59.5t-61 91t-22 115q0 83 27.5 158.5t77.5 132.5t121 91t157 34z" />
    <glyph glyph-name="afii10033" unicode="&#x41f;" horiz-adv-x="679" 
d="M166 667h543l-129 -667h-121l108 557h-301l-108 -557h-121z" />
    <glyph glyph-name="afii10034" unicode="&#x420;" horiz-adv-x="531" 
d="M167 667h194q47 0 84 -15.5t63 -40.5t39.5 -57.5t13.5 -65.5q0 -63 -22 -108.5t-59.5 -75t-86 -44t-102.5 -14.5h-88l-48 -246h-118zM302 353q60 0 96 31t36 93q0 40 -24 62.5t-70 22.5h-77l-41 -209h80z" />
    <glyph glyph-name="afii10035" unicode="&#x421;" horiz-adv-x="657" 
d="M632 111q-52 -60 -119 -94.5t-155 -34.5q-65 0 -118 21.5t-91 60.5t-59 93.5t-21 120.5q0 81 28 154.5t78.5 130t120.5 89.5t154 33q97 0 158 -41.5t93 -113.5l-102 -58q-27 49 -61 74.5t-97 25.5q-55 0 -100 -24t-77 -63t-49.5 -90t-17.5 -105q0 -39 11.5 -74t33 -61
t53 -41t72.5 -15q60 0 104 25t80 70z" />
    <glyph glyph-name="afii10036" unicode="&#x422;" horiz-adv-x="598" 
d="M314 558h-218l22 109h556l-22 -109h-217l-108 -558h-121z" />
    <glyph glyph-name="afii10037" unicode="&#x423;" horiz-adv-x="602" 
d="M559 667h132l-344 -531q-27 -41 -52 -70t-50.5 -47.5t-53 -27t-58.5 -8.5q-37 0 -67 11.5t-51 28.5l54 90q14 -11 32.5 -18.5t38.5 -7.5q30 0 55 20.5t57 69.5l-143 490h125l98 -365z" />
    <glyph glyph-name="afii10038" unicode="&#x424;" horiz-adv-x="773" 
d="M294 -31l16 83q-115 14 -178 80.5t-63 171.5q0 68 26.5 126t73.5 101t111.5 69.5t141.5 31.5l14 72h111l-16 -78q115 -14 178 -80.5t63 -171.5q0 -68 -26.5 -126t-73.5 -101t-111.5 -69.5t-141.5 -31.5l-15 -77h-110zM186 317q0 -66 36.5 -109.5t107.5 -53.5l72 374
q-51 -5 -91 -23t-68 -46t-42.5 -64.5t-14.5 -77.5zM655 361q0 66 -36.5 109.5t-106.5 52.5l-73 -373q51 5 91 23t68 46t42.5 64.5t14.5 77.5z" />
    <glyph glyph-name="afii10039" unicode="&#x425;" horiz-adv-x="607" 
d="M264 350l-148 317h137l99 -225l178 225h138l-262 -323l165 -344h-141l-112 249l-197 -249h-142z" />
    <glyph glyph-name="afii10040" unicode="&#x426;" horiz-adv-x="683" 
d="M589 110h59l-51 -264h-109l29 154h-480l129 667h122l-109 -557h289l108 557h121z" />
    <glyph glyph-name="afii10041" unicode="&#x427;" horiz-adv-x="595" 
d="M503 667h121l-129 -667h-121l53 277q-26 -9 -55.5 -14.5t-58.5 -5.5q-41 0 -76 11.5t-61 34.5t-41 58t-15 82q0 18 2 33.5t5 32.5l31 158h121l-30 -159q-2 -13 -3.5 -24t-1.5 -22q0 -53 30 -75t79 -22q26 0 51 5.5t44 15.5z" />
    <glyph glyph-name="afii10042" unicode="&#x428;" horiz-adv-x="1009" 
d="M910 0h-873l129 667h122l-109 -557h255l108 557h121l-108 -557h255l108 557h121z" />
    <glyph glyph-name="afii10043" unicode="&#x429;" horiz-adv-x="1017" 
d="M982 110l-51 -264h-109l30 154h-815l129 667h121l-108 -557h251l108 557h121l-108 -557h251l108 557h121l-108 -557h59z" />
    <glyph glyph-name="afii10044" unicode="&#x42a;" horiz-adv-x="645" 
d="M125 667h263l-45 -233h69q48 0 87.5 -13t67.5 -38t43.5 -62t15.5 -84q0 -54 -19 -98t-54.5 -74.5t-86 -47.5t-112.5 -17h-213l107 557h-144zM323 332l-44 -230h83q66 0 103.5 35.5t37.5 92.5q0 48 -27 75t-80 27h-73z" />
    <glyph glyph-name="afii10045" unicode="&#x42b;" horiz-adv-x="777" 
d="M166 667h118l-45 -233h62q48 0 87.5 -13t67.5 -38t43.5 -62t15.5 -84q0 -54 -19 -98t-54.5 -74.5t-86 -47.5t-112.5 -17h-206zM219 332l-44 -230h76q66 0 103.5 35.5t37.5 92.5q0 48 -27 75t-80 27h-66zM686 667h121l-129 -667h-121z" />
    <glyph glyph-name="afii10046" unicode="&#x42c;" horiz-adv-x="549" 
d="M166 667h118l-45 -233h77q48 0 87.5 -13t67.5 -38t43.5 -62t15.5 -84q0 -54 -19 -98t-54.5 -74.5t-86 -47.5t-112.5 -17h-221zM219 332l-44 -230h91q66 0 103.5 35.5t37.5 92.5q0 48 -27 75t-80 27h-81z" />
    <glyph glyph-name="afii10047" unicode="&#x42d;" horiz-adv-x="655" 
d="M124 201q26 -52 66.5 -79.5t100.5 -27.5q45 0 82.5 15.5t66.5 42t48.5 61.5t30.5 75h-300l22 109h289q-3 38 -14.5 70.5t-32.5 56.5t-50.5 37.5t-67.5 13.5q-60 0 -107 -30t-84 -74l-77 78q48 60 117 98t157 38q60 0 111.5 -20t90 -58.5t60 -94t21.5 -127.5
q0 -81 -27.5 -153.5t-77 -127.5t-118 -87.5t-149.5 -32.5q-94 0 -161 43t-96 118z" />
    <glyph glyph-name="afii10048" unicode="&#x42e;" horiz-adv-x="998" 
d="M716 685q60 0 111.5 -19.5t89 -57t59 -92.5t21.5 -125q0 -78 -26.5 -151.5t-75 -131t-116 -92t-149.5 -34.5q-62 0 -113.5 21t-89 59.5t-58.5 93t-21 122.5v10h-135l-55 -288h-121l129 667h121l-51 -269h129q17 59 49 111t77 91t102 62t123 23zM471 289q0 -40 10.5 -74.5
t30.5 -60t50.5 -40.5t71.5 -15q52 0 95.5 24t74 64t47.5 90.5t17 103.5q0 38 -9.5 72.5t-29.5 61t-50.5 42t-72.5 15.5q-54 0 -97 -25t-74 -65t-47.5 -91t-16.5 -102z" />
    <glyph glyph-name="afii10049" unicode="&#x42f;" horiz-adv-x="554" 
d="M404 353l41 212h-99q-51 0 -84.5 -30t-33.5 -83q0 -44 26 -71.5t82 -27.5h68zM584 667l-129 -667h-119l49 252h-29q-20 0 -34.5 -4.5t-27 -15t-25.5 -27t-29 -39.5l-115 -166h-133l141 199q21 30 41.5 49.5t47.5 32.5q-23 7 -43.5 22.5t-36.5 36.5t-25.5 47.5t-9.5 57.5
q0 51 19 92.5t51.5 70t76 44t93.5 15.5h237z" />
    <glyph glyph-name="afii10065" unicode="&#x430;" horiz-adv-x="494" 
d="M344 216q-12 2 -29 4t-38 2q-38 0 -64 -7t-42 -19t-22.5 -28t-6.5 -33q0 -30 18 -44t50 -14q49 0 83.5 28t42.5 68zM304 0l7 46q-32 -33 -68 -46.5t-71 -13.5q-29 0 -54.5 8.5t-44.5 25.5t-30 42.5t-11 59.5q0 41 16.5 75t48 58t77 37.5t102.5 13.5q19 0 42.5 -1.5
t42.5 -3.5q3 13 3 25q0 33 -24.5 51t-68.5 18t-75 -14.5t-51 -26.5l-44 74q32 23 83.5 43t112.5 20q82 0 128.5 -41t46.5 -116q0 -9 -1 -20.5t-4 -25.5l-56 -288h-107z" />
    <glyph glyph-name="afii10066" unicode="&#x431;" horiz-adv-x="557" 
d="M560 573l-132 -15q-47 -5 -83.5 -17.5t-64.5 -33t-48 -50.5t-34 -71q38 30 74.5 43.5t81.5 13.5q39 0 72 -13.5t56.5 -38.5t37 -60.5t13.5 -80.5q0 -51 -18 -98.5t-51 -83.5t-80.5 -58t-106.5 -22t-99.5 19.5t-66 52t-36.5 75t-11 88.5q0 52 12 102q37 153 117 232.5
t217 96.5l137 17zM280 81q31 0 57 13.5t44 35.5t28 51t10 61q0 52 -27.5 80.5t-74.5 28.5q-32 0 -58 -13t-44.5 -34.5t-29 -50t-10.5 -59.5q0 -47 26.5 -80t78.5 -33z" />
    <glyph glyph-name="afii10067" unicode="&#x432;" horiz-adv-x="503" 
d="M185 280h115q35 0 55.5 16.5t20.5 48.5q0 45 -59 45h-110zM25 0l94 475h229q38 0 64.5 -9.5t43 -25t24 -36.5t7.5 -44q0 -44 -28 -74.5t-66 -41.5q33 -8 54 -33.5t21 -65.5q0 -68 -48.5 -106.5t-131.5 -38.5h-263zM146 85h133q35 0 57.5 16t22.5 50q0 31 -20 40.5
t-48 9.5h-122z" />
    <glyph glyph-name="afii10068" unicode="&#x433;" horiz-adv-x="404" 
d="M415 375h-204l-73 -375h-113l93 475h317z" />
    <glyph glyph-name="afii10069" unicode="&#x434;" horiz-adv-x="575" 
d="M563 475l-75 -380h54l-43 -219h-102l24 124h-335l-24 -124h-102l43 219h51q65 73 104 170t65 210h340zM378 95l56 285h-134q-14 -53 -27.5 -93.5t-29 -74t-32.5 -61.5t-36 -56h203z" />
    <glyph glyph-name="afii10070" unicode="&#x435;" horiz-adv-x="519" 
d="M276 83q38 0 69 13t62 38l57 -79q-38 -32 -87.5 -51.5t-110.5 -19.5q-48 0 -88.5 13.5t-69.5 40.5t-45 67.5t-16 94.5q0 60 19.5 113t54.5 92.5t83.5 62.5t106.5 23q49 0 84 -16t58 -44t34 -64.5t11 -77.5q0 -22 -3 -42.5t-8 -44.5h-325q4 -119 114 -119zM389 285
q1 5 1 7.5v8.5q0 42 -21.5 69t-69.5 27q-27 0 -48.5 -9t-37 -24t-26 -35.5t-16.5 -43.5h218z" />
    <glyph glyph-name="afii10072" unicode="&#x436;" horiz-adv-x="726" 
d="M274 0l38 192h-38q-24 0 -40 -14t-41 -49l-93 -129h-123l117 160q24 33 45 52.5t50 29.5q-26 15 -41 38.5t-24 54.5l-41 140h106l39 -127q9 -29 23.5 -45t43.5 -16h35l37 188h110l-37 -188h41q26 0 43.5 16.5t42.5 51.5l83 120h112l-119 -170q-17 -23 -36.5 -41
t-41.5 -24q26 -11 41 -32.5t25 -49.5l56 -158h-117l-47 141q-8 23 -20.5 37t-41.5 14h-39l-38 -192h-110z" />
    <glyph glyph-name="afii10073" unicode="&#x437;" horiz-adv-x="455" 
d="M150 287h83q41 0 70 15t29 47q0 26 -19.5 38.5t-54.5 12.5q-45 0 -79.5 -17.5t-64.5 -41.5l-50 72q37 35 91.5 56.5t117.5 21.5q79 0 125 -34.5t46 -90.5q0 -45 -28.5 -77.5t-71.5 -49.5q30 -12 50.5 -38t20.5 -67q0 -36 -17.5 -64t-46.5 -46.5t-67.5 -28t-80.5 -9.5
q-68 0 -121.5 22t-85.5 56l58 71q24 -23 61.5 -39.5t87.5 -16.5q20 0 38.5 3t32.5 10.5t22.5 19.5t8.5 30q0 30 -23 42.5t-60 12.5h-90z" />
    <glyph glyph-name="afii10074" unicode="&#x438;" horiz-adv-x="544" 
d="M349 0l63 320l-288 -320h-99l93 475h108l-61 -312l280 312h105l-93 -475h-108z" />
    <glyph glyph-name="afii10075" unicode="&#x439;" horiz-adv-x="544" 
d="M349 0l63 320l-288 -320h-99l93 475h108l-61 -312l280 312h105l-93 -475h-108zM311 671v-9q0 -47 50 -47q26 0 43.5 15t25.5 41h82q-11 -58 -55.5 -92.5t-104.5 -34.5q-54 0 -87 27.5t-33 74.5v12t2 13h77z" />
    <glyph glyph-name="afii10076" unicode="&#x43a;" horiz-adv-x="505" 
d="M25 0l93 475h111l-37 -187h45q32 0 52.5 17.5t43.5 49.5l89 120h119l-115 -154q-23 -32 -45.5 -49.5t-51.5 -27.5q29 -9 45 -31t29 -54l63 -159h-123l-55 141q-8 21 -19 36.5t-40 15.5h-55l-38 -193h-111z" />
    <glyph glyph-name="afii10077" unicode="&#x43b;" horiz-adv-x="571" 
d="M577 475l-93 -475h-113l73 375h-132q-23 -90 -46.5 -160t-54.5 -118t-71.5 -73.5t-96.5 -25.5q-11 0 -22 1t-22 3l20 100q5 -1 8.5 -1h7.5q31 0 56 18.5t47.5 62t44.5 115t46 178.5h348z" />
    <glyph glyph-name="afii10078" unicode="&#x43c;" horiz-adv-x="607" 
d="M263 119l-71 197l-75 -316h-102l113 475h99l85 -240l184 240h108l-75 -475h-109l50 316l-150 -197h-57z" />
    <glyph glyph-name="afii10079" unicode="&#x43d;" horiz-adv-x="546" 
d="M552 475l-93 -475h-113l37 191h-207l-37 -191h-114l93 475h113l-36 -186h207l37 186h113z" />
    <glyph glyph-name="afii10080" unicode="&#x43e;" horiz-adv-x="550" 
d="M49 196q0 60 21 113.5t58 94t88 64t111 23.5q47 0 84.5 -14.5t64 -42t41 -67t14.5 -88.5q0 -60 -21 -113.5t-58 -94t-88 -64t-111 -23.5q-47 0 -84.5 14.5t-64 42t-41 67t-14.5 88.5zM163 211q0 -55 25 -91t76 -36q29 0 56.5 13t48.5 36.5t34 57t13 74.5q0 54 -24.5 90
t-75.5 36q-29 0 -56.5 -13t-49 -36.5t-34.5 -57t-13 -73.5z" />
    <glyph glyph-name="afii10081" unicode="&#x43f;" horiz-adv-x="544" 
d="M550 475l-93 -475h-113l73 375h-206l-73 -375h-113l93 475h432z" />
    <glyph glyph-name="afii10082" unicode="&#x440;" horiz-adv-x="551" 
d="M118 475h111l-8 -53q13 12 28.5 24.5t34 22t40 16t46.5 6.5q33 0 62.5 -12.5t51.5 -38t35 -63.5t13 -89q0 -71 -24 -127t-64 -95.5t-92 -60.5t-107 -21q-26 0 -51 5.5t-53 20.5l-40 -210h-114zM162 113q17 -13 38 -20.5t48 -7.5q40 0 71.5 17t53 44.5t32.5 63t11 71.5
q0 52 -22.5 80.5t-64.5 28.5q-27 0 -50.5 -11.5t-42 -31.5t-32 -48.5t-19.5 -61.5z" />
    <glyph glyph-name="afii10083" unicode="&#x441;" horiz-adv-x="486" 
d="M442 65q-35 -35 -81.5 -58t-108.5 -23q-95 0 -150 56t-55 155q0 60 21 113.5t58 94t88 64.5t111 24q65 0 107.5 -29t66.5 -86l-92 -49q-13 25 -33.5 44t-58.5 19q-31 0 -58.5 -14t-48.5 -38.5t-33.5 -58t-12.5 -71.5q0 -58 28.5 -90t76.5 -32q37 0 64 16.5t48 37.5z" />
    <glyph glyph-name="afii10084" unicode="&#x442;" horiz-adv-x="482" 
d="M513 475l-19 -100h-156l-73 -375h-113l73 375h-154l19 100h423z" />
    <glyph glyph-name="afii10085" unicode="&#x443;" horiz-adv-x="515" 
d="M13 -93q11 -9 25.5 -15.5t30.5 -6.5q15 0 26.5 5.5t22.5 16.5t22 29l25 43l16 29l-110 467h129l62 -327l173 327h131l-292 -504q-26 -45 -49 -79.5t-46.5 -57.5t-50.5 -34.5t-62 -11.5q-29 0 -55 9.5t-45 26.5z" />
    <glyph glyph-name="afii10086" unicode="&#x444;" horiz-adv-x="697" 
d="M395 667h102l-36 -185q101 -11 159 -68t58 -147q0 -53 -21 -101t-61.5 -86t-98.5 -62t-133 -29l-36 -189h-102l37 193q-100 11 -158 68t-58 147q0 53 21 101t61 85.5t98 62t133 29.5zM571 258q0 54 -32 89.5t-96 41.5l-60 -306q45 4 80 19.5t59 38.5t36.5 53t12.5 64z
M154 217q0 -54 32 -89.5t96 -41.5l60 306q-45 -5 -80 -20t-59 -38.5t-36.5 -53t-12.5 -63.5z" />
    <glyph glyph-name="afii10087" unicode="&#x445;" horiz-adv-x="493" 
d="M190 249l-116 226h128l70 -146l119 146h134l-202 -230l123 -245h-128l-79 163l-132 -163h-135z" />
    <glyph glyph-name="afii10088" unicode="&#x446;" horiz-adv-x="554" 
d="M522 100l-44 -224h-102l24 124h-375l93 475h113l-73 -375h197l73 375h113l-73 -375h54z" />
    <glyph glyph-name="afii10089" unicode="&#x447;" horiz-adv-x="508" 
d="M514 475l-93 -475h-113l35 178q-25 -11 -48.5 -16t-49.5 -5q-79 0 -122.5 44t-43.5 113q0 20 5 45l22 116h113l-22 -116q-3 -15 -3 -28q0 -38 23 -59t65 -21q22 0 42.5 5.5t36.5 13.5l40 205h113z" />
    <glyph glyph-name="afii10090" unicode="&#x448;" horiz-adv-x="808" 
d="M25 0l93 475h113l-74 -375h178l74 375h113l-73 -375h179l73 375h113l-93 -475h-696z" />
    <glyph glyph-name="afii10091" unicode="&#x449;" horiz-adv-x="822" 
d="M790 100l-43 -224h-102l24 124h-644l93 475h113l-74 -375h175l74 375h113l-74 -375h179l73 375h113l-74 -375h54z" />
    <glyph glyph-name="afii10092" unicode="&#x44a;" horiz-adv-x="572" 
d="M322 475l-29 -150h97q33 0 62 -9t50.5 -27.5t33.5 -46t12 -63.5q0 -41 -15.5 -74.5t-42.5 -56.5t-64 -35.5t-79 -12.5h-228l73 375h-121l19 100h232zM246 89h103q38 0 62.5 23t24.5 61q0 28 -16.5 45.5t-51.5 17.5h-93z" />
    <glyph glyph-name="afii10093" unicode="&#x44b;" horiz-adv-x="689" 
d="M582 475h113l-93 -475h-113zM152 89h97q38 0 62.5 23t24.5 61q0 28 -16.5 45.5t-51.5 17.5h-87zM228 475l-29 -150h91q33 0 62 -9t50.5 -27.5t33.5 -46t12 -63.5q0 -41 -15.5 -74.5t-42.5 -56.5t-64 -35.5t-79 -12.5h-222l93 475h110z" />
    <glyph glyph-name="afii10094" unicode="&#x44c;" horiz-adv-x="482" 
d="M152 89h107q38 0 62.5 23t24.5 61q0 28 -16.5 45.5t-51.5 17.5h-97zM228 475l-29 -150h101q33 0 62 -9t50.5 -27.5t33.5 -46t12 -63.5q0 -41 -15.5 -74.5t-42.5 -56.5t-64 -35.5t-79 -12.5h-232l93 475h110z" />
    <glyph glyph-name="afii10095" unicode="&#x44d;" horiz-adv-x="478" 
d="M64 412q35 35 83 57t109 22q93 0 148 -54t55 -157q0 -60 -20 -114t-55.5 -94.5t-85 -64t-108.5 -23.5q-38 0 -68.5 9.5t-53.5 24.5t-38 33.5t-23 36.5l81 51q13 -26 39 -43.5t65 -17.5q51 0 89.5 32t56.5 83h-186l19 92h180q-3 60 -32 87t-74 27q-42 0 -71.5 -18
t-53.5 -41z" />
    <glyph glyph-name="afii10096" unicode="&#x44e;" horiz-adv-x="762" 
d="M139 0h-114l93 475h113l-36 -186h96q13 43 37 80t57 64t74 42.5t87 15.5t82.5 -15.5t62 -43.5t39 -67t13.5 -87q0 -59 -20 -112t-56 -93.5t-85 -64.5t-107 -24q-45 0 -81 15t-61.5 42t-39.5 65t-15 85h-102zM533 391q-29 0 -55.5 -13.5t-46.5 -38t-31.5 -58.5t-11.5 -74
q0 -53 23 -87.5t72 -34.5q29 0 55 13.5t46 37.5t32 57.5t12 73.5q0 54 -23 89t-72 35z" />
    <glyph glyph-name="afii10097" unicode="&#x44f;" horiz-adv-x="495" 
d="M373 386h-101q-35 0 -58.5 -21t-23.5 -57q0 -26 15.5 -42.5t48.5 -16.5h92zM298 0l32 164h-57q-24 0 -40 -11.5t-37 -41.5l-78 -111h-126l97 129q21 28 36.5 43t39.5 23q-35 11 -61 41.5t-26 76.5q0 75 52 118.5t145 43.5h225l-92 -475h-110z" />
    <glyph glyph-name="uni0450" unicode="&#x450;" horiz-adv-x="519" 
d="M276 83q38 0 69 13t62 38l57 -79q-38 -32 -87.5 -51.5t-110.5 -19.5q-48 0 -88.5 13.5t-69.5 40.5t-45 67.5t-16 94.5q0 60 19.5 113t54.5 92.5t83.5 62.5t106.5 23q49 0 84 -16t58 -44t34 -64.5t11 -77.5q0 -22 -3 -42.5t-8 -44.5h-325q4 -119 114 -119zM389 285
q1 5 1 7.5v8.5q0 42 -21.5 69t-69.5 27q-27 0 -48.5 -9t-37 -24t-26 -35.5t-16.5 -43.5h218zM247 684h115l18 -142h-85z" />
    <glyph glyph-name="afii10071" unicode="&#x451;" horiz-adv-x="519" 
d="M276 83q38 0 69 13t62 38l57 -79q-38 -32 -87.5 -51.5t-110.5 -19.5q-48 0 -88.5 13.5t-69.5 40.5t-45 67.5t-16 94.5q0 60 19.5 113t54.5 92.5t83.5 62.5t106.5 23q49 0 84 -16t58 -44t34 -64.5t11 -77.5q0 -22 -3 -42.5t-8 -44.5h-325q4 -119 114 -119zM389 285
q1 5 1 7.5v8.5q0 42 -21.5 69t-69.5 27q-27 0 -48.5 -9t-37 -24t-26 -35.5t-16.5 -43.5h218zM373 671h110l-21 -107h-110zM195 671h111l-21 -107h-111z" />
    <glyph glyph-name="afii10099" unicode="&#x452;" horiz-adv-x="530" 
d="M127 526h-54l15 77h54l12 64h111l-12 -64h165l-15 -77h-166l-23 -119q30 26 63.5 42t76.5 16q40 0 69.5 -15t48.5 -41.5t28 -63t9 -80.5q0 -62 -17 -125.5t-47 -124.5t-72 -116.5t-92 -102.5l-81 74q38 37 72.5 82t61 95t42 102.5t15.5 104.5q0 54 -18.5 82.5t-58.5 28.5
q-26 0 -47.5 -11t-39 -29t-29 -41.5t-15.5 -48.5l-45 -235h-113z" />
    <glyph glyph-name="afii10100" unicode="&#x453;" horiz-adv-x="404" 
d="M415 375h-204l-73 -375h-113l93 475h317zM321 686h119l-103 -142h-89z" />
    <glyph glyph-name="afii10101" unicode="&#x454;" horiz-adv-x="486" 
d="M442 55q-35 -34 -82.5 -52.5t-101.5 -18.5q-48 0 -87 15.5t-66.5 44t-42.5 68t-15 88.5q0 58 21 111t58 93t87 63.5t107 23.5q36 0 65.5 -9t52 -24t38 -33.5t23.5 -37.5l-83 -51q-16 29 -40 45t-60 16q-51 0 -89 -32t-56 -80h184l-18 -92h-181q4 -55 34.5 -86t82.5 -31
q32 0 63 15t54 38z" />
    <glyph glyph-name="afii10102" unicode="&#x455;" horiz-adv-x="446" 
d="M63 132q35 -27 67.5 -39t70.5 -12q82 0 82 52q0 10 -4 18t-14 15.5t-26 15.5l-41 20q-23 10 -44 22t-37 28t-26 37.5t-10 51.5q0 37 15.5 65t41 47t59 28.5t70.5 9.5q47 0 92 -17t84 -55l-64 -68q-25 23 -53.5 34t-60.5 11q-68 0 -68 -51q0 -9 3 -16t13 -14.5t29 -17
t50 -23.5q50 -23 80.5 -52t30.5 -83q0 -37 -15 -66t-41 -48.5t-63 -30t-80 -10.5q-52 0 -102.5 16t-95.5 53z" />
    <glyph glyph-name="afii10103" unicode="&#x456;" horiz-adv-x="225" 
d="M151 667h121l-24 -123h-121zM118 475h113l-93 -475h-113z" />
    <glyph glyph-name="afii10104" unicode="&#x457;" horiz-adv-x="225" 
d="M118 475h113l-93 -475h-113zM240 665h110l-21 -107h-110zM62 665h111l-21 -107h-111z" />
    <glyph glyph-name="afii10105" unicode="&#x458;" horiz-adv-x="225" 
d="M-116 -79q17 -11 31 -16.5t31 -5.5q14 0 26 5t22.5 17.5t18.5 34.5t15 57l90 462h113l-92 -472q-9 -44 -21 -81t-32.5 -64t-51.5 -42.5t-77 -15.5q-73 0 -120 38zM151 667h121l-24 -123h-121z" />
    <glyph glyph-name="afii10106" unicode="&#x459;" horiz-adv-x="816" 
d="M569 475l-29 -150h94q33 0 62 -9t50.5 -27.5t33.5 -46t12 -63.5q0 -41 -15.5 -74.5t-42.5 -56.5t-64 -35.5t-79 -12.5h-225l73 375h-127q-23 -90 -46.5 -160t-54.5 -118t-71.5 -73.5t-96.5 -25.5q-11 0 -22 1t-22 3l20 100q5 -1 8.5 -1h7.5q31 0 56 18.5t47.5 62
t44.5 115t46 178.5h340zM493 89h100q38 0 62.5 23t24.5 61q0 28 -16.5 45.5t-51.5 17.5h-90z" />
    <glyph glyph-name="afii10107" unicode="&#x45a;" horiz-adv-x="788" 
d="M380 211h-203l-41 -211h-111l93 475h110l-32 -166h203l33 166h110l-32 -166h104q31 0 58.5 -9t48 -26t32 -43.5t11.5 -60.5q0 -39 -15 -70.5t-40.5 -53.5t-60.5 -34t-75 -12h-234zM466 87h113q33 0 54.5 20t21.5 54q0 24 -14 39.5t-45 15.5h-105z" />
    <glyph glyph-name="afii10108" unicode="&#x45b;" horiz-adv-x="528" 
d="M237 526l-23 -119q21 16 39.5 27t36.5 18t38 10t45 3q27 0 50 -9.5t40.5 -27.5t27.5 -44t10 -59q0 -11 -1 -25t-4 -29l-52 -271h-113l49 256q2 10 3 19.5t1 17.5q0 33 -15.5 52.5t-51.5 19.5q-27 0 -49.5 -11t-40 -29.5t-29 -44t-17.5 -55.5l-43 -225h-113l102 526h-54
l15 77h54l12 64h111l-12 -64h165l-15 -77h-166z" />
    <glyph glyph-name="afii10109" unicode="&#x45c;" horiz-adv-x="505" 
d="M25 0l93 475h111l-37 -187h45q32 0 52.5 17.5t43.5 49.5l89 120h119l-115 -154q-23 -32 -45.5 -49.5t-51.5 -27.5q29 -9 45 -31t29 -54l63 -159h-123l-55 141q-8 21 -19 36.5t-40 15.5h-55l-38 -193h-111zM355 688h119l-103 -142h-89z" />
    <glyph glyph-name="uni045D" unicode="&#x45d;" horiz-adv-x="544" 
d="M349 0l63 320l-288 -320h-99l93 475h108l-61 -312l280 312h105l-93 -475h-108zM259 688h115l18 -142h-85z" />
    <glyph glyph-name="afii10110" unicode="&#x45e;" horiz-adv-x="515" 
d="M13 -93q11 -9 25.5 -15.5t30.5 -6.5q15 0 26.5 5.5t22.5 16.5t22 29l25 43l16 29l-110 467h129l62 -327l173 327h131l-292 -504q-26 -45 -49 -79.5t-46.5 -57.5t-50.5 -34.5t-62 -11.5q-29 0 -55 9.5t-45 26.5zM274 675v-9q0 -47 50 -47q26 0 43.5 15t25.5 41h82
q-11 -58 -55.5 -92.5t-104.5 -34.5q-54 0 -87 27.5t-33 74.5v12t2 13h77z" />
    <glyph glyph-name="afii10193" unicode="&#x45f;" horiz-adv-x="537" 
d="M25 0l93 475h113l-74 -375h200l73 375h113l-93 -475h-162l-24 -124h-102l24 124h-161z" />
    <glyph glyph-name="afii10066.locl" horiz-adv-x="553" 
d="M195 533q0 61 48.5 97.5t131.5 36.5h159l-17 -88h-158q-32 0 -46.5 -13t-14.5 -33q0 -19 17 -34.5t42 -32l55 -36.5t55 -47t42 -63.5t17 -85.5q0 -50 -20 -95t-55 -79.5t-82.5 -55t-102.5 -20.5q-44 0 -83.5 14t-69 40t-47 64t-17.5 86q0 44 15 81.5t42 67t63.5 52
t79.5 36.5q-23 20 -38.5 47t-15.5 61zM166 195q0 -55 31.5 -83.5t76.5 -28.5q30 0 55 12t43 32.5t28 47.5t10 56q0 27 -8.5 48.5t-22 38.5t-31 31.5t-36.5 28.5q-69 -25 -107.5 -75t-38.5 -108z" />
    <glyph glyph-name="afii10068.locl.ita" horiz-adv-x="225" 
d="M76 653h251l-18 -89h-251zM117 475h113l-92 -475h-113z" />
    <glyph glyph-name="afii10069.locl.ita" horiz-adv-x="534" 
d="M450 14q-23 -117 -85 -171.5t-174 -54.5q-44 0 -89 10.5t-85 39.5l49 88q32 -21 64 -30.5t65 -9.5q61 0 94.5 31.5t46.5 94.5l7 34q-17 -15 -50 -30.5t-82 -15.5q-82 0 -124 51t-42 136q0 62 22 117.5t61.5 97t94.5 65.5t121 24q54 0 105 -14t85 -30zM407 377
q-17 8 -35.5 11t-37.5 3q-42 0 -74 -14.5t-54.5 -40t-34 -60.5t-11.5 -75q0 -50 19.5 -75.5t66.5 -25.5q28 0 50 9t37.5 24t25.5 35t15 42z" />
    <glyph glyph-name="afii10081.locl.ita" horiz-adv-x="526" 
d="M236 90q27 0 49.5 11t39.5 29.5t28.5 44t17.5 55.5l47 245h113l-92 -475h-108l8 53q-21 -18 -39 -30.5t-35.5 -19.5t-37.5 -10t-45 -3q-54 0 -91.5 35.5t-37.5 104.5q0 11 1 25t4 29l56 291h113l-53 -276q-4 -17 -4 -39q0 -33 14 -51.5t52 -18.5zM149 653h417l-18 -89
h-417z" />
    <glyph glyph-name="afii10084.locl.ita" horiz-adv-x="817" 
d="M227 475l-53 -276q-5 -25 -5 -43q0 -26 12.5 -46t49.5 -20q48 0 83.5 33t49.5 102l48 250h113l-53 -276q-5 -25 -5 -43q0 -26 12.5 -46t49.5 -20q27 0 49 11t39 29.5t28 44t17 55.5l47 245h113l-92 -475h-108l8 53q-21 -18 -38.5 -30t-34.5 -19.5t-37 -10.5t-45 -3
q-35 0 -64 18t-45 51q-19 -17 -37 -30t-38.5 -21.5t-45 -13t-55.5 -4.5q-29 0 -53.5 9.5t-43.5 27.5t-29.5 44t-10.5 59q0 11 1 25t4 29l56 291h113zM149 653h708l-18 -89h-708z" />
    <glyph glyph-name="uni0462" unicode="&#x462;" horiz-adv-x="679" 
d="M309 713h118l-18 -90h221l-20 -102h-221l-22 -114h92q45 0 82 -12.5t63.5 -36t41 -58t14.5 -78.5q0 -51 -18 -92t-51 -70t-80.5 -44.5t-105.5 -15.5h-235l101 521h-182l20 102h182zM347 305l-39 -203h105q57 0 90.5 31t33.5 82q0 42 -24 66t-70 24h-96z" />
    <glyph glyph-name="uni0463" unicode="&#x463;" horiz-adv-x="582" 
d="M298 296h116q30 0 56.5 -8.5t46 -25t30.5 -41.5t11 -58q0 -38 -14 -68t-39 -51t-58 -32.5t-72 -11.5h-246l75 385h-133l17 90h133l37 192h112l-37 -192h159l-18 -90h-158zM257 85h113q33 0 54.5 20t21.5 53q0 24 -14.5 39.5t-44.5 15.5h-105z" />
    <glyph glyph-name="uni0472" unicode="&#x472;" horiz-adv-x="743" 
d="M452 685q61 0 114 -20.5t92 -58t61.5 -90.5t22.5 -117q0 -83 -27.5 -158t-77.5 -133t-119.5 -92t-154.5 -34q-64 0 -118 21.5t-93 59.5t-61 91t-22 115q0 83 27.5 158.5t77.5 132.5t121 91t157 34zM190 294v-9q0 -41 11.5 -76.5t34 -61.5t56 -41.5t77.5 -15.5
q45 0 84 16.5t69.5 44.5t52.5 65t33 78h-418zM443 577q-44 0 -81.5 -15t-67.5 -40.5t-52 -59.5t-35 -72h412q-2 38 -13 72t-33 59.5t-54.5 40.5t-75.5 15z" />
    <glyph glyph-name="uni0473" unicode="&#x473;" horiz-adv-x="550" 
d="M49 196q0 60 21 113.5t58 94t88 64t111 23.5q47 0 84.5 -14.5t64 -42t41 -67t14.5 -88.5q0 -60 -21 -113.5t-58 -94t-88 -64t-111 -23.5q-47 0 -84.5 14.5t-64 42t-41 67t-14.5 88.5zM318 397q-48 0 -90.5 -32t-60.5 -88h255q-2 52 -28.5 86t-75.5 34zM262 78
q48 0 89.5 32t60.5 88h-255q3 -53 29.5 -86.5t75.5 -33.5z" />
    <glyph glyph-name="uni0474" unicode="&#x474;" horiz-adv-x="694" 
d="M109 667h130l75 -518l194 379q38 75 88.5 110.5t118.5 35.5q13 0 27 -1t28 -4l-20 -106q-7 1 -13 1.5t-12 0.5q-42 0 -67.5 -22t-45.5 -58l-262 -485h-129z" />
    <glyph glyph-name="uni0475" unicode="&#x475;" horiz-adv-x="552" 
d="M71 475h127l52 -335l124 228q31 57 70 84t93 27q11 0 22.5 -1t23.5 -3l-19 -98q-5 1 -10 1.5t-10 0.5q-24 0 -41.5 -12.5t-34.5 -41.5l-187 -325h-111z" />
    <glyph glyph-name="uni048A" unicode="&#x48a;" horiz-adv-x="691" 
d="M597 110h59l-6 -33q-18 -97 -57 -160.5t-102 -108.5l-65 71q35 28 61 57t40 64h-71l91 470l-402 -470h-108l129 667h120l-89 -463l395 463h113zM409 863q-1 -3 -1 -7v-7q0 -23 13 -38t38 -15q33 0 50 19t23 48h91q-5 -32 -19 -59t-35.5 -47t-50.5 -31.5t-64 -11.5
q-64 0 -100.5 29.5t-36.5 89.5q0 8 0.5 14.5t1.5 15.5h90z" />
    <glyph glyph-name="uni048B" unicode="&#x48b;" horiz-adv-x="562" 
d="M349 0l63 320l-288 -320h-99l93 475h108l-61 -312l280 312h105l-74 -375h54l-5 -29q-8 -43 -20.5 -76.5t-30 -61t-39.5 -49.5t-48 -42l-62 68q26 20 46 42t34 48h-56zM306 671v-9q0 -47 50 -47q26 0 43.5 15t25.5 41h82q-11 -58 -55.5 -92.5t-104.5 -34.5q-54 0 -87 27.5
t-33 74.5v12t2 13h77z" />
    <glyph glyph-name="uni048C" unicode="&#x48c;" horiz-adv-x="554" 
d="M172 667h118l-15 -74h162l-18 -90h-161l-15 -81h84q94 0 151 -49.5t57 -142.5q0 -53 -18.5 -95.5t-53 -72.5t-83.5 -46t-109 -16h-228l97 503h-64l17 90h64zM223 320l-42 -218h97q63 0 98.5 33.5t35.5 87.5q0 45 -25.5 71t-75.5 26h-88z" />
    <glyph glyph-name="uni048D" unicode="&#x48d;" horiz-adv-x="486" 
d="M236 491l-11 -56h158l-14 -70h-157l-13 -66h118q31 0 57.5 -8.5t46 -25t30.5 -42t11 -58.5q0 -38 -14.5 -68.5t-39 -52t-58.5 -33t-73 -11.5h-247l71 365h-54l14 70h54l11 56h110zM157 84h112q34 0 56 20t22 55q0 25 -14.5 40.5t-46.5 15.5h-104z" />
    <glyph glyph-name="uni048E" unicode="&#x48e;" horiz-adv-x="531" 
d="M167 667h194q42 0 78.5 -13t63.5 -37.5t42.5 -60t15.5 -81.5q0 -74 -39 -125.5t-102 -77.5l28 -78l-66 -24l-30 82q-33 -6 -67 -6h-82l-48 -246h-118zM355 453l31 -86q24 16 37.5 42.5t13.5 61.5q0 91 -94 91h-80l-43 -217h83h8t8 1l-30 83z" />
    <glyph glyph-name="uni048F" unicode="&#x48f;" horiz-adv-x="551" 
d="M118 475h111l-8 -53q13 12 28.5 24.5t34 22t40 16t46.5 6.5q33 0 62.5 -12.5t51.5 -38t35 -63t13 -88.5q0 -47 -11.5 -88t-31.5 -74.5t-46.5 -60t-57.5 -44.5l25 -70l-63 -22l-23 65q-39 -12 -77 -12q-58 0 -106 27l-40 -210h-114zM320 206l32 -90q30 28 47 69.5t17 90.5
q0 56 -22.5 85t-65.5 29q-53 0 -91.5 -42t-51.5 -111l-24 -129q43 -30 91 -30q20 0 40 5l-35 101z" />
    <glyph glyph-name="afii10050" unicode="&#x490;" horiz-adv-x="486" 
d="M156 667h299l26 132h108l-47 -242h-286l-108 -557h-121z" />
    <glyph glyph-name="afii10098" unicode="&#x491;" horiz-adv-x="413" 
d="M425 375h-214l-73 -375h-113l93 475h225l19 97h101z" />
    <glyph glyph-name="uni0492" unicode="&#x492;" horiz-adv-x="497" 
d="M171 667h402l-21 -110h-281l-42 -215h154l-19 -100h-154l-47 -242h-121l47 242h-63l18 100h64z" />
    <glyph glyph-name="uni0493" unicode="&#x493;" horiz-adv-x="409" 
d="M420 375h-204l-27 -135h117l-14 -77h-118l-31 -163h-113l32 163h-53l15 77h53l46 235h317z" />
    <glyph glyph-name="uni0494" unicode="&#x494;" horiz-adv-x="625" 
d="M37 0l129 667h430l-22 -110h-308l-32 -166q26 11 55 17.5t61 6.5q50 0 93 -17.5t74.5 -51.5t49.5 -83t18 -113q0 -80 -28 -146.5t-75 -114t-108.5 -74t-128.5 -26.5q-51 0 -102 15l37 106q33 -9 65 -9q45 0 84 18t67.5 50t45 76t16.5 97q0 46 -12.5 78t-33 52t-46.5 29
t-54 9q-26 0 -50.5 -6.5t-47.5 -17.5l-56 -286h-121z" />
    <glyph glyph-name="uni0495" unicode="&#x495;" horiz-adv-x="506" 
d="M457 375h-246l-22 -113q40 17 84 17q40 0 75 -14t60.5 -41t40.5 -66t15 -88q0 -59 -21 -109.5t-57 -87t-84.5 -57t-103.5 -20.5q-21 0 -42.5 3t-42.5 10l33 94q12 -3 23.5 -5t25.5 -2q34 0 62.5 13.5t49.5 36.5t32.5 54t11.5 66q0 33 -10 55.5t-25.5 37t-35.5 21t-41 6.5
q-36 0 -68 -16l-33 -170h-113l93 475h358z" />
    <glyph glyph-name="uni0496" unicode="&#x496;" horiz-adv-x="899" 
d="M461 0h-118l56 289h-43q-29 0 -52.5 -20.5t-48.5 -59.5l-134 -209h-139l166 250q31 46 57 67.5t55 30.5q-23 12 -40.5 37.5t-29.5 73.5l-53 208h124l47 -194q9 -37 26 -55.5t47 -18.5h39l52 268h118l-52 -268h32q31 0 54.5 18.5t46.5 55.5l122 194h133l-152 -237
q-21 -32 -45 -52t-51 -30q25 -11 44 -34t30 -64l39 -140h72l-50 -264h-109l29 154h-44l-52 209q-10 38 -26 59t-51 21h-43z" />
    <glyph glyph-name="uni0497" unicode="&#x497;" horiz-adv-x="743" 
d="M269 0l38 192h-33q-24 0 -40 -14t-41 -49l-93 -129h-123l117 160q24 33 45 52.5t50 29.5q-26 15 -41 38.5t-24 54.5l-41 140h106l39 -127q9 -29 23.5 -45t43.5 -16h30l37 188h110l-37 -188h36q26 0 43.5 16.5t42.5 51.5l83 120h112l-119 -170q-17 -23 -36.5 -41
t-41.5 -24q26 -11 41 -32.5t25 -49.5l21 -60h69l-43 -222h-101l24 124h-31l-47 141q-8 23 -20.5 37t-41.5 14h-34l-38 -192h-110z" />
    <glyph glyph-name="uni0498" unicode="&#x498;" horiz-adv-x="536" 
d="M212 398h94q21 0 42.5 5.5t39 17t29 29.5t11.5 44q0 42 -29 62.5t-74 20.5q-50 0 -88.5 -22.5t-66.5 -53.5l-65 75q49 54 112 81.5t129 27.5q45 0 82 -13t63.5 -35.5t40.5 -54t14 -68.5q0 -63 -38.5 -108t-100.5 -65q18 -5 36 -16t32 -29t22.5 -42.5t8.5 -55.5
q0 -47 -19.5 -86t-54 -67.5t-80.5 -44.5t-98 -16q-42 0 -78.5 10t-67.5 26.5t-55 39t-40 48.5l80 71q10 -15 26 -31t37 -28.5t46 -20.5t55 -8q57 0 92.5 30t35.5 81q0 23 -7.5 40t-20 27.5t-29 15.5t-33.5 5h-105zM122 -168q34 -13 69 -13q59 0 59 35q0 15 -12.5 19.5
t-31.5 4.5q-37 0 -71 -12l20 64q18 6 40.5 10.5t49.5 4.5q44 0 72.5 -20t28.5 -60q0 -31 -13 -52.5t-34.5 -35.5t-48.5 -20.5t-55 -6.5q-35 0 -58.5 5t-36.5 10z" />
    <glyph glyph-name="uni0499" unicode="&#x499;" horiz-adv-x="455" 
d="M150 287h83q41 0 70 15t29 47q0 26 -19.5 38.5t-54.5 12.5q-45 0 -79.5 -17.5t-64.5 -41.5l-50 72q37 35 91.5 56.5t117.5 21.5q79 0 125 -34.5t46 -90.5q0 -45 -28.5 -77.5t-71.5 -49.5q30 -12 50.5 -38t20.5 -67q0 -36 -17.5 -64t-46.5 -46.5t-67.5 -28t-80.5 -9.5
q-68 0 -121.5 22t-85.5 56l58 71q24 -23 61.5 -39.5t87.5 -16.5q20 0 38.5 3t32.5 10.5t22.5 19.5t8.5 30q0 30 -23 42.5t-60 12.5h-90zM77 -163q16 -6 32.5 -10t34.5 -4q60 0 60 38q0 15 -13 21t-32 6q-32 0 -69 -13l20 62q18 6 39.5 9.5t48.5 3.5q39 0 66.5 -21.5
t27.5 -56.5q0 -31 -12.5 -53t-32.5 -36t-46 -20.5t-53 -6.5q-35 0 -57.5 5t-35.5 10z" />
    <glyph glyph-name="uni049A" unicode="&#x49a;" horiz-adv-x="642" 
d="M163 0h-121l129 667h121l-51 -266h39q38 0 62.5 17t49.5 51l144 198h139l-165 -225q-16 -21 -29.5 -36.5t-27 -26.5t-28 -18.5t-31.5 -13.5q32 -12 52.5 -35.5t34.5 -62.5l52 -139h75l-51 -264h-108l29 154h-38l-75 209q-7 19 -14.5 34t-18.5 25t-26 15t-36 5h-51z" />
    <glyph glyph-name="uni049B" unicode="&#x49b;" horiz-adv-x="530" 
d="M25 0l93 475h111l-37 -187h45q32 0 52.5 17.5t43.5 49.5l89 120h119l-115 -154q-23 -32 -45.5 -49.5t-51.5 -27.5q29 -9 45 -31t29 -54l24 -61h71l-44 -222h-101l24 124h-34l-55 141q-8 21 -19 36.5t-40 15.5h-55l-38 -193h-111z" />
    <glyph glyph-name="uni049C" unicode="&#x49c;" horiz-adv-x="650" 
d="M163 0h-121l129 667h121l-51 -266h52l22 113h71l-21 -108q17 6 32 21t34 42l136 198h139l-156 -225q-15 -21 -28 -36.5t-26 -26.5t-26.5 -18.5t-29.5 -13.5q29 -12 47.5 -35.5t32.5 -62.5l86 -249h-135l-68 209q-12 36 -25 53.5t-37 22.5l-22 -115h-71l23 118h-52z" />
    <glyph glyph-name="uni049D" unicode="&#x49d;" horiz-adv-x="546" 
d="M25 0l93 475h111l-37 -187h48l18 94h61l-18 -93q8 1 15.5 5.5t15.5 12t17.5 19.5l22.5 29l89 120h121l-115 -154q-22 -29 -45.5 -48.5t-50.5 -30.5q27 -11 41.5 -30t24.5 -44l66 -168h-123l-55 141q-11 29 -20 39t-23 12l-19 -100h-61l19 101h-47l-38 -193h-111z" />
    <glyph glyph-name="uni049E" unicode="&#x49e;" horiz-adv-x="624" 
d="M163 0h-121l98 506h-64l19 96h64l13 65h121l-13 -65h77l-18 -96h-78l-21 -110h44q38 0 62.5 17t49.5 52l145 202h139l-166 -229q-16 -21 -29.5 -36.5t-27 -27t-28 -19t-31.5 -13.5q32 -12 52 -35t35 -62l95 -245h-135l-75 205q-14 38 -33.5 58t-62.5 20h-56z" />
    <glyph glyph-name="uni049F" unicode="&#x49f;" horiz-adv-x="510" 
d="M58 426h55l10 49h111l-10 -49h56l-14 -71h-56l-14 -72h45q32 0 52.5 18.5t44.5 50.5l89 123h119l-116 -157q-23 -32 -45.5 -50.5t-51.5 -28.5q29 -9 45.5 -30t29.5 -53l63 -156h-123l-55 137q-9 21 -20 36t-40 15h-55l-37 -188h-111l69 355h-54z" />
    <glyph glyph-name="uni04A0" unicode="&#x4a0;" horiz-adv-x="704" 
d="M253 0h-121l108 557h-144l21 110h265l-51 -266h34q38 0 62.5 17t49.5 51l144 198h139l-165 -225q-16 -21 -29.5 -36.5t-27 -26.5t-28 -18.5t-31.5 -13.5q32 -12 52 -35.5t35 -62.5l94 -249h-135l-75 209q-7 19 -14.5 34t-18.5 25t-26 15t-36 5h-46z" />
    <glyph glyph-name="uni04A1" unicode="&#x4a1;" horiz-adv-x="591" 
d="M116 0l73 375h-118l20 100h229l-37 -187h40q32 0 52.5 17.5t43.5 49.5l89 120h119l-115 -154q-23 -32 -45.5 -49.5t-51.5 -27.5q29 -9 45 -31t29 -54l63 -159h-123l-55 141q-8 21 -19 36.5t-40 15.5h-50l-38 -193h-111z" />
    <glyph glyph-name="uni04A2" unicode="&#x4a2;" horiz-adv-x="691" 
d="M166 667h121l-51 -269h296l51 269h121l-107 -557h59l-51 -264h-109l30 154h-72l55 288h-296l-55 -288h-121z" />
    <glyph glyph-name="uni04A3" unicode="&#x4a3;" horiz-adv-x="565" 
d="M552 475l-74 -377h54l-43 -222h-102l24 124h-65l37 191h-207l-37 -191h-114l93 475h113l-36 -186h207l37 186h113z" />
    <glyph glyph-name="uni04A4" unicode="&#x4a4;" horiz-adv-x="768" 
d="M166 667h121l-51 -269h293l51 269h264l-21 -110h-144l-107 -557h-121l55 288h-293l-55 -288h-121z" />
    <glyph glyph-name="uni04A5" unicode="&#x4a5;" horiz-adv-x="633" 
d="M664 475l-19 -100h-118l-73 -375h-113l37 191h-202l-37 -191h-114l93 475h113l-36 -186h202l37 186h230z" />
    <glyph glyph-name="uni04A6" unicode="&#x4a6;" horiz-adv-x="1036" 
d="M37 0l129 667h532l-49 -256q57 22 111 22q51 0 94 -19t74.5 -54t49.5 -85t18 -113q0 -80 -27 -148.5t-74 -118.5t-109.5 -78t-133.5 -28q-51 0 -102 15l37 106q33 -9 63 -9q49 0 89.5 20.5t69 55.5t44.5 81t16 97q0 85 -42 129t-105 44q-46 0 -94 -22l-59 -306h-121
l108 557h-290l-108 -557h-121z" />
    <glyph glyph-name="uni04A7" unicode="&#x4a7;" horiz-adv-x="817" 
d="M540 475l-39 -198q40 17 84 17q40 0 75 -14.5t60.5 -42t40.5 -67.5t15 -91q0 -61 -21 -113t-57.5 -89.5t-85.5 -59t-104 -21.5q-21 0 -42.5 3t-41.5 10l32 94q13 -3 24 -5t25 -2q34 0 62.5 14t49.5 38.5t33 57t12 69.5q0 34 -9.5 58t-25.5 39t-35.5 22t-40.5 7
q-36 0 -68 -16l-36 -185h-113l72 375h-195l-72 -375h-114l94 475h421z" />
    <glyph glyph-name="uni04A8" unicode="&#x4a8;" horiz-adv-x="744" 
d="M371 -16q-62 0 -116.5 21t-96 61t-65.5 98t-24 131q0 85 32 156.5t85.5 123t122.5 80t143 28.5q68 0 131 -25l-38 -99q-51 18 -98 18q-55 0 -102.5 -22.5t-83 -61t-55.5 -89.5t-20 -109q0 -46 13 -85.5t38.5 -69t62.5 -46t85 -16.5h5q-31 36 -48 82t-17 100t17.5 99
t47.5 77.5t70 50t84 17.5q39 0 72.5 -14t57.5 -39t37.5 -59.5t13.5 -75.5q0 -73 -40.5 -140.5t-110.5 -115.5q6 -1 12.5 -1h14.5q25 0 49 4.5t45 11.5l17 -73q-25 -10 -51.5 -14.5t-53.5 -4.5q-33 0 -63 6t-56 17q-28 -11 -56.5 -16.5t-60.5 -5.5zM621 306q0 50 -22 77.5
t-60 27.5q-25 0 -45.5 -12t-35.5 -33t-23 -50.5t-8 -64.5q0 -49 15.5 -87t43.5 -64q62 29 98.5 85t36.5 121z" />
    <glyph glyph-name="uni04A9" unicode="&#x4a9;" horiz-adv-x="554" 
d="M527 209q0 -48 -24 -89.5t-66 -72.5q4 -1 13 -1q25 0 59 8l10 -62q-32 -8 -64 -8q-47 0 -87 15q-21 -7 -43 -11t-45 -4q-47 0 -89 16t-73.5 45.5t-50 71.5t-18.5 95q0 58 21.5 108.5t58.5 88.5t86 60t104 22q51 0 101 -18l-30 -85q-33 12 -65 12q-35 0 -66 -14.5
t-54 -39.5t-36.5 -59t-13.5 -73q0 -30 8.5 -57t25 -47t41.5 -32t58 -13q-18 23 -29 51t-11 61q0 32 11 61t30.5 51.5t47.5 35.5t63 13q57 0 92 -36t35 -93zM332 174q0 -29 9 -52.5t25 -40.5q38 19 57.5 53.5t19.5 69.5q0 29 -12.5 45t-34.5 16q-31 0 -47.5 -27t-16.5 -64z
" />
    <glyph glyph-name="uni04AA" unicode="&#x4aa;" horiz-adv-x="652" 
d="M632 111q-52 -60 -119 -94.5t-155 -34.5q-65 0 -118 21.5t-91 60.5t-59 93.5t-21 120.5q0 81 28 154.5t78.5 130t120.5 89.5t154 33q97 0 158 -41.5t93 -113.5l-102 -58q-27 49 -61 74.5t-97 25.5q-55 0 -100 -24t-77 -63t-49.5 -90t-17.5 -105q0 -39 11.5 -74t33 -61
t53 -41t72.5 -15q60 0 104 25t80 70zM215 -168q34 -13 69 -13q59 0 59 35q0 15 -12.5 19.5t-31.5 4.5q-37 0 -71 -12l20 64q18 6 40.5 10.5t49.5 4.5q44 0 72.5 -20t28.5 -60q0 -31 -13 -52.5t-34.5 -35.5t-48.5 -20.5t-55 -6.5q-35 0 -58.5 5t-36.5 10z" />
    <glyph glyph-name="uni04AB" unicode="&#x4ab;" horiz-adv-x="486" 
d="M442 65q-35 -35 -81.5 -58t-108.5 -23q-95 0 -150 56t-55 155q0 60 21 113.5t58 94t88 64.5t111 24q65 0 107.5 -29t66.5 -86l-92 -49q-13 25 -33.5 44t-58.5 19q-31 0 -58.5 -14t-48.5 -38.5t-33.5 -58t-12.5 -71.5q0 -58 28.5 -90t76.5 -32q37 0 64 16.5t48 37.5z
M110 -163q16 -6 32.5 -10t34.5 -4q60 0 60 38q0 15 -13 21t-32 6q-32 0 -69 -13l20 62q18 6 39.5 9.5t48.5 3.5q39 0 66.5 -21.5t27.5 -56.5q0 -31 -12.5 -53t-32.5 -36t-46 -20.5t-53 -6.5q-35 0 -57.5 5t-35.5 10z" />
    <glyph glyph-name="uni04AC" unicode="&#x4ac;" horiz-adv-x="598" 
d="M314 558h-218l22 109h556l-22 -109h-217l-86 -445h59l-51 -267h-109l29 154h-71z" />
    <glyph glyph-name="uni04AD" unicode="&#x4ad;" horiz-adv-x="482" 
d="M513 475l-19 -100h-156l-54 -277h54l-43 -222h-102l24 124h-65l73 375h-154l19 100h423z" />
    <glyph glyph-name="uni04AE" unicode="&#x4ae;" horiz-adv-x="582" 
d="M250 286l-149 381h132l97 -270l202 270h139l-300 -380l-55 -287h-121z" />
    <glyph glyph-name="uni04AF" unicode="&#x4af;" horiz-adv-x="511" 
d="M71 475h127l52 -342l182 342h130l-281 -471l-40 -204h-113l40 205z" />
    <glyph glyph-name="uni04B0" unicode="&#x4b0;" horiz-adv-x="592" 
d="M522 292l-19 -95h-140l-37 -197h-121l37 197h-140l18 95h140l-149 375h132l97 -270l202 270h139l-299 -375h140z" />
    <glyph glyph-name="uni04B1" unicode="&#x4b1;" horiz-adv-x="511" 
d="M71 475h127l52 -342l182 342h130l-244 -398h98l-15 -77h-121l-39 -200h-113l39 200h-121l15 77h99z" />
    <glyph glyph-name="uni04B2" unicode="&#x4b2;" horiz-adv-x="633" 
d="M264 350l-148 317h137l99 -225l178 225h138l-262 -323l112 -234h80l-51 -264h-109l29 154h-37l-112 249l-197 -249h-142z" />
    <glyph glyph-name="uni04B3" unicode="&#x4b3;" horiz-adv-x="506" 
d="M190 249l-116 226h128l70 -146l119 146h134l-202 -230l73 -145h79l-43 -224h-102l24 124h-36l-79 163l-132 -163h-135z" />
    <glyph glyph-name="uni04B4" unicode="&#x4b4;" horiz-adv-x="825" 
d="M279 557h-183l21 110h469l-21 -110h-165l-87 -447h297l108 557h121l-108 -557h59l-51 -264h-109l30 154h-489z" />
    <glyph glyph-name="uni04B5" unicode="&#x4b5;" horiz-adv-x="667" 
d="M442 475l-19 -100h-110l-54 -275h209l73 375h113l-73 -375h54l-44 -224h-102l24 124h-386l73 375h-129l20 100h351z" />
    <glyph glyph-name="uni04B6" unicode="&#x4b6;" horiz-adv-x="611" 
d="M498 667h121l-108 -557h59l-51 -264h-109l29 154h-70l53 277q-26 -9 -54.5 -14.5t-57.5 -5.5q-40 0 -75 11.5t-60.5 34.5t-40 58t-14.5 82q0 18 2 33.5t5 32.5l31 158h121l-30 -159q-2 -13 -3.5 -24t-1.5 -22q0 -53 29.5 -75t77.5 -22q26 0 50 5.5t42 15.5z" />
    <glyph glyph-name="uni04B7" unicode="&#x4b7;" horiz-adv-x="522" 
d="M509 475l-74 -377h54l-43 -222h-102l24 124h-65l35 178q-48 -21 -96 -21q-77 0 -120 44t-43 113q0 11 1.5 22t3.5 23l22 116h113l-22 -116q-3 -15 -3 -28q0 -39 23 -59.5t63 -20.5q21 0 41 5.5t35 13.5l40 205h113z" />
    <glyph glyph-name="uni04B8" unicode="&#x4b8;" horiz-adv-x="605" 
d="M513 667h121l-129 -667h-121l53 277q-20 -7 -41 -12t-43 -7l-20 -105h-71l20 106q-35 4 -65 18t-51.5 37t-33.5 55t-12 74q0 18 2 33.5t5 32.5l31 158h121l-30 -159l-3.5 -24.5t-1.5 -23.5q0 -77 59 -94l24 124h71l-25 -130q51 5 85 26z" />
    <glyph glyph-name="uni04B9" unicode="&#x4b9;" horiz-adv-x="520" 
d="M526 475l-93 -475h-110l35 178q-19 -8 -36.5 -13t-36.5 -7l-15 -80h-62l16 80q-71 8 -107.5 51t-36.5 106q0 11 1 22t3 22l22 116h110l-22 -116l-3 -21t-1 -15q0 -27 11.5 -46t40.5 -27l22 112h61l-23 -116q23 2 41.5 8.5t32.5 15.5l40 205h110z" />
    <glyph glyph-name="uni04BA" unicode="&#x4ba;" horiz-adv-x="598" 
d="M158 0h-121l129 667h121l-50 -257q27 9 56.5 14.5t59.5 5.5q42 0 77.5 -11.5t62 -34.5t41.5 -58t15 -82q0 -18 -2 -33.5t-5 -32.5l-34 -178h-121l33 179q2 13 3.5 24t1.5 22q0 53 -30 75t-81 22q-27 0 -52.5 -5.5t-45.5 -15.5z" />
    <glyph glyph-name="uni04BB" unicode="&#x4bb;" horiz-adv-x="528" 
d="M322 391q-27 0 -49.5 -11t-40 -29.5t-29 -44t-17.5 -55.5l-48 -251h-113l129 667h111l-46 -234q40 31 75 44.5t73 13.5q69 0 104 -37.5t35 -103.5q0 -10 -1 -24t-4 -29l-57 -297h-113l54 282q2 8 3 19t1 21q0 32 -16 50.5t-51 18.5z" />
    <glyph glyph-name="uni04BC" unicode="&#x4bc;" horiz-adv-x="855" 
d="M525 89q56 0 102.5 24.5t83.5 65.5l74 -71q-44 -53 -110.5 -87.5t-157.5 -34.5q-83 0 -138.5 29.5t-89.5 75t-48.5 100t-14.5 105.5q-68 0 -109.5 36t-41.5 96q0 38 16 70.5t39 59.5l75 -45q-14 -16 -24 -35t-10 -39q0 -9 2.5 -18t9.5 -16t20 -11.5t33 -4.5
q13 61 44.5 115t77 94t103.5 63t125 23q64 0 114 -21.5t84.5 -60t52 -90.5t17.5 -112q0 -50 -12 -104h-492q1 -44 11.5 -81.5t32.5 -65.5t54.5 -44t76.5 -16zM736 389q1 5 1.5 11.5t0.5 15.5q0 32 -10 62t-30 53t-49.5 36.5t-69.5 13.5q-39 0 -74 -13.5t-64 -39t-50 -61
t-31 -78.5h376z" />
    <glyph glyph-name="uni04BD" unicode="&#x4bd;" horiz-adv-x="639" 
d="M43 317q0 26 11.5 54.5t35.5 54.5l64 -39q-10 -12 -18 -26.5t-8 -31.5q0 -21 14 -32.5t40 -11.5q12 45 35 82.5t55.5 65t73 43t87.5 15.5q48 0 83 -16t57.5 -44t33.5 -64.5t11 -77.5q0 -22 -3 -42.5t-8 -44.5h-320q4 -119 112 -119q37 0 67.5 13t60.5 38l57 -79
q-38 -32 -87 -51.5t-109 -19.5q-48 0 -87.5 13.5t-68 40.5t-44.5 68t-16 96q-26 0 -49 8t-41 23t-28.5 36t-10.5 48zM509 285q1 5 1 7.5v8.5q0 42 -20.5 69t-68.5 27q-54 0 -84 -33t-42 -79h214z" />
    </font>
</defs>
</svg>
