<svg id="svg" version="1.1" width="400" height="410.3225806451613" viewBox="0 0 400 410.3225806451613" xmlns="http://www.w3.org/2000/svg" xmlns:xlink="http://www.w3.org/1999/xlink" ><g id="svgg"><path id="path0" d="M184.200 6.431 C 182.660 6.848,179.150 7.469,176.400 7.811 C 173.650 8.153,170.140 8.776,168.600 9.197 C 167.060 9.617,163.910 10.158,161.600 10.398 C 159.290 10.638,156.129 11.177,154.575 11.596 C 153.022 12.014,150.274 12.541,148.469 12.768 C 142.392 13.530,142.709 11.803,141.799 49.200 C 141.508 61.176,141.338 62.717,140.195 63.773 C 138.922 64.950,136.047 66.619,134.365 67.159 C 133.575 67.412,132.338 68.056,131.615 68.589 C 130.893 69.122,129.823 69.663,129.237 69.792 C 128.652 69.920,127.662 70.465,127.038 71.001 C 126.413 71.538,125.523 72.097,125.060 72.244 C 124.597 72.391,123.383 73.071,122.361 73.756 C 121.339 74.440,119.984 75.314,119.351 75.698 C 118.718 76.083,117.390 76.935,116.400 77.592 C 112.137 80.421,111.406 80.321,103.600 75.839 C 103.050 75.523,101.880 74.916,101.000 74.488 C 100.120 74.061,98.140 73.039,96.600 72.217 C 95.060 71.395,93.260 70.461,92.600 70.143 C 91.940 69.824,90.950 69.305,90.400 68.990 C 89.850 68.675,88.320 67.874,87.000 67.210 C 83.588 65.496,81.552 64.439,80.400 63.784 C 79.850 63.472,78.320 62.669,77.000 62.000 C 75.680 61.331,74.150 60.519,73.600 60.195 C 73.050 59.871,71.970 59.339,71.200 59.011 C 70.430 58.684,69.513 58.206,69.162 57.949 C 67.773 56.933,66.292 57.836,63.200 61.584 C 62.430 62.517,61.350 63.792,60.800 64.416 C 58.774 66.716,57.109 68.681,54.375 72.000 C 52.834 73.870,50.994 76.103,50.287 76.962 C 48.481 79.154,46.801 81.102,45.400 82.628 C 44.740 83.347,43.628 84.625,42.929 85.468 C 42.231 86.310,40.914 87.900,40.002 89.000 C 37.962 91.464,36.676 93.867,37.053 94.514 C 37.209 94.781,38.054 95.869,38.932 96.931 C 39.809 97.994,41.403 100.064,42.474 101.531 C 43.545 102.999,44.912 104.812,45.511 105.559 C 47.427 107.950,48.963 109.919,50.400 111.827 C 51.170 112.850,52.378 114.432,53.084 115.343 C 53.791 116.254,54.961 117.773,55.684 118.717 C 56.408 119.661,57.287 120.758,57.638 121.155 C 57.990 121.552,58.848 122.670,59.546 123.638 C 60.245 124.607,61.442 126.210,62.208 127.200 C 64.188 129.761,65.984 132.527,65.992 133.031 C 66.003 133.645,64.060 138.374,63.211 139.800 C 62.818 140.460,62.271 141.720,61.995 142.600 C 61.718 143.480,61.084 144.920,60.585 145.800 C 60.087 146.680,59.549 148.030,59.390 148.800 C 59.231 149.570,58.696 151.010,58.200 152.000 C 57.705 152.990,57.093 154.774,56.840 155.964 C 56.588 157.154,56.034 158.913,55.609 159.873 C 55.184 160.834,54.625 162.692,54.368 164.002 C 53.638 167.712,51.285 169.070,43.597 170.220 C 41.386 170.550,38.698 171.167,37.623 171.591 C 36.549 172.014,34.079 172.569,32.135 172.822 C 30.191 173.076,27.610 173.630,26.400 174.053 C 25.190 174.476,22.345 175.100,20.078 175.440 C 17.812 175.780,14.932 176.412,13.678 176.844 C 12.425 177.276,10.364 177.739,9.098 177.872 C 5.041 178.299,5.400 175.925,5.400 202.306 C 5.400 228.296,5.180 226.557,8.520 227.016 C 9.664 227.174,12.001 227.721,13.712 228.234 C 15.424 228.746,18.254 229.361,20.000 229.600 C 21.746 229.839,24.576 230.454,26.288 230.967 C 28.001 231.479,30.571 232.031,32.001 232.194 C 33.430 232.357,35.950 232.908,37.600 233.420 C 39.250 233.931,42.040 234.544,43.800 234.781 C 51.184 235.775,53.116 237.214,54.152 242.492 C 54.529 244.412,55.185 246.769,55.609 247.728 C 56.034 248.688,56.588 250.446,56.840 251.636 C 57.093 252.826,57.705 254.610,58.200 255.600 C 58.696 256.590,59.237 258.030,59.402 258.800 C 59.568 259.570,60.220 261.170,60.852 262.356 C 61.483 263.542,62.000 264.761,62.000 265.064 C 62.000 265.367,62.552 266.647,63.227 267.908 C 64.790 270.828,64.623 271.719,61.905 274.949 C 60.747 276.325,59.080 278.482,58.200 279.743 C 57.320 281.004,55.604 283.243,54.386 284.718 C 53.168 286.193,51.908 287.783,51.586 288.251 C 51.264 288.719,49.650 290.846,48.000 292.976 C 46.350 295.106,44.597 297.402,44.104 298.078 C 43.612 298.753,42.971 299.507,42.681 299.753 C 42.391 299.999,41.669 300.920,41.075 301.800 C 40.482 302.680,39.368 304.210,38.600 305.200 C 37.832 306.190,36.751 307.675,36.197 308.500 C 35.643 309.325,35.012 310.000,34.795 310.000 C 33.542 310.000,34.889 312.897,37.770 316.400 C 38.584 317.390,39.734 318.792,40.325 319.516 C 40.916 320.240,41.940 321.435,42.600 322.172 C 44.186 323.944,46.346 326.465,47.669 328.088 C 48.257 328.810,50.021 330.930,51.590 332.800 C 53.159 334.670,55.018 336.899,55.721 337.753 C 56.877 339.157,57.730 340.145,60.200 342.942 C 60.640 343.440,61.493 344.497,62.096 345.291 C 63.469 347.101,65.725 347.970,66.725 347.074 C 67.096 346.742,68.390 345.993,69.600 345.411 C 72.982 343.783,74.905 342.816,76.000 342.189 C 76.550 341.874,78.080 341.074,79.400 340.410 C 82.812 338.696,84.848 337.639,86.000 336.984 C 86.550 336.672,88.080 335.869,89.400 335.200 C 90.720 334.531,92.250 333.736,92.800 333.433 C 93.350 333.130,94.430 332.587,95.200 332.228 C 95.970 331.868,97.050 331.321,97.600 331.011 C 99.259 330.076,101.675 328.849,104.000 327.760 C 105.210 327.194,106.470 326.496,106.800 326.210 C 107.827 325.319,109.807 325.085,110.389 325.786 C 110.855 326.348,112.092 327.193,118.600 331.391 C 123.281 334.411,130.659 338.642,133.600 339.995 C 134.590 340.450,135.850 341.078,136.400 341.392 C 136.950 341.705,138.069 342.330,138.887 342.782 C 141.549 344.252,141.232 341.171,142.400 376.884 C 142.970 394.316,143.090 394.697,148.000 394.778 C 148.770 394.790,151.200 395.240,153.400 395.778 C 155.600 396.315,159.198 396.950,161.397 397.190 C 163.595 397.429,167.195 398.054,169.397 398.579 C 171.598 399.104,174.750 399.647,176.400 399.786 C 178.050 399.925,181.264 400.490,183.542 401.041 C 189.641 402.516,190.244 402.387,192.092 399.202 C 192.921 397.773,193.601 396.333,193.601 396.002 C 193.602 395.671,194.232 394.150,195.001 392.623 C 195.771 391.096,196.400 389.607,196.400 389.315 C 196.400 389.024,196.940 387.773,197.600 386.536 C 198.260 385.299,198.800 383.980,198.800 383.603 C 198.800 383.227,199.271 382.037,199.847 380.960 C 200.423 379.882,201.140 378.190,201.441 377.200 C 201.742 376.210,202.441 374.514,202.994 373.432 C 203.547 372.350,204.003 371.180,204.007 370.832 C 204.011 370.484,204.548 369.300,205.200 368.200 C 205.852 367.100,206.389 365.916,206.393 365.568 C 206.397 365.220,206.854 364.050,207.408 362.968 C 207.962 361.886,208.695 360.054,209.037 358.899 C 209.794 356.337,210.248 356.071,214.709 355.571 C 216.629 355.355,220.000 354.837,222.200 354.418 C 224.400 354.000,227.550 353.532,229.200 353.378 C 230.850 353.225,233.550 352.681,235.200 352.169 C 243.647 349.549,245.035 349.829,249.619 355.083 C 251.479 357.213,254.260 360.322,255.800 361.990 C 257.340 363.659,260.220 366.799,262.200 368.968 C 264.180 371.137,266.430 373.571,267.200 374.378 C 267.970 375.184,270.669 378.129,273.197 380.922 C 278.200 386.448,278.972 386.867,281.091 385.200 C 281.650 384.760,282.322 384.400,282.584 384.400 C 282.845 384.400,283.945 383.770,285.028 383.000 C 286.111 382.230,287.209 381.600,287.468 381.600 C 287.727 381.600,288.447 381.176,289.069 380.657 C 289.691 380.138,291.010 379.324,292.000 378.847 C 292.990 378.369,294.970 377.269,296.400 376.402 C 297.830 375.534,299.630 374.532,300.400 374.174 C 301.170 373.816,302.162 373.189,302.605 372.781 C 303.048 372.372,304.127 371.739,305.002 371.373 C 305.877 371.008,307.104 370.279,307.727 369.754 C 308.351 369.229,309.091 368.800,309.371 368.800 C 309.651 368.800,310.582 368.304,311.440 367.699 C 312.298 367.093,313.630 366.280,314.400 365.892 C 319.831 363.155,320.357 362.202,318.675 358.141 C 318.142 356.853,317.588 355.018,317.443 354.063 C 317.297 353.108,316.822 351.627,316.386 350.772 C 315.950 349.917,315.326 347.950,315.000 346.400 C 314.674 344.850,314.052 342.886,313.618 342.036 C 313.184 341.185,312.567 339.229,312.245 337.689 C 311.924 336.149,311.309 334.194,310.879 333.344 C 310.448 332.495,309.964 330.990,309.803 330.000 C 309.642 329.010,309.071 327.149,308.535 325.864 C 307.998 324.579,307.372 322.513,307.142 321.272 C 306.913 320.031,306.472 318.526,306.163 317.928 C 305.113 315.898,305.743 314.624,309.824 310.527 C 313.100 307.238,316.693 303.247,318.600 300.777 C 319.480 299.638,320.740 298.026,321.400 297.196 C 322.060 296.366,323.230 294.837,324.000 293.800 C 324.770 292.763,326.209 291.012,327.198 289.910 L 328.997 287.907 331.598 288.121 C 342.275 289.002,345.461 289.357,348.800 290.040 C 350.890 290.468,355.546 291.088,359.148 291.418 C 362.749 291.749,367.339 292.387,369.348 292.837 C 376.177 294.365,378.891 293.971,379.377 291.382 C 379.520 290.617,380.169 288.869,380.819 287.496 C 381.468 286.123,382.001 284.640,382.004 284.200 C 382.006 283.760,382.436 282.481,382.959 281.358 C 383.482 280.235,384.214 278.255,384.586 276.958 C 384.958 275.661,385.522 274.196,385.839 273.702 C 386.156 273.209,386.703 271.679,387.054 270.302 C 387.406 268.926,388.098 266.990,388.592 266.000 C 389.086 265.010,389.620 263.490,389.778 262.622 C 389.936 261.754,390.474 260.224,390.973 259.222 C 391.473 258.220,392.096 256.521,392.360 255.446 C 392.623 254.372,393.190 252.804,393.619 251.962 C 394.903 249.446,394.686 248.630,392.300 246.996 C 391.145 246.204,389.570 245.124,388.800 244.594 C 388.030 244.064,386.579 243.188,385.575 242.647 C 384.571 242.105,383.537 241.406,383.277 241.093 C 383.017 240.780,382.084 240.198,381.202 239.801 C 380.321 239.404,379.600 238.929,379.600 238.746 C 379.600 238.563,378.745 237.954,377.700 237.391 C 376.655 236.829,375.235 235.971,374.544 235.485 C 373.853 234.998,372.773 234.289,372.144 233.910 C 371.515 233.530,369.920 232.502,368.600 231.625 C 367.280 230.748,365.770 229.838,365.244 229.604 C 364.719 229.369,363.783 228.778,363.165 228.289 C 362.548 227.800,360.839 226.680,359.369 225.800 C 357.898 224.920,355.952 223.542,355.043 222.737 L 353.391 221.274 353.398 203.807 L 353.404 186.339 355.026 184.869 C 355.919 184.061,357.254 183.040,357.993 182.600 C 359.551 181.673,362.603 179.740,364.255 178.633 C 368.492 175.796,369.444 175.200,369.740 175.200 C 369.923 175.200,370.552 174.830,371.137 174.377 C 371.722 173.925,373.460 172.769,375.000 171.808 C 376.540 170.847,378.250 169.712,378.800 169.287 C 379.350 168.861,380.553 168.130,381.473 167.662 C 382.393 167.194,383.261 166.625,383.401 166.398 C 383.542 166.171,384.499 165.531,385.528 164.977 C 386.558 164.423,388.030 163.530,388.800 162.992 C 389.570 162.455,391.145 161.371,392.300 160.584 C 394.682 158.960,394.941 157.997,393.645 155.580 C 393.230 154.805,392.593 153.010,392.229 151.591 C 391.866 150.172,391.316 148.626,391.008 148.156 C 390.700 147.686,390.152 146.154,389.791 144.751 C 389.429 143.348,388.810 141.660,388.415 141.000 C 388.021 140.340,387.474 138.810,387.200 137.600 C 386.926 136.390,386.378 134.860,385.981 134.200 C 385.585 133.540,385.036 132.100,384.761 131.000 C 384.487 129.900,383.754 127.920,383.132 126.600 C 382.510 125.280,381.997 123.840,381.992 123.400 C 381.987 122.960,381.604 121.790,381.142 120.800 C 380.680 119.810,379.998 118.010,379.627 116.800 C 378.551 113.293,377.224 113.055,368.600 114.824 C 366.620 115.230,362.570 115.766,359.600 116.015 C 356.630 116.265,352.490 116.821,350.400 117.253 C 346.965 117.962,340.133 118.778,332.000 119.452 L 329.000 119.701 327.200 117.694 C 326.210 116.589,324.770 114.837,324.000 113.800 C 323.230 112.763,322.011 111.168,321.290 110.257 C 320.570 109.346,319.310 107.741,318.490 106.691 C 316.984 104.760,314.104 101.534,309.900 97.066 C 307.288 94.290,307.086 93.371,308.435 90.400 C 308.884 89.410,309.509 87.378,309.824 85.884 C 310.138 84.391,310.667 82.643,311.000 82.000 C 311.332 81.358,311.886 79.617,312.230 78.132 C 312.575 76.647,313.191 74.698,313.600 73.800 C 314.009 72.902,314.625 70.956,314.968 69.475 C 315.311 67.994,315.928 66.112,316.338 65.291 C 316.747 64.471,317.306 62.634,317.579 61.210 C 317.852 59.785,318.426 57.933,318.855 57.093 C 319.283 56.253,319.823 54.539,320.054 53.283 C 320.285 52.027,320.797 50.280,321.192 49.400 C 322.273 46.989,322.536 45.350,321.923 44.836 C 320.853 43.939,317.207 41.600,316.878 41.600 C 316.691 41.600,315.741 41.089,314.769 40.464 C 311.873 38.603,304.047 34.019,299.274 31.387 C 298.463 30.940,297.083 30.085,296.207 29.487 C 295.331 28.889,294.411 28.400,294.162 28.400 C 293.913 28.400,293.031 27.860,292.200 27.200 C 291.369 26.540,290.472 26.000,290.205 26.000 C 289.938 26.000,289.018 25.497,288.160 24.881 C 287.302 24.266,286.021 23.527,285.313 23.238 C 284.606 22.950,283.819 22.463,283.564 22.157 C 282.189 20.500,280.332 21.413,276.784 25.491 C 274.923 27.631,272.860 29.947,272.200 30.637 C 271.540 31.327,269.290 33.756,267.200 36.034 C 265.110 38.313,262.860 40.736,262.200 41.419 C 261.540 42.103,259.020 44.898,256.600 47.631 C 254.180 50.364,251.062 53.746,249.672 55.147 L 247.144 57.694 245.072 57.482 C 241.558 57.122,237.973 56.398,235.636 55.575 C 234.406 55.142,231.325 54.530,228.790 54.216 C 226.254 53.901,222.834 53.369,221.190 53.032 C 219.545 52.696,216.629 52.244,214.709 52.029 C 210.361 51.542,209.739 51.212,209.181 49.093 C 208.936 48.162,208.398 46.818,207.985 46.107 C 207.573 45.396,206.965 43.904,206.635 42.793 C 206.305 41.682,205.686 40.282,205.259 39.683 C 204.832 39.083,204.269 37.784,204.009 36.796 C 203.748 35.808,203.121 34.280,202.616 33.400 C 202.110 32.520,201.562 31.170,201.397 30.400 C 201.232 29.630,200.580 28.030,199.948 26.844 C 199.317 25.658,198.798 24.398,198.795 24.044 C 198.793 23.690,198.346 22.622,197.802 21.672 C 197.259 20.721,196.542 19.025,196.208 17.903 C 195.875 16.781,195.331 15.448,194.998 14.941 C 194.665 14.433,193.980 12.889,193.475 11.509 C 191.234 5.390,190.177 4.811,184.200 6.431 M212.788 100.632 C 215.628 100.774,218.986 101.206,220.588 101.637 C 222.134 102.053,224.930 102.676,226.800 103.021 C 228.670 103.366,231.152 104.081,232.315 104.609 C 233.478 105.137,235.098 105.690,235.915 105.837 C 239.057 106.404,239.644 107.322,237.300 108.004 C 235.014 108.670,165.817 108.378,165.140 107.700 C 164.402 106.962,165.111 106.450,167.843 105.746 C 169.139 105.412,170.614 104.873,171.121 104.547 C 171.627 104.221,173.818 103.616,175.989 103.202 C 178.160 102.788,180.855 102.177,181.979 101.843 C 183.995 101.245,190.962 100.497,196.800 100.253 C 200.004 100.119,204.754 100.232,212.788 100.632 M270.087 125.462 C 274.390 129.253,279.010 134.079,282.500 138.429 C 287.415 144.553,288.165 145.565,288.998 147.200 C 289.391 147.970,290.137 149.109,290.656 149.731 C 291.175 150.353,291.600 151.091,291.600 151.371 C 291.600 151.651,292.113 152.589,292.741 153.455 C 293.368 154.321,294.099 155.687,294.364 156.490 C 294.629 157.293,295.169 158.366,295.565 158.875 C 295.960 159.384,296.510 160.520,296.786 161.400 C 297.062 162.280,297.620 163.582,298.027 164.294 C 298.433 165.006,298.962 166.356,299.201 167.294 C 299.440 168.232,300.067 169.990,300.594 171.200 C 301.122 172.410,301.839 174.786,302.189 176.480 C 302.538 178.174,303.087 180.188,303.407 180.956 C 306.411 188.145,306.306 220.064,303.253 227.883 C 302.841 228.937,302.288 231.060,302.023 232.600 C 301.758 234.140,301.204 235.946,300.792 236.613 C 300.380 237.280,299.847 238.699,299.608 239.767 C 299.162 241.756,298.070 244.283,294.927 250.600 C 292.309 255.864,291.111 258.065,290.100 259.472 C 289.605 260.160,289.200 260.904,289.200 261.124 C 289.200 261.344,288.615 262.254,287.900 263.146 C 287.185 264.039,285.970 265.607,285.200 266.632 C 282.267 270.535,280.880 272.146,277.000 276.155 C 272.491 280.813,267.420 285.244,263.229 288.186 C 261.673 289.279,260.400 290.292,260.400 290.438 C 260.400 290.584,259.854 290.929,259.187 291.205 C 258.520 291.482,257.326 292.223,256.532 292.854 C 255.739 293.484,254.880 294.000,254.624 294.000 C 254.367 294.000,253.447 294.516,252.579 295.146 C 251.710 295.777,250.339 296.506,249.532 296.767 C 248.725 297.028,247.856 297.492,247.601 297.799 C 247.347 298.105,246.207 298.661,245.069 299.033 C 243.931 299.405,242.280 300.112,241.400 300.605 C 240.520 301.098,238.921 301.712,237.846 301.970 C 236.772 302.228,235.242 302.763,234.446 303.161 C 233.651 303.558,231.879 304.097,230.510 304.360 C 229.140 304.622,226.980 305.200,225.710 305.645 C 219.952 307.661,200.519 308.950,192.400 307.855 C 189.870 307.513,186.469 307.111,184.843 306.960 C 181.242 306.626,180.562 306.064,180.209 303.133 C 179.502 297.259,180.177 239.310,180.962 238.442 C 181.724 237.600,181.739 237.600,211.530 237.600 C 238.704 237.600,241.402 237.542,242.069 236.938 C 243.261 235.859,243.196 192.396,242.000 191.200 C 241.214 190.414,240.667 190.400,211.214 190.400 L 181.228 190.400 180.714 189.500 C 180.329 188.827,180.168 185.075,180.073 174.600 C 179.934 159.345,180.037 157.741,181.231 156.459 L 182.031 155.600 223.367 155.600 C 261.316 155.600,264.747 155.546,265.251 154.939 C 265.690 154.411,265.823 151.303,265.914 139.463 C 266.051 121.788,266.023 121.882,270.087 125.462 M131.120 129.280 C 132.014 130.174,131.794 278.072,130.897 279.180 L 130.193 280.049 127.125 276.924 C 124.041 273.784,122.587 272.084,120.000 268.601 C 119.230 267.564,118.236 266.330,117.791 265.858 C 116.414 264.397,113.177 259.450,110.816 255.200 C 110.144 253.990,109.437 252.730,109.246 252.400 C 108.165 250.536,106.000 245.882,106.000 245.421 C 106.000 245.124,105.467 243.869,104.816 242.631 C 104.165 241.393,103.512 239.710,103.365 238.890 C 103.218 238.071,102.658 236.340,102.121 235.044 C 101.583 233.749,100.896 231.319,100.595 229.644 C 100.293 227.970,99.674 225.170,99.220 223.423 C 97.445 216.600,97.325 191.598,99.037 185.484 C 99.358 184.338,99.901 181.960,100.244 180.200 C 100.587 178.440,101.226 176.010,101.663 174.800 C 102.101 173.590,102.790 171.430,103.196 170.000 C 103.601 168.570,104.398 166.514,104.966 165.432 C 105.535 164.350,106.000 163.202,106.000 162.881 C 106.000 162.560,106.520 161.375,107.155 160.249 C 107.791 159.122,108.447 157.750,108.613 157.200 C 108.779 156.650,109.339 155.643,109.858 154.962 C 110.376 154.281,110.800 153.572,110.800 153.386 C 110.800 152.898,113.979 147.628,115.180 146.123 C 115.741 145.421,116.830 143.908,117.600 142.761 C 118.370 141.613,119.395 140.255,119.878 139.741 C 120.361 139.228,120.901 138.550,121.078 138.235 C 121.717 137.097,129.715 128.800,130.172 128.800 C 130.429 128.800,130.856 129.016,131.120 129.280 " stroke="none" fill="#ffffff" fill-rule="evenodd"></path></g></svg>